<svg xmlns="http://www.w3.org/2000/svg" xmlns:xlink="http://www.w3.org/1999/xlink" viewBox="0 0 668.59 163.72"><defs><style>.cls-1{fill:#fff;}.cls-2{fill:#ffcb58;}.cls-3{fill:#e1ecfd;}.cls-4{fill:#3372f7;}.cls-5{fill:url(#linear-gradient);}.cls-6{fill:#c1d8fb;}.cls-7{fill:url(#linear-gradient-2);}.cls-8{fill:#44485d;}.cls-9{fill:url(#linear-gradient-3);}.cls-10{fill:url(#linear-gradient-4);}.cls-11{fill:none;stroke:#e08119;stroke-linecap:round;stroke-linejoin:round;stroke-width:2px;}.cls-12{fill:#e08119;}</style><linearGradient id="linear-gradient" x1="38.92" y1="77.72" x2="271.58" y2="77.72" gradientUnits="userSpaceOnUse"><stop offset="0" stop-color="#3372f7"/><stop offset="0.8" stop-color="#967cdf"/></linearGradient><linearGradient id="linear-gradient-2" x1="164.03" y1="90.4" x2="287.31" y2="90.4" xlink:href="#linear-gradient"/><linearGradient id="linear-gradient-3" x1="243.49" y1="-205.26" x2="476.15" y2="-205.26" gradientTransform="translate(900.78 -134.08) rotate(180)" xlink:href="#linear-gradient"/><linearGradient id="linear-gradient-4" x1="368.6" y1="-192.58" x2="491.88" y2="-192.58" gradientTransform="translate(900.78 -134.08) rotate(180)" xlink:href="#linear-gradient"/></defs><title>11Asset 1mining-img1</title><g id="Layer_2" data-name="Layer 2"><g id="Layer_1-2" data-name="Layer 1"><line class="cls-1" x1="79.61" y1="75.61" x2="99.06" y2="75.61"/><path class="cls-2" d="M99.06,76.4H79.61a.79.79,0,0,1,0-1.59H99.06a.79.79,0,0,1,0,1.59Z"/><path class="cls-3" d="M209.48,146.18a5.35,5.35,0,0,1-.77-.06,5.29,5.29,0,0,1,1.51-10.47h0a5.29,5.29,0,0,1-.74,10.52Zm0-9.51a4.22,4.22,0,1,0,.61,0h0A4.25,4.25,0,0,0,209.46,136.67Z"/><path class="cls-4" d="M167.54,123.82a2.72,2.72,0,1,1-2.72-2.72,2.72,2.72,0,0,1,2.72,2.72"/><path class="cls-5" d="M152.46,99.25H39.72a.79.79,0,1,1,0-1.59H152.46a13.81,13.81,0,0,0,9.83-4.07l32.86-32.86a15.51,15.51,0,0,1,4.1-2.95H91.53a.79.79,0,1,1,0-1.59H270.79a.79.79,0,1,1,0,1.59H206.11a13.81,13.81,0,0,0-9.83,4.07L163.41,94.71A15.39,15.39,0,0,1,152.46,99.25Z"/><path class="cls-6" d="M312.37,22H152.75a.79.79,0,0,1,0-1.59H312.37a.79.79,0,1,1,0,1.59Z"/><path class="cls-7" d="M164.82,124.61a.79.79,0,0,1-.56-1.35l66.83-66.83a.79.79,0,0,1,.56-.23h54.87a.79.79,0,1,1,0,1.59H232l-66.6,66.6A.79.79,0,0,1,164.82,124.61Z"/><path class="cls-8" d="M172.89,57.78H121.56a.79.79,0,1,1,0-1.59h51.33a.79.79,0,0,1,0,1.59Z"/><path class="cls-4" d="M261.93,6.84H182.67a1.07,1.07,0,0,1,0-2.14h79.26a1.07,1.07,0,0,1,0,2.14Z"/><path class="cls-4" d="M43.34,98.46a3.62,3.62,0,1,1-3.62-3.62,3.62,3.62,0,0,1,3.62,3.62"/><line class="cls-1" x1="616.6" y1="73.29" x2="597.15" y2="73.29"/><path class="cls-2" d="M597.15,72.5H616.6a.79.79,0,1,1,0,1.59H597.15a.79.79,0,1,1,0-1.59Z"/><path class="cls-3" d="M464.08,23.46a4,4,0,0,1,.57,0,3.93,3.93,0,0,1-1.12,7.77h0a3.93,3.93,0,0,1,.55-7.81Zm0,7.06a3.13,3.13,0,1,0-.45,0h0A3.16,3.16,0,0,0,464.09,30.52Z"/><path class="cls-4" d="M528.67,25.09a2.72,2.72,0,1,1,2.72,2.72,2.72,2.72,0,0,1-2.72-2.72"/><path class="cls-9" d="M543.75,49.65H656.5a.79.79,0,0,1,0,1.59H543.75a13.81,13.81,0,0,0-9.83,4.07L501.06,88.17a15.51,15.51,0,0,1-4.1,2.95H604.68a.79.79,0,1,1,0,1.59H425.42a.79.79,0,1,1,0-1.59H490.1a13.81,13.81,0,0,0,9.83-4.07L532.8,54.19A15.39,15.39,0,0,1,543.75,49.65Z"/><path class="cls-6" d="M383.85,126.93H543.46a.79.79,0,0,1,0,1.59H383.85a.79.79,0,1,1,0-1.59Z"/><path class="cls-10" d="M531.39,24.29a.79.79,0,0,1,.56,1.35L465.12,92.48a.79.79,0,0,1-.56.23H409.7a.79.79,0,1,1,0-1.59h54.54l66.6-66.6A.79.79,0,0,1,531.39,24.29Z"/><path class="cls-8" d="M523.32,91.12h51.33a.79.79,0,1,1,0,1.59H523.32a.79.79,0,1,1,0-1.59Z"/><path class="cls-4" d="M425.13,126.93H484a.79.79,0,0,1,0,1.59H425.13a.79.79,0,1,1,0-1.59Z"/><path class="cls-4" d="M652.87,50.44a3.62,3.62,0,1,1,3.62,3.62,3.62,3.62,0,0,1-3.62-3.62"/><polyline class="cls-11" points="406.47 1 343.95 63.52 360.03 79.59 289.74 149.88"/><polyline class="cls-11" points="362.63 27.68 328.12 62.19 343.3 77.37 304.5 116.16"/><polyline class="cls-11" points="396.5 31.2 361.99 65.71 377.17 80.89 338.38 119.68"/><path class="cls-12" d="M0,44.61V30L14.37,19.21H27.65v52H12.41V35.54Z"/><path class="cls-12" d="M626.11,78.45V72.58l5.75-4.3h5.31V89.08h-6.1V74.82Z"/><path class="cls-12" d="M658.77,75.42c5.72,0,9.81,4.68,9.81,11.12s-4.09,11.12-9.81,11.12S649,93,649,86.54,653,75.42,658.77,75.42Zm0,16.9c2.24,0,3.8-2.44,3.8-5.78s-1.57-5.78-3.8-5.78-3.8,2.41-3.8,5.78S656.51,92.32,658.77,92.32Z"/><path class="cls-12" d="M628.63,98.17c5.72,0,9.81,4.68,9.81,11.12s-4.09,11.12-9.81,11.12-9.81-4.68-9.81-11.12S622.88,98.17,628.63,98.17Zm0,16.9c2.24,0,3.8-2.44,3.8-5.78s-1.57-5.78-3.8-5.78-3.8,2.41-3.8,5.78S626.37,115.07,628.63,115.07Z"/><path class="cls-12" d="M646.78,119.1v-5.87l5.75-4.3h5.31v20.79h-6.1V115.47Z"/><path class="cls-12" d="M600.2,114.26c5.72,0,9.81,4.68,9.81,11.12s-4.09,11.12-9.81,11.12-9.81-4.68-9.81-11.12S594.45,114.26,600.2,114.26Zm0,16.9c2.24,0,3.8-2.44,3.8-5.78s-1.57-5.78-3.8-5.78-3.8,2.41-3.8,5.78S597.94,131.16,600.2,131.16Z"/><path class="cls-12" d="M619.56,141.48v-5.87l5.75-4.3h5.31v20.79h-6.1V137.85Z"/><path class="cls-12" d="M656.35,141.48c5.72,0,9.81,4.68,9.81,11.12s-4.09,11.12-9.81,11.12-9.81-4.68-9.81-11.12S650.6,141.48,656.35,141.48Zm0,16.9c2.24,0,3.8-2.44,3.8-5.78s-1.57-5.78-3.8-5.78-3.8,2.41-3.8,5.78S654.09,158.38,656.35,158.38Z"/></g></g></svg>