<svg xmlns="http://www.w3.org/2000/svg" viewBox="0 0 440.57 315.19"><defs><style>.cls-1{opacity:0.5;}.cls-2{fill:#3372f7;}.cls-3{fill:#aa6cea;}.cls-4{fill:#e08119;}</style></defs><title>11Asset 2mining-img2</title><g id="Layer_2" data-name="Layer 2"><g id="Layer_1-2" data-name="Layer 1"><g class="cls-1"><path class="cls-2" d="M197.9,159.66c-.8,8.39-1.78,18.79-2.78,29.18,0,.43-.16.85-.24,1.27-.46,2.45-1.78,4-4.42,3.57s-3.27-2.48-2.95-4.91c.46-3.42,1-6.83,1.35-10.25a197.12,197.12,0,0,0-2.72-60.45,58.69,58.69,0,0,0-115.24.51c-1.77,9.34-.33,18.38.93,27.58.87,6.34.46,12.87.44,19.31a3.45,3.45,0,0,1-4,3.69c-2.44-.18-3.62-1.91-3.37-4.29,1-8.89-.46-17.57-1.77-26.33C57.77,102.48,83.78,68.44,120,63.93c35.73-4.45,67.59,19.14,73.93,54.8,1,5.72,2,11.47,2.52,17.25C197.09,143.17,197.34,150.39,197.9,159.66Z"/><path class="cls-2" d="M128.77,32a97.79,97.79,0,0,1,95.6,80.33q.81,4.45,1.55,8.91c.53,3.2-.5,5.15-2.87,5.53s-4.05-1.2-4.5-4.33c-1.74-12.11-4.72-23.82-10.43-34.77C191,55,153.38,35.2,117.62,40.28,78.37,45.87,47.92,74,40.56,111.54c-.89,4.54-2.41,6.17-5.12,5.49-2.49-.62-3.13-2.7-2.17-7.08,8.93-41,40.51-70.73,81.68-76.81C119.51,32.46,124.16,32.35,128.77,32Z"/><path class="cls-2" d="M127.19,16.29c6.31.48,10.93.79,15.54,1.19,2.6.22,4.43,1.46,4,4.33s-2.46,3.41-5,3.09C83.87,17.77,31.27,58.51,23.93,116.12a111.52,111.52,0,0,0,1.38,34.73c2,10.78-.66,20.5-7.66,29-1.65,2-3.51,3.38-6.06,1.54-2-1.41-1.84-3.66.21-6.18,5.89-7.22,7.81-15.32,6-24.5C5.54,90.1,46.57,29.64,107.37,18.71,114.44,17.44,121.66,16.95,127.19,16.29Z"/><path class="cls-2" d="M150.83,152.49c-.51,40.82-11.33,72.9-32.73,101.39-.58.77-1.14,1.95-1.89,2.12-1.51.34-3.54.69-4.63,0-.9-.6-1.15-2.81-1-4.21.15-1.13,1.36-2.13,2.12-3.17,26.43-36.32,35.73-76.56,27.59-120.77-1.32-7.19-7.2-11.29-14.07-10.06-6.59,1.18-10.57,7.46-9.16,14.68A126.75,126.75,0,0,1,117,182.5c-.69,3.4-2.34,5-4.75,4.36-2.92-.83-3.16-2.94-2.62-5.63a118.74,118.74,0,0,0,.09-47.18c-2.33-11.57,4.21-21.48,15.4-23.65,10.73-2.08,20.83,4.95,22.65,16.45C149.41,137,150.24,147.35,150.83,152.49Z"/><path class="cls-2" d="M244.79,157.44c-.76,10-1.49,20-2.31,30-.26,3.16-2,4.77-4.44,4.25-2.85-.6-3.22-2.62-2.93-5.19,3.11-27.53,2.55-55-4.27-81.88C221.53,67.84,198.42,43.11,163,29.82c-.81-.3-1.66-.5-2.44-.84a3.54,3.54,0,0,1-2.12-4.77A3.35,3.35,0,0,1,162.84,22a52,52,0,0,1,6.7,2.32q58,24.25,70.3,85.87C243,125.75,244.26,141.53,244.79,157.44Z"/><path class="cls-2" d="M127.93,86.48c-27.1.45-46.45,24.9-41.58,51.49,6.58,35.94-3.83,66.58-30.41,91.67-.9.85-2.15,1.89-3.21,1.86-1.28,0-3.29-.88-3.59-1.83a5.47,5.47,0,0,1,.86-4.51c3.78-4.4,8.31-8.2,11.81-12.8,16.55-21.76,22.45-46.16,17.13-73.09C72.6,107.15,98.26,77.38,131,78.93c3.27.15,4.9,1.48,4.84,3.94s-1.78,3.7-5,3.62C129.87,86.46,128.9,86.48,127.93,86.48Z"/><path class="cls-2" d="M182.44,157.08a196.24,196.24,0,0,1-24.77,93.15c-.63,1.13-1.24,2.27-2,3.35-1.23,1.87-3,2.61-5,1.47s-2.56-3.05-1.4-5.24c2.22-4.18,4.59-8.3,6.64-12.57q26.92-56.1,14.62-117.12c-2.31-11.4-8.76-20.23-18.41-26.71-.89-.6-1.86-1.09-2.74-1.71-1.86-1.33-2.37-3.14-1.18-5.07a3.44,3.44,0,0,1,5-1.25,50.45,50.45,0,0,1,17.05,15.54c5.54,7.9,8,16.9,9.17,26.28C180.71,137.13,181.48,147.12,182.44,157.08Z"/><path class="cls-2" d="M23.68,56.11a37.37,37.37,0,0,1,2.26-3.88c20.2-26.32,46.55-42.81,79.15-49,26.83-5.08,52.73-1.73,77.55,9.69,4,1.86,5.23,3.63,4.19,6s-3.19,2.67-7.21.82A120.9,120.9,0,0,0,32.1,56.46c-.59.77-1.07,1.85-1.86,2.18a5.88,5.88,0,0,1-3.87.53C25.3,58.76,24.64,57.27,23.68,56.11Z"/><path class="cls-2" d="M213.14,155.3c-.09,28.34-4.58,53.87-13.7,78.58-.19.51-.38,1-.55,1.52-.86,2.45-2.45,4-5.11,3s-2.78-3.1-1.94-5.63c2.41-7.25,5-14.46,6.9-21.85a209.14,209.14,0,0,0,1.75-99.83A68.44,68.44,0,0,0,190,87.68c-.36-.53-.77-1-1.12-1.59-1.24-2-1.41-4,.61-5.44s4.09-.84,5.57,1.22a77.48,77.48,0,0,1,12.46,26.44A207.69,207.69,0,0,1,213.14,155.3Z"/><path class="cls-2" d="M49.82,155.37c-.56-3.83-1.56-9.55-2.21-15.32-3.28-29.13,6.17-53.4,28-72.88.32-.29.67-.55,1-.82,2-1.59,4-1.76,5.69.27s.9,3.76-.82,5.39a113.76,113.76,0,0,0-9.19,9.07c-15.47,18.5-20.77,39.57-16.47,63.38,4.54,25.16-3.12,46.36-22.28,63.33-2.61,2.32-5,2.42-6.42.38-1.8-2.54-.46-4.3,1.55-6C42.4,190.36,49.3,175.37,49.82,155.37Z"/><path class="cls-2" d="M128.16,156.29c-.88-7.43-1.86-16.2-3-24.95-.41-3.2.43-5.13,2.8-5.55s4,1.12,4.55,4.31c7.08,38.95-.2,75-22.24,107.89-3.11,4.65-6.77,8.93-10.2,13.35-1.62,2.09-3.57,3.28-6.06,1.4-1.94-1.46-1.79-3.71.33-6.19,17.33-20.24,28.16-43.46,31.92-69.87C127.18,170.41,127.47,164,128.16,156.29Z"/><path class="cls-2" d="M257.17,125.15c0,1.56.07,3.82,0,6.08-.12,2.9-1.73,4.73-4,4.45-2.59-.32-3.59-2-3.54-4.55a116.7,116.7,0,0,0-5.14-36.31,119.6,119.6,0,0,0-43.69-62.41l-2.33-1.74c-1.92-1.41-2.66-3.21-1.24-5.29s3.7-2.23,5.62-.68c5.44,4.4,11.1,8.6,16,13.5C242.84,61.94,255.1,90.93,257.17,125.15Z"/><path class="cls-2" d="M166.28,150.67c0,1.83,0,3.66,0,5.49,0,2.52-1,4.3-3.65,4.33s-3.54-1.78-3.77-4.26c-1-10.28-1.64-20.6-3.18-30.8-2-13.44-12.56-22.76-25.4-23.4-13.53-.68-24.6,7.37-28.35,20.69-.72,2.55-1.82,4.5-4.86,3.93-2.4-.45-3.2-2.7-2.33-6a34.91,34.91,0,0,1,68,1.87c1.74,9.29,2.66,18.73,3.95,28.1Z"/><path class="cls-2" d="M104.07,154.53c-.06,32.87-11.36,61-34.88,84.18-1.87,1.84-3.84,3-6.19,1-1.88-1.61-1.46-3.94,1-6.37,23.07-22.83,33.74-50.49,32.28-82.87-.09-2-.43-4.07-.6-6.11-.29-3.36.76-5.16,3.2-5.31,3.19-.19,4,2,4.27,4.55C103.49,147.22,103.76,150.87,104.07,154.53Z"/><path class="cls-2" d="M16.51,69c4,0,5.36,2.76,4.1,5.84-2.67,6.56-5.71,13-7.82,19.76a115.05,115.05,0,0,0-2.11,61.5c.12.52.17,1.07.32,1.58.74,2.59.1,4.66-2.66,5.24s-4-1.17-4.65-3.72A124.05,124.05,0,0,1,5.91,91.41C8,84.77,11,78.4,13.78,72,14.37,70.63,15.9,69.67,16.51,69Z"/><path class="cls-2" d="M128.64,47.39c18.77.5,35.56,6.26,50.29,17.82a6.91,6.91,0,0,1,2.56,4.68c0,3-3.45,3.61-6.44,1.73C169.32,68,163.76,64,157.62,61.3c-19.21-8.38-38.67-8-58.05-.19-.6.24-1.17.55-1.78.77-2.22.78-4.18.42-5.14-1.87a3.47,3.47,0,0,1,2.23-5A184.43,184.43,0,0,1,113,49.34C118.08,48.15,123.42,48,128.64,47.39Z"/><path class="cls-2" d="M165.22,176.92c-2,17.23-6,33.52-13,48.89-4.41,9.66-10,18.79-15,28.16-.2.38-.48.72-.7,1.08-1.39,2.31-3.23,3.58-5.89,2.12-2.06-1.13-2.07-3.44-.42-6.2,3.69-6.2,7.57-12.3,10.86-18.7a162.56,162.56,0,0,0,16.67-55c.32-2.61,1.39-4.46,4.19-4.24A3.49,3.49,0,0,1,165.22,176.92Z"/><path class="cls-2" d="M228.29,159.33a219.41,219.41,0,0,1-7.16,57.5c-.65,2.52-1.7,4.57-4.76,4.07-2.45-.4-3.32-2.59-2.46-5.92a232.44,232.44,0,0,0,7-70.77c-.18-3.32,1-5.05,3.44-5.16s3.88,1.49,3.93,4.78C228.35,149,228.29,154.16,228.29,159.33Z"/><path class="cls-2" d="M41.59,156.09c-.3,16-5.78,28.61-16.82,38.63a6.54,6.54,0,0,1-4.51,1.7c-3-.36-3.47-3.94-1.23-6.54,3.36-3.89,7.06-7.64,9.63-12,6-10.15,6.52-21.16,4-32.53a52.93,52.93,0,0,1-1.08-12.18c0-1.25,2-3.35,3.22-3.45s3.54,1.68,3.74,2.89C39.86,140.75,40.72,149,41.59,156.09Z"/><path class="cls-2" d="M76,244.51a24.92,24.92,0,0,1,2.28-3.46,121.9,121.9,0,0,0,25.07-38.88c1.25-3.1,3.12-4.15,5.35-3.08,2.84,1.37,2.55,3.59,1.56,6a126.13,126.13,0,0,1-26.58,40.95c-1.1,1.13-3.35,1.57-5,1.51C77.83,247.55,77,245.72,76,244.51Z"/><path class="cls-2" d="M41.12,221.29c-3.69-.05-5.42-3.07-3.88-5.54a9.93,9.93,0,0,1,2-2.06,75.19,75.19,0,0,0,20.45-28.31l.36-.9c1-2.37,2.74-3.49,5.13-2.46s2.72,3.15,1.73,5.45c-.89,2.08-1.79,4.16-2.79,6.18A80.67,80.67,0,0,1,44,219.44,21.56,21.56,0,0,1,41.12,221.29Z"/><path class="cls-2" d="M191,208.89c-.64,2.26-.95,3.75-1.48,5.15q-6.09,16.14-12.26,32.24c-.84,2.18-2.24,3.87-4.86,3.12-2.13-.61-3.37-2.29-2.57-4.47,4.5-12.31,9-24.61,13.84-36.81.44-1.11,2.77-2.21,4.06-2S190,208,191,208.89Z"/></g><g class="cls-1"><path class="cls-3" d="M381.28,158.72c-.8,8.39-1.78,18.79-2.78,29.18,0,.43-.16.85-.24,1.27-.46,2.45-1.78,4-4.42,3.57s-3.27-2.48-2.95-4.91c.46-3.42,1-6.83,1.35-10.25a197.12,197.12,0,0,0-2.72-60.45,58.69,58.69,0,0,0-115.24.51c-1.77,9.34-.33,18.38.93,27.58.87,6.34.46,12.87.44,19.31a3.45,3.45,0,0,1-4,3.69c-2.44-.18-3.62-1.91-3.37-4.29,1-8.89-.46-17.57-1.77-26.33-5.4-36.07,20.62-70.11,56.79-74.62,35.73-4.45,67.59,19.14,73.93,54.8,1,5.72,2,11.47,2.52,17.25C380.47,142.23,380.72,149.45,381.28,158.72Z"/><path class="cls-3" d="M312.15,31a97.79,97.79,0,0,1,95.6,80.33q.81,4.45,1.55,8.91c.53,3.2-.5,5.15-2.87,5.53s-4.05-1.2-4.5-4.33c-1.74-12.11-4.72-23.82-10.43-34.77C374.43,54,336.76,34.26,301,39.34c-39.25,5.58-69.71,33.75-77.07,71.26-.89,4.54-2.41,6.17-5.12,5.49-2.49-.62-3.13-2.7-2.17-7.08,8.93-41,40.51-70.73,81.68-76.81C302.89,31.52,307.54,31.41,312.15,31Z"/><path class="cls-3" d="M310.57,15.35c6.31.48,10.93.79,15.54,1.19,2.6.22,4.43,1.46,4,4.33s-2.46,3.41-5,3.09c-57.85-7.12-110.45,33.63-117.78,91.23a111.52,111.52,0,0,0,1.38,34.73c2,10.78-.66,20.5-7.66,29-1.65,2-3.51,3.38-6.06,1.54-2-1.41-1.84-3.66.21-6.18,5.89-7.22,7.81-15.32,6-24.5-12.22-60.59,28.81-121.06,89.6-132C297.82,16.5,305,16,310.57,15.35Z"/><path class="cls-3" d="M334.21,151.55c-.51,40.82-11.33,72.9-32.73,101.39-.58.77-1.14,1.95-1.89,2.12-1.51.34-3.54.69-4.63,0-.9-.6-1.15-2.81-1-4.21.15-1.13,1.36-2.13,2.12-3.17,26.43-36.32,35.73-76.56,27.59-120.77-1.32-7.19-7.2-11.29-14.07-10.06-6.59,1.18-10.57,7.46-9.16,14.68a126.75,126.75,0,0,1-.08,50.07c-.69,3.4-2.34,5-4.75,4.36-2.92-.83-3.16-2.94-2.62-5.63a118.74,118.74,0,0,0,.09-47.18c-2.33-11.57,4.21-21.48,15.4-23.65,10.73-2.08,20.83,4.95,22.65,16.45C332.79,136.1,333.62,146.41,334.21,151.55Z"/><path class="cls-3" d="M428.17,156.5c-.76,10-1.49,20-2.31,30-.26,3.16-2,4.77-4.44,4.25-2.85-.6-3.22-2.62-2.93-5.19,3.11-27.53,2.55-55-4.27-81.88-9.31-36.73-32.43-61.47-67.86-74.75-.81-.3-1.66-.5-2.44-.84a3.54,3.54,0,0,1-2.12-4.77A3.35,3.35,0,0,1,346.21,21a52,52,0,0,1,6.7,2.32q58,24.25,70.3,85.87C426.35,124.81,427.63,140.59,428.17,156.5Z"/><path class="cls-3" d="M311.31,85.54c-27.1.45-46.45,24.9-41.58,51.49,6.58,35.94-3.83,66.58-30.41,91.67-.9.85-2.15,1.89-3.21,1.86-1.28,0-3.29-.88-3.59-1.83a5.47,5.47,0,0,1,.86-4.51c3.78-4.4,8.31-8.2,11.81-12.8,16.55-21.76,22.45-46.16,17.13-73.09C256,106.21,281.64,76.44,314.42,78c3.27.15,4.9,1.48,4.84,3.94s-1.78,3.7-5,3.62C313.25,85.53,312.28,85.54,311.31,85.54Z"/><path class="cls-3" d="M365.82,156.14a196.24,196.24,0,0,1-24.77,93.15c-.63,1.13-1.24,2.27-2,3.35-1.23,1.87-3,2.61-5,1.47s-2.56-3.05-1.4-5.24c2.22-4.18,4.59-8.3,6.64-12.57q26.92-56.1,14.62-117.12c-2.31-11.4-8.76-20.23-18.41-26.71-.89-.6-1.86-1.09-2.74-1.71-1.86-1.33-2.37-3.14-1.18-5.07a3.44,3.44,0,0,1,5-1.25A50.45,50.45,0,0,1,353.73,100c5.54,7.9,8,16.9,9.17,26.28C364.09,136.19,364.86,146.18,365.82,156.14Z"/><path class="cls-3" d="M207.05,55.17a37.37,37.37,0,0,1,2.26-3.88c20.2-26.32,46.55-42.81,79.15-49C315.3-2.78,341.2.58,366,12c4,1.86,5.23,3.63,4.19,6s-3.19,2.67-7.21.82A120.9,120.9,0,0,0,215.48,55.52c-.59.77-1.07,1.85-1.86,2.18a5.88,5.88,0,0,1-3.87.53C208.68,57.83,208,56.33,207.05,55.17Z"/><path class="cls-3" d="M396.51,154.36c-.09,28.34-4.58,53.87-13.7,78.58-.19.51-.38,1-.55,1.52-.86,2.45-2.45,4-5.11,3s-2.78-3.1-1.94-5.63c2.41-7.25,5-14.46,6.9-21.85a209.14,209.14,0,0,0,1.75-99.83,68.44,68.44,0,0,0-10.51-23.46c-.36-.53-.77-1-1.12-1.59-1.24-2-1.41-4,.61-5.44s4.09-.84,5.57,1.22a77.48,77.48,0,0,1,12.46,26.44A207.69,207.69,0,0,1,396.51,154.36Z"/><path class="cls-3" d="M233.2,154.44c-.56-3.83-1.56-9.55-2.21-15.32-3.28-29.13,6.17-53.4,28-72.88.32-.29.67-.55,1-.82,2-1.59,4-1.76,5.69.27s.9,3.76-.82,5.39a113.76,113.76,0,0,0-9.19,9.07c-15.47,18.5-20.77,39.57-16.47,63.38,4.54,25.16-3.12,46.36-22.28,63.33-2.61,2.32-5,2.42-6.42.38-1.8-2.54-.46-4.3,1.55-6C225.78,189.42,232.67,174.44,233.2,154.44Z"/><path class="cls-3" d="M311.54,155.35c-.88-7.43-1.86-16.2-3-24.95-.41-3.2.43-5.13,2.8-5.55s4,1.12,4.55,4.31c7.08,38.95-.2,75-22.24,107.89-3.11,4.65-6.77,8.93-10.2,13.35-1.62,2.09-3.57,3.28-6.06,1.4-1.94-1.46-1.79-3.71.33-6.19,17.33-20.24,28.16-43.46,31.92-69.87C310.56,169.47,310.84,163.1,311.54,155.35Z"/><path class="cls-3" d="M440.55,124.21c0,1.56.07,3.82,0,6.08-.12,2.9-1.73,4.73-4,4.45-2.59-.32-3.59-2-3.54-4.55a116.7,116.7,0,0,0-5.14-36.31,119.6,119.6,0,0,0-43.69-62.41l-2.33-1.74c-1.92-1.41-2.66-3.21-1.24-5.29s3.7-2.23,5.62-.68c5.44,4.4,11.1,8.6,16,13.5C426.21,61,438.48,90,440.55,124.21Z"/><path class="cls-3" d="M349.66,149.74c0,1.83,0,3.66,0,5.49,0,2.52-1,4.3-3.65,4.33s-3.54-1.78-3.77-4.26c-1-10.28-1.64-20.6-3.18-30.8-2-13.44-12.56-22.76-25.4-23.4-13.53-.68-24.6,7.37-28.35,20.69-.72,2.55-1.82,4.5-4.86,3.93-2.4-.45-3.2-2.7-2.33-6a34.91,34.91,0,0,1,68,1.87c1.74,9.29,2.66,18.73,3.95,28.1Z"/><path class="cls-3" d="M287.45,153.59c-.06,32.87-11.36,61-34.88,84.18-1.87,1.84-3.84,3-6.19,1-1.88-1.61-1.46-3.94,1-6.37,23.07-22.83,33.74-50.49,32.28-82.87-.09-2-.43-4.07-.6-6.11-.29-3.36.76-5.16,3.2-5.31,3.19-.19,4,2,4.27,4.55C286.87,146.28,287.14,149.93,287.45,153.59Z"/><path class="cls-3" d="M199.88,68.09c4,0,5.36,2.76,4.1,5.84-2.67,6.56-5.71,13-7.82,19.76A115.05,115.05,0,0,0,194,155.2c.12.52.17,1.07.32,1.58.74,2.59.1,4.66-2.66,5.24s-4-1.17-4.65-3.72a124.05,124.05,0,0,1,2.23-67.84c2.11-6.63,5.08-13,7.87-19.4C197.75,69.69,199.27,68.73,199.88,68.09Z"/><path class="cls-3" d="M312,46.45c18.77.5,35.56,6.26,50.29,17.82a6.91,6.91,0,0,1,2.56,4.68c0,3-3.45,3.61-6.44,1.73C352.7,67.09,347.14,63,341,60.36c-19.21-8.38-38.67-8-58.05-.19-.6.24-1.17.55-1.78.77-2.22.78-4.18.42-5.14-1.87a3.47,3.47,0,0,1,2.23-5,184.43,184.43,0,0,1,18.1-5.71C301.46,47.22,306.79,47.06,312,46.45Z"/><path class="cls-3" d="M348.59,176c-2,17.23-6,33.52-13,48.89-4.41,9.66-10,18.79-15,28.16-.2.38-.48.72-.7,1.08-1.39,2.31-3.23,3.58-5.89,2.12-2.06-1.13-2.07-3.44-.42-6.2,3.69-6.2,7.57-12.3,10.86-18.7a162.56,162.56,0,0,0,16.67-55c.32-2.61,1.39-4.46,4.19-4.24A3.49,3.49,0,0,1,348.59,176Z"/><path class="cls-3" d="M411.67,158.39a219.41,219.41,0,0,1-7.16,57.5c-.65,2.52-1.7,4.57-4.76,4.07-2.45-.4-3.32-2.59-2.46-5.92a232.44,232.44,0,0,0,7-70.77c-.18-3.32,1-5.05,3.44-5.16s3.88,1.49,3.93,4.78C411.73,148.06,411.67,153.22,411.67,158.39Z"/><path class="cls-3" d="M225,155.15c-.3,16-5.78,28.61-16.82,38.63a6.54,6.54,0,0,1-4.51,1.7c-3-.36-3.47-3.94-1.23-6.54,3.36-3.89,7.06-7.64,9.63-12,6-10.15,6.52-21.16,4-32.53A52.93,52.93,0,0,1,215,132.2c0-1.25,2-3.35,3.22-3.45s3.54,1.68,3.74,2.89C223.24,139.81,224.1,148.06,225,155.15Z"/><path class="cls-3" d="M259.42,243.57a24.92,24.92,0,0,1,2.28-3.46,121.9,121.9,0,0,0,25.07-38.88c1.25-3.1,3.12-4.15,5.35-3.08,2.84,1.37,2.55,3.59,1.56,6a126.13,126.13,0,0,1-26.58,40.95c-1.1,1.13-3.35,1.57-5,1.51C261.21,246.62,260.4,244.78,259.42,243.57Z"/><path class="cls-3" d="M224.5,220.35c-3.69-.05-5.42-3.07-3.88-5.54a9.93,9.93,0,0,1,2-2.06,75.19,75.19,0,0,0,20.45-28.31l.36-.9c1-2.37,2.74-3.49,5.13-2.46s2.72,3.15,1.73,5.45c-.89,2.08-1.79,4.16-2.79,6.18a80.67,80.67,0,0,1-20.19,25.79A21.56,21.56,0,0,1,224.5,220.35Z"/><path class="cls-3" d="M374.35,208c-.64,2.26-.95,3.75-1.48,5.15q-6.09,16.14-12.26,32.24c-.84,2.18-2.24,3.87-4.86,3.12-2.13-.61-3.37-2.29-2.57-4.47,4.5-12.31,9-24.61,13.84-36.81.44-1.11,2.77-2.21,4.06-2S373.42,207.08,374.35,208Z"/></g><path class="cls-4" d="M123.83,294.31h4.08l3.51,13.08H132l3.51-13.08h4.08l-4.26,14.88h-7.2Z"/><path class="cls-4" d="M145.82,303a2.91,2.91,0,0,0,.31,1.21,3,3,0,0,0,.78,1,3.72,3.72,0,0,0,1.14.63,4.12,4.12,0,0,0,1.37.22,3.93,3.93,0,0,0,2.16-.49,3,3,0,0,0,1.08-1.19l3.24,1.8a6.41,6.41,0,0,1-.75,1.19,5.25,5.25,0,0,1-1.25,1.13,6.94,6.94,0,0,1-1.86.84,8.92,8.92,0,0,1-2.56.33,8.32,8.32,0,0,1-3.06-.54,6.76,6.76,0,0,1-2.39-1.56,7,7,0,0,1-1.56-2.49,9.36,9.36,0,0,1-.56-3.33v-.18a8.06,8.06,0,0,1,.58-3.12,7.08,7.08,0,0,1,1.6-2.4,7.38,7.38,0,0,1,2.39-1.54,7.7,7.7,0,0,1,2.92-.55,7.44,7.44,0,0,1,3.3.67,7.12,7.12,0,0,1,2.28,1.71,6.73,6.73,0,0,1,1.32,2.28,7.54,7.54,0,0,1,.42,2.41v2Zm3.57-5.67A3.58,3.58,0,0,0,147,298a3.36,3.36,0,0,0-1.17,1.69h7a2.67,2.67,0,0,0-1.12-1.74A3.94,3.94,0,0,0,149.39,297.31Z"/><path class="cls-4" d="M159.38,294.31h6.3v2.16h.54a3.63,3.63,0,0,1,1.42-1.9,4.23,4.23,0,0,1,2.42-.67,4.74,4.74,0,0,1,3.57,1.4,5.89,5.89,0,0,1,1.35,4.24v.66l-3.9.36v-.42a2.92,2.92,0,0,0-.63-2,2.35,2.35,0,0,0-1.89-.73,2.43,2.43,0,0,0-2,.87,3.81,3.81,0,0,0-.72,2.49v4.8h3.42v3.6H159v-3.6h3.06v-7.68h-2.7Z"/><path class="cls-4" d="M178,305.59h5v-7.68h-4.68v-3.6h8.46v11.28h4.32v3.6H178Zm9.75-15.69a2.82,2.82,0,0,1-.23,1.13,2.71,2.71,0,0,1-.61.9,3,3,0,0,1-.92.6,2.76,2.76,0,0,1-1.1.23,2.72,2.72,0,0,1-1.11-.23,3.06,3.06,0,0,1-.9-.6,2.71,2.71,0,0,1-.62-.9,2.93,2.93,0,0,1,0-2.25,2.73,2.73,0,0,1,.62-.9,3.07,3.07,0,0,1,.9-.6,2.72,2.72,0,0,1,1.11-.23,2.76,2.76,0,0,1,1.1.23,3,3,0,0,1,.92.6,2.73,2.73,0,0,1,.61.9A2.82,2.82,0,0,1,187.73,289.9Z"/><path class="cls-4" d="M195.2,294.31h4.23v-3.06a3,3,0,0,1,.87-2.18,2.91,2.91,0,0,1,2.16-.88h6.06v3.6H204q-.81,0-.81.9v1.62h5.85v3.6h-5.85v11.28h-3.78V297.91H195.2Z"/><path class="cls-4" d="M223,294.31h3.78v18.54a2.31,2.31,0,0,1-.65,1.68,2.23,2.23,0,0,1-1.67.66h-8.85v-3.6h6.57q.81,0,.81-.9V307h-.54q-1,2.58-4.26,2.58a5.85,5.85,0,0,1-2.07-.36,4.49,4.49,0,0,1-1.68-1.11,5.21,5.21,0,0,1-1.12-1.87,7.84,7.84,0,0,1-.41-2.66v-9.3h3.78v8.52a3.71,3.71,0,0,0,.75,2.48,2.78,2.78,0,0,0,2.25.88,2.89,2.89,0,0,0,2.5-1.1,5,5,0,0,0,.79-3Z"/><path class="cls-4" d="M230.81,305.59h5v-7.68h-4.68v-3.6h8.46v11.28h4.32v3.6H230.81Zm9.75-15.69a2.82,2.82,0,0,1-.23,1.13,2.71,2.71,0,0,1-.61.9,3,3,0,0,1-.92.6,2.76,2.76,0,0,1-1.1.23,2.72,2.72,0,0,1-1.11-.23,3.06,3.06,0,0,1-.9-.6,2.71,2.71,0,0,1-.62-.9,2.93,2.93,0,0,1,0-2.25,2.73,2.73,0,0,1,.62-.9,3.07,3.07,0,0,1,.9-.6,2.72,2.72,0,0,1,1.11-.23,2.76,2.76,0,0,1,1.1.23,3,3,0,0,1,.92.6,2.73,2.73,0,0,1,.61.9A2.82,2.82,0,0,1,240.56,289.9Z"/><path class="cls-4" d="M251.93,309.19h-3.78V294.31h3.78v2.22h.54a4,4,0,0,1,1.65-1.95,5.06,5.06,0,0,1,2.67-.69,5.87,5.87,0,0,1,2,.34,4.53,4.53,0,0,1,1.67,1.06,4.94,4.94,0,0,1,1.13,1.83,7.71,7.71,0,0,1,.41,2.64v9.42h-3.78v-8.46a3.79,3.79,0,0,0-.77-2.5,2.71,2.71,0,0,0-2.2-.92,2.9,2.9,0,0,0-2.51,1.13,5,5,0,0,0-.82,3Z"/><path class="cls-4" d="M276.38,307h-.54a5.74,5.74,0,0,1-.58,1,3.42,3.42,0,0,1-.9.83,4.72,4.72,0,0,1-1.32.57,7.06,7.06,0,0,1-1.85.21,6.58,6.58,0,0,1-2.56-.5,5.76,5.76,0,0,1-2.07-1.47,6.9,6.9,0,0,1-1.38-2.39,9.75,9.75,0,0,1-.5-3.24v-.54a9.16,9.16,0,0,1,.53-3.21,7,7,0,0,1,1.44-2.39,6.17,6.17,0,0,1,2.13-1.48,6.56,6.56,0,0,1,2.56-.51,5.22,5.22,0,0,1,2.85.67,4.61,4.61,0,0,1,1.65,1.9h.54v-2.16h3.78v18.54a2.31,2.31,0,0,1-.65,1.68,2.23,2.23,0,0,1-1.67.66h-10v-3.6h7.74q.81,0,.81-.9Zm-4-1a3.82,3.82,0,0,0,2.87-1.12,4.06,4.06,0,0,0,1.09-3v-.36a4.06,4.06,0,0,0-1.09-3,3.82,3.82,0,0,0-2.87-1.12,3.87,3.87,0,0,0-2.87,1.1,4,4,0,0,0-1.09,3v.36a4,4,0,0,0,1.09,3A3.87,3.87,0,0,0,272.42,306Z"/><path class="cls-4" d="M293.06,306.76a2.82,2.82,0,0,1-.22,1.13,2.73,2.73,0,0,1-.62.9,3,3,0,0,1-.92.6,2.75,2.75,0,0,1-1.09.23,2.71,2.71,0,0,1-1.11-.23,3.07,3.07,0,0,1-.9-.6,2.71,2.71,0,0,1-.61-.9,2.92,2.92,0,0,1,0-2.25,2.72,2.72,0,0,1,.61-.9,3.08,3.08,0,0,1,.9-.6,2.72,2.72,0,0,1,1.11-.22,2.75,2.75,0,0,1,1.09.22,3,3,0,0,1,.92.6,2.74,2.74,0,0,1,.62.9A2.83,2.83,0,0,1,293.06,306.76Z"/><path class="cls-4" d="M310.67,306.76a2.82,2.82,0,0,1-.22,1.13,2.73,2.73,0,0,1-.62.9,3,3,0,0,1-.92.6,2.75,2.75,0,0,1-1.09.23,2.71,2.71,0,0,1-1.11-.23,3.07,3.07,0,0,1-.9-.6,2.71,2.71,0,0,1-.61-.9,2.92,2.92,0,0,1,0-2.25,2.72,2.72,0,0,1,.61-.9,3.08,3.08,0,0,1,.9-.6,2.72,2.72,0,0,1,1.11-.22,2.75,2.75,0,0,1,1.09.22,3,3,0,0,1,.92.6,2.74,2.74,0,0,1,.62.9A2.83,2.83,0,0,1,310.67,306.76Z"/><path class="cls-4" d="M328.28,306.76a2.82,2.82,0,0,1-.22,1.13,2.73,2.73,0,0,1-.62.9,3,3,0,0,1-.92.6,2.75,2.75,0,0,1-1.09.23,2.71,2.71,0,0,1-1.11-.23,3.07,3.07,0,0,1-.9-.6,2.71,2.71,0,0,1-.61-.9,2.92,2.92,0,0,1,0-2.25,2.72,2.72,0,0,1,.61-.9,3.08,3.08,0,0,1,.9-.6,2.72,2.72,0,0,1,1.11-.22,2.75,2.75,0,0,1,1.09.22,3,3,0,0,1,.92.6,2.74,2.74,0,0,1,.62.9A2.83,2.83,0,0,1,328.28,306.76Z"/></g></g></svg>