<svg xmlns="http://www.w3.org/2000/svg" viewBox="0 0 440.38 102.85"><defs><style>.cls-1{fill:#3372f7;}</style></defs><title>11Asset 3mining-img3</title><g id="Layer_2" data-name="Layer 2"><g id="Layer_1-2" data-name="Layer 1"><path class="cls-1" d="M121.3,36.4V2.81h10.18V15.1h11.21V2.81h10.18V36.4H142.69V23H131.48V36.4Z"/><path class="cls-1" d="M162.67,0a4.76,4.76,0,0,1,5,4.83,5,5,0,0,1-10.08,0A4.8,4.8,0,0,1,162.67,0Zm4.5,36.4h-9.05V12.2h9.05Z"/><path class="cls-1" d="M179.74,37.85a4.7,4.7,0,0,0,4.55,3.42c2.72,0,4.64-2,4.64-5.35V33.3a9.24,9.24,0,0,1-7.27,3.24c-6.24,0-10.79-5-10.79-12.24,0-7.74,4.55-13,10.79-13a8.94,8.94,0,0,1,7.27,3.47V12.2h9V36.26c0,7.27-5.35,11.87-13.27,11.87-6.75,0-12.05-3.89-12.81-9.33Zm9.57-13.56c0-3-2-5.16-4.69-5.16s-4.69,2.16-4.69,5.16,1.92,5.07,4.69,5.07A4.74,4.74,0,0,0,189.31,24.3Z"/><path class="cls-1" d="M226.88,20.54V36.4h-9.05V22.94c0-2.25-1.27-3.8-3.24-3.8s-3.42,1.59-3.42,3.94V36.4h-9.05v-35h9.05V14.73a8.52,8.52,0,0,1,7.08-3.47C223.41,11.26,226.88,15,226.88,20.54Z"/><path class="cls-1" d="M247.7,28.33l7.83,1.27c-1,4.5-6.19,7.74-12.38,7.74-8,0-13.56-5.3-13.56-13.13s5.68-12.95,13.7-12.95,13.27,5.25,13.27,13c0,.7,0,2-.09,2.44H238.89c.61,2.53,2.25,4.08,4.74,4.08A4.28,4.28,0,0,0,247.7,28.33ZM247.52,22a4.51,4.51,0,0,0-4.41-4.27c-2.3,0-3.8,1.69-4.27,4.27Z"/><path class="cls-1" d="M277.53,11.82v8a12.31,12.31,0,0,0-4.27-1c-2.67,0-4.46,2.06-4.46,5.07V36.4h-9.05V12.2h8.68v3a7.49,7.49,0,0,1,6.38-4A8.06,8.06,0,0,1,277.53,11.82Z"/><path class="cls-1" d="M303.61,25.28V36.4H293.43V2.81h23.88v8.63h-13.7v6.33h10.93v7.5Z"/><path class="cls-1" d="M335.74,28.33l7.83,1.27c-1,4.5-6.19,7.74-12.38,7.74-8,0-13.56-5.3-13.56-13.13s5.68-12.95,13.7-12.95,13.27,5.25,13.27,13c0,.7,0,2-.09,2.44H326.92c.61,2.53,2.25,4.08,4.74,4.08A4.28,4.28,0,0,0,335.74,28.33ZM335.55,22a4.5,4.5,0,0,0-4.41-4.27c-2.3,0-3.8,1.69-4.27,4.27Z"/><path class="cls-1" d="M364.91,28.33l7.83,1.27c-1,4.5-6.19,7.74-12.38,7.74-8,0-13.56-5.3-13.56-13.13s5.68-12.95,13.7-12.95,13.27,5.25,13.27,13c0,.7,0,2-.09,2.44H356.09c.61,2.53,2.25,4.08,4.74,4.08A4.28,4.28,0,0,0,364.91,28.33ZM364.72,22a4.5,4.5,0,0,0-4.41-4.27c-2.3,0-3.8,1.69-4.27,4.27Z"/><path class="cls-1" d="M121.3,91.12V57.53h10.18V69.82h11.21V57.53h10.18V91.12H142.69V77.75H131.48V91.12Z"/><path class="cls-1" d="M162.67,54.72a4.86,4.86,0,1,1,0,9.71,4.86,4.86,0,1,1,0-9.71Zm4.5,36.4h-9.05V66.92h9.05Z"/><path class="cls-1" d="M179.74,92.57A4.7,4.7,0,0,0,184.29,96c2.72,0,4.64-2,4.64-5.35V88a9.24,9.24,0,0,1-7.27,3.24c-6.24,0-10.79-5-10.79-12.24,0-7.74,4.55-13,10.79-13a8.94,8.94,0,0,1,7.27,3.47V66.92h9V91c0,7.27-5.35,11.87-13.27,11.87-6.75,0-12.05-3.89-12.81-9.33ZM189.31,79c0-3-2-5.16-4.69-5.16S179.93,76,179.93,79s1.92,5.07,4.69,5.07A4.74,4.74,0,0,0,189.31,79Z"/><path class="cls-1" d="M226.88,75.26V91.12h-9.05V77.66c0-2.25-1.27-3.8-3.24-3.8s-3.42,1.59-3.42,3.94V91.12h-9.05v-35h9.05V69.45A8.52,8.52,0,0,1,218.25,66C223.41,66,226.88,69.73,226.88,75.26Z"/><path class="cls-1" d="M247.7,83.05l7.83,1.27c-1,4.5-6.19,7.74-12.38,7.74-8,0-13.56-5.3-13.56-13.13S235.27,66,243.3,66s13.27,5.25,13.27,13c0,.7,0,2-.09,2.44H238.89c.61,2.53,2.25,4.08,4.74,4.08A4.28,4.28,0,0,0,247.7,83.05Zm-.19-6.33a4.51,4.51,0,0,0-4.41-4.27c-2.3,0-3.8,1.69-4.27,4.27Z"/><path class="cls-1" d="M277.53,66.54v8a12.31,12.31,0,0,0-4.27-1c-2.67,0-4.46,2.06-4.46,5.07V91.12h-9.05V66.92h8.68v3a7.49,7.49,0,0,1,6.38-4A8.06,8.06,0,0,1,277.53,66.54Z"/><path class="cls-1" d="M292.21,80H301c0,2.86,2.72,5,6.38,5,3,0,4.93-1.41,4.93-3.28,0-5.91-19.94-.09-19.94-13.84,0-6.94,6-11.54,14.4-11.54s14.54,4.92,14.59,11.73H312.9c0-2.58-2.49-4.46-5.82-4.46-2.86,0-4.83,1.27-4.83,3,0,5.63,19.94-.09,19.94,13.65,0,7.08-6.24,12-15.1,12C298.45,92.29,292.21,87.13,292.21,80Z"/><path class="cls-1" d="M334.75,101.91H325.7v-35h9V69.4A9,9,0,0,1,341.93,66c6.43,0,10.84,5.3,10.84,13s-4.41,13-10.84,13a8.89,8.89,0,0,1-7.18-3.47Zm4.31-28c-2.77,0-4.69,2.16-4.69,5.11s1.92,5.07,4.69,5.07A4.74,4.74,0,0,0,343.76,79C343.76,76.06,341.79,73.9,339.07,73.9Z"/><path class="cls-1" d="M373.07,83.05l7.83,1.27c-1,4.5-6.19,7.74-12.38,7.74-8,0-13.56-5.3-13.56-13.13S360.64,66,368.66,66s13.27,5.25,13.27,13c0,.7,0,2-.09,2.44H364.25c.61,2.53,2.25,4.08,4.74,4.08A4.28,4.28,0,0,0,373.07,83.05Zm-.19-6.33a4.51,4.51,0,0,0-4.41-4.27c-2.3,0-3.8,1.69-4.27,4.27Z"/><path class="cls-1" d="M402.25,83.05l7.83,1.27c-1,4.5-6.19,7.74-12.38,7.74-8,0-13.56-5.3-13.56-13.13S389.82,66,397.84,66s13.27,5.25,13.27,13c0,.7,0,2-.09,2.44H393.43c.61,2.53,2.25,4.08,4.74,4.08A4.28,4.28,0,0,0,402.25,83.05Zm-.19-6.33a4.51,4.51,0,0,0-4.41-4.27c-2.3,0-3.8,1.69-4.27,4.27Z"/><path class="cls-1" d="M431.37,56.13h9v35h-9V88.59a8.79,8.79,0,0,1-7.22,3.47c-6.43,0-10.84-5.3-10.84-13s4.41-13,10.84-13a9,9,0,0,1,7.22,3.47Zm-4.31,28A4.74,4.74,0,0,0,431.75,79c0-3-2-5.11-4.69-5.11s-4.69,2.16-4.69,5.11S424.34,84.08,427.06,84.08Z"/><rect class="cls-1" x="25.53" y="23.2" width="28.73" height="67.4"/><polygon class="cls-1" points="39.89 1.81 0 49.04 79.79 49.04 39.89 1.81"/></g></g></svg>