<?xml version="1.0" encoding="UTF-8"?>
<svg width="57px" height="57px" viewBox="0 0 57 57" version="1.1" xmlns="http://www.w3.org/2000/svg" xmlns:xlink="http://www.w3.org/1999/xlink">
    <!-- Generator: Sketch 50.2 (55047) - http://www.bohemiancoding.com/sketch -->
    <title>Group</title>
    <desc>Created with Sketch.</desc>
    <defs>
        <style>
            .vertical-shape{
                transform: translateX(-0.5px);
            }
        </style>
    </defs>
    <g id="Page-1" stroke="none" stroke-width="1" fill="none" fill-rule="evenodd">
        <g id="goodbit-logo" fill-rule="nonzero">
            <g id="Group">
                <circle id="Oval" fill="#5086FF" cx="28.27" cy="28.27" r="28.27"></circle>
                <path d="M28.27,49.07 C19.8558312,49.0717632 12.2693928,44.0039852 9.04919126,36.2304054 C5.82898969,28.4568257 7.60940241,19.5088342 13.56,13.56 C14.2674786,12.6311115 15.4496384,12.1971025 16.5900914,12.4475559 C17.7305444,12.6980092 18.6220703,13.5874175 18.8752351,14.7272717 C19.1283998,15.8671258 18.6972034,17.0503144 17.77,17.76 C14.2535125,21.2549808 12.7116758,26.2734958 13.6592743,31.1399763 C14.6068728,36.0064568 17.9190707,40.0797967 22.49,42 C26.1885758,43.544451 30.3514242,43.544451 34.05,42 C40.5637849,39.2500427 44.2379135,32.2912733 42.834945,25.3613859 C41.4319766,18.4314985 35.340478,13.4497983 28.27,13.45 C27.1150489,13.600043 25.9776259,13.0680741 25.3524164,12.085456 C24.727207,11.102838 24.727207,9.84716205 25.3524164,8.864544 C25.9776259,7.88192595 27.1150489,7.34995705 28.27,7.5 C35.7029107,7.49999984 42.5712035,11.4654104 46.2876589,17.9024999 C50.0041143,24.3395893 50.0041143,32.2704107 46.2876589,38.7075001 C42.5712035,45.1445896 35.7029107,49.1100002 28.27,49.11 L28.27,49.07 Z" id="Shape" fill="#FFFFFF"></path>
                <path class="vertical-shape" d="M28.27,31.24 C26.6131458,31.24 25.27,29.8968542 25.27,28.24 L25.27,10.44 C25.4642046,8.94511562 26.7375536,7.82649062 28.245,7.82649062 C29.7524464,7.82649062 31.0257954,8.94511562 31.22,10.44 L31.22,28.27 C31.2039654,29.8958353 29.8956898,31.2129805 28.27,31.24 Z" id="Shape" fill="#fff"></path>
            </g>
        </g>
    </g>
</svg>