<?xml version="1.0" encoding="UTF-8"?>
<svg width="252px" height="260px" viewBox="0 0 252 260" version="1.1" xmlns="http://www.w3.org/2000/svg" xmlns:xlink="http://www.w3.org/1999/xlink">
    <!-- Generator: Sketch 50.2 (55047) - http://www.bohemiancoding.com/sketch -->
    <title>about-left-mobile</title>
    <desc>Created with Sketch.</desc>
    <defs>
        <linearGradient x1="100%" y1="100%" x2="0%" y2="100%" id="linearGradient-1">
            <stop stop-color="#927FDA" offset="0%"></stop>
            <stop stop-color="#D2C8EE" offset="100%"></stop>
        </linearGradient>
    </defs>
    <g id="Page-1" stroke="none" stroke-width="1" fill="none" fill-rule="evenodd">
        <g id="about-left-mobile">
            <circle id="Oval" fill="#3C6FE8" fill-rule="nonzero" cx="186.34" cy="255.33" r="4"></circle>
            <path d="M32.54,2 C34.749139,2 36.54,3.790861 36.54,6 C36.54,8.209139 34.749139,10 32.54,10 C30.330861,10 28.54,8.209139 28.54,6 C28.54,3.790861 30.330861,2 32.54,2 Z M32.54,8.8817842e-16 C29.2262915,1.1293615e-15 26.54,2.6862915 26.54,6 C26.54,9.3137085 29.2262915,12 32.54,12 C35.8537085,12 38.54,9.3137085 38.54,6 C38.54,2.6862915 35.8537085,2.86744138e-15 32.54,8.8817842e-16 Z" id="Shape" fill="#3C6FE8" fill-rule="nonzero"></path>
            <rect id="Rectangle" fill="url(#linearGradient-1)" x="0" y="141.5" width="241" height="3"></rect>
            <rect id="Rectangle-Copy" fill="url(#linearGradient-1)" x="0" y="91.5" width="122" height="3"></rect>
            <circle id="Oval" fill="#907FD7" fill-rule="nonzero" cx="246" cy="143" r="6"></circle>
            <circle id="Oval" fill="#907FD7" fill-rule="nonzero" cx="125.98" cy="93.16" r="6"></circle>
        </g>
    </g>
</svg>