<svg xmlns="http://www.w3.org/2000/svg" viewBox="0 0 133.49 160.66"><defs><style>.cls-1{fill:#3c6fe8;}.cls-2{opacity:0.5;}</style></defs><title>11Asset 2about-right-mobile</title><g id="Layer_2" data-name="Layer 2"><g id="Layer_1-2" data-name="Layer 1"><path class="cls-1" d="M6,89.16a4,4,0,1,1-4,4,4,4,0,0,1,4-4m0-2a6,6,0,1,0,6,6,6,6,0,0,0-6-6Z"/><g class="cls-2"><path class="cls-1" d="M79.5,150.66a4,4,0,1,1-4,4,4,4,0,0,1,4-4m0-2a6,6,0,1,0,6,6,6,6,0,0,0-6-6Z"/></g><path class="cls-1" d="M127.49,2a4,4,0,1,1-4,4,4,4,0,0,1,4-4m0-2a6,6,0,1,0,6,6,6,6,0,0,0-6-6Z"/></g></g></svg>