<svg xmlns="http://www.w3.org/2000/svg" viewBox="0 0 83.24 83.25">
		<defs>
			<style>
				.cls-1 {
					fill: #ffffff;
				}
			</style>
		</defs>
		<title>11Asset 3bitcoin</title>
		<g id="Layer_2" data-name="Layer 2">
			<g id="Layer_1-2" data-name="Layer 1">
				<path class="cls-1" d="M43.48,83.25H39.74a4.35,4.35,0,0,0-.46-.07,39.22,39.22,0,0,1-8.61-1.39A41,41,0,0,1,7.1,64.86a40.74,40.74,0,0,1-7-26.78A39.61,39.61,0,0,1,2.93,26.24,41.33,41.33,0,0,1,21.66,5.1,40.29,40.29,0,0,1,37.13.25L39.74,0h3.74l.58.08c2,.27,4.12.39,6.13.83a41,41,0,0,1,25.25,16.5A40.46,40.46,0,0,1,83,37.19c.09.86.16,1.71.24,2.57v3.74c0,.18-.07.36-.07.54a38.94,38.94,0,0,1-1.25,8A41.22,41.22,0,0,1,64.18,76.59,40.29,40.29,0,0,1,46.05,83ZM59.29,39l.26-.18a11,11,0,0,0,5-11.79A9.39,9.39,0,0,0,60.21,21a22.2,22.2,0,0,0-9-3.25c-.85-.14-1.7-.23-2.6-.35V6.83H42V17.29H37.67V6.83h-6.6V17.32H18V24.1h.48c1.6,0,3.2,0,4.8,0a5.53,5.53,0,0,1,1.46.23,1.9,1.9,0,0,1,1.44,1.88c0,.2,0,.4,0,.59q0,14.25,0,28.5c0,.3,0,.6,0,.89a2.48,2.48,0,0,1-2.79,2.61H18.61l-.22,6.91h12.7v10.7h6.57V65.76h4.39V76.44h6.57V65.73H50a28.24,28.24,0,0,0,8.26-1.09,13,13,0,0,0,7-4.67,15.91,15.91,0,0,0,2.64-11.51,10.35,10.35,0,0,0-5.76-8.11C61.22,39.84,60.24,39.48,59.29,39Z" />
				<path class="cls-1" d="M37.7,44.18l.23,0c3,0,6,0,9,0a12.13,12.13,0,0,1,5.62,1.45,4.73,4.73,0,0,1,2.75,3.79c.27,3.26-.86,6.48-4.81,7.91a15.38,15.38,0,0,1-5.13.83c-2.41,0-4.81,0-7.22,0l-.4,0Z" />
				<path class="cls-1" d="M37.69,37.41V24.6s.07,0,.09,0a56,56,0,0,1,8.13.25,10.64,10.64,0,0,1,3.46,1.09,4.89,4.89,0,0,1,2.76,4.7,6.53,6.53,0,0,1-3.3,6,6.08,6.08,0,0,1-3.15.85c-2.49,0-5,0-7.47,0Z" />
			</g>
		</g>
	</svg>