<svg xmlns="http://www.w3.org/2000/svg" xmlns:xlink="http://www.w3.org/1999/xlink" viewBox="0 0 83.06 83.06"><defs><style>.cls-1{fill:#9a66dd;}.cls-2{clip-path:url(#clip-path);}.cls-3{fill:url(#linear-gradient);}.cls-4{fill:#fff;}</style><clipPath id="clip-path"><circle class="cls-1" cx="41.53" cy="41.53" r="41.53"/></clipPath><linearGradient id="linear-gradient" x1="51.23" y1="19.13" x2="51.23" y2="83.06" gradientUnits="userSpaceOnUse"><stop offset="0" stop-color="#7345dd"/><stop offset="1" stop-color="#9a6593" stop-opacity="0.5"/></linearGradient></defs><title>11Asset 1chain</title><g id="Layer_2" data-name="Layer 2"><g id="Layer_1-2" data-name="Layer 1"><circle class="cls-1" cx="41.53" cy="41.53" r="41.53"/><g class="cls-2"><polygon class="cls-3" points="21.97 61.9 47.81 83.06 83.06 83.06 83.06 43.38 58.16 19.13 41.53 26.18 37.09 30.19 19.4 47.48 21.97 61.9"/></g><path class="cls-4" d="M35.25,31.22c.44-.53.85-1.1,1.33-1.59q4.18-4.21,8.39-8.39a11,11,0,0,1,6.23-3.12,11.52,11.52,0,0,1,10.08,3.21,11.59,11.59,0,0,1,3.52,6.09A11.26,11.26,0,0,1,62.32,37.5C61,39,59.49,40.42,58.06,41.86s-2.88,2.87-4.31,4.31a11.68,11.68,0,0,1-16.64.11,2.75,2.75,0,0,1,3.79-4,6.55,6.55,0,0,0,3,1.7,5.93,5.93,0,0,0,5.76-1.56c2.61-2.55,5.16-5.16,7.75-7.73a6.79,6.79,0,0,0,1.8-2.66A6,6,0,0,0,58,25.95a6.43,6.43,0,0,0-3.35-2.22,5.93,5.93,0,0,0-5.89,1.54c-2.14,2.07-4.23,4.2-6.33,6.32a.6.6,0,0,1-.7.17,13.25,13.25,0,0,0-6.17-.44,1.61,1.61,0,0,1-.27,0Z"/><path class="cls-4" d="M47.81,51.84c-.52.61-1,1.25-1.56,1.82-2.63,2.65-5.28,5.29-7.92,7.93A11.71,11.71,0,0,1,22,61.9a11.9,11.9,0,0,1-3.45-5.28A11.65,11.65,0,0,1,18,51.76a11.81,11.81,0,0,1,3.6-7.23c2.66-2.62,5.28-5.29,7.93-7.91A11,11,0,0,1,36,33.47a11.39,11.39,0,0,1,10,3.26,2.76,2.76,0,0,1-3.67,4.11,7.27,7.27,0,0,0-2.39-1.58,5.89,5.89,0,0,0-6.36,1.3c-2.81,2.71-5.56,5.49-8.29,8.28a6.11,6.11,0,0,0,0,8.43,6.65,6.65,0,0,0,3.24,2.07,5.94,5.94,0,0,0,5.89-1.56c2.14-2.07,4.23-4.2,6.33-6.32a.57.57,0,0,1,.67-.17,13.25,13.25,0,0,0,6.13.45l.32,0Z"/></g></g></svg>