<?xml version="1.0" encoding="UTF-8"?>
<svg width="1138px" height="989px" viewBox="0 0 1138 989" version="1.1" xmlns="http://www.w3.org/2000/svg" xmlns:xlink="http://www.w3.org/1999/xlink">
    <!-- Generator: Sketch 50.2 (55047) - http://www.bohemiancoding.com/sketch -->
    <title>small__stuff + dot_lines + BOY + GIRL Mask</title>
    <desc>Created with Sketch.</desc>
    <defs>
        <rect id="path-1" x="0" y="0" width="1150" height="996"></rect>
    </defs>
    <g id="Page-1" stroke="none" stroke-width="1" fill="none" fill-rule="evenodd">
        <g id="11Asset-1coverimg" transform="translate(-5.000000, -7.000000)">
            <g id="small__stuff-+-dot_lines-+-BOY-+-GIRL-Mask">
                <mask id="mask-2" fill="white">
                    <use xlink:href="#path-1"></use>
                </mask>
                <g id="Mask"></g>
                <g id="small__stuff" mask="url(#mask-2)" stroke-linecap="round" stroke-linejoin="round" stroke-width="2">
                    <g transform="translate(612.000000, 186.000000)">
                        <rect id="Rectangle-path" stroke="#FFCB58" transform="translate(18.179502, 20.666637) rotate(50.960000) translate(-18.179502, -20.666637) " x="-2.63049761" y="14.4716374" width="41.62" height="12.39"></rect>
                        <circle id="Oval" stroke="#44485D" cx="164.5" cy="386.52" r="4.5"></circle>
                    </g>
                </g>
                <g id="dot_lines" mask="url(#mask-2)" stroke-linecap="round" stroke-linejoin="round">
                    <g transform="translate(5.000000, 463.000000)">
                        <path d="M589.55,50.4927995 L589.55,50.67" id="Shape" stroke="#44485D" stroke-width="5" style="mix-blend-mode: overlay;" stroke-dasharray="0.5"></path>
                        <path d="M569.55,50.4927995 L569.55,50.67" id="Shape" stroke="#44485D" stroke-width="5" style="mix-blend-mode: overlay;" stroke-dasharray="0.5"></path>
                        <path d="M549.55,50.4927995 L549.55,50.67" id="Shape" stroke="#44485D" stroke-width="5" style="mix-blend-mode: overlay;" stroke-dasharray="0.5"></path>
                        <path d="M529.55,50.4927995 L529.55,50.67" id="Shape" stroke="#44485D" stroke-width="5" style="mix-blend-mode: overlay;" stroke-dasharray="0.5"></path>
                        <path d="M509.55,50.4927995 L509.55,50.67" id="Shape" stroke="#44485D" stroke-width="5" style="mix-blend-mode: overlay;" stroke-dasharray="0.5"></path>
                        <path d="M489.55,50.4927995 L489.55,50.67" id="Shape" stroke="#44485D" stroke-width="5" style="mix-blend-mode: overlay;" stroke-dasharray="0.5"></path>
                        <g id="Group" stroke="none" stroke-width="1" fill-rule="evenodd" transform="translate(606.000000, 17.000000)" stroke-dasharray="0.5">
                            <path d="M102.55,2.49279955 L102.55,2.67" id="Shape" stroke="#44485D" stroke-width="5" style="mix-blend-mode: overlay;"></path>
                            <path d="M120.55,2.49279955 L120.55,2.67" id="Shape" stroke="#44485D" stroke-width="5" style="mix-blend-mode: overlay;"></path>
                            <path d="M82.55,2.49279955 L82.55,2.67" id="Shape" stroke="#44485D" stroke-width="5" style="mix-blend-mode: overlay;"></path>
                            <path d="M62.55,2.49279955 L62.55,2.67" id="Shape" stroke="#44485D" stroke-width="5" style="mix-blend-mode: overlay;"></path>
                            <path d="M42.55,2.49279955 L42.55,2.67" id="Shape" stroke="#44485D" stroke-width="5" style="mix-blend-mode: overlay;"></path>
                            <path d="M22.55,2.49279955 L22.55,2.67" id="Shape" stroke="#44485D" stroke-width="5" style="mix-blend-mode: overlay;"></path>
                            <path d="M2.55,2.49279955 L2.55,2.67" id="Shape" stroke="#44485D" stroke-width="5" style="mix-blend-mode: overlay;"></path>
                        </g>
                        <g id="Group" stroke="none" stroke-width="1" fill-rule="evenodd" transform="translate(0.000000, 64.000000)" stroke-dasharray="0.5">
                            <path d="M102.55,2.49279955 L102.55,2.67" id="Shape" stroke="#44485D" stroke-width="5" style="mix-blend-mode: overlay;"></path>
                            <path d="M120.55,2.49279955 L120.55,2.67" id="Shape" stroke="#44485D" stroke-width="5" style="mix-blend-mode: overlay;"></path>
                            <path d="M82.55,2.49279955 L82.55,2.67" id="Shape" stroke="#44485D" stroke-width="5" style="mix-blend-mode: overlay;"></path>
                            <path d="M62.55,2.49279955 L62.55,2.67" id="Shape" stroke="#44485D" stroke-width="5" style="mix-blend-mode: overlay;"></path>
                            <path d="M42.55,2.49279955 L42.55,2.67" id="Shape" stroke="#44485D" stroke-width="5" style="mix-blend-mode: overlay;"></path>
                            <path d="M22.55,2.49279955 L22.55,2.67" id="Shape" stroke="#44485D" stroke-width="5" style="mix-blend-mode: overlay;"></path>
                            <path d="M2.55,2.49279955 L2.55,2.67" id="Shape" stroke="#44485D" stroke-width="5" style="mix-blend-mode: overlay;"></path>
                        </g>
                        <path d="M598.13,42.12 C594.128505,32.9290008 583.540513,28.5900957 574.24,32.33" id="Shape" stroke="#FFFFFF" stroke-width="1"></path>
                        <path d="M737.77,11.26 C733.768505,2.06900084 723.180513,-2.26990427 713.88,1.47" id="Shape" stroke="#FFFFFF" stroke-width="1"></path>
                        <path d="M724.34,36.78 C721.868461,37.2681384 719.323391,37.2477234 716.86,36.72 L715.38,36.34 C712.545389,35.4845763 709.958919,33.9580789 707.84,31.89" id="Shape" stroke="#FFBA83" stroke-width="1" opacity="0.6" style="mix-blend-mode: multiply;"></path>
                    </g>
                </g>
                <g id="BOY" mask="url(#mask-2)">
                    <g transform="translate(684.000000, 7.000000)">
                        <g id="leg_R" stroke-width="1" fill="none" fill-rule="evenodd" transform="translate(110.000000, 613.000000)">
                            <path d="M73.35,0.32 C73.35,0.32 51.23,69.63 44,96.21 C28.77,152.21 71.11,804.7 71.11,804.7 L151.84,804.7 C151.84,804.7 198.39,325.45 207.07,238.85 C215.75,152.25 207.07,12.28 207.07,12.28 L73.35,0.32 Z" id="Shape" fill="#FFCB58" fill-rule="nonzero"></path>
                            <polygon id="Shape" fill="#E59E74" fill-rule="nonzero" points="125.81 130.72 128.21 804.7 151.84 804.7 206.32 213.28"></polygon>
                        </g>
                        <g id="leg_L" stroke-width="1" fill="none" fill-rule="evenodd" transform="translate(228.000000, 627.000000)">
                            <path d="M161.42,0.89 C161.42,0.89 186.27,77.26 194.15,106.77 C205.94,150.93 152.92,791.77 152.92,791.77 L66.33,791.77 C66.33,791.77 15.67,200.44 9.88,152.9 C4.09,105.36 20,4.45 20,4.45 L161.42,0.89 Z" id="Shape" fill="#FFCB58" fill-rule="nonzero"></path>
                            <path d="M17.18,33.21 C17.18,33.21 10.33,87.88 7.82,114.57 C5.31,141.26 66.33,791.77 66.33,791.77 L162.88,791.77 L173.06,766.49 L118.77,766.49" id="Shape" stroke="#E59E74" stroke-width="2" stroke-linecap="round" stroke-linejoin="round"></path>
                            <path d="M132,42.27 C132,42.27 149.56,114.56 196.82,124.14" id="Shape" stroke="#E59E74" stroke-width="2" stroke-linecap="round" stroke-linejoin="round"></path>
                        </g>
                        <path d="M316.32,215.65 C381.03,224.77 418.14,232.36 434.82,329.99 C451.5,427.62 495.7,616.22 387.71,634.78 C279.72,653.34 195.12,582.83 205,399.26 C214.88,215.69 263.84,208.26 316.32,215.65 Z" id="bag" fill="#967CDF" fill-rule="nonzero"></path>
                        <path d="M158.47,277.12 C139.6,302.83 71.44,431 71.92,493 C72.35,548.8 142.18,556.45 156.53,515.91 C173.91,466.8 197.76,252.83 186.23,257.78 C176.5,262 168.57,263.36 158.47,277.12 Z" id="forearm_R" fill="#404299" fill-rule="nonzero"></path>
                        <g id="body" stroke-width="1" fill="none" fill-rule="evenodd" transform="translate(159.000000, 242.000000)">
                            <path d="M1.39,45.7 C4.13,22.78 40.71,-7.51 153.39,2.87 C241.91,11.02 290.13,66.48 289.94,79.52 C289.63,100.4 256.76,381.06 243.63,395.96 C225.74,416.26 150.84,426.49 92.55,413.96 C51.55,405.13 19.82,386.06 13.55,372.4 C4.84,353.44 -2.91,81.71 1.39,45.7 Z" id="Shape" fill="#3372F7" fill-rule="nonzero"></path>
                        </g>
                        <g id="neck" stroke-width="1" fill="none" fill-rule="evenodd" transform="translate(217.000000, 121.000000)">
                            <path d="M16.1,135.71 C12,145.54 15.59,166.76 24.82,172.09 C25.18,172.296667 25.5433333,172.493333 25.91,172.68 C47.71,183.74 97.91,186.21 116.58,152.35 C119.49,147.06 119.2,131.87 117.58,126.07 C117.58,126.07 98.58,41.62 91.97,0.07 L28.39,92.89 L16.1,135.71 Z" id="Shape" fill="#FFC881" fill-rule="nonzero"></path>
                            <path d="M28.34,86.81 C28.34,86.81 24.5,129.38 43.34,131.08 C63.05,132.86 77.14,94.39 79.09,43.58 L28.34,86.81 Z" id="Shape" fill="#FFB76B" fill-rule="nonzero"></path>
                            <path d="M16.1,135.71 C16.1,135.71 4.1,158.21 0.77,184.71 L41.05,178.71 L97.61,200.29 C97.61,200.29 120.06,148.55 125.16,130.19 C127.16,123.13 116.03,113.26 116.03,113.26 C116.03,113.26 76.5,178.26 41.64,171.91 C14.18,166.88 16.1,135.71 16.1,135.71 Z" id="Shape" fill="#404299" fill-rule="nonzero"></path>
                        </g>
                        <g id="head" stroke-width="1" fill="none" fill-rule="evenodd" transform="translate(152.000000, 0.000000)">
                            <path d="M21,49 C21,49 -13.13,65.23 20.45,108.8 C54.03,152.37 71.69,39.93 71.69,39.93 L21,49 Z" id="Shape" fill="#44485D" fill-rule="nonzero"></path>
                            <path d="M30.39,49.45 C7.14,69.53 11.25,131.16 19.92,148.37 C33.28,174.88 52.64,224.56 68.34,226.67 C106.18,231.75 143.34,185.59 155.59,129.67 L157.04,132.6 C161.04771,133.882013 165.35695,131.797748 166.84,127.86 C169.502112,120.409829 170.947274,112.579618 171.12,104.67 C171.35,93.76 164.72,90.28 160.8,92.5 C156.88,94.72 155.68,102.63 155.68,102.63 C155.68,102.63 162.76,63.82 161.49,54.87 C160.22,45.92 156.82,37.54 149.76,32.47 C114.56,7.22 50.84,31.79 30.39,49.45 Z" id="Shape" fill="#FFC881" fill-rule="nonzero"></path>
                            <path d="M158.77,41.88 L119.16,67.49 C119.16,67.49 117.45,45.66 95.3,45.92 C79.65,46.1 48.04,64.52 25.18,63.29 C15.52,62.77 -9.49,44.19 17.18,38.77 C20.7220202,38.0853288 24.0727775,36.638566 27,34.53 C29.88,32.42 34,29.53 38.88,26.23 C84.33,-4.15 114.2,-5.13 137.3,8.08 C166.89,25 158.77,41.88 158.77,41.88 Z" id="Shape" fill="#44485D" fill-rule="nonzero"></path>
                            <path d="M153.73,48 L121.64,73 C121.64,73 131.64,125.82 155.64,102.66 C155.64,102.66 166.33,74.36 166.46,56.8 C166.6,43.72 158.71,44.14 153.73,48 Z" id="Shape" fill="#44485D" fill-rule="nonzero"></path>
                            <path d="M31.93,137.64 C32.16,139.11 31.17,140.69 28.14,140.95 C25.74,141.16 21.96,137.44 22.39,137.04 C23.78,135.78 26.86,135.7 27.3,135.64 C29.64,135.33 31.7,136.17 31.93,137.64 Z" id="Shape" fill="#44485D" fill-rule="nonzero"></path>
                            <path d="M47.22,115.14 L44.12,166.26 C44.12,166.26 53.43,168.39 64.96,164.07" id="Shape" stroke="#44485D" stroke-width="2" stroke-linecap="round" stroke-linejoin="round"></path>
                            <path d="M68.14,177.68 C73,180.94 85.07,187.11 88.31,170.86 C88.5757244,169.459762 88.0090327,168.031992 86.8553818,167.195113 C85.7017309,166.358235 84.1685809,166.262743 82.92,166.95 L68.27,174.95 C67.7699783,175.209209 67.4457438,175.714992 67.4189544,176.277569 C67.392165,176.840147 67.6668716,177.37445 68.14,177.68 Z" id="Shape" fill="#FFFFFF" fill-rule="nonzero"></path>
                            <path d="M16.39,113 C16.39,113 17.73,99.75 32.39,98.75" id="Shape" stroke="#44485D" stroke-width="3" stroke-linecap="round" stroke-linejoin="round"></path>
                            <path d="M59.08,95.55 C59.08,95.55 75.18,84.41 93.79,93.71" id="Shape" stroke="#44485D" stroke-width="3" stroke-linecap="round" stroke-linejoin="round"></path>
                            <path d="M161.82,105.9 C165.52,105.47 166.82,113.52 162.82,118.9" id="Shape" stroke="#FFB76B" stroke-width="2" stroke-linecap="round" stroke-linejoin="round"></path>
                            <path d="M78.78,132.16 C78.94,133.64 80.31,134.91 83.3,134.38 C85.67,133.96 88.36,129.38 87.84,129.11 C86.17,128.25 83.17,128.98 82.73,129.03 C80.4,129.34 78.62,130.69 78.78,132.16 Z" id="Shape" fill="#44485D" fill-rule="nonzero"></path>
                            <path d="M0.63,124.11 C1.44,120.11 4.1,117.4 7.37,117.19 L29.22,115.76 C32.82,115.52 36.4,118.15 38.22,122.39 C39.2348639,124.85357 39.6330544,127.527625 39.38,130.18 C37.88,150.5 24.74,163.94 11.21,153.59 C3.3,147.54 1.65,135.96 0.51,128.86 C0.263897911,127.282342 0.304549446,125.673219 0.63,124.11 Z" id="Shape" stroke="#44485D" stroke-width="2" stroke-linecap="round" stroke-linejoin="round"></path>
                            <path d="M106.66,108.88 C104.311695,105.307276 100.057516,103.481245 95.85,104.24 L67.73,109.32 C63.1005165,110.154307 59.4408054,113.715107 58.48,118.32 C58.0109729,120.971882 58.3998082,123.704238 59.59,126.12 C68.22,145.12 87.15,156.61 104.5,141.12 C112.59,133.9 109.24,120.51 108.34,113.37 C108.127827,111.765277 107.553328,110.22986 106.66,108.88 Z" id="Shape" stroke="#44485D" stroke-width="2" stroke-linecap="round" stroke-linejoin="round"></path>
                            <path d="M39,133.75 C39,133.75 38.24,122.39 47.79,121.15 C55.53,120.15 61.63,130.15 61.63,130.15" id="Shape" stroke="#44485D" stroke-width="2" stroke-linecap="round" stroke-linejoin="round"></path>
                            <path d="M108.33,113.41 L155.59,100.67" id="Shape" stroke="#44485D" stroke-width="2" stroke-linecap="round" stroke-linejoin="round"></path>
                        </g>
                        <g id="arm_R" stroke-width="1" fill="none" fill-rule="evenodd" transform="translate(70.000000, 239.000000)">
                            <path d="M63.6,135.92 C60.6483477,137.368994 57.0881606,136.605021 54.9908756,134.072585 C52.8935907,131.540149 52.8063859,127.899959 54.78,125.27 C55.7,124.06 63.9,113.27 69.91,108.2 C77.01,102.2 85.52,97.65 93.66,93.64 C95.9375682,92.5181859 98.6406086,92.6966552 100.750912,94.1081801 C102.861216,95.519705 104.058177,97.9498413 103.890912,100.48318 C103.723647,103.016519 102.217568,105.268186 99.94,106.39 C92.62,110 85,114 79.09,119 C75.01,122.46 68.34,130.85 66.09,133.79 C65.4382549,134.685197 64.5853497,135.414791 63.6,135.92 Z" id="Shape" fill="#FFC881" fill-rule="nonzero"></path>
                            <path d="M48.93,185.7 C48.77,175.97 51.49,150.22 52.47,135.14 C52.96,127.62 52.59,125.57 59.37,120.03 L67.29,114.46 L74.8,125 C85.7,141 89.66,151.6 91.58,157.53 C94.2722619,165.329353 95.1612101,173.6376 94.18,181.83 C93.2449972,188.403548 89.6651212,194.309802 84.27,198.18 C81.19,200.49 80.09,204.18 79.46,207.96 C76.14,227.96 80.31,267.6 69.59,285.88 C57.01,307.34 27.77,299.78 17.48,287.01 C0.19,265.55 -3.03,243.74 3.55,224.24 C14.32,192.32 49.19,201.45 48.93,185.7 Z" id="Shape" fill="#FFC881" fill-rule="nonzero"></path>
                            <path d="M90.94,155.59 L90.75,155.29 L80.85,160.17 C80.85,160.17 81.85,170.92 87.71,177.9 C89.3750989,179.880821 91.6508565,181.252607 94.18,181.8 C95.1646336,173.611653 94.2790831,165.306626 91.59,157.51 C91.39,156.92 91.17,156.28 90.94,155.59 Z" id="Shape" fill="#E59E74" fill-rule="nonzero"></path>
                            <path d="M101.1,294.49 C101.1,294.49 98.27,322.69 101.52,346.08 L90.83,346 C90.83,346 86.44,320.29 88,301" id="Shape" fill="#44485D" fill-rule="nonzero"></path>
                            <path d="M90.15,303.42 L96.92,303.73 C102.68,303.93 106.44,299.43 106.7,293.67 C107.93,265.97 112.92,168.67 120.85,85.17 C126.79,22.65 131.85,12.69 140.79,9.75 L154,7.2 C148.79,2.02 140.61,-0.43 134.84,0.36 C125.84,1.6 103.15,9.06 95.28,12.24 C87.41,15.42 79.62,65.59 80.07,143.35 C80.33,187.28 80.81,272.52 82.19,295.72 C82.51,301.12 84.74,303.23 90.15,303.42 Z" id="Shape" stroke="#967CDF" fill="#967CDF" fill-rule="nonzero"></path>
                            <path d="M135,3 C124.3,9.57 120.2,23.64 115.92,67.49 C112.92,98.58 104.63,245.23 104.63,245.23" id="Shape" stroke="#44485D" stroke-width="2" stroke-linecap="round" stroke-linejoin="round"></path>
                            <path d="M116,126.06 C114.012129,127.042242 111.692099,127.097132 109.66,126.21 C100.53,122.21 92.06,119.12 88.48,118.61 C84.78,119.97 77.59,125.61 68.08,132.33 C64.6751645,134.7352 59.9652002,133.924835 57.5600001,130.52 C55.1548,127.115164 55.9651646,122.4052 59.37,120 C76.17,108.14 82.21,104 87.01,103.53 C92.91,102.99 104.43,107.53 115.66,112.38 C118.343213,113.553059 120.10296,116.17536 120.171593,119.102985 C120.240226,122.03061 118.605295,124.732492 115.98,126.03 L116,126.06 Z" id="Shape" fill="#FFC881" fill-rule="nonzero"></path>
                            <path d="M111.08,146.55 C108.993384,147.575119 106.550547,147.580347 104.459563,146.564168 C102.368579,145.547989 100.863285,143.624043 100.38,141.35 C99.72,138.19 98.82,134.74 98.21,132.9 C94.5652704,130.904459 90.7900267,129.157156 86.91,127.67 C83.08,129.34 72.78,135.51 64.52,140.89 C62.2656541,142.360148 59.3982381,142.515941 56.9978797,141.298695 C54.5975213,140.081448 53.0288922,137.676089 52.8828797,134.988695 C52.7368672,132.3013 54.0356541,129.740148 56.29,128.27 C81.29,111.98 85.04,112.27 87.29,112.4 C92.9,112.79 106.75,120.08 108.9,121.92 C110.33,123.15 112.3,124.83 115.12,138.23 C115.8359,141.601065 114.171901,145.027915 111.08,146.55 Z" id="Shape" fill="#FFC881" fill-rule="nonzero"></path>
                            <path d="M66.91,122 C85.48,110.91 85.38,112.15 87.44,112.29 C93.05,112.68 106.9,119.97 109.05,121.81" id="Shape" stroke="#FFB76B" stroke-width="2" stroke-linecap="round" stroke-linejoin="round"></path>
                            <path d="M101.44,160.53 C97.7965192,162.289203 93.4141046,160.854748 91.5159895,157.281668 C89.6178744,153.708587 90.8826132,149.274215 94.38,147.24 C95.38,146.65 96.47,146.02 97.47,145.41 C95.47,143.36 93.15,141.11 91.32,139.41 C87.63,142.18 81.63,147.25 76.72,151.7 C73.629334,154.436525 68.9116124,154.174512 66.1429827,151.112572 C63.374353,148.050632 63.5871195,143.330433 66.62,140.53 C87.62,121.53 90.85,121.63 95.17,123.53 C96.24,123.99 98.02,124.76 106.32,133 C114.98,141.59 115.32,142.83 115.76,144.53 C117.5,151.04 111.61,154.79 101.85,160.36 L101.44,160.53 Z" id="Shape" fill="#FFC881" fill-rule="nonzero"></path>
                            <path d="M95.86,141.58 L94.09,142.91 C95.03,143.84 95.99,144.79 96.89,145.7 C95.89,146.32 94.83,146.94 93.8,147.53 C90.3026132,149.564215 89.0378744,153.998587 90.9359895,157.571668 C92.8341046,161.144748 97.2165192,162.579203 100.86,160.82 L101.27,160.6 C103.83,159.13 106.12,157.8 108.08,156.5 L95.86,141.58 Z" id="Shape" fill="#FFB76B" fill-rule="nonzero"></path>
                            <path d="M69.6,137.91 C88.08,121.46 91.21,121.62 95.33,123.4 C96.4,123.86 98.18,124.63 106.48,132.87" id="Shape" stroke="#FFB76B" stroke-width="2" stroke-linecap="round" stroke-linejoin="round"></path>
                            <path d="M102.46,172.78 C99.3530298,174.339936 95.5820029,173.570031 93.3351569,170.917043 C91.0883109,168.264054 90.9498005,164.41773 93,161.61 C94.33,159.77 95.13,156.7 95.23,153.07 L77.44,161.84 C75.0266709,163.029694 72.1619685,162.841522 69.9249984,161.346365 C67.6880283,159.851208 66.4186395,157.276216 66.5949984,154.591365 C66.7713573,151.906513 68.3666709,149.519694 70.78,148.33 L89.66,139 C94.0831631,136.821957 99.31539,137.070699 103.511981,139.65853 C107.708572,142.24636 110.280125,146.809822 110.32,151.74 C110.37,156.97 109.52,164.45 105.22,170.4 C104.509369,171.407914 103.561459,172.225315 102.46,172.78 Z" id="Shape" fill="#FFC881" fill-rule="nonzero"></path>
                            <path d="M95.42,153 L77.63,161.77 L95.42,153 Z M71,148.25 L89.82,139 C94.5839354,136.645552 100.260574,137.126949 104.56,140.25 L71,148.25 Z" id="Shape" stroke="#FFB76B" stroke-width="2" stroke-linecap="round" stroke-linejoin="round"></path>
                            <path d="M19.22,276.42 C24.41,279.89 25.78,288.21 25.78,288.21" id="Shape" stroke="#FFB76B" stroke-width="2" stroke-linecap="round" stroke-linejoin="round"></path>
                            <path d="M60.57,192.49 C60.57,192.49 65.36,204.86 73.25,202.17" id="Shape" stroke="#FFB76B" stroke-width="2" stroke-linecap="round" stroke-linejoin="round"></path>
                            <path d="M56.49,131.6 C56.49,131.6 62.02,143.78 66.09,152.23" id="Shape" stroke="#FFB76B" stroke-width="2" stroke-linecap="round" stroke-linejoin="round"></path>
                        </g>
                        <g id="forearm_L" stroke-width="1" fill="none" fill-rule="evenodd" transform="translate(331.000000, 300.000000)">
                            <path d="M118,21.52 C130.53,80.23 96.49,251.79 92.89,275.29 C88.19,306 66.89,316.98 50.64,316.8 C14.98,316.4 -6.03,300.52 2.17,236.96 L38.88,65.23 C51.98,25.05 69.16,-0.72 89.88,0.18 C115,1.26 118,21.52 118,21.52 Z" id="Shape" fill="#404299" fill-rule="nonzero"></path>
                            <path d="M28.65,218.08 C7.84,223.7 7.07,242.31 7.07,242.31 C12.64,232.04 46.76,208.97 72.07,239.62" id="Shape" stroke="#3372F7" stroke-width="2" stroke-linecap="round" stroke-linejoin="round"></path>
                        </g>
                        <g id="arm_L" stroke-width="1" fill="none" fill-rule="evenodd" transform="translate(0.000000, 482.000000)">
                            <path d="M349.57,120.86 C312.5,108.7 236.82,89.2 205.74,96.48 L208.46,62.11 L349.69,45.76 C375.69,39.95 409.01,59.21 403.69,89.93 C400.71,106.91 390.43,134.26 349.57,120.86 Z" id="Shape" fill="#FFC881" fill-rule="nonzero"></path>
                            <path d="M205.74,96.48 C182.12,96.66 132.83,70.48 132.83,70.48 C117.65,61.36 123.25,59.06 123.25,59.06 L163.48,62.8 C177.08,65.22 179.01,53.73 179.01,53.73 C179.01,53.73 186.68,43.55 198.12,46.73 C206.740876,49.0891479 214.869307,52.9738609 222.12,58.2 C224.033586,59.6171842 226.41454,60.2535351 228.78,59.98 L240.57,58.58 C240.57,58.58 248.9,96.14 205.74,96.48 Z" id="Shape" fill="#FFC881" fill-rule="nonzero"></path>
                            <path d="M191,60.4 C185.86,58.04 179,54.72 179,54.72" id="Shape" stroke="#FFB76B" stroke-width="2" stroke-linecap="round" stroke-linejoin="round"></path>
                            <path d="M191,60.4 L179.14,53.67 C178.44,53.25 177.14,53.58 177.3,54.37 C179,61.66 169.35,63.7 163.47,62.8 C163.48,62.8 187.23,71.65 191,60.4 Z" id="Shape" fill="#FFB76B" fill-rule="nonzero"></path>
                            <path d="M1,3.52 C4.55,7.63 8.77,12.12 13.48,14.83 L81,53.45 C83.7224508,55.018359 86.7514934,55.9802847 89.88,56.27 L163.58,62.93 C169.731066,63.5004876 175.925038,63.4233981 182.06,62.7 L182.48,62.58 C183.599557,62.2767408 184.563654,61.562595 185.18,60.58 L186.24,58.2 L1,3.52 Z" id="Shape" fill="#44485D" fill-rule="nonzero"></path>
                            <path d="M182,59.71 L87.71,48.6 C85.8814804,48.3285052 84.1127356,47.7468147 82.48,46.88 L1,3.52 C-0.46,2.39 -0.3,-0.17 2.79,0.4 L103,17 C104.438741,17.2675988 105.834712,17.7284372 107.15,18.37 L184.15,55.85 C187.9,57.67 186.14,60.32 182,59.71 Z" id="Shape" fill="#C1D8FB" fill-rule="nonzero"></path>
                            <path d="M81.22,39.59 C88.08,41.75 91.6,39.4 90.16,37.22 C88.72,35.04 83.49,29.3 94.49,26.95 C101.9,25.37 98.49,20.87 96.21,18.54 L21,6.15 C20.7238576,6.05887307 20.4261271,6.20885768 20.3350001,6.48500003 C20.2438731,6.76114237 20.3938577,7.05887298 20.67,7.15 L81.22,39.61 L81.22,39.59 Z" id="Shape" fill="#FFFFFF" fill-rule="nonzero"></path>
                            <path d="M46.85,24.45 L48.32,25.36" id="Shape" stroke="#FFFFFF" stroke-width="2" stroke-linecap="round" stroke-linejoin="round"></path>
                            <path d="M194.14,53.88 C191.094068,55.2074795 187.735147,55.6477096 184.45,55.15 C176.74,53.98 161.86,51.57 158.61,49.86 C156.675076,48.8401301 155.681718,46.6349589 156.2,44.51 C156.790769,42.0428911 159.202617,40.4642271 161.7,40.91 C176.1,43.51 186.54,43.24 198.08,46.02 C205.85,47.9 199.39,51.6 194.14,53.88 Z" id="Shape" fill="#FFC881" fill-rule="nonzero"></path>
                            <path d="M221.55,77.52 C221.55,77.52 231.05,78.16 229.9,69.06" id="Shape" stroke="#FFB76B" stroke-width="2" stroke-linecap="round" stroke-linejoin="round"></path>
                        </g>
                    </g>
                </g>
                <g id="GIRL" mask="url(#mask-2)">
                    <g transform="translate(153.000000, 25.000000)">
                        <path d="M269.13,279.77 C273.92,273.56 290.24,275.84 298.89,300.23 C313.41,341.23 343.17,514.8 338.49,549.95 C334.61,579.1 282.23,596.8 272.59,559.54 C264.48,528.22 256,392.1 254.75,333 C254.38,315.61 269.13,279.77 269.13,279.77 Z" id="forearm_L-2" fill="#967CDF" fill-rule="nonzero"></path>
                        <path d="M54,280.29 C51.68,272.29 44,271.79 38.45,280.9 C23.01,306.37 13.67,492.82 16.65,543.73 C19,583.83 71.84,586.94 83.46,547.01 C98.06,496.83 73.73,390.56 69.62,364.7 C58.89,297.45 54,280.29 54,280.29 Z" id="forearm_R-2" fill="#967CDF" fill-rule="nonzero"></path>
                        <g id="body-2" stroke-width="1" fill="none" fill-rule="evenodd" transform="translate(39.000000, 254.000000)" stroke-linecap="round" stroke-linejoin="round">
                            <path d="M124.52,1 C180,0.7 243.61,14.91 252,35.76 C256.82,47.76 234,186.01 228.39,266.07 C227.94,272.5 227.73,274.65 227.68,283.07 C227.57,300.72 216.27,308.07 201.09,307.86 L48.41,306.44 C28.65,306.54 23.27,297.75 20.88,282.26 C19.2,271.38 19.06,267.95 17.88,259.91 C9.21,198.41 3.4,62.62 0.99,31.61 C0.653905158,27.5639418 2.82222243,23.7228093 6.46,21.92 C30.92,10 72,1.28 124.52,1 Z" id="Shape" stroke="#967CDF" stroke-width="2" fill="#967CDF" fill-rule="nonzero"></path>
                            <path d="M40.21,162.14 L238.42,162.14" id="Shape" stroke="#C1D8FB" stroke-width="2"></path>
                            <path d="M44.24,185.48 L236.6,185.48" id="Shape" stroke="#C1D8FB" stroke-width="2"></path>
                            <path d="M8.26,110.67 C8.26,110.67 25.12,251.67 25.98,259.91" id="Shape" stroke="#404299" stroke-width="2"></path>
                            <path d="M244.32,110.67 L229.21,259.29" id="Shape" stroke="#404299" stroke-width="2"></path>
                        </g>
                        <g id="legs" stroke-width="1" fill="none" fill-rule="evenodd" transform="translate(0.000000, 560.000000)" stroke-linecap="round" stroke-linejoin="round">
                            <rect id="Rectangle-path" stroke="#404299" stroke-width="2" fill="#404299" fill-rule="nonzero" x="81.23" y="0.44" width="164.61" height="41.4"></rect>
                            <path d="M244.51,15 L250.24,22.74 C288.415339,74.3473327 308.772359,136.969737 308.24,201.16 C307.33,314.16 280.68,536.62 251.71,795.73 L184.41,795.73 L160.33,154.23 L154.06,15 L244.51,15 Z" id="Shape" stroke="#404299" stroke-width="2" fill="#404299" fill-rule="nonzero"></path>
                            <path d="M82.55,15 L76.72,23.1 C39.7607376,74.4019943 20.2308096,136.205875 21,199.43 C22.41,310 53.09,526 77,795.7 L144.3,795.7 L168.36,154.23 L174.67,15 L82.55,15 Z" id="Shape" stroke="#404299" stroke-width="2" fill="#404299" fill-rule="nonzero"></path>
                            <path d="M167.56,187.98 L153.84,542.2" id="Shape" stroke="#3372F7" stroke-width="2"></path>
                            <path d="M82.55,15 C82.55,15 149.55,30.26 244.55,15" id="Shape" stroke="#3372F7" stroke-width="2"></path>
                            <path d="M173,124.59 C162.445838,124.59 153.89,116.034162 153.89,105.48 L153.89,5.09" id="Shape" stroke="#3372F7" stroke-width="2"></path>
                            <path d="M227,18.13 C227,18.13 234.58,51.45 273,58.66" id="Shape" stroke="#3372F7" stroke-width="2"></path>
                            <path d="M54.23,63.05 C54.23,63.05 92.58,44.58 98.23,18.3" id="Shape" stroke="#3372F7" stroke-width="2"></path>
                            <circle id="Oval" stroke="#3372F7" stroke-width="2" cx="163.87" cy="12.29" r="2.74"></circle>
                            <path d="M98.28,3.48 L98.28,18.3" id="Shape" stroke="#3372F7" stroke-width="2"></path>
                            <path d="M227,3.48 L227,18.13" id="Shape" stroke="#3372F7" stroke-width="2"></path>
                        </g>
                        <g id="hair" stroke-width="1" fill="none" fill-rule="evenodd" transform="translate(33.000000, 0.000000)">
                            <path d="M223.68,149.3 C220.88,141.73 214.07,133.21 221.19,121.86 C231.43,105.18 232.31,86.39 210.99,69.68 C196.37,58.23 194.81,36.22 186.17,21.68 C170.97,-3.85 144.17,3.35 126.54,11.93 C115.29,17.41 103.54,13 103.54,13 C103.54,13 100.94,59.71 93.36,108.08 C85.78,156.45 116.79,236.08 168.1,252.77 C189.54,259.77 198,255.52 207.55,247.23 C221.31,235.28 221.79,212.96 214.4,198 C211.48,192.45 208.5,187.1 215.62,180.48 C222.18,174.37 228.78,163.07 223.68,149.3 Z" id="Shape" fill="#44485D" fill-rule="nonzero"></path>
                            <path d="M117.94,242.43 C79.58,281.06 27.89,251.85 34.64,214.98 C37.53,199.21 32.64,187.54 15.64,181.11 C4.32,176.83 -6.07,161.95 4.44,141.43 C14.95,120.91 12.85,110.28 9.07,96.72 C5.29,83.16 1.95,64.32 23.62,52.16 C40.53,42.67 47.81,29.66 53.97,20.57 C66.97,1.36 94.54,-11.06 118.73,14.35 C118.71,14.35 126.27,234 117.94,242.43 Z" id="Shape" fill="#44485D" fill-rule="nonzero"></path>
                            <path d="M176.16,14.06 C187.83,20.39 203.22,33.28 207.22,66.22 C209.68,86.46 228.5,111.72 228.22,128.43 C227.96,141.87 212.81,161.31 218.15,177.87 C222.34,190.87 235.54,218.38 207.87,238.6" id="Shape" stroke="#44485D" stroke-width="4" stroke-linecap="round"></path>
                        </g>
                        <g id="neck-2" stroke-width="1" fill="none" fill-rule="evenodd" transform="translate(122.000000, 175.000000)">
                            <path d="M83.06,0.74 C83.06,0.74 87.11,45.36 93.83,91.14 C96.48,109.14 93.83,147.89 44.3,147.89 C12.18,147.89 -5.81,118.34 2.03,91.14 C15.32,45.07 4.44,0.74 4.44,0.74 L83.06,0.74 Z" id="Shape" fill="#FFB07B" fill-rule="nonzero"></path>
                            <path d="M75.82,3.71 C75.82,3.71 89.62,64.24 64.24,71.64 C45.18,77.2 7.9,43.47 7.9,43.47 L75.82,3.71 Z" id="Shape" fill="#FF9C6B" fill-rule="nonzero"></path>
                        </g>
                        <g id="arm_L-2" stroke-width="1" fill="none" fill-rule="evenodd" transform="translate(26.000000, 507.000000)">
                            <path d="M94.47,77.86 C103.62,73.41 177.99,69.76 177.99,69.76 L172.1,20.37 C172.1,20.37 94.46,35.37 84.55,35.47 C84.55,35.47 78.38,40.06 80.1,56.39 C81.82,72.72 94.47,77.86 94.47,77.86 Z" id="Shape" fill="#FFB07B" fill-rule="nonzero"></path>
                            <path d="M28.12,37.89 C25.3082073,36.7526194 23.6544584,33.8241216 24.1325436,30.8289176 C24.6106289,27.8337136 27.0938534,25.5655467 30.12,25.36 C31.52,25.26 44.03,24.44 50.84,25.44 C55.71,26.16 66.54,31.33 69.74,32.9 C71.2929008,33.6543824 72.4818912,34.9955622 73.0446945,36.6276916 C73.6074977,38.2598209 73.4978722,40.0487994 72.74,41.6 C71.16,44.83 65.64,50.81 63.64,47.82 C59.26,41.26 50.91,38.61 48.96,38.32 C44.36,37.64 34.46,38.11 31.04,38.32 C30.0465483,38.4031917 29.0472975,38.2560417 28.12,37.89 Z" id="Shape" fill="#FFB07B" fill-rule="nonzero"></path>
                            <path d="M86,35.72 C75.11,33.93 67,30.72 38.49,32.72 L43.12,81.43 C48.5,81.16 52.2,81.67 54.71,82.58 C64.46,86.11 75.1,86.37 84.71,82.42 C88.44,80.88 91.39,79.49 94.52,77.88 C107.52,71.13 113.35,40.22 86,35.72 Z" id="Shape" fill="#FFB07B" fill-rule="nonzero"></path>
                            <path d="M6,85.08 C6.92847709,88.1665897 10.1297377,89.9681267 13.25,89.16 C16.57,88.28 21.01,86.75 25.32,85.26 C28.86,84.04 33.32,82.52 34.54,82.26 C40.0324422,81.3000191 45.6281569,81.0747109 51.18,81.59 C53.4219996,82.1348024 55.7777888,81.3457601 57.2393605,79.5604927 C58.7009322,77.7752252 59.0093427,75.3100247 58.0326278,73.2197138 C57.0559129,71.1294029 54.9671152,69.7843176 52.66,69.76 C45.9364399,69.104243 39.1551047,69.3598886 32.5,70.52 C28.7244703,71.4472619 25.0105678,72.6095264 21.38,74 C17.47,75.35 13.04,76.87 10.15,77.64 C6.9792611,78.4994738 5.08926872,81.7490126 5.91,84.93 L6,85.08 Z" id="Shape" fill="#FFB07B" fill-rule="nonzero"></path>
                            <path d="M0.47,73.7 C0.996170929,75.4390707 2.28204079,76.8460404 3.96686206,77.5261874 C5.65168334,78.2063344 7.55395516,78.0863884 9.14,77.2 C26.55,67.28 51.54,69.07 51.79,69.09 C54.0537316,69.5216465 56.3646524,68.6186054 57.7359567,66.766492 C59.107261,64.9143786 59.2965977,62.4405173 58.2231166,60.4012924 C57.1496356,58.3620676 55.0030533,57.117872 52.7,57.2 C51.53,57.11 23.78,55.13 3.23,66.83 C0.838378682,68.2117446 -0.300957096,71.0476999 0.47,73.7 Z" id="Shape" fill="#FFB07B" fill-rule="nonzero"></path>
                            <path d="M0.54,60.34 C0.586666667,60.4933333 0.64,60.6466667 0.7,60.8 C1.89603383,63.8573748 5.32718895,65.3857985 8.4,64.23 C25.54,57.64 49.45,56.73 49.69,56.72 C51.9852252,56.8920902 54.1766018,55.7360202 55.3303558,53.7444063 C56.4841097,51.7527925 56.396865,49.2767034 55.1057976,47.3712325 C53.8147303,45.4657617 51.5474211,44.4667931 49.27,44.8 C48.21,44.8 23.1,45.8 4.12,53.1 C1.23782185,54.2286332 -0.312794136,57.3645158 0.54,60.34 Z" id="Shape" fill="#FFB07B" fill-rule="nonzero"></path>
                            <path d="M5.49,48.31 C6.10253462,50.3060903 7.70872403,51.8402083 9.7308137,52.360524 C11.7529034,52.8808397 13.9000826,52.3125229 15.4,50.86 C17.4,48.86 23.2,46.11 26.4,45.63 C30.87,44.96 41.4,44.47 45.14,44.34 C48.1664484,43.8972037 50.3753783,41.2487001 50.2676733,38.1919276 C50.1599682,35.1351552 47.7701081,32.6486894 44.72,32.42 C44.15,32.42 30.72,32.92 24.62,33.83 C19.5,34.6 11.18,38.22 6.98,42.38 C5.43787718,43.9363579 4.86670442,46.2095488 5.49,48.31 Z" id="Shape" fill="#FFB07B" fill-rule="nonzero"></path>
                            <path d="M46.52,57 C36.6297323,56.9408192 26.7812509,58.2876201 17.27,61" id="Shape" stroke="#FF9C6B" stroke-width="2" stroke-linecap="round" stroke-linejoin="round"></path>
                            <path d="M44.75,32.42 L47.63,71.11" id="Shape" stroke="#FF9C6B" stroke-width="2" stroke-linecap="round" stroke-linejoin="round"></path>
                            <path d="M100.08,32.05 C100.08,32.05 226,8.21 272.22,1.19 C329.31,-7.47 321.44,67.32 276.33,73.61 C241.48,78.47 104,86 104,86 L100.08,32.05 Z" id="Shape" fill="#967CDF" fill-rule="nonzero"></path>
                            <path d="M37.46,32.7 C37.46,32.7 50.26,31.8 56.55,32.06" id="Shape" stroke="#FF9C6B" stroke-width="2" stroke-linecap="round" stroke-linejoin="round"></path>
                            <path d="M100.08,32.05 L257.26,3.53 C257.26,3.53 285.45,-3.55 301.83,6.26" id="Shape" stroke="#404299" stroke-width="2" stroke-linecap="round" stroke-linejoin="round"></path>
                        </g>
                        <g id="arm_R-2" stroke-width="1" fill="none" fill-rule="evenodd" transform="translate(2.000000, 238.000000)">
                            <polygon id="Shape" fill="#FFFFFF" fill-rule="nonzero" points="118.35 110.72 112.24 115.16 24.54 22.56 29.72 17.72"></polygon>
                            <path d="M116.09,112 L69.77,125.29 C66.8966156,126.115126 63.875467,124.571761 62.86,121.76 L27.66,24.31 C27.1408935,22.8758357 27.2203836,21.2931591 27.8805775,19.9182253 C28.5407714,18.5432916 29.7261902,17.4916422 31.17,17 L78.36,0.94 C81.3285153,-0.0732035928 84.5563778,1.51162764 85.57,4.48 L119.9,104.68 C120.410565,106.155184 120.291496,107.775474 119.570771,109.160176 C118.850045,110.544877 117.591197,111.571922 116.09,112 Z" id="Shape" fill="#FFFFFF" fill-rule="nonzero"></path>
                            <path d="M110.48,116 L65.32,129 C62.4770255,129.78996 59.5104588,128.229993 58.55,125.44 L23.7,28 C23.1758782,26.5841197 23.2391576,25.0175211 23.8757684,23.6485261 C24.5123793,22.279531 25.6695528,21.2216158 27.09,20.71 L73.09,4.9 C74.4994834,4.43045622 76.0381391,4.54344267 77.3639143,5.21384176 C78.6896895,5.88424085 79.6927107,7.05649323 80.15,8.47 L114.15,108.76 C114.648951,110.206151 114.540154,111.792818 113.848475,113.157328 C113.156797,114.521838 111.941366,115.547546 110.48,116 Z" id="Shape" fill="#FFCB58" fill-rule="nonzero"></path>
                            <path d="M43.69,50.71 C48.11,60.34 58.78,64.78 67.52,60.61 C76.26,56.44 79.77,45.26 75.36,35.61 C70.95,25.96 60.27,21.54 51.53,25.71 C42.79,29.88 39.27,41.07 43.69,50.71 Z" id="Shape" fill="#3372F7" fill-rule="nonzero"></path>
                            <path d="M84.43,10.57 L86.32,16" id="Shape" stroke="#967CDF" stroke-width="4" stroke-linecap="round" stroke-linejoin="round"></path>
                            <path d="M88.22,21.47 L90.11,26.91" id="Shape" stroke="#967CDF" stroke-width="4" stroke-linecap="round" stroke-linejoin="round"></path>
                            <path d="M46.36,135.89 C39.17,140.72 45.2,155.98 54.12,189.23 C58.61,205.98 78.39,269 79.63,277.45 C82.52,297.29 85.63,334.45 54.04,336.94 C24.89,339.25 9.56,311.94 7.16,252.17 C4.44,184.37 5.08,146.31 4.85,126.68 C4.68,112.29 29.96,66.17 29.96,66.17 L46.36,135.89 Z" id="Shape" fill="#FFB07B" fill-rule="nonzero"></path>
                            <path d="M46.51,129.2 C47.6855622,129.712703 48.9766048,129.902562 50.25,129.75 C51.42,129.61 79.02,126.18 95.31,109.05 C98.0714237,106.150505 97.9594949,101.561424 95.06,98.8 C92.1605051,96.0385763 87.5714237,96.1505051 84.81,99.05 C74.25,110.15 55.06,114.57 48.55,115.34 C45.3094707,115.744313 42.739203,118.265222 42.2721392,121.497303 C41.8050754,124.729385 43.5565076,127.874817 46.55,129.18 L46.51,129.2 Z" id="Shape" fill="#FFBA83" fill-rule="nonzero"></path>
                            <path d="M44.82,116.18 C46.8432942,117.064792 49.1600103,116.976396 51.11,115.94 L101.61,89.22 C103.98037,88.0541991 105.529085,85.6914453 105.652426,83.0527837 C105.775767,80.4141221 104.454211,77.9172012 102.202927,76.5353671 C99.9516419,75.153533 97.1269622,75.105503 94.83,76.41 L44.33,103.13 C41.8993789,104.44246 40.4257764,107.022102 40.5298211,109.782472 C40.6338659,112.542843 42.2974766,115.004235 44.82,116.13 L44.82,116.18 Z" id="Shape" fill="#FFB07B" fill-rule="nonzero"></path>
                            <path d="M44.22,98.45 C46.2548348,99.3383513 48.5850099,99.2424896 50.54,98.19 L100.88,71.19 C104.409099,69.2901404 105.729859,64.8890996 103.83,61.3600001 C101.93014,57.8309006 97.5290995,56.5101406 94,58.41 L43.66,85.41 C41.2325368,86.7296326 39.7661661,89.3142864 39.8787168,92.0749639 C39.9912675,94.8356413 41.6631707,97.2923501 44.19,98.41 L44.22,98.45 Z" id="Shape" fill="#FFB07B" fill-rule="nonzero"></path>
                            <path d="M41.63,87.36 C44.6706696,88.6807602 48.2198731,87.7708136 50.25,85.15 L61.66,70.41 C62.4358867,69.5863564 63.3716281,68.9296361 64.41,68.48 L80,64.31 C82.5552252,63.6867074 84.5724821,61.7284327 85.2713039,59.1928228 C85.9701257,56.6572128 85.2408966,53.9419983 83.3657518,52.0976823 C81.4906071,50.2533662 78.763678,49.5692443 76.24,50.31 L60.24,54.6 C59.9925405,54.6668567 59.7488553,54.7469724 59.51,54.84 C56.137135,56.1422474 53.1212539,58.2259471 50.71,60.92 L50.39,61.31 L38.8,76.31 C37.4331147,78.0784898 36.9583667,80.3786006 37.5133368,82.5437657 C38.0683069,84.7089308 39.5909471,86.4970755 41.64,87.39 L41.63,87.36 Z" id="Shape" fill="#FFB07B" fill-rule="nonzero"></path>
                            <path d="M39.87,73.26 C41.2917095,71.6437705 42.8582316,70.1609302 44.55,68.83 C48.81,71 70,124.74 70,124.74 C70,124.74 34.86,143.49 29.18,139.41 C21.93,134.2 12.18,119.02 17.24,102.01 C20.08,92.44 29.17,66.08 31.07,64.01 C32.3034844,62.7185027 33.7915111,61.6969741 35.44,61.01 L39.87,73.26 Z" id="Shape" fill="#FFB07B" fill-rule="nonzero"></path>
                            <path d="M62.51,119.32 C60.7,117.02 47.33,99.77 43.11,79.06" id="Shape" stroke="#FF9C6B" stroke-width="2" stroke-linecap="round" stroke-linejoin="round"></path>
                            <path d="M24.09,137.45 C24.09,137.45 26.28,143.66 34.49,140.72" id="Shape" stroke="#FF9C6B" stroke-width="2" stroke-linecap="round" stroke-linejoin="round"></path>
                            <path d="M81.21,277.45 C80,269 49.83,140.72 49.83,140.72 C24.53,154.01 0.48,142.23 0.48,142.23 C0.48,142.23 2.48,195.78 4.73,252.16 C7.13,311.97 18.99,340.3 53.61,336.93 C85.16,333.87 84.1,297.29 81.21,277.45 Z" id="Shape" fill="#967CDF" fill-rule="nonzero"></path>
                            <path d="M0.48,142.23 C0.48,142.23 28.24,154.01 49.83,140.72 L76,254.86" id="Shape" stroke="#404299" stroke-width="2" stroke-linecap="round" stroke-linejoin="round"></path>
                        </g>
                        <g id="head-2" stroke-width="1" fill="none" fill-rule="evenodd" transform="translate(49.000000, 29.000000)">
                            <path d="M162.59,91.41 C155.9,23.66 136.59,3.23 91.13,3.02 C89.533917,3.0097551 87.9383943,3.0831892 86.35,3.24 C41.14,7.67 22.71,29.85 22.35,97.94 C22.16,132.64 47.05,177.69 72.65,197.5 C81.19,204.1 103.56,211.59 121.76,195.21 C145.82,173.55 166,125.95 162.59,91.41 Z" id="Shape" fill="#FFB07B" fill-rule="nonzero"></path>
                            <path d="M83.16,22.69 C78.9970246,31.1863955 72.500265,38.3213845 64.43,43.26 C47.19,53.45 37.14,53.68 30.51,68.59 C25.45,79.98 26.9,88.76 24.51,102.85 C21.43,121.1 28.23,119.64 25.83,146.94 C25.1,155.28 20.27,159.47 17.32,148.13 C14.04,135.49 14.87,126.67 16.21,124.32 C20.44,116.88 -2.15,90.4 1.33,67.16 C4.81,43.92 24.22,44.38 26.63,34.61 C29.04,24.84 42.63,-5.22 86.35,3.24 L83.16,22.69 Z" id="Shape" fill="#44485D" fill-rule="nonzero"></path>
                            <path d="M54.65,4.44 C54.65,4.44 47.1,28.8 60.55,45.44 C71.84,59.44 98.96,57.73 115.83,52.91 C132.17,48.24 135.53,58.81 130.32,68.2 C124.02,79.56 133.32,83.02 136.16,77.71 C141.09,68.33 148.3,71.5 144.16,80.24 C141.22,86.42 131.97,98.29 143.29,104.55 C154.89,110.96 151.52,123.02 145.69,133.98 C140.81,143.15 134.41,163.65 154.29,174.63 C181.86,189.85 180.53,103.3 178.29,90.63 C173.88,66.15 173.69,35.29 159.61,23.74 C145.53,12.19 122.12,1.32 108.61,0.67 C71.42,-1 54.65,4.44 54.65,4.44 Z" id="Shape" fill="#44485D" fill-rule="nonzero"></path>
                            <path d="M133.69,55.79 C133.69,55.79 157.19,67.09 172.59,52.79 C181.79,44.25 181.33,30.33 181.33,30.33" id="Shape" stroke="#5E6274" stroke-width="4" stroke-linecap="round"></path>
                            <path d="M60.55,45.45 C60.55,45.45 90.39,78.81 133.69,55.78" id="Shape" stroke="#44485D" stroke-width="4" stroke-linecap="round"></path>
                            <path d="M29.81,106.57 C29.81,106.57 33.63,91.26 50.65,92.32" id="Shape" stroke="#44485D" stroke-width="3" stroke-linecap="round" stroke-linejoin="round"></path>
                            <circle id="Oval" fill="#44485D" fill-rule="nonzero" transform="translate(48.163057, 120.600857) rotate(-2.660000) translate(-48.163057, -120.600857) " cx="48.163057" cy="120.600857" r="4.96"></circle>
                            <path d="M110.78,93.48 C110.78,93.48 101.78,80.17 83.51,86.7" id="Shape" stroke="#44485D" stroke-width="3" stroke-linecap="round" stroke-linejoin="round"></path>
                            <circle id="Oval" fill="#44485D" fill-rule="nonzero" transform="translate(97.130887, 112.647245) rotate(-2.660000) translate(-97.130887, -112.647245) " cx="97.1308872" cy="112.647245" r="4.96"></circle>
                            <path d="M72.88,109.66 C74.95,122.89 66.28,136.53 66.28,136.53 C66.28,136.53 69.46,143.53 79.45,142.72" id="Shape" stroke="#44485D" stroke-width="2" stroke-linecap="round" stroke-linejoin="round"></path>
                            <path d="M99.8,141.36 C100.49633,141.128244 101.261646,141.245837 101.856277,141.675954 C102.450908,142.10607 102.802148,142.796119 102.8,143.53 C102.75,150.59 95.8,155.53 90.36,156.4 C85.94,157.07 79.47,154.73 79.47,154.73 C78.37,153.51 99.8,141.36 99.8,141.36 Z" id="Shape" stroke="#FF9C6B" stroke-width="2" fill="#FFFFFF" fill-rule="nonzero" stroke-linecap="round" stroke-linejoin="round"></path>
                            <path d="M137.24,44.26 L130.14,65.12" id="Shape" stroke="#FFFFFF" stroke-width="4" stroke-linecap="round"></path>
                            <path d="M147.19,52.8 L130.56,66.04" id="Shape" stroke="#FFFFFF" stroke-width="4" stroke-linecap="round"></path>
                        </g>
                    </g>
                </g>
            </g>
        </g>
    </g>
</svg>