<svg xmlns="http://www.w3.org/2000/svg" xmlns:xlink="http://www.w3.org/1999/xlink" viewBox="0 0 31.93 31.93"><defs><style>.cls-1{fill:none;}.cls-2{fill:#afd35f;}.cls-3{clip-path:url(#clip-path);}.cls-4{fill:url(#linear-gradient);}.cls-5{fill:#fff;}</style><clipPath id="clip-path"><circle class="cls-1" cx="15.97" cy="15.97" r="15.97"/></clipPath><linearGradient id="linear-gradient" x1="20.95" y1="6.52" x2="20.95" y2="31.93" gradientUnits="userSpaceOnUse"><stop offset="0" stop-color="#79a93f"/><stop offset="1" stop-color="#a4b270" stop-opacity="0.5"/></linearGradient></defs><title>11Asset 2dollar-icon</title><g id="Layer_2" data-name="Layer 2"><g id="Layer_1-2" data-name="Layer 1"><circle class="cls-2" cx="15.97" cy="15.97" r="15.97"/><g class="cls-3"><polygon class="cls-4" points="9.98 21.19 20.34 31.32 31.93 31.93 31.93 18.25 17.18 6.52 12.89 12.58 15.96 15.96 15.96 21.46 9.98 21.19"/></g><path class="cls-5" d="M17.18,23.43v2H15.12v-2A7.85,7.85,0,0,1,10,21.19l1.68-2.35a6.43,6.43,0,0,0,3.46,1.85V17.27c-2.24-.54-4.68-1.42-4.68-4.35,0-2.22,1.76-4.09,4.68-4.38v-2h2.07V8.58a7.56,7.56,0,0,1,4.42,1.94l-1.72,2.26a6,6,0,0,0-2.7-1.42v3C19.45,15,22,15.88,22,18.84,22,21.23,20.38,23.11,17.18,23.43ZM15.31,14V11.2c-1.11.11-1.7.67-1.7,1.46S14.31,13.7,15.31,14Zm3.48,5.22c0-.81-.76-1.17-1.81-1.48v3C18.23,20.58,18.8,19.91,18.8,19.19Z"/></g></g></svg>