<svg xmlns="http://www.w3.org/2000/svg" xmlns:xlink="http://www.w3.org/1999/xlink" viewBox="0 0 166.3 52.53"><defs><style>.cls-1{fill:#5c6bc0;}.cls-2{fill:none;}.cls-3{fill:#71bff4;}.cls-4{clip-path:url(#clip-path);}.cls-5{fill:url(#linear-gradient);}.cls-6{fill:#fff;}.cls-7{clip-path:url(#clip-path-2);}.cls-8{fill:url(#linear-gradient-2);}</style><clipPath id="clip-path"><circle class="cls-1" cx="140.04" cy="26.27" r="26.27"/></clipPath><linearGradient id="linear-gradient" x1="147.1" y1="10.67" x2="147.1" y2="52.53" gradientUnits="userSpaceOnUse"><stop offset="0" stop-color="#4648ab"/><stop offset="1" stop-color="#6160a4" stop-opacity="0.5"/></linearGradient><clipPath id="clip-path-2"><circle class="cls-2" cx="26.27" cy="26.27" r="26.27"/></clipPath><linearGradient id="linear-gradient-2" x1="34.47" y1="10.72" x2="34.47" y2="52.53" xlink:href="#linear-gradient"/></defs><title>11Asset 4exchange-icon</title><g id="Layer_2" data-name="Layer 2"><g id="Layer_1-2" data-name="Layer 1"><path class="cls-3" d="M74.37,37.53a14.36,14.36,0,0,0,6.78,2.95,14.52,14.52,0,0,0,16.43-10.9,14.18,14.18,0,0,0-.2-7.64c-.34-1.13.31-2,1.37-1.91a1.33,1.33,0,0,1,1.17,1.09,16.31,16.31,0,0,1,.7,6c-.52,6.39-3.53,11.3-9.23,14.24-6,3.1-12,2.62-17.71-1-.23-.14-.44-.3-.77-.53l.3,3.48c0,.36.07.72.1,1.09a1.32,1.32,0,1,1-2.62.25c-.22-2.29-.42-4.59-.63-6.88,0-.38-.09-.76-.1-1.14a1.3,1.3,0,0,1,1.19-1.39l6.68-.63c.45,0,.9-.1,1.35-.11A1.31,1.31,0,0,1,79.36,37c-1.43.15-2.86.27-4.29.41Z"/><path class="cls-3" d="M93.88,12.75l-.35-3.8c0-.28-.06-.55-.07-.83a1.31,1.31,0,0,1,1.21-1.37,1.29,1.29,0,0,1,1.41,1.17c.15,1.38.28,2.76.41,4.14.12,1.22.22,2.45.36,3.67a1.33,1.33,0,0,1-1.3,1.68c-2.05.21-4.11.39-6.16.58l-1.61.14A1.28,1.28,0,0,1,86.28,17a1.31,1.31,0,0,1,1.3-1.49L92.42,15c-.17-.15-.26-.24-.36-.32a14.61,14.61,0,0,0-22.95,8.84,14.78,14.78,0,0,0,.34,7.09,1.34,1.34,0,0,1-.83,1.84,1.37,1.37,0,0,1-1.71-1.09A17.21,17.21,0,0,1,80.25,9.55a17,17,0,0,1,13.34,3.07l.17.11Z"/><circle class="cls-1" cx="140.04" cy="26.27" r="26.27"/><g class="cls-4"><polygon class="cls-5" points="127.91 37.92 147.24 51.53 166.3 52.53 166.3 30.03 142.85 10.67 140.03 16.56 134.78 16.56 134.38 35.05 127.91 37.92"/></g><path class="cls-6" d="M134,10.67h3.2v3.89h2.43V10.67h3.19v3.88c.6,0,1.16,0,1.72.08a7.22,7.22,0,0,1,3.56,1.09,5.64,5.64,0,0,1-.29,9.59l-.31.18c.22.08.41.14.6.22.38.16.75.31,1.12.49a4.89,4.89,0,0,1,2.84,4,7.06,7.06,0,0,1-1.16,5,5.11,5.11,0,0,1-2.85,2,14.58,14.58,0,0,1-4.66.71h-.55v3.94h-3.19V37.94h-2.44v3.93H134V37.92h-6.14V34.46c.68,0,1.35,0,2,0a2.17,2.17,0,0,0,.77-.14,1.76,1.76,0,0,0,1.14-1.74q0-4.45,0-8.91c0-1.23,0-2.46,0-3.69A1.84,1.84,0,0,0,129.91,18h-2V14.58H134Zm3.21,23.65h.28c1.56,0,3.11,0,4.67,0a4.15,4.15,0,0,0,2.73-1,2.94,2.94,0,0,0,.1-4.53,4.08,4.08,0,0,0-2.79-1.1c-1.57,0-3.14,0-4.72,0h-.27Zm0-9.9h.32c1.43,0,2.86,0,4.29,0a2.16,2.16,0,0,0,1.64-.7,3.82,3.82,0,0,0,0-5,2.16,2.16,0,0,0-1.64-.71h-4.62Z"/><circle class="cls-1" cx="26.27" cy="26.27" r="26.27"/><g class="cls-7"><polygon class="cls-8" points="16.42 34.86 33.47 51.53 52.53 52.53 52.53 30.03 28.27 10.72 21.21 20.7 26.27 26.27 26.27 35.3 16.42 34.86"/></g><path class="cls-6" d="M28.27,38.55v3.26h-3.4V38.59a12.92,12.92,0,0,1-8.45-3.73L19.17,31a10.57,10.57,0,0,0,5.69,3V28.42c-3.69-.9-7.7-2.33-7.7-7.16,0-3.65,2.9-6.73,7.7-7.2V10.72h3.4v3.4a12.44,12.44,0,0,1,7.27,3.19L32.71,21a9.87,9.87,0,0,0-4.44-2.33v5c3.73,1,7.84,2.4,7.84,7.27C36.12,34.93,33.54,38,28.27,38.55ZM25.19,23V18.42c-1.83.18-2.79,1.11-2.79,2.4C22.4,21.93,23.54,22.54,25.19,23Zm5.73,8.6c0-1.32-1.25-1.93-3-2.43v5C30,33.86,30.92,32.75,30.92,31.57Z"/></g></g></svg>