<svg xmlns="http://www.w3.org/2000/svg" viewBox="0 0 155.39 42.79">
		<defs>
			<style>
				.cls-1 {
					fill: #fff;
				}
				
				.cls-2 {
					fill: #fff;
				}
				
				.cls-3 {
					fill: #71bff4;
				}
			</style>
		</defs>
		<title>11Asset 6exchange</title>
		<g id="Layer_2" data-name="Layer 2">
			<g id="Layer_1-2" data-name="Layer 1">
				<path class="cls-1" d="M68.33,32.66a14.36,14.36,0,0,0,6.78,2.95,14.52,14.52,0,0,0,16.43-10.9,14.18,14.18,0,0,0-.2-7.64c-.34-1.13.31-2,1.37-1.91a1.33,1.33,0,0,1,1.17,1.09,16.31,16.31,0,0,1,.7,6c-.52,6.39-3.53,11.3-9.23,14.24-6,3.1-12,2.62-17.71-1-.23-.14-.44-.3-.77-.53l.3,3.48c0,.36.07.72.1,1.09a1.32,1.32,0,1,1-2.62.25c-.22-2.29-.42-4.59-.63-6.88,0-.38-.09-.76-.1-1.14a1.3,1.3,0,0,1,1.19-1.39l6.68-.63c.45,0,.9-.1,1.35-.11a1.31,1.31,0,0,1,.18,2.62c-1.43.15-2.86.27-4.29.41Z" />
				<path class="cls-1" d="M87.85,7.87l-.35-3.8c0-.28-.06-.55-.07-.83a1.31,1.31,0,0,1,1.21-1.37A1.29,1.29,0,0,1,90,3c.15,1.38.28,2.76.41,4.14.12,1.22.22,2.45.36,3.67a1.33,1.33,0,0,1-1.3,1.68c-2.05.21-4.11.39-6.16.58l-1.61.14a1.28,1.28,0,0,1-1.51-1.14,1.31,1.31,0,0,1,1.3-1.49l4.84-.45c-.17-.15-.26-.24-.36-.32a14.61,14.61,0,0,0-22.95,8.84,14.78,14.78,0,0,0,.34,7.09,1.34,1.34,0,0,1-.83,1.84,1.37,1.37,0,0,1-1.71-1.09A17.21,17.21,0,0,1,74.22,4.68,17,17,0,0,1,87.56,7.74l.17.11Z" />
				<path class="cls-2" d="M135,42.79H133l-.23,0a20.16,20.16,0,0,1-4.43-.71,21.42,21.42,0,0,1-15.69-22.46,20.36,20.36,0,0,1,1.43-6.09,21.24,21.24,0,0,1,9.62-10.87,20.71,20.71,0,0,1,8-2.49L133,0H135l.3,0c1.05.14,2.12.2,3.15.43a21.05,21.05,0,0,1,13,8.48,20.8,20.8,0,0,1,3.88,10.17c0,.44.08.88.13,1.32v1.92c0,.09,0,.18,0,.28a20,20,0,0,1-.64,4.13,21.19,21.19,0,0,1-9.11,12.6,20.71,20.71,0,0,1-9.32,3.3Zm8.13-22.72.14-.09a5.66,5.66,0,0,0,2.55-6.06,4.83,4.83,0,0,0-2.21-3.12,11.41,11.41,0,0,0-4.62-1.67c-.44-.07-.88-.12-1.34-.18V3.51h-3.39V8.89H132V3.51h-3.39V8.9h-6.73v3.49h.25c.82,0,1.64,0,2.47,0a2.84,2.84,0,0,1,.75.12,1,1,0,0,1,.74,1c0,.1,0,.2,0,.31q0,7.32,0,14.65c0,.15,0,.31,0,.46a1.28,1.28,0,0,1-1.44,1.34h-2.44l-.11,3.55h6.53v5.5H132V33.8h2.26v5.49h3.38v-5.5h.72a14.51,14.51,0,0,0,4.24-.56,6.67,6.67,0,0,0,3.58-2.4,8.18,8.18,0,0,0,1.36-5.92,5.32,5.32,0,0,0-3-4.17C144.07,20.48,143.57,20.29,143.08,20.07Z" />
				<path class="cls-2" d="M132,22.71h.12c1.53,0,3.07,0,4.6,0a6.24,6.24,0,0,1,2.89.74A2.43,2.43,0,0,1,141,25.41a3.66,3.66,0,0,1-2.47,4.07,7.91,7.91,0,0,1-2.64.42c-1.24,0-2.47,0-3.71,0H132Z" />
				<path class="cls-2" d="M132,19.23V12.65l0,0a28.77,28.77,0,0,1,4.18.13,5.47,5.47,0,0,1,1.78.56,2.52,2.52,0,0,1,1.42,2.42,3.35,3.35,0,0,1-1.7,3.07,3.13,3.13,0,0,1-1.62.44c-1.28,0-2.56,0-3.84,0Z" />
				<rect class="cls-2" y="1.16" width="40.46" height="40.46" rx="12" ry="12" />
				<path class="cls-3" d="M23,38.32H17.41V34.58c-4.89-1-8.2-4.49-8.2-9h5.43c0,2.77,2.48,4.75,5.93,4.75,3,0,4.78-1.47,4.78-3.31,0-5.43-15.89-.86-15.89-11,0-4.31,3.13-7.48,7.95-8.27V4.48H23V7.79c4.57,1,7.62,4.31,7.62,8.56H25.39c0-2.52-2.23-4.31-5.32-4.31-2.84,0-4.75,1.33-4.75,3.13,0,5.21,15.93.72,15.93,11,0,4.39-3.2,7.7-8.23,8.52Z" />
			</g>
		</g>
	</svg>