<svg xmlns="http://www.w3.org/2000/svg" viewBox="0 0 29.4 29.4"><defs><style>.cls-1{fill:#9aa4b7;}.cls-2{fill:#fff;}</style></defs><title>11Asset 5fb-icon</title><g id="Layer_2" data-name="Layer 2"><g id="Layer_1-2" data-name="Layer 1"><circle class="cls-1" cx="14.7" cy="14.7" r="14.7"/><path class="cls-2" d="M18.27,7.06s0,.1,0,.15c0,.79,0,1.57,0,2.36,0,.11,0,.14-.14.14H16.84a2.63,2.63,0,0,0-.43.05.58.58,0,0,0-.48.57c0,.55,0,1.11,0,1.66,0,.1.07.08.12.08h2.25L18,14.7H15.9c0,.06,0,.11,0,.16q0,3.67,0,7.35s0,.09,0,.13H13s0-.09,0-.13q0-3.66,0-7.33V14.7h-1.9c0-.05,0-.09,0-.13,0-.79,0-1.58,0-2.37,0-.11,0-.14.14-.14H12.9c.12,0,.14,0,.14-.15,0-.71,0-1.42,0-2.12a3.48,3.48,0,0,1,.36-1.48,2,2,0,0,1,1.21-1c.3-.1.62-.14.93-.2l.13,0Z"/></g></g></svg>