<svg xmlns="http://www.w3.org/2000/svg" viewBox="0 0 31.82 31.82"><defs><style>.cls-1{fill:#fff;}</style></defs><title>11Asset 1goodbit-icon</title><g id="Layer_2" data-name="Layer 2"><g id="Layer_1-2" data-name="Layer 1"><path class="cls-1" d="M15.91,0A15.91,15.91,0,1,0,31.82,15.91,15.91,15.91,0,0,0,15.91,0ZM26.7,20.47A11.71,11.71,0,1,1,7.63,7.63,1.67,1.67,0,1,1,10,10a8.37,8.37,0,0,0,2.66,13.62,8.35,8.35,0,0,0,9.17-1.79A8.36,8.36,0,0,0,17.59,7.72v8.19a1.67,1.67,0,1,1-3.35,0v-10A1.67,1.67,0,0,1,15.91,4.2,11.71,11.71,0,0,1,26.7,20.47Z"/></g></g></svg>