<?xml version="1.0" encoding="utf-8"?>
<!-- Generator: Adobe Illustrator 22.0.1, SVG Export Plug-In . SVG Version: 6.00 Build 0)  -->
<svg version="1.1" id="Layer_1" xmlns="http://www.w3.org/2000/svg" xmlns:xlink="http://www.w3.org/1999/xlink" x="0px" y="0px"
	 viewBox="0 0 545.4 137" style="enable-background:new 0 0 545.4 137;" xml:space="preserve">
<style type="text/css">
	.st0{fill:#565656;}
	.st1{fill:#5086FF;}
	.st2{fill:#FFFFFF;}
</style>
<title>Asset 4</title>
<g id="Layer_2_1_">
	<g id="Presentation">
		<path class="st0" d="M234.4,67.2v5.2c0,10.3-3.4,18.9-10.2,25.4s-15.7,9.8-26.7,9.8c-11.6,0-21.2-3.8-28.9-11.3
			C161,89,157,78.9,157.2,68.5c-0.2-10.4,3.9-20.4,11.3-27.7c7.7-7.7,17-11.4,28.2-11.4c14.1,0,26.4,7,32.9,17.9l-10.7,6.1
			c-4-7.2-12.4-12-22.2-12c-7.9,0-14.4,2.6-19.5,7.8s-7.8,12.2-7.6,19.4c0,7.8,2.6,14.2,7.6,19.3s12,7.7,20.3,7.7
			c13.4,0,22.1-6.8,24.4-17.2h-25.2V67.2H234.4z"/>
		<path class="st0" d="M247.3,99.4c-5.4-5.3-8.5-12.6-8.3-20.2c0-15.7,12.7-28.5,28.4-28.5s28.5,12.7,28.5,28.4l0,0
			c-0.1,15.8-13,28.5-28.8,28.3C259.7,107.6,252.6,104.6,247.3,99.4L247.3,99.4z M267.5,96.3c4.5,0.1,8.8-1.6,12-4.9
			c3.2-3.2,5-7.6,4.9-12.2c0.1-4.6-1.6-9-4.9-12.2c-6.7-6.5-17.3-6.5-23.9,0c-3.2,3.2-5,7.6-4.9,12.2c-0.1,4.6,1.6,9,4.9,12.2
			C258.7,94.7,263,96.4,267.5,96.3z"/>
		<path class="st0" d="M308.9,99.4c-5.4-5.3-8.4-12.6-8.3-20.2c-0.3-15.7,12.2-28.7,27.9-29c15.7-0.3,28.7,12.2,29,27.9
			c0,0.4,0,0.7,0,1.1c-0.1,15.8-13,28.5-28.8,28.4C321.3,107.6,314.2,104.6,308.9,99.4L308.9,99.4z M329.1,96.3
			c4.5,0.1,8.8-1.6,12-4.9c3.2-3.2,5-7.6,4.9-12.2c0.1-4.6-1.7-9-4.9-12.2c-6.7-6.5-17.3-6.5-23.9,0c-3.2,3.2-5,7.6-4.9,12.2
			c-0.1,4.6,1.6,9,4.9,12.2C320.2,94.7,324.6,96.4,329.1,96.3z"/>
		<path class="st0" d="M407.9,30.8h11.6v75.4h-11.6v-7.8c-4.4,6.2-10.7,9.2-18.9,9.2c-7.2,0.1-14.1-2.9-19-8.2
			c-5.2-5.4-8-12.7-7.9-20.2c-0.2-7.5,2.6-14.8,7.9-20.2c4.9-5.3,11.8-8.3,19-8.2c8.2,0,14.4,3,18.9,9V30.8z M390.9,96.5
			c4.5,0.1,8.9-1.6,12.1-4.8c3.2-3.3,5-7.8,4.9-12.4c0.2-4.6-1.6-9-4.9-12.3c-6.8-6.6-17.6-6.6-24.4,0c-3.2,3.2-5,7.7-4.9,12.3
			c-0.1,4.6,1.6,9.1,4.9,12.4C381.9,94.9,386.3,96.7,390.9,96.5L390.9,96.5z"/>
		<path class="st0" d="M476.8,59.1c5.2,5.4,8.1,12.6,7.9,20.1c0.2,7.5-2.7,14.8-7.9,20.2c-4.9,5.3-11.8,8.3-19,8.2
			c-8.2,0-14.4-3-18.9-9.2v7.8h-11.6V30.8H439V60c4.4-6,10.7-9,18.9-9C465.1,50.8,472,53.8,476.8,59.1z M456,96.5
			c4.6,0.1,9-1.6,12.2-4.8c3.2-3.3,5-7.8,4.9-12.4c0.2-4.6-1.6-9-4.8-12.3c-6.8-6.6-17.6-6.6-24.4,0c-3.2,3.2-5,7.7-4.8,12.3
			c-0.1,4.6,1.6,9.1,4.9,12.4C447.1,94.9,451.5,96.6,456,96.5z"/>
		<path class="st0" d="M492.9,42.1c-2.8-3-2.7-7.7,0.3-10.5c2.9-2.7,7.4-2.7,10.3,0.1s2.9,7.4,0.1,10.3c-0.1,0.1-0.1,0.1-0.2,0.2
			C500.5,45,495.9,45,492.9,42.1C493,42.1,492.9,42.1,492.9,42.1z M492.4,106.2V52.3H504v53.9H492.4z"/>
		<path class="st0" d="M544.7,63.5h-13.4v25.9c0,6.9,4.5,6.8,13.4,6.4v10.4c-17.8,2.2-25-2.7-25-16.8V63.5h-9.9V52.3h9.9V37.2h11.6
			v15.1h13.4V63.5z"/>
		<circle class="st1" cx="68.5" cy="68.5" r="68.5"/>
		<path class="st2" d="M68.5,118.9c-27.8,0-50.4-22.5-50.4-50.4c0-13.4,5.3-26.2,14.8-35.7c2.9-2.7,7.5-2.6,10.2,0.4
			c2.6,2.8,2.6,7.1,0,9.8C29,57.1,29,79.9,43,94c3.3,3.3,7.2,5.9,11.5,7.7c9,3.7,19,3.7,28,0c18.3-7.7,26.9-28.8,19.2-47.1
			c-5.6-13.4-18.7-22-33.2-22c-4,0.1-7.3-3-7.5-6.9c-0.1-4,3-7.3,6.9-7.5c0.2,0,0.4,0,0.5,0c27.8-0.4,50.7,21.9,51.1,49.7
			c0.4,27.8-21.9,50.7-49.7,51.1C69.4,118.9,69,118.9,68.5,118.9L68.5,118.9z"/>
		<path class="st2" d="M68.2,76c-4,0-7.2-3.2-7.2-7.2l0,0V25.6c-0.1-4,3-7.3,6.9-7.5s7.3,3,7.5,6.9c0,0.2,0,0.4,0,0.5v43.2
			C75.4,72.8,72.2,76,68.2,76L68.2,76z"/>
	</g>
</g>
</svg>
