<svg xmlns="http://www.w3.org/2000/svg" viewBox="0 0 29.4 29.4"><defs><style>.cls-1{fill:#9aa4b7;}.cls-2{fill:#fff;}</style></defs><title>11Asset 7insta-icon</title><g id="Layer_2" data-name="Layer 2"><g id="Layer_1-2" data-name="Layer 1"><circle class="cls-1" cx="14.7" cy="14.7" r="14.7"/><path class="cls-2" d="M21.74,14.69c0,1,0,2-.06,3a4.6,4.6,0,0,1-.33,1.64,3.54,3.54,0,0,1-2.92,2.27,15.79,15.79,0,0,1-2.24.13c-1.5,0-3,0-4.5,0a4.29,4.29,0,0,1-2.11-.56,3.54,3.54,0,0,1-1.78-2.68,17.05,17.05,0,0,1-.13-2.26c0-1.49,0-3,0-4.48A4.48,4.48,0,0,1,8,10.13,3.54,3.54,0,0,1,10.95,7.8a15.63,15.63,0,0,1,2.24-.13c1.49,0,3,0,4.48,0a4.32,4.32,0,0,1,2.13.56A3.51,3.51,0,0,1,21.58,11c.11.82.1,1.65.14,2.48,0,.42,0,.84,0,1.26Zm-7.05,5.77c.59,0,1.17,0,1.76,0a15.34,15.34,0,0,0,1.81-.12,2.28,2.28,0,0,0,2-1.69,4.18,4.18,0,0,0,.17-1.07q0-1.89,0-3.79c0-.8,0-1.6-.08-2.4a2.44,2.44,0,0,0-1-1.9A3,3,0,0,0,17.61,9q-2.92,0-5.84,0a3.07,3.07,0,0,0-1.59.41,2.42,2.42,0,0,0-1.17,2c-.06.79-.08,1.58-.08,2.36,0,1.28,0,2.56,0,3.85a3.09,3.09,0,0,0,.48,1.72,2.41,2.41,0,0,0,1.92,1.05C12.48,20.45,14.69,20.47,14.69,20.46Z"/><path class="cls-2" d="M18.3,14.73a3.62,3.62,0,1,1-3.57-3.64A3.61,3.61,0,0,1,18.3,14.73Zm-3.61-2.37A2.34,2.34,0,1,0,17,14.7,2.34,2.34,0,0,0,14.69,12.36Z"/><path class="cls-2" d="M18.45,10.1a.85.85,0,1,1-.85.84A.84.84,0,0,1,18.45,10.1Z"/></g></g></svg>