<svg xmlns="http://www.w3.org/2000/svg" viewBox="0 0 125.66 107.48"><defs><style>.cls-1{fill:none;stroke:#5086ff;stroke-linecap:round;stroke-linejoin:round;}.cls-2{fill:#5086ff;}</style></defs><title>11Asset 1LC-left</title><g id="Layer_2" data-name="Layer 2"><g id="Layer_1-2" data-name="Layer 1"><line class="cls-1" x1="118.94" y1="59.05" x2="118.94" y2="46.61"/><line class="cls-1" x1="112.72" y1="52.83" x2="125.16" y2="52.83"/><rect class="cls-1" x="82.14" y="2.1" width="10.28" height="10.28" rx="1.27" ry="1.27" transform="translate(154.11 -49.36) rotate(135)"/><circle class="cls-2" cx="1.14" cy="72.4" r="1.14" transform="translate(-43.41 15.32) rotate(-37.07)"/><circle class="cls-2" cx="3.71" cy="75.8" r="1.14" transform="translate(-44.94 17.55) rotate(-37.07)"/><circle class="cls-2" cx="6.27" cy="79.19" r="1.14" transform="translate(-46.47 19.78) rotate(-37.07)"/><circle class="cls-2" cx="16.52" cy="92.76" r="1.14" transform="translate(-52.58 28.71) rotate(-37.07)"/><circle class="cls-2" cx="8.83" cy="82.58" r="1.14" transform="translate(-48 22.02) rotate(-37.07)"/><circle class="cls-2" cx="13.96" cy="89.37" r="1.14" transform="translate(-51.05 26.48) rotate(-37.07)"/><circle class="cls-2" cx="11.4" cy="85.98" r="1.14" transform="translate(-49.52 24.25) rotate(-37.07)"/><circle class="cls-2" cx="26.78" cy="106.34" r="1.14" transform="translate(-58.69 37.63) rotate(-37.07)"/><circle class="cls-2" cx="19.09" cy="96.16" r="1.14" transform="translate(-54.11 30.94) rotate(-37.07)"/><circle class="cls-2" cx="24.21" cy="102.94" r="1.14" transform="translate(-57.16 35.4) rotate(-37.07)"/><circle class="cls-2" cx="21.65" cy="99.55" r="1.14" transform="translate(-55.63 33.17) rotate(-37.07)"/></g></g></svg>