<svg xmlns="http://www.w3.org/2000/svg" viewBox="0 0 177.77 35.9"><defs><style>.cls-1{fill:#fff;}</style></defs><title>11Asset 1logo-footer</title><g id="Layer_2" data-name="Layer 2"><g id="Layer_1-2" data-name="Layer 1"><path class="cls-1" d="M35.4,17.36v2.37a15.57,15.57,0,0,1-4.7,11.67c-3.12,3-7.22,4.5-12.26,4.5A18.08,18.08,0,0,1,5.19,30.71,17.34,17.34,0,0,1,0,18,17.31,17.31,0,0,1,5.19,5.24,17.56,17.56,0,0,1,18.15,0,17.33,17.33,0,0,1,33.23,8.21L28.33,11A11.43,11.43,0,0,0,18.15,5.54a12,12,0,0,0-9,3.56A12.23,12.23,0,0,0,5.69,18,12,12,0,0,0,9.2,26.85a12.77,12.77,0,0,0,9.3,3.51c6.13,0,10.14-3.12,11.18-7.91H18.1V17.36Z"/><path class="cls-1" d="M41.35,32.14a12.57,12.57,0,0,1-3.81-9.25,12.91,12.91,0,0,1,13.05-13,12.53,12.53,0,0,1,9.25,3.76,12.57,12.57,0,0,1,3.81,9.25,12.57,12.57,0,0,1-3.81,9.25A12.53,12.53,0,0,1,50.6,35.9,12.61,12.61,0,0,1,41.35,32.14Zm9.25-1.43a7.46,7.46,0,0,0,5.49-2.23,7.6,7.6,0,0,0,2.22-5.59,7.6,7.6,0,0,0-2.22-5.59,7.88,7.88,0,0,0-11,0,7.6,7.6,0,0,0-2.22,5.59,7.6,7.6,0,0,0,2.22,5.59A7.46,7.46,0,0,0,50.6,30.71Z"/><path class="cls-1" d="M69.61,32.14A12.57,12.57,0,0,1,65.8,22.9a12.92,12.92,0,0,1,13.06-13,12.53,12.53,0,0,1,9.25,3.76,12.58,12.58,0,0,1,3.81,9.25,12.57,12.57,0,0,1-3.81,9.25,13.25,13.25,0,0,1-18.49,0Zm9.25-1.43a7.45,7.45,0,0,0,5.49-2.23,7.6,7.6,0,0,0,2.23-5.59,7.6,7.6,0,0,0-2.23-5.59,7.88,7.88,0,0,0-11,0,7.6,7.6,0,0,0-2.23,5.59,7.6,7.6,0,0,0,2.23,5.59A7.45,7.45,0,0,0,78.85,30.71Z"/><path class="cls-1" d="M115,.64h5.34V35.26H115V31.7a10,10,0,0,1-8.65,4.2,11.57,11.57,0,0,1-8.7-3.76A12.88,12.88,0,0,1,94,22.9a12.8,12.8,0,0,1,3.61-9.25,11.57,11.57,0,0,1,8.7-3.76A10.07,10.07,0,0,1,115,14ZM107.2,30.81a7.6,7.6,0,0,0,5.59-2.22A7.83,7.83,0,0,0,115,22.9a7.64,7.64,0,0,0-2.23-5.64,8,8,0,0,0-11.18,0,7.64,7.64,0,0,0-2.22,5.64,7.83,7.83,0,0,0,2.22,5.69A7.6,7.6,0,0,0,107.2,30.81Z"/><path class="cls-1" d="M146.64,13.65a12.8,12.8,0,0,1,3.61,9.25,12.88,12.88,0,0,1-3.61,9.25,11.57,11.57,0,0,1-8.7,3.76,10,10,0,0,1-8.65-4.2v3.56h-5.34V.64h5.34V14a10.06,10.06,0,0,1,8.65-4.15A11.57,11.57,0,0,1,146.64,13.65ZM137.1,30.81a7.6,7.6,0,0,0,5.59-2.22,7.83,7.83,0,0,0,2.23-5.69,7.64,7.64,0,0,0-2.23-5.64,8,8,0,0,0-11.18,0,7.64,7.64,0,0,0-2.22,5.64,7.83,7.83,0,0,0,2.22,5.69A7.61,7.61,0,0,0,137.1,30.81Z"/><path class="cls-1" d="M154,5.83A3.37,3.37,0,0,1,154,1a3.35,3.35,0,0,1,4.85,0,3.33,3.33,0,0,1-.05,4.8A3.37,3.37,0,0,1,154,5.83Zm-.25,29.42V10.53h5.34V35.26Z"/><path class="cls-1" d="M177.77,15.68h-6.13V27.54c0,3.16,2.08,3.11,6.13,2.92v4.8c-8.16,1-11.47-1.24-11.47-7.71V15.68h-4.55V10.53h4.55V3.61h5.34v6.92h6.13Z"/></g></g></svg>