<svg xmlns="http://www.w3.org/2000/svg" viewBox="0 0 45 45"><defs><style>.cls-1{fill:#5086ff;}.cls-2{fill:#fff;}.cls-3{fill:none;stroke:#b5d2ff;stroke-linecap:round;stroke-linejoin:round;}</style></defs><title>11Asset 3terms-glossary</title><g id="Layer_2" data-name="Layer 2"><g id="Layer_1-2" data-name="Layer 1"><circle class="cls-1" cx="22.5" cy="22.5" r="22.5"/><path class="cls-2" d="M34.56,18.43V19a3.71,3.71,0,0,1-1.12,2.78,4,4,0,0,1-2.93,1.07,4.31,4.31,0,0,1-3.16-1.24,4.34,4.34,0,0,1,0-6.07,4.19,4.19,0,0,1,3.09-1.25,4.13,4.13,0,0,1,3.6,2l-1.17.67a2.73,2.73,0,0,0-2.43-1.31,2.87,2.87,0,0,0-2.13.85,2.92,2.92,0,0,0-.84,2.12,2.87,2.87,0,0,0,.84,2.11,3,3,0,0,0,2.22.84,2.47,2.47,0,0,0,2.67-1.89H30.43V18.43Z"/><line class="cls-3" x1="22.5" y1="16.25" x2="9.85" y2="16.25"/><line class="cls-3" x1="22.5" y1="21.2" x2="9.85" y2="21.2"/><line class="cls-3" x1="35.15" y1="26.14" x2="9.85" y2="26.14"/><line class="cls-3" x1="35.15" y1="31.09" x2="9.85" y2="31.09"/></g></g></svg>