<?xml version="1.0" encoding="UTF-8"?>
<svg width="298px" height="194px" viewBox="0 0 298 194" version="1.1" xmlns="http://www.w3.org/2000/svg" xmlns:xlink="http://www.w3.org/1999/xlink">
    <!-- Generator: Sketch 50.2 (55047) - http://www.bohemiancoding.com/sketch -->
    <title>proof-main.0219d64b</title>
    <desc>Created with Sketch.</desc>
    <defs></defs>
    <g id="Page-1" stroke="none" stroke-width="1" fill="none" fill-rule="evenodd">
        <g id="proof-main.0219d64b" fill="#5086FF" fill-rule="nonzero">
            <path d="M41.81,179.260012 L42.15,179.260012 C43.15,179.260012 44.15,179.260012 45.15,179.410012 C46.6209855,179.653293 47.7541534,180.839451 47.93,182.320012 C47.9471904,182.824938 47.8298504,183.325358 47.59,183.770012 C47.55,183.866012 47.55,183.974012 47.59,184.070012 C48.0766841,184.896291 48.0174749,185.934427 47.44,186.700012 C47.3162226,186.854618 47.2752077,187.059693 47.33,187.250012 C47.5139619,188.032467 47.3007661,188.855328 46.76,189.450012 C46.6544736,189.554336 46.6193272,189.710543 46.67,189.850012 C46.8350993,190.425646 46.7081128,191.045639 46.33,191.510012 C45.8585692,192.151277 45.180471,192.610406 44.41,192.810012 C42.9300653,193.236835 41.4000594,193.465495 39.86,193.490012 C38.6907221,193.452289 37.5311769,193.264073 36.41,192.930012 C35.77,192.770012 35.12,192.650012 34.48,192.510012 C34.2990313,192.462107 34.1060666,192.502926 33.96,192.620012 C33.6421776,192.854171 33.2545201,192.973993 32.86,192.960012 C31.86,192.960012 30.95,192.960012 30,192.960012 C28.8954305,192.960012 28,192.064582 28,190.960012 C28,188.540012 28,186.123346 28,183.710012 C28,182.605443 28.8954305,181.710012 30,181.710012 L32.77,181.710012 C32.9797204,181.712678 33.1881776,181.742938 33.39,181.800012 C33.53,181.800012 33.6,181.800012 33.66,181.700012 C33.86,181.300012 34.07,180.900012 34.25,180.490012 C34.43,180.080012 34.5,179.800012 34.64,179.490012 C35.0220635,178.616986 35.6085683,177.848699 36.35,177.250012 C37.0133079,176.676111 37.4524927,175.886287 37.59,175.020012 C37.67,174.590012 37.72,174.140012 37.82,173.710012 C38.0531754,172.706075 38.9493453,171.996607 39.98,172.000012 C40.1089413,172.001056 40.23701,172.021277 40.36,172.060012 C40.9315492,172.225782 41.431336,172.577745 41.78,173.060012 C42.7996358,174.425287 43.0871904,176.202897 42.55,177.820012 C42.4255204,178.142085 42.2680132,178.450397 42.08,178.740012 C42.1,178.870012 41.97,179.040012 41.81,179.260012 Z M33.81,190.910012 L33.88,190.910012 C34.9967008,190.97784 36.101246,191.179276 37.17,191.510012 C38.0749039,191.783717 39.0146206,191.92518 39.96,191.930012 C41.3126574,191.892127 42.6557572,191.690662 43.96,191.330012 C44.4027185,191.219846 44.798644,190.971079 45.09,190.620012 C45.2199061,190.488442 45.2626933,190.293954 45.2,190.120012 C44.9930744,189.560987 45.1296637,188.932676 45.55,188.510012 C45.8913687,188.1841 45.9842059,187.675513 45.78,187.250012 C45.6225108,186.928207 45.6492136,186.546738 45.85,186.250012 C45.9180074,186.149418 45.9914497,186.052608 46.07,185.960012 C46.4772142,185.596193 46.517278,184.972978 46.16,184.560012 C45.9044131,184.173726 45.8813725,183.678355 46.1,183.270012 C46.1957243,183.092568 46.2792509,182.908809 46.35,182.720012 C46.3993396,182.578925 46.4164252,182.428572 46.4,182.280012 C46.248273,181.566003 45.6929267,181.006746 44.98,180.850012 C44.496096,180.783005 44.0084813,180.746267 43.52,180.740012 C42.83,180.740012 42.14,180.740012 41.45,180.740012 C41.1397186,180.746137 40.8300911,180.709116 40.53,180.630012 C40.2473866,180.579693 40.010037,180.388541 39.9006379,180.123146 C39.7912387,179.857752 39.8249395,179.554868 39.99,179.320012 C40.27,178.780012 40.61,178.320012 40.91,177.750012 C41.0429243,177.535205 41.1535011,177.30735 41.24,177.070012 C41.4048862,176.474549 41.4048862,175.845475 41.24,175.250012 C41.1569651,174.759663 40.9504827,174.298519 40.64,173.910012 C40.485754,173.720634 40.2812773,173.57854 40.05,173.500012 C39.68,173.400012 39.4,173.700012 39.33,174.170012 C39.33,174.470012 39.25,174.760012 39.19,175.060012 C39.0557808,176.342388 38.4499187,177.529165 37.49,178.390012 C36.7555712,178.98499 36.2157922,179.785953 35.94,180.690012 C35.7794026,181.166336 35.5855937,181.630809 35.36,182.080012 C35.1407036,182.54273 34.8233654,182.952198 34.43,183.280012 C34.328662,183.380242 34.2054217,183.455556 34.07,183.500012 C33.87,183.500012 33.84,183.650012 33.84,183.830012 C33.84,186.130012 33.84,188.426679 33.84,190.720012 C33.85,190.760012 33.85,190.840012 33.85,190.910012 L33.81,190.910012 Z M32.27,191.390012 L32.27,183.180012 L30.19,183.180012 C29.79,183.180012 29.61,183.360012 29.61,183.760012 C29.61,186.120012 29.61,188.476679 29.61,190.830012 C29.61,191.220012 29.79,191.390012 30.18,191.400012 L32.18,191.400012 L32.27,191.390012 Z" id="Shape" opacity="0.5"></path>
            <path d="M285.300653,165.050008 L285.960653,165.050008 C287.900653,165.130008 289.850653,165.120008 291.770653,165.330008 C294.589988,165.798752 296.761542,168.07216 297.100653,170.910008 C297.137929,171.877062 296.917028,172.836601 296.460653,173.690008 C296.38173,173.875287 296.38173,174.084729 296.460653,174.270008 C297.380776,175.841457 297.270475,177.811115 296.180653,179.270008 C295.945201,179.56556 295.866987,179.956632 295.970653,180.320008 C296.328921,181.818707 295.924827,183.397669 294.890653,184.540008 C294.688783,184.737246 294.618693,185.033179 294.710653,185.300008 C295.031043,186.400851 294.791956,187.588814 294.070653,188.480008 C293.168535,189.712312 291.868644,190.59539 290.390653,190.980008 C287.554249,191.79698 284.622012,192.234125 281.670653,192.280008 C279.427167,192.209374 277.202154,191.849742 275.050653,191.210008 C273.830653,190.900008 272.580653,190.670008 271.350653,190.410008 C271.001284,190.3211 270.63045,190.402684 270.350653,190.630008 C269.739687,191.075323 268.996054,191.30088 268.240653,191.270008 C266.410653,191.270008 264.580653,191.270008 262.760653,191.270008 C261.751191,191.270183 260.784057,190.864446 260.076873,190.144097 C259.369689,189.423747 258.981859,188.449294 259.000653,187.440008 C259.000653,182.773341 259.000653,178.140008 259.000653,173.540008 C258.983936,172.501598 259.391841,171.501366 260.129969,170.77079 C260.868096,170.040214 261.87247,169.642615 262.910653,169.670008 C264.680653,169.670008 266.450653,169.670008 268.220653,169.670008 C268.62351,169.677401 269.02363,169.737924 269.410653,169.850008 C269.670653,169.920008 269.820653,169.850008 269.930653,169.660008 C270.310653,168.890008 270.710653,168.120008 271.050653,167.340008 C271.390653,166.560008 271.530653,166.010008 271.790653,165.340008 C272.521429,163.668807 273.642876,162.197551 275.060653,161.050008 C276.332378,159.951607 277.175286,158.439331 277.440653,156.780008 C277.600653,155.950008 277.690653,155.100008 277.890653,154.280008 C278.333799,152.357228 280.047471,150.996249 282.020653,151.000008 C282.264747,151.001185 282.507342,151.038248 282.740653,151.110008 C283.831681,151.421241 284.788433,152.086043 285.460653,153.000008 C287.416325,155.618627 287.968943,159.027679 286.940653,162.130008 C286.701755,162.745965 286.400169,163.335731 286.040653,163.890008 C285.840653,164.300008 285.600653,164.620008 285.300653,165.050008 Z M270.020653,187.370008 C270.090653,187.370008 270.120653,187.430008 270.150653,187.430008 C272.289127,187.559675 274.404281,187.945775 276.450653,188.580008 C278.188838,189.107392 279.994248,189.380224 281.810653,189.390008 C284.400593,189.320046 286.972581,188.937269 289.470653,188.250008 C290.315996,188.041396 291.072705,187.568453 291.630653,186.900008 C291.897399,186.640682 291.983934,186.24734 291.850653,185.900008 C291.455692,184.83043 291.717071,183.628864 292.520653,182.820008 C293.173813,182.192616 293.351169,181.217159 292.960653,180.400008 C292.679826,179.799169 292.728977,179.095941 293.090653,178.540008 C293.220631,178.349234 293.360836,178.165632 293.510653,177.990008 C293.89515,177.659599 294.130789,177.188575 294.164637,176.682746 C294.198484,176.176918 294.027701,175.678698 293.690653,175.300008 C293.208349,174.561351 293.166201,173.618764 293.580653,172.840008 C293.761237,172.497771 293.918268,172.143616 294.050653,171.780008 C294.147711,171.511322 294.18192,171.22397 294.150653,170.940008 C293.864463,169.567783 292.799656,168.491232 291.430653,168.190008 C290.50591,168.062196 289.574108,167.992061 288.640653,167.980008 C287.320653,167.980008 285.990653,167.980008 284.640653,167.980008 C284.043758,167.992649 283.448018,167.921968 282.870653,167.770008 C282.33515,167.660532 281.890955,167.288405 281.689352,166.780365 C281.487749,166.272325 281.555922,165.696878 281.870653,165.250008 C282.420653,164.250008 283.060653,163.250008 283.640653,162.250008 C283.895042,161.836113 284.106154,161.397133 284.270653,160.940008 C284.586783,159.798151 284.586783,158.591864 284.270653,157.450008 C284.111596,156.50964 283.715843,155.625218 283.120653,154.880008 C282.825855,154.515561 282.434171,154.241728 281.990653,154.090008 C281.270653,153.900008 280.740653,154.470008 280.600653,155.380008 C280.520653,155.950008 280.440653,156.520008 280.340653,157.080008 C280.008372,159.482533 278.814252,161.682415 276.980653,163.270008 C275.562177,164.406955 274.517182,165.943097 273.980653,167.680008 C273.673182,168.591492 273.302275,169.480332 272.870653,170.340008 C272.452452,171.230342 271.844985,172.018684 271.090653,172.650008 C270.8961,172.84132 270.659951,172.985063 270.400653,173.070008 C270.020653,173.160008 269.950653,173.350008 269.950653,173.700008 C269.950653,178.106674 269.950653,182.510008 269.950653,186.910008 C270.020653,187.090008 270.020653,187.240008 270.020653,187.370008 Z M267.090653,188.370008 L267.090653,172.640008 L263.000653,172.640008 C262.240653,172.640008 261.900653,172.980008 261.900653,173.750008 C261.900653,178.270008 261.900653,182.790008 261.900653,187.310008 C261.900653,188.060008 262.240653,188.390008 262.990653,188.400008 L266.750653,188.400008 C266.860653,188.410008 266.970653,188.390008 267.100653,188.370008 L267.090653,188.370008 Z" id="Shape" opacity="0.8"></path>
            <path d="M26.3306549,18.98 L27.0006549,18.98 C28.9406549,19.06 30.8906549,19.05 32.8106549,19.26 C35.6299908,19.7287439 37.801544,22.0021523 38.1406549,24.84 C38.1779316,25.8070539 37.9570306,26.7665928 37.5006549,27.62 C37.4217327,27.805279 37.4217327,28.014721 37.5006549,28.2 C38.4207782,29.7714496 38.3104773,31.7411074 37.2206549,33.2 C36.964865,33.5053162 36.8819704,33.9197889 37.0006549,34.3 C37.3589238,35.7986989 36.9548293,37.377661 35.9206549,38.52 C35.7187849,38.7172378 35.6486955,39.013171 35.7406549,39.28 C36.0610455,40.380843 35.8219586,41.5688061 35.1006549,42.46 C34.1985369,43.6923039 32.8986463,44.5753818 31.4206549,44.96 C28.584251,45.7769721 25.6520147,46.2141174 22.7006549,46.26 C20.4571691,46.1893667 18.232156,45.8297346 16.0806549,45.19 C14.8606549,44.88 13.6106549,44.65 12.3806549,44.39 C12.0312865,44.3010927 11.6604524,44.3826762 11.3806549,44.61 C10.7696895,45.0553151 10.0260562,45.2808721 9.27065486,45.25 C7.44065486,45.25 5.61065486,45.25 3.79065486,45.25 C2.77600105,45.2582724 1.80107591,44.8561023 1.08735966,44.1348535 C0.373643424,43.4136046 -0.0182693178,42.4345111 0.000654863284,41.42 C0.000654863284,36.7533333 0.000654863284,32.12 0.000654863284,27.52 C-0.00248281499,26.4884408 0.412801184,25.4996966 1.15158952,24.7797549 C1.89037785,24.0598132 2.88952105,23.6702125 3.92065486,23.7 C5.69065486,23.7 7.46065486,23.7 9.23065486,23.7 C9.63351238,23.7073937 10.0336328,23.7679161 10.4206549,23.88 C10.6806549,23.95 10.8306549,23.88 10.9406549,23.69 C11.3206549,22.92 11.7206549,22.15 12.0606549,21.37 C12.4006549,20.59 12.5406549,20.04 12.8006549,19.37 C13.5314317,17.6987995 14.6528785,16.2275435 16.0706549,15.08 C17.3423807,13.9815988 18.1852885,12.4693229 18.4506549,10.81 C18.6106549,9.98 18.7006549,9.13 18.9006549,8.31 C19.32928,6.386218 21.0297472,5.01340179 23.0006549,5 C23.2447492,5.0011773 23.4873439,5.03824038 23.7206549,5.11 C24.8116837,5.42123346 25.7684356,6.08603534 26.4406549,7 C28.4236828,9.60455097 29.0063719,13.0147763 28.0006549,16.13 C27.7617569,16.7459568 27.4601717,17.3357233 27.1006549,17.89 C26.8706549,18.23 26.6206549,18.55 26.3306549,18.98 Z M11.0506549,41.31 C11.1206549,41.31 11.1506549,41.37 11.1806549,41.37 C13.3191295,41.4996673 15.4342835,41.8857669 17.4806549,42.52 C19.2188399,43.0473841 21.0242503,43.3202166 22.8406549,43.33 C25.4305955,43.260038 28.0025838,42.8772616 30.5006549,42.19 C31.3459981,41.9813884 32.1027076,41.508445 32.6606549,40.84 C32.9274015,40.5806741 33.0139367,40.1873322 32.8806549,39.84 C32.485694,38.7704219 32.7470735,37.5688563 33.5506549,36.76 C34.2038157,36.1326085 34.3811716,35.1571511 33.9906549,34.34 C33.7098287,33.7391608 33.7589791,33.0359332 34.1206549,32.48 C34.2506333,32.2892263 34.3908382,32.1056246 34.5406549,31.93 C34.925152,31.5995916 35.1607917,31.1285669 35.1946389,30.6227387 C35.2284862,30.1169105 35.057703,29.6186903 34.7206549,29.24 C34.2383512,28.5013429 34.196203,27.5587559 34.6106549,26.78 C34.7912389,26.4377633 34.94827,26.0836081 35.0806549,25.72 C35.1777138,25.4513143 35.2119223,25.1639627 35.1806549,24.88 C34.8944649,23.5077751 33.8296581,22.4312241 32.4606549,22.13 C31.5359119,22.0021887 30.6041108,21.9320531 29.6706549,21.92 C28.3506549,21.92 27.0206549,21.92 25.6706549,21.92 C25.0737605,21.9326411 24.4780203,21.8619601 23.9006549,21.71 C23.3651519,21.6005241 22.9209576,21.2283973 22.7193544,20.7203573 C22.5177513,20.2123174 22.5859241,19.6368702 22.9006549,19.19 C23.4506549,18.19 24.0906549,17.19 24.6706549,16.19 C24.9250441,15.7761048 25.1361565,15.3371251 25.3006549,14.88 C25.6167854,13.7381434 25.6167854,12.5318566 25.3006549,11.39 C25.1415982,10.4496321 24.7458454,9.56521068 24.1506549,8.82 C23.855857,8.45555296 23.4641729,8.18172072 23.0206549,8.03 C22.3006549,7.84 21.7706549,8.41 21.6306549,9.32 C21.5506549,9.89 21.4706549,10.46 21.3706549,11.02 C21.0380642,13.4275203 19.8400841,15.6315194 18.0006549,17.22 C16.5821789,18.3569472 15.5371843,19.8930892 15.0006549,21.63 C14.7289193,22.5386184 14.3947919,23.4273972 14.0006549,24.29 C13.5824545,25.1803347 12.9749877,25.9686764 12.2206549,26.6 C12.0261023,26.7913127 11.7899533,26.9350555 11.5306549,27.02 C11.1506549,27.11 11.0806549,27.3 11.0806549,27.65 C11.0806549,32.0566667 11.0806549,36.46 11.0806549,40.86 C11.0506549,41.02 11.0506549,41.18 11.0506549,41.31 Z M8.12065486,42.31 L8.12065486,26.58 L4.00065486,26.58 C3.24065486,26.58 2.90065486,26.92 2.90065486,27.69 C2.90065486,32.21 2.90065486,36.73 2.90065486,41.25 C2.90065486,42 3.24065486,42.33 3.99065486,42.34 L7.78065486,42.34 C7.89065486,42.34 8.00065486,42.32 8.13065486,42.31 L8.12065486,42.31 Z" id="Shape" opacity="0.9"></path>
            <path d="M266.330655,13.98 L267.000655,13.98 C268.940655,14.06 270.890655,14.05 272.810655,14.26 C275.629991,14.7287439 277.801544,17.0021523 278.140655,19.84 C278.177932,20.8070539 277.957031,21.7665928 277.500655,22.62 C277.421733,22.805279 277.421733,23.014721 277.500655,23.2 C278.420778,24.7714496 278.310477,26.7411074 277.220655,28.2 C276.964865,28.5053162 276.88197,28.9197889 277.000655,29.3 C277.358924,30.7986989 276.954829,32.377661 275.920655,33.52 C275.718785,33.7172378 275.648695,34.013171 275.740655,34.28 C276.061045,35.380843 275.821959,36.5688061 275.100655,37.46 C274.198537,38.6923039 272.898646,39.5753818 271.420655,39.96 C268.584251,40.7769721 265.652015,41.2141174 262.700655,41.26 C260.457169,41.1893667 258.232156,40.8297346 256.080655,40.19 C254.860655,39.88 253.610655,39.65 252.380655,39.39 C252.031287,39.3010927 251.660452,39.3826762 251.380655,39.61 C250.769689,40.0553151 250.026056,40.2808721 249.270655,40.25 C247.440655,40.25 245.610655,40.25 243.790655,40.25 C242.776001,40.2582724 241.801076,39.8561023 241.08736,39.1348535 C240.373643,38.4136046 239.981731,37.4345111 240.000655,36.42 C240.000655,31.7533333 240.000655,27.12 240.000655,22.52 C239.997517,21.4884408 240.412801,20.4996966 241.15159,19.7797549 C241.890378,19.0598132 242.889521,18.6702125 243.920655,18.7 C245.690655,18.7 247.460655,18.7 249.230655,18.7 C249.633512,18.7073937 250.033633,18.7679161 250.420655,18.88 C250.680655,18.95 250.830655,18.88 250.940655,18.69 C251.320655,17.92 251.720655,17.15 252.060655,16.37 C252.400655,15.59 252.540655,15.04 252.800655,14.37 C253.531432,12.6987995 254.652879,11.2275435 256.070655,10.08 C257.342381,8.98159879 258.185289,7.46932288 258.450655,5.81 C258.610655,4.98 258.700655,4.13 258.900655,3.31 C259.32928,1.386218 261.029747,0.013401791 263.000655,0 C263.244749,0.00117729976 263.487344,0.0382403821 263.720655,0.11 C264.811684,0.421233464 265.768436,1.08603534 266.440655,2 C268.423683,4.60455097 269.006372,8.01477628 268.000655,11.13 C267.761757,11.7459568 267.460172,12.3357233 267.100655,12.89 C266.870655,13.23 266.620655,13.55 266.330655,13.98 Z M251.050655,36.31 C251.120655,36.31 251.150655,36.37 251.180655,36.37 C253.31913,36.4996673 255.434283,36.8857669 257.480655,37.52 C259.21884,38.0473841 261.02425,38.3202166 262.840655,38.33 C265.430596,38.260038 268.002584,37.8772616 270.500655,37.19 C271.345998,36.9813884 272.102708,36.508445 272.660655,35.84 C272.927401,35.5806741 273.013937,35.1873322 272.880655,34.84 C272.485694,33.7704219 272.747074,32.5688563 273.550655,31.76 C274.203816,31.1326085 274.381172,30.1571511 273.990655,29.34 C273.709829,28.7391608 273.758979,28.0359332 274.120655,27.48 C274.250633,27.2892263 274.390838,27.1056246 274.540655,26.93 C274.925152,26.5995916 275.160792,26.1285669 275.194639,25.6227387 C275.228486,25.1169105 275.057703,24.6186903 274.720655,24.24 C274.238351,23.5013429 274.196203,22.5587559 274.610655,21.78 C274.791239,21.4377633 274.94827,21.0836081 275.080655,20.72 C275.177714,20.4513143 275.211922,20.1639627 275.180655,19.88 C274.894465,18.5077751 273.829658,17.4312241 272.460655,17.13 C271.535912,17.0021887 270.604111,16.9320531 269.670655,16.92 C268.350655,16.92 267.020655,16.92 265.670655,16.92 C265.07376,16.9326411 264.47802,16.8619601 263.900655,16.71 C263.365152,16.6005241 262.920958,16.2283973 262.719354,15.7203573 C262.517751,15.2123174 262.585924,14.6368702 262.900655,14.19 C263.450655,13.19 264.090655,12.19 264.670655,11.19 C264.925044,10.7761048 265.136156,10.3371251 265.300655,9.88 C265.616785,8.73814342 265.616785,7.53185658 265.300655,6.39 C265.141598,5.44963213 264.745845,4.56521068 264.150655,3.82 C263.855857,3.45555296 263.464173,3.18172072 263.020655,3.03 C262.300655,2.84 261.770655,3.41 261.630655,4.32 C261.550655,4.89 261.470655,5.46 261.370655,6.02 C261.038064,8.42752031 259.840084,10.6315194 258.000655,12.22 C256.582179,13.3569472 255.537184,14.8930892 255.000655,16.63 C254.728919,17.5386184 254.394792,18.4273972 254.000655,19.29 C253.582454,20.1803347 252.974988,20.9686764 252.220655,21.6 C252.026102,21.7913127 251.789953,21.9350555 251.530655,22.02 C251.150655,22.11 251.080655,22.3 251.080655,22.65 C251.080655,27.0566667 251.080655,31.46 251.080655,35.86 C251.050655,36.02 251.050655,36.18 251.050655,36.31 Z M248.120655,37.31 L248.120655,21.58 L244.000655,21.58 C243.240655,21.58 242.900655,21.92 242.900655,22.69 C242.900655,27.21 242.900655,31.73 242.900655,36.25 C242.900655,37 243.240655,37.33 243.990655,37.34 L247.780655,37.34 C247.890655,37.34 248.000655,37.32 248.130655,37.31 L248.120655,37.31 Z" id="Shape-Copy" opacity="0.4"></path>
            <path d="M175,58.34 C176.22,58.34 177,58.34 177.73,58.34 C185.79,58.69 193.89,58.65 201.89,59.5 C213,60.7 223.07,71.58 224,82.69 C224.35,86.81 223,90.57 221.33,94.25 C221.002663,95.0199881 221.002663,95.8900119 221.33,96.66 C225.16,103.9 224.84,110.91 220.17,117.66 C219.184963,118.887585 218.856876,120.516836 219.29,122.03 C220.84,128.6 219.04,134.45 214.79,139.57 C213.937616,140.391208 213.647753,141.636833 214.05,142.75 C215.48,147.59 214.27,151.98 211.38,155.95 C207.635173,161.069649 202.237873,164.739672 196.1,166.34 C184.315124,169.733571 172.132271,171.549398 159.87,171.74 C150.46,171.82 141.4,169.6 132.35,167.31 C127.3,166 122.13,165 117,164 C115.545918,163.622199 113.998824,163.956104 112.83,164.9 C110.294007,166.751118 107.207361,167.691911 104.07,167.57 C96.48,167.57 88.88,167.65 81.29,167.52 C77.1017749,167.512545 73.0915254,165.825585 70.1573788,162.836929 C67.2232322,159.848272 65.610368,155.807653 65.68,151.62 C65.5733333,132.366667 65.5733333,113.113333 65.68,93.86 C65.68,84.63 72.68,77.86 81.91,77.79 C89.26,77.79 96.62,77.74 103.98,77.79 C105.648702,77.8190712 107.3063,78.067879 108.91,78.53 C110,78.84 110.62,78.65 111.08,77.72 C112.66,74.51 114.31,71.34 115.75,68.06 C116.92,65.38 117.75,62.55 118.84,59.85 C121.84,52.72 126.68,46.94 132.43,42.04 C138.18,37.14 140.96,31.27 142.33,24.28 C143.01,20.82 143.33,17.28 144.19,13.88 C146.03773,5.88785024 153.167075,0.235832032 161.37,0.26 C162.386685,0.261695904 163.397561,0.413327365 164.37,0.71 C168.904606,1.99784876 172.882924,4.75558636 175.68,8.55 C183.81,20.17 186.14,32.87 181.84,46.55 C181.03,49.12 179.44,51.46 178.09,53.84 C177.23,55.22 176.2,56.55 175,58.34 Z M111.53,151.11 C111.84,151.26 111.94,151.36 112.05,151.36 C121.05,151.63 129.64,153.78 138.24,156.15 C145.51,158.15 152.89,159.66 160.49,159.52 C171.249299,159.224415 181.933438,157.629517 192.31,154.77 C195.832762,153.90485 198.986428,151.935561 201.31,149.15 C202.359775,148.103969 202.713935,146.547225 202.22,145.15 C200.594615,140.72058 201.678234,135.750747 205,132.4 C207.75,129.4 208.43,126.11 206.82,122.33 C205.65758,119.836703 205.857748,116.921047 207.35,114.61 C207.88856,113.81925 208.469404,113.058143 209.09,112.33 C212.51,108 212.67,105.83 209.82,101.14 C207.813031,98.0635583 207.644323,94.1372586 209.38,90.9 C210.146711,89.4774564 210.814946,88.0039984 211.38,86.49 C211.785113,85.3741082 211.928799,84.1801449 211.8,83 C210.95,77.73 205.8,72.4 200.5,71.59 C196.652037,71.055783 192.774523,70.7618801 188.89,70.71 C183.4,70.56 177.89,70.71 172.4,70.62 C169.914338,70.6713588 167.43369,70.375162 165.03,69.74 C159.91,68.12 158.25,64 160.76,59.27 C163.03,55.01 165.71,50.97 168.12,46.78 C169.178149,45.0581134 170.056116,43.2318086 170.74,41.33 C172.3,36.54 171.97,31.66 170.9,26.81 C170.04,22.92 168.77,19.15 166.11,16.13 C164.881996,14.6197235 163.25299,13.486351 161.41,12.86 C158.41,12.09 156.21,14.44 155.65,18.22 C155.3,20.58 154.98,22.95 154.56,25.3 C152.75,35.41 148.74,44.22 140.61,51.02 C134.755653,55.7578089 130.451366,62.1376252 128.25,69.34 C126.973383,73.1297549 125.432948,76.8254609 123.64,80.4 C121.905665,84.0947016 119.387278,87.3672399 116.26,89.99 C115.458931,90.7915388 114.483595,91.397274 113.41,91.76 C111.81,92.12 111.56,92.94 111.56,94.38 C111.6,112.68 111.6,130.976667 111.56,149.27 C111.51,149.92 111.51,150.56 111.51,151.11 L111.53,151.11 Z M99.37,155.26 L99.37,89.89 C93.61,89.89 87.99,89.89 82.37,89.89 C79.21,89.89 77.79,91.32 77.79,94.52 C77.79,113.293333 77.79,132.07 77.79,150.85 C77.79,153.95 79.18,155.34 82.3,155.36 C87.5,155.36 92.7,155.36 97.91,155.36 C98.37,155.39 98.83,155.31 99.35,155.26 L99.37,155.26 Z" id="Shape"></path>
        </g>
    </g>
</svg>