<svg xmlns="http://www.w3.org/2000/svg" viewBox="0 0 29.4 29.4"><defs><style>.cls-1{fill:#9aa4b7;}.cls-2{fill:#fff;}</style></defs><title>11Asset 6twitter-icon</title><g id="Layer_2" data-name="Layer 2"><g id="Layer_1-2" data-name="Layer 1"><circle class="cls-1" cx="14.7" cy="14.7" r="14.7"/><path class="cls-2" d="M21.2,9.33a3.34,3.34,0,0,1-1.1,1.49,7,7,0,0,0,1.44-.33l-.07.12a6,6,0,0,1-1.15,1.18.28.28,0,0,0-.12.23,9.33,9.33,0,0,1-.2,1.9A8.13,8.13,0,0,1,16.59,19a7.13,7.13,0,0,1-3.26,1.21A8.52,8.52,0,0,1,9.75,20,9.25,9.25,0,0,1,8,19.19a.53.53,0,0,1-.14-.12,5.92,5.92,0,0,0,4.07-1.18,2.93,2.93,0,0,1-2.61-2,4.33,4.33,0,0,0,1.18-.05,2.88,2.88,0,0,1-2.16-2.8,3.53,3.53,0,0,0,1.22.32,3,3,0,0,1-.85-3.77l.68.67a7.88,7.88,0,0,0,5.06,2.27h.07c0-.24,0-.47,0-.7a2.79,2.79,0,0,1,2.27-2.7,2.71,2.71,0,0,1,2.42.67.41.41,0,0,0,.46.11l1.2-.46Z"/></g></g></svg>