<svg xmlns="http://www.w3.org/2000/svg" viewBox="0 0 601.91 382.56"><defs><style>.cls-1{fill:#c17b0c;}</style></defs><title>11Asset 4nodes-right-quizw</title><g id="Layer_2" data-name="Layer 2"><g id="Layer_1-2" data-name="Layer 1"><path class="cls-1" d="M171.83,92.1A45.92,45.92,0,1,1,107,96.15a46,46,0,0,1,64.81-4.05M174.59,89a50.09,50.09,0,1,0,4.42,70.7A50.09,50.09,0,0,0,174.59,89Z"/><rect class="cls-1" x="57.19" y="-5.49" width="4.17" height="119.02" transform="translate(-20.45 62.73) rotate(-48.58)"/><rect class="cls-1" x="220.98" y="139.04" width="4.17" height="119.02" transform="translate(-73.4 234.45) rotate(-48.58)"/><circle class="cls-1" cx="267.69" cy="237.92" r="14.65" transform="translate(-87.82 281.24) rotate(-48.58)"/><circle class="cls-1" cx="14.65" cy="14.65" r="14.65" transform="translate(-6.03 15.94) rotate(-48.58)"/><path class="cls-1" d="M375.37,248.87a55.07,55.07,0,1,1-34.93,69.61,55.13,55.13,0,0,1,34.93-69.61m-1.57-4.75a60.07,60.07,0,1,0,75.93,38.1,60.07,60.07,0,0,0-75.93-38.1Z"/><rect class="cls-1" x="196.58" y="340.02" width="142.74" height="5" transform="translate(-94.22 101.79) rotate(-18.35)"/><rect class="cls-1" x="445.23" y="257.53" width="142.74" height="5" transform="translate(-55.6 175.89) rotate(-18.35)"/><circle class="cls-1" cx="584.34" cy="237.56" r="17.57" transform="translate(-45.08 196.07) rotate(-18.35)"/><circle class="cls-1" cx="200.21" cy="364.99" r="17.57" transform="translate(-104.74 81.6) rotate(-18.35)"/></g></g></svg>