<?xml version="1.0" encoding="UTF-8"?>
<svg width="32px" height="32px" viewBox="0 0 32 32" version="1.1" xmlns="http://www.w3.org/2000/svg" xmlns:xlink="http://www.w3.org/1999/xlink">
    <!-- Generator: Sketch 50.2 (55047) - http://www.bohemiancoding.com/sketch -->
    <title>goodbit-icon</title>
    <desc>Created with Sketch.</desc>
    <defs></defs>
    <g id="Page-1" stroke="none" stroke-width="1" fill="none" fill-rule="evenodd">
        <g id="goodbit-icon" fill="#565656" fill-rule="nonzero">
            <path d="M15.91,0 C7.12314963,-5.38039409e-16 1.07607882e-15,7.12314963 0,15.91 C-1.07607882e-15,24.6968504 7.12314963,31.82 15.91,31.82 C24.6968504,31.82 31.82,24.6968504 31.82,15.91 C31.82,11.6904056 30.1437727,7.64363489 27.1600689,4.65993111 C24.1763651,1.67622733 20.1295944,2.58375636e-16 15.91,0 Z M26.7,20.47 C24.8577703,24.8197717 20.5824092,27.636701 15.8586642,27.6130871 C11.1349193,27.5894732 6.88793468,24.7299408 5.08928477,20.3619685 C3.29063486,15.9939961 4.29258473,10.97305 7.63,7.63 C8.05335972,7.20664025 8.67041997,7.04129945 9.24874012,7.19625986 C9.82706027,7.35122027 10.2787797,7.80293973 10.4337401,8.38125988 C10.5887006,8.95958003 10.4233597,9.57664028 10,10 C8.03455496,11.9692587 7.17611561,14.7864364 7.7094177,17.5171034 C8.24271979,20.2477705 10.0980448,22.5349473 12.66,23.62 C15.7956733,24.9493025 19.4244329,24.2409623 21.83,21.83 C24.0101251,19.6543904 24.817418,16.4562645 23.9310524,13.5065902 C23.0446868,10.5569159 20.6082474,8.33351895 17.59,7.72 L17.59,15.91 C17.59,16.835077 16.840077,17.585 15.915,17.585 C14.989923,17.585 14.24,16.835077 14.24,15.91 L14.24,5.91 C14.2292232,5.46019917 14.4004,5.02507911 14.7147615,4.70318808 C15.0291229,4.38129706 15.4600701,4.19987092 15.91,4.2 C19.8368345,4.19854511 23.5029878,6.16543488 25.6733065,9.43800999 C27.8436252,12.7105851 28.229152,16.8531332 26.7,20.47 Z" id="Shape"></path>
        </g>
    </g>
</svg>