<svg xmlns="http://www.w3.org/2000/svg" viewBox="0 0 1714.94 515.72"><defs><style>.cls-1{fill:#c17b0c;}</style></defs><title>11Asset 2nodes-main-quizw</title><g id="Layer_2" data-name="Layer 2"><g id="Layer_1-2" data-name="Layer 1"><path class="cls-1" d="M149,141.86A55.07,55.07,0,1,1,137,218.79,55.13,55.13,0,0,1,149,141.86m-2.95-4A60.07,60.07,0,1,0,230,151a60.07,60.07,0,0,0-83.92-13.16Z"/><rect class="cls-1" x="3.87" y="261.28" width="142.74" height="5" transform="matrix(0.81, -0.59, 0.59, 0.81, -140.93, 94.94)"/><rect class="cls-1" x="215.58" y="106.97" width="142.74" height="5" transform="translate(-9.42 190.02) rotate(-36.09)"/><circle class="cls-1" cx="344.62" cy="67.43" r="17.57" transform="translate(26.41 215.93) rotate(-36.09)"/><circle class="cls-1" cx="17.57" cy="305.82" r="17.57" transform="translate(-176.76 69.03) rotate(-36.09)"/><path class="cls-1" d="M468.48,302.56a55.07,55.07,0,1,1-76.94-12.07,55.13,55.13,0,0,1,76.94,12.07m4-2.95a60.07,60.07,0,1,0-13.16,83.92,60.07,60.07,0,0,0,13.16-83.92Z"/><rect class="cls-1" x="344.06" y="157.4" width="5" height="142.74" transform="translate(-68.25 248.03) rotate(-36.09)"/><rect class="cls-1" x="498.36" y="369.11" width="5" height="142.74" transform="translate(-163.34 379.54) rotate(-36.09)"/><circle class="cls-1" cx="542.9" cy="498.15" r="17.57" transform="translate(-189.25 415.37) rotate(-36.09)"/><circle class="cls-1" cx="304.52" cy="171.1" r="17.57" transform="translate(-42.35 212.2) rotate(-36.09)"/><path class="cls-1" d="M1284.86,92.1A45.92,45.92,0,1,1,1220,96.15a46,46,0,0,1,64.81-4.05m2.76-3.13a50.09,50.09,0,1,0,4.42,70.7,50.09,50.09,0,0,0-4.42-70.7Z"/><rect class="cls-1" x="1170.21" y="-5.49" width="4.17" height="119.02" transform="translate(356.18 897.32) rotate(-48.58)"/><rect class="cls-1" x="1334.01" y="139.04" width="4.17" height="119.02" transform="translate(303.23 1069.04) rotate(-48.58)"/><circle class="cls-1" cx="1380.72" cy="237.92" r="14.65" transform="translate(288.81 1115.83) rotate(-48.58)"/><circle class="cls-1" cx="1127.67" cy="14.65" r="14.65" transform="translate(370.6 850.53) rotate(-48.58)"/><path class="cls-1" d="M1488.39,248.87a55.07,55.07,0,1,1-34.93,69.61,55.13,55.13,0,0,1,34.93-69.61m-1.57-4.75a60.07,60.07,0,1,0,75.93,38.1,60.07,60.07,0,0,0-75.93-38.1Z"/><rect class="cls-1" x="1309.61" y="340.02" width="142.74" height="5" transform="translate(-37.61 452.24) rotate(-18.35)"/><rect class="cls-1" x="1558.26" y="257.53" width="142.74" height="5" transform="translate(1.01 526.34) rotate(-18.35)"/><circle class="cls-1" cx="1697.37" cy="237.56" r="17.57" transform="translate(11.53 546.52) rotate(-18.35)"/><circle class="cls-1" cx="1313.24" cy="364.99" r="17.57" transform="translate(-48.13 432.06) rotate(-18.35)"/></g></g></svg>