<svg xmlns="http://www.w3.org/2000/svg" viewBox="0 0 439.85 305.33"><defs><style>.cls-1{fill:#c17b0c;}</style></defs><title>11Asset 1nodes-main-top</title><g id="Layer_2" data-name="Layer 2"><g id="Layer_1-2" data-name="Layer 1"><path class="cls-1" d="M220.38,115.25a55.07,55.07,0,1,1-55.07,55.07,55.13,55.13,0,0,1,55.07-55.07m0-5a60.07,60.07,0,1,0,60.07,60.07,60.07,60.07,0,0,0-60.07-60.07Z"/><rect class="cls-1" x="17.57" y="167.82" width="142.74" height="5"/><rect class="cls-1" x="279.54" y="167.82" width="142.74" height="5"/><circle class="cls-1" cx="422.28" cy="170.32" r="17.57"/><circle class="cls-1" cx="17.57" cy="170.32" r="17.57"/><path class="cls-1" d="M112.73,49.87a24.72,24.72,0,1,1-1.95,34.9,24.75,24.75,0,0,1,1.95-34.9m-1.5-1.67a27,27,0,1,0,38.07,2.13,27,27,0,0,0-38.07-2.13Z"/><rect class="cls-1" x="53.19" y="106.51" width="64.08" height="2.24" transform="translate(-50.05 84.21) rotate(-41.8)"/><rect class="cls-1" x="140.85" y="28.12" width="64.08" height="2.24" transform="translate(24.52 122.69) rotate(-41.8)"/><circle class="cls-1" cx="196.77" cy="7.89" r="7.89" transform="translate(44.83 133.17) rotate(-41.8)"/><circle class="cls-1" cx="61.35" cy="128.98" r="7.89" transform="translate(-70.36 73.73) rotate(-41.8)"/><path class="cls-1" d="M371.13,255.25a16.11,16.11,0,1,1-21.86,6.42,16.13,16.13,0,0,1,21.86-6.42m.7-1.28a17.57,17.57,0,1,0,7,23.85,17.57,17.57,0,0,0-7-23.85Z"/><rect class="cls-1" x="328.92" y="230.08" width="1.46" height="41.76" transform="translate(-48.62 419.96) rotate(-61.36)"/><rect class="cls-1" x="396.19" y="266.82" width="1.46" height="41.76" transform="translate(-45.84 498.12) rotate(-61.36)"/><circle class="cls-1" cx="415.25" cy="297.71" r="5.14" transform="translate(-45.09 519.42) rotate(-61.36)"/><circle class="cls-1" cx="311.33" cy="240.95" r="5.14" transform="translate(-49.37 398.67) rotate(-61.36)"/><path class="cls-1" d="M314.12,67A11.87,11.87,0,1,1,324.4,80.33,11.89,11.89,0,0,1,314.12,67m-1.07-.14A13,13,0,1,0,327.54,55.7a13,13,0,0,0-14.48,11.21Z"/><rect class="cls-1" x="306.93" y="96.12" width="30.78" height="1.08" transform="translate(185.7 404.18) rotate(-82.74)"/><rect class="cls-1" x="314.07" y="40.09" width="30.78" height="1.08" transform="matrix(0.13, -0.99, 0.99, 0.13, 247.52, 362.31)"/><circle class="cls-1" cx="331.4" cy="25.37" r="3.79" transform="translate(264.36 350.91) rotate(-82.74)"/><circle class="cls-1" cx="320.38" cy="111.93" r="3.79" transform="translate(168.86 415.59) rotate(-82.74)"/><path class="cls-1" d="M107.15,259.43a11.87,11.87,0,1,1,2.38,16.62,11.89,11.89,0,0,1-2.38-16.62m-.86-.65a13,13,0,1,0,18.13-2.6,13,13,0,0,0-18.13,2.6Z"/><rect class="cls-1" x="84.27" y="288.69" width="30.78" height="1.08" transform="translate(-191.55 195.49) rotate(-53.14)"/><rect class="cls-1" x="118.15" y="243.5" width="30.78" height="1.08" transform="translate(-141.82 204.51) rotate(-53.14)"/><circle class="cls-1" cx="142.77" cy="231.72" r="3.79" transform="translate(-128.28 206.97) rotate(-53.14)"/><circle class="cls-1" cx="90.43" cy="301.54" r="3.79" transform="translate(-205.09 193.04) rotate(-53.14)"/></g></g></svg>