<svg xmlns="http://www.w3.org/2000/svg" viewBox="0 0 560.47 465.86"><defs><style>.cls-1{fill:#c17b0c;}</style></defs><title>11Asset 3nodes-left-quizw</title><g id="Layer_2" data-name="Layer 2"><g id="Layer_1-2" data-name="Layer 1"><path class="cls-1" d="M149,92A55.07,55.07,0,1,1,137,168.93,55.13,55.13,0,0,1,149,92m-2.95-4A60.07,60.07,0,1,0,230,101.11,60.07,60.07,0,0,0,146.08,88Z"/><rect class="cls-1" x="3.87" y="211.42" width="142.74" height="5" transform="matrix(0.81, -0.59, 0.59, 0.81, -111.56, 85.37)"/><rect class="cls-1" x="215.58" y="57.11" width="142.74" height="5" transform="translate(19.95 180.46) rotate(-36.09)"/><circle class="cls-1" cx="344.62" cy="17.57" r="17.57" transform="translate(55.78 206.36) rotate(-36.09)"/><circle class="cls-1" cx="17.57" cy="255.95" r="17.57" transform="translate(-147.39 59.46) rotate(-36.09)"/><path class="cls-1" d="M468.48,252.69a55.07,55.07,0,1,1-76.94-12.07,55.13,55.13,0,0,1,76.94,12.07m4-2.95a60.07,60.07,0,1,0-13.16,83.92,60.07,60.07,0,0,0,13.16-83.92Z"/><rect class="cls-1" x="344.06" y="107.54" width="5" height="142.74" transform="translate(-38.88 238.46) rotate(-36.09)"/><rect class="cls-1" x="498.36" y="319.24" width="5" height="142.74" transform="translate(-133.97 369.97) rotate(-36.09)"/><circle class="cls-1" cx="542.9" cy="448.29" r="17.57" transform="translate(-159.88 405.8) rotate(-36.09)"/><circle class="cls-1" cx="304.52" cy="121.23" r="17.57" transform="translate(-12.98 202.63) rotate(-36.09)"/></g></g></svg>