<?xml version="1.0" encoding="UTF-8"?>
<svg width="52px" height="52px" viewBox="0 0 52 52" version="1.1" xmlns="http://www.w3.org/2000/svg" xmlns:xlink="http://www.w3.org/1999/xlink">
    <!-- Generator: Sketch 50.2 (55047) - http://www.bohemiancoding.com/sketch -->
    <title>find-wallet-icon</title>
    <desc>Created with Sketch.</desc>
    <defs>
        <linearGradient x1="25%" y1="6.69230769%" x2="75%" y2="93.3076923%" id="linearGradient-1">
            <stop stop-color="#5086FF" offset="0%"></stop>
            <stop stop-color="#7AAFFF" offset="100%"></stop>
        </linearGradient>
        <linearGradient x1="50.0155135%" y1="-7.08841516e-15%" x2="50.0155135%" y2="99.9600958%" id="linearGradient-2">
            <stop stop-color="#F4E8F0" offset="0%"></stop>
            <stop stop-color="#DFEFF8" offset="100%"></stop>
        </linearGradient>
        <linearGradient x1="2.40535794e-14%" y1="50.0635169%" x2="99.7291808%" y2="50.0635169%" id="linearGradient-3">
            <stop stop-color="#60D3BC" offset="0%"></stop>
            <stop stop-color="#A7E9AD" offset="100%"></stop>
        </linearGradient>
    </defs>
    <g id="Page-1" stroke="none" stroke-width="1" fill="none" fill-rule="evenodd">
        <g id="find-wallet-icon" fill-rule="nonzero">
            <circle id="Oval" fill="url(#linearGradient-1)" cx="26" cy="26" r="26"></circle>
            <rect id="Rectangle-path" fill="url(#linearGradient-2)" x="9.02" y="13.43" width="32.23" height="25.06" rx="3.6"></rect>
            <path d="M35.87,36.78 L35.87,36.6 L36.94,36.6 L36.94,36.78 L35.87,36.78 Z M34.8,36.78 L33.73,36.78 L33.73,36.6 L34.8,36.6 L34.8,36.78 Z M32.66,36.78 L31.59,36.78 L31.59,36.6 L32.66,36.6 L32.66,36.78 Z M30.52,36.78 L29.45,36.78 L29.45,36.6 L30.52,36.6 L30.52,36.78 Z M28.38,36.78 L27.31,36.78 L27.31,36.6 L28.38,36.6 L28.38,36.78 Z M26.24,36.78 L25.17,36.78 L25.17,36.6 L26.24,36.6 L26.24,36.78 Z M24.1,36.78 L23,36.78 L23,36.6 L24.1,36.6 L24.1,36.78 Z M21.96,36.78 L20.89,36.78 L20.89,36.6 L22,36.6 L21.96,36.78 Z M19.82,36.78 L18.75,36.78 L18.75,36.6 L19.82,36.6 L19.82,36.78 Z M17.68,36.78 L16.61,36.78 L16.61,36.6 L17.68,36.6 L17.68,36.78 Z M15.54,36.78 L14.47,36.78 L14.47,36.6 L15.54,36.6 L15.54,36.78 Z M13.4,36.78 L13.33,36.78 C12.9877698,36.7792128 12.6486708,36.714784 12.33,36.59 L12.4,36.42 C12.6993648,36.5381007 13.0181827,36.5991509 13.34,36.6 L13.41,36.6 L13.4,36.78 Z M38,36.56 L38,36.39 C38.3190157,36.2549898 38.607964,36.0578251 38.85,35.81 L38.98,35.94 C38.7003631,36.2130239 38.3664854,36.4242527 38,36.56 Z M11.4,36 C11.1324277,35.7447183 10.9182769,35.4387885 10.77,35.1 L10.93,35.03 C11.0691236,35.3462947 11.2696682,35.6318158 11.52,35.87 L11.4,36 Z M39.54,35 L39.37,34.93 C39.4956934,34.6118937 39.5568797,34.2719695 39.55,33.93 L39.55,33.88 L39.73,33.88 L39.73,34 C39.7260291,34.3428628 39.6582049,34.681984 39.53,35 L39.54,35 Z M10.54,34 L10.54,33 L10.72,33 L10.72,34 L10.54,34 Z M39.73,32.85 L39.55,32.85 L39.55,31.8 L39.73,31.8 L39.73,32.85 Z M10.73,31.85 L10.55,31.85 L10.55,30.81 L10.73,30.81 L10.73,31.85 Z M39.73,30.7 L39.55,30.7 L39.55,29.66 L39.73,29.66 L39.73,30.7 Z M10.73,29.7 L10.55,29.7 L10.55,28.67 L10.73,28.67 L10.73,29.7 Z M39.73,28.55 L39.55,28.55 L39.55,27.52 L39.73,27.52 L39.73,28.55 Z M10.73,27.55 L10.55,27.55 L10.55,26.53 L10.73,26.53 L10.73,27.55 Z M39.73,26.4 L39.55,26.4 L39.55,25.38 L39.73,25.38 L39.73,26.4 Z M10.73,25.4 L10.55,25.4 L10.55,24.39 L10.73,24.39 L10.73,25.4 Z M39.73,24.25 L39.55,24.25 L39.55,23.24 L39.73,23.24 L39.73,24.25 Z M10.73,23.25 L10.55,23.25 L10.55,22.25 L10.73,22.25 L10.73,23.25 Z M39.73,22.1 L39.55,22.1 L39.55,21.1 L39.73,21.1 L39.73,22.1 Z M10.73,21.1 L10.55,21.1 L10.55,20.11 L10.73,20.11 L10.73,21.1 Z M39.73,19.95 L39.55,19.95 L39.55,19 L39.73,19 L39.73,19.95 Z M10.73,18.95 L10.55,18.95 L10.55,18 L10.73,18 L10.73,18.95 Z M39.56,17.8 C39.5544828,17.4552846 39.4796649,17.1152029 39.34,16.8 L39.5,16.73 C39.647582,17.0676544 39.7257973,17.4315258 39.73,17.8 L39.56,17.8 Z M10.91,17 L10.74,16.93 C10.8770639,16.5866061 11.0810154,16.2738805 11.34,16.01 L11.47,16.14 C11.2282586,16.3867813 11.037913,16.6790978 10.91,17 Z M38.75,16 C38.4993827,15.7607355 38.2036328,15.5737672 37.88,15.45 L37.95,15.28 C38.2961236,15.4129184 38.6122826,15.6134924 38.88,15.87 L38.75,16 Z M12.32,15.48 L12.25,15.31 C12.5915471,15.1648002 12.9588701,15.0899751 13.33,15.09 L13.33,15.27 C12.979849,15.2838775 12.636195,15.3689403 12.32,15.52 L12.32,15.48 Z M36.87,15.27 L35.8,15.27 L35.8,15.09 L36.87,15.09 L36.87,15.27 Z M34.73,15.27 L33.66,15.27 L33.66,15.09 L34.73,15.09 L34.73,15.27 Z M32.59,15.27 L31.52,15.27 L31.52,15.09 L32.59,15.09 L32.59,15.27 Z M30.45,15.27 L29.38,15.27 L29.38,15.09 L30.45,15.09 L30.45,15.27 Z M28.31,15.27 L27.24,15.27 L27.24,15.09 L28.31,15.09 L28.31,15.27 Z M26.17,15.27 L25.09,15.27 L25.09,15.09 L26.16,15.09 L26.17,15.27 Z M24.03,15.27 L23,15.27 L23,15.09 L24,15.09 L24.03,15.27 Z M21.89,15.27 L20.81,15.27 L20.81,15.09 L21.88,15.09 L21.89,15.27 Z M19.75,15.27 L18.67,15.27 L18.67,15.09 L19.74,15.09 L19.75,15.27 Z M17.61,15.27 L16.53,15.27 L16.53,15.09 L17.6,15.09 L17.61,15.27 Z M15.47,15.27 L14.39,15.27 L14.39,15.09 L15.46,15.09 L15.47,15.27 Z" id="Shape" fill="#ADCAD8"></path>
            <path d="M32.39,21.8 L41.52,21.8 C41.9070654,21.7892357 42.2821558,21.934809 42.5606216,22.2038671 C42.8390874,22.4729253 42.9974607,22.8427933 43,23.23 L43,28.67 C43,29.46529 42.35529,30.11 41.56,30.11 L32.39,30.11 C30.1118809,30.1101646 28.2573812,28.2779546 28.23,26 C28.23,23.7024954 30.0924954,21.84 32.39,21.84 L32.39,21.8 Z" id="Shape" fill="url(#linearGradient-3)"></path>
        </g>
    </g>
</svg>