<svg xmlns="http://www.w3.org/2000/svg" xmlns:xlink="http://www.w3.org/1999/xlink" viewBox="0 0 30.23 30.23"><defs><style>.cls-1{fill:#ef6156;}.cls-2{clip-path:url(#clip-path);}.cls-3{fill:url(#linear-gradient);}.cls-4{fill:#fff;}</style><clipPath id="clip-path"><circle class="cls-1" cx="15.11" cy="15.11" r="15.11"/></clipPath><linearGradient id="linear-gradient" x1="20.16" y1="5.73" x2="20.16" y2="30.23" gradientUnits="userSpaceOnUse"><stop offset="0" stop-color="#ba4345"/><stop offset="1" stop-color="#cf7162" stop-opacity="0.5"/></linearGradient></defs><title>11Asset 12future-icon-menu</title><g id="Layer_2" data-name="Layer 2"><g id="Layer_1-2" data-name="Layer 1"><circle class="cls-1" cx="15.11" cy="15.11" r="15.11"/><g class="cls-2"><polygon class="cls-3" points="10.1 24.49 17.4 30.23 30.23 30.23 30.23 15.79 15.12 5.73 13.16 8.72 13.5 10.98 11.9 16.29 11.24 17.02 10.1 24.49"/></g><path class="cls-4" d="M20.16,24.24c-.25-.69-.48-1.43-.79-2.13a3.46,3.46,0,0,0-1.46-1.68L19,16.86C20.94,18.4,21.39,21.33,20.16,24.24Z"/><path class="cls-4" d="M11.24,17l1.06,3.57c-1.38.86-1.82,2.36-2.2,3.9C8.94,21.81,9.1,18.8,11.24,17Z"/><path class="cls-4" d="M16.84,8a3,3,0,0,1-3.45,0,11,11,0,0,1,1.72-2.31A10.78,10.78,0,0,1,16.84,8Z"/><path class="cls-4" d="M16.47,22.24v2.08H13.58V22.24Z"/><path class="cls-4" d="M17.66,21.79v.47H12.5v-.47Z"/><path class="cls-4" d="M17.77,10.5c-.21-.6-.48-1.19-.72-1.79a3.61,3.61,0,0,1-3.89,0c-.13.27-.26.51-.36.76a12.39,12.39,0,0,0-.89,6.81,16.38,16.38,0,0,0,1.54,4.86.35.35,0,0,0,.25.18q1.4,0,2.79,0a.33.33,0,0,0,.24-.15,15.87,15.87,0,0,0,1.64-5.59A12,12,0,0,0,17.77,10.5ZM16.1,14.66a1.43,1.43,0,1,1,0-2A1.43,1.43,0,0,1,16.1,14.66Z"/></g></g></svg>