<svg xmlns="http://www.w3.org/2000/svg" viewBox="0 0 52 52"><defs><style>.cls-1{fill:#565656;}.cls-2{fill:#fff;}</style></defs><title>11Asset 2send-icon</title><g id="Layer_2" data-name="Layer 2"><g id="Layer_1-2" data-name="Layer 1"><circle class="cls-1" cx="26" cy="26" r="26"/><path class="cls-2" d="M10.54,24.93V15h2.34v3.83H17V15h2.34v9.92H17V20.73h-4.1v4.19Z"/><path class="cls-2" d="M24.6,25.2a3.72,3.72,0,0,1-4-3.84,3.72,3.72,0,0,1,4-3.84,3.73,3.73,0,0,1,4,3.84A3.73,3.73,0,0,1,24.6,25.2Zm0-5.85a1.87,1.87,0,0,0-1.87,2,1.88,1.88,0,1,0,3.75,0A1.87,1.87,0,0,0,24.6,19.35Z"/><path class="cls-2" d="M28.91,17.79h2.17l1.46,5,1.39-5h2l1.49,5.08,1.45-5.08h2.1l-2.17,7.13H36.11l-1.2-4.7-1.2,4.7H31.07Z"/><path class="cls-2" d="M10.87,30.52h-1V28.94H11l.24-1.8H13v1.8h1.62v1.59H13v3a.92.92,0,0,0,.95,1,3.71,3.71,0,0,0,.74-.1v1.67a4.87,4.87,0,0,1-1.42.22,2.35,2.35,0,0,1-2.34-2.59Z"/><path class="cls-2" d="M19.41,36.35a3.85,3.85,0,1,1,0-7.69,3.85,3.85,0,1,1,0,7.69Zm0-5.85a2,2,0,1,0,1.88,2A1.87,1.87,0,0,0,19.41,30.5Z"/></g></g></svg>