<svg xmlns="http://www.w3.org/2000/svg" viewBox="0 0 52 52"><defs><style>.cls-1{fill:#565656;}.cls-2{fill:#fff;}</style></defs><title>11Asset 1wallet-icon</title><g id="Layer_2" data-name="Layer 2"><g id="Layer_1-2" data-name="Layer 1"><circle class="cls-1" cx="26" cy="26" r="26"/><path class="cls-2" d="M23.76,30.7c0-3.28,1.05-4.85,3.09-6.24,1.24-.83,2.44-1.67,2.44-3.15a3,3,0,0,0-3.15-2.91c-2.07,0-3.55,1.7-3.83,4l-4.67-.87c.43-4.17,3.89-7.2,8.69-7.2,4.57,0,8,2.75,8,6.58,0,2.72-1.61,4.3-3.77,5.56A4.21,4.21,0,0,0,28,30.7Zm2.13,1.7A2.63,2.63,0,1,1,23.2,35,2.57,2.57,0,0,1,25.89,32.4Z"/><path class="cls-2" d="M36.79,15.95a1.23,1.23,0,0,1,.58-1.17c.23-.16.46-.31.46-.59a.56.56,0,0,0-.59-.55.77.77,0,0,0-.72.76l-.88-.16a1.54,1.54,0,0,1,1.63-1.35,1.36,1.36,0,0,1,1.51,1.24,1.18,1.18,0,0,1-.71,1,.79.79,0,0,0-.48.79Zm.4.32a.49.49,0,1,1-.51.49A.48.48,0,0,1,37.19,16.27Z"/><path class="cls-2" d="M15.35,33.77a1.23,1.23,0,0,1,.58-1.17c.23-.16.46-.31.46-.59a.56.56,0,0,0-.59-.55.77.77,0,0,0-.72.76l-.88-.16a1.54,1.54,0,0,1,1.63-1.35,1.36,1.36,0,0,1,1.51,1.24,1.18,1.18,0,0,1-.71,1,.79.79,0,0,0-.48.79Zm.4.32a.49.49,0,1,1-.51.49A.48.48,0,0,1,15.75,34.09Z"/><path class="cls-2" d="M10.95,19.68a2,2,0,0,1,.95-1.91c.38-.26.75-.51.75-1a.91.91,0,0,0-1-.89,1.25,1.25,0,0,0-1.17,1.23l-1.43-.27a2.51,2.51,0,0,1,2.66-2.21,2.21,2.21,0,0,1,2.46,2A1.92,1.92,0,0,1,13,18.4a1.29,1.29,0,0,0-.79,1.29Zm.65.52a.81.81,0,1,1-.82.81A.79.79,0,0,1,11.6,20.21Z"/><path class="cls-2" d="M37.45,36.29a2.84,2.84,0,0,1,1.34-2.71c.54-.36,1.06-.73,1.06-1.37a1.3,1.3,0,0,0-1.37-1.26,1.77,1.77,0,0,0-1.67,1.75l-2-.38a3.56,3.56,0,0,1,3.78-3.13c2,0,3.49,1.2,3.49,2.86a2.72,2.72,0,0,1-1.64,2.42,1.83,1.83,0,0,0-1.12,1.83Zm.93.74a1.14,1.14,0,1,1-1.17,1.14A1.12,1.12,0,0,1,38.38,37Z"/></g></g></svg>