<svg xmlns="http://www.w3.org/2000/svg" viewBox="0 0 162.85 444.33"><defs><style>.cls-1,.cls-6{fill:none;}.cls-1{stroke:#fff;stroke-miterlimit:10;}.cls-2{opacity:0.5;}.cls-3{fill:#fff;}.cls-4{opacity:0.75;}.cls-5{fill:#d3dae5;}.cls-6{stroke:#d6dfed;stroke-linecap:round;stroke-linejoin:round;}</style></defs><title>11Asset 2ask-right-mobile</title><g id="Layer_2" data-name="Layer 2"><g id="Layer_1-2" data-name="Layer 1"><circle class="cls-1" cx="131.81" cy="390.72" r="4"/><g class="cls-2"><path class="cls-3" d="M155,369.83a4,4,0,1,1-4,4,4,4,0,0,1,4-4m0-2a6,6,0,1,0,6,6,6,6,0,0,0-6-6Z" transform="translate(-0.25)"/></g><path class="cls-3" d="M157.1,19.8a4,4,0,1,1-4,4,4,4,0,0,1,4-4m0-2a6,6,0,1,0,6,6,6,6,0,0,0-6-6Z" transform="translate(-0.25)"/><path class="cls-3" d="M80.39,429.46c2.62,1.8,3.31,3.5,3.3,5.9,0,1.45,0,2.87,1.18,3.69a2.9,2.9,0,0,0,4.06-.93c1.14-1.66.59-3.78-1.11-5.27l3.25-3.26c3.1,2.64,3.63,7.07,1,10.91-2.51,3.66-6.61,4.92-9.68,2.82-2.18-1.49-2.56-3.64-2.38-6.07a4.09,4.09,0,0,0-2-4.36Zm-2.53.77a2.55,2.55,0,1,1-.63-3.59A2.49,2.49,0,0,1,77.86,430.23Z" transform="translate(-0.25)"/><g class="cls-4"><path class="cls-3" d="M154.2,133.18c-2.71-1.66-3.48-3.33-3.6-5.73-.06-1.45-.14-2.87-1.37-3.62a2.9,2.9,0,0,0-4,1.13c-1.05,1.71-.4,3.8,1.38,5.21l-3.08,3.42c-3.23-2.48-4-6.88-1.55-10.84,2.32-3.78,6.35-5.25,9.53-3.31,2.25,1.38,2.74,3.51,2.69,5.94a4.09,4.09,0,0,0,2.18,4.26Zm2.49-.9a2.55,2.55,0,1,1,.81,3.56A2.49,2.49,0,0,1,156.69,132.28Z" transform="translate(-0.25)"/></g><g class="cls-2"><path class="cls-5" d="M42.62,95.25a1.14,1.14,0,1,1-1.41.78A1.14,1.14,0,0,1,42.62,95.25Z" transform="translate(-0.25)"/><path class="cls-5" d="M38.53,94.09a1.14,1.14,0,1,1-1.41.78A1.14,1.14,0,0,1,38.53,94.09Z" transform="translate(-0.25)"/><path class="cls-5" d="M34.44,92.92a1.14,1.14,0,1,1-.63,2.2,1.14,1.14,0,0,1,.63-2.2Z" transform="translate(-0.25)"/><path class="cls-5" d="M30.35,91.76a1.14,1.14,0,1,1-1.41.79A1.14,1.14,0,0,1,30.35,91.76Z" transform="translate(-0.25)"/><path class="cls-5" d="M26.26,90.6a1.14,1.14,0,1,1-1.41.79A1.14,1.14,0,0,1,26.26,90.6Z" transform="translate(-0.25)"/><path class="cls-5" d="M22.16,89.44a1.14,1.14,0,1,1-1.41.79A1.14,1.14,0,0,1,22.16,89.44Z" transform="translate(-0.25)"/><path class="cls-5" d="M18.07,88.28a1.14,1.14,0,1,1-1.41.79A1.14,1.14,0,0,1,18.07,88.28Z" transform="translate(-0.25)"/><path class="cls-5" d="M14,87.12a1.14,1.14,0,1,1-1.41.78A1.14,1.14,0,0,1,14,87.12Z" transform="translate(-0.25)"/><path class="cls-5" d="M9.89,86a1.14,1.14,0,1,1-1.41.78A1.14,1.14,0,0,1,9.89,86Z" transform="translate(-0.25)"/><path class="cls-5" d="M5.8,84.79a1.14,1.14,0,1,1-1.41.79A1.15,1.15,0,0,1,5.8,84.79Z" transform="translate(-0.25)"/><path class="cls-5" d="M1.71,83.63a1.14,1.14,0,1,1-1.41.79A1.14,1.14,0,0,1,1.71,83.63Z" transform="translate(-0.25)"/></g><g class="cls-2"><rect class="cls-6" x="77.43" y="15.05" width="13.96" height="13.96" rx="1" ry="1" transform="translate(8.89 66.14) rotate(-45)"/><rect class="cls-6" x="77.43" y="2.98" width="13.96" height="13.96" rx="1" ry="1" transform="translate(17.43 62.61) rotate(-45)"/></g><g class="cls-2"><line class="cls-6" x1="58" y1="184.34" x2="58" y2="193.59"/><line class="cls-6" x1="62.63" y1="188.96" x2="53.38" y2="188.96"/></g></g></g></svg>