<svg xmlns="http://www.w3.org/2000/svg" viewBox="0 0 488.23 267.21"><defs><style>.cls-1{fill:#fff;}.cls-2,.cls-4,.cls-5{fill:none;}.cls-2{stroke:#fff;stroke-miterlimit:10;}.cls-3,.cls-5,.cls-6{opacity:0.5;}.cls-4,.cls-5{stroke:#d6dfed;stroke-linecap:round;stroke-linejoin:round;}.cls-6{fill:#e4ebf7;}.cls-7{fill:#d3dae5;}</style></defs><title>11Asset 1ask-left</title><g id="Layer_2" data-name="Layer 2"><g id="Layer_1-2" data-name="Layer 1"><path class="cls-1" d="M157.78,206.94a4,4,0,1,1-4,4,4,4,0,0,1,4-4m0-2a6,6,0,1,0,6,6,6,6,0,0,0-6-6Z"/><circle class="cls-2" cx="4.5" cy="101.39" r="4"/><g class="cls-3"><path class="cls-1" d="M85,86.73a4,4,0,1,1-4,4,4,4,0,0,1,4-4m0-2a6,6,0,1,0,6,6,6,6,0,0,0-6-6Z"/></g><g class="cls-3"><path class="cls-1" d="M42.16,207.51c2.25-2.24,4.06-2.6,6.41-2.15,1.42.28,2.82.54,3.84-.48a2.9,2.9,0,0,0-.16-4.16c-1.42-1.42-3.6-1.28-5.39.12l-2.6-3.8c3.17-2.56,7.62-2.25,10.9,1s3.61,7.41,1,10c-1.87,1.86-4.06,1.84-6.41,1.22a4.09,4.09,0,0,0-4.65,1.11Zm.29,2.63a2.55,2.55,0,1,1-3.65,0A2.49,2.49,0,0,1,42.45,210.14Z"/></g><path class="cls-1" d="M134.39,28.26c2.62,1.8,3.31,3.5,3.3,5.9,0,1.45,0,2.87,1.18,3.69a2.9,2.9,0,0,0,4.06-.93c1.14-1.66.59-3.78-1.11-5.27l3.25-3.26c3.1,2.64,3.63,7.07,1,10.91-2.51,3.66-6.61,4.92-9.68,2.82-2.18-1.49-2.56-3.64-2.38-6.07a4.09,4.09,0,0,0-2-4.36Zm-2.53.77a2.55,2.55,0,1,1-.63-3.59A2.49,2.49,0,0,1,131.86,29Z"/><g class="cls-3"><line class="cls-4" x1="483.11" y1="0.5" x2="483.11" y2="9.75"/><line class="cls-4" x1="487.73" y1="5.13" x2="478.48" y2="5.13"/></g><rect class="cls-5" x="411.69" y="257.37" width="8.08" height="8.08" rx="1" ry="1" transform="translate(-63.08 370.53) rotate(-45)"/><rect class="cls-6" x="322.98" y="43.87" width="29.79" height="2.78" rx="1.39" ry="1.39"/><rect class="cls-6" x="332.81" y="49.75" width="29.79" height="2.78" rx="1.39" ry="1.39"/><circle class="cls-6" cx="356.72" cy="45.26" r="1.39"/><g class="cls-3"><circle class="cls-7" cx="311.19" cy="160.03" r="1.14" transform="translate(-33.57 219.92) rotate(-37.07)"/><circle class="cls-7" cx="307.79" cy="162.59" r="1.14" transform="translate(-35.8 218.4) rotate(-37.07)"/><circle class="cls-7" cx="304.4" cy="165.15" r="1.14" transform="translate(-38.03 216.87) rotate(-37.07)"/><circle class="cls-7" cx="290.83" cy="175.41" r="1.14" transform="translate(-46.96 210.76) rotate(-37.07)"/><circle class="cls-7" cx="301.01" cy="167.72" r="1.14" transform="translate(-40.27 215.34) rotate(-37.07)"/><circle class="cls-7" cx="294.22" cy="172.85" r="1.14" transform="translate(-44.73 212.29) rotate(-37.07)"/><circle class="cls-7" cx="297.61" cy="170.28" r="1.14" transform="translate(-42.5 213.82) rotate(-37.07)"/><circle class="cls-7" cx="277.25" cy="185.66" r="1.14" transform="translate(-55.88 204.65) rotate(-37.07)"/><circle class="cls-7" cx="287.43" cy="177.97" r="1.14" transform="translate(-49.19 209.23) rotate(-37.07)"/><circle class="cls-7" cx="280.65" cy="183.1" r="1.14" transform="translate(-53.65 206.18) rotate(-37.07)"/><circle class="cls-7" cx="284.04" cy="180.54" r="1.14" transform="translate(-51.42 207.71) rotate(-37.07)"/></g></g></g></svg>