<svg xmlns="http://www.w3.org/2000/svg" viewBox="0 0 249.6 449.9"><defs><style>.cls-1{fill:#fff;}.cls-2,.cls-4{fill:none;}.cls-2{stroke:#fff;stroke-miterlimit:10;}.cls-3,.cls-5{opacity:0.5;}.cls-4{stroke:#d6dfed;stroke-linecap:round;stroke-linejoin:round;}.cls-5{fill:#e4ebf7;}.cls-6{fill:#d3dae5;}</style></defs><title>11Asset 1ask-left-mobile</title><g id="Layer_2" data-name="Layer 2"><g id="Layer_1-2" data-name="Layer 1"><path class="cls-1" d="M123.83,396.35a4,4,0,1,1-4,4,4,4,0,0,1,4-4m0-2a6,6,0,1,0,6,6,6,6,0,0,0-6-6Z"/><circle class="cls-2" cx="4.88" cy="101.48" r="4"/><g class="cls-3"><path class="cls-1" d="M83.24,363.46a4,4,0,1,1-4,4,4,4,0,0,1,4-4m0-2a6,6,0,1,0,6,6,6,6,0,0,0-6-6Z"/></g><g class="cls-3"><path class="cls-1" d="M4.78,442.85c2.25-2.24,4.06-2.6,6.41-2.15,1.42.28,2.82.54,3.84-.48a2.9,2.9,0,0,0-.16-4.16c-1.42-1.42-3.6-1.28-5.39.12l-2.6-3.8c3.17-2.56,7.62-2.25,10.9,1s3.61,7.41,1,10c-1.87,1.86-4.06,1.84-6.41,1.22a4.09,4.09,0,0,0-4.65,1.11Zm.29,2.63a2.49,2.49,0,0,1,0,3.65,2.49,2.49,0,0,1-3.65,0,2.49,2.49,0,0,1,0-3.65A2.49,2.49,0,0,1,5.07,445.48Z"/></g><path class="cls-1" d="M125.86,22.35c2.62,1.8,3.31,3.5,3.3,5.9,0,1.45,0,2.87,1.18,3.69A2.9,2.9,0,0,0,134.4,31c1.14-1.66.59-3.78-1.11-5.27l3.25-3.26c3.1,2.64,3.63,7.07,1,10.91C135,37,130.93,38.3,127.86,36.2c-2.18-1.49-2.56-3.64-2.38-6.07a4.09,4.09,0,0,0-2-4.36Zm-2.53.77a2.55,2.55,0,1,1-4.21-2.88,2.55,2.55,0,1,1,4.21,2.88Z"/><g class="cls-3"><line class="cls-4" x1="244.48" y1="0.5" x2="244.48" y2="9.75"/><line class="cls-4" x1="249.1" y1="5.13" x2="239.85" y2="5.13"/></g><rect class="cls-5" y="34.34" width="29.79" height="2.78" rx="1.39" ry="1.39"/><rect class="cls-5" x="9.82" y="40.22" width="29.79" height="2.78" rx="1.39" ry="1.39"/><g class="cls-3"><circle class="cls-6" cx="37.71" cy="149.08" r="1.14" transform="translate(-82.24 52.86) rotate(-37.07)"/><circle class="cls-6" cx="34.31" cy="151.64" r="1.14" transform="matrix(0.8, -0.6, 0.6, 0.8, -84.47, 51.33)"/><circle class="cls-6" cx="30.92" cy="154.2" r="1.14" transform="translate(-86.7 49.8) rotate(-37.07)"/><circle class="cls-6" cx="17.35" cy="164.46" r="1.14" transform="translate(-95.63 43.69) rotate(-37.07)"/><circle class="cls-6" cx="27.53" cy="156.77" r="1.14" transform="translate(-88.94 48.28) rotate(-37.07)"/><circle class="cls-6" cx="20.74" cy="161.89" r="1.14" transform="translate(-93.4 45.22) rotate(-37.07)"/><circle class="cls-6" cx="24.13" cy="159.33" r="1.14" transform="translate(-91.17 46.75) rotate(-37.07)"/><circle class="cls-6" cx="3.77" cy="174.71" r="1.14" transform="translate(-104.55 37.58) rotate(-37.07)"/><circle class="cls-6" cx="13.95" cy="167.02" r="1.14" transform="translate(-97.86 42.17) rotate(-37.07)"/><circle class="cls-6" cx="7.17" cy="172.15" r="1.14" transform="translate(-102.32 39.11) rotate(-37.07)"/><circle class="cls-6" cx="10.56" cy="169.58" r="1.14" transform="translate(-100.09 40.64) rotate(-37.07)"/></g></g></g></svg>