<svg xmlns="http://www.w3.org/2000/svg" viewBox="0 0 359 248.84"><defs><style>.cls-1,.cls-6{fill:none;}.cls-1{stroke:#fff;stroke-miterlimit:10;}.cls-2,.cls-7{opacity:0.5;}.cls-3{fill:#fff;}.cls-4{opacity:0.75;}.cls-5{fill:#d3dae5;}.cls-6{stroke:#d6dfed;stroke-linecap:round;stroke-linejoin:round;}.cls-7{fill:#e4ebf7;}</style></defs><title>11Asset 2ask-right</title><g id="Layer_2" data-name="Layer 2"><g id="Layer_1-2" data-name="Layer 1"><circle class="cls-1" cx="330.06" cy="140.3" r="4"/><g class="cls-2"><path class="cls-3" d="M353,119.42a4,4,0,1,1-4,4,4,4,0,0,1,4-4m0-2a6,6,0,1,0,6,6,6,6,0,0,0-6-6Z"/></g><path class="cls-3" d="M261.67,13.65a4,4,0,1,1-4,4,4,4,0,0,1,4-4m0-2a6,6,0,1,0,6,6,6,6,0,0,0-6-6Z"/><path class="cls-3" d="M276.39,207c2.62,1.8,3.31,3.5,3.3,5.9,0,1.45,0,2.87,1.18,3.69a2.9,2.9,0,0,0,4.06-.93c1.14-1.66.59-3.78-1.11-5.27l3.25-3.26c3.1,2.64,3.63,7.07,1,10.91-2.51,3.66-6.61,4.92-9.68,2.82-2.18-1.49-2.56-3.64-2.38-6.07a4.09,4.09,0,0,0-2-4.36Zm-2.53.77a2.55,2.55,0,1,1-.63-3.59A2.49,2.49,0,0,1,273.86,207.82Z"/><g class="cls-4"><path class="cls-3" d="M231.72,50.34c-2.71-1.66-3.48-3.33-3.6-5.73-.06-1.45-.14-2.87-1.37-3.62a2.9,2.9,0,0,0-4,1.13c-1.05,1.71-.4,3.8,1.38,5.21L221,50.76c-3.23-2.48-4-6.88-1.55-10.84,2.32-3.78,6.35-5.25,9.53-3.31,2.25,1.38,2.74,3.51,2.69,5.94a4.09,4.09,0,0,0,2.18,4.26Zm2.49-.9A2.55,2.55,0,1,1,235,53,2.49,2.49,0,0,1,234.2,49.44Z"/></g><g class="cls-2"><path class="cls-5" d="M143.19,100.08a1.14,1.14,0,1,1-.62,2.2,1.14,1.14,0,1,1,.62-2.2Z"/><path class="cls-5" d="M137.69,99.71a1.14,1.14,0,1,1,.79,1.41A1.14,1.14,0,0,1,137.69,99.71Z"/><path class="cls-5" d="M135,97.76a1.14,1.14,0,1,1-1.41.79A1.14,1.14,0,0,1,135,97.76Z"/><path class="cls-5" d="M130.92,96.6a1.14,1.14,0,1,1-1.41.79A1.13,1.13,0,0,1,130.92,96.6Z"/><path class="cls-5" d="M127.61,96.85a1.14,1.14,0,1,1-.78-1.41A1.14,1.14,0,0,1,127.61,96.85Z"/><path class="cls-5" d="M122.11,96.47a1.14,1.14,0,1,1,1.41-.78A1.14,1.14,0,0,1,122.11,96.47Z"/><path class="cls-5" d="M118,95.31a1.14,1.14,0,1,1,1.41-.78A1.14,1.14,0,0,1,118,95.31Z"/><path class="cls-5" d="M114.55,92a1.14,1.14,0,1,1-1.41.79A1.15,1.15,0,0,1,114.55,92Z"/><path class="cls-5" d="M109.84,93a1.14,1.14,0,1,1,1.41-.79A1.14,1.14,0,0,1,109.84,93Z"/><path class="cls-5" d="M105.75,91.83a1.14,1.14,0,1,1,1.41-.79A1.14,1.14,0,0,1,105.75,91.83Z"/><path class="cls-5" d="M102.28,88.47a1.14,1.14,0,1,1-1.41.79A1.14,1.14,0,0,1,102.28,88.47Z"/></g><g class="cls-2"><rect class="cls-6" x="2.98" y="15.05" width="13.96" height="13.96" rx="1" ry="1" transform="translate(-12.66 13.5) rotate(-45)"/><rect class="cls-6" x="2.98" y="2.98" width="13.96" height="13.96" rx="1" ry="1" transform="translate(-4.13 9.96) rotate(-45)"/></g><rect class="cls-7" x="30.95" y="236.69" width="41.84" height="3.9" rx="1.95" ry="1.95"/><rect class="cls-7" x="36.36" y="244.94" width="41.84" height="3.9" rx="1.95" ry="1.95"/><g class="cls-2"><line class="cls-6" x1="146.83" y1="178.18" x2="146.83" y2="187.43"/><line class="cls-6" x1="151.45" y1="182.81" x2="142.2" y2="182.81"/></g></g></g></svg>