<svg xmlns="http://www.w3.org/2000/svg" viewBox="0 0 21.55 20.67"><defs><style>.cls-1{fill:#cfcfd1;}</style></defs><title>11Asset 7like</title><g id="Layer_2" data-name="Layer 2"><g id="Layer_1-2" data-name="Layer 1"><path class="cls-1" d="M21.55,9.17v.69c0,.05,0,.11,0,.16A2.71,2.71,0,0,1,21,11.27a.49.49,0,0,0-.09.51,2.75,2.75,0,0,1-.35,2.4.43.43,0,0,0-.07.37,2.88,2.88,0,0,1-.38,2.16c-.11.18-.3.33-.37.53a2.76,2.76,0,0,0,0,.65,2.77,2.77,0,0,1-1.16,2.2,3.22,3.22,0,0,1-1.79.57c-.84,0-1.69,0-2.53,0a8.53,8.53,0,0,1-1.13-.12,22.23,22.23,0,0,1-3.69-1A9.65,9.65,0,0,0,7.33,19a1,1,0,0,1-.87-1c0-2.76,0-5.52,0-8.28,0-.09,0-.18,0-.27a.86.86,0,0,1,.69-.76,1.07,1.07,0,0,0,.62-.31C8.2,7.88,8.62,7.45,9,7c.65-.76,1.28-1.54,1.92-2.32a4.26,4.26,0,0,0,.39-.52,6,6,0,0,0,.59-1.95A4,4,0,0,1,12.65.37.88.88,0,0,1,13.44,0a7.85,7.85,0,0,1,.85.1A2.25,2.25,0,0,1,16.22,2,5.08,5.08,0,0,1,16.07,5c-.18.47-.43.91-.64,1.37-.07.16-.13.32-.21.51h3.72a2.48,2.48,0,0,1,2.25,1.31A5.56,5.56,0,0,1,21.55,9.17Z"/><path class="cls-1" d="M0,9.3a1,1,0,0,1,.44-.57,1.13,1.13,0,0,1,.44-.12H4.72a.87.87,0,0,1,.88,1c0,1,0,2,0,3.06q0,2.67,0,5.35a.87.87,0,0,1-.66.94,1.32,1.32,0,0,1-.31,0H1A.87.87,0,0,1,0,18.32l0,0Zm2.58,7.93a.86.86,0,0,0,.86-.86.89.89,0,0,0-.85-.87.88.88,0,0,0-.87.86A.85.85,0,0,0,2.58,17.23Z"/><rect class="cls-1" x="1.72" y="14.62" width="2.06" height="2.89"/></g></g></svg>