<svg xmlns="http://www.w3.org/2000/svg" viewBox="0 0 176.23 393.93"><defs><style>.cls-1{isolation:isolate;}.cls-2{fill:#ffcb58;}.cls-3{fill:#fff;}.cls-4{fill:#ffba83;opacity:0.6;mix-blend-mode:multiply;}.cls-5{fill:#967cdf;}.cls-6{fill:#3372f7;}</style></defs><title>11Asset 1forks-img1</title><g class="cls-1"><g id="Layer_2" data-name="Layer 2"><g id="Layer_1-2" data-name="Layer 1"><path class="cls-2" d="M84.15,29.39a.66.66,0,0,1,.66.66V90.14a15.56,15.56,0,0,1-4.59,11.08L60.57,120.87a9.11,9.11,0,0,0-2.68,6.48v143.4a.66.66,0,1,1-1.32,0V127.35a10.41,10.41,0,0,1,3.07-7.41l19.65-19.65a14.26,14.26,0,0,0,4.2-10.15V30.05A.66.66,0,0,1,84.15,29.39Z"/><path class="cls-2" d="M84.15,88.19a.66.66,0,0,1,.66.66V248.7a.66.66,0,1,1-1.32,0V88.85A.66.66,0,0,1,84.15,88.19Z"/><path class="cls-2" d="M88.65,67.27a.66.66,0,0,1,.66.66v78A12.69,12.69,0,0,0,93,155l12.51,12.51a.66.66,0,0,1-.93.93L92.12,155.91A14,14,0,0,1,88,146v-78A.66.66,0,0,1,88.65,67.27Z"/><path class="cls-2" d="M84.15,174.95a.66.66,0,0,1,.66.66v18.55a15.44,15.44,0,0,0,4.55,11l8,8A16.74,16.74,0,0,1,102.27,225v66.36a.66.66,0,1,1-1.32,0V225a15.43,15.43,0,0,0-4.55-11l-8-8a16.74,16.74,0,0,1-4.94-11.92V175.6A.66.66,0,0,1,84.15,174.95Z"/><circle class="cls-2" cx="101.61" cy="291.38" r="4.74"/><circle class="cls-2" cx="106.34" cy="167.78" r="4.74"/><circle class="cls-2" cx="57.22" cy="270.93" r="4.74"/><circle class="cls-2" cx="84.15" cy="249.7" r="4.74" transform="translate(-179.06 261.91) rotate(-74.03)"/><circle class="cls-2" cx="86.88" cy="37.67" r="37.02"/><path class="cls-2" d="M86.88,75.35a37.67,37.67,0,1,1,37.67-37.67A37.72,37.72,0,0,1,86.88,75.35Zm0-74a36.36,36.36,0,1,0,36.36,36.36A36.4,36.4,0,0,0,86.88,1.32Z"/><path class="cls-3" d="M117.66,24.74a.44.44,0,0,1-.4-.26A33.15,33.15,0,0,0,74.5,7a.44.44,0,1,1-.33-.81,34,34,0,0,1,43.9,18,.44.44,0,0,1-.4.61Z"/><path class="cls-3" d="M105.46,42.58c-.92-5.36-6.65-6.37-6.65-6.37a6.09,6.09,0,0,0,4.43-5.95c.25-6.21-6.65-8.07-9.56-8.08H92.31l0-8.05h-3.6l0,8.05h-4l0-8.05h-3.6l0,8.05-10,0v4.14l5.64,0-.07,23.12H72.36l-1.74,5.17s4.39.37,10.43.54l0,7.2h3.6l0-7.14h4l0,7.15h3.6l0-7.27a19.4,19.4,0,0,0,8-1.9A9.57,9.57,0,0,0,105.46,42.58ZM84.4,26.3h4.43c2.3,0,6,.94,6.31,3.87.34,3.61-3.47,5-6.31,5H84.37ZM89.72,49.5l-5.4,0,0-9.66,5.36,0c3.66,0,7.31,1,7.65,4.2C97.78,48,93.7,49.52,89.72,49.5Z"/><path class="cls-3" d="M92.19,62.75h-3.6a.44.44,0,0,1-.44-.44l0-6.7H85.09l0,6.7a.44.44,0,0,1-.44.44H81a.44.44,0,0,1-.44-.44l0-6.77c-5.77-.17-10-.53-10-.53a.44.44,0,0,1-.38-.58l1.74-5.17a.44.44,0,0,1,.42-.3H76.3l.07-22.24-5.2,0a.44.44,0,0,1-.44-.44V22.11a.44.44,0,0,1,.44-.44h0l9.53,0,0-7.61a.43.43,0,0,1,.44-.44h3.6a.44.44,0,0,1,.44.44l0,7.61h3.08l0-7.61a.44.44,0,0,1,.44-.44h3.6a.44.44,0,0,1,.44.44l0,7.61h.92a12.16,12.16,0,0,1,8,3.24,7,7,0,0,1,2,5.3,6.53,6.53,0,0,1-3.52,5.87,8.38,8.38,0,0,1,5.73,6.36h0a10.07,10.07,0,0,1-5.46,11,19.36,19.36,0,0,1-7.78,1.91l0,6.86a.44.44,0,0,1-.44.44ZM89,61.87h2.72l0-6.84a.44.44,0,0,1,.41-.44,19,19,0,0,0,7.88-1.86,9.08,9.08,0,0,0,5-10.09h0c-.86-5-6.24-6-6.29-6a.44.44,0,0,1,0-.86,5.62,5.62,0,0,0,4.08-5.54,6.13,6.13,0,0,0-1.72-4.66,11.32,11.32,0,0,0-7.41-3H92.31a.44.44,0,0,1-.44-.44l0-7.61H89.18l0,7.61a.44.44,0,0,1-.44.44h-4a.44.44,0,0,1-.44-.44l0-7.61H81.62l0,7.61a.44.44,0,0,1-.44.44h0l-9.53,0v3.26l5.2,0a.44.44,0,0,1,.44.44l-.07,23.12a.44.44,0,0,1-.44.44H72.68l-1.46,4.34c1.37.1,5.12.36,9.85.5a.44.44,0,0,1,.43.44l0,6.76h2.72l0-6.7a.44.44,0,0,1,.13-.31.4.4,0,0,1,.31-.13h4a.43.43,0,0,1,.31.13.44.44,0,0,1,.13.31Zm.74-11.93h-.05l-5.4,0a.44.44,0,0,1-.44-.44l0-9.66a.44.44,0,0,1,.44-.44h0l5.36,0c4.9,0,7.77,1.65,8.08,4.59a4.43,4.43,0,0,1-1.1,3.59C95.35,49.08,92.82,49.94,89.77,49.94Zm-5-.89h5c2.76,0,5.11-.77,6.28-2.07a3.59,3.59,0,0,0,.88-2.91c-.35-3.29-4.67-3.8-7.21-3.81H84.79Zm4.09-13.39H84.37a.44.44,0,0,1-.44-.44l0-8.91a.44.44,0,0,1,.44-.44h4.43c2.19,0,6.43.91,6.75,4.27a4.25,4.25,0,0,1-1.1,3.4A7.87,7.87,0,0,1,88.85,35.66Zm-4-.89h4a7.09,7.09,0,0,0,5-1.83,3.41,3.41,0,0,0,.87-2.73c-.26-2.74-4-3.47-5.88-3.48h-4Z"/><path class="cls-4" d="M86.93,71.67q-1.3,0-2.61-.1A34,34,0,0,1,74,6.22a.44.44,0,0,1,.33.81,33.12,33.12,0,1,0,43,17.44.44.44,0,0,1,.8-.35A34,34,0,0,1,86.93,71.67Z"/><path class="cls-4" d="M86.81,71.67a34.1,34.1,0,0,1-7.16-.77l-2.71-.7A34,34,0,0,1,63.06,62a.44.44,0,0,1,.61-.63,33.12,33.12,0,0,0,13.51,8l2.67.69a33,33,0,0,0,13.37.11.44.44,0,0,1,.17.86A33.94,33.94,0,0,1,86.81,71.67Z"/><path class="cls-2" d="M74.25,143.23a.66.66,0,0,1,.66.66v21.28a.66.66,0,1,1-1.32,0V143.89A.66.66,0,0,1,74.25,143.23Z"/><path class="cls-5" d="M107.66,239.78a.66.66,0,0,1,.66.66v21.28a.66.66,0,0,1-1.32,0V240.44A.66.66,0,0,1,107.66,239.78Z"/><path class="cls-6" d="M77.82,120.76a.66.66,0,0,1,.66.66v27.71a.66.66,0,1,1-1.32,0V121.42A.66.66,0,0,1,77.82,120.76Z"/><circle class="cls-2" cx="84.88" cy="356.26" r="37.02"/><path class="cls-2" d="M84.88,393.93a37.67,37.67,0,1,1,37.67-37.67A37.72,37.72,0,0,1,84.88,393.93Zm0-74a36.36,36.36,0,1,0,36.36,36.36A36.4,36.4,0,0,0,84.88,319.9Z"/><path class="cls-3" d="M115.66,343.33a.44.44,0,0,1-.4-.26A33.15,33.15,0,0,0,72.5,325.54a.44.44,0,1,1-.33-.81,34,34,0,0,1,43.9,18,.44.44,0,0,1-.4.61Z"/><path class="cls-4" d="M84.93,390.25q-1.3,0-2.61-.1A34,34,0,0,1,72,324.81a.44.44,0,0,1,.33.81,33.12,33.12,0,1,0,43,17.44.44.44,0,1,1,.8-.35,34,34,0,0,1-31.13,47.54Z"/><path class="cls-4" d="M84.81,390.26a34.1,34.1,0,0,1-7.16-.77l-2.71-.7a34,34,0,0,1-13.88-8.19.44.44,0,0,1,.61-.63,33.12,33.12,0,0,0,13.51,8l2.67.69a33,33,0,0,0,13.37.11.44.44,0,0,1,.17.86A33.94,33.94,0,0,1,84.81,390.26Z"/><circle class="cls-2" cx="150.13" cy="316.26" r="25.65"/><path class="cls-2" d="M150.13,342.37a26.11,26.11,0,1,1,26.11-26.11A26.14,26.14,0,0,1,150.13,342.37Zm0-51.31a25.2,25.2,0,1,0,25.2,25.2A25.23,25.23,0,0,0,150.13,291.06Z"/><path class="cls-4" d="M150.16,339.82q-.9,0-1.81-.07a23.57,23.57,0,0,1-7.19-45.29.3.3,0,0,1,.23.56,23,23,0,1,0,29.78,12.09.3.3,0,1,1,.56-.24,23.57,23.57,0,0,1-21.58,32.95Z"/><path class="cls-4" d="M150.08,339.82a23.64,23.64,0,0,1-5-.53l-1.88-.48a23.58,23.58,0,0,1-9.62-5.67.3.3,0,0,1,.42-.43,23,23,0,0,0,9.36,5.52l1.85.48a22.86,22.86,0,0,0,9.27.08.3.3,0,0,1,.12.6A23.52,23.52,0,0,1,150.08,339.82Z"/><circle class="cls-2" cx="20.73" cy="317.52" r="20.37"/><path class="cls-2" d="M20.73,338.26a20.73,20.73,0,1,1,20.73-20.73A20.76,20.76,0,0,1,20.73,338.26Zm0-40.75a20,20,0,1,0,20,20A20,20,0,0,0,20.73,297.51Z"/><path class="cls-4" d="M20.76,336.23q-.71,0-1.43-.05a18.71,18.71,0,0,1-5.71-36,.24.24,0,0,1,.18.45,18.23,18.23,0,1,0,23.65,9.6.24.24,0,0,1,.44-.19,18.72,18.72,0,0,1-17.14,26.17Z"/></g></g></g></svg>