<svg xmlns="http://www.w3.org/2000/svg" viewBox="0 0 441.01 565.3"><defs><style>.cls-1{fill:#c1d8fb;}.cls-10,.cls-11,.cls-2,.cls-5,.cls-7,.cls-8,.cls-9{fill:none;stroke-width:2px;}.cls-2{stroke:#fff;}.cls-10,.cls-2,.cls-8,.cls-9{stroke-linecap:round;}.cls-10,.cls-2,.cls-5,.cls-8,.cls-9{stroke-linejoin:round;}.cls-3{fill:#3372f7;}.cls-4{fill:#404299;}.cls-10,.cls-5{stroke:#404299;}.cls-6{fill:#fff;}.cls-7,.cls-8{stroke:#3372f7;}.cls-11,.cls-7{stroke-miterlimit:10;}.cls-9{stroke:#c1d8fb;}.cls-11{stroke:#ffcb58;}</style></defs><title>11Asset 3money-img7</title><g id="Layer_2" data-name="Layer 2"><g id="Layer_1-2" data-name="Layer 1"><circle class="cls-1" cx="221.08" cy="167.14" r="167.14"/><circle class="cls-2" cx="53.68" cy="243.14" r="1.49"/><rect class="cls-3" x="88.7" y="235.86" width="261.45" height="157.56"/><rect class="cls-4" x="88.7" y="233.06" width="261.45" height="21.35"/><line class="cls-5" x1="88.7" y1="290.75" x2="350.15" y2="290.75"/><line class="cls-5" x1="350.15" y1="304.28" x2="88.7" y2="304.28"/><polygon class="cls-5" points="167.95 373.6 140.51 373.6 140.51 316.61 154.23 316.61 167.95 316.61 167.95 373.6"/><line class="cls-5" x1="154.23" y1="373.6" x2="154.23" y2="316.61"/><line class="cls-5" x1="140.51" y1="330.86" x2="167.95" y2="330.86"/><line class="cls-5" x1="140.51" y1="345.11" x2="167.95" y2="345.11"/><line class="cls-5" x1="140.51" y1="359.35" x2="167.95" y2="359.35"/><polygon class="cls-5" points="133.38 373.6 105.94 373.6 105.94 316.61 119.66 316.61 133.38 316.61 133.38 373.6"/><line class="cls-5" x1="119.66" y1="373.6" x2="119.66" y2="316.61"/><line class="cls-5" x1="105.94" y1="330.86" x2="133.38" y2="330.86"/><line class="cls-5" x1="105.94" y1="345.11" x2="133.38" y2="345.11"/><line class="cls-5" x1="105.94" y1="359.35" x2="133.38" y2="359.35"/><polygon class="cls-5" points="334.77 373.6 307.33 373.6 307.33 316.61 321.05 316.61 334.77 316.61 334.77 373.6"/><line class="cls-5" x1="321.05" y1="373.6" x2="321.05" y2="316.61"/><line class="cls-5" x1="307.33" y1="330.86" x2="334.77" y2="330.86"/><line class="cls-5" x1="307.33" y1="345.11" x2="334.77" y2="345.11"/><line class="cls-5" x1="307.33" y1="359.35" x2="334.77" y2="359.35"/><polygon class="cls-5" points="300.2 373.6 272.76 373.6 272.76 316.61 286.48 316.61 300.2 316.61 300.2 373.6"/><line class="cls-5" x1="286.48" y1="373.6" x2="286.48" y2="316.61"/><line class="cls-5" x1="272.76" y1="330.86" x2="300.21" y2="330.86"/><line class="cls-5" x1="272.76" y1="345.11" x2="300.21" y2="345.11"/><line class="cls-5" x1="272.76" y1="359.35" x2="300.21" y2="359.35"/><polygon class="cls-6" points="81.76 241.89 0 274.04 0 282.11 88.7 282.11 88.86 244.66 81.76 241.89"/><rect class="cls-3" x="9.78" y="290.33" width="79.09" height="114.66"/><polygon class="cls-1" points="88.7 257.12 61.26 282.11 88.7 282.11 88.7 257.12 88.7 257.12"/><rect class="cls-6" x="6.99" y="282.98" width="81.72" height="7.35"/><rect class="cls-1" x="67.32" y="282.98" width="21.55" height="7.35"/><path class="cls-4" d="M49.32,351.47h0a11.94,11.94,0,0,1,11.94,11.94v40.4A1.16,1.16,0,0,1,60.11,405H38.54a1.16,1.16,0,0,1-1.16-1.16v-40.4A11.94,11.94,0,0,1,49.32,351.47Z"/><path class="cls-7" d="M49.08,347.66h.47A14.41,14.41,0,0,1,64,362.07v41.48a1,1,0,0,1-1,1H35.72a1,1,0,0,1-1-1V362.07a14.41,14.41,0,0,1,14.41-14.41Z"/><path class="cls-4" d="M88.7,290.33V405H64V362.07A14.48,14.48,0,0,0,49.56,347.6h0Z"/><rect class="cls-4" x="9.78" y="290.33" width="78.93" height="4.76"/><line class="cls-7" x1="49.32" y1="404.53" x2="49.32" y2="363.41"/><line class="cls-7" x1="37.38" y1="363.41" x2="61.26" y2="363.41"/><polygon class="cls-6" points="357.23 241.89 438.99 274.04 438.99 282.11 350.29 282.11 350.13 244.66 357.23 241.89"/><rect class="cls-3" x="350.13" y="290.33" width="79.09" height="114.66" transform="translate(779.34 695.32) rotate(-180)"/><polygon class="cls-1" points="350.29 257.12 377.73 282.11 350.29 282.11 350.29 257.12 350.29 257.12"/><rect class="cls-6" x="350.29" y="282.98" width="81.72" height="7.35" transform="translate(782.29 573.31) rotate(-180)"/><rect class="cls-1" x="350.13" y="282.98" width="21.55" height="7.35" transform="translate(721.8 573.31) rotate(-180)"/><path class="cls-4" d="M378.89,351.47h21.57a1.16,1.16,0,0,1,1.16,1.16V393A11.94,11.94,0,0,1,389.67,405h0A11.94,11.94,0,0,1,377.73,393v-40.4A1.16,1.16,0,0,1,378.89,351.47Z" transform="translate(779.34 756.43) rotate(-180)"/><path class="cls-7" d="M376.07,347.66h27.21a1,1,0,0,1,1,1v41.48a14.41,14.41,0,0,1-14.41,14.41h-.47A14.41,14.41,0,0,1,375,390.19V348.71A1,1,0,0,1,376.07,347.66Z" transform="translate(779.34 752.26) rotate(-180)"/><path class="cls-4" d="M350.29,290.33V405H375V362.07a14.48,14.48,0,0,1,14.41-14.48h0Z"/><rect class="cls-4" x="350.29" y="290.33" width="78.93" height="4.76" transform="translate(779.5 585.42) rotate(-180)"/><line class="cls-7" x1="389.67" y1="404.53" x2="389.67" y2="363.41"/><line class="cls-7" x1="401.61" y1="363.41" x2="377.73" y2="363.41"/><rect class="cls-1" x="79.99" y="385.91" width="279.73" height="19.05"/><rect class="cls-6" x="69.43" y="393.38" width="300.85" height="11.58"/><polygon class="cls-6" points="358.91 221.03 358.91 213.54 220.74 145.45 82.58 213.54 82.58 221.03 77.36 223.97 77.36 228.85 364.12 228.85 364.12 223.97 358.91 221.03"/><polygon class="cls-8" points="220.74 153.23 88.77 217.07 88.77 221.07 352.72 221.07 352.72 217.07 220.74 153.23"/><path class="cls-1" d="M220.74,153.23s-9.36,62,132,63.84Z"/><line class="cls-9" x1="88.77" y1="221.07" x2="312.31" y2="221.07"/><rect class="cls-1" x="81.76" y="229.83" width="277.96" height="12.06"/><polygon class="cls-3" points="356.46 247.43 85.02 247.43 81.76 241.89 359.72 241.89 356.46 247.43"/><rect class="cls-6" x="107.99" y="233.06" width="225.5" height="5.21" rx="2.61" ry="2.61"/><polygon class="cls-1" points="113.52 252.19 93.72 252.19 90.93 385.91 116.31 385.91 113.52 252.19"/><path class="cls-4" d="M113.55,254s-19.86,14-19.86,0Z"/><path class="cls-1" d="M111.38,254.41H95.86a6.06,6.06,0,0,1-6-5.41l-.17-1.57h27.92l-.17,1.57A6.06,6.06,0,0,1,111.38,254.41Z"/><polygon class="cls-1" points="181.82 252.19 162.03 252.19 159.24 385.91 184.62 385.91 181.82 252.19"/><path class="cls-4" d="M181.86,254S162,268,162,254Z"/><path class="cls-1" d="M179.69,254.41H164.17a6.06,6.06,0,0,1-6-5.41l-.17-1.57h27.92l-.17,1.57A6.06,6.06,0,0,1,179.69,254.41Z"/><polygon class="cls-1" points="279.45 252.19 259.66 252.19 256.87 385.91 282.25 385.91 279.45 252.19"/><path class="cls-4" d="M279.49,254s-19.86,14.61-19.86,0Z"/><path class="cls-1" d="M277.32,254.41H261.8a6.06,6.06,0,0,1-6-5.41l-.17-1.57h27.92l-.17,1.57A6.06,6.06,0,0,1,277.32,254.41Z"/><polygon class="cls-1" points="347.76 252.19 327.96 252.19 325.17 385.91 350.55 385.91 347.76 252.19"/><path class="cls-4" d="M347.79,254s-19.86,14.61-19.86,0Z"/><path class="cls-1" d="M345.62,254.41H330.1a6.06,6.06,0,0,1-6-5.41l-.17-1.57h27.92l-.17,1.57A6.06,6.06,0,0,1,345.62,254.41Z"/><path class="cls-3" d="M279,393.38s-37.73-10.39-61.19,0Z"/><path class="cls-1" d="M232.91,405.26s-11.46-7.53-24.54-3.08c-14.4,4.9-18.69-12-41-3.3-5.5,2.15-13.34,6.38-13.34,6.38Z"/><polyline class="cls-10" points="247.16 393.38 370.28 393.38 370.28 404.96"/><line class="cls-8" x1="247.16" y1="393.38" x2="197.26" y2="393.38"/><polyline class="cls-2" points="129.89 385.49 79.99 385.49 79.99 393.42"/><polyline class="cls-10" points="203.34 161.8 220.74 153.23 352.72 217.07 352.72 221.07"/><polyline class="cls-8" points="132.55 393.38 69.43 393.38 69.43 404.1"/><rect class="cls-4" x="193.34" y="310.66" width="53.67" height="74.82"/><rect class="cls-7" x="197.88" y="314.64" width="44.59" height="70.84"/><line class="cls-7" x1="220.17" y1="314.64" x2="220.17" y2="385.49"/><rect class="cls-7" x="200.54" y="317.8" width="16.87" height="16.87" rx="1.38" ry="1.38"/><rect class="cls-7" x="200.54" y="365.17" width="16.87" height="16.87" rx="1.38" ry="1.38"/><rect class="cls-7" x="200.54" y="341.63" width="16.87" height="16.87" rx="1.38" ry="1.38"/><rect class="cls-7" x="223.08" y="317.8" width="16.87" height="16.87" rx="1.38" ry="1.38"/><rect class="cls-7" x="223.08" y="365.17" width="16.87" height="16.87" rx="1.38" ry="1.38"/><rect class="cls-7" x="223.08" y="341.63" width="16.87" height="16.87" rx="1.38" ry="1.38"/><circle class="cls-11" cx="222.49" cy="350.06" r="1.4"/><circle class="cls-11" cx="217.85" cy="350.06" r="1.4"/><polyline class="cls-8" points="438.99 282.11 438.99 274.04 408.89 262.2"/><line class="cls-10" x1="365.16" y1="282.11" x2="438.99" y2="282.11"/><line class="cls-10" x1="432" y1="290.33" x2="432" y2="282.98"/><line class="cls-5" x1="133.38" y1="290.75" x2="133.38" y2="249.24"/><line class="cls-5" x1="140.51" y1="290.75" x2="140.51" y2="249.24"/><line class="cls-5" x1="300.26" y1="290.75" x2="300.26" y2="249.24"/><line class="cls-5" x1="307.33" y1="290.75" x2="307.33" y2="249.24"/><line class="cls-5" x1="217.21" y1="290.75" x2="217.21" y2="249.24"/><line class="cls-5" x1="224.28" y1="290.75" x2="224.28" y2="249.24"/><path class="cls-2" d="M235.17,204.92a15.06,15.06,0,1,1-24.81-16.2"/><polygon class="cls-1" points="221.72 436.58 230.5 460.15 296.91 459.71 278.8 436.58 221.72 436.58"/><polygon class="cls-9" points="316.78 419.07 367.55 419.07 394.92 436.58 337.29 436.58 316.78 419.07"/><polygon class="cls-9" points="221.72 436.58 163.57 436.58 163.57 419.07 214.88 419.07 221.72 436.58"/><polyline class="cls-9" points="242.93 491.13 230.5 460.15 96.69 460.15 84.65 491.13 193.06 491.13"/><line class="cls-9" x1="133.73" y1="436.58" x2="328.34" y2="436.58"/><line class="cls-9" x1="62.18" y1="419.07" x2="119.55" y2="419.07"/><line class="cls-9" x1="64.3" y1="544.14" x2="112.3" y2="419.07"/><path class="cls-9" d="M105.16,436.58"/><line class="cls-9" x1="163.57" y1="408.29" x2="163.31" y2="490.94"/><line class="cls-9" x1="256.65" y1="408.29" x2="378.79" y2="564.3"/><line class="cls-9" x1="221.71" y1="436.58" x2="230.51" y2="460.15"/><line class="cls-9" x1="225.57" y1="460.15" x2="396.55" y2="460.15"/><path class="cls-9" d="M99,460.15"/><line class="cls-9" x1="249.92" y1="419.07" x2="375.06" y2="419.07"/><line class="cls-9" x1="304.76" y1="408.29" x2="325.17" y2="426.23"/><line class="cls-9" x1="435.62" y1="427.82" x2="398.22" y2="408.29"/><line class="cls-9" x1="70.42" y1="408.29" x2="1.47" y2="493.15"/><polyline class="cls-9" points="210.65 408.3 214.88 419.07 230.5 419.07"/><line class="cls-9" x1="350.35" y1="447.86" x2="440.01" y2="524.75"/><polygon class="cls-1" points="62.18 419.07 47.53 436.58 105.16 436.58 112.3 419.07 62.18 419.07"/><polygon class="cls-1" points="163.49 459.71 163.31 490.94 85.14 490.94 97.33 459.71 163.49 459.71"/><line class="cls-9" x1="84.65" y1="491.13" x2="43.65" y2="491.13"/><line class="cls-9" x1="224.72" y1="491.13" x2="412.33" y2="491.13"/><line class="cls-9" x1="163.57" y1="490.95" x2="163.57" y2="520.44"/><line class="cls-9" x1="394.92" y1="436.58" x2="438.99" y2="466.31"/></g><g id="Layer_3" data-name="Layer 3"><path class="cls-4" d="M197.7,184.15h17.89v3.32l-6,6.25a8.08,8.08,0,0,1,6.77,8c0,4.9-4.16,8.47-9.92,8.47A9.63,9.63,0,0,1,196.43,201l5.19-.81c.35,3,2.22,5.19,4.8,5.19a4.14,4.14,0,1,0,0-8.26,5.34,5.34,0,0,0-2.08.39L203,194.17l5.61-5.54H197.7Z"/><path class="cls-4" d="M234.15,190.15a7.55,7.55,0,1,1-7.55-7.55A7.24,7.24,0,0,1,234.15,190.15Zm-10.69,0a3.14,3.14,0,1,0,6.28,0,3.14,3.14,0,1,0-6.28,0Zm6.46,19.12h-5l17.93-26.18h5Zm23.78-7.06a7.53,7.53,0,1,1-7.55-7.55A7.22,7.22,0,0,1,253.7,202.21Zm-10.66,0a3.12,3.12,0,1,0,3.11-3.14A3,3,0,0,0,243,202.21Z"/></g></g></svg>