<svg xmlns="http://www.w3.org/2000/svg" viewBox="0 0 325.65 325.48"><defs><style>.cls-1{fill:#3c9940;}.cls-2{fill:#7dea84;}.cls-3{fill:#bcd3dd;}.cls-4{fill:#cadee5;}</style></defs><title>11Asset 5money-img5</title><g id="Layer_2" data-name="Layer 2"><g id="Layer_1-2" data-name="Layer 1"><path class="cls-1" d="M164.29,212.14c-2.27-4.55-4-8.59-6.2-12.32C150,186.23,137.92,178,122.57,174.66c-12-2.63-22.88-7.36-31.43-16.29-3.66-3.83-6.44-8.55-9.32-13.06a4.37,4.37,0,0,1,.33-4c10.67-13,21.49-25.93,32.28-38.85a13.07,13.07,0,0,1,1.29-1.12c.52,1,1,1.78,1.36,2.63q11.23,28.18,40.84,34.74c13.47,3,25.19,9,34.2,19.72.35.42.71.84,1,1.28,7,9.44,7,9.44-.45,18.41L167.33,208.5Zm-2.71-16.33c2.74-1.41,5.63-1.73,8.57.14a2.34,2.34,0,0,0,2.18-.51c5.56-6.52,11-13.12,16.46-19.64-4.08-7-4.06-7.51,1-13.95-3.29-3-6.44-6.35-10-9.06-6.78-5.1-14.64-8-22.86-9.79-11.3-2.52-21.41-7.35-29.66-15.57-3.15-3.14-5.87-6.72-7.76-8.91-4-.75-6.73-1.39-9.51-1.71a3.54,3.54,0,0,0-2.63,1.13c-4.94,5.76-9.74,11.65-14.67,17.43-1.24,1.45-1.25,2.36,0,3.89,2.33,2.79,2.07,6.25-.23,9.06-.68.83-1.38,1.65-2.5,3,3.38,3.05,6.51,6.3,10.06,9,7.23,5.47,15.67,8.28,24.42,10.27,10.16,2.32,19.32,6.7,26.86,14C154.82,188,158,191.81,161.58,195.8Z"/><polygon class="cls-1" points="85.04 144.52 102.61 119.33 113.11 110.87 125.62 121.31 141.51 134.56 168.71 144.92 188.16 157.7 195.03 171.46 166.69 205.45 149.27 185.76 128.47 173.58 98.2 162.09 85.04 144.52"/><path class="cls-2" d="M166.13,186.94c-2.21-4.58-3.86-8.64-6-12.4-7.93-13.69-19.89-22.05-35.19-25.63-11.93-2.79-22.78-7.66-31.21-16.71-3.61-3.88-6.33-8.64-9.15-13.18a4.37,4.37,0,0,1,.38-4c10.84-12.88,21.83-25.64,32.79-38.42a13.07,13.07,0,0,1,1.3-1.1c.51,1,1,1.8,1.32,2.65q10.86,28.33,40.38,35.28c13.42,3.16,25.06,9.34,33.94,20.17.35.42.7.85,1,1.29,6.92,9.53,6.91,9.53-.69,18.4l-25.78,30.08Zm-2.49-16.37c2.76-1.38,5.65-1.65,8.57.26a2.34,2.34,0,0,0,2.19-.48c5.64-6.45,11.2-13,16.72-19.42-4-7.08-4-7.56,1.18-13.93-3.25-3-6.35-6.43-9.93-9.2-6.71-5.19-14.53-8.15-22.73-10.09-11.27-2.67-21.31-7.63-29.45-16-3.11-3.19-5.79-6.8-7.64-9-4-.8-6.71-1.48-9.49-1.84A3.54,3.54,0,0,0,110.4,92c-5,5.7-9.89,11.52-14.9,17.23-1.25,1.43-1.28,2.34,0,3.89,2.29,2.82,2,6.28-.35,9.06-.69.82-1.4,1.63-2.54,3,3.34,3.1,6.43,6.39,9.94,9.12,7.16,5.57,15.56,8.48,24.28,10.59,10.13,2.45,19.22,7,26.67,14.34C157,162.66,160.06,166.53,163.64,170.57Z"/><polygon class="cls-2" points="87.78 118.28 105.69 93.31 116.29 85 128.66 95.6 144.38 109.07 171.44 119.78 190.72 132.82 197.41 146.67 168.61 180.28 151.46 160.37 130.82 147.9 100.71 136.02 87.78 118.28"/><ellipse class="cls-1" cx="140.2" cy="129.65" rx="15.47" ry="24.21" transform="translate(-39.78 193.44) rotate(-62.28)"/><path class="cls-1" d="M227.1,79.45c4.1-.95,7.68-1.54,11.11-2.61,12.5-3.9,21.42-12,27.1-23.73,4.43-9.12,10.34-17,19.17-22.14,3.79-2.21,8.12-3.53,12.31-5A3.62,3.62,0,0,1,300,27c8.42,11.1,16.71,22.29,25,33.47a10.81,10.81,0,0,1,.65,1.25c-.91.23-1.63.48-2.38.58q-24.84,3.6-35.83,26.16c-5,10.26-12.11,18.53-22.47,23.71-.41.2-.81.41-1.23.59-9,3.85-9,3.84-14.73-3.91L229.44,82.6Zm13.67,1A6.68,6.68,0,0,1,239,87.29a1.94,1.94,0,0,0,0,1.85c4.18,5.73,8.43,11.4,12.63,17,6.44-1.93,6.82-1.82,11,3.49,3.05-2.07,6.35-4,9.23-6.34,5.41-4.47,9.23-10.24,12.29-16.51,4.21-8.61,10-15.81,18.25-20.86,3.14-1.93,6.54-3.43,8.66-4.52,1.37-3.06,2.42-5.15,3.21-7.32a2.93,2.93,0,0,0-.4-2.34c-3.68-5.09-7.5-10.08-11.19-15.17-.93-1.27-1.66-1.46-3.13-.73-2.7,1.33-5.43.45-7.25-1.94-.54-.71-1.06-1.43-1.93-2.59-3.11,2.13-6.33,4-9.17,6.36-5.8,4.76-9.68,11-13,17.67A45.88,45.88,0,0,1,251.8,74.3C248.37,76.49,244.68,78.27,240.77,80.42Z"/><polygon class="cls-1" points="296.8 28.74 313.69 47.74 318.46 57.81 307.65 65.86 293.92 76.1 280.33 95.98 266.3 109.16 253.9 112.04 232.02 82.67 251.22 72.46 265.04 58.07 280.13 35.93 296.8 28.74"/><path class="cls-2" d="M74.26,270.42c-2.72,1.64-5.15,2.91-7.37,4.48-8.06,5.74-12.57,13.67-13.9,23.4-1,7.59-3.44,14.63-8.58,20.4a52.14,52.14,0,0,1-7.67,6.46,2.74,2.74,0,0,1-2.53,0C25.56,319.17,17,313.07,8.38,307a8.17,8.17,0,0,1-.76-.75c.6-.37,1.06-.72,1.57-1q17-8.41,19.6-27.19c1.18-8.54,4.35-16.15,10.58-22.3.24-.24.49-.49.74-.71,5.53-4.86,5.53-4.86,11.5-.64l20.23,14.29Zm-10,2.51a5.05,5.05,0,0,1-.34-5.35,1.46,1.46,0,0,0-.43-1.33c-4.34-3.14-8.73-6.21-13.06-9.27-4.17,2.89-4.48,2.9-8.74.08-1.71,2.2-3.63,4.33-5.14,6.72a36.54,36.54,0,0,0-5,14.74,36.9,36.9,0,0,1-8.22,19.26c-1.8,2.12-3.9,4-5.16,5.28-.27,2.52-.53,4.26-.59,6a2.22,2.22,0,0,0,.84,1.59c3.84,2.79,7.75,5.49,11.6,8.27a1.55,1.55,0,0,0,2.42-.21,4.24,4.24,0,0,1,5.66-.31l2,1.41c1.73-2.26,3.6-4.37,5.1-6.72,3-4.78,4.37-10.18,5.18-15.74a34.67,34.67,0,0,1,7.37-17.44C59.68,277.53,61.91,275.39,64.22,272.93Z"/><polygon class="cls-2" points="36.09 323.2 19.51 313.51 13.71 307.39 19.59 299.07 27.06 288.5 32.15 271.03 39.14 258.27 47.37 253.3 69.97 269.26 58.58 281.1 52.02 294.68 46.38 314.12 36.09 323.2"/><ellipse class="cls-1" cx="40.11" cy="289.9" rx="15.13" ry="9.67" transform="translate(-243.24 216.67) rotate(-67.63)"/><path class="cls-2" d="M199.68,0c1.76,1.33,3.21,2.57,4.8,3.59A23,23,0,0,0,223.2,6.5c5.17-1.3,10.34-1.57,15.39.25A36.27,36.27,0,0,1,244.75,10a1.9,1.9,0,0,1,.66,1.63c-1.63,7.14-3.34,14.26-5,21.38a5.68,5.68,0,0,1-.29.68c-.4-.29-.74-.5-1-.76a23.56,23.56,0,0,0-22.64-5.6,26.06,26.06,0,0,1-17.14-1c-.22-.09-.44-.19-.65-.29-4.57-2.31-4.57-2.31-3.39-7.25l4-16.76Zm4.22,5.83a3.51,3.51,0,0,1-3.36,1.61,1,1,0,0,0-.75.62c-.9,3.62-1.75,7.25-2.6,10.84,2.95,1.94,3,2.14,2.32,5.62,1.87.53,3.74,1.22,5.67,1.58a25.42,25.42,0,0,0,10.8-.62,25.67,25.67,0,0,1,14.57.31c1.84.61,3.59,1.48,4.75,2,1.7-.48,2.89-.76,4-1.18a1.54,1.54,0,0,0,.81-1c.81-3.2,1.53-6.43,2.33-9.63.2-.8,0-1.16-.77-1.51A3,3,0,0,1,240,10.91c.1-.46.22-.91.39-1.65-1.91-.53-3.76-1.19-5.66-1.55a27.13,27.13,0,0,0-11.5.74,24.12,24.12,0,0,1-13.17-.24C208.06,7.57,206.1,6.68,203.91,5.83Z"/><polygon class="cls-2" points="243.65 10.96 241.69 24.17 239.25 29.5 232.35 27.86 223.6 25.78 211 27.02 200.95 25.82 195.61 21.8 200.05 3.07 210.65 7.36 221.11 8.07 235.12 6.67 243.65 10.96"/><ellipse class="cls-1" cx="221.11" cy="16.99" rx="6.73" ry="10.53" transform="translate(202.25 237.96) rotate(-89.51)"/><path class="cls-1" d="M.63,197.44c2.81.39,5.22.88,7.64,1A29.52,29.52,0,0,0,31.09,190c5-4.69,10.62-8.23,17.44-9.35a46.61,46.61,0,0,1,9-.17,2.44,2.44,0,0,1,1.76,1.42C61.89,191,64.42,200,67,209.1a7.3,7.3,0,0,1,.11.95c-.63-.08-1.14-.09-1.64-.21q-16.54-3.72-28.91,7.86c-5.63,5.27-12.11,8.77-19.89,9.54-.31,0-.61.06-.92.08-6.58.27-6.57.27-8.35-6q-3-10.65-6-21.31ZM9,201.35a4.51,4.51,0,0,1-2.77,3.91,1.31,1.31,0,0,0-.45,1.17C7,211,8.36,215.65,9.65,220.21c4.53.34,4.74.5,6.12,4.86,2.43-.57,5-1,7.35-1.77a32.66,32.66,0,0,0,11.73-7.45A33,33,0,0,1,51.4,207.1c2.45-.46,5-.59,6.56-.76,1.6-1.6,2.77-2.66,3.79-3.85a2,2,0,0,0,.31-1.57c-1.1-4.1-2.3-8.17-3.4-12.27-.28-1-.69-1.32-1.8-1.21a3.79,3.79,0,0,1-4.1-3c-.17-.58-.33-1.16-.59-2.1-2.48.6-5,1-7.32,1.8-4.81,1.61-8.77,4.61-12.45,8a31,31,0,0,1-14.93,8C14.76,200.7,12,200.94,9,201.35Z"/><polygon class="cls-1" points="56.84 182.25 62.91 198.31 63.49 205.82 54.73 208.29 43.6 211.44 30.23 220.71 18.2 225.64 9.68 224.46 2.96 200.66 17.54 198.85 29.73 193.1 44.58 182.77 56.84 182.25"/><circle class="cls-3" cx="305.6" cy="198.52" r="19.36" transform="translate(-27.61 50.96) rotate(-9.12)"/><circle class="cls-4" cx="305.6" cy="198.52" r="14.72" transform="translate(-27.61 50.96) rotate(-9.12)"/><circle class="cls-3" cx="11.61" cy="39.36" r="11.61" transform="translate(-6.09 2.34) rotate(-9.12)"/><circle class="cls-4" cx="11.61" cy="39.36" r="8.82" transform="translate(-6.09 2.34) rotate(-9.12)"/><circle class="cls-3" cx="35.45" cy="74.55" r="16.35" transform="translate(-11.37 6.56) rotate(-9.12)"/><circle class="cls-4" cx="35.45" cy="74.55" r="12.43" transform="translate(-11.37 6.56) rotate(-9.12)"/></g></g></svg>