<svg xmlns="http://www.w3.org/2000/svg" xmlns:xlink="http://www.w3.org/1999/xlink" viewBox="0 0 324.17 308.35"><defs><style>.cls-1{fill:url(#linear-gradient);}.cls-2{fill:url(#linear-gradient-2);}.cls-3{fill:url(#linear-gradient-3);}.cls-4{fill:url(#linear-gradient-4);}.cls-5{fill:url(#linear-gradient-5);}.cls-6{fill:url(#linear-gradient-6);}.cls-7{fill:url(#linear-gradient-7);}.cls-8{fill:url(#linear-gradient-8);}.cls-9{fill:url(#linear-gradient-9);}.cls-10{fill:url(#linear-gradient-10);}.cls-11{fill:url(#linear-gradient-11);}.cls-12{fill:url(#linear-gradient-12);}.cls-13{fill:url(#linear-gradient-13);}.cls-14{fill:url(#linear-gradient-14);}</style><linearGradient id="linear-gradient" x1="202.91" y1="91.85" x2="128.44" y2="91.85" gradientUnits="userSpaceOnUse"><stop offset="0" stop-color="#f7cd6c"/><stop offset="0.39" stop-color="#f6c466"/><stop offset="1" stop-color="#f2ad55"/></linearGradient><linearGradient id="linear-gradient-2" x1="-129.34" y1="91.85" x2="-54.88" y2="91.85" gradientTransform="matrix(-1, 0, 0, 1, 148.03, 0)" xlink:href="#linear-gradient"/><linearGradient id="linear-gradient-3" x1="202.91" y1="90.15" x2="153.13" y2="90.15" gradientUnits="userSpaceOnUse"><stop offset="0" stop-color="#f7eb6c"/><stop offset="0.24" stop-color="#f6e269"/><stop offset="0.63" stop-color="#f4ca60"/><stop offset="1" stop-color="#f2ad55"/></linearGradient><linearGradient id="linear-gradient-4" x1="252.69" y1="90.15" x2="202.91" y2="90.15" xlink:href="#linear-gradient-3"/><linearGradient id="linear-gradient-5" x1="65.69" y1="175.82" x2="146.16" y2="175.82" xlink:href="#linear-gradient-3"/><linearGradient id="linear-gradient-6" x1="-92.01" y1="313.02" x2="-28.67" y2="313.02" gradientTransform="translate(186.78 -93.72)" xlink:href="#linear-gradient-3"/><linearGradient id="linear-gradient-7" x1="0.21" y1="277.79" x2="61.32" y2="277.79" xlink:href="#linear-gradient"/><linearGradient id="linear-gradient-8" x1="7.46" y1="277.79" x2="54.07" y2="277.79" xlink:href="#linear-gradient-3"/><linearGradient id="linear-gradient-9" x1="277.37" y1="23.4" x2="324.17" y2="23.4" xlink:href="#linear-gradient"/><linearGradient id="linear-gradient-10" x1="282.93" y1="23.4" x2="318.61" y2="23.4" xlink:href="#linear-gradient-3"/><linearGradient id="linear-gradient-11" x1="20.51" y1="193.11" x2="0" y2="193.11" xlink:href="#linear-gradient"/><linearGradient id="linear-gradient-12" x1="107.01" y1="193.11" x2="127.52" y2="193.11" gradientTransform="matrix(-1, 0, 0, 1, 148.03, 0)" xlink:href="#linear-gradient"/><linearGradient id="linear-gradient-13" x1="20.51" y1="192.65" x2="6.8" y2="192.65" xlink:href="#linear-gradient-3"/><linearGradient id="linear-gradient-14" x1="34.22" y1="192.65" x2="20.51" y2="192.65" xlink:href="#linear-gradient-3"/></defs><title>11Asset 4money-img4</title><g id="Layer_2" data-name="Layer 2"><g id="Layer_1-2" data-name="Layer 1"><polyline class="cls-1" points="202.91 7.88 128.44 91.85 202.91 175.82"/><polyline class="cls-2" points="202.91 7.88 277.37 91.85 202.91 175.82"/><polyline class="cls-3" points="202.91 34.02 153.13 90.15 202.91 146.29"/><polyline class="cls-4" points="202.91 34.02 252.69 90.15 202.91 146.29"/><rect class="cls-5" x="65.69" y="158.53" width="80.47" height="34.59" rx="4.24" ry="4.24"/><rect class="cls-6" x="94.78" y="205.69" width="63.33" height="27.22" rx="3.33" ry="3.33" transform="translate(252.88 438.61) rotate(180)"/><circle class="cls-7" cx="30.77" cy="277.79" r="30.56"/><circle class="cls-8" cx="30.77" cy="277.79" r="23.3"/><circle class="cls-9" cx="300.77" cy="23.4" r="23.4"/><circle class="cls-10" cx="300.77" cy="23.4" r="17.84"/><polyline class="cls-11" points="20.51 169.99 0 193.11 20.51 216.24"/><polyline class="cls-12" points="20.51 169.99 41.02 193.11 20.51 216.24"/><polyline class="cls-13" points="20.51 177.18 6.8 192.65 20.51 208.11"/><polyline class="cls-14" points="20.51 177.18 34.22 192.65 20.51 208.11"/></g></g></svg>