<svg xmlns="http://www.w3.org/2000/svg" viewBox="0 0 16.09 10.49"><defs><style>.cls-1{fill:#c8cacc;}.cls-2{fill:none;stroke:#c8cacc;stroke-linecap:round;stroke-linejoin:round;stroke-width:0.75px;}</style></defs><title>11Asset 2img-courtesy</title><g id="Layer_2" data-name="Layer 2"><g id="Layer_1-2" data-name="Layer 1"><path class="cls-1" d="M14.09,1.73A1.25,1.25,0,0,1,15.34,3V8.49a1.25,1.25,0,0,1-1.25,1.25H2A1.25,1.25,0,0,1,.75,8.49V3A1.25,1.25,0,0,1,2,1.73H14.09m0-.75H2A2,2,0,0,0,0,3V8.49a2,2,0,0,0,2,2H14.09a2,2,0,0,0,2-2V3a2,2,0,0,0-2-2Z"/><circle class="cls-2" cx="8.04" cy="5.73" r="2.89"/><rect class="cls-1" x="10.37" width="3.14" height="1.39"/></g></g></svg>