<svg xmlns="http://www.w3.org/2000/svg" viewBox="0 0 29.4 29.4"><defs><style>.cls-1{fill:#9aa4b7;opacity:0.5;}.cls-2{fill:#fff;}</style></defs><title>11Asset 6linkdin</title><g id="Layer_2" data-name="Layer 2"><g id="Layer_1-2" data-name="Layer 1"><circle class="cls-1" cx="14.7" cy="14.7" r="14.7"/><path class="cls-2" d="M15.48,13.69c.16-.19.31-.38.47-.55a2.5,2.5,0,0,1,1.53-.75,3.49,3.49,0,0,1,1.69.17,2.7,2.7,0,0,1,1.46,1.27,4.55,4.55,0,0,1,.5,2.24c0,1.56,0,3.12,0,4.68,0,0,0,.05,0,.09H18.37v-.13q0-2.11,0-4.23a3.18,3.18,0,0,0-.15-1.08,1.25,1.25,0,0,0-1.35-.86,1.5,1.5,0,0,0-1.33,1.09,2.42,2.42,0,0,0-.07.67c0,1.47,0,2.93,0,4.4v.15H12.73V12.55h2.63c.1,0,.12,0,.12.12,0,.3,0,.6,0,.91Z"/><path class="cls-2" d="M11.18,12.55v8.29H8.56c-.1,0-.12,0-.12-.12q0-4,0-8c0-.1,0-.12.12-.12h2.63Z"/><path class="cls-2" d="M9.81,11.42a1.48,1.48,0,0,1-1.31-.65,1.4,1.4,0,0,1,.78-2.13,1.68,1.68,0,0,1,1.51.2,1.34,1.34,0,0,1,.57,1.35,1.29,1.29,0,0,1-.9,1.12,4.92,4.92,0,0,1-.64.14Z"/></g></g></svg>