<svg xmlns="http://www.w3.org/2000/svg" viewBox="0 0 29.4 29.4"><defs><style>.cls-1{fill:#9aa4b7;opacity:0.5;}.cls-2{fill:#fff;}</style></defs><title>11Asset 7mail</title><g id="Layer_2" data-name="Layer 2"><g id="Layer_1-2" data-name="Layer 1"><circle class="cls-1" cx="14.7" cy="14.7" r="14.7"/><path class="cls-2" d="M14.7,16l7-5.82a.81.81,0,0,0-.26-.05H7.95a.83.83,0,0,0-.28.06Z"/><path class="cls-2" d="M22.29,10.94a.82.82,0,0,0-.1-.37l-4.79,4,4.82,4.82a.84.84,0,0,0,.07-.33Z"/><path class="cls-2" d="M16.92,14.95l-2,1.67h0a.31.31,0,0,1-.18.06h0a.31.31,0,0,1-.18-.06h0l-2-1.67L7.62,19.81a.84.84,0,0,0,.33.07h13.5a.83.83,0,0,0,.33-.07Z"/><path class="cls-2" d="M7.19,10.59a.82.82,0,0,0-.09.36V19a.84.84,0,0,0,.07.33L12,14.55Z"/></g></g></svg>