<svg xmlns="http://www.w3.org/2000/svg" xmlns:xlink="http://www.w3.org/1999/xlink" viewBox="0 0 83.25 83.25"><defs><style>.cls-1{fill:#ef9d43;}.cls-2{clip-path:url(#clip-path);}.cls-3{fill:url(#linear-gradient);}.cls-4{fill:#fff;}</style><clipPath id="clip-path"><circle class="cls-1" cx="41.62" cy="41.62" r="41.62"/></clipPath><linearGradient id="linear-gradient" x1="52.83" y1="16.91" x2="52.83" y2="83.25" gradientUnits="userSpaceOnUse"><stop offset="0" stop-color="#b4761a"/><stop offset="1" stop-color="#e06669" stop-opacity="0.5"/></linearGradient></defs><title>11Asset 1bitcoin</title><g id="Layer_2" data-name="Layer 2"><g id="Layer_1-2" data-name="Layer 1"><circle class="cls-1" cx="41.62" cy="41.62" r="41.62"/><g class="cls-2"><polygon class="cls-3" points="22.4 60.09 53.03 81.67 83.25 83.25 83.25 47.59 46.08 16.91 41.63 26.24 33.29 26.24 32.66 55.54 22.4 60.09"/></g><path class="cls-4" d="M32.12,16.91h5.07v6.17H41V16.91h5.05v6.15c.95,0,1.84.06,2.73.13a11.44,11.44,0,0,1,5.64,1.73c5.06,3.43,5.79,11.59-.46,15.19l-.49.28c.35.12.66.22,1,.34.59.25,1.19.49,1.77.77a7.75,7.75,0,0,1,4.5,6.31,11.19,11.19,0,0,1-1.84,7.94A8.1,8.1,0,0,1,54.38,59,23.11,23.11,0,0,1,47,60.09h-.88v6.24H41.05V60.12H37.19v6.22H32.14V60.09H22.4V54.6c1.08,0,2.15,0,3.21,0a3.44,3.44,0,0,0,1.23-.23,2.79,2.79,0,0,0,1.8-2.76q0-7.06,0-14.12c0-2,0-3.9,0-5.85a2.92,2.92,0,0,0-3.06-3.05H22.4V23.1h9.71Zm5.09,37.48h.44c2.47,0,4.93,0,7.4,0a6.58,6.58,0,0,0,4.32-1.6,4.65,4.65,0,0,0,.16-7.18,6.47,6.47,0,0,0-4.42-1.75c-2.49,0-5,0-7.47,0h-.42Zm0-15.68h.51c2.27,0,4.53,0,6.8,0a3.42,3.42,0,0,0,2.6-1.11,6.06,6.06,0,0,0,0-7.89,3.42,3.42,0,0,0-2.6-1.13c-2.29,0-4.59,0-6.88,0h-.44Z"/></g></g></svg>