<svg xmlns="http://www.w3.org/2000/svg" xmlns:xlink="http://www.w3.org/1999/xlink" viewBox="0 0 30.25 30.25"><defs><style>.cls-1{fill:#9a66dd;}.cls-2{clip-path:url(#clip-path);}.cls-3{fill:url(#linear-gradient);}.cls-4{fill:#fff;}</style><clipPath id="clip-path"><circle class="cls-1" cx="15.12" cy="15.12" r="15.12"/></clipPath><linearGradient id="linear-gradient" x1="18.65" y1="6.97" x2="18.65" y2="30.25" gradientUnits="userSpaceOnUse"><stop offset="0" stop-color="#7345dd"/><stop offset="1" stop-color="#9a6593" stop-opacity="0.5"/></linearGradient></defs><title>11Asset 10blockchain-icon-menu</title><g id="Layer_2" data-name="Layer 2"><g id="Layer_1-2" data-name="Layer 1"><circle class="cls-1" cx="15.12" cy="15.12" r="15.12"/><g class="cls-2"><polygon class="cls-3" points="8 22.54 17.41 30.25 30.25 30.25 30.25 15.8 21.18 6.97 15.12 9.53 13.51 10.99 7.06 17.29 8 22.54"/></g><path class="cls-4" d="M12.83,11.37c.16-.19.31-.4.48-.58q1.52-1.53,3.05-3.06A4,4,0,0,1,18.64,6.6a4.2,4.2,0,0,1,3.67,1.17A4.22,4.22,0,0,1,23.59,10a4.1,4.1,0,0,1-.9,3.67c-.48.56-1,1.06-1.55,1.59l-1.57,1.57a4.25,4.25,0,0,1-6.06,0A1,1,0,0,1,14.9,15.4,2.39,2.39,0,0,0,16,16a2.16,2.16,0,0,0,2.1-.57c1-.93,1.88-1.88,2.82-2.81a2.47,2.47,0,0,0,.66-1,2.17,2.17,0,0,0-.43-2.22,2.34,2.34,0,0,0-1.22-.81,2.16,2.16,0,0,0-2.15.56c-.78.76-1.54,1.53-2.3,2.3a.22.22,0,0,1-.25.06A4.82,4.82,0,0,0,13,11.4h-.1Z"/><path class="cls-4" d="M17.41,18.88c-.19.22-.36.45-.57.66L14,22.43a4.26,4.26,0,0,1-6,.11,4.33,4.33,0,0,1-1.26-1.92,4.24,4.24,0,0,1-.17-1.77,4.3,4.3,0,0,1,1.31-2.63l2.89-2.88a4,4,0,0,1,2.32-1.15,4.15,4.15,0,0,1,3.62,1.19,1,1,0,0,1-1.33,1.5,2.65,2.65,0,0,0-.87-.57,2.14,2.14,0,0,0-2.32.47c-1,1-2,2-3,3a2.22,2.22,0,0,0,0,3.07,2.42,2.42,0,0,0,1.18.75A2.16,2.16,0,0,0,12.49,21c.78-.75,1.54-1.53,2.3-2.3a.21.21,0,0,1,.24-.06,4.83,4.83,0,0,0,2.23.16h.11Z"/></g></g></svg>