<svg xmlns="http://www.w3.org/2000/svg" xmlns:xlink="http://www.w3.org/1999/xlink" viewBox="0 0 30.34 30.34"><defs><style>.cls-1{fill:#5c6bc0;}.cls-2{clip-path:url(#clip-path);}.cls-3{fill:url(#linear-gradient);}.cls-4{fill:#fff;}</style><clipPath id="clip-path"><circle class="cls-1" cx="15.17" cy="15.17" r="15.17"/></clipPath><linearGradient id="linear-gradient" x1="19.29" y1="4.14" x2="19.29" y2="30.34" gradientUnits="userSpaceOnUse"><stop offset="0" stop-color="#4648ab"/><stop offset="1" stop-color="#6160a4" stop-opacity="0.5"/></linearGradient></defs><title>11Asset 11ethereum-icon-menu</title><g id="Layer_2" data-name="Layer 2"><g id="Layer_1-2" data-name="Layer 1"><circle class="cls-1" cx="15.17" cy="15.17" r="15.17"/><g class="cls-2"><polygon class="cls-3" points="8.52 17.19 17.71 30.13 30.34 30.34 30.34 15.85 15.44 4.13 14.96 4.26 10.89 10.91 8.24 15.52 9.19 16.08 8.52 17.19"/></g><path class="cls-4" d="M15.44,4.14l6.39,10.65-.07.07L19.34,13.8l-3.58-1.58c-.22-.09-.38-.17-.37-.47,0-2.47,0-4.95,0-7.42A1.73,1.73,0,0,1,15.44,4.14Z"/><path class="cls-4" d="M8.57,14.84l6.28-10.6.11,0q0,.3,0,.6c0,2.29,0,4.59,0,6.88a.46.46,0,0,1-.32.5c-2,.85-3.91,1.72-5.86,2.59A1,1,0,0,1,8.57,14.84Z"/><path class="cls-4" d="M8.24,15.52l6.68-2.93v6.84Z"/><path class="cls-4" d="M15.42,19.45V12.6l6.68,2.92Z"/><path class="cls-4" d="M21.85,17.16l-6.39,9a2.43,2.43,0,0,1-.07-.37c0-1.56,0-3.11,0-4.67a.67.67,0,0,1,.27-.49c2-1.18,4-2.34,6-3.51l.17-.08Z"/><path class="cls-4" d="M8.59,17.1l2.21,1.29c1.27.74,2.53,1.5,3.8,2.23a.61.61,0,0,1,.36.62c0,1.63,0,3.25-.11,4.94l-6.34-9Z"/></g></g></svg>