<svg xmlns="http://www.w3.org/2000/svg" xmlns:xlink="http://www.w3.org/1999/xlink" viewBox="0 0 360.03 383.51"><defs><style>.cls-1{fill:none;}.cls-2{fill:#f2f3f7;}.cls-3{fill:#ffba83;}.cls-4{fill:#404299;}.cls-5{fill:#fff;}.cls-6{fill:#ffcb58;}.cls-7{fill:#e59e74;}.cls-8{fill:#3372f7;}.cls-9{fill:#967cdf;}.cls-10{fill:#ffc881;}.cls-11{fill:#ffb76b;}.cls-12{fill:#44485d;}.cls-13{fill:#c1d8fb;}.cls-14{fill:#b97850;}.cls-15{fill:#553727;}.cls-16{clip-path:url(#clip-path);}.cls-17{fill:#e1ecfd;}</style><clipPath id="clip-path"><polygon class="cls-1" points="107.6 122.62 100.73 91.06 96.48 91.06 91.64 119.4 100.58 143.75 107.6 122.62"/></clipPath></defs><title>11Asset 9ethereum-img9</title><g id="Layer_2" data-name="Layer 2"><g id="Layer_1-2" data-name="Layer 1"><circle class="cls-2" cx="187.32" cy="183.34" r="167.4"/><g id="leg_R"><path class="cls-3" d="M263.64,351.84l1.07,13.88c0,3.18,0,6-2.89,7.29l-14.53,4.67a2.91,2.91,0,0,0-1.76,2.67h0a2.91,2.91,0,0,0,2.91,2.91H271c4.45,0,8.27-2.11,7.92-6.55-.37-4.83-.37-23-.37-23Z"/><path class="cls-4" d="M262.79,370.38s1.23-1,3.38,1.11c2.77,2.76,7.68,3.19,10,1.11s2.54-2.7,3.54-.7,3,11.51-2.5,11.37h-30a2.75,2.75,0,0,1-2.51-3.87c.51-1.14,2.24-2.62,4.38-3.61C255.51,372.84,262.79,370.38,262.79,370.38Z"/><path class="cls-5" d="M280.15,381.6H244.82a.24.24,0,0,1,0-.48h35.33a.24.24,0,0,1,0,.48Z"/><path class="cls-5" d="M254.94,383.51a.24.24,0,0,1-.24-.24v-1.92a.24.24,0,0,1,.48,0v1.92A.24.24,0,0,1,254.94,383.51Z"/><path class="cls-5" d="M277.15,383.51a.24.24,0,0,1-.24-.24v-1.92a.24.24,0,0,1,.48,0v1.92A.24.24,0,0,1,277.15,383.51Z"/><path class="cls-5" d="M271.59,383.51a.24.24,0,0,1-.24-.24v-1.92a.24.24,0,0,1,.48,0v1.92A.24.24,0,0,1,271.59,383.51Z"/><path class="cls-5" d="M266,383.51a.24.24,0,0,1-.24-.24v-1.92a.24.24,0,0,1,.48,0v1.92A.24.24,0,0,1,266,383.51Z"/><path class="cls-5" d="M260.49,383.51a.24.24,0,0,1-.24-.24v-1.92a.24.24,0,0,1,.48,0v1.92A.24.24,0,0,1,260.49,383.51Z"/><path class="cls-5" d="M249.39,383.51a.24.24,0,0,1-.24-.24v-1.92a.24.24,0,0,1,.48,0v1.92A.24.24,0,0,1,249.39,383.51Z"/><path class="cls-6" d="M262.15,172.39s-5.35,16.76-7.1,23.19c-3.68,13.55,6.56,171.33,6.56,171.33h19.52S292.38,251,294.48,230.07s0-54.79,0-54.79Z"/><polygon class="cls-7" points="274.83 203.92 275.41 366.9 281.13 366.9 294.3 223.89 274.83 203.92"/><polyline class="cls-7" points="281.13 366.9 261.61 366.9 259.14 361.05 278.95 361.05"/></g><g id="leg_L"><path class="cls-3" d="M292.26,351.84l1.07,13.88c0,3.18,0,6-2.89,7.29l-14.53,4.67a2.91,2.91,0,0,0-1.76,2.67h0a2.91,2.91,0,0,0,2.91,2.91h22.57c4.45,0,8.27-2.11,7.92-6.55-.37-4.83-.37-23-.37-23Z"/><path class="cls-8" d="M291.4,370.38s1.23-1,3.38,1.11c2.77,2.76,7.68,3.19,10,1.11s2.54-2.7,3.54-.7,3,11.51-2.5,11.37h-30a2.75,2.75,0,0,1-2.51-3.87c.51-1.14,2.24-2.62,4.38-3.61C284.13,372.84,291.4,370.38,291.4,370.38Z"/><path class="cls-5" d="M308.76,381.6H273.43a.24.24,0,0,1,0-.48h35.33a.24.24,0,1,1,0,.48Z"/><path class="cls-5" d="M283.55,383.51a.24.24,0,0,1-.24-.24v-1.92a.24.24,0,0,1,.48,0v1.92A.24.24,0,0,1,283.55,383.51Z"/><path class="cls-5" d="M305.76,383.51a.24.24,0,0,1-.24-.24v-1.92a.24.24,0,0,1,.48,0v1.92A.24.24,0,0,1,305.76,383.51Z"/><path class="cls-5" d="M300.21,383.51a.24.24,0,0,1-.24-.24v-1.92a.24.24,0,0,1,.48,0v1.92A.24.24,0,0,1,300.21,383.51Z"/><path class="cls-5" d="M294.65,383.51a.24.24,0,0,1-.24-.24v-1.92a.24.24,0,0,1,.48,0v1.92A.24.24,0,0,1,294.65,383.51Z"/><path class="cls-5" d="M289.1,383.51a.24.24,0,0,1-.24-.24v-1.92a.24.24,0,0,1,.48,0v1.92A.24.24,0,0,1,289.1,383.51Z"/><path class="cls-5" d="M278,383.51a.24.24,0,0,1-.24-.24v-1.92a.24.24,0,0,1,.48,0v1.92A.24.24,0,0,1,278,383.51Z"/><polyline class="cls-6" points="292.81 366.9 312.33 366.9 314.79 361.05 294.98 361.05"/><path class="cls-6" d="M312,175.91s6,18.47,7.91,25.6c2.85,10.68-10,165.64-10,165.64H289s-12.25-143-13.65-154.49,2.45-35.9,2.45-35.9Z"/><path class="cls-7" d="M312.33,367.4H289a.24.24,0,0,1-.24-.22c-.6-6.42-14.75-157.4-14.15-163.8s2.25-19.55,2.26-19.68a.24.24,0,1,1,.48.06c0,.13-1.66,13.29-2.26,19.67s13.5,156.79,14.13,163.49h23l2.27-5.63H301.66a.24.24,0,1,1,0-.48h13.13a.24.24,0,0,1,.22.33l-2.46,6.11A.24.24,0,0,1,312.33,367.4Z"/><path class="cls-7" d="M320.53,206h0c-4.75-1-9-4.73-12.29-10.89a43.7,43.7,0,0,1-3.57-9.09.24.24,0,0,1,.47-.11c0,.17,4.34,17.36,15.49,19.62a.24.24,0,0,1,0,.48Z"/></g><path id="bag" class="cls-9" d="M294.3,76.23c15.65,2.21,24.62,4,28.65,27.65s14.72,69.22-11.39,73.7S265,165,267.38,120.63,281.61,74.44,294.3,76.23Z"/><path id="forearm_R" class="cls-4" d="M256.13,91.09c-4.56,6.22-21,37.2-20.93,52.21.1,13.49,17,15.34,20.46,5.54,4.2-11.88,10-63.62,7.18-62.42C260.49,87.42,258.57,87.76,256.13,91.09Z"/><g id="body"><path class="cls-8" d="M256.6,93.65c.66-5.54,9.51-12.87,36.76-10.36,21.41,2,33.07,15.38,33,18.53-.07,5-8,72.92-11.2,76.52-4.33,4.91-22.44,7.38-36.53,4.35-9.92-2.13-17.59-6.75-19.11-10.05C257.43,168.07,255.56,102.36,256.6,93.65Z"/></g><g id="neck"><path class="cls-10" d="M274.18,86.16c-1,2.38-.12,7.51,2.11,8.8l.26.14c5.27,2.68,17.41,3.27,21.93-4.92.7-1.28.63-5,.23-6.36,0,0-4.6-20.42-6.19-30.47L277.14,75.8Z"/><path class="cls-11" d="M277.14,74.33s-.93,10.29,3.62,10.7c4.77.43,8.17-8.87,8.64-21.16Z"/><path class="cls-4" d="M274.18,86.16A38.82,38.82,0,0,0,270.47,98l9.74-1.46,13.68,5.22s5.43-12.51,6.66-17c.47-1.71-2.21-4.09-2.21-4.09s-9.56,15.71-18,14.18C273.71,93.69,274.18,86.16,274.18,86.16Z"/></g><g id="head"><path class="cls-12" d="M259.66,35.93s-8.25,3.92-.13,14.46,12.39-16.65,12.39-16.65Z"/><path class="cls-10" d="M261.91,36c-5.62,4.86-4.63,19.76-2.53,23.92,3.23,6.41,7.91,18.42,11.71,18.93,9.15,1.23,18.14-9.93,21.1-23.45l.35.71h0A1.91,1.91,0,0,0,294.91,55a17.82,17.82,0,0,0,1-5.61c.06-2.64-1.55-3.48-2.49-2.94s-1.24,2.45-1.24,2.45,1.71-9.38,1.4-11.55a7.71,7.71,0,0,0-2.84-5.42C282.27,25.82,266.86,31.77,261.91,36Z"/><path class="cls-12" d="M293,34.21l-9.58,6.19s-.41-5.28-5.77-5.22c-3.78,0-11.43,4.5-17,4.2-2.34-.13-8.38-4.62-1.92-5.93a6,6,0,0,0,2.37-1c.7-.51,1.69-1.22,2.87-2,11-7.35,18.21-7.58,23.8-4.39C294.92,30.12,293,34.21,293,34.21Z"/><path class="cls-12" d="M291.74,35.69l-7.76,6s2.41,12.77,8.23,7.17c0,0,2.59-6.84,2.62-11.09C294.85,34.65,292.95,34.75,291.74,35.69Z"/><path class="cls-12" d="M262.29,57.36c.06.35-.18.74-.92.8-.58.05-1.5-.85-1.39-.95a2.32,2.32,0,0,1,1.19-.34C261.73,56.8,262.23,57,262.29,57.36Z"/><path class="cls-12" d="M266.69,64.66a7.31,7.31,0,0,1-1.51-.14.24.24,0,0,1-.19-.25l.75-12.36a.24.24,0,0,1,.48,0l-.74,12.15a9.69,9.69,0,0,0,4.7-.56.24.24,0,1,1,.17.45A10.49,10.49,0,0,1,266.69,64.66Z"/><path class="cls-5" d="M271,67c1.18.79,4.09,2.28,4.88-1.65a.89.89,0,0,0-1.3-.95l-3.54,1.94A.38.38,0,0,0,271,67Z"/><path class="cls-12" d="M258.53,51.76h0a.36.36,0,0,1-.32-.4,4.37,4.37,0,0,1,4.19-3.77.36.36,0,0,1,0,.72,3.6,3.6,0,0,0-3.52,3.12A.36.36,0,0,1,258.53,51.76Z"/><path class="cls-12" d="M268.85,47.55a.36.36,0,0,1-.21-.66,8.94,8.94,0,0,1,8.76-.47.36.36,0,0,1-.32.65,8.34,8.34,0,0,0-8,.42A.36.36,0,0,1,268.85,47.55Z"/><path class="cls-11" d="M293.93,53.07a.24.24,0,0,1-.19-.39,2.59,2.59,0,0,0,.36-2.52.38.38,0,0,0-.38-.24.24.24,0,0,1-.06-.48.86.86,0,0,1,.85.48,3.06,3.06,0,0,1-.39,3.05A.24.24,0,0,1,293.93,53.07Z"/><path class="cls-12" d="M273.62,56c0,.36.37.67,1.09.54.57-.1,1.22-1.21,1.1-1.27a2.32,2.32,0,0,0-1.24,0C274,55.36,273.58,55.68,273.62,56Z"/><path class="cls-12" d="M259.56,62.33a4,4,0,0,1-2.42-.92c-1.93-1.48-2.37-4.19-2.66-6l0-.15a3.43,3.43,0,0,1,0-1.24h0a2.13,2.13,0,0,1,1.85-1.87l5.28-.34A2.61,2.61,0,0,1,264,53.58a4.17,4.17,0,0,1,.3,2c-.23,3.09-1.58,5.62-3.43,6.46A3.29,3.29,0,0,1,259.56,62.33ZM255,54.14a3,3,0,0,0,0,1.06l0,.15c.28,1.72.69,4.31,2.47,5.67a3.11,3.11,0,0,0,3.28.56c1.7-.76,2.93-3.14,3.15-6.05a3.69,3.69,0,0,0-.26-1.77,2.13,2.13,0,0,0-1.95-1.46l-5.28.34A1.67,1.67,0,0,0,255,54.14Z"/><path class="cls-12" d="M275.71,60.2a5.47,5.47,0,0,1-1.14-.12c-2.34-.49-4.52-2.51-5.83-5.4a3.27,3.27,0,0,1-.28-2,3,3,0,0,1,2.43-2.37L277.7,49a2.82,2.82,0,0,1,3.3,2.43c0,.21.06.45.1.71.28,1.83.7,4.6-1.11,6.22A6.43,6.43,0,0,1,275.71,60.2Zm2.49-10.71a2.35,2.35,0,0,0-.42,0L271,50.75a2.54,2.54,0,0,0-2,2,2.8,2.8,0,0,0,.25,1.74c1.25,2.75,3.3,4.66,5.48,5.12a5.64,5.64,0,0,0,5-1.57c1.61-1.44,1.22-4.05,1-5.78,0-.26-.08-.5-.1-.72a2.32,2.32,0,0,0-.37-1h0A2.33,2.33,0,0,0,278.2,49.49Z"/><path class="cls-12" d="M264,56.66a.24.24,0,0,1-.24-.23c-.07-1,.33-3,2.34-3.3s3.52,2.2,3.59,2.3a.24.24,0,0,1-.41.25s-1.41-2.3-3.11-2.07c-2.05.27-1.92,2.69-1.92,2.79a.24.24,0,0,1-.23.26Z"/><path class="cls-12" d="M280.76,51.75a.24.24,0,0,1-.06-.48l11.43-3.08a.24.24,0,1,1,.13.47l-11.43,3.08Z"/></g><g id="arm_R"><path class="cls-10" d="M250.12,114.74a1.72,1.72,0,0,1-2.13-2.58,32.35,32.35,0,0,1,3.66-4.13,28,28,0,0,1,5.74-3.52,1.72,1.72,0,1,1,1.52,3.08,25,25,0,0,0-5,3.06,29.35,29.35,0,0,0-3.14,3.58A1.71,1.71,0,0,1,250.12,114.74Z"/><path class="cls-10" d="M246.57,126.78c0-2.35.62-8.58.86-12.23.12-1.82,0-2.31,1.67-3.65l1.92-1.35,1.81,2.54a29.94,29.94,0,0,1,4.06,7.87,13.2,13.2,0,0,1,.63,5.88,5.89,5.89,0,0,1-2.4,4,3.48,3.48,0,0,0-1.16,2.37c-.8,4.83.21,14.42-2.39,18.84-3,5.19-10.11,3.36-12.6.27-4.18-5.19-5-10.46-3.37-15.18C238.2,128.38,246.63,130.59,246.57,126.78Z"/><path class="cls-7" d="M256.73,119.5l0-.07-2.39,1.18a8.88,8.88,0,0,0,1.66,4.29,2.83,2.83,0,0,0,1.56.94,13.19,13.19,0,0,0-.63-5.87Z"/><path class="cls-12" d="M259.18,153.09a62.27,62.27,0,0,0,.1,12.48l-2.58,0a52.93,52.93,0,0,1-.68-10.86"/><path class="cls-9" d="M256.54,155.25l1.64.07a2.33,2.33,0,0,0,2.36-2.43c.3-6.7,1.5-30.24,3.42-50.42,1.44-15.12,2.66-17.53,4.82-18.24l3.19-.62A6,6,0,0,0,267.34,82a62.6,62.6,0,0,0-9.57,2.87c-1.9.77-3.79,12.9-3.68,31.7.06,10.62.18,31.24.51,36.85C254.69,154.69,255.23,155.2,256.54,155.25Z"/><path class="cls-9" d="M258.26,155.44h-.09l-1.64-.07a1.81,1.81,0,0,1-2-2c-.33-5.56-.45-25.71-.51-36.53v-.32c-.11-19.63,1.85-31,3.75-31.82a62.15,62.15,0,0,1,9.59-2.88,6.12,6.12,0,0,1,4.73,1.69l.16.16-3.42.66c-1.87.62-3.21,2.21-4.73,18.13-1.76,18.56-3,41.09-3.42,50.41A2.44,2.44,0,0,1,258.26,155.44ZM267.87,82a3.8,3.8,0,0,0-.52,0,61.82,61.82,0,0,0-9.54,2.87c-1.82.74-3.71,13-3.6,31.59v.32c.06,10.82.18,31,.51,36.52.07,1.23.56,1.71,1.81,1.75h0l1.64.07a2.2,2.2,0,0,0,2.24-2.32c.41-9.32,1.66-31.86,3.42-50.43,1.41-14.87,2.6-17.58,4.91-18.34l3-.58A6,6,0,0,0,267.87,82Z"/><path class="cls-12" d="M260,141.42h0a.24.24,0,0,1-.23-.26c0-.35,2-35.55,2.73-43,1-10.75,2.06-14.14,4.73-15.78a.24.24,0,1,1,.25.41C265,84.34,264,87.66,263,98.22c-.72,7.43-2.71,42.62-2.73,43A.24.24,0,0,1,260,141.42Z"/><path class="cls-10" d="M262.79,112.36a1.82,1.82,0,0,1-1.53,0,27.94,27.94,0,0,0-5.12-1.84,38.48,38.48,0,0,0-4.93,3.32,1.82,1.82,0,0,1-2.1-3c4.06-2.87,5.52-3.88,6.68-4,1.43-.13,4.21,1,6.93,2.14a1.82,1.82,0,0,1,.08,3.3Z"/><path class="cls-10" d="M261.6,117.31a1.82,1.82,0,0,1-2.59-1.26c-.16-.76-.38-1.6-.52-2a22.33,22.33,0,0,0-2.73-1.26,55.8,55.8,0,0,0-5.41,3.2,1.82,1.82,0,0,1-2-3.05c6-3.94,7-3.88,7.49-3.84a16.53,16.53,0,0,1,5.23,2.3c.35.3.82.7,1.5,3.94A1.82,1.82,0,0,1,261.6,117.31Z"/><path class="cls-11" d="M250.92,111.63a.24.24,0,0,1-.12-.45c4.18-2.5,4.52-2.45,5-2.39h.11a16.53,16.53,0,0,1,5.37,2.36.24.24,0,1,1-.31.37,16.52,16.52,0,0,0-5.09-2.24h-.13c-.34,0-.65-.08-4.69,2.33A.24.24,0,0,1,250.92,111.63Z"/><path class="cls-10" d="M259.27,120.69a1.82,1.82,0,0,1-1.71-3.21l.75-.44c-.49-.5-1-1-1.49-1.45-.89.67-2.34,1.9-3.53,3a1.82,1.82,0,0,1-2.44-2.7c5.08-4.59,5.86-4.57,6.9-4.12.26.11.69.3,2.7,2.29s2.17,2.38,2.28,2.79c.42,1.58-1,2.48-3.36,3.83Z"/><path class="cls-11" d="M257.92,116.11l-.43.32.68.67-.75.44a1.82,1.82,0,0,0,1.71,3.21l.1-.05c.62-.35,1.17-.68,1.65-1Z"/><path class="cls-11" d="M251.57,115.47a.24.24,0,0,1-.16-.42c4.37-3.89,5.29-4.06,6.48-3.55.29.13.73.32,2.77,2.34a.24.24,0,0,1-.34.34c-2-2-2.4-2.14-2.62-2.24-.81-.35-1.39-.6-6,3.47A.24.24,0,0,1,251.57,115.47Z"/><path class="cls-10" d="M259.51,123.66a1.82,1.82,0,0,1-2.28-2.7,3.86,3.86,0,0,0,.54-2.06l-4.3,2.12a1.82,1.82,0,0,1-1.61-3.27l4.56-2.25a3.47,3.47,0,0,1,5,3.08,7.66,7.66,0,0,1-1.23,4.51A1.81,1.81,0,0,1,259.51,123.66ZM258,118.76h0Z"/><path class="cls-11" d="M253.51,121.23a.24.24,0,0,1-.11-.46l4.3-2.12a.24.24,0,0,0,.26-.13h0a.24.24,0,0,1,.32.11.24.24,0,0,1,0,.1,3.06,3.06,0,0,0-.4.35l-4.3,2.12ZM251.9,118a.24.24,0,0,1-.11-.46l4.56-2.25a3.7,3.7,0,0,1,3.81.32.24.24,0,1,1-.28.39,3.22,3.22,0,0,0-3.32-.28L252,117.94Z"/><path class="cls-11" d="M241,151.81a.24.24,0,0,1-.24-.2,4.61,4.61,0,0,0-1.48-2.69.24.24,0,0,1,.27-.4,5,5,0,0,1,1.69,3,.24.24,0,0,1-.2.28Z"/><path class="cls-11" d="M251.9,131.1c-1.72,0-2.7-2.47-2.74-2.59a.24.24,0,0,1,.45-.17s1.1,2.77,2.76,2.2a.24.24,0,1,1,.16.46A1.94,1.94,0,0,1,251.9,131.1Z"/><path class="cls-11" d="M250.72,118.93a.24.24,0,0,1-.22-.14c-1-2-2.31-5-2.32-5a.24.24,0,1,1,.44-.2s1.35,3,2.32,5a.24.24,0,0,1-.11.32Z"/></g><g id="forearm_L"><path class="cls-4" d="M326.37,101.83c3,14.2-5.2,55.68-6.07,61.37-1.14,7.43-6.29,10.08-10.22,10-8.62-.1-13.7-3.94-11.72-19.31l8.88-41.53c3.17-9.72,7.32-15.95,12.33-15.73C325.65,96.93,326.37,101.83,326.37,101.83Z"/><path class="cls-8" d="M299.56,155.46h-.06a.24.24,0,0,1-.18-.24,7,7,0,0,1,5.4-6.08.24.24,0,0,1,.13.47,6.46,6.46,0,0,0-4.86,4.65,11.9,11.9,0,0,1,7.18-3.57,9.37,9.37,0,0,1,8.31,3.75.24.24,0,1,1-.37.31,8.8,8.8,0,0,0-7.89-3.58c-3.51.34-6.62,2.69-7.43,4.19A.24.24,0,0,1,299.56,155.46Z"/></g><g id="arm_L"><path class="cls-10" d="M302.34,169.86c-9-2.94-27.27-7.66-34.78-5.9l.66-8.31,34.15-4c6.3-1.4,14.34,3.25,13.05,10.68C314.71,166.49,312.22,173.1,302.34,169.86Z"/><path class="cls-10" d="M267.56,164c-5.71,0-17.63-6.29-17.63-6.29-3.67-2.21-2.32-2.76-2.32-2.76l9.73.9c3.29.58,3.76-2.19,3.76-2.19s1.86-2.46,4.62-1.7a18.09,18.09,0,0,1,5.8,2.77,2.27,2.27,0,0,0,1.61.43l2.85-.34S278,163.88,267.56,164Z"/><path class="cls-11" d="M264,155.48l-.1,0c-1.23-.56-2.89-1.37-2.91-1.38a.24.24,0,1,1,.21-.44s1.67.81,2.9,1.37a.24.24,0,0,1-.1.46Z"/><path class="cls-11" d="M264,155.24l-2.87-1.63c-.17-.1-.49,0-.44.17.41,1.76-1.92,2.26-3.34,2C257.34,155.82,263.08,158,264,155.24Z"/><path class="cls-12" d="M218,141.49h0a12.7,12.7,0,0,0,3,2.74l16.33,9.34a5.28,5.28,0,0,0,2.15.68l17.82,1.61a21.33,21.33,0,0,0,4.47-.05l.1,0a1.11,1.11,0,0,0,.65-.49l.26-.57Z"/><path class="cls-13" d="M261.83,155.07,239,152.39a3.93,3.93,0,0,1-1.26-.42L218,141.49c-.35-.27-.31-.89.43-.75l24.24,4a3.93,3.93,0,0,1,1,.33l18.62,9.06C263.25,154.58,262.82,155.22,261.83,155.07Z"/><path class="cls-5" d="M237.45,150.21c1.66.52,2.51,0,2.16-.57s-1.61-1.92,1-2.48c1.79-.38,1-1.47.42-2l-18.19-3a.13.13,0,0,0-.08.24l14.64,7.85Z"/><path class="cls-5" d="M229.49,147a.24.24,0,0,1-.13,0l-.36-.22a.24.24,0,1,1,.25-.41l.36.22a.24.24,0,0,1-.13.45Z"/><path class="cls-10" d="M264.76,153.66a4.27,4.27,0,0,1-2.34.31,38.85,38.85,0,0,1-6.25-1.28,1.15,1.15,0,0,1-.58-1.29h0a1.16,1.16,0,0,1,1.33-.87c3.48.63,6,.56,8.8,1.24C267.59,152.22,266,153.11,264.76,153.66Z"/><path class="cls-11" d="M271.48,159.63h-.11a.24.24,0,0,1,0-.48h0a2.07,2.07,0,0,0,1.45-.49,1.53,1.53,0,0,0,.31-1.29.24.24,0,0,1,.48-.06,2,2,0,0,1-.44,1.68A2.44,2.44,0,0,1,271.48,159.63Z"/></g><g id="arm_L-2" data-name="arm_L"><path class="cls-14" d="M137.12,216.86,137,220.3c-.4,3-.73,4.4-1.88,6.34-1.55,2.63-4.52,3.46-9.71,6.09-3.41,1.72-2.48-.09-2.48-.09h0c2.77-3.48,2.54-14.91,5.94-20.91C131.82,206.61,137.12,216.86,137.12,216.86Z"/><polygon class="cls-5" points="139.13 213.43 138.24 220.35 124.6 216.86 125.07 211.08 139.13 213.43"/><path class="cls-4" d="M124.6,159.85c-1.78,19.27.47,51.23.47,51.23l15,6.1s-.34-47-.92-55.36C138.44,151.81,125.68,148.23,124.6,159.85Z"/><path class="cls-15" d="M125.45,232.73c-3,1.54-2.57.31-2.49,0l0-.1a6.75,6.75,0,0,0,1.24-2.28c.15-.78,3-10,3-10,2.73,3.56,7.9,6.28,7.9,6.28C133.61,229.27,130.64,230.1,125.45,232.73Z"/></g><g id="leg_L-2" data-name="leg_L"><path class="cls-12" d="M132.7,383.31h-20a4.48,4.48,0,0,1-2.39-.64c-1-.65-3.55-1-5-1.21a1.12,1.12,0,0,0-1.24,1l-.08.84H95.59v-1.76c-.9-2.37-1.27-8.15,2.27-14.6h14.48s3.69,7.17,6.81,8,14.59,3,15.16,4.11a6,6,0,0,1,.36,2.19A2,2,0,0,1,132.7,383.31Z"/><polygon class="cls-9" points="127.26 190.95 116.86 370.11 93.64 370.11 88.55 190.95 127.26 190.95"/></g><g id="leg_R-2" data-name="leg_R"><path class="cls-12" d="M105.35,383.31h-20a4.48,4.48,0,0,1-2.39-.64c-1-.65-3.55-1-5-1.21a1.12,1.12,0,0,0-1.24,1l-.08.84H68.24v-1.76c-.9-2.37-1.27-8.15,2.27-14.6H85s3.69,7.17,6.81,8,14.59,3,15.16,4.11a6,6,0,0,1,.36,2.19A2,2,0,0,1,105.35,383.31Z"/><polygon class="cls-9" points="57.03 190.95 64.48 370.11 90.65 370.11 102.19 190.95 57.03 190.95"/><path class="cls-4" d="M90.65,370.35h0a.24.24,0,0,1-.23-.26L99,236.29a.25.25,0,0,1,.26-.23.24.24,0,0,1,.23.26l-8.62,133.8A.24.24,0,0,1,90.65,370.35Z"/><path class="cls-4" d="M99.07,239.4s1.63,8.7,1.38,15c-.28,7-2.37,22.29-4.42,33.37Z"/></g><path id="forearm_L-2" data-name="forearm_L" class="cls-4" d="M127.26,92.78c4.72,1.65,7.53,9.69,9.86,41,1.35,18.12,2,28.08,2,28.08s0,8.34-7.26,9.76c-5.61,1.1-8.32-.08-9-9.79-.48-6.7-2.84-50.35-2.28-59.11S125.14,92,127.26,92.78Z"/><g id="neck-2" data-name="neck"><path class="cls-14" d="M104.12,60.06,84.69,49.73c-.39,4.48-1,22.25-2,26.52s-1.91,7.41-1.91,7.41,3.61,6.13,14.8,6.13c13.1,0,12.21-6.13,12.21-6.13s-.73-2.54-1.6-6.14C105.15,73.09,104.55,65,104.12,60.06Z"/><path class="cls-15" d="M90,54.8S88.68,70.88,94.09,78c5,6.63,11.37-4.77,11.37-4.77Z"/></g><g id="head-2" data-name="head"><path class="cls-12" d="M111.92,30.73c-1,2.84-4.43,5,3,11.82a19.19,19.19,0,0,1,3.5,3.69c1,1.48,1.19,4,1.18,6a.8.8,0,0,0,1.49.4h0a12.41,12.41,0,0,0,1.26-3c.46-1.74,1.17-4.57,1.61-7.18.72-4.32,1.38-7.49-1.56-11C117.27,25.34,112.58,28.81,111.92,30.73Z"/><path class="cls-14" d="M82.18,35.84s1.44,13.94,4.47,24.29c3.2,10.92,9.74,19,18.77,17.71,8.13-1.15,12.88-13.58,15.17-26.91,1.26-7.33.76-12.41-1.11-15.46C114.21,26.86,84.92,24.61,82.18,35.84Z"/><path class="cls-12" d="M118.14,31.64A6.17,6.17,0,0,1,115,34.92,39.12,39.12,0,0,1,93.7,38.18c-5.13-.69-7.9-2.29-9.39-3.83a4.2,4.2,0,0,1,.53-6.25A46.62,46.62,0,0,1,97,22c10.91-3.44,15.39-2.82,20.1,2.37A6.65,6.65,0,0,1,118.14,31.64Z"/><path class="cls-12" d="M98.7,38.76a38,38,0,0,1-5-.33c-4.38-.59-7.59-1.9-9.53-3.91a4.36,4.36,0,0,1-1.21-3.36,4.51,4.51,0,0,1,1.76-3.24,47.2,47.2,0,0,1,12.22-6.17c10.94-3.45,15.51-2.91,20.36,2.44a6.87,6.87,0,0,1,1.09,7.55h0a6.39,6.39,0,0,1-3.25,3.4A39.32,39.32,0,0,1,98.7,38.76Zm9-18.7c-2.76,0-6.14.73-10.61,2.14A46.62,46.62,0,0,0,85,28.3a4,4,0,0,0-1.57,2.9,3.82,3.82,0,0,0,1.07,3c1.87,1.93,5,3.19,9.25,3.76a38.61,38.61,0,0,0,21.18-3.25,5.91,5.91,0,0,0,3-3.15h0a6.42,6.42,0,0,0-1-7C114.18,21.49,111.52,20.06,107.66,20.06Z"/><path class="cls-12" d="M89.53,35.18c4.17,3,4.74,5.48.75,13.65-2.17,4.43-4.94,5.06-5.67,5-3.26-.3-4.94-10.95-4.54-17S84.35,31.45,89.53,35.18Z"/><path class="cls-12" d="M88.47,51.29a.36.36,0,0,1-.23-.64c5.58-4.72,5.51-9.78,5.26-11.63a12.67,12.67,0,0,1-4.83-3,.36.36,0,0,1,.42-.58l4.78,2.38a.36.36,0,0,1,.19.22s0,.16.09.4a19,19,0,0,0,5.83.93h.1a23.28,23.28,0,0,0,15.34-6.07.36.36,0,1,1,.47.55A24,24,0,0,1,100,40.13a19.76,19.76,0,0,1-5.71-.86,11.48,11.48,0,0,1-.11,3.05A14.85,14.85,0,0,1,88.7,51.2.36.36,0,0,1,88.47,51.29Z"/><circle class="cls-12" cx="114.82" cy="55.09" r="1.22" transform="translate(44.91 161.54) rotate(-82.33)"/><circle class="cls-12" cx="102.18" cy="53.39" r="1.22" transform="translate(35.63 147.53) rotate(-82.33)"/><path class="cls-14" d="M88.51,49.75a2.83,2.83,0,0,0-1.56-3.41c-1.25-.52-2.5.06-2.31,1.93.31,3.08,1,6.87,2.26,7.07Z"/><path class="cls-12" d="M108,61.76a4.42,4.42,0,0,1-2.26-.63.24.24,0,1,1,.24-.42,4,4,0,0,0,3.76.16l-.3-8.73a.24.24,0,1,1,.48,0l.31,8.88a.24.24,0,0,1-.12.22A4.4,4.4,0,0,1,108,61.76Z"/><path class="cls-12" d="M98.22,48.07a.36.36,0,0,1-.22-.65,7.33,7.33,0,0,1,7.54-.29.36.36,0,0,1-.31.65,6.62,6.62,0,0,0-6.79.21A.36.36,0,0,1,98.22,48.07Z"/><path class="cls-12" d="M119.44,51.12a.36.36,0,0,1-.3-.16,6.2,6.2,0,0,0-5.95-2.26.36.36,0,1,1-.08-.72,6.92,6.92,0,0,1,6.63,2.58.36.36,0,0,1-.3.56Z"/><path class="cls-15" d="M107.6,65.94h0a8.85,8.85,0,0,1-6-4,.36.36,0,0,1,.62-.37s2,3.27,5.47,3.68a.36.36,0,0,1,0,.72Z"/></g><g id="body-2" data-name="body"><polygon class="cls-6" points="79.49 83.93 99.2 157.13 112.58 124 111.29 83.95 81.23 79.89 79.49 83.93"/><polygon class="cls-9" points="107.6 122.62 100.73 91.06 96.48 91.06 91.64 119.4 100.02 149.85 107.6 122.62"/><path class="cls-9" d="M98.67,83.22h0c-3.11,0-5.11,1-4.39,3.91s3,5.91,4.34,5.91v0l.14,0c1.3,0,3.62-3,4.34-5.91S101.78,83.22,98.67,83.22Z"/><path class="cls-5" d="M82.59,76.75s8.83,5.49,16.32,5.47c3.75,0,6.55-1.8,7.31-4.71l3.23,6.28a13.42,13.42,0,0,1-5.62,7.65l-4.78-8.38-5.68,8.32S82.7,87.16,79.49,82.09Z"/><g class="cls-16"><path class="cls-6" d="M93.71,99.94a.12.12,0,0,1-.06-.23l8-4.36a.12.12,0,0,1,.12.21l-8,4.36Z"/><path class="cls-6" d="M93,102.52a.12.12,0,0,1-.06-.23l9.46-5.16a.12.12,0,1,1,.12.21L93,102.51Z"/><path class="cls-6" d="M92.82,111a.12.12,0,0,1-.06-.23l12.49-6.81a.12.12,0,0,1,.12.21L92.88,111Z"/><path class="cls-6" d="M91.92,113.86a.12.12,0,0,1-.06-.23l13.38-7.31a.12.12,0,0,1,.12.21L92,113.85Z"/><path class="cls-8" d="M92.82,122.43a.12.12,0,0,1-.06-.23l15-8.19a.12.12,0,1,1,.12.21l-15,8.19Z"/><path class="cls-6" d="M91.92,125.3a.12.12,0,0,1-.06-.23l19.51-10.65a.12.12,0,0,1,.12.21L92,125.29Z"/><path class="cls-6" d="M91.92,133.46a.12.12,0,0,1-.06-.23l24.7-13.48a.12.12,0,1,1,.12.21L92,133.44Z"/></g><path class="cls-6" d="M98.56,93.14a2.65,2.65,0,0,1-2.21-1.23l-.16-.2a.12.12,0,0,1,.18-.16l.17.2a2.41,2.41,0,0,0,2,1.14,3.81,3.81,0,0,0,2.37-1.36.12.12,0,0,1,.19.15A4,4,0,0,1,98.56,93.14Z"/><path class="cls-4" d="M80.37,82.94l1.52-5c-10,2.65-22.17,6.48-29.3,10.45-4.41,2.46-5.45,7-5,12,1.78,18.41,7.67,60.29,7.67,64.22,0,4.83-5.8,62.16-5.8,62.16a233.87,233.87,0,0,0,49.78,5.56l3.16-77.21C101.56,137.23,80.37,82.94,80.37,82.94Z"/><path class="cls-4" d="M109.45,83.79l-1.55-3.39c6.33,3.5,21.75,12.35,22,14.38.77,5.4-4.83,65-4.83,69.82s4.88,59.3,4.88,59.3-7.11,8.93-25.57,8.42l-4-41.38s-2.82-38.38,0-46.5A173.52,173.52,0,0,0,109.45,83.79Z"/><path class="cls-9" d="M127.4,191.34l-.1,0a51.11,51.11,0,0,1-7.59-4.62.24.24,0,0,1-.09-.27l1.94-6.61a.24.24,0,0,1,.39-.12,51.09,51.09,0,0,0,4.74,3.35.24.24,0,0,1-.26.41c-2.28-1.44-3.88-2.67-4.5-3.16l-1.79,6.1a50.17,50.17,0,0,0,7.38,4.48.24.24,0,0,1-.1.46Z"/><path class="cls-9" d="M61.65,195.32a.24.24,0,0,1-.23-.17l-1.69-5.06a.24.24,0,0,1,.18-.31c10.92-2.49,20.09-10,20.18-10.08a.24.24,0,0,1,.39.12l1.94,6.61a.24.24,0,0,1-.09.27c-10.8,7.68-20.56,8.61-20.65,8.62Zm-1.37-5.13,1.54,4.63c1.39-.17,10.28-1.49,20.08-8.41l-1.79-6.1C78.49,181.58,70.12,187.87,60.27,190.19Z"/><path class="cls-9" d="M60,190a25.79,25.79,0,0,1,15.92-7,59,59,0,0,1-9.44,4.95C62.52,189.33,60,190,60,190Z"/><path class="cls-9" d="M60,190.26a.24.24,0,0,1-.18-.41,26.28,26.28,0,0,1,16.08-7.09.24.24,0,0,1,.15.44,59.64,59.64,0,0,1-9.49,5c-3.88,1.38-6.47,2.07-6.5,2.08Zm14.91-6.91a26.27,26.27,0,0,0-14,6.17c1.08-.32,3-.92,5.52-1.8A53.51,53.51,0,0,0,74.87,183.34Z"/><path class="cls-9" d="M85,106.27a.24.24,0,0,1-.16-.06l-9.34-8.27a.24.24,0,0,1-.08-.23L78,86a.24.24,0,0,1,.47.1L76,97.67l9.23,8.17a.24.24,0,0,1-.16.42Z"/><path class="cls-9" d="M100,146.76a.24.24,0,0,1-.21-.11L77,110.33a.24.24,0,0,1,0-.28l5-6.46a.24.24,0,0,1,.38.3l-4.9,6.33,22.69,36.17a.24.24,0,0,1-.2.37Z"/><path class="cls-9" d="M101,194.44a.24.24,0,0,1-.24-.24l-1-47.68a.24.24,0,0,1,.24-.25.25.25,0,0,1,.25.24l1,47.68a.24.24,0,0,1-.24.25Z"/><circle class="cls-9" cx="104.42" cy="148.17" r="1.98"/><circle class="cls-9" cx="104.32" cy="166.15" r="1.98" transform="translate(-7.69 5.08) rotate(-2.69)"/><circle class="cls-9" cx="105.97" cy="189.71" r="1.98" transform="translate(-8.79 5.19) rotate(-2.69)"/><path class="cls-9" d="M110.75,107.84a.24.24,0,0,1-.15-.43l7.49-5.81-5.73-15.48a.24.24,0,0,1,.45-.17l5.79,15.64a.24.24,0,0,1-.08.27l-7.63,5.92A.24.24,0,0,1,110.75,107.84Z"/><path class="cls-9" d="M107.6,131.8a.24.24,0,0,1-.21-.37l12-19.71-4.95-6.9a.24.24,0,0,1,.39-.28l5,7a.24.24,0,0,1,0,.27l-12,19.85A.24.24,0,0,1,107.6,131.8Z"/><polygon class="cls-9" points="114.81 112.45 115.65 108.81 113.24 109.99 114.81 112.45"/><path class="cls-9" d="M114.81,112.69a.24.24,0,0,1-.2-.11L113,110.12a.24.24,0,0,1,.1-.35l2.4-1.18a.24.24,0,0,1,.34.27L115,112.5a.24.24,0,0,1-.19.18Zm-1.22-2.6,1.11,1.74.59-2.58Z"/><path class="cls-9" d="M128.15,203.63a.24.24,0,0,1-.24-.22l-3-38.46a10.11,10.11,0,0,1,0-1.48l3.59-45.36a.24.24,0,0,1,.48,0l-3.59,45.36a9.58,9.58,0,0,0,0,1.41l3,38.46a.24.24,0,0,1-.22.26Z"/></g><g id="arm_R-2" data-name="arm_R"><path class="cls-14" d="M125.56,121a1.81,1.81,0,0,1-1.57-2.71l4.89-8.58a1.81,1.81,0,1,1,3.15,1.8l-4.89,8.58A1.81,1.81,0,0,1,125.56,121Z"/><path class="cls-5" d="M149.6,100.66,148.1,99a.71.71,0,0,0-.47-.21L132.81,98a1.47,1.47,0,0,0-1.53,1.32L128.37,127a2.18,2.18,0,0,0,.42,1.52l1.1,1.49,15.4-.14Z"/><path class="cls-8" d="M145.44,129.13l4.27-27.87a.8.8,0,0,0-.73-1l-14.41-.68a1.47,1.47,0,0,0-1.53,1.3l-3.35,28.44a.92.92,0,0,0,.95,1l13.89-.46A1,1,0,0,0,145.44,129.13Z"/><path class="cls-8" d="M131.38,106.74h0a.36.36,0,0,1-.32-.4l.42-3.55a.36.36,0,0,1,.72.09l-.42,3.55A.36.36,0,0,1,131.38,106.74Z"/><path class="cls-5" d="M141,104.84l-4.14,5a.46.46,0,0,0-.06.48l2.75,6.11a.46.46,0,0,0,.78.08l4.2-5.66a.46.46,0,0,0,0-.48l-2.81-5.43A.46.46,0,0,0,141,104.84Z"/><polygon class="cls-5" points="111.93 126.91 119.93 122.62 127.36 134.15 118.15 140.5 111.93 126.91"/><path class="cls-4" d="M77.85,167.27c4.61-.26,17.95-8,17.95-8a317.65,317.65,0,0,0,30-21.37l-11.74-12.63s-43.8,18.83-48.25,25S68.62,167.79,77.85,167.27Z"/><path class="cls-14" d="M119.93,122.62l6.39-8.06s4.41,1.57,8.22,0l2.32,3.56L141,128.77l-13.59,5.38Z"/><path class="cls-14" d="M133.58,118.87a1.81,1.81,0,0,1-.78-3.45L144.18,110a1.81,1.81,0,0,1,1.56,3.27l-11.38,5.44A1.81,1.81,0,0,1,133.58,118.87Z"/><path class="cls-14" d="M136.86,122a1.81,1.81,0,0,1-.76-3.46l5.79-2.66,3.68-3.29a1.81,1.81,0,1,1,2.42,2.7l-3.88,3.47a1.82,1.82,0,0,1-.45.3l-6,2.77A1.81,1.81,0,0,1,136.86,122Z"/><path class="cls-14" d="M137.54,125.13a1.81,1.81,0,0,1-.38-3.59l4.8-1,1.9-2.42a1.81,1.81,0,1,1,2.85,2.24l-2.31,2.94a1.81,1.81,0,0,1-1,.65l-5.44,1.17A1.82,1.82,0,0,1,137.54,125.13Z"/><path class="cls-14" d="M139.37,129.06a1.81,1.81,0,0,1-.5-3.56l3.64-1,.16-1.36a1.81,1.81,0,0,1,3.6.43l-.31,2.55a1.81,1.81,0,0,1-1.3,1.53l-4.8,1.37A1.81,1.81,0,0,1,139.37,129.06Z"/><path class="cls-15" d="M137.87,127.18a.24.24,0,0,1-.23-.16,83.24,83.24,0,0,0-3.61-8.4.24.24,0,0,1,.43-.22,83.78,83.78,0,0,1,3.64,8.46.24.24,0,0,1-.15.31Z"/><path class="cls-9" d="M84.8,138.9a.24.24,0,0,1-.1-.46L114,125.06a.24.24,0,0,1,.28.06L126,137.75a.24.24,0,1,1-.35.33L114,125.57,84.9,138.88Z"/></g><g id="forearm_R-2" data-name="forearm_R"><path class="cls-4" d="M50.82,89.32c-4.68,3.16-8.22,7.32,1,33.3,6.62,18.6,14.46,38,14.46,38s6.07,9.48,16,2.63c8.12-5.61,10-10.95,4.71-19.7-3.62-6-16.77-42-22.52-49.19S53.83,87.28,50.82,89.32Z"/><path class="cls-9" d="M79.15,146.52H79.1a.24.24,0,0,1-.18-.29c.05-.23,1.26-5.55,5.56-7.69L66.81,98.11a.24.24,0,0,1,.44-.19L85,138.56a.24.24,0,0,1-.12.32c-4.25,2-5.49,7.4-5.51,7.46A.24.24,0,0,1,79.15,146.52Z"/></g><path class="cls-17" d="M121.24,81.34a1.46,1.46,0,0,1-1-.43l-4.61-4.61a1.47,1.47,0,0,1,0-2.07l4.61-4.61a1.5,1.5,0,0,1,2.07,0l4.61,4.61a1.47,1.47,0,0,1,0,2.07l-4.61,4.61A1.46,1.46,0,0,1,121.24,81.34Zm0-11.39a.7.7,0,0,0-.5.21l-4.61,4.61a.71.71,0,0,0,0,1l4.61,4.61a.72.72,0,0,0,1,0l4.61-4.61a.71.71,0,0,0,0-1l-4.61-4.61A.7.7,0,0,0,121.24,70Z"/><path class="cls-6" d="M215.92,78.34a3.62,3.62,0,1,1,3.62-3.62A3.62,3.62,0,0,1,215.92,78.34Zm0-6.48a2.86,2.86,0,1,0,2.86,2.86A2.86,2.86,0,0,0,215.92,71.87Z"/><path class="cls-17" d="M342.21,15.94a3.44,3.44,0,0,1-2.43-5.88L348.84,1a3.44,3.44,0,1,1,4.87,4.87l-9.06,9.06A3.43,3.43,0,0,1,342.21,15.94ZM351.27.76a2.68,2.68,0,0,0-1.9.79l-9.06,9.06h0a2.68,2.68,0,0,0,3.8,3.8l9.06-9.06a2.68,2.68,0,0,0-1.9-4.58ZM340,10.34h0Z"/><path class="cls-17" d="M359.65,293.45h-9.87a.38.38,0,0,1,0-.76h9.87a.38.38,0,0,1,0,.76Z"/><path class="cls-17" d="M354.71,298.39a.38.38,0,0,1-.38-.38v-9.87a.38.38,0,1,1,.76,0V298A.38.38,0,0,1,354.71,298.39Z"/><path class="cls-17" d="M12.17,68.37H2.3a.38.38,0,0,1,0-.76h9.87a.38.38,0,0,1,0,.76Z"/><path class="cls-17" d="M7.24,73.31a.38.38,0,0,1-.38-.38V63.05a.38.38,0,0,1,.76,0v9.87A.38.38,0,0,1,7.24,73.31Z"/><rect class="cls-6" x="183.88" y="59.11" width="15.8" height="4.7" transform="translate(362.85 -44.81) rotate(130.38)"/><path class="cls-6" d="M188.46,69.38a.38.38,0,0,1-.25-.09l-3.58-3a.38.38,0,0,1,0-.54l10.24-12a.38.38,0,0,1,.26-.13.39.39,0,0,1,.28.09l3.58,3a.38.38,0,0,1,0,.54l-10.24,12a.38.38,0,0,1-.26.13Zm-3-3.47,3,2.56L198.16,57l-3-2.56Z"/><path class="cls-6" d="M336.23,43.64a.38.38,0,0,1-.3-.14L326,31.22a.38.38,0,0,1,.06-.53l3.65-3a.38.38,0,0,1,.28-.08.38.38,0,0,1,.26.14l10,12.28a.38.38,0,0,1-.06.53l-3.65,3A.38.38,0,0,1,336.23,43.64ZM326.81,31l9.47,11.69,3.06-2.48-9.47-11.69Z"/><path class="cls-6" d="M6.18,259.69a3.62,3.62,0,1,1-5.12,0A3.62,3.62,0,0,1,6.18,259.69ZM1.6,264.27a2.86,2.86,0,1,0,0-4A2.86,2.86,0,0,0,1.6,264.27Z"/><rect class="cls-6" x="3.4" y="286.34" width="15.8" height="4.7" transform="translate(-23.21 1.85) rotate(-4.62)"/><path class="cls-6" d="M19.26,285.45a.38.38,0,0,1,.11.24l.38,4.69a.38.38,0,0,1-.35.41L3.65,292.06a.38.38,0,0,1-.28-.09.39.39,0,0,1-.13-.26L2.86,287a.38.38,0,0,1,.35-.41L19,285.34a.38.38,0,0,1,.28.09Zm-.3,4.61-.32-3.93-15,1.21L4,291.27Z"/></g></g></svg>