<?xml version="1.0" encoding="UTF-8"?>
<svg width="346px" height="251px" viewBox="0 0 346 251" version="1.1" xmlns="http://www.w3.org/2000/svg" xmlns:xlink="http://www.w3.org/1999/xlink">
    <!-- Generator: Sketch 50.2 (55047) - http://www.bohemiancoding.com/sketch -->
    <title>ethereum-img10</title>
    <desc>Created with Sketch.</desc>
    <defs>
        <circle id="path-1" cx="125.63" cy="125.11" r="125.11"></circle>
    </defs>
    <g id="Page-1" stroke="none" stroke-width="1" fill="none" fill-rule="evenodd">
        <g id="ethereum-img10">
            <g id="Group">
                <mask id="mask-2" fill="white">
                    <use xlink:href="#path-1"></use>
                </mask>
                <use id="Mask" fill="#F2F3F7" fill-rule="nonzero" xlink:href="#path-1"></use>
                <g mask="url(#mask-2)">
                    <g transform="translate(-22.000000, 8.000000)">
                        <path d="M221.57,199.45 C234.38,203.93 242.03,225.77 248.34,310.71 C252,359.92 253.8,387 253.8,387 C253.8,387 253.8,409.65 234.07,413.52 C218.83,416.52 211.48,413.31 209.59,386.92 C208.28,368.72 201.88,250.13 203.4,226.36 C204.92,202.59 215.8,197.43 221.57,199.45 Z" id="forearm_L" fill="#404299" fill-rule="nonzero"></path>
                        <g id="neck" stroke-width="1" fill="none" fill-rule="evenodd" transform="translate(95.000000, 82.000000)">
                            <path d="M63.7,28.56 L10.91,0.56 C9.84,12.73 8.27,61.01 5.55,72.56 C2.83,84.11 0.37,92.68 0.37,92.68 C0.37,92.68 10.19,109.33 40.58,109.33 C76.17,109.33 73.75,92.68 73.75,92.68 C73.75,92.68 71.75,85.79 69.39,75.99 C66.49,64 64.88,42 63.7,28.56 Z" id="Shape" fill="#B97850" fill-rule="nonzero"></path>
                            <path d="M25.24,14.3 C25.24,14.3 21.77,57.98 36.47,77.39 C50.11,95.39 67.36,64.44 67.36,64.44 L25.24,14.3 Z" id="Shape" fill="#553727" fill-rule="nonzero"></path>
                        </g>
                        <g id="head" stroke-width="1" fill="none" fill-rule="evenodd" transform="translate(93.000000, 0.000000)">
                            <path d="M86.89,30.89 C84.23,38.61 74.89,44.58 95.12,63 C99.12,66.66 102.12,69.13 104.64,73 C107.16,76.87 107.88,83.8 107.85,89.35 C107.882525,90.3006892 108.530429,91.1193663 109.448209,91.3694613 C110.365989,91.6195564 111.33966,91.2427586 111.85,90.44 C113.349218,87.8601189 114.499266,85.0926047 115.27,82.21 C116.53,77.5 118.45,69.79 119.63,62.71 C121.63,50.97 123.39,42.37 115.38,32.86 C101.42,16.27 88.68,25.69 86.89,30.89 Z" id="Shape" fill="#44485D" fill-rule="nonzero"></path>
                            <path d="M6.11,44.77 C6.11,44.77 10.02,82.65 18.26,110.77 C26.96,140.43 44.72,162.33 69.26,158.87 C91.34,155.75 104.26,121.97 110.47,85.78 C113.89,65.86 112.54,52.06 107.47,43.78 C93.11,20.39 13.54,14.28 6.11,44.77 Z" id="Shape" fill="#B97850" fill-rule="nonzero"></path>
                            <path d="M103.78,33.38 C102.179365,37.3148853 99.1450796,40.4957032 95.29,42.28 C77.2048651,50.5999564 57.1465598,53.6733226 37.4,51.15 C23.46,49.29 15.95,44.92 11.89,40.74 C9.64386171,38.3766704 8.51606132,35.1653346 8.7912542,31.9165298 C9.06644708,28.6677249 10.718341,25.6918456 13.33,23.74 C23.4558982,16.6024362 34.5743253,10.9893151 46.33,7.08 C75.96,-2.27 88.15,-0.58 100.94,13.52 C107.14,20.38 105.9,28.11 103.78,33.38 Z" id="Shape" fill="#44485D" fill-rule="nonzero"></path>
                            <path d="M51,52.71 C46.4282029,52.7099121 41.8614681,52.4059086 37.33,51.8 C25.43,50.21 16.72,46.64 11.44,41.19 C9.09281902,38.7548376 7.89911655,35.4321231 8.16,32.06 C8.42521786,28.5740241 10.1684256,25.367832 12.95,23.25 C23.1427365,16.0760286 34.3270528,10.4266014 46.15,6.48 C75.87,-2.9 88.27,-1.41 101.45,13.1 C107.87,20.18 106.61,28.17 104.45,33.62 C102.79245,37.7122282 99.6387536,41.0196761 95.63,42.87 C81.6373113,49.330974 66.4123012,52.6877765 51,52.71 Z M75.33,1.92 C67.83,1.92 58.66,3.92 46.52,7.74 C34.839759,11.6361143 23.7901511,17.2148188 13.72,24.3 C11.2344042,26.1913137 9.67667656,29.05564 9.44,32.17 C9.18757143,35.1704622 10.2492214,38.132867 12.35,40.29 C17.42,45.52 25.87,48.96 37.47,50.51 C57.0956844,53.0538247 77.0406116,49.9925748 95,41.68 C98.7079341,39.9708578 101.625706,36.9136337 103.16,33.13 C105.21,28.02 106.41,20.56 100.44,13.98 C93,5.81 85.82,1.92 75.33,1.92 Z" id="Shape" fill="#44485D" fill-rule="nonzero"></path>
                            <path d="M26.06,43 C37.4,51.17 38.95,57.88 28.06,80.07 C22.17,92.07 14.63,93.82 12.67,93.64 C3.82,92.81 -0.74,63.9 0.33,47.43 C1.46,30.64 12,32.86 26.06,43 Z" id="Shape" fill="#44485D" fill-rule="nonzero"></path>
                            <path d="M23.19,86.74 C22.7827623,86.7269448 22.4241672,86.4681189 22.2835144,86.0857189 C22.1428615,85.7033188 22.2482801,85.2738213 22.55,85 C37.7,72.19 37.55,58.43 36.84,53.41 C31.9113302,51.7531701 27.4222333,49.0009058 23.71,45.36 C23.420388,45.0062532 23.4075571,44.5011424 23.6788352,44.1331478 C23.9501133,43.7651531 24.436414,43.6279919 24.86,43.8 L37.86,50.28 C38.1011077,50.4039553 38.2815552,50.6204923 38.36,50.88 C38.36,50.93 38.48,51.31 38.61,51.96 C43.7226833,53.6215448 49.0641098,54.471854 54.44,54.48 C64.78,54.55 80.44,51.71 96.44,38 C96.8567396,37.7487184 97.3938641,37.8339164 97.7123886,38.2018246 C98.0309132,38.5697328 98.0383476,39.1135215 97.73,39.49 C81.49,53.49 65.45,56.49 54.73,56.49 L54.45,56.49 C49.1971394,56.476182 43.9747725,55.6911423 38.95,54.16 C39.2205748,56.9276658 39.1196799,59.7190904 38.65,62.46 C37.65,68.63 34.21,77.81 23.86,86.56 C23.6653018,86.6980294 23.4276574,86.7618741 23.19,86.74 Z" id="Shape" fill="#44485D" fill-rule="nonzero"></path>
                            <circle id="Oval" fill="#44485D" fill-rule="nonzero" transform="translate(92.170929, 95.777540) rotate(-82.330000) translate(-92.170929, -95.777540) " cx="92.1709286" cy="95.7775398" r="3.32"></circle>
                            <circle id="Oval" fill="#44485D" fill-rule="nonzero" transform="translate(55.837581, 91.812638) rotate(-82.330000) translate(-55.837581, -91.812638) " cx="55.8375806" cy="91.8126381" r="3.32"></circle>
                            <path d="M23.29,82.56 C24.4209432,78.8262985 22.5769074,74.8373352 19,73.28 C15.59,71.87 12.2,73.43 12.71,78.53 C13.56,86.91 15.51,97.18 18.84,97.74 L23.29,82.56 Z" id="Shape" fill="#B97850" fill-rule="nonzero"></path>
                            <path d="M76.19,115.19 C74.0266091,115.183891 71.9051064,114.593049 70.05,113.48 C69.7884419,113.277004 69.7177621,112.911632 69.8847456,112.625736 C70.0517292,112.33984 70.4046932,112.221907 70.71,112.35 C73.8187682,114.215217 77.6591883,114.384481 80.92,112.8 L80.1,89.09 C80.1409304,88.7593723 80.4218484,88.5110864 80.755,88.5110864 C81.0881516,88.5110864 81.3690696,88.7593723 81.41,89.09 L82.24,113.21 C82.2487617,113.450272 82.1261701,113.676301 81.92,113.8 C80.1553245,114.732663 78.1858766,115.210418 76.19,115.19 Z" id="Shape" fill="#44485D" fill-rule="nonzero"></path>
                            <path d="M69.41,85 C69.1005034,84.9992561 68.8087926,84.855247 68.62,84.61 C61.44,75.11 52.07,76.61 51.97,76.67 C51.5958931,76.8057331 51.1769109,76.7067165 50.9031427,76.4178733 C50.6293744,76.1290302 50.5529367,75.7053467 50.7085087,75.3390452 C50.8640808,74.9727438 51.2220467,74.7335561 51.62,74.73 C52.05,74.65 62.29,72.96 70.18,83.42 C70.3947073,83.7213256 70.4254897,84.1165778 70.2600229,84.4475114 C70.094556,84.778445 69.7598848,84.9909705 69.39,85 L69.41,85 Z" id="Shape" fill="#44485D" fill-rule="nonzero"></path>
                            <path d="M105.35,85 C105.124436,84.9986916 104.905939,84.9211606 104.73,84.78 C104.45,84.55 97.67,79.17 87.49,83.62 C87.0143213,83.7429417 86.5197961,83.5021239 86.3232617,83.0518361 C86.1267272,82.6015483 86.2864087,82.0751927 86.7,81.81 C98.03,76.87 105.7,82.99 105.98,83.26 C106.287982,83.5312198 106.398996,83.9630737 106.259991,84.3491969 C106.120987,84.7353201 105.760186,84.9973208 105.35,85.01 L105.35,85 Z" id="Shape" fill="#44485D" fill-rule="nonzero"></path>
                            <path d="M76.4,126.6 C76.1616555,126.600018 75.9311418,126.514906 75.75,126.36 C75.67,126.29 67.81,119.61 58.53,121.49 C58.0454908,121.501204 57.6226865,121.163373 57.5266946,120.688336 C57.4307026,120.213299 57.6891565,119.737806 58.14,119.56 C68.39,117.49 76.7,124.56 77.05,124.88 C77.3455876,125.156299 77.4455468,125.583494 77.3032371,125.962257 C77.1609274,126.341019 76.8043964,126.5967 76.4,126.61 L76.4,126.6 Z" id="Shape" fill="#553727" fill-rule="nonzero"></path>
                        </g>
                        <g id="body" stroke-width="1" fill="none" fill-rule="evenodd" transform="translate(4.000000, 155.000000)">
                            <polygon id="Shape" fill="#FFCB58" fill-rule="nonzero" points="87.79 20.42 141.34 219.26 177.69 129.26 174.19 20.47 92.54 9.45"></polygon>
                            <polygon id="Shape" fill="#967CDF" fill-rule="nonzero" points="164.17 125.52 145.5 39.79 133.94 39.79 120.8 116.76 143.57 199.48"></polygon>
                            <path d="M139.89,18.48 L139.81,18.48 C131.36,18.48 125.92,21.07 127.88,29.09 C129.84,37.11 136.13,45.09 139.67,45.09 L139.67,45.03 L140.04,45.09 C143.58,45.09 149.87,37.09 151.83,29.09 C153.79,21.09 148.34,18.48 139.89,18.48 Z" id="Shape" fill="#967CDF" fill-rule="nonzero"></path>
                            <path d="M96.23,0.92 C96.23,0.92 120.23,15.82 140.56,15.77 C150.76,15.77 158.36,10.87 160.41,2.98 L169.19,20 C169.19,20 166.9,31.77 153.93,40.77 L141,18 L125.56,40.61 C125.56,40.61 96.56,29.15 87.84,15.37 L96.23,0.92 Z" id="Shape" fill="#FFFFFF" fill-rule="nonzero"></path>
                            <g id="Group" transform="translate(121.000000, 51.000000)">
                                <path d="M5.43,12.58 L27.13,0.74" id="Shape"></path>
                                <path d="M3.43,19.6 L29.13,5.57" id="Shape"></path>
                                <path d="M3.02,42.59 L36.94,24.08" id="Shape"></path>
                                <path d="M0.58,50.39 L36.94,30.55" id="Shape"></path>
                            </g>
                            <path d="M139.59,45.43 C136.29,45.43 134.73,43.5 133.59,42.09 L133.15,41.55 C133.039995,41.4111982 133.059172,41.2103099 133.193453,41.0948287 C133.327733,40.9793476 133.529229,40.9904569 133.65,41.12 L134.11,41.67 C135.22,43.05 136.61,44.76 139.6,44.76 C142.97,44.76 146.02,41.11 146.05,41.07 C146.16598,40.9291674 146.374167,40.9090202 146.515,41.025 C146.655833,41.1409798 146.67598,41.3491674 146.56,41.49 C146.42,41.66 143.27,45.43 139.59,45.43 Z" id="Shape" fill="#FFCB58" fill-rule="nonzero"></path>
                            <path d="M90.18,17.72 L94.32,4.2 C67.32,11.41 34.1,21.79 14.72,32.6 C2.72,39.28 -0.1,51.48 1.23,65.14 C6.07,115.14 22.07,228.92 22.07,239.59 C22.07,252.7 6.3,408.45 6.3,408.45 C6.3,408.45 68,423.55 141.53,423.55 L150.12,213.8 C147.74,165.21 90.18,17.72 90.18,17.72 Z" id="Shape" fill="#404299" fill-rule="nonzero"></path>
                            <path d="M169.19,20 L164.99,10.8 C182.18,20.31 224.07,44.36 224.86,49.87 C226.96,64.54 211.73,226.43 211.73,239.54 C211.73,252.65 225,400.69 225,400.69 C225,400.69 205.68,424.94 155.53,423.56 L144.74,311.14 C144.74,311.14 137.08,206.87 144.74,184.83 C174.19,100 169.19,20 169.19,20 Z" id="Shape" fill="#404299" fill-rule="nonzero"></path>
                            <path d="M102.87,81.11 C102.708709,81.1122274 102.552186,81.0553101 102.43,80.95 L77.06,58.48 C76.881755,58.3230745 76.8015593,58.0824874 76.85,57.85 L83.85,26.02 C83.9602556,25.7051797 84.2880809,25.5221154 84.6139442,25.593398 C84.9398075,25.6646806 85.1612584,25.9678991 85.13,26.3 L78.22,57.76 L103.3,80 C103.50248,80.1827055 103.571729,80.4711336 103.474272,80.7258518 C103.376814,80.9805699 103.132724,81.1491116 102.86,81.15 L102.87,81.11 Z" id="Shape" fill="#967CDF" fill-rule="nonzero"></path>
                            <path d="M143.38,191.1 C143.152364,191.100154 142.940716,190.982992 142.82,190.79 L81,92.14 C80.8441547,91.9142878 80.8441547,91.6157122 81,91.39 L94.6,73.83 C94.7144981,73.5802616 94.9717271,73.4275709 95.245798,73.4466553 C95.5198689,73.4657397 95.7534535,73.6526073 95.8322343,73.9158043 C95.9110151,74.1790013 95.8185135,74.4634739 95.6,74.63 L82.28,91.83 L143.91,190.1 C144.032028,190.303008 144.035914,190.55584 143.920183,190.762503 C143.804452,190.969165 143.586852,191.097965 143.35,191.1 L143.38,191.1 Z" id="Shape" fill="#967CDF" fill-rule="nonzero"></path>
                            <path d="M172.72,85.38 C172.439517,85.3772765 172.191395,85.1975657 172.101345,84.931917 C172.011294,84.6662684 172.09899,84.3727213 172.32,84.2 L192.66,68.42 L177.09,26.42 C177.004147,26.0924594 177.18009,25.7530832 177.497242,25.6344735 C177.814394,25.5158638 178.169856,25.6565032 178.32,25.96 L194.06,68.45 C194.16069,68.7190604 194.075769,69.022348 193.85,69.2 L173.12,85.27 C173.002261,85.3493732 172.861769,85.3880084 172.72,85.38 Z" id="Shape" fill="#967CDF" fill-rule="nonzero"></path>
                            <path d="M164.17,150.46 C163.933148,150.457965 163.715548,150.329165 163.599817,150.122503 C163.484086,149.91584 163.487972,149.663008 163.61,149.46 L196.11,95.92 L182.67,77.17 C182.505231,76.8757905 182.58874,76.5046902 182.863655,76.3094228 C183.138571,76.1141554 183.516471,76.1575266 183.74,76.41 L197.43,95.52 C197.572436,95.7388665 197.572436,96.0211335 197.43,96.24 L164.71,150.15 C164.593117,150.337083 164.390495,150.453403 164.17,150.46 Z" id="Shape" fill="#967CDF" fill-rule="nonzero"></path>
                            <path d="M183.75,98.54 C183.527863,98.5389305 183.321165,98.4261861 183.2,98.24 L178.94,91.57 C178.841181,91.4129147 178.813063,91.2214835 178.862537,91.0426166 C178.912011,90.8637497 179.034504,90.7139769 179.2,90.63 L185.73,87.43 C185.958153,87.3202106 186.229003,87.3506198 186.42713,87.508269 C186.625257,87.6659182 186.715732,87.9230154 186.66,88.17 L184.39,98 C184.329674,98.2579202 184.120994,98.4547875 183.86,98.5 L183.75,98.54 Z M180.44,91.47 L183.44,96.2 L185.05,89.2 L180.44,91.47 Z" id="Shape" fill="#967CDF" fill-rule="nonzero"></path>
                        </g>
                        <g id="forearm_R" stroke-width="1" fill="none" fill-rule="evenodd" transform="translate(0.000000, 186.000000)">
                            <path d="M13.9,4 C1.17,12.59 -8.43,23.88 16.71,94.47 C34.71,145 56,197.8 56,197.8 C56,197.8 72.49,223.54 99.42,204.94 C121.49,189.7 126.42,175.21 112.22,151.42 C102.38,135 66.64,37.28 51,17.79 C35.36,-1.7 22.11,-1.49 13.9,4 Z" id="Shape" fill="#404299" fill-rule="nonzero"></path>
                            <path d="M90.89,158.8 C90.89,158.8 94.21,143.63 106.21,138.08 L58,27.67" id="Shape" stroke="#967CDF" stroke-width="2" stroke-linecap="round" stroke-linejoin="round"></path>
                        </g>
                    </g>
                </g>
            </g>
            <circle id="Oval" stroke="#FFCB58" stroke-width="2" stroke-linecap="round" stroke-linejoin="round" cx="274.22" cy="125.11" r="8.53"></circle>
            <circle id="Oval" fill="#3372F7" fill-rule="nonzero" cx="246.74" cy="153.17" r="4"></circle>
            <polygon id="Shape" fill="#000000" fill-rule="nonzero" points="282.18 73.93 275.07 63.05 281.91 58.9 288 69.9 299.11 62.7 302.66 69.76 292.26 75.76 299.37 86.76 292 90.58 286 79.67 275.11 86.88 271.11 80.16"></polygon>
            <path d="M328.67,81.48 L302.24,94.48 L301.93,94.16 L311.75,83.27 L304.75,81.58 C309.61,76.48 314.06,71.78 318.59,67.13 C319.112254,66.7961136 319.749916,66.6946675 320.35,66.85 C322.98,67.41 325.58,68.08 328.73,68.85 L318.82,78.53 L328.63,80.9 L328.67,81.48 Z" id="Shape" fill="#000000" fill-rule="nonzero"></path>
            <path d="M333,92.93 C335.117726,93.9621928 336.006853,96.509013 334.991669,98.6349447 C333.976486,100.760876 331.436875,101.670391 329.302874,100.672282 C327.168872,99.6741723 326.239029,97.1419336 327.22,95 C327.683325,93.9334244 328.567173,93.105991 329.661948,92.7139176 C330.756723,92.3218442 331.96491,92.4000539 333,92.93 Z M335.8,91.46 L332.21,89.85 L334.92,78.75 L338.25,71.34 L345.66,74.67 L342.33,82.08 L335.8,91.46 Z" id="Shape" fill="#000000" fill-rule="nonzero"></path>
            <path d="M233.11,77.54 L226.57,77.3 L226.71,73.57 C222.44,72.31 219.71,68.92 219.84,64.67 L225.98,64.9 C225.98,67.01 227.74,68.63 230.29,68.73 C232.38,68.81 233.76,67.82 233.81,66.44 C233.97,62.09 219.92,65.86 220.3,55.74 C220.45,51.56 223.38,48.62 227.66,47.81 L227.77,44.81 L234.31,45.05 L234.19,48.26 C238.1,49.55 240.6,52.75 240.49,56.66 L234.57,56.44 C234.64,54.54 232.96,53.09 230.64,53.01 C228.64,52.94 227.24,53.82 227.19,55.13 C227.04,59.28 241.08,55.57 240.71,65.7 C240.55,69.91 237.63,72.95 233.24,73.86 L233.11,77.54 Z" id="Shape" fill="#000000" fill-rule="nonzero"></path>
            <path d="M257.58,79.16 L252.88,78 L255.77,72.64 L252.22,71.79 L249.3,77.14 L244.59,76 L247.51,70.65 L243.33,69.65 L244.22,65.96 L249.39,67.21 L250.93,64.41 L246.4,63.32 L247.3,59.6 L252.82,60.93 L255.67,55.74 L260.41,56.88 L257.56,62.07 L261.11,62.92 L263.96,57.73 L268.7,58.87 L265.82,64.05 L270.56,65.19 L269.66,68.91 L263.93,67.53 L262.39,70.33 L267.48,71.56 L266.59,75.25 L260.52,73.79 L257.58,79.16 Z M259.18,66.41 L255.63,65.56 L254.09,68.36 L257.66,69.22 L259.18,66.41 Z" id="Shape" fill="#000000" fill-rule="nonzero"></path>
        </g>
    </g>
</svg>