<svg xmlns="http://www.w3.org/2000/svg" viewBox="0 0 52 52"><defs><style>.cls-1{fill:#565656;}.cls-2{fill:#fff;}</style></defs><title>11Asset 4contact us</title><g id="Layer_2" data-name="Layer 2"><g id="Layer_1-2" data-name="Layer 1"><circle class="cls-1" cx="26" cy="26" r="26"/><path class="cls-2" d="M36.73,21a.13.13,0,0,1,.12.12v9.76a.13.13,0,0,1-.12.12H15.27a.13.13,0,0,1-.12-.12V21.12a.13.13,0,0,1,.12-.12H36.73m0-1.75H15.27a1.88,1.88,0,0,0-1.87,1.87v9.76a1.88,1.88,0,0,0,1.87,1.87H36.73a1.88,1.88,0,0,0,1.87-1.87V21.12a1.88,1.88,0,0,0-1.87-1.87Z"/><path class="cls-2" d="M33.78,21,26,26.3,18.22,21H33.78m2.44-1.75H15.77A1,1,0,0,0,15.13,21l10.23,7a1,1,0,0,0,1.29,0l10.23-7a1,1,0,0,0-.65-1.76Z"/></g></g></svg>