<svg xmlns="http://www.w3.org/2000/svg" viewBox="0 0 52 52"><defs><style>.cls-1{fill:#565656;}.cls-2{fill:#fff;}</style></defs><title>11Asset 3licence-content</title><g id="Layer_2" data-name="Layer 2"><g id="Layer_1-2" data-name="Layer 1"><circle class="cls-1" cx="26" cy="26" r="26"/><path class="cls-2" d="M35.5,16.25a.26.26,0,0,1,.25.25v19a.26.26,0,0,1-.25.25h-19a.26.26,0,0,1-.25-.25v-19a.26.26,0,0,1,.25-.25h19m0-1.75h-19a2,2,0,0,0-2,2v19a2,2,0,0,0,2,2h19a2,2,0,0,0,2-2v-19a2,2,0,0,0-2-2Z"/><path class="cls-2" d="M32.21,21.26H19.79a.88.88,0,0,1,0-1.75H32.21a.88.88,0,0,1,0,1.75Z"/><path class="cls-2" d="M32.21,25.44H19.79a.88.88,0,0,1,0-1.75H32.21a.88.88,0,0,1,0,1.75Z"/><path class="cls-2" d="M27.21,29.63H19.79a.88.88,0,0,1,0-1.75h7.42a.88.88,0,0,1,0,1.75Z"/></g></g></svg>