<svg xmlns="http://www.w3.org/2000/svg" viewBox="0 0 90 90"><defs><style>.cls-1{fill:#9aa4b7;opacity:0.5;}.cls-2{fill:#fff;}</style></defs><title>11Asset 1fb-icon</title><g id="Layer_2" data-name="Layer 2"><g id="Layer_1-2" data-name="Layer 1"><circle class="cls-1" cx="45" cy="45" r="45"/><path class="cls-2" d="M55.92,21.6c0,.15,0,.3,0,.45,0,2.4,0,4.81,0,7.21,0,.33-.1.42-.42.42-1.31,0-2.62,0-3.92,0a8.07,8.07,0,0,0-1.33.16,1.78,1.78,0,0,0-1.46,1.75c-.06,1.69-.06,3.39-.09,5.08,0,.31.2.26.38.26h6.87L55.08,45H48.69c0,.19,0,.35,0,.5q0,11.25,0,22.5c0,.14,0,.27,0,.41H39.92c0-.14,0-.27,0-.41q0-11.21,0-22.43V45H34.1c0-.16,0-.28,0-.41,0-2.42,0-4.83,0-7.25,0-.33.1-.42.42-.42,1.67,0,3.34,0,5,0,.36,0,.43-.11.43-.45,0-2.17,0-4.34.08-6.5a10.65,10.65,0,0,1,1.12-4.53,6.13,6.13,0,0,1,3.71-3.15c.92-.29,1.89-.42,2.84-.62l.4-.09Z"/></g></g></svg>