<svg xmlns="http://www.w3.org/2000/svg" viewBox="0 0 90 90"><defs><style>.cls-1{fill:#9aa4b7;opacity:0.5;}.cls-2{fill:#fff;}</style></defs><title>11Asset 3insta-icon</title><g id="Layer_2" data-name="Layer 2"><g id="Layer_1-2" data-name="Layer 1"><circle class="cls-1" cx="45" cy="45" r="45"/><path class="cls-2" d="M66.55,45c-.06,3.06-.11,6.12-.2,9.18a14.09,14.09,0,0,1-1,5,10.85,10.85,0,0,1-8.95,7,48.34,48.34,0,0,1-6.86.4c-4.59,0-9.18,0-13.77-.13a13.13,13.13,0,0,1-6.47-1.71,10.82,10.82,0,0,1-5.46-8.2,52.2,52.2,0,0,1-.4-6.92c0-4.57.05-9.14.12-13.71A13.72,13.72,0,0,1,24.5,31a10.85,10.85,0,0,1,9-7.12,47.84,47.84,0,0,1,6.86-.4c4.57,0,9.14,0,13.71.12a13.22,13.22,0,0,1,6.53,1.71,10.76,10.76,0,0,1,5.45,8.2c.33,2.5.32,5.06.42,7.59.05,1.29,0,2.58,0,3.87ZM45,62.63c1.79,0,3.59,0,5.37,0a47,47,0,0,0,5.53-.37,7,7,0,0,0,6.06-5.17,12.79,12.79,0,0,0,.52-3.26q.15-5.79.14-11.59c0-2.45-.07-4.91-.26-7.36a7.47,7.47,0,0,0-3.13-5.81,9.11,9.11,0,0,0-5.31-1.55Q45,27.44,36,27.5a9.4,9.4,0,0,0-4.86,1.25,7.4,7.4,0,0,0-3.58,6.11c-.19,2.4-.25,4.82-.25,7.24,0,3.92,0,7.85.13,11.77a9.47,9.47,0,0,0,1.48,5.28,7.37,7.37,0,0,0,5.88,3.22C38.2,62.59,45,62.67,45,62.63Z"/><path class="cls-2" d="M56,45.08A11.07,11.07,0,1,1,45.12,33.93,11.06,11.06,0,0,1,56,45.08ZM45,37.84A7.17,7.17,0,1,0,52.13,45,7.17,7.17,0,0,0,45,37.84Z"/></g></g></svg>