<svg xmlns="http://www.w3.org/2000/svg" viewBox="0 0 90 90"><defs><style>.cls-1{fill:#9aa4b7;opacity:0.5;}.cls-2{fill:#fff;}</style></defs><title>11Asset 2twitter-icon</title><g id="Layer_2" data-name="Layer 2"><g id="Layer_1-2" data-name="Layer 1"><circle class="cls-1" cx="45" cy="45" r="45"/><path class="cls-2" d="M64.9,28.57a10.23,10.23,0,0,1-3.38,4.56,21.52,21.52,0,0,0,4.4-1c-.07.12-.14.24-.22.35a18.26,18.26,0,0,1-3.52,3.62.85.85,0,0,0-.37.72,28.58,28.58,0,0,1-.6,5.81A24.88,24.88,0,0,1,50.77,58.21a21.83,21.83,0,0,1-10,3.71,26.09,26.09,0,0,1-11-.81,28.32,28.32,0,0,1-5.33-2.37,1.61,1.61,0,0,1-.44-.36,18.13,18.13,0,0,0,12.47-3.61,9,9,0,0,1-8-6,13.27,13.27,0,0,0,3.6-.16C28,47.19,25.78,44.4,25.55,40a10.8,10.8,0,0,0,3.72,1c-3.8-3.2-4.55-7-2.61-11.53l2.09,2a24.14,24.14,0,0,0,15.48,7h.21c0-.74,0-1.44,0-2.15A8.55,8.55,0,0,1,51.4,28a8.28,8.28,0,0,1,7.42,2,1.26,1.26,0,0,0,1.42.33L63.92,29C64.22,28.89,64.51,28.74,64.9,28.57Z"/></g></g></svg>