<svg xmlns="http://www.w3.org/2000/svg" viewBox="0 0 500.12 322.13"><defs><style>.cls-1{fill:none;stroke:#ccc;stroke-linecap:round;stroke-linejoin:round;stroke-width:2px;}.cls-2{fill:#5086ff;}.cls-3{fill:#555;}.cls-4{fill:#ccc;}</style></defs><title>11Asset 1privacyimg-1</title><g id="Layer_2" data-name="Layer 2"><g id="Layer_1-2" data-name="Layer 1"><line class="cls-1" x1="59.12" y1="40.38" x2="462.12" y2="40.38"/><line class="cls-1" x1="59.12" y1="80.88" x2="462.12" y2="80.88"/><line class="cls-1" x1="59.12" y1="120.38" x2="462.12" y2="120.38"/><line class="cls-1" x1="59.12" y1="161.88" x2="462.12" y2="161.88"/><line class="cls-1" x1="59.12" y1="200.88" x2="474.12" y2="200.88"/><line class="cls-1" x1="59.12" y1="240.38" x2="499.12" y2="240.38"/><line class="cls-1" x1="59.12" y1="281.13" x2="352.79" y2="281.13"/><line class="cls-1" x1="57.87" y1="321.13" x2="202.12" y2="321.13"/><path class="cls-2" d="M8.64,31.56C3.48,31.56,0,27.24,0,20.76,0,12.48,4.2,3.84,10,0l6.36,3.36c-4.2,3.12-7.2,8.28-7.2,12.6,4.44,0,7.44,3.12,7.44,7.8A7.6,7.6,0,0,1,8.64,31.56Zm22.56,0c-5.16,0-8.64-4.32-8.64-10.8,0-8.28,4.08-16.92,10-20.76l6.36,3.36c-4.2,3.12-7.2,8.28-7.2,12.6,4.32,0,7.44,3.12,7.44,7.8A7.6,7.6,0,0,1,31.2,31.56Z"/><path class="cls-3" d="M59.6,18v-4.2H77.48V18H71.06V35.14H66V18Z"/><path class="cls-3" d="M94.25,25.42v9.72h-4.5V26.32c0-1.86-1.08-3.18-2.88-3.18a3.23,3.23,0,0,0-3.18,3.36v8.64h-4.5V12.88h4.5v8.64a5.69,5.69,0,0,1,4.71-2.34C91.91,19.18,94.25,21.76,94.25,25.42Z"/><path class="cls-3" d="M99.71,12.67a2.54,2.54,0,1,1-2.61,2.52A2.47,2.47,0,0,1,99.71,12.67ZM102,35.14h-4.5V19.78H102Z"/><path class="cls-3" d="M104.87,30h3.81c0,1.53,1.44,2.61,3.39,2.61,1.65,0,2.85-.78,2.85-1.83,0-3.09-9.9,0-9.9-6.51,0-3,2.85-5.16,6.6-5.16,4.11,0,7.08,2.22,7.11,5.31h-4c0-1.26-1.35-2.13-3.15-2.13-1.41,0-2.52.72-2.52,1.71,0,2.94,10.11.51,10.14,6.3,0,3.18-3,5.49-7.23,5.49S104.87,33.37,104.87,30Z"/><path class="cls-3" d="M132.68,12.67a2.54,2.54,0,1,1-2.61,2.52A2.47,2.47,0,0,1,132.68,12.67Zm2.25,22.47h-4.5V19.78h4.5Z"/><path class="cls-3" d="M137.84,30h3.81c0,1.53,1.44,2.61,3.39,2.61,1.65,0,2.85-.78,2.85-1.83,0-3.09-9.9,0-9.9-6.51,0-3,2.85-5.16,6.6-5.16,4.11,0,7.08,2.22,7.11,5.31h-4c0-1.26-1.35-2.13-3.15-2.13-1.41,0-2.52.72-2.52,1.71,0,2.94,10.11.51,10.14,6.3,0,3.18-3,5.49-7.23,5.49S137.84,33.37,137.84,30Z"/><path class="cls-3" d="M174.92,19.78h4.5V35.14h-4.5V33a6.23,6.23,0,0,1-5.22,2.73c-4.32,0-7.35-3.42-7.35-8.28s3-8.28,7.35-8.28a6.23,6.23,0,0,1,5.22,2.73Zm0,7.68a4,4,0,1,0-8,0,4,4,0,1,0,8,0Z"/><path class="cls-3" d="M202.67,42V33.28a6.23,6.23,0,0,1-5.07,2.46c-4.26,0-7.29-3.42-7.29-8.28s3-8.28,7.29-8.28a6.34,6.34,0,0,1,5.13,2.46V19.78h4.44V42Zm-3.84-10.35a4,4,0,0,0,4-4.23,4,4,0,1,0-8,0A4,4,0,0,0,198.83,31.69Z"/><path class="cls-3" d="M210,29.38v-9.6h4.5V28.6c0,1.86,1.08,3.18,2.85,3.18a3.23,3.23,0,0,0,3.21-3.36V19.78h4.5V35.14H220.7V33.07a5.82,5.82,0,0,1-4.89,2.67C212.36,35.74,210,33.07,210,29.38Z"/><path class="cls-3" d="M240.11,19.78h4.5V35.14h-4.5V33a6.23,6.23,0,0,1-5.22,2.73c-4.32,0-7.35-3.42-7.35-8.28s3-8.28,7.35-8.28a6.23,6.23,0,0,1,5.22,2.73Zm0,7.68a4,4,0,1,0-8,0,4,4,0,1,0,8,0Z"/><path class="cls-3" d="M252.23,35.14h-4.5V12.88h4.5Z"/><path class="cls-3" d="M258,12.67a2.54,2.54,0,1,1-2.61,2.52A2.47,2.47,0,0,1,258,12.67Zm2.25,22.47h-4.5V19.78h4.5Z"/><path class="cls-3" d="M264.89,23.2h-2.16V19.78h2.37l.51-3.87h3.78v3.87h3.48V23.2h-3.48v6.51a2,2,0,0,0,2,2.16,8,8,0,0,0,1.59-.21l0,3.6a10.52,10.52,0,0,1-3.06.48c-3.06,0-5-2.31-5-5.58Z"/><path class="cls-3" d="M276.14,38.2a6.34,6.34,0,0,0,1.83.33c1.92,0,2.67-1.38,3.36-3.24l-7.26-15.51H279l4.17,9.9,3.42-9.9h4.68l-5.94,15.9c-1.44,3.93-3.09,6.39-6.21,6.39a8.83,8.83,0,0,1-3-.54Z"/><path class="cls-3" d="M304,12.67a2.54,2.54,0,1,1-2.61,2.52A2.47,2.47,0,0,1,304,12.67Zm2.25,22.47h-4.5V19.78h4.5Z"/><path class="cls-3" d="M324.83,25.54v9.6h-4.5V26.32c0-1.86-1.08-3.18-2.85-3.18a3.23,3.23,0,0,0-3.21,3.36v8.64h-4.5V19.78h4.38v2.07A5.81,5.81,0,0,1,319,19.18C322.49,19.18,324.83,21.85,324.83,25.54Z"/><path class="cls-3" d="M342.73,25.42v9.72h-4.5V26.32c0-1.86-1.08-3.18-2.88-3.18a3.23,3.23,0,0,0-3.18,3.36v8.64h-4.5V12.88h4.5v8.64a5.69,5.69,0,0,1,4.71-2.34C340.4,19.18,342.73,21.76,342.73,25.42Z"/><path class="cls-3" d="M357,30.25l3.93.87c-.81,2.67-4,4.62-7.59,4.62a8.08,8.08,0,0,1-8.46-8.4c0-4.8,3.51-8.16,8.46-8.16a7.86,7.86,0,0,1,8.28,8.22,9.8,9.8,0,0,1-.06,1.35l-12,0a4,4,0,0,0,3.93,3.57A3.86,3.86,0,0,0,357,30.25Zm.06-4.23a3.8,3.8,0,0,0-7.56,0Z"/><path class="cls-3" d="M374.35,19.6v4a7.31,7.31,0,0,0-2.52-.57c-1.95,0-3.24,1.65-3.24,4v8.16h-4.5V19.78h4.32v1.95a4.81,4.81,0,0,1,4.11-2.52A5,5,0,0,1,374.35,19.6Z"/><path class="cls-3" d="M387.64,30.25l3.93.87c-.81,2.67-4,4.62-7.59,4.62a8.08,8.08,0,0,1-8.46-8.4c0-4.8,3.51-8.16,8.46-8.16a7.86,7.86,0,0,1,8.28,8.22,9.72,9.72,0,0,1-.06,1.35l-12,0a4,4,0,0,0,3.93,3.57A3.86,3.86,0,0,0,387.64,30.25ZM387.7,26a3.8,3.8,0,0,0-7.56,0Z"/><path class="cls-3" d="M409.78,25.54v9.6h-4.5V26.32c0-1.86-1.08-3.18-2.85-3.18a3.23,3.23,0,0,0-3.21,3.36v8.64h-4.5V19.78h4.38v2.07A5.81,5.81,0,0,1,404,19.18C407.44,19.18,409.78,21.85,409.78,25.54Z"/><path class="cls-3" d="M413.8,23.2h-2.16V19.78H414l.51-3.87h3.78v3.87h3.48V23.2H418.3v6.51a2,2,0,0,0,2,2.16,8,8,0,0,0,1.59-.21l0,3.6a10.52,10.52,0,0,1-3.06.48c-3.06,0-5-2.31-5-5.58Z"/><path class="cls-3" d="M434,23.2h-2.16V19.78h2.37l.51-3.87h3.78v3.87H442V23.2h-3.48v6.51a2,2,0,0,0,2,2.16,8,8,0,0,0,1.59-.21l0,3.6a10.52,10.52,0,0,1-3.06.48c-3.06,0-5-2.31-5-5.58Z"/><path class="cls-3" d="M452.38,35.74c-5,0-8.52-3.39-8.52-8.28s3.48-8.28,8.52-8.28,8.55,3.39,8.55,8.28S457.45,35.74,452.38,35.74Zm0-12.6a4,4,0,0,0-4,4.32,4,4,0,1,0,8.07,0A4,4,0,0,0,452.38,23.14Z"/><path class="cls-3" d="M65.57,52.88v8.76a6.23,6.23,0,0,1,5.07-2.46c4.29,0,7.29,3.42,7.29,8.28s-3,8.28-7.29,8.28a6.39,6.39,0,0,1-5.13-2.46v1.86H61.07V52.88Zm3.84,10.35a4.24,4.24,0,1,0,4,4.23A4,4,0,0,0,69.41,63.23Z"/><path class="cls-3" d="M83,52.67a2.54,2.54,0,1,1-2.61,2.52A2.47,2.47,0,0,1,83,52.67Zm2.25,22.47h-4.5V59.78h4.5Z"/><path class="cls-3" d="M89.93,63.2H87.77V59.78h2.37l.51-3.87h3.78v3.87h3.48V63.2H94.43v6.51a2,2,0,0,0,2,2.16,8,8,0,0,0,1.59-.21l0,3.6a10.52,10.52,0,0,1-3.06.48c-3.06,0-5-2.31-5-5.58Z"/><path class="cls-3" d="M111.86,65.81A3.76,3.76,0,0,0,108.23,63c-2.19,0-3.9,1.89-3.9,4.5S106,72,108.23,72a3.76,3.76,0,0,0,3.66-2.85l4.2.54c-.57,3.54-3.93,6.09-7.89,6.09a8.28,8.28,0,1,1,0-16.56c4,0,7.38,2.55,7.86,6.09Z"/><path class="cls-3" d="M126.29,75.74c-5,0-8.52-3.39-8.52-8.28s3.48-8.28,8.52-8.28,8.55,3.39,8.55,8.28S131.36,75.74,126.29,75.74Zm0-12.6a4.33,4.33,0,1,0,4,4.32A4,4,0,0,0,126.29,63.14Z"/><path class="cls-3" d="M139.88,52.67a2.54,2.54,0,1,1-2.61,2.52A2.47,2.47,0,0,1,139.88,52.67Zm2.25,22.47h-4.5V59.78h4.5Z"/><path class="cls-3" d="M160.7,65.54v9.6h-4.5V66.32c0-1.86-1.08-3.18-2.85-3.18a3.23,3.23,0,0,0-3.21,3.36v8.64h-4.5V59.78H150v2.07a5.81,5.81,0,0,1,4.86-2.67C158.36,59.18,160.7,61.85,160.7,65.54Z"/><path class="cls-3" d="M165.47,59.66a2.54,2.54,0,1,1-2.61,2.55A2.47,2.47,0,0,1,165.47,59.66Zm0,10.89a2.54,2.54,0,1,1-2.61,2.52A2.47,2.47,0,0,1,165.47,70.55Z"/><path class="cls-3" d="M181.58,52.67A2.54,2.54,0,1,1,179,55.19,2.47,2.47,0,0,1,181.58,52.67Zm2.25,22.47h-4.5V59.78h4.5Z"/><path class="cls-3" d="M188.51,63.2h-2.16V59.78h2.37l.51-3.87H193v3.87h3.48V63.2H193v6.51a2,2,0,0,0,2,2.16,8,8,0,0,0,1.59-.21l0,3.6a10.52,10.52,0,0,1-3.06.48c-3.06,0-5-2.31-5-5.58Z"/><path class="cls-3" d="M210.14,52.67a2.54,2.54,0,1,1-2.61,2.52A2.47,2.47,0,0,1,210.14,52.67Zm2.25,22.47h-4.5V59.78h4.5Z"/><path class="cls-3" d="M215.3,70h3.81c0,1.53,1.44,2.61,3.39,2.61,1.65,0,2.85-.78,2.85-1.83,0-3.09-9.9,0-9.9-6.51,0-3,2.85-5.16,6.6-5.16,4.11,0,7.08,2.22,7.11,5.31h-4c0-1.26-1.35-2.13-3.15-2.13-1.41,0-2.52.72-2.52,1.71,0,2.94,10.11.51,10.14,6.3,0,3.18-3,5.49-7.23,5.49S215.3,73.37,215.3,70Z"/><path class="cls-3" d="M245,82h-4.5V59.78h4.44v1.86a6.39,6.39,0,0,1,5.13-2.46c4.26,0,7.29,3.42,7.29,8.28s-3,8.28-7.29,8.28A6.23,6.23,0,0,1,245,73.28Zm3.84-18.81a4.24,4.24,0,1,0,4,4.23A4,4,0,0,0,248.84,63.23Z"/><path class="cls-3" d="M259.22,70H263c0,1.53,1.44,2.61,3.39,2.61,1.65,0,2.85-.78,2.85-1.83,0-3.09-9.9,0-9.9-6.51,0-3,2.85-5.16,6.6-5.16,4.11,0,7.08,2.22,7.11,5.31h-4c0-1.26-1.35-2.13-3.15-2.13-1.41,0-2.52.72-2.52,1.71,0,2.94,10.11.51,10.14,6.3,0,3.18-3,5.49-7.23,5.49S259.22,73.37,259.22,70Z"/><path class="cls-3" d="M287.42,70.25l3.93.87c-.81,2.67-4,4.62-7.59,4.62a8.08,8.08,0,0,1-8.46-8.4c0-4.8,3.51-8.16,8.46-8.16A7.86,7.86,0,0,1,292,67.4a9.8,9.8,0,0,1-.06,1.35l-12,0a4,4,0,0,0,3.93,3.57A3.86,3.86,0,0,0,287.42,70.25Zm.06-4.23a3.8,3.8,0,0,0-7.56,0Z"/><path class="cls-3" d="M294.2,69.38v-9.6h4.5V68.6c0,1.86,1.08,3.18,2.85,3.18a3.23,3.23,0,0,0,3.21-3.36V59.78h4.5V75.14h-4.38V73.07A5.82,5.82,0,0,1,300,75.74C296.54,75.74,294.2,73.07,294.2,69.38Z"/><path class="cls-3" d="M324.07,52.88h4.5V75.14h-4.44V73.28A6.34,6.34,0,0,1,319,75.74c-4.26,0-7.29-3.42-7.29-8.28s3-8.28,7.29-8.28a6.23,6.23,0,0,1,5.07,2.46Zm-3.84,18.81a4.24,4.24,0,1,0-4-4.23A4,4,0,0,0,320.23,71.69Z"/><path class="cls-3" d="M339.52,75.74c-5,0-8.52-3.39-8.52-8.28s3.48-8.28,8.52-8.28,8.55,3.39,8.55,8.28S344.59,75.74,339.52,75.74Zm0-12.6a4.33,4.33,0,1,0,4,4.32A4,4,0,0,0,339.52,63.14Z"/><path class="cls-3" d="M365.56,65.54v9.6h-4.5V66.32c0-1.86-1.08-3.18-2.85-3.18A3.23,3.23,0,0,0,355,66.5v8.64h-4.5V59.78h4.38v2.07a5.81,5.81,0,0,1,4.86-2.67C363.22,59.18,365.56,61.85,365.56,65.54Z"/><path class="cls-3" d="M369.07,78.2a6.35,6.35,0,0,0,1.83.33c1.92,0,2.67-1.38,3.36-3.24L367,59.78h4.92l4.17,9.9,3.42-9.9h4.68l-5.94,15.9c-1.44,3.93-3.09,6.39-6.21,6.39a8.83,8.83,0,0,1-3-.54Z"/><path class="cls-3" d="M385.9,59.78h4.32v1.83a5.14,5.14,0,0,1,4.5-2.43,5.4,5.4,0,0,1,4.95,2.73,6,6,0,0,1,5.16-2.7c3.48,0,5.91,2.58,5.91,6.27v9.66h-4.5V66.38a3,3,0,0,0-2.85-3.24,3,3,0,0,0-2.91,3.24v8.76H396V66.38c0-1.95-1.08-3.24-2.76-3.24s-2.82,1.29-2.82,3.24v8.76h-4.5Z"/><path class="cls-3" d="M421.39,75.74c-5,0-8.52-3.39-8.52-8.28s3.48-8.28,8.52-8.28,8.55,3.39,8.55,8.28S426.46,75.74,421.39,75.74Zm0-12.6a4.33,4.33,0,1,0,4,4.32A4,4,0,0,0,421.39,63.14Z"/><path class="cls-3" d="M432.07,69.38v-9.6h4.5V68.6c0,1.86,1.08,3.18,2.85,3.18a3.23,3.23,0,0,0,3.21-3.36V59.78h4.5V75.14h-4.38V73.07a5.82,5.82,0,0,1-4.89,2.67C434.41,75.74,432.07,73.07,432.07,69.38Z"/><path class="cls-3" d="M449.68,70h3.81c0,1.53,1.44,2.61,3.39,2.61,1.65,0,2.85-.78,2.85-1.83,0-3.09-9.9,0-9.9-6.51,0-3,2.85-5.16,6.6-5.16,4.11,0,7.08,2.22,7.11,5.31h-4c0-1.26-1.35-2.13-3.15-2.13-1.41,0-2.52.72-2.52,1.71,0,2.94,10.11.51,10.14,6.3,0,3.18-3,5.49-7.23,5.49S449.68,73.37,449.68,70Z"/><path class="cls-3" d="M71.33,99.6v4a7.31,7.31,0,0,0-2.52-.57c-1.95,0-3.24,1.65-3.24,4v8.16h-4.5V99.78h4.32v1.95a4.81,4.81,0,0,1,4.11-2.52A5,5,0,0,1,71.33,99.6Z"/><path class="cls-3" d="M85.07,99.78h4.5v15.36h-4.5V113a6.23,6.23,0,0,1-5.22,2.73c-4.32,0-7.35-3.42-7.35-8.28s3-8.28,7.35-8.28a6.23,6.23,0,0,1,5.22,2.73Zm0,7.68a4,4,0,1,0-4,4.32A4,4,0,0,0,85,107.46Z"/><path class="cls-3" d="M93.89,103.2H91.73V99.78H94.1l.51-3.87h3.78v3.87h3.48v3.42H98.39v6.51a2,2,0,0,0,2,2.16,8,8,0,0,0,1.59-.21l0,3.6a10.52,10.52,0,0,1-3.06.48c-3.06,0-5-2.31-5-5.58Z"/><path class="cls-3" d="M119.54,105.42v9.72H115v-8.82c0-1.86-1.08-3.18-2.88-3.18A3.23,3.23,0,0,0,109,106.5v8.64h-4.5V92.88H109v8.64a5.69,5.69,0,0,1,4.71-2.34C117.2,99.18,119.54,101.76,119.54,105.42Z"/><path class="cls-3" d="M133.82,110.25l3.93.87c-.81,2.67-4,4.62-7.59,4.62a8.08,8.08,0,0,1-8.46-8.4c0-4.8,3.51-8.16,8.46-8.16a7.86,7.86,0,0,1,8.28,8.22,9.72,9.72,0,0,1-.06,1.35l-12,0a4,4,0,0,0,3.93,3.57A3.86,3.86,0,0,0,133.82,110.25Zm.06-4.23a3.8,3.8,0,0,0-7.56,0Z"/><path class="cls-3" d="M151.16,99.6v4a7.31,7.31,0,0,0-2.52-.57c-1.95,0-3.24,1.65-3.24,4v8.16h-4.5V99.78h4.32v1.95a4.81,4.81,0,0,1,4.11-2.52A5,5,0,0,1,151.16,99.6Z"/><path class="cls-3" d="M162.62,103.2h-2.16V99.78h2.37l.51-3.87h3.78v3.87h3.48v3.42h-3.48v6.51a2,2,0,0,0,2,2.16,8,8,0,0,0,1.59-.21l0,3.6a10.52,10.52,0,0,1-3.06.48c-3.06,0-5-2.31-5-5.58Z"/><path class="cls-3" d="M188.27,105.42v9.72h-4.5v-8.82c0-1.86-1.08-3.18-2.88-3.18a3.23,3.23,0,0,0-3.18,3.36v8.64h-4.5V92.88h4.5v8.64a5.69,5.69,0,0,1,4.71-2.34C185.93,99.18,188.27,101.76,188.27,105.42Z"/><path class="cls-3" d="M203,99.78h4.5v15.36H203V113a6.23,6.23,0,0,1-5.22,2.73c-4.32,0-7.35-3.42-7.35-8.28s3-8.28,7.35-8.28a6.23,6.23,0,0,1,5.22,2.73Zm0,7.68a4,4,0,1,0-4,4.32A4,4,0,0,0,203,107.46Z"/><path class="cls-3" d="M225.71,105.54v9.6h-4.5v-8.82c0-1.86-1.08-3.18-2.85-3.18a3.23,3.23,0,0,0-3.21,3.36v8.64h-4.5V99.78H215v2.07a5.81,5.81,0,0,1,4.86-2.67C223.37,99.18,225.71,101.85,225.71,105.54Z"/><path class="cls-3" d="M248.87,99.78h4.5v15.36h-4.5V113a6.23,6.23,0,0,1-5.22,2.73c-4.32,0-7.35-3.42-7.35-8.28s3-8.28,7.35-8.28a6.23,6.23,0,0,1,5.22,2.73Zm0,7.68a4,4,0,1,0-4,4.32A4,4,0,0,0,248.84,107.46Z"/><path class="cls-3" d="M271.58,105.54v9.6h-4.5v-8.82c0-1.86-1.08-3.18-2.85-3.18A3.23,3.23,0,0,0,261,106.5v8.64h-4.5V99.78h4.38v2.07a5.81,5.81,0,0,1,4.86-2.67C269.24,99.18,271.58,101.85,271.58,105.54Z"/><path class="cls-3" d="M282.23,115.74c-5,0-8.52-3.39-8.52-8.28s3.48-8.28,8.52-8.28,8.55,3.39,8.55,8.28S287.29,115.74,282.23,115.74Zm0-12.6a4.33,4.33,0,1,0,4,4.32A4,4,0,0,0,282.23,103.14Z"/><path class="cls-3" d="M308.26,105.54v9.6h-4.5v-8.82c0-1.86-1.08-3.18-2.85-3.18a3.23,3.23,0,0,0-3.21,3.36v8.64h-4.5V99.78h4.38v2.07a5.81,5.81,0,0,1,4.86-2.67C305.92,99.18,308.26,101.85,308.26,105.54Z"/><path class="cls-3" d="M311.77,118.2a6.34,6.34,0,0,0,1.83.33c1.92,0,2.67-1.38,3.36-3.24l-7.26-15.51h4.92l4.17,9.9,3.42-9.9h4.68L321,115.68c-1.44,3.93-3.09,6.39-6.21,6.39a8.83,8.83,0,0,1-3-.54Z"/><path class="cls-3" d="M328.6,99.78h4.32v1.83a5.14,5.14,0,0,1,4.5-2.43,5.4,5.4,0,0,1,4.95,2.73,6,6,0,0,1,5.16-2.7c3.48,0,5.91,2.58,5.91,6.27v9.66h-4.5v-8.76a3,3,0,0,0-2.85-3.24,3,3,0,0,0-2.91,3.24v8.76h-4.5v-8.76c0-1.95-1.08-3.24-2.76-3.24s-2.82,1.29-2.82,3.24v8.76h-4.5Z"/><path class="cls-3" d="M364.09,115.74c-5,0-8.52-3.39-8.52-8.28s3.48-8.28,8.52-8.28,8.55,3.39,8.55,8.28S369.16,115.74,364.09,115.74Zm0-12.6a4.33,4.33,0,1,0,4,4.32A4,4,0,0,0,364.09,103.14Z"/><path class="cls-3" d="M374.77,109.38v-9.6h4.5v8.82c0,1.86,1.08,3.18,2.85,3.18a3.23,3.23,0,0,0,3.21-3.36V99.78h4.5v15.36h-4.38v-2.07a5.82,5.82,0,0,1-4.89,2.67C377.11,115.74,374.77,113.07,374.77,109.38Z"/><path class="cls-3" d="M392.38,110h3.81c0,1.53,1.44,2.61,3.39,2.61,1.65,0,2.85-.78,2.85-1.83,0-3.09-9.9,0-9.9-6.51,0-3,2.85-5.16,6.6-5.16,4.11,0,7.08,2.22,7.11,5.31h-4c0-1.26-1.35-2.13-3.15-2.13-1.41,0-2.52.72-2.52,1.71,0,2.94,10.11.51,10.14,6.3,0,3.18-3,5.49-7.23,5.49S392.38,113.37,392.38,110Z"/><path class="cls-3" d="M411.07,110.55a2.54,2.54,0,1,1-2.61,2.52A2.47,2.47,0,0,1,411.07,110.55Z"/><path class="cls-3" d="M444.79,115.14h-5.28l-1.26-3.87h-8.58l-1.2,3.87h-5.31l7.17-21.36h7.32Zm-14-7.5h6.48L434,98.1Z"/><path class="cls-3" d="M445.63,110h3.81c0,1.53,1.44,2.61,3.39,2.61,1.65,0,2.85-.78,2.85-1.83,0-3.09-9.9,0-9.9-6.51,0-3,2.85-5.16,6.6-5.16,4.11,0,7.08,2.22,7.11,5.31h-4c0-1.26-1.35-2.13-3.15-2.13-1.41,0-2.52.72-2.52,1.71,0,2.94,10.11.51,10.14,6.3,0,3.18-3,5.49-7.23,5.49S445.63,113.37,445.63,110Z"/><path class="cls-3" d="M60,139.78h4.68l3.15,10.86,3-10.86H75l3.21,10.95,3.12-10.95h4.53l-4.68,15.36h-5.7L72.89,145l-2.58,10.11h-5.7Z"/><path class="cls-3" d="M90.5,132.67a2.54,2.54,0,1,1-2.61,2.52A2.47,2.47,0,0,1,90.5,132.67Zm2.25,22.47h-4.5V139.78h4.5Z"/><path class="cls-3" d="M97.43,143.2H95.27v-3.42h2.37l.51-3.87h3.78v3.87h3.48v3.42h-3.48v6.51a2,2,0,0,0,2,2.16,8,8,0,0,0,1.59-.21l0,3.6a10.52,10.52,0,0,1-3.06.48c-3.06,0-5-2.31-5-5.58Z"/><path class="cls-3" d="M123.08,145.42v9.72h-4.5v-8.82c0-1.86-1.08-3.18-2.88-3.18a3.23,3.23,0,0,0-3.18,3.36v8.64H108V132.88h4.5v8.64a5.69,5.69,0,0,1,4.71-2.34C120.74,139.18,123.08,141.76,123.08,145.42Z"/><path class="cls-3" d="M144.62,139.6v4a7.31,7.31,0,0,0-2.52-.57c-1.95,0-3.24,1.65-3.24,4v8.16h-4.5V139.78h4.32v1.95a4.81,4.81,0,0,1,4.11-2.52A5,5,0,0,1,144.62,139.6Z"/><path class="cls-3" d="M157.91,150.25l3.93.87c-.81,2.67-4,4.62-7.59,4.62a8.08,8.08,0,0,1-8.46-8.4c0-4.8,3.51-8.16,8.46-8.16a7.86,7.86,0,0,1,8.28,8.22,9.72,9.72,0,0,1-.06,1.35l-12,0a4,4,0,0,0,3.93,3.57A3.86,3.86,0,0,0,157.91,150.25ZM158,146a3.8,3.8,0,0,0-7.56,0Z"/><path class="cls-3" d="M176.87,139.78h4.5v15.36h-4.5V153a6.23,6.23,0,0,1-5.22,2.73c-4.32,0-7.35-3.42-7.35-8.28s3-8.28,7.35-8.28a6.23,6.23,0,0,1,5.22,2.73Zm0,7.68a4,4,0,1,0-4,4.32A4,4,0,0,0,176.84,147.46Z"/><path class="cls-3" d="M189,155.14h-4.5V132.88H189Z"/><path class="cls-3" d="M205,162h-4.5V139.78H205v1.86a6.39,6.39,0,0,1,5.13-2.46c4.26,0,7.29,3.42,7.29,8.28s-3,8.28-7.29,8.28a6.23,6.23,0,0,1-5.07-2.46Zm3.84-18.81a4.24,4.24,0,1,0,4,4.23A4,4,0,0,0,208.88,143.23Z"/><path class="cls-3" d="M219.26,150h3.81c0,1.53,1.44,2.61,3.39,2.61,1.65,0,2.85-.78,2.85-1.83,0-3.09-9.9,0-9.9-6.51,0-3,2.85-5.16,6.6-5.16,4.11,0,7.08,2.22,7.11,5.31h-4c0-1.26-1.35-2.13-3.15-2.13-1.41,0-2.52.72-2.52,1.71,0,2.94,10.11.51,10.14,6.3,0,3.18-3,5.49-7.23,5.49S219.26,153.37,219.26,150Z"/><path class="cls-3" d="M247.46,150.25l3.93.87c-.81,2.67-4,4.62-7.59,4.62a8.08,8.08,0,0,1-8.46-8.4c0-4.8,3.51-8.16,8.46-8.16a7.86,7.86,0,0,1,8.28,8.22,9.8,9.8,0,0,1-.06,1.35l-12,0a4,4,0,0,0,3.93,3.57A3.86,3.86,0,0,0,247.46,150.25Zm.06-4.23a3.8,3.8,0,0,0-7.56,0Z"/><path class="cls-3" d="M254.24,149.38v-9.6h4.5v8.82c0,1.86,1.08,3.18,2.85,3.18a3.23,3.23,0,0,0,3.21-3.36v-8.64h4.5v15.36h-4.38v-2.07a5.82,5.82,0,0,1-4.89,2.67C256.58,155.74,254.24,153.07,254.24,149.38Z"/><path class="cls-3" d="M284.12,132.88h4.5v22.26h-4.44v-1.86a6.34,6.34,0,0,1-5.13,2.46c-4.26,0-7.29-3.42-7.29-8.28s3-8.28,7.29-8.28a6.23,6.23,0,0,1,5.07,2.46Zm-3.84,18.81a4.24,4.24,0,1,0-4-4.23A4,4,0,0,0,280.28,151.69Z"/><path class="cls-3" d="M299.57,155.74c-5,0-8.52-3.39-8.52-8.28s3.48-8.28,8.52-8.28,8.55,3.39,8.55,8.28S304.64,155.74,299.57,155.74Zm0-12.6a4.33,4.33,0,1,0,4,4.32A4,4,0,0,0,299.57,143.14Z"/><path class="cls-3" d="M325.6,145.54v9.6h-4.5v-8.82c0-1.86-1.08-3.18-2.85-3.18A3.23,3.23,0,0,0,315,146.5v8.64h-4.5V139.78h4.38v2.07a5.81,5.81,0,0,1,4.86-2.67C323.27,139.18,325.6,141.85,325.6,145.54Z"/><path class="cls-3" d="M329.12,158.2a6.35,6.35,0,0,0,1.83.33c1.92,0,2.67-1.38,3.36-3.24L327,139.78H332l4.17,9.9,3.42-9.9h4.68l-5.94,15.9c-1.44,3.93-3.09,6.39-6.21,6.39a8.83,8.83,0,0,1-3-.54Z"/><path class="cls-3" d="M345.94,139.78h4.32v1.83a5.14,5.14,0,0,1,4.5-2.43,5.4,5.4,0,0,1,4.95,2.73,6,6,0,0,1,5.16-2.7c3.48,0,5.91,2.58,5.91,6.27v9.66h-4.5v-8.76a3,3,0,0,0-2.85-3.24,3,3,0,0,0-2.91,3.24v8.76H356v-8.76c0-1.95-1.08-3.24-2.76-3.24s-2.82,1.29-2.82,3.24v8.76h-4.5Z"/><path class="cls-3" d="M373,150h3.81c0,1.53,1.44,2.61,3.39,2.61,1.65,0,2.85-.78,2.85-1.83,0-3.09-9.9,0-9.9-6.51,0-3,2.85-5.16,6.6-5.16,4.11,0,7.08,2.22,7.11,5.31h-4c0-1.26-1.35-2.13-3.15-2.13-1.41,0-2.52.72-2.52,1.71,0,2.94,10.11.51,10.14,6.3,0,3.18-3,5.49-7.23,5.49S373,153.37,373,150Z"/><path class="cls-3" d="M402.5,132.88h4.2a21.1,21.1,0,0,0-5,13.83c0,5.31,1.95,10.62,5,13.83h-4.2c-2.85-2.85-4.77-8.31-4.77-13.83S399.65,135.73,402.5,132.88Z"/><path class="cls-3" d="M412.93,162h-4.5V139.78h4.44v1.86a6.39,6.39,0,0,1,5.13-2.46c4.26,0,7.29,3.42,7.29,8.28s-3,8.28-7.29,8.28a6.23,6.23,0,0,1-5.07-2.46Zm3.84-18.81a4.24,4.24,0,1,0,4,4.23A4,4,0,0,0,416.77,143.23Z"/><path class="cls-3" d="M439.18,150.25l3.93.87c-.81,2.67-4,4.62-7.59,4.62a8.08,8.08,0,0,1-8.46-8.4c0-4.8,3.51-8.16,8.46-8.16a7.86,7.86,0,0,1,8.28,8.22,9.72,9.72,0,0,1-.06,1.35l-12,0a4,4,0,0,0,3.93,3.57A3.86,3.86,0,0,0,439.18,150.25Zm.06-4.23a3.8,3.8,0,0,0-7.56,0Z"/><path class="cls-3" d="M461.32,145.54v9.6h-4.5v-8.82c0-1.86-1.08-3.18-2.85-3.18a3.23,3.23,0,0,0-3.21,3.36v8.64h-4.5V139.78h4.38v2.07a5.81,5.81,0,0,1,4.86-2.67C459,139.18,461.32,141.85,461.32,145.54Z"/><path class="cls-3" d="M76.13,185.54v9.6h-4.5v-8.82c0-1.86-1.08-3.18-2.85-3.18a3.23,3.23,0,0,0-3.21,3.36v8.64h-4.5V179.78h4.38v2.07a5.81,5.81,0,0,1,4.86-2.67C73.79,179.18,76.13,181.85,76.13,185.54Z"/><path class="cls-3" d="M90.86,179.78h4.5v15.36h-4.5V193a6.23,6.23,0,0,1-5.22,2.73c-4.32,0-7.35-3.42-7.35-8.28s3-8.28,7.35-8.28a6.23,6.23,0,0,1,5.22,2.73Zm0,7.68a4,4,0,1,0-4,4.32A4,4,0,0,0,90.83,187.46Z"/><path class="cls-3" d="M98.51,179.78h4.32v1.83a5.14,5.14,0,0,1,4.5-2.43,5.4,5.4,0,0,1,4.95,2.73,6,6,0,0,1,5.16-2.7c3.48,0,5.91,2.58,5.91,6.27v9.66h-4.5v-8.76a3,3,0,0,0-2.85-3.24,3,3,0,0,0-2.91,3.24v8.76h-4.5v-8.76c0-1.95-1.08-3.24-2.76-3.24s-2.82,1.29-2.82,3.24v8.76h-4.5Z"/><path class="cls-3" d="M137.63,190.25l3.93.87c-.81,2.67-4,4.62-7.59,4.62a8.08,8.08,0,0,1-8.46-8.4c0-4.8,3.51-8.16,8.46-8.16a7.86,7.86,0,0,1,8.28,8.22,9.72,9.72,0,0,1-.06,1.35l-12,0a4,4,0,0,0,3.93,3.57A3.86,3.86,0,0,0,137.63,190.25Zm.06-4.23a3.8,3.8,0,0,0-7.56,0Z"/><path class="cls-3" d="M144.11,190h3.81c0,1.53,1.44,2.61,3.39,2.61,1.65,0,2.85-.78,2.85-1.83,0-3.09-9.9,0-9.9-6.51,0-3,2.85-5.16,6.6-5.16,4.11,0,7.08,2.22,7.11,5.31h-4c0-1.26-1.35-2.13-3.15-2.13-1.41,0-2.52.72-2.52,1.71,0,2.94,10.11.51,10.14,6.3,0,3.18-3,5.49-7.23,5.49S144.11,193.37,144.11,190Z"/><path class="cls-3" d="M162.77,200.54h-4.2c3.06-3.21,5-8.52,5-13.83a21.1,21.1,0,0,0-5-13.83h4.2c2.85,2.85,4.77,8.31,4.77,13.83S165.62,197.69,162.77,200.54Z"/><path class="cls-3" d="M172,190.58c1.65,0,2.76,1.41,2.76,3.51a7.77,7.77,0,0,1-2.88,5.91l-2.19-.78a5.51,5.51,0,0,0,2.13-3.6,2.34,2.34,0,0,1-2.34-2.52A2.44,2.44,0,0,1,172,190.58Z"/><path class="cls-3" d="M188.3,172.67a2.54,2.54,0,1,1-2.61,2.52A2.47,2.47,0,0,1,188.3,172.67Zm2.25,22.47H186V179.78h4.5Z"/><path class="cls-3" d="M203.48,176.45a6.24,6.24,0,0,0-1.5-.21,1.83,1.83,0,0,0-1.95,1.89v1.65h3.45v3.42H200v11.94h-4.5V183.2h-2.16v-3.42h2.16v-1.92c0-3.36,2-5.58,4.95-5.58a9.68,9.68,0,0,1,3,.48Z"/><path class="cls-3" d="M215.24,183.2h-2.16v-3.42h2.37l.51-3.87h3.78v3.87h3.48v3.42h-3.48v6.51a2,2,0,0,0,2,2.16,8,8,0,0,0,1.59-.21l0,3.6a10.52,10.52,0,0,1-3.06.48c-3.06,0-5-2.31-5-5.58Z"/><path class="cls-3" d="M240.89,185.42v9.72h-4.5v-8.82c0-1.86-1.08-3.18-2.88-3.18a3.23,3.23,0,0,0-3.18,3.36v8.64h-4.5V172.88h4.5v8.64a5.69,5.69,0,0,1,4.71-2.34C238.55,179.18,240.89,181.76,240.89,185.42Z"/><path class="cls-3" d="M255.17,190.25l3.93.87c-.81,2.67-4,4.62-7.59,4.62a8.08,8.08,0,0,1-8.46-8.4c0-4.8,3.51-8.16,8.46-8.16a7.86,7.86,0,0,1,8.28,8.22,9.8,9.8,0,0,1-.06,1.35l-12,0a4,4,0,0,0,3.93,3.57A3.86,3.86,0,0,0,255.17,190.25Zm.06-4.23a3.8,3.8,0,0,0-7.56,0Z"/><path class="cls-3" d="M269.57,179.78h4.68l3.15,10.86,3-10.86h4.2l3.21,10.95,3.12-10.95h4.53l-4.68,15.36h-5.7L282.5,185l-2.58,10.11h-5.7Z"/><path class="cls-3" d="M307.76,179.6v4a7.31,7.31,0,0,0-2.52-.57c-1.95,0-3.24,1.65-3.24,4v8.16h-4.5V179.78h4.32v1.95a4.81,4.81,0,0,1,4.11-2.52A5,5,0,0,1,307.76,179.6Z"/><path class="cls-3" d="M317.42,195.74c-5,0-8.52-3.39-8.52-8.28s3.48-8.28,8.52-8.28,8.55,3.39,8.55,8.28S322.49,195.74,317.42,195.74Zm0-12.6a4.33,4.33,0,1,0,4,4.32A4,4,0,0,0,317.42,183.14Z"/><path class="cls-3" d="M343.46,185.54v9.6H339v-8.82c0-1.86-1.08-3.18-2.85-3.18a3.23,3.23,0,0,0-3.21,3.36v8.64h-4.5V179.78h4.38v2.07a5.81,5.81,0,0,1,4.86-2.67C341.12,179.18,343.46,181.85,343.46,185.54Z"/><path class="cls-3" d="M350.35,196.4a3.89,3.89,0,0,0,3.72,2.67c2.28,0,3.9-1.56,3.9-4.23V193a6.35,6.35,0,0,1-5.07,2.34c-4.23,0-7.29-3.24-7.29-7.89,0-4.83,3.06-8.25,7.29-8.25a6.32,6.32,0,0,1,5.1,2.4v-1.83h4.47V195c0,4.77-3.36,7.68-8.22,7.68-4,0-7.26-2.34-7.92-5.61Zm7.8-8.94a4,4,0,1,0-8,0,4,4,0,1,0,8,0Z"/><path class="cls-3" d="M378.56,202h-4.5V179.78h4.44v1.86a6.39,6.39,0,0,1,5.13-2.46c4.26,0,7.29,3.42,7.29,8.28s-3,8.28-7.29,8.28a6.23,6.23,0,0,1-5.07-2.46Zm3.84-18.81a4.24,4.24,0,1,0,4,4.23A4,4,0,0,0,382.4,183.23Z"/><path class="cls-3" d="M404.8,190.25l3.93.87c-.81,2.67-4,4.62-7.59,4.62a8.08,8.08,0,0,1-8.46-8.4c0-4.8,3.51-8.16,8.46-8.16a7.86,7.86,0,0,1,8.28,8.22,9.8,9.8,0,0,1-.06,1.35l-12,0a4,4,0,0,0,3.93,3.57A3.86,3.86,0,0,0,404.8,190.25Zm.06-4.23a3.8,3.8,0,0,0-7.56,0Z"/><path class="cls-3" d="M419.68,195.74c-5,0-8.52-3.39-8.52-8.28s3.48-8.28,8.52-8.28,8.55,3.39,8.55,8.28S424.75,195.74,419.68,195.74Zm0-12.6a4.33,4.33,0,1,0,4,4.32A4,4,0,0,0,419.68,183.14Z"/><path class="cls-3" d="M435.16,202h-4.5V179.78h4.44v1.86a6.39,6.39,0,0,1,5.13-2.46c4.26,0,7.29,3.42,7.29,8.28s-3,8.28-7.29,8.28a6.23,6.23,0,0,1-5.07-2.46ZM439,183.23a4.24,4.24,0,1,0,4,4.23A4,4,0,0,0,439,183.23Z"/><path class="cls-3" d="M454.45,195.14H450V172.88h4.5Z"/><path class="cls-3" d="M469,190.25l3.93.87c-.81,2.67-4,4.62-7.59,4.62a8.08,8.08,0,0,1-8.46-8.4c0-4.8,3.51-8.16,8.46-8.16a7.86,7.86,0,0,1,8.28,8.22,9.8,9.8,0,0,1-.06,1.35l-12,0a4,4,0,0,0,3.93,3.57A3.86,3.86,0,0,0,469,190.25Zm.06-4.23a3.8,3.8,0,0,0-7.56,0Z"/><path class="cls-3" d="M70.49,216.45a6.24,6.24,0,0,0-1.5-.21A1.83,1.83,0,0,0,67,218.13v1.65h3.45v3.42H67v11.94h-4.5V223.2H60.38v-3.42h2.16v-1.92c0-3.36,2-5.58,4.95-5.58a9.68,9.68,0,0,1,3,.48Z"/><path class="cls-3" d="M75.26,212.67a2.54,2.54,0,1,1-2.61,2.52A2.47,2.47,0,0,1,75.26,212.67Zm2.25,22.47H73V219.78h4.5Z"/><path class="cls-3" d="M85.07,236.4a3.89,3.89,0,0,0,3.72,2.67c2.28,0,3.9-1.56,3.9-4.23V233a6.35,6.35,0,0,1-5.07,2.34c-4.23,0-7.29-3.24-7.29-7.89,0-4.83,3.06-8.25,7.29-8.25a6.32,6.32,0,0,1,5.1,2.4v-1.83h4.47V235c0,4.77-3.36,7.68-8.22,7.68-4,0-7.26-2.34-7.92-5.61Zm7.8-8.94a4,4,0,1,0-8,0,4,4,0,1,0,8,0Z"/><path class="cls-3" d="M100,229.38v-9.6h4.5v8.82c0,1.86,1.08,3.18,2.85,3.18a3.23,3.23,0,0,0,3.21-3.36v-8.64h4.5v15.36h-4.38v-2.07a5.82,5.82,0,0,1-4.89,2.67C102.38,235.74,100,233.07,100,229.38Z"/><path class="cls-3" d="M128.51,219.6v4A7.31,7.31,0,0,0,126,223c-1.95,0-3.24,1.65-3.24,4v8.16h-4.5V219.78h4.32v1.95a4.81,4.81,0,0,1,4.11-2.52A5,5,0,0,1,128.51,219.6Z"/><path class="cls-3" d="M141.8,230.25l3.93.87c-.81,2.67-4,4.62-7.59,4.62a8.08,8.08,0,0,1-8.46-8.4c0-4.8,3.51-8.16,8.46-8.16a7.86,7.86,0,0,1,8.28,8.22,9.8,9.8,0,0,1-.06,1.35l-12,0a4,4,0,0,0,3.93,3.57A3.86,3.86,0,0,0,141.8,230.25Zm.06-4.23a3.8,3.8,0,0,0-7.56,0Z"/><path class="cls-3" d="M165.11,235.74c-5,0-8.52-3.39-8.52-8.28s3.48-8.28,8.52-8.28,8.55,3.39,8.55,8.28S170.18,235.74,165.11,235.74Zm0-12.6a4.33,4.33,0,1,0,4,4.32A4,4,0,0,0,165.11,223.14Z"/><path class="cls-3" d="M175.79,229.38v-9.6h4.5v8.82c0,1.86,1.08,3.18,2.85,3.18a3.23,3.23,0,0,0,3.21-3.36v-8.64h4.5v15.36h-4.38v-2.07a5.82,5.82,0,0,1-4.89,2.67C178.13,235.74,175.79,233.07,175.79,229.38Z"/><path class="cls-3" d="M195.17,223.2H193v-3.42h2.37l.51-3.87h3.78v3.87h3.48v3.42h-3.48v6.51a2,2,0,0,0,2,2.16,8,8,0,0,0,1.59-.21l0,3.6a10.52,10.52,0,0,1-3.06.48c-3.06,0-5-2.31-5-5.58Z"/><path class="cls-3" d="M214.85,238.2a6.35,6.35,0,0,0,1.83.33c1.92,0,2.67-1.38,3.36-3.24l-7.26-15.51h4.92l4.17,9.9,3.42-9.9H230L224,235.68c-1.44,3.93-3.09,6.39-6.21,6.39a8.83,8.83,0,0,1-3-.54Z"/><path class="cls-3" d="M238.73,235.74c-5,0-8.52-3.39-8.52-8.28s3.48-8.28,8.52-8.28,8.55,3.39,8.55,8.28S243.8,235.74,238.73,235.74Zm0-12.6a4.33,4.33,0,1,0,4,4.32A4,4,0,0,0,238.73,223.14Z"/><path class="cls-3" d="M249.41,229.38v-9.6h4.5v8.82c0,1.86,1.08,3.18,2.85,3.18a3.23,3.23,0,0,0,3.21-3.36v-8.64h4.5v15.36h-4.38v-2.07a5.82,5.82,0,0,1-4.89,2.67C251.75,235.74,249.41,233.07,249.41,229.38Z"/><path class="cls-3" d="M277.88,219.6v4a7.31,7.31,0,0,0-2.52-.57c-1.95,0-3.24,1.65-3.24,4v8.16h-4.5V219.78h4.32v1.95a4.81,4.81,0,0,1,4.11-2.52A5,5,0,0,1,277.88,219.6Z"/><path class="cls-3" d="M292.67,242h-4.5V219.78h4.44v1.86a6.39,6.39,0,0,1,5.13-2.46c4.26,0,7.29,3.42,7.29,8.28s-3,8.28-7.29,8.28a6.23,6.23,0,0,1-5.07-2.46Zm3.84-18.81a4.24,4.24,0,1,0,4,4.23A4,4,0,0,0,296.51,223.23Z"/><path class="cls-3" d="M318.92,230.25l3.93.87c-.81,2.67-4,4.62-7.59,4.62a8.08,8.08,0,0,1-8.46-8.4c0-4.8,3.51-8.16,8.46-8.16a7.86,7.86,0,0,1,8.28,8.22,9.8,9.8,0,0,1-.06,1.35l-12,0a4,4,0,0,0,3.93,3.57A3.86,3.86,0,0,0,318.92,230.25ZM319,226a3.8,3.8,0,0,0-7.56,0Z"/><path class="cls-3" d="M341.05,225.54v9.6h-4.5v-8.82c0-1.86-1.08-3.18-2.85-3.18a3.23,3.23,0,0,0-3.21,3.36v8.64H326V219.78h4.38v2.07a5.81,5.81,0,0,1,4.86-2.67C338.71,219.18,341.05,221.85,341.05,225.54Z"/><path class="cls-3" d="M367.39,225.54v9.6h-4.5v-8.82c0-1.86-1.08-3.18-2.85-3.18a3.23,3.23,0,0,0-3.21,3.36v8.64h-4.5V219.78h4.38v2.07a5.81,5.81,0,0,1,4.86-2.67C365.05,219.18,367.39,221.85,367.39,225.54Z"/><path class="cls-3" d="M382.12,219.78h4.5v15.36h-4.5V233a6.23,6.23,0,0,1-5.22,2.73c-4.32,0-7.35-3.42-7.35-8.28s3-8.28,7.35-8.28a6.23,6.23,0,0,1,5.22,2.73Zm0,7.68a4,4,0,1,0-4,4.32A4,4,0,0,0,382.09,227.46Z"/><path class="cls-3" d="M389.77,219.78h4.32v1.83a5.14,5.14,0,0,1,4.5-2.43,5.4,5.4,0,0,1,4.95,2.73,6,6,0,0,1,5.16-2.7c3.48,0,5.91,2.58,5.91,6.27v9.66h-4.5v-8.76a3,3,0,0,0-2.85-3.24,3,3,0,0,0-2.91,3.24v8.76h-4.5v-8.76c0-1.95-1.08-3.24-2.76-3.24s-2.82,1.29-2.82,3.24v8.76h-4.5Z"/><path class="cls-3" d="M428.89,230.25l3.93.87c-.81,2.67-4,4.62-7.59,4.62a8.08,8.08,0,0,1-8.46-8.4c0-4.8,3.51-8.16,8.46-8.16a7.86,7.86,0,0,1,8.28,8.22,9.72,9.72,0,0,1-.06,1.35l-12,0a4,4,0,0,0,3.93,3.57A3.86,3.86,0,0,0,428.89,230.25ZM429,226a3.8,3.8,0,0,0-7.56,0Z"/><path class="cls-3" d="M437.83,230.58c1.65,0,2.76,1.41,2.76,3.51a7.77,7.77,0,0,1-2.88,5.91l-2.19-.78a5.51,5.51,0,0,0,2.13-3.6,2.34,2.34,0,0,1-2.34-2.52A2.44,2.44,0,0,1,437.83,230.58Z"/><path class="cls-3" d="M452.65,223.2h-2.16v-3.42h2.37l.51-3.87h3.78v3.87h3.48v3.42h-3.48v6.51a2,2,0,0,0,2,2.16,8,8,0,0,0,1.59-.21l0,3.6a10.52,10.52,0,0,1-3.06.48c-3.06,0-5-2.31-5-5.58Z"/><path class="cls-3" d="M478.3,225.42v9.72h-4.5v-8.82c0-1.86-1.08-3.18-2.88-3.18a3.23,3.23,0,0,0-3.18,3.36v8.64h-4.5V212.88h4.5v8.64a5.69,5.69,0,0,1,4.71-2.34C476,219.18,478.3,221.76,478.3,225.42Z"/><path class="cls-3" d="M492.58,230.25l3.93.87c-.81,2.67-4,4.62-7.59,4.62a8.08,8.08,0,0,1-8.46-8.4c0-4.8,3.51-8.16,8.46-8.16a7.86,7.86,0,0,1,8.28,8.22,9.8,9.8,0,0,1-.06,1.35l-12,0a4,4,0,0,0,3.93,3.57A3.86,3.86,0,0,0,492.58,230.25Zm.06-4.23a3.8,3.8,0,0,0-7.56,0Z"/><path class="cls-3" d="M65.57,282h-4.5V259.78h4.44v1.86a6.39,6.39,0,0,1,5.13-2.46c4.26,0,7.29,3.42,7.29,8.28s-3,8.28-7.29,8.28a6.23,6.23,0,0,1-5.07-2.46Zm3.84-18.81a4.24,4.24,0,1,0,4,4.23A4,4,0,0,0,69.41,263.23Z"/><path class="cls-3" d="M91.82,270.25l3.93.87c-.81,2.67-4,4.62-7.59,4.62a8.08,8.08,0,0,1-8.46-8.4c0-4.8,3.51-8.16,8.46-8.16a7.86,7.86,0,0,1,8.28,8.22,9.72,9.72,0,0,1-.06,1.35l-12,0a4,4,0,0,0,3.93,3.57A3.86,3.86,0,0,0,91.82,270.25Zm.06-4.23a3.8,3.8,0,0,0-7.56,0Z"/><path class="cls-3" d="M114,265.54v9.6h-4.5v-8.82c0-1.86-1.08-3.18-2.85-3.18a3.23,3.23,0,0,0-3.21,3.36v8.64H98.9V259.78h4.38v2.07a5.81,5.81,0,0,1,4.86-2.67C111.62,259.18,114,261.85,114,265.54Z"/><path class="cls-3" d="M140.3,265.54v9.6h-4.5v-8.82c0-1.86-1.08-3.18-2.85-3.18a3.23,3.23,0,0,0-3.21,3.36v8.64h-4.5V259.78h4.38v2.07a5.81,5.81,0,0,1,4.86-2.67C138,259.18,140.3,261.85,140.3,265.54Z"/><path class="cls-3" d="M155,259.78h4.5v15.36H155V273a6.23,6.23,0,0,1-5.22,2.73c-4.32,0-7.35-3.42-7.35-8.28s3-8.28,7.35-8.28a6.23,6.23,0,0,1,5.22,2.73Zm0,7.68a4,4,0,1,0-4,4.32A4,4,0,0,0,155,267.46Z"/><path class="cls-3" d="M162.68,259.78H167v1.83a5.14,5.14,0,0,1,4.5-2.43,5.4,5.4,0,0,1,4.95,2.73,6,6,0,0,1,5.16-2.7c3.48,0,5.91,2.58,5.91,6.27v9.66H183v-8.76a3,3,0,0,0-2.85-3.24,3,3,0,0,0-2.91,3.24v8.76h-4.5v-8.76c0-1.95-1.08-3.24-2.76-3.24s-2.82,1.29-2.82,3.24v8.76h-4.5Z"/><path class="cls-3" d="M201.8,270.25l3.93.87c-.81,2.67-4,4.62-7.59,4.62a8.08,8.08,0,0,1-8.46-8.4c0-4.8,3.51-8.16,8.46-8.16a7.86,7.86,0,0,1,8.28,8.22,9.8,9.8,0,0,1-.06,1.35l-12,0a4,4,0,0,0,3.93,3.57A3.86,3.86,0,0,0,201.8,270.25Zm.06-4.23a3.8,3.8,0,0,0-7.56,0Z"/><path class="cls-3" d="M221.81,252.88v8.76a6.23,6.23,0,0,1,5.07-2.46c4.29,0,7.29,3.42,7.29,8.28s-3,8.28-7.29,8.28a6.39,6.39,0,0,1-5.13-2.46v1.86h-4.44V252.88Zm3.84,10.35a4.24,4.24,0,1,0,4,4.23A4,4,0,0,0,225.65,263.23Z"/><path class="cls-3" d="M248.06,270.25l3.93.87c-.81,2.67-4,4.62-7.59,4.62a8.08,8.08,0,0,1-8.46-8.4c0-4.8,3.51-8.16,8.46-8.16a7.86,7.86,0,0,1,8.28,8.22,9.8,9.8,0,0,1-.06,1.35l-12,0a4,4,0,0,0,3.93,3.57A3.86,3.86,0,0,0,248.06,270.25Zm.06-4.23a3.8,3.8,0,0,0-7.56,0Z"/><path class="cls-3" d="M266.48,265.81a3.76,3.76,0,0,0-3.63-2.85c-2.19,0-3.9,1.89-3.9,4.5s1.68,4.5,3.9,4.5a3.76,3.76,0,0,0,3.66-2.85l4.2.54c-.57,3.54-3.93,6.09-7.89,6.09a8.28,8.28,0,1,1,0-16.56c4,0,7.38,2.55,7.86,6.09Z"/><path class="cls-3" d="M280.91,275.74c-5,0-8.52-3.39-8.52-8.28s3.48-8.28,8.52-8.28,8.55,3.39,8.55,8.28S286,275.74,280.91,275.74Zm0-12.6a4.33,4.33,0,1,0,4,4.32A4,4,0,0,0,280.91,263.14Z"/><path class="cls-3" d="M291.89,259.78h4.32v1.83a5.14,5.14,0,0,1,4.5-2.43,5.4,5.4,0,0,1,4.95,2.73,6,6,0,0,1,5.16-2.7c3.48,0,5.91,2.58,5.91,6.27v9.66h-4.5v-8.76a3,3,0,0,0-2.85-3.24,3,3,0,0,0-2.91,3.24v8.76H302v-8.76c0-1.95-1.08-3.24-2.76-3.24s-2.82,1.29-2.82,3.24v8.76h-4.5Z"/><path class="cls-3" d="M331,270.25l3.93.87c-.81,2.67-4,4.62-7.59,4.62a8.08,8.08,0,0,1-8.46-8.4c0-4.8,3.51-8.16,8.46-8.16a7.86,7.86,0,0,1,8.28,8.22,9.8,9.8,0,0,1-.06,1.35l-12,0a4,4,0,0,0,3.93,3.57A3.86,3.86,0,0,0,331,270.25Zm.06-4.23a3.8,3.8,0,0,0-7.56,0Z"/><path class="cls-3" d="M337.49,270h3.81c0,1.53,1.44,2.61,3.39,2.61,1.65,0,2.85-.78,2.85-1.83,0-3.09-9.9,0-9.9-6.51,0-3,2.85-5.16,6.6-5.16,4.11,0,7.08,2.22,7.11,5.31h-4c0-1.26-1.35-2.13-3.15-2.13-1.41,0-2.52.72-2.52,1.71,0,2.94,10.11.51,10.14,6.3,0,3.18-3,5.49-7.23,5.49S337.49,273.37,337.49,270Z"/><path class="cls-3" d="M65.57,322h-4.5V299.78h4.44v1.86a6.39,6.39,0,0,1,5.13-2.46c4.26,0,7.29,3.42,7.29,8.28s-3,8.28-7.29,8.28a6.23,6.23,0,0,1-5.07-2.46Zm3.84-18.81a4.24,4.24,0,1,0,4,4.23A4,4,0,0,0,69.41,303.23Z"/><path class="cls-3" d="M88.19,315.74c-5,0-8.52-3.39-8.52-8.28s3.48-8.28,8.52-8.28,8.55,3.39,8.55,8.28S93.26,315.74,88.19,315.74Zm0-12.6a4.33,4.33,0,1,0,4,4.32A4,4,0,0,0,88.19,303.14Z"/><path class="cls-3" d="M101.78,292.67a2.54,2.54,0,1,1-2.61,2.52A2.47,2.47,0,0,1,101.78,292.67ZM104,315.14h-4.5V299.78H104Z"/><path class="cls-3" d="M122.6,305.54v9.6h-4.5v-8.82c0-1.86-1.08-3.18-2.85-3.18A3.23,3.23,0,0,0,112,306.5v8.64h-4.5V299.78h4.38v2.07a5.81,5.81,0,0,1,4.86-2.67C120.26,299.18,122.6,301.85,122.6,305.54Z"/><path class="cls-3" d="M126.62,303.2h-2.16v-3.42h2.37l.51-3.87h3.78v3.87h3.48v3.42h-3.48v6.51a2,2,0,0,0,2,2.16,8,8,0,0,0,1.59-.21l0,3.6a10.52,10.52,0,0,1-3.06.48c-3.06,0-5-2.31-5-5.58Z"/><path class="cls-3" d="M141.68,315.14h-4.5V292.88h4.5Z"/><path class="cls-3" d="M156.23,310.25l3.93.87c-.81,2.67-4,4.62-7.59,4.62a8.08,8.08,0,0,1-8.46-8.4c0-4.8,3.51-8.16,8.46-8.16a7.86,7.86,0,0,1,8.28,8.22,9.8,9.8,0,0,1-.06,1.35l-12,0a4,4,0,0,0,3.93,3.57A3.86,3.86,0,0,0,156.23,310.25Zm.06-4.23a3.8,3.8,0,0,0-7.56,0Z"/><path class="cls-3" d="M162.71,310h3.81c0,1.53,1.44,2.61,3.39,2.61,1.65,0,2.85-.78,2.85-1.83,0-3.09-9.9,0-9.9-6.51,0-3,2.85-5.16,6.6-5.16,4.11,0,7.08,2.22,7.11,5.31h-4c0-1.26-1.35-2.13-3.15-2.13-1.41,0-2.52.72-2.52,1.71,0,2.94,10.11.51,10.14,6.3,0,3.18-3,5.49-7.23,5.49S162.71,313.37,162.71,310Z"/><path class="cls-3" d="M178.88,310h3.81c0,1.53,1.44,2.61,3.39,2.61,1.65,0,2.85-.78,2.85-1.83,0-3.09-9.9,0-9.9-6.51,0-3,2.85-5.16,6.6-5.16,4.11,0,7.08,2.22,7.11,5.31h-4c0-1.26-1.35-2.13-3.15-2.13-1.41,0-2.52.72-2.52,1.71,0,2.94,10.11.51,10.14,6.3,0,3.18-3,5.49-7.23,5.49S178.88,313.37,178.88,310Z"/><path class="cls-3" d="M197.57,310.55a2.54,2.54,0,1,1-2.61,2.52A2.47,2.47,0,0,1,197.57,310.55Z"/><path class="cls-4" d="M234.51,296.62a5.83,5.83,0,0,1-1.93,2.6,12.27,12.27,0,0,0,2.51-.58c0,.07-.08.14-.13.2a10.41,10.41,0,0,1-2,2.07.48.48,0,0,0-.21.41,16.29,16.29,0,0,1-.34,3.31,14.18,14.18,0,0,1-6,8.88,12.44,12.44,0,0,1-5.68,2.11,14.87,14.87,0,0,1-6.25-.46,16.14,16.14,0,0,1-3-1.35.92.92,0,0,1-.25-.21,10.34,10.34,0,0,0,7.11-2.06,5.11,5.11,0,0,1-4.55-3.44,7.56,7.56,0,0,0,2.05-.09,5,5,0,0,1-3.77-4.88,6.15,6.15,0,0,0,2.12.56,5.14,5.14,0,0,1-1.49-6.57l1.19,1.17a13.76,13.76,0,0,0,8.82,4h.12c0-.42,0-.82,0-1.23a4.88,4.88,0,0,1,4-4.72,4.72,4.72,0,0,1,4.23,1.16.72.72,0,0,0,.81.19l2.1-.8Z"/></g></g></svg>