<svg xmlns="http://www.w3.org/2000/svg" viewBox="0 0 324.22 543.43"><defs><style>.cls-1,.cls-5{fill:none;stroke-miterlimit:10;stroke-width:10px;}.cls-1{stroke:#d3d3d3;stroke-linecap:round;}.cls-2{fill:#e8e7d4;}.cls-3{fill:#b5b08d;}.cls-4{fill:#d8d5b8;}.cls-5{stroke:#b5b08d;}.cls-6{fill:#3ebb90;}.cls-7{fill:#3e99d3;}.cls-8{fill:#8352a1;}</style></defs><title>11Asset 2proofof-img2</title><g id="Layer_2" data-name="Layer 2"><g id="Layer_1-2" data-name="Layer 1"><line class="cls-1" x1="139.86" y1="99.29" x2="139.86" y2="160.73"/><line class="cls-1" x1="203.57" y1="99.29" x2="203.57" y2="160.73"/><rect class="cls-2" x="87.69" y="160.73" width="82.69" height="16.79"/><path class="cls-2" d="M101.79,173.48h137a0,0,0,0,1,0,0v108.1a23.5,23.5,0,0,1-23.5,23.5h-90a23.5,23.5,0,0,1-23.5-23.5V173.48A0,0,0,0,1,101.79,173.48Z"/><rect class="cls-3" x="170.28" y="160.73" width="82.69" height="16.79"/><path class="cls-3" d="M170.28,173.48h68.59v108.1a23.57,23.57,0,0,1-23.5,23.5H170.28"/><rect class="cls-3" x="154.83" y="305.08" width="30.44" height="34.47"/><path class="cls-4" d="M117.85,173.48H222.26a0,0,0,0,1,0,0V284.57a20.52,20.52,0,0,1-20.52,20.52H138.36a20.52,20.52,0,0,1-20.52-20.52V173.48A0,0,0,0,1,117.85,173.48Z"/><rect class="cls-4" x="106.78" y="160.73" width="127.21" height="16.79"/><path class="cls-5" d="M170.38,339.55v70.69s-.33,20.06-28.84,20.06c-28.87,0-29.69-22.08-29.69-22.08V353.6s.49-22-22.68-22c-24.14,0-24.14,22-24.14,22V543.43"/><polygon class="cls-6" points="246.99 90.26 284.92 55.38 289.87 73.56 324.22 60.19 286.57 95.09 280.9 77.12 246.99 90.26"/><polygon class="cls-7" points="0 48.34 37.41 104.6 49.4 83 88.97 110.77 51.92 54.55 39.09 75.66 0 48.34"/><polygon class="cls-8" points="30.25 0 43.17 33.66 51.93 23.8 69.3 42.87 56.56 9.28 47.42 18.78 30.25 0"/></g></g></svg>