<svg xmlns="http://www.w3.org/2000/svg" xmlns:xlink="http://www.w3.org/1999/xlink" viewBox="0 0 163.3 290.71"><defs><style>.cls-1{fill:url(#linear-gradient);}.cls-2{fill:url(#linear-gradient-2);}.cls-3{fill:url(#linear-gradient-3);}.cls-4{fill:url(#linear-gradient-4);}.cls-5{fill:url(#linear-gradient-5);}.cls-6{fill:url(#linear-gradient-6);}.cls-7{fill:url(#linear-gradient-7);}.cls-8{fill:url(#linear-gradient-8);}.cls-9{fill:url(#linear-gradient-9);}.cls-10{fill:url(#linear-gradient-10);}.cls-11{fill:url(#linear-gradient-11);}.cls-12{fill:url(#linear-gradient-12);}.cls-13{fill:url(#linear-gradient-13);}.cls-14{fill:url(#linear-gradient-14);}.cls-15{fill:url(#linear-gradient-15);}.cls-16{fill:url(#linear-gradient-16);}.cls-17{fill:url(#linear-gradient-17);}.cls-18{fill:url(#linear-gradient-18);}.cls-19{fill:url(#linear-gradient-19);}.cls-20{fill:url(#linear-gradient-20);}.cls-21{fill:url(#linear-gradient-21);}.cls-22{fill:url(#linear-gradient-22);}.cls-23{fill:url(#linear-gradient-23);}.cls-24{fill:url(#linear-gradient-24);}.cls-25{fill:url(#linear-gradient-25);}.cls-26{fill:url(#linear-gradient-26);}.cls-27{fill:url(#linear-gradient-27);}.cls-28{fill:url(#linear-gradient-28);}.cls-29{fill:url(#linear-gradient-29);}.cls-30{fill:url(#linear-gradient-30);}.cls-31{fill:url(#linear-gradient-31);}.cls-32{fill:url(#linear-gradient-32);}.cls-33{fill:url(#linear-gradient-33);}.cls-34{fill:url(#linear-gradient-34);}.cls-35{fill:url(#linear-gradient-35);}.cls-36{fill:url(#linear-gradient-36);}.cls-37{fill:url(#linear-gradient-37);}.cls-38{fill:#1e2c33;}.cls-39{fill:#637889;}.cls-40{fill:#909cad;}.cls-41{fill:#d3deef;}.cls-42{fill:url(#linear-gradient-38);}.cls-43{fill:url(#linear-gradient-39);}.cls-44{fill:none;stroke:#d8b0ff;stroke-miterlimit:10;}.cls-45{fill:#fff;}</style><linearGradient id="linear-gradient" x1="0.01" y1="190.45" x2="11.68" y2="190.45" gradientUnits="userSpaceOnUse"><stop offset="0" stop-color="#dfe6fb"/><stop offset="1" stop-color="#b8b9d6"/></linearGradient><linearGradient id="linear-gradient-2" x1="0" y1="281.37" x2="11.67" y2="281.37" xlink:href="#linear-gradient"/><linearGradient id="linear-gradient-3" x1="4.4" y1="224.8" x2="7.29" y2="224.8" xlink:href="#linear-gradient"/><linearGradient id="linear-gradient-4" x1="4.39" y1="247.53" x2="7.3" y2="247.53" xlink:href="#linear-gradient"/><linearGradient id="linear-gradient-5" x1="4.4" y1="269.7" x2="7.29" y2="269.7" xlink:href="#linear-gradient"/><linearGradient id="linear-gradient-6" x1="4.4" y1="202.08" x2="7.28" y2="202.08" xlink:href="#linear-gradient"/><linearGradient id="linear-gradient-7" x1="7.97" y1="258.81" x2="11.68" y2="258.81" xlink:href="#linear-gradient"/><linearGradient id="linear-gradient-8" x1="0.01" y1="258.83" x2="3.74" y2="258.83" xlink:href="#linear-gradient"/><linearGradient id="linear-gradient-9" x1="7.96" y1="213.36" x2="11.66" y2="213.36" xlink:href="#linear-gradient"/><linearGradient id="linear-gradient-10" x1="0.02" y1="213.35" x2="3.72" y2="213.35" xlink:href="#linear-gradient"/><linearGradient id="linear-gradient-11" x1="7.9" y1="236.08" x2="11.67" y2="236.08" xlink:href="#linear-gradient"/><linearGradient id="linear-gradient-12" x1="0.02" y1="236.1" x2="3.76" y2="236.1" xlink:href="#linear-gradient"/><linearGradient id="linear-gradient-13" x1="75.82" y1="190.66" x2="87.49" y2="190.66" xlink:href="#linear-gradient"/><linearGradient id="linear-gradient-14" x1="75.81" y1="281.58" x2="87.48" y2="281.58" xlink:href="#linear-gradient"/><linearGradient id="linear-gradient-15" x1="80.21" y1="225.02" x2="83.1" y2="225.02" xlink:href="#linear-gradient"/><linearGradient id="linear-gradient-16" x1="80.2" y1="247.74" x2="83.1" y2="247.74" xlink:href="#linear-gradient"/><linearGradient id="linear-gradient-17" x1="80.21" y1="269.92" x2="83.1" y2="269.92" xlink:href="#linear-gradient"/><linearGradient id="linear-gradient-18" x1="80.2" y1="202.29" x2="83.09" y2="202.29" xlink:href="#linear-gradient"/><linearGradient id="linear-gradient-19" x1="83.78" y1="259.02" x2="87.49" y2="259.02" xlink:href="#linear-gradient"/><linearGradient id="linear-gradient-20" x1="75.82" y1="259.04" x2="79.55" y2="259.04" xlink:href="#linear-gradient"/><linearGradient id="linear-gradient-21" x1="83.77" y1="213.57" x2="87.46" y2="213.57" xlink:href="#linear-gradient"/><linearGradient id="linear-gradient-22" x1="75.83" y1="213.56" x2="79.52" y2="213.56" xlink:href="#linear-gradient"/><linearGradient id="linear-gradient-23" x1="83.71" y1="236.3" x2="87.48" y2="236.3" xlink:href="#linear-gradient"/><linearGradient id="linear-gradient-24" x1="75.83" y1="236.31" x2="79.57" y2="236.31" xlink:href="#linear-gradient"/><linearGradient id="linear-gradient-25" x1="151.63" y1="190.85" x2="163.3" y2="190.85" xlink:href="#linear-gradient"/><linearGradient id="linear-gradient-26" x1="151.62" y1="281.78" x2="163.29" y2="281.78" xlink:href="#linear-gradient"/><linearGradient id="linear-gradient-27" x1="156.02" y1="225.21" x2="158.91" y2="225.21" xlink:href="#linear-gradient"/><linearGradient id="linear-gradient-28" x1="156.01" y1="247.94" x2="158.91" y2="247.94" xlink:href="#linear-gradient"/><linearGradient id="linear-gradient-29" x1="156.02" y1="270.11" x2="158.91" y2="270.11" xlink:href="#linear-gradient"/><linearGradient id="linear-gradient-30" x1="156.01" y1="202.48" x2="158.9" y2="202.48" xlink:href="#linear-gradient"/><linearGradient id="linear-gradient-31" x1="159.59" y1="259.22" x2="163.3" y2="259.22" xlink:href="#linear-gradient"/><linearGradient id="linear-gradient-32" x1="151.63" y1="259.24" x2="155.36" y2="259.24" xlink:href="#linear-gradient"/><linearGradient id="linear-gradient-33" x1="159.58" y1="213.76" x2="163.27" y2="213.76" xlink:href="#linear-gradient"/><linearGradient id="linear-gradient-34" x1="151.64" y1="213.76" x2="155.33" y2="213.76" xlink:href="#linear-gradient"/><linearGradient id="linear-gradient-35" x1="159.52" y1="236.49" x2="163.29" y2="236.49" xlink:href="#linear-gradient"/><linearGradient id="linear-gradient-36" x1="151.63" y1="236.51" x2="155.38" y2="236.51" xlink:href="#linear-gradient"/><linearGradient id="linear-gradient-37" x1="14.7" y1="50.08" x2="150.02" y2="50.08" xlink:href="#linear-gradient"/><linearGradient id="linear-gradient-38" x1="82.06" y1="111.74" x2="82.06" y2="94.74" xlink:href="#linear-gradient"/><linearGradient id="linear-gradient-39" x1="82.06" y1="111.74" x2="82.06" y2="114.57" gradientUnits="userSpaceOnUse"><stop offset="0" stop-color="#b8b9d6"/><stop offset="0.28" stop-color="#dfe6fb"/><stop offset="1" stop-color="#b8b9d6"/></linearGradient></defs><title>11Asset 4proofof-img4</title><g id="Layer_2" data-name="Layer 2"><g id="Layer_1-2" data-name="Layer 1"><path class="cls-1" d="M7.9,199.3c0-1,0-2.1.08-3.15a.82.82,0,0,1,.2-.38A3,3,0,0,0,8.78,194c0-2.26,0-4.51,0-6.77a2.78,2.78,0,0,0-2-2.7,2.84,2.84,0,0,0-3.28,1.06,3.45,3.45,0,0,0-.54,1.7c-.06,2.24,0,4.48,0,6.72a3,3,0,0,0,.61,1.79.82.82,0,0,1,.2.38c0,1,0,2.1.06,3.26a5.86,5.86,0,0,1-3.6-4.2A7.16,7.16,0,0,1,0,193.75c0-2.14,0-4.28,0-6.43a5.85,5.85,0,0,1,7-5.74,5.86,5.86,0,0,1,4.65,5.5c0,2.37.05,4.75,0,7.12a5.69,5.69,0,0,1-3.53,5.15Z"/><path class="cls-2" d="M3.81,272.48c0,1-.05,2.07-.1,3.1a.79.79,0,0,1-.18.39,3.09,3.09,0,0,0-.64,1.88c0,2.22,0,4.45,0,6.67a2.78,2.78,0,0,0,2,2.74,2.84,2.84,0,0,0,3.33-1,3.33,3.33,0,0,0,.53-1.65c.06-2.27.07-4.55,0-6.82A6.3,6.3,0,0,0,8.2,276a2.9,2.9,0,0,1-.23-.72,27.64,27.64,0,0,1,0-2.86,5.64,5.64,0,0,1,3.7,5.28c0,2.26,0,4.51,0,6.77a5.85,5.85,0,0,1-6.93,5.69A5.87,5.87,0,0,1,0,284.65c0-2.34,0-4.68,0-7a5.69,5.69,0,0,1,3.54-5.19Z"/><path class="cls-3" d="M7,216.29a4.44,4.44,0,0,1,.22,1c0,3.56,0,7.12,0,10.68,0,1.48,0,3,0,4.45A1.41,1.41,0,0,1,6,233.89a1.43,1.43,0,0,1-1.56-1.09,1.48,1.48,0,0,1,0-.34q0-7.69,0-15.37a1.31,1.31,0,0,1,.92-1.28A1.55,1.55,0,0,1,7,216.29Z"/><path class="cls-4" d="M7,256.22a1.71,1.71,0,0,1-1.71.29,1.42,1.42,0,0,1-.88-1.41q0-2.08,0-4.15,0-5.46,0-10.92a1.45,1.45,0,1,1,2.89,0q0,4.87,0,9.74c0,1.76,0,3.53,0,5.29A5.21,5.21,0,0,1,7,256.22Z"/><path class="cls-5" d="M7,261a5.69,5.69,0,0,1,.29,1.25c0,3.13,0,6.26,0,9.39,0,1.89,0,3.79,0,5.68a1.45,1.45,0,1,1-2.89-.08c0-2.11,0-4.22,0-6.32,0-2.91,0-5.83,0-8.74a1.43,1.43,0,0,1,1.93-1.45,3.8,3.8,0,0,1,.51.28Z"/><path class="cls-6" d="M7,193.36a4.21,4.21,0,0,1,.31,1.1q0,7.63,0,15.26a1.43,1.43,0,1,1-2.86-.06c0-3.16,0-6.32,0-9.48,0-1.91,0-3.82,0-5.73a1.43,1.43,0,0,1,2.13-1.28,3.83,3.83,0,0,1,.33.22Z"/><path class="cls-7" d="M8,250.07a5.58,5.58,0,0,1,3.32,3.6,11.94,11.94,0,0,1,.33,2.92c0,1.84,0,3.69,0,5.53a5.75,5.75,0,0,1-3.34,5.3c-.09,0-.18.07-.33.13,0-1.1,0-2.16,0-3.22a.69.69,0,0,1,.18-.34,3.09,3.09,0,0,0,.62-1.94q0-3.24,0-6.47a3.23,3.23,0,0,0-.64-2,.74.74,0,0,1-.16-.39C8,252.19,8,251.17,8,250.07Z"/><path class="cls-8" d="M3.66,250.08c0,1.1,0,2.15,0,3.2a.67.67,0,0,1-.17.34,3.15,3.15,0,0,0-.63,1.94c0,2.17,0,4.35,0,6.52a4.47,4.47,0,0,0,.5,1.72,2.27,2.27,0,0,1,.31,1.05c0,.89,0,1.77,0,2.73a5.64,5.64,0,0,1-3.31-3.36,6.28,6.28,0,0,1-.38-2c0-2.24,0-4.48,0-6.72a5.76,5.76,0,0,1,3.63-5.4Z"/><path class="cls-9" d="M8,204.63a5.72,5.72,0,0,1,3,2.83,5.61,5.61,0,0,1,.6,2.57c0,2.22,0,4.45,0,6.67A5.78,5.78,0,0,1,8,222.09c0-.42,0-.82,0-1.22s0-.66,0-1a2.78,2.78,0,0,1,.42-1.76,3,3,0,0,0,.37-1.5c0-2.16,0-4.31,0-6.47a3.22,3.22,0,0,0-.64-2,.66.66,0,0,1-.17-.34C8,206.77,8,205.72,8,204.63Z"/><path class="cls-10" d="M3.67,204.62c0,1.1,0,2.14,0,3.17a.76.76,0,0,1-.18.38,3.14,3.14,0,0,0-.62,1.89q0,3.31,0,6.62a3.1,3.1,0,0,0,.58,1.8,1.3,1.3,0,0,1,.22.67c0,1,0,1.93,0,2.92A5.73,5.73,0,0,1,0,216.78c0-1.83,0-3.66,0-5.48,0-.49,0-1,0-1.48a5.79,5.79,0,0,1,3.15-5C3.33,204.76,3.49,204.71,3.67,204.62Z"/><path class="cls-11" d="M7.9,227.33a5.83,5.83,0,0,1,2.9,2.4,5.9,5.9,0,0,1,.86,3.29c0,2,0,4,0,5.93a5.88,5.88,0,0,1-3.23,5.67c-.12.07-.26.12-.5.22,0-1.14,0-2.2,0-3.26,0-.11.13-.22.18-.34a6.12,6.12,0,0,0,.59-1.74c.07-2.25,0-4.51,0-6.77a2.88,2.88,0,0,0-.63-1.83.66.66,0,0,1-.17-.34C7.94,229.52,7.92,228.47,7.9,227.33Z"/><path class="cls-12" d="M3.76,244.83A5.84,5.84,0,0,1,0,239.36c0-2.11,0-4.21,0-6.32a6.06,6.06,0,0,1,.85-3.3,5.71,5.71,0,0,1,2.85-2.37c0,1.1,0,2.18,0,3.26a.29.29,0,0,1-.08.17,3.5,3.5,0,0,0-.73,2.54q0,3,0,5.93a3.13,3.13,0,0,0,.66,2,.64.64,0,0,1,.14.35C3.74,242.69,3.75,243.72,3.76,244.83Z"/><path class="cls-13" d="M83.71,199.52c0-1,0-2.1.08-3.15A.82.82,0,0,1,84,196a3,3,0,0,0,.61-1.79c0-2.26,0-4.51,0-6.77a2.78,2.78,0,0,0-2-2.7,2.84,2.84,0,0,0-3.28,1.06,3.45,3.45,0,0,0-.54,1.7c-.06,2.24,0,4.48,0,6.72a3,3,0,0,0,.61,1.79.82.82,0,0,1,.2.38c0,1,0,2.1.06,3.26a5.86,5.86,0,0,1-3.6-4.2,7.16,7.16,0,0,1-.13-1.47c0-2.14,0-4.28,0-6.43a5.82,5.82,0,0,1,11.63-.24c0,2.37.05,4.75,0,7.12a5.69,5.69,0,0,1-3.53,5.15Z"/><path class="cls-14" d="M79.62,272.69c0,1-.05,2.07-.1,3.1a.79.79,0,0,1-.18.39,3.09,3.09,0,0,0-.64,1.88c0,2.22,0,4.45,0,6.67a2.78,2.78,0,0,0,2,2.74,2.84,2.84,0,0,0,3.33-1,3.33,3.33,0,0,0,.53-1.65c.06-2.27.07-4.55,0-6.82a6.3,6.3,0,0,0-.56-1.7,2.9,2.9,0,0,1-.23-.72,27.64,27.64,0,0,1,0-2.86,5.64,5.64,0,0,1,3.7,5.28c0,2.26,0,4.51,0,6.77a5.82,5.82,0,0,1-11.63.14c0-2.34,0-4.68,0-7a5.69,5.69,0,0,1,3.54-5.19Z"/><path class="cls-15" d="M82.85,216.5a4.44,4.44,0,0,1,.22,1c0,3.56,0,7.12,0,10.68,0,1.48,0,3,0,4.45a1.41,1.41,0,0,1-1.29,1.44A1.43,1.43,0,0,1,80.25,233a1.48,1.48,0,0,1,0-.34q0-7.69,0-15.37a1.31,1.31,0,0,1,.92-1.28A1.55,1.55,0,0,1,82.85,216.5Z"/><path class="cls-16" d="M82.8,256.44a1.71,1.71,0,0,1-1.71.29,1.42,1.42,0,0,1-.88-1.41q0-2.08,0-4.15,0-5.46,0-10.92a1.45,1.45,0,1,1,2.89,0q0,4.87,0,9.74c0,1.76,0,3.53,0,5.29A5.21,5.21,0,0,1,82.8,256.44Z"/><path class="cls-17" d="M82.78,261.19a5.69,5.69,0,0,1,.29,1.25c0,3.13,0,6.26,0,9.39,0,1.89,0,3.79,0,5.68a1.45,1.45,0,1,1-2.89-.08c0-2.11,0-4.22,0-6.32,0-2.91,0-5.83,0-8.74a1.43,1.43,0,0,1,1.93-1.45,3.8,3.8,0,0,1,.51.28Z"/><path class="cls-18" d="M82.77,193.57a4.21,4.21,0,0,1,.31,1.1q0,7.63,0,15.26a1.43,1.43,0,1,1-2.86-.06c0-3.16,0-6.32,0-9.48,0-1.91,0-3.82,0-5.73a1.43,1.43,0,0,1,2.13-1.28,3.83,3.83,0,0,1,.33.22Z"/><path class="cls-19" d="M83.81,250.28a5.58,5.58,0,0,1,3.32,3.6,11.94,11.94,0,0,1,.33,2.92c0,1.84,0,3.69,0,5.53a5.75,5.75,0,0,1-3.34,5.3c-.09,0-.18.07-.33.13,0-1.1,0-2.16,0-3.22a.69.69,0,0,1,.18-.34,3.09,3.09,0,0,0,.62-1.94q0-3.24,0-6.47a3.23,3.23,0,0,0-.64-2,.74.74,0,0,1-.16-.39C83.79,252.41,83.8,251.39,83.81,250.28Z"/><path class="cls-20" d="M79.47,250.29c0,1.1,0,2.15,0,3.2a.67.67,0,0,1-.17.34,3.15,3.15,0,0,0-.63,1.94c0,2.17,0,4.35,0,6.52a4.47,4.47,0,0,0,.5,1.72,2.27,2.27,0,0,1,.31,1.05c0,.89,0,1.77,0,2.73a5.64,5.64,0,0,1-3.31-3.36,6.28,6.28,0,0,1-.38-2c0-2.24,0-4.48,0-6.72a5.76,5.76,0,0,1,3.63-5.4Z"/><path class="cls-21" d="M83.83,204.84a5.72,5.72,0,0,1,3,2.83,5.61,5.61,0,0,1,.6,2.57c0,2.22,0,4.45,0,6.67a5.78,5.78,0,0,1-3.67,5.38c0-.42,0-.82,0-1.22s0-.66,0-1a2.78,2.78,0,0,1,.42-1.76,3,3,0,0,0,.37-1.5c0-2.16,0-4.31,0-6.47a3.22,3.22,0,0,0-.64-2,.66.66,0,0,1-.17-.34C83.79,207,83.81,205.93,83.83,204.84Z"/><path class="cls-22" d="M79.48,204.84c0,1.1,0,2.14,0,3.17a.76.76,0,0,1-.18.38,3.14,3.14,0,0,0-.62,1.89q0,3.31,0,6.62a3.1,3.1,0,0,0,.58,1.8,1.3,1.3,0,0,1,.22.67c0,1,0,1.93,0,2.92a5.73,5.73,0,0,1-3.68-5.3c0-1.83,0-3.66,0-5.48,0-.49,0-1,0-1.48a5.79,5.79,0,0,1,3.15-5C79.14,205,79.29,204.92,79.48,204.84Z"/><path class="cls-23" d="M83.71,227.54a5.83,5.83,0,0,1,2.9,2.4,5.9,5.9,0,0,1,.86,3.29c0,2,0,4,0,5.93a5.88,5.88,0,0,1-3.23,5.67c-.12.07-.26.12-.5.22,0-1.14,0-2.2,0-3.26,0-.11.13-.22.18-.34a6.12,6.12,0,0,0,.59-1.74c.07-2.25,0-4.51,0-6.77a2.88,2.88,0,0,0-.63-1.83.66.66,0,0,1-.17-.34C83.75,229.73,83.73,228.68,83.71,227.54Z"/><path class="cls-24" d="M79.57,245a5.84,5.84,0,0,1-3.74-5.47c0-2.11,0-4.21,0-6.32a6.06,6.06,0,0,1,.85-3.3,5.71,5.71,0,0,1,2.85-2.37c0,1.1,0,2.18,0,3.26a.29.29,0,0,1-.08.17,3.5,3.5,0,0,0-.73,2.54q0,3,0,5.93a3.13,3.13,0,0,0,.66,2,.64.64,0,0,1,.14.35C79.55,242.9,79.56,243.93,79.57,245Z"/><path class="cls-25" d="M159.51,199.71c0-1,0-2.1.08-3.15a.82.82,0,0,1,.2-.38,3,3,0,0,0,.61-1.79c0-2.26,0-4.51,0-6.77a2.78,2.78,0,0,0-2-2.7A2.84,2.84,0,0,0,155.1,186a3.45,3.45,0,0,0-.54,1.7c-.06,2.24,0,4.48,0,6.72a3,3,0,0,0,.61,1.79.82.82,0,0,1,.2.38c0,1,0,2.1.06,3.26a5.86,5.86,0,0,1-3.6-4.2,7.16,7.16,0,0,1-.13-1.47c0-2.14,0-4.28,0-6.43a5.82,5.82,0,0,1,11.63-.24c0,2.37.05,4.75,0,7.12a5.69,5.69,0,0,1-3.53,5.15Z"/><path class="cls-26" d="M155.43,272.89c0,1-.05,2.07-.1,3.1a.79.79,0,0,1-.18.39,3.09,3.09,0,0,0-.64,1.88c0,2.22,0,4.45,0,6.67a2.78,2.78,0,0,0,2,2.74,2.84,2.84,0,0,0,3.33-1,3.33,3.33,0,0,0,.53-1.65c.06-2.27.07-4.55,0-6.82a6.3,6.3,0,0,0-.56-1.7,2.9,2.9,0,0,1-.23-.72,27.64,27.64,0,0,1,0-2.86,5.64,5.64,0,0,1,3.7,5.28c0,2.26,0,4.51,0,6.77a5.82,5.82,0,0,1-11.63.14c0-2.34,0-4.68,0-7a5.69,5.69,0,0,1,3.54-5.19Z"/><path class="cls-27" d="M158.66,216.69a4.44,4.44,0,0,1,.22,1c0,3.56,0,7.12,0,10.68,0,1.48,0,3,0,4.45a1.41,1.41,0,0,1-1.29,1.44,1.43,1.43,0,0,1-1.56-1.09,1.48,1.48,0,0,1,0-.34q0-7.69,0-15.37a1.31,1.31,0,0,1,.92-1.28A1.55,1.55,0,0,1,158.66,216.69Z"/><path class="cls-28" d="M158.61,256.63a1.71,1.71,0,0,1-1.71.29,1.42,1.42,0,0,1-.88-1.41q0-2.08,0-4.15,0-5.46,0-10.92a1.45,1.45,0,1,1,2.89,0q0,4.87,0,9.74c0,1.76,0,3.53,0,5.29A5.21,5.21,0,0,1,158.61,256.63Z"/><path class="cls-29" d="M158.59,261.38a5.69,5.69,0,0,1,.29,1.25c0,3.13,0,6.26,0,9.39,0,1.89,0,3.79,0,5.68a1.45,1.45,0,1,1-2.89-.08c0-2.11,0-4.22,0-6.32,0-2.91,0-5.83,0-8.74a1.43,1.43,0,0,1,1.93-1.45,3.8,3.8,0,0,1,.51.28Z"/><path class="cls-30" d="M158.58,193.77a4.21,4.21,0,0,1,.31,1.1q0,7.63,0,15.26a1.43,1.43,0,1,1-2.86-.06c0-3.16,0-6.32,0-9.48,0-1.91,0-3.82,0-5.73a1.43,1.43,0,0,1,2.13-1.28,3.83,3.83,0,0,1,.33.22Z"/><path class="cls-31" d="M159.62,250.47a5.58,5.58,0,0,1,3.32,3.6,11.94,11.94,0,0,1,.33,2.92c0,1.84,0,3.69,0,5.53a5.75,5.75,0,0,1-3.34,5.3c-.09,0-.18.07-.33.13,0-1.1,0-2.16,0-3.22a.69.69,0,0,1,.18-.34,3.09,3.09,0,0,0,.62-1.94q0-3.24,0-6.47a3.23,3.23,0,0,0-.64-2,.74.74,0,0,1-.16-.39C159.59,252.6,159.61,251.58,159.62,250.47Z"/><path class="cls-32" d="M155.28,250.49c0,1.1,0,2.15,0,3.2a.67.67,0,0,1-.17.34,3.15,3.15,0,0,0-.63,1.94c0,2.17,0,4.35,0,6.52a4.47,4.47,0,0,0,.5,1.72,2.27,2.27,0,0,1,.31,1.05c0,.89,0,1.77,0,2.73a5.64,5.64,0,0,1-3.31-3.36,6.28,6.28,0,0,1-.38-2c0-2.24,0-4.48,0-6.72a5.76,5.76,0,0,1,3.63-5.4Z"/><path class="cls-33" d="M159.64,205a5.72,5.72,0,0,1,3,2.83,5.61,5.61,0,0,1,.6,2.57c0,2.22,0,4.45,0,6.67a5.78,5.78,0,0,1-3.67,5.38c0-.42,0-.82,0-1.22s0-.66,0-1a2.78,2.78,0,0,1,.42-1.76,3,3,0,0,0,.37-1.5c0-2.16,0-4.31,0-6.47a3.22,3.22,0,0,0-.64-2,.66.66,0,0,1-.17-.34C159.6,207.18,159.62,206.13,159.64,205Z"/><path class="cls-34" d="M155.29,205c0,1.1,0,2.14,0,3.17a.76.76,0,0,1-.18.38,3.14,3.14,0,0,0-.62,1.89q0,3.31,0,6.62a3.1,3.1,0,0,0,.58,1.8,1.3,1.3,0,0,1,.22.67c0,1,0,1.93,0,2.92a5.73,5.73,0,0,1-3.68-5.3c0-1.83,0-3.66,0-5.48,0-.49,0-1,0-1.48a5.79,5.79,0,0,1,3.15-5C154.95,205.17,155.1,205.11,155.29,205Z"/><path class="cls-35" d="M159.52,227.73a5.83,5.83,0,0,1,2.9,2.4,5.9,5.9,0,0,1,.86,3.29c0,2,0,4,0,5.93a5.88,5.88,0,0,1-3.23,5.67c-.12.07-.26.12-.5.22,0-1.14,0-2.2,0-3.26,0-.11.13-.22.18-.34a6.12,6.12,0,0,0,.59-1.74c.07-2.25,0-4.51,0-6.77a2.88,2.88,0,0,0-.63-1.83.66.66,0,0,1-.17-.34C159.55,229.92,159.54,228.87,159.52,227.73Z"/><path class="cls-36" d="M155.38,245.23a5.84,5.84,0,0,1-3.74-5.47c0-2.11,0-4.21,0-6.32a6.06,6.06,0,0,1,.85-3.3,5.71,5.71,0,0,1,2.85-2.37c0,1.1,0,2.18,0,3.26a.29.29,0,0,1-.08.17,3.5,3.5,0,0,0-.73,2.54q0,3,0,5.93a3.13,3.13,0,0,0,.66,2,.64.64,0,0,1,.14.35C155.36,243.09,155.36,244.13,155.38,245.23Z"/><path class="cls-37" d="M14.7,5.41H150a0,0,0,0,1,0,0V91.56a3.18,3.18,0,0,1-3.18,3.18h-129a3.18,3.18,0,0,1-3.18-3.18V5.41a0,0,0,0,1,0,0Z"/><path class="cls-38" d="M18,0h129a3.17,3.17,0,0,1,3.17,3.17V72.68a0,0,0,0,1,0,0H14.79a0,0,0,0,1,0,0V3.17A3.17,3.17,0,0,1,18,0Z"/><path class="cls-39" d="M24.06,5.41H140.65a2.76,2.76,0,0,1,2.76,2.76v58.4a0,0,0,0,1,0,0H21.3a0,0,0,0,1,0,0V8.18A2.76,2.76,0,0,1,24.06,5.41Z"/><circle class="cls-40" cx="82.45" cy="83.45" r="7.59"/><path class="cls-41" d="M82.45,89a5.58,5.58,0,0,1-4-9.54.8.8,0,1,1,1.13,1.13,4,4,0,0,0,1.27,6.5,4,4,0,0,0,3.11,0,4,4,0,0,0-1.55-7.66.8.8,0,1,1,0-1.6,5.59,5.59,0,1,1,0,11.17Z"/><path class="cls-41" d="M82.45,84.24a.8.8,0,0,1-.8-.8V78.66a.8.8,0,1,1,1.6,0v4.79A.8.8,0,0,1,82.45,84.24Z"/><rect class="cls-42" x="66.61" y="94.74" width="30.89" height="17.01"/><path class="cls-43" d="M52.28,114.57h59.56s-1.69-2.82-12.91-2.82h-35S54.06,111.74,52.28,114.57Z"/><polyline class="cls-44" points="82.06 114.57 82.06 147.41 5.84 147.41 5.84 181.59"/><polyline class="cls-44" points="82.06 181.8 82.06 147.41 157.45 147.41 157.45 181.99"/><path class="cls-45" d="M34.56,14.36l1,.32-4.2,12.83-1-.32Z"/><path class="cls-45" d="M45.15,26H44V20.85a1.4,1.4,0,0,0-.23-.83.84.84,0,0,0-.74-.32,1,1,0,0,0-.77.35,1.67,1.67,0,0,0-.3,1.09V26H40.86V20.79A1.18,1.18,0,0,0,40.6,20a.86.86,0,0,0-.69-.31.94.94,0,0,0-.8.38,1.59,1.59,0,0,0-.28,1V26H37.7V18.83h1.12v.78H39a1.46,1.46,0,0,1,.55-.74,1.51,1.51,0,0,1,.85-.24,1.32,1.32,0,0,1,.86.27,1.4,1.4,0,0,1,.47.71h.17a1.63,1.63,0,0,1,1.56-1,1.55,1.55,0,0,1,1.25.51,2,2,0,0,1,.44,1.33Z"/><path class="cls-45" d="M46.9,24.94h2.51V19.86H47.16v-1h3.37v6.11h2.34v1h-6Zm2-8.25a1,1,0,1,1,.3.71A1,1,0,0,1,49,16.69Z"/><path class="cls-45" d="M56.32,26H55.2V18.83h1.13V20h.17a2.35,2.35,0,0,1,2.31-1.41,2.6,2.6,0,0,1,2,.77,3.24,3.24,0,0,1,.74,2.31V26H60.39v-4a2.46,2.46,0,0,0-.5-1.69,1.75,1.75,0,0,0-1.37-.56,2,2,0,0,0-1.61.7,2.82,2.82,0,0,0-.58,1.87Z"/><path class="cls-45" d="M64.48,22.75a2.54,2.54,0,0,0,.66,1.72,2.28,2.28,0,0,0,1.73.65,3,3,0,0,0,.88-.12,2.05,2.05,0,0,0,.64-.32,1.74,1.74,0,0,0,.43-.47,2.68,2.68,0,0,0,.27-.57l1.07.29A3.16,3.16,0,0,1,69,25.55a3.51,3.51,0,0,1-2.2.63,3.63,3.63,0,0,1-1.41-.27,3.16,3.16,0,0,1-1.1-.76A3.5,3.5,0,0,1,63.62,24a4.15,4.15,0,0,1-.26-1.5v-.35a3.65,3.65,0,0,1,.27-1.4,3.32,3.32,0,0,1,.74-1.12,3.48,3.48,0,0,1,1.12-.74,3.59,3.59,0,0,1,1.39-.27,3.33,3.33,0,0,1,1.52.33,3.38,3.38,0,0,1,1.05.8,3.16,3.16,0,0,1,.61,1,3.19,3.19,0,0,1,.19,1v.92Zm2.39-3.06a2.55,2.55,0,0,0-.89.15,2.24,2.24,0,0,0-1.23,1.07,2.36,2.36,0,0,0-.25.8h4.61a2.08,2.08,0,0,0-.22-.84,2,2,0,0,0-.5-.63,2.32,2.32,0,0,0-.71-.4A2.37,2.37,0,0,0,66.88,19.69Z"/><path class="cls-45" d="M72.27,20.41h2.49V17.92h1v2.49H78.3v1H75.8v2.49h-1V21.45H72.27Z"/><path class="cls-45" d="M85.35,14.36l1,.32-4.2,12.83-1-.32Z"/><path class="cls-45" d="M91.2,25.17a1,1,0,1,1,.3.71A1,1,0,0,1,91.2,25.17Z"/><path class="cls-45" d="M99.67,25.17a1,1,0,1,1,.3.71A1,1,0,0,1,99.67,25.17Z"/><path class="cls-45" d="M108.13,25.17a1,1,0,1,1,.3.71A1,1,0,0,1,108.13,25.17Z"/></g></g></svg>