<svg xmlns="http://www.w3.org/2000/svg" xmlns:xlink="http://www.w3.org/1999/xlink" viewBox="0 0 234.46 198.37"><defs><style>.cls-1{fill:url(#linear-gradient);}.cls-2{fill:#1e2c33;}.cls-3{fill:#637889;}.cls-4{fill:#909cad;}.cls-5{fill:#d3deef;}.cls-6{fill:url(#linear-gradient-2);}.cls-7{fill:url(#linear-gradient-3);}.cls-8{fill:none;stroke:#fff;stroke-linecap:round;stroke-linejoin:round;stroke-width:4px;}</style><linearGradient id="linear-gradient" y1="86.71" x2="234.3" y2="86.71" gradientUnits="userSpaceOnUse"><stop offset="0" stop-color="#dfe6fb"/><stop offset="1" stop-color="#b8b9d6"/></linearGradient><linearGradient id="linear-gradient-2" x1="116.63" y1="193.49" x2="116.63" y2="164.04" xlink:href="#linear-gradient"/><linearGradient id="linear-gradient-3" x1="116.63" y1="193.49" x2="116.63" y2="198.37" gradientUnits="userSpaceOnUse"><stop offset="0" stop-color="#b8b9d6"/><stop offset="0.28" stop-color="#dfe6fb"/><stop offset="1" stop-color="#b8b9d6"/></linearGradient></defs><title>11Asset 5proofof-img5</title><g id="Layer_2" data-name="Layer 2"><g id="Layer_1-2" data-name="Layer 1"><path class="cls-1" d="M0,9.37H234.3a0,0,0,0,1,0,0V158.53a5.51,5.51,0,0,1-5.51,5.51H5.51A5.51,5.51,0,0,1,0,158.53V9.37a0,0,0,0,1,0,0Z"/><path class="cls-2" d="M5.65,0H229a5.49,5.49,0,0,1,5.49,5.49V125.85a0,0,0,0,1,0,0H.16a0,0,0,0,1,0,0V5.49A5.49,5.49,0,0,1,5.65,0Z"/><path class="cls-3" d="M16.22,9.37H218.08a4.79,4.79,0,0,1,4.79,4.79V115.28a0,0,0,0,1,0,0H11.43a0,0,0,0,1,0,0V14.16A4.79,4.79,0,0,1,16.22,9.37Z"/><circle class="cls-4" cx="117.31" cy="144.49" r="13.14"/><path class="cls-5" d="M117.31,154.16a9.67,9.67,0,0,1-6.84-16.51,1.38,1.38,0,1,1,2,2,6.91,6.91,0,0,0,2.2,11.25,7,7,0,0,0,5.38,0,6.91,6.91,0,0,0-2.69-13.27,1.38,1.38,0,1,1,0-2.76,9.67,9.67,0,1,1,0,19.34Z"/><path class="cls-5" d="M117.31,145.87a1.38,1.38,0,0,1-1.38-1.38V136.2a1.38,1.38,0,1,1,2.76,0v8.29A1.38,1.38,0,0,1,117.31,145.87Z"/><rect class="cls-6" x="89.88" y="164.04" width="53.49" height="29.45"/><path class="cls-7" d="M65.07,198.37H168.19s-2.93-4.89-22.35-4.89H85.17S68.15,193.49,65.07,198.37Z"/><polyline class="cls-8" points="29.02 37.13 67 27.8 61.17 81.13 145.83 45.8 202.5 89.71"/><line class="cls-8" x1="199.28" y1="68.92" x2="202.85" y2="90.02"/><line class="cls-8" x1="181.74" y1="93.6" x2="202.85" y2="90.02"/></g></g></svg>