<svg xmlns="http://www.w3.org/2000/svg" viewBox="0 0 324.31 332.87"><defs><style>.cls-1{fill:none;stroke:#ffe98f;stroke-miterlimit:10;stroke-width:2px;}.cls-2{fill:#aa7b11;}.cls-3{fill:#ffe98f;}</style></defs><title>11Asset 2cryptography-main</title><g id="Layer_2" data-name="Layer 2"><g id="Layer_1-2" data-name="Layer 1"><line class="cls-1" x1="177.55" y1="158.4" x2="313.48" y2="158.4"/><line class="cls-1" x1="177.55" y1="191.33" x2="313.48" y2="191.33"/><line class="cls-1" x1="177.55" y1="226.4" x2="313.48" y2="226.4"/><polyline class="cls-1" points="72.62 195.33 95.17 195.33 95.17 172.43 127.55 172.43 127.55 213 172.63 213"/><polyline class="cls-1" points="42.49 139.82 68.95 139.82 68.95 157.4 93.45 157.4 93.45 125.36 149.25 125.36"/><polyline class="cls-1" points="10.83 247.17 48.29 247.17 48.29 231.73 72.62 231.73 72.62 279.01 102.72 279.01 102.72 247.17 122.62 247.17 122.62 255.37 167.61 255.37"/><path class="cls-2" d="M172.63,23.45A42.55,42.55,0,1,1,130.07,66a42.6,42.6,0,0,1,42.55-42.55m0-23.45a66,66,0,1,0,66,66,66,66,0,0,0-66-66Z"/><rect class="cls-2" x="174.69" y="247.13" width="48.79" height="26.56" rx="3.73" ry="3.73"/><rect class="cls-2" x="174.69" y="288.29" width="48.79" height="26.56" rx="3.73" ry="3.73"/><rect class="cls-2" x="159.35" y="120.77" width="26.56" height="212.1" rx="7.55" ry="7.55"/><circle class="cls-3" cx="42.49" cy="139.82" r="10.83"/><circle class="cls-3" cx="72.62" cy="195.33" r="10.83"/><circle class="cls-3" cx="10.83" cy="247.17" r="10.83"/><circle class="cls-3" cx="313.48" cy="158.4" r="10.83"/><circle class="cls-3" cx="313.48" cy="191.6" r="10.83"/><circle class="cls-3" cx="313.48" cy="226.4" r="10.83"/></g></g></svg>