<svg xmlns="http://www.w3.org/2000/svg" viewBox="0 0 239.54 245.86"><defs><style>.cls-1{fill:none;stroke:#ffe98f;stroke-miterlimit:10;stroke-width:2px;}.cls-2{fill:#aa7b11;}.cls-3{fill:#ffe98f;}</style></defs><title>11Asset 5cryptography-right</title><g id="Layer_2" data-name="Layer 2"><g id="Layer_1-2" data-name="Layer 1"><line class="cls-1" x1="108.4" y1="128.86" x2="8" y2="128.86"/><line class="cls-1" x1="108.4" y1="104.54" x2="8" y2="104.54"/><line class="cls-1" x1="108.4" y1="78.64" x2="8" y2="78.64"/><polyline class="cls-1" points="185.9 101.59 169.25 101.59 169.25 118.5 145.33 118.5 145.33 88.54 112.03 88.54"/><polyline class="cls-1" points="208.15 142.59 188.61 142.59 188.61 129.6 170.51 129.6 170.51 153.27 129.3 153.27"/><polyline class="cls-1" points="231.54 63.29 203.87 63.29 203.87 74.7 185.9 74.7 185.9 39.78 163.67 39.78 163.67 63.29 148.97 63.29 148.97 57.24 115.74 57.24"/><path class="cls-2" d="M112,228.54a31.43,31.43,0,1,1,31.43-31.43A31.47,31.47,0,0,1,112,228.54m0,17.32a48.75,48.75,0,1,0-48.75-48.75A48.75,48.75,0,0,0,112,245.86Z"/><rect class="cls-2" x="74.47" y="43.71" width="36.04" height="19.62" rx="2.75" ry="2.75"/><rect class="cls-2" x="74.47" y="13.31" width="36.04" height="19.62" rx="2.75" ry="2.75"/><rect class="cls-2" x="102.23" width="19.62" height="156.66" rx="5.58" ry="5.58"/><circle class="cls-3" cx="208.15" cy="142.59" r="8"/><circle class="cls-3" cx="185.9" cy="101.59" r="8"/><circle class="cls-3" cx="231.54" cy="63.29" r="8"/><circle class="cls-3" cx="8" cy="128.86" r="8"/><circle class="cls-3" cx="8" cy="104.34" r="8"/><circle class="cls-3" cx="8" cy="78.64" r="8"/></g></g></svg>