<svg xmlns="http://www.w3.org/2000/svg" viewBox="0 0 283.99 328.62"><defs><style>.cls-1,.cls-4{fill:#33d1b3;}.cls-2{fill:#fff;}.cls-3{fill:none;}.cls-3,.cls-4{stroke:#fff;stroke-linecap:round;stroke-linejoin:round;stroke-width:6px;}</style></defs><title>11Asset 3digital-right</title><g id="Layer_2" data-name="Layer 2"><g id="Layer_1-2" data-name="Layer 1"><path class="cls-1" d="M238,325.62c-23.32,0-43-9.64-43-21.06s19.7-21.06,43-21.06,43,9.64,43,21.06S261.29,325.62,238,325.62Z"/><path class="cls-2" d="M238,286.51c11.34,0,21.91,2.26,29.76,6.36,6.52,3.41,10.26,7.67,10.26,11.69s-3.74,8.29-10.26,11.69c-7.85,4.1-18.42,6.36-29.76,6.36s-21.91-2.26-29.76-6.36c-6.52-3.41-10.26-7.67-10.26-11.69s3.74-8.29,10.26-11.69c7.85-4.1,18.42-6.36,29.76-6.36m0-6c-25.42,0-46,10.77-46,24.06s20.6,24.06,46,24.06,46-10.77,46-24.06-20.6-24.06-46-24.06Z"/><path class="cls-1" d="M238,300.15c-23.32,0-43-9.64-43-21.06S214.65,258,238,258s43,9.64,43,21.06S261.29,300.15,238,300.15Z"/><path class="cls-2" d="M238,261c11.34,0,21.91,2.26,29.76,6.36,6.52,3.41,10.26,7.67,10.26,11.69s-3.74,8.29-10.26,11.69c-7.85,4.1-18.42,6.36-29.76,6.36s-21.91-2.26-29.76-6.36c-6.52-3.41-10.26-7.67-10.26-11.69s3.74-8.29,10.26-11.69c7.85-4.1,18.42-6.36,29.76-6.36m0-6c-25.42,0-46,10.77-46,24.06s20.6,24.06,46,24.06,46-10.77,46-24.06S263.39,255,238,255Z"/><path class="cls-1" d="M238,274.68c-23.32,0-43-9.64-43-21.06s19.7-21.06,43-21.06,43,9.64,43,21.06S261.29,274.68,238,274.68Z"/><path class="cls-2" d="M238,235.57c11.34,0,21.91,2.26,29.76,6.36,6.52,3.41,10.26,7.67,10.26,11.69s-3.74,8.29-10.26,11.69c-7.85,4.1-18.42,6.36-29.76,6.36s-21.91-2.26-29.76-6.36c-6.52-3.41-10.26-7.67-10.26-11.69s3.74-8.29,10.26-11.69c7.85-4.1,18.42-6.36,29.76-6.36m0-6c-25.42,0-46,10.77-46,24.06s20.6,24.06,46,24.06,46-10.77,46-24.06-20.6-24.06-46-24.06Z"/><path class="cls-1" d="M238,249.21c-23.32,0-43-9.64-43-21.06s19.7-21.06,43-21.06,43,9.64,43,21.06S261.29,249.21,238,249.21Z"/><path class="cls-2" d="M238,210.1c11.34,0,21.91,2.26,29.76,6.36,6.52,3.41,10.26,7.67,10.26,11.69s-3.74,8.29-10.26,11.69c-7.85,4.1-18.42,6.36-29.76,6.36s-21.91-2.26-29.76-6.36c-6.52-3.41-10.26-7.67-10.26-11.69s3.74-8.29,10.26-11.69c7.85-4.1,18.42-6.36,29.76-6.36m0-6c-25.42,0-46,10.77-46,24.06s20.6,24.06,46,24.06,46-10.77,46-24.06-20.6-24.06-46-24.06Z"/><path class="cls-1" d="M122.7,325.62c-23.32,0-43-9.64-43-21.06s19.7-21.06,43-21.06,43,9.64,43,21.06S146,325.62,122.7,325.62Z"/><path class="cls-2" d="M122.69,286.51c11.34,0,21.91,2.26,29.76,6.36,6.52,3.41,10.26,7.67,10.26,11.69s-3.74,8.29-10.26,11.69c-7.85,4.1-18.42,6.36-29.76,6.36s-21.91-2.26-29.76-6.36c-6.52-3.41-10.26-7.67-10.26-11.69s3.74-8.29,10.26-11.69c7.85-4.1,18.42-6.36,29.76-6.36m0-6c-25.42,0-46,10.77-46,24.06s20.6,24.06,46,24.06,46-10.77,46-24.06-20.6-24.06-46-24.06Z"/><path class="cls-1" d="M122.7,300.15c-23.32,0-43-9.64-43-21.06S99.38,258,122.7,258s43,9.64,43,21.06S146,300.15,122.7,300.15Z"/><path class="cls-2" d="M122.69,261c11.34,0,21.91,2.26,29.76,6.36,6.52,3.41,10.26,7.67,10.26,11.69s-3.74,8.29-10.26,11.69c-7.85,4.1-18.42,6.36-29.76,6.36s-21.91-2.26-29.76-6.36c-6.52-3.41-10.26-7.67-10.26-11.69s3.74-8.29,10.26-11.69c7.85-4.1,18.42-6.36,29.76-6.36m0-6c-25.42,0-46,10.77-46,24.06s20.6,24.06,46,24.06,46-10.77,46-24.06-20.6-24.06-46-24.06Z"/><path class="cls-1" d="M122.7,274.68c-23.32,0-43-9.64-43-21.06s19.7-21.06,43-21.06,43,9.64,43,21.06S146,274.68,122.7,274.68Z"/><path class="cls-2" d="M122.69,235.57c11.34,0,21.91,2.26,29.76,6.36,6.52,3.41,10.26,7.67,10.26,11.69s-3.74,8.29-10.26,11.69c-7.85,4.1-18.42,6.36-29.76,6.36s-21.91-2.26-29.76-6.36c-6.52-3.41-10.26-7.67-10.26-11.69s3.74-8.29,10.26-11.69c7.85-4.1,18.42-6.36,29.76-6.36m0-6c-25.42,0-46,10.77-46,24.06s20.6,24.06,46,24.06,46-10.77,46-24.06-20.6-24.06-46-24.06Z"/><path class="cls-1" d="M122.7,249.21c-23.32,0-43-9.64-43-21.06s19.7-21.06,43-21.06,43,9.64,43,21.06S146,249.21,122.7,249.21Z"/><path class="cls-2" d="M122.69,210.1c11.34,0,21.91,2.26,29.76,6.36,6.52,3.41,10.26,7.67,10.26,11.69s-3.74,8.29-10.26,11.69c-7.85,4.1-18.42,6.36-29.76,6.36s-21.91-2.26-29.76-6.36c-6.52-3.41-10.26-7.67-10.26-11.69s3.74-8.29,10.26-11.69c7.85-4.1,18.42-6.36,29.76-6.36m0-6c-25.42,0-46,10.77-46,24.06s20.6,24.06,46,24.06,46-10.77,46-24.06-20.6-24.06-46-24.06Z"/><path class="cls-1" d="M238,223.74c-23.32,0-43-9.64-43-21.06s19.7-21.06,43-21.06,43,9.64,43,21.06S261.29,223.74,238,223.74Z"/><path class="cls-2" d="M238,184.63c11.34,0,21.91,2.26,29.76,6.36,6.52,3.41,10.26,7.67,10.26,11.69s-3.74,8.29-10.26,11.69c-7.85,4.1-18.42,6.36-29.76,6.36s-21.91-2.26-29.76-6.36C201.69,211,198,206.71,198,202.69s3.74-8.29,10.26-11.69c7.85-4.1,18.42-6.36,29.76-6.36m0-6c-25.42,0-46,10.77-46,24.06s20.6,24.06,46,24.06,46-10.77,46-24.06-20.6-24.06-46-24.06Z"/><path class="cls-1" d="M238,198.28c-23.32,0-43-9.64-43-21.06s19.7-21.06,43-21.06,43,9.64,43,21.06S261.29,198.28,238,198.28Z"/><path class="cls-2" d="M238,159.16c11.34,0,21.91,2.26,29.76,6.36,6.52,3.41,10.26,7.67,10.26,11.69s-3.74,8.29-10.26,11.69c-7.85,4.1-18.42,6.36-29.76,6.36s-21.91-2.26-29.76-6.36c-6.52-3.41-10.26-7.67-10.26-11.69s3.74-8.29,10.26-11.69c7.85-4.1,18.42-6.36,29.76-6.36m0-6c-25.42,0-46,10.77-46,24.06s20.6,24.06,46,24.06,46-10.77,46-24.06-20.6-24.06-46-24.06Z"/><path class="cls-3" d="M115.12,61.94c-.38-.26-.77-.5-1.16-.74-10-6.14-20.86-7.86-32.34-6.7Q56.37,57.06,40.08,37.6c-.49-.58-1.09-1.08-1.77-1.73a10.87,10.87,0,0,0-.73,1.22C32.4,50.19,27.18,63.27,22.12,76.41a3.66,3.66,0,0,0,.8,3.29c3.47,2.83,6.91,5.85,10.83,7.93,9.13,4.85,19,5.75,29.24,4.71C76.06,91,87.79,94.35,97.8,103c2.75,2.38,5.16,5.15,8.15,8.16l1.46-3.68q6.09-15.41,12.18-30.82C123.19,67.59,123.19,67.59,115.12,61.94Z"/><path class="cls-4" d="M96.12,29.07c-.38-.26-.77-.5-1.16-.74-10-6.14-20.86-7.86-32.34-6.7Q37.37,24.19,21.08,4.73C20.59,4.15,20,3.66,19.31,3a10.87,10.87,0,0,0-.73,1.22C13.4,17.32,8.18,30.4,3.12,43.54a3.66,3.66,0,0,0,.8,3.29c3.47,2.83,6.91,5.85,10.83,7.93,9.13,4.85,19,5.75,29.24,4.71,13.07-1.34,24.81,2,34.81,10.68,2.75,2.38,5.16,5.15,8.15,8.16l1.46-3.68q6.09-15.41,12.18-30.82C104.19,34.72,104.19,34.72,96.12,29.07Z"/></g></g></svg>