<svg xmlns="http://www.w3.org/2000/svg" viewBox="0 0 399.77 316.58"><defs><style>.cls-1,.cls-4{fill:none;}.cls-1,.cls-4,.cls-5{stroke:#fff;stroke-width:6px;}.cls-1,.cls-5{stroke-linecap:round;stroke-linejoin:round;}.cls-2,.cls-5{fill:#33d1b3;}.cls-3{fill:#fff;}.cls-4{stroke-miterlimit:10;}</style></defs><title>11Asset 1digital-main</title><g id="Layer_2" data-name="Layer 2"><g id="Layer_1-2" data-name="Layer 1"><path class="cls-1" d="M96.69,37.87c-.34-.16-.7-.3-1-.44-9-3.64-18.05-3.55-27.23-1q-20.21,5.54-36.12-8.07c-.48-.41-1-.73-1.68-1.17a9,9,0,0,0-.43,1.1C27.76,39.61,25.31,51,23,62.36a3,3,0,0,0,1.1,2.57,57.54,57.54,0,0,0,9.89,5c8.09,2.7,16.28,2.08,24.44-.17C68.87,66.86,78.88,68,88.2,73.67c2.56,1.56,4.9,3.48,7.75,5.53l.68-3.2q2.85-13.37,5.7-26.74C104,41.37,104,41.37,96.69,37.87Z"/><rect class="cls-2" x="88.78" y="58.87" width="215.46" height="147.01" rx="10.81" ry="10.81"/><path class="cls-3" d="M293.44,61.87a7.81,7.81,0,0,1,7.81,7.81v125.4a7.81,7.81,0,0,1-7.81,7.81H99.58a7.81,7.81,0,0,1-7.81-7.81V69.68a7.81,7.81,0,0,1,7.81-7.81H293.44m0-6H99.58A13.85,13.85,0,0,0,85.78,69.68v125.4a13.85,13.85,0,0,0,13.81,13.81H293.44a13.85,13.85,0,0,0,13.81-13.81V69.68a13.85,13.85,0,0,0-13.81-13.81Z"/><line class="cls-4" x1="85.78" y1="177.25" x2="307.24" y2="177.25"/><line class="cls-1" x1="173.07" y1="220.68" x2="173.07" y2="246.27"/><line class="cls-1" x1="219.95" y1="220.68" x2="219.95" y2="246.27"/><line class="cls-1" x1="124.03" y1="248" x2="268.99" y2="248"/><path class="cls-2" d="M374.46,313.58c-13.15,0-22.31-5.39-22.31-10.23s9.16-10.23,22.31-10.23,22.31,5.39,22.31,10.23S387.61,313.58,374.46,313.58Z"/><path class="cls-3" d="M374.46,296.12c12.54,0,19.31,5.13,19.31,7.23s-6.77,7.23-19.31,7.23-19.31-5.13-19.31-7.23,6.77-7.23,19.31-7.23m0-6c-14,0-25.31,5.92-25.31,13.23s11.33,13.23,25.31,13.23,25.31-5.92,25.31-13.23-11.33-13.23-25.31-13.23Z"/><path class="cls-2" d="M374.46,299.58c-13.15,0-22.31-5.39-22.31-10.23s9.16-10.23,22.31-10.23,22.31,5.39,22.31,10.23S387.61,299.58,374.46,299.58Z"/><path class="cls-3" d="M374.46,282.11c12.54,0,19.31,5.13,19.31,7.23s-6.77,7.23-19.31,7.23-19.31-5.13-19.31-7.23,6.77-7.23,19.31-7.23m0-6c-14,0-25.31,5.92-25.31,13.23s11.33,13.23,25.31,13.23,25.31-5.92,25.31-13.23-11.33-13.23-25.31-13.23Z"/><path class="cls-2" d="M374.46,285.57c-13.15,0-22.31-5.39-22.31-10.23s9.16-10.23,22.31-10.23,22.31,5.39,22.31,10.23S387.61,285.57,374.46,285.57Z"/><path class="cls-3" d="M374.46,268.11c12.54,0,19.31,5.13,19.31,7.23s-6.77,7.23-19.31,7.23-19.31-5.13-19.31-7.23,6.77-7.23,19.31-7.23m0-6c-14,0-25.31,5.92-25.31,13.23s11.33,13.23,25.31,13.23,25.31-5.92,25.31-13.23-11.33-13.23-25.31-13.23Z"/><path class="cls-2" d="M374.46,271.56c-13.15,0-22.31-5.39-22.31-10.23s9.16-10.23,22.31-10.23,22.31,5.39,22.31,10.23S387.61,271.56,374.46,271.56Z"/><path class="cls-3" d="M374.46,254.1c12.54,0,19.31,5.13,19.31,7.23s-6.77,7.23-19.31,7.23-19.31-5.13-19.31-7.23,6.77-7.23,19.31-7.23m0-6c-14,0-25.31,5.92-25.31,13.23s11.33,13.23,25.31,13.23,25.31-5.92,25.31-13.23-11.33-13.23-25.31-13.23Z"/><path class="cls-2" d="M311.06,313.58c-13.15,0-22.31-5.39-22.31-10.23s9.16-10.23,22.31-10.23,22.31,5.39,22.31,10.23S324.21,313.58,311.06,313.58Z"/><path class="cls-3" d="M311.06,296.12c12.54,0,19.31,5.13,19.31,7.23s-6.77,7.23-19.31,7.23-19.31-5.13-19.31-7.23,6.77-7.23,19.31-7.23m0-6c-14,0-25.31,5.92-25.31,13.23s11.33,13.23,25.31,13.23,25.31-5.92,25.31-13.23S325,290.12,311.06,290.12Z"/><path class="cls-2" d="M311.06,299.58c-13.15,0-22.31-5.39-22.31-10.23s9.16-10.23,22.31-10.23,22.31,5.39,22.31,10.23S324.21,299.58,311.06,299.58Z"/><path class="cls-3" d="M311.06,282.11c12.54,0,19.31,5.13,19.31,7.23s-6.77,7.23-19.31,7.23-19.31-5.13-19.31-7.23,6.77-7.23,19.31-7.23m0-6c-14,0-25.31,5.92-25.31,13.23s11.33,13.23,25.31,13.23,25.31-5.92,25.31-13.23S325,276.11,311.06,276.11Z"/><path class="cls-2" d="M311.06,285.57c-13.15,0-22.31-5.39-22.31-10.23s9.16-10.23,22.31-10.23,22.31,5.39,22.31,10.23S324.21,285.57,311.06,285.57Z"/><path class="cls-3" d="M311.06,268.11c12.54,0,19.31,5.13,19.31,7.23s-6.77,7.23-19.31,7.23-19.31-5.13-19.31-7.23,6.77-7.23,19.31-7.23m0-6c-14,0-25.31,5.92-25.31,13.23s11.33,13.23,25.31,13.23,25.31-5.92,25.31-13.23S325,262.11,311.06,262.11Z"/><path class="cls-2" d="M311.06,271.56c-13.15,0-22.31-5.39-22.31-10.23s9.16-10.23,22.31-10.23,22.31,5.39,22.31,10.23S324.21,271.56,311.06,271.56Z"/><path class="cls-3" d="M311.06,254.1c12.54,0,19.31,5.13,19.31,7.23s-6.77,7.23-19.31,7.23-19.31-5.13-19.31-7.23,6.77-7.23,19.31-7.23m0-6c-14,0-25.31,5.92-25.31,13.23s11.33,13.23,25.31,13.23,25.31-5.92,25.31-13.23S325,248.1,311.06,248.1Z"/><path class="cls-2" d="M374.46,257.55c-13.15,0-22.31-5.39-22.31-10.23s9.16-10.23,22.31-10.23,22.31,5.39,22.31,10.23S387.61,257.55,374.46,257.55Z"/><path class="cls-3" d="M374.46,240.09c12.54,0,19.31,5.13,19.31,7.23s-6.77,7.23-19.31,7.23-19.31-5.13-19.31-7.23,6.77-7.23,19.31-7.23m0-6c-14,0-25.31,5.92-25.31,13.23s11.33,13.23,25.31,13.23,25.31-5.92,25.31-13.23-11.33-13.23-25.31-13.23Z"/><path class="cls-2" d="M374.46,243.55c-13.15,0-22.31-5.39-22.31-10.23s9.16-10.23,22.31-10.23,22.31,5.39,22.31,10.23S387.61,243.55,374.46,243.55Z"/><path class="cls-3" d="M374.46,226.08c12.54,0,19.31,5.13,19.31,7.23s-6.77,7.23-19.31,7.23-19.31-5.13-19.31-7.23,6.77-7.23,19.31-7.23m0-6c-14,0-25.31,5.92-25.31,13.23s11.33,13.23,25.31,13.23,25.31-5.92,25.31-13.23-11.33-13.23-25.31-13.23Z"/><path class="cls-2" d="M31.1,308.58c-13.15,0-22.31-5.39-22.31-10.23S18,288.12,31.1,288.12s22.31,5.39,22.31,10.23S44.25,308.58,31.1,308.58Z"/><path class="cls-3" d="M31.1,291.12c12.54,0,19.31,5.13,19.31,7.23s-6.77,7.23-19.31,7.23-19.31-5.13-19.31-7.23,6.77-7.23,19.31-7.23m0-6c-14,0-25.31,5.92-25.31,13.23s11.33,13.23,25.31,13.23,25.31-5.92,25.31-13.23S45.08,285.12,31.1,285.12Z"/><path class="cls-2" d="M31.1,294.58c-13.15,0-22.31-5.39-22.31-10.23S18,274.11,31.1,274.11s22.31,5.39,22.31,10.23S44.25,294.58,31.1,294.58Z"/><path class="cls-3" d="M31.1,277.11c12.54,0,19.31,5.13,19.31,7.23s-6.77,7.23-19.31,7.23-19.31-5.13-19.31-7.23,6.77-7.23,19.31-7.23m0-6c-14,0-25.31,5.92-25.31,13.23s11.33,13.23,25.31,13.23,25.31-5.92,25.31-13.23S45.08,271.11,31.1,271.11Z"/><path class="cls-2" d="M31.1,280.57c-13.15,0-22.31-5.39-22.31-10.23S18,260.11,31.1,260.11s22.31,5.39,22.31,10.23S44.25,280.57,31.1,280.57Z"/><path class="cls-3" d="M31.1,263.11c12.54,0,19.31,5.13,19.31,7.23s-6.77,7.23-19.31,7.23-19.31-5.13-19.31-7.23,6.77-7.23,19.31-7.23m0-6c-14,0-25.31,5.92-25.31,13.23s11.33,13.23,25.31,13.23,25.31-5.92,25.31-13.23S45.08,257.11,31.1,257.11Z"/><path class="cls-2" d="M31.1,266.56c-13.15,0-22.31-5.39-22.31-10.23S18,246.1,31.1,246.1s22.31,5.39,22.31,10.23S44.25,266.56,31.1,266.56Z"/><path class="cls-3" d="M31.1,249.1c12.54,0,19.31,5.13,19.31,7.23s-6.77,7.23-19.31,7.23-19.31-5.13-19.31-7.23,6.77-7.23,19.31-7.23m0-6c-14,0-25.31,5.92-25.31,13.23s11.33,13.23,25.31,13.23,25.31-5.92,25.31-13.23S45.08,243.1,31.1,243.1Z"/><path class="cls-2" d="M31.1,252.55c-13.15,0-22.31-5.39-22.31-10.23S18,232.09,31.1,232.09s22.31,5.39,22.31,10.23S44.25,252.55,31.1,252.55Z"/><path class="cls-3" d="M31.1,235.09c12.54,0,19.31,5.13,19.31,7.23s-6.77,7.23-19.31,7.23-19.31-5.13-19.31-7.23,6.77-7.23,19.31-7.23m0-6c-14,0-25.31,5.92-25.31,13.23s11.33,13.23,25.31,13.23,25.31-5.92,25.31-13.23S45.08,229.09,31.1,229.09Z"/><path class="cls-2" d="M31.1,238.55c-13.15,0-22.31-5.39-22.31-10.23S18,218.08,31.1,218.08s22.31,5.39,22.31,10.23S44.25,238.55,31.1,238.55Z"/><path class="cls-3" d="M31.1,221.08c12.54,0,19.31,5.13,19.31,7.23s-6.77,7.23-19.31,7.23-19.31-5.13-19.31-7.23,6.77-7.23,19.31-7.23m0-6c-14,0-25.31,5.92-25.31,13.23s11.33,13.23,25.31,13.23,25.31-5.92,25.31-13.23S45.08,215.08,31.1,215.08Z"/><circle class="cls-3" cx="196.51" cy="191.38" r="5.26"/><path class="cls-5" d="M355.63,117.07c-.34-.16-.7-.3-1-.44-9-3.64-18.05-3.55-27.23-1q-20.21,5.54-36.12-8.07c-.48-.41-1-.73-1.68-1.17a9,9,0,0,0-.43,1.1c-2.43,11.36-4.89,22.73-7.21,34.11a3,3,0,0,0,1.1,2.57,57.54,57.54,0,0,0,9.89,5c8.09,2.7,16.28,2.08,24.44-.17,10.46-2.88,20.46-1.75,29.79,3.93,2.56,1.56,4.9,3.48,7.75,5.53l.68-3.2q2.85-13.37,5.7-26.74C363,120.57,363,120.57,355.63,117.07Z"/><path class="cls-5" d="M76.73,13.72c-.34-.16-.7-.3-1-.44-9-3.64-18.05-3.55-27.23-1Q28.25,17.77,12.34,4.17c-.48-.41-1-.73-1.68-1.17a9,9,0,0,0-.43,1.1C7.8,15.46,5.35,26.82,3,38.21a3,3,0,0,0,1.1,2.57,57.54,57.54,0,0,0,9.89,5c8.09,2.7,16.28,2.08,24.44-.17,10.46-2.88,20.46-1.75,29.79,3.93C70.81,51.08,73.15,53,76,55l.68-3.2q2.85-13.37,5.7-26.74C84.07,17.21,84.07,17.21,76.73,13.72Z"/></g></g></svg>