<svg xmlns="http://www.w3.org/2000/svg" viewBox="0 0 257.75 318.37"><defs><style>.cls-1,.cls-4{fill:#33d1b3;}.cls-2{fill:#fff;}.cls-3{fill:none;}.cls-3,.cls-4{stroke:#fff;stroke-linecap:round;stroke-linejoin:round;stroke-width:6px;}</style></defs><title>11Asset 2digital-left</title><g id="Layer_2" data-name="Layer 2"><g id="Layer_1-2" data-name="Layer 1"><path class="cls-1" d="M161,315.37c-23.32,0-43-9.64-43-21.06s19.7-21.06,43-21.06,43,9.64,43,21.06S184.34,315.37,161,315.37Z"/><path class="cls-2" d="M161,276.26c11.34,0,21.91,2.26,29.76,6.36C197.3,286,201,290.29,201,294.32S197.3,302.6,190.78,306c-7.85,4.1-18.42,6.36-29.76,6.36s-21.91-2.26-29.76-6.36c-6.52-3.41-10.26-7.67-10.26-11.69s3.74-8.29,10.26-11.69c7.85-4.1,18.42-6.36,29.76-6.36m0-6c-25.42,0-46,10.77-46,24.06s20.6,24.06,46,24.06,46-10.77,46-24.06-20.6-24.06-46-24.06Z"/><path class="cls-1" d="M161,289.91c-23.32,0-43-9.64-43-21.06s19.7-21.06,43-21.06,43,9.64,43,21.06S184.34,289.91,161,289.91Z"/><path class="cls-2" d="M161,250.79c11.34,0,21.91,2.26,29.76,6.36,6.52,3.41,10.26,7.67,10.26,11.69s-3.74,8.29-10.26,11.69c-7.85,4.1-18.42,6.36-29.76,6.36s-21.91-2.26-29.76-6.36c-6.52-3.41-10.26-7.67-10.26-11.69s3.74-8.29,10.26-11.69c7.85-4.1,18.42-6.36,29.76-6.36m0-6c-25.42,0-46,10.77-46,24.06s20.6,24.06,46,24.06,46-10.77,46-24.06-20.6-24.06-46-24.06Z"/><path class="cls-1" d="M161,264.44c-23.32,0-43-9.64-43-21.06s19.7-21.06,43-21.06,43,9.64,43,21.06S184.34,264.44,161,264.44Z"/><path class="cls-2" d="M161,225.32c11.34,0,21.91,2.26,29.76,6.36,6.52,3.41,10.26,7.67,10.26,11.69s-3.74,8.29-10.26,11.69c-7.85,4.1-18.42,6.36-29.76,6.36s-21.91-2.26-29.76-6.36c-6.52-3.41-10.26-7.67-10.26-11.69s3.74-8.29,10.26-11.69c7.85-4.1,18.42-6.36,29.76-6.36m0-6c-25.42,0-46,10.77-46,24.06s20.6,24.06,46,24.06,46-10.77,46-24.06-20.6-24.06-46-24.06Z"/><path class="cls-1" d="M161,239c-23.32,0-43-9.64-43-21.06s19.7-21.06,43-21.06,43,9.64,43,21.06S184.34,239,161,239Z"/><path class="cls-2" d="M161,199.86c11.34,0,21.91,2.26,29.76,6.36,6.52,3.41,10.26,7.67,10.26,11.69s-3.74,8.29-10.26,11.69c-7.85,4.1-18.42,6.36-29.76,6.36s-21.91-2.26-29.76-6.36c-6.52-3.41-10.26-7.67-10.26-11.69s3.74-8.29,10.26-11.69c7.85-4.1,18.42-6.36,29.76-6.36m0-6c-25.42,0-46,10.77-46,24.06S135.6,242,161,242s46-10.77,46-24.06-20.6-24.06-46-24.06Z"/><path class="cls-1" d="M161,213.5c-23.32,0-43-9.64-43-21.06s19.7-21.06,43-21.06,43,9.64,43,21.06S184.34,213.5,161,213.5Z"/><path class="cls-2" d="M161,174.39c11.34,0,21.91,2.26,29.76,6.36,6.52,3.41,10.26,7.67,10.26,11.69s-3.74,8.29-10.26,11.69c-7.85,4.1-18.42,6.36-29.76,6.36s-21.91-2.26-29.76-6.36c-6.52-3.41-10.26-7.67-10.26-11.69s3.74-8.29,10.26-11.69c7.85-4.1,18.42-6.36,29.76-6.36m0-6c-25.42,0-46,10.77-46,24.06s20.6,24.06,46,24.06,46-10.77,46-24.06-20.6-24.06-46-24.06Z"/><path class="cls-1" d="M161,188c-23.32,0-43-9.64-43-21.06s19.7-21.06,43-21.06,43,9.64,43,21.06S184.34,188,161,188Z"/><path class="cls-2" d="M161,148.92c11.34,0,21.91,2.26,29.76,6.36C197.3,158.69,201,163,201,167s-3.74,8.29-10.26,11.69c-7.85,4.1-18.42,6.36-29.76,6.36s-21.91-2.26-29.76-6.36C124.74,175.26,121,171,121,167s3.74-8.29,10.26-11.69c7.85-4.1,18.42-6.36,29.76-6.36m0-6c-25.42,0-46,10.77-46,24.06S135.6,191,161,191s46-10.77,46-24.06-20.6-24.06-46-24.06Z"/><path class="cls-1" d="M46,314.3c-23.32,0-43-9.64-43-21.06s19.7-21.06,43-21.06,43,9.64,43,21.06S69.34,314.3,46,314.3Z"/><path class="cls-2" d="M46,275.19c11.34,0,21.91,2.26,29.76,6.36C82.3,285,86,289.22,86,293.25s-3.74,8.29-10.26,11.69C67.93,309,57.36,311.3,46,311.3S24.11,309,16.26,304.94C9.74,301.53,6,297.27,6,293.25S9.74,285,16.26,281.55c7.85-4.1,18.42-6.36,29.76-6.36m0-6C20.6,269.19,0,280,0,293.25S20.6,317.3,46,317.3s46-10.77,46-24.06-20.6-24.06-46-24.06Z"/><path class="cls-1" d="M46,288.83c-23.32,0-43-9.64-43-21.06s19.7-21.06,43-21.06,43,9.64,43,21.06S69.34,288.83,46,288.83Z"/><path class="cls-2" d="M46,249.72c11.34,0,21.91,2.26,29.76,6.36C82.3,259.49,86,263.76,86,267.78s-3.74,8.29-10.26,11.69c-7.85,4.1-18.42,6.36-29.76,6.36s-21.91-2.26-29.76-6.36C9.74,276.06,6,271.8,6,267.78s3.74-8.29,10.26-11.69c7.85-4.1,18.42-6.36,29.76-6.36m0-6c-25.42,0-46,10.77-46,24.06s20.6,24.06,46,24.06,46-10.77,46-24.06-20.6-24.06-46-24.06Z"/><path class="cls-1" d="M46,263.37c-23.32,0-43-9.64-43-21.06s19.7-21.06,43-21.06,43,9.64,43,21.06S69.34,263.37,46,263.37Z"/><path class="cls-2" d="M46,224.25c11.34,0,21.91,2.26,29.76,6.36C82.3,234,86,238.29,86,242.31S82.3,250.6,75.78,254c-7.85,4.1-18.42,6.36-29.76,6.36S24.11,258.11,16.26,254C9.74,250.6,6,246.33,6,242.31S9.74,234,16.26,230.62c7.85-4.1,18.42-6.36,29.76-6.36m0-6C20.6,218.25,0,229,0,242.31s20.6,24.06,46,24.06,46-10.77,46-24.06-20.6-24.06-46-24.06Z"/><path class="cls-3" d="M228.41,15.11c-.45.06-.91.15-1.36.23-11.51,2.16-20.72,8.22-28.43,16.8q-17,18.89-42.1,15.46c-.76-.1-1.53-.06-2.47-.09a10.87,10.87,0,0,0,.28,1.4c5,13.18,9.92,26.36,15,39.49a3.66,3.66,0,0,0,2.8,1.9c4.47-.24,9-.32,13.34-1.42,10-2.55,18-8.56,24.79-16.19,8.77-9.79,19.71-15.2,32.94-15.52,3.63-.09,7.28.33,11.52.55L253.35,54q-5.86-15.5-11.72-31C238.18,13.87,238.18,13.86,228.41,15.11Z"/><path class="cls-4" d="M192.23,3.58c-.45.06-.91.15-1.36.23C179.37,6,170.15,12,162.45,20.61q-17,18.89-42.1,15.46c-.76-.1-1.53-.06-2.47-.09a10.87,10.87,0,0,0,.28,1.4c5,13.18,9.92,26.36,15,39.49a3.66,3.66,0,0,0,2.8,1.9c4.47-.24,9-.32,13.34-1.42,10-2.55,18-8.56,24.79-16.19,8.77-9.79,19.71-15.2,32.94-15.52,3.63-.09,7.28.33,11.52.55l-1.4-3.71q-5.86-15.5-11.72-31C202,2.34,202,2.33,192.23,3.58Z"/></g></g></svg>