<svg xmlns="http://www.w3.org/2000/svg" viewBox="0 0 365.36 297.05"><defs><style>.cls-1{fill:#3c9940;}.cls-2{fill:#7dea84;}.cls-3{fill:#ffd580;}.cls-4{fill:#f9cb64;}</style></defs><title>11Asset 1flat-currency-main</title><g id="Layer_2" data-name="Layer 2"><g id="Layer_1-2" data-name="Layer 1"><path class="cls-1" d="M228.12,217.49c-3.33-3.84-6-7.33-9.07-10.39-11.24-11.14-25-16.08-40.67-15.53-12.24.43-24-1.44-34.49-8-4.5-2.8-8.37-6.68-12.28-10.33a4.37,4.37,0,0,1-.69-4c7.09-15.27,14.36-30.46,21.6-45.66a13.07,13.07,0,0,1,1-1.4c.75.84,1.43,1.47,2,2.21q17.89,24.5,48.2,23.48c13.78-.47,26.64,2.46,38,10.59.45.32.9.63,1.33,1,9.17,7.39,9.17,7.39,4.14,17.94q-8.51,17.89-17,35.78Zm-6.69-15.15c2.3-2.05,5-3.08,8.34-2a2.34,2.34,0,0,0,2-1c3.76-7.7,7.41-15.45,11.05-23.12-5.7-5.79-5.8-6.26-2.51-13.75-3.94-2.09-7.81-4.55-12-6.28-7.83-3.25-16.16-4.06-24.58-3.79-11.57.37-22.56-1.79-32.6-7.71-3.84-2.26-7.36-5.05-9.73-6.7-4,.27-6.87.33-9.64.71a3.54,3.54,0,0,0-2.27,1.75c-3.35,6.81-6.53,13.71-9.87,20.53-.84,1.71-.62,2.59,1,3.76,2.95,2.13,3.56,5.54,2,8.83-.45,1-.92,1.94-1.67,3.53,4,2.11,7.87,4.48,12,6.2,8.37,3.5,17.24,4.12,26.21,3.87,10.42-.28,20.38,1.69,29.49,6.87C212.93,196.45,216.92,199.38,221.43,202.34Z"/><polygon class="cls-1" points="134.53 171.72 145.29 142.94 153.34 132.14 168.06 139.14 186.75 148.02 215.68 151.29 237.69 158.82 247.77 170.44 228.77 210.41 207.01 195.68 183.83 189.05 151.65 185.46 134.53 171.72"/><path class="cls-1" d="M106.67,32.24c-3.46.41-6.47.57-9.4,1.15-10.66,2.09-18.76,8-24.5,17.12C68.29,57.63,62.7,63.59,55,67a57.26,57.26,0,0,1-10.6,3,3,3,0,0,1-2.53-1.15C35.87,59,30,49,24.2,39a9,9,0,0,1-.42-1.09c.77-.1,1.39-.24,2-.27q20.82-.72,31.92-18.34c5-8,11.66-14.19,20.68-17.53.35-.13.71-.27,1.07-.38C87.19-.94,87.18-.94,91.25,6L105,29.44Zm-11.19-2a5.55,5.55,0,0,1,2.08-5.51,1.61,1.61,0,0,0,.18-1.53C94.81,18.07,91.82,13,88.87,8c-5.49,1-5.79.88-8.78-3.88C77.38,5.54,74.49,6.79,71.9,8.5A40.13,40.13,0,0,0,60.27,21,40.53,40.53,0,0,1,43.32,36.56c-2.76,1.31-5.71,2.24-7.55,2.95-1.41,2.4-2.46,4-3.31,5.75a2.43,2.43,0,0,0,.12,2c2.58,4.53,5.27,9,7.86,13.52.65,1.13,1.23,1.35,2.52.88a4.66,4.66,0,0,1,5.8,2.25c.38.63.75,1.27,1.36,2.31,2.76-1.48,5.58-2.75,8.14-4.42,5.21-3.4,9-8.21,12.3-13.4A38.08,38.08,0,0,1,85.83,34.25C88.86,32.76,92.06,31.63,95.48,30.2Z"/><polygon class="cls-1" points="87.51 2.94 77.02 4.19 64.25 13.79 51.25 28.97 39 36.17 29.35 41.83 32.38 50.57 44.59 67.78 58.99 63.35 73.44 46.45 86.14 35.83 102.9 29.14 87.51 2.94"/><path class="cls-1" d="M299.36,52.74c2.31-1.14,4.36-2,6.25-3.13a26.77,26.77,0,0,0,12.8-18c1.35-6.06,3.76-11.59,8.29-15.91A42.27,42.27,0,0,1,333.33,11a2.22,2.22,0,0,1,2,.17C342,16.61,348.49,22.11,355,27.59a6.62,6.62,0,0,1,.56.65c-.51.26-.91.51-1.34.68Q340,34.59,336.6,49.59c-1.53,6.82-4.6,12.75-10,17.31-.21.18-.42.36-.65.53-4.79,3.56-4.79,3.56-9.33-.25L301.2,54.28Zm8.28-1.35a4.09,4.09,0,0,1-.08,4.34,1.19,1.19,0,0,0,.26,1.11c3.3,2.82,6.64,5.6,9.93,8.37,3.56-2.06,3.81-2,7.07.52,1.53-1.67,3.22-3.25,4.61-5.08a29.62,29.62,0,0,0,5-11.58,29.92,29.92,0,0,1,7.93-15c1.6-1.59,3.41-3,4.52-3.92.38-2,.71-3.41.88-4.82a1.8,1.8,0,0,0-.57-1.34c-2.92-2.51-5.9-4.95-8.82-7.46a1.26,1.26,0,0,0-2,0,3.44,3.44,0,0,1-4.59-.13l-1.52-1.27c-1.55,1.71-3.2,3.29-4.57,5.09-2.78,3.66-4.21,7.93-5.24,12.37a28.11,28.11,0,0,1-7.12,13.6C311.61,48,309.67,49.55,307.64,51.38Z"/><polygon class="cls-1" points="333.72 12.65 346.47 21.59 350.75 26.92 345.44 33.25 338.7 41.29 333.42 55.06 326.92 64.9 319.94 68.37 302.75 53.96 312.74 45.16 318.94 34.63 324.8 19.3 333.72 12.65"/><path class="cls-1" d="M45.09,293.28c-.64-2.49-1.06-4.68-1.77-6.76a26.77,26.77,0,0,0-14.94-16.24c-5.65-2.57-10.56-6.07-13.85-11.41a42.27,42.27,0,0,1-3.24-7.46,2.22,2.22,0,0,1,.59-2c6.67-5.32,13.4-10.57,20.12-15.83a6.62,6.62,0,0,1,.76-.42c.15.55.32,1,.39,1.45q2.58,15.16,16.56,21.55c6.36,2.9,11.53,7.14,14.86,13.4.13.25.26.49.38.74,2.49,5.43,2.49,5.42-2.17,9.08L47,291.8Zm.39-8.38a4.09,4.09,0,0,1,4.23,1,1.19,1.19,0,0,0,1.14,0c3.45-2.64,6.86-5.34,10.24-8-1.28-3.91-1.22-4.15,2-6.81-1.31-1.84-2.52-3.83-4-5.56a29.62,29.62,0,0,0-10.29-7.28,29.92,29.92,0,0,1-13-10.86c-1.23-1.89-2.2-4-2.9-5.24-1.9-.79-3.19-1.4-4.53-1.86a1.8,1.8,0,0,0-1.43.28c-3.06,2.33-6.06,4.74-9.12,7.08-.77.59-.87,1-.4,1.93A3.44,3.44,0,0,1,16.24,254l-1.56,1.22c1.35,1.87,2.56,3.81,4,5.52,3,3.48,6.89,5.76,11,7.68a28.11,28.11,0,0,1,11.83,9.78C42.95,280.3,44.1,282.53,45.47,284.89Z"/><polygon class="cls-1" points="12.97 251.36 24.35 240.74 30.45 237.66 35.55 244.16 42.02 252.41 54.4 260.43 62.69 268.82 64.64 276.37 46.98 290.21 40.44 278.61 31.42 270.37 17.63 261.46 12.97 251.36"/><path class="cls-1" d="M336,297.05c-1.6-3.1-2.81-5.86-4.38-8.4-5.7-9.25-14.07-14.76-24.64-16.92-8.24-1.69-15.78-4.83-21.74-10.87a57.26,57.26,0,0,1-6.53-8.87,3,3,0,0,1,.18-2.77c7.2-9,14.5-18,21.78-27a9,9,0,0,1,.87-.78c.37.68.72,1.21,1,1.79q8,19.24,28.38,23.45c9.27,1.91,17.38,5.94,23.68,13.2.25.28.5.57.73.87,4.93,6.41,4.93,6.41-.13,12.64L338,294.53Zm-2-11.19a5.55,5.55,0,0,1,5.89,0,1.61,1.61,0,0,0,1.49-.37c3.75-4.53,7.44-9.12,11.1-13.65-2.87-4.78-2.86-5.11.54-9.58-2.29-2-4.48-4.29-7-6.12a40.13,40.13,0,0,0-15.79-6.5,40.53,40.53,0,0,1-20.52-10.4c-2.2-2.13-4.1-4.56-5.41-6-2.75-.47-4.64-.89-6.55-1.08a2.43,2.43,0,0,0-1.8.8c-3.34,4-6.57,8.1-9.9,12.11-.83,1-.83,1.63.06,2.67A4.66,4.66,0,0,1,286,254L284.33,256c2.35,2.06,4.53,4.26,7,6.07,5,3.69,10.84,5.53,16.87,6.81a38.08,38.08,0,0,1,18.58,9.34C329.23,280.56,331.42,283.16,334,285.87Z"/><polygon class="cls-1" points="280.9 251.41 292.71 233.94 299.83 228.03 308.52 235.07 319.57 244.02 338.35 250.86 351.82 259.44 356.68 268.82 337.56 292.44 325.4 279.09 311 270.93 290.1 263.35 280.9 251.41"/><path class="cls-2" d="M223.63,192.63c-3.28-3.88-5.89-7.41-8.93-10.51-11.09-11.29-24.75-16.41-40.46-16.07-12.25.27-24-1.75-34.39-8.42-4.46-2.86-8.28-6.79-12.14-10.49a4.37,4.37,0,0,1-.64-4c7.29-15.17,14.76-30.26,22.2-45.37a13.07,13.07,0,0,1,1-1.39c.74.85,1.41,1.49,1.94,2.24q17.56,24.73,47.88,24.12c13.79-.28,26.6,2.81,37.89,11.09.44.32.89.64,1.31,1,9.07,7.51,9.07,7.51,3.91,18q-8.75,17.77-17.48,35.55Zm-6.49-15.23c2.33-2,5.06-3,8.36-1.88a2.34,2.34,0,0,0,2-1c3.86-7.65,7.62-15.35,11.36-23-5.62-5.86-5.71-6.34-2.33-13.79-3.91-2.14-7.75-4.65-11.9-6.44-7.79-3.35-16.1-4.28-24.53-4.12-11.58.22-22.54-2.09-32.49-8.14-3.81-2.31-7.3-5.15-9.64-6.82-4.05.21-6.87.24-9.65.58a3.54,3.54,0,0,0-2.29,1.72c-3.44,6.77-6.71,13.62-10.14,20.4-.86,1.7-.65,2.58.95,3.77,2.92,2.17,3.48,5.59,1.91,8.86-.47,1-.95,1.93-1.72,3.5,4,2.17,7.81,4.59,11.9,6.36,8.32,3.61,17.18,4.35,26.16,4.22,10.42-.15,20.35,2,29.4,7.26C208.72,171.39,212.67,174.37,217.14,177.39Z"/><polygon class="cls-2" points="130.66 145.62 141.79 116.98 149.99 106.29 164.61 113.48 183.19 122.61 212.06 126.26 233.98 134.09 243.9 145.84 224.38 185.56 202.81 170.54 179.72 163.6 147.59 159.58 130.66 145.62"/><ellipse class="cls-1" cx="184.26" cy="143.59" rx="15.47" ry="24.21" transform="translate(2.09 289.82) rotate(-76.68)"/><circle class="cls-3" cx="343.36" cy="122.23" r="22" transform="translate(-15.04 55.98) rotate(-9.12)"/><circle class="cls-4" cx="343.36" cy="122.23" r="16.73" transform="translate(-15.04 55.98) rotate(-9.12)"/><circle class="cls-3" cx="15.26" cy="103.58" r="15.26" transform="translate(-16.23 3.73) rotate(-9.12)"/><circle class="cls-4" cx="15.26" cy="103.58" r="11.6" transform="translate(-16.23 3.73) rotate(-9.12)"/><circle class="cls-3" cx="89.88" cy="221.44" r="11.66" transform="translate(-33.97 17.05) rotate(-9.12)"/><circle class="cls-4" cx="89.88" cy="221.44" r="8.86" transform="translate(-33.97 17.05) rotate(-9.12)"/></g></g></svg>