<svg xmlns="http://www.w3.org/2000/svg" xmlns:xlink="http://www.w3.org/1999/xlink" viewBox="0 0 296.07 313.64"><defs><style>.cls-1{fill:url(#linear-gradient);}.cls-2{fill:url(#linear-gradient-2);}.cls-3{fill:url(#linear-gradient-3);}.cls-4{fill:#ffd580;}.cls-5{fill:#f9cb64;}</style><linearGradient id="linear-gradient" x1="224.27" y1="-1700.04" x2="224.27" y2="-1850.3" gradientTransform="translate(244.07 -1606.04) rotate(180)" gradientUnits="userSpaceOnUse"><stop offset="0" stop-color="#6a7fa5"/><stop offset="1" stop-color="#87aec1"/></linearGradient><linearGradient id="linear-gradient-2" x1="-32.19" y1="-1700.04" x2="-32.19" y2="-1850.3" xlink:href="#linear-gradient"/><linearGradient id="linear-gradient-3" x1="148.04" y1="285.33" x2="148.04" y2="55.05" gradientTransform="matrix(1, 0, 0, 1, 0, 0)" xlink:href="#linear-gradient"/></defs><title>11Asset 1fork-main</title><g id="Layer_2" data-name="Layer 2"><g id="Layer_1-2" data-name="Layer 1"><path class="cls-1" d="M0,217.82C0,211,0,204.16,0,197.32c.07-7.17,3.13-12.48,9.9-15.35a5.12,5.12,0,0,0,3.5-5.58c-1-12.8-1.87-25.61-2.79-38.42-.76-10.59-1.54-21.18-2.26-31.77-.28-4.17.6-8,4.43-10.32a12.63,12.63,0,0,1,12.76-.29c4,2,5.33,5.72,5.12,9.94-.3,6.08-.79,12.16-1.22,18.23Q27.62,149.87,25.75,176c-.24,3.48.6,4.73,3.86,6,6.43,2.48,9.73,7.41,9.85,14,.26,14.65.11,29.31.08,44a4,4,0,0,1-4.09,4.29c-2.22-.08-3.78-1.74-3.78-4.32,0-10.87,0-21.74,0-32.61,0-.74,0-1.48,0-2.22-.11-2.64-1.75-4.37-4.07-4.31s-3.78,1.73-3.8,4.29c0,4.78,0,9.55,0,14.33q0,10.25,0,20.5a3.91,3.91,0,0,1-3.08,4.21,3.5,3.5,0,0,1-4.31-2,7.74,7.74,0,0,1-.5-3.11c0-10.7,0-21.41,0-32.11a21.62,21.62,0,0,0,0-2.47,3.93,3.93,0,0,0-4-3.63A3.87,3.87,0,0,0,8,204.54c-.11,1.89,0,3.79,0,5.68q0,14.7,0,29.4c0,1.89-.48,3.63-2.36,4.17a4.85,4.85,0,0,1-3.84-.42,5.54,5.54,0,0,1-1.65-3.8C-.06,232.32,0,225.07,0,217.82Z"/><path class="cls-2" d="M256.49,217.82c0-6.83-.05-13.67,0-20.5.07-7.17,3.13-12.48,9.9-15.35a5.12,5.12,0,0,0,3.5-5.58c-1-12.8-1.87-25.61-2.79-38.42-.76-10.59-1.54-21.18-2.26-31.77-.28-4.17.6-8,4.43-10.32A12.63,12.63,0,0,1,282,95.59c4,2,5.33,5.72,5.12,9.94-.3,6.08-.79,12.16-1.22,18.23q-1.86,26.11-3.73,52.22c-.24,3.48.6,4.73,3.86,6,6.43,2.48,9.73,7.41,9.85,14,.26,14.65.11,29.31.08,44a4,4,0,0,1-4.09,4.29c-2.22-.08-3.78-1.74-3.78-4.32,0-10.87,0-21.74,0-32.61,0-.74,0-1.48,0-2.22-.11-2.64-1.75-4.37-4.07-4.31s-3.78,1.73-3.8,4.29c0,4.78,0,9.55,0,14.33q0,10.25,0,20.5a3.91,3.91,0,0,1-3.08,4.21,3.5,3.5,0,0,1-4.31-2,7.74,7.74,0,0,1-.5-3.11c0-10.7,0-21.41,0-32.11a21.62,21.62,0,0,0,0-2.47,3.93,3.93,0,0,0-4-3.63,3.87,3.87,0,0,0-3.84,3.75c-.11,1.89,0,3.79,0,5.68q0,14.7,0,29.4c0,1.89-.48,3.63-2.36,4.17a4.85,4.85,0,0,1-3.84-.42,5.54,5.54,0,0,1-1.65-3.8c-.15-7.24-.07-14.49-.07-21.74Z"/><path class="cls-3" d="M178.34,95.57c0,10.47.08,20.95,0,31.42-.11,11-4.8,19.12-15.18,23.52-3.79,1.61-5.68,4.27-5.36,8.55,1.48,19.62,2.86,39.25,4.27,58.88,1.17,16.23,2.36,32.46,3.47,48.69.44,6.38-.93,12.28-6.78,15.81-6.29,3.79-13.11,3.72-19.55.45-6.06-3.08-8.16-8.76-7.85-15.24.46-9.32,1.2-18.63,1.87-27.94q2.85-40,5.72-80c.37-5.34-.92-7.24-5.92-9.18-9.86-3.81-14.92-11.36-15.1-21.5-.39-22.45-.17-44.92-.13-67.38,0-4,2.73-6.69,6.27-6.57s5.79,2.67,5.8,6.62c.06,16.66,0,33.31,0,50,0,1.14,0,2.27,0,3.41.16,4.05,2.67,6.7,6.24,6.61s5.79-2.65,5.83-6.57c.07-7.32,0-14.64,0-22q0-15.71,0-31.42c0-3.31,1.5-5.66,4.72-6.46a5.36,5.36,0,0,1,6.61,3.09,11.86,11.86,0,0,1,.76,4.76c.05,16.4,0,32.81,0,49.21a33.14,33.14,0,0,0,.07,3.78,6,6,0,0,0,6.09,5.57,5.94,5.94,0,0,0,5.89-5.75c.17-2.89.06-5.8.06-8.7q0-22.52,0-45c0-2.89.73-5.56,3.61-6.39,1.82-.52,4.58-.43,5.89.64a8.5,8.5,0,0,1,2.53,5.83c.24,11.1.11,22.21.11,33.31Z"/><circle class="cls-4" cx="216.92" cy="291.64" r="22" transform="translate(-43.49 38.08) rotate(-9.12)"/><circle class="cls-5" cx="216.92" cy="291.64" r="16.73" transform="translate(-43.49 38.08) rotate(-9.12)"/><circle class="cls-4" cx="148.04" cy="22" r="22" transform="translate(-1.62 23.75) rotate(-9.12)"/><circle class="cls-5" cx="148.04" cy="22" r="16.73" transform="translate(-1.62 23.75) rotate(-9.12)"/><circle class="cls-4" cx="78.95" cy="291.64" r="22" transform="translate(-45.24 16.21) rotate(-9.12)"/><circle class="cls-5" cx="78.95" cy="291.64" r="16.73" transform="translate(-45.24 16.21) rotate(-9.12)"/></g></g></svg>