<svg xmlns="http://www.w3.org/2000/svg" xmlns:xlink="http://www.w3.org/1999/xlink" viewBox="0 0 210 301.08"><defs><style>.cls-1{fill:url(#linear-gradient);}.cls-2{fill:url(#linear-gradient-2);}.cls-3{fill:#ffd580;}.cls-4{fill:#f9cb64;}</style><linearGradient id="linear-gradient" x1="834.92" y1="487.88" x2="834.92" y2="370.29" gradientTransform="translate(1029.42 512.35) rotate(180)" gradientUnits="userSpaceOnUse"><stop offset="0" stop-color="#6a7fa5"/><stop offset="1" stop-color="#87aec1"/></linearGradient><linearGradient id="linear-gradient-2" x1="28.71" y1="301.08" x2="28.71" y2="83.27" gradientTransform="matrix(1, 0, 0, 1, 0, 0)" xlink:href="#linear-gradient"/></defs><title>11Asset 2forks-left</title><g id="Layer_2" data-name="Layer 2"><g id="Layer_1-2" data-name="Layer 1"><path class="cls-1" d="M179,121.37c0-5.35,0-10.7,0-16,.05-5.61,2.45-9.76,7.75-12a4,4,0,0,0,2.74-4.37c-.75-10-1.46-20-2.18-30.07-.6-8.29-1.21-16.58-1.77-24.87-.22-3.26.47-6.27,3.46-8.07a9.89,9.89,0,0,1,10-.23c3.09,1.57,4.17,4.47,4,7.78-.23,4.76-.61,9.51-1,14.27q-1.46,20.43-2.92,40.86c-.19,2.73.47,3.7,3,4.69a11.26,11.26,0,0,1,7.71,11c.2,11.47.09,22.94.07,34.41a3.09,3.09,0,1,1-6.17,0c0-8.51,0-17,0-25.52,0-.58,0-1.16,0-1.74-.08-2.07-1.37-3.42-3.19-3.37a3.07,3.07,0,0,0-3,3.36c0,3.74,0,7.47,0,11.21q0,8,0,16a3.06,3.06,0,0,1-2.41,3.3,2.74,2.74,0,0,1-3.37-1.58,6.06,6.06,0,0,1-.39-2.43c0-8.38,0-16.75,0-25.13a16.92,16.92,0,0,0,0-1.93,3.08,3.08,0,0,0-3.11-2.84,3,3,0,0,0-3,2.93c-.09,1.48,0,3,0,4.45q0,11.5,0,23c0,1.48-.37,2.84-1.84,3.26a3.8,3.8,0,0,1-3-.33,4.34,4.34,0,0,1-1.29-3c-.12-5.67-.06-11.34-.06-17Z"/><path class="cls-2" d="M57.38,121.59c0,9.91.08,19.81,0,29.72-.1,10.39-4.54,18.09-14.36,22.25-3.58,1.52-5.37,4-5.07,8.09,1.4,18.56,2.71,37.13,4,55.69,1.1,15.35,2.23,30.7,3.28,46.06.41,6-.88,11.62-6.42,15-5.95,3.58-12.4,3.52-18.5.42-5.73-2.92-7.72-8.29-7.42-14.41.43-8.82,1.14-17.62,1.77-26.43q2.7-37.85,5.41-75.69c.35-5-.87-6.85-5.6-8.68C5.17,170,.39,162.83.22,153.23-.15,132,.05,110.74.1,89.5c0-3.8,2.59-6.33,5.93-6.21s5.47,2.53,5.49,6.26c.05,15.76,0,31.51,0,47.27,0,1.07,0,2.15,0,3.22.15,3.83,2.53,6.33,5.9,6.25s5.48-2.51,5.51-6.22c.07-6.92,0-13.85,0-20.77q0-14.86,0-29.72c0-3.13,1.42-5.35,4.46-6.11a5.07,5.07,0,0,1,6.25,2.92,11.22,11.22,0,0,1,.72,4.5c0,15.52,0,31,0,46.55a31.34,31.34,0,0,0,.07,3.58,5.7,5.7,0,0,0,5.76,5.27,5.62,5.62,0,0,0,5.57-5.43c.16-2.74.05-5.49.05-8.23q0-21.31,0-42.61c0-2.74.69-5.26,3.42-6,1.72-.49,4.33-.4,5.57.61a8,8,0,0,1,2.39,5.51c.22,10.5.11,21,.11,31.51Z"/><circle class="cls-3" cx="28.71" cy="20.81" r="20.81" transform="translate(-2.94 4.82) rotate(-9.12)"/><circle class="cls-4" cx="28.71" cy="20.81" r="15.82" transform="translate(-2.94 4.82) rotate(-9.12)"/></g></g></svg>