<svg xmlns="http://www.w3.org/2000/svg" viewBox="0 0 309.73 309.75"><defs><style>.cls-1{fill:#c5d2ff;}</style></defs><title>11Asset 1history-main</title><g id="Layer_2" data-name="Layer 2"><g id="Layer_1-2" data-name="Layer 1"><circle class="cls-1" cx="212.99" cy="180.85" r="6.89"/><circle class="cls-1" cx="211.42" cy="251.88" r="6.56"/><path class="cls-1" d="M89.74,0H276.93c3.23,0,10,1.13,11.79,2.11a32.16,32.16,0,0,1,21,32.1c-.91,16.49-15.5,30.51-31.26,30.17-4-.09-6.83-1.6-7.23-5.68s1.93-6.35,5.94-6.93c1.59-.23,3.2-.42,4.76-.79,9.59-2.26,15.49-10.57,14.7-20.65a18.8,18.8,0,0,0-17.31-17.17c-10.24-.64-18.44,5.18-20.51,14.82a40.26,40.26,0,0,0-.67,8.39q-.05,115.47,0,230.94c0,26.76-15.79,42.42-42.46,42.43q-89.78,0-179.56,0a50.44,50.44,0,0,1-9.62-.61C12,306.28,4.06,296.62,0,283.13V271a11.67,11.67,0,0,0,1.15-2C6.38,253.64,17,245.73,33.1,245.3c3.63-.1,7.26,0,10.89,0,7.67,0,7.68,0,7.68-8q0-65,0-130c0-23.59-.24-47.18.28-70.75.32-14.46,7.89-25.09,20.5-32A34.46,34.46,0,0,1,89.74,0ZM251.21,13.5a42.71,42.71,0,0,0-4.34-.53c-51.81,0-103.62-.13-155.43.06C74.84,13.09,64.52,24,64.51,40.64c0,65.92.06,131.84-.15,197.76,0,5.67,1.66,7,7.11,7,45.36-.21,90.71-.12,136.07-.11,2.21,0,5.13-.13,6.82.85a7,7,0,0,1,3.58,5.44c.07,2-1.42,4.58-3.42,6-1.62,1.16-4.29.73-6.44,1.26a19.21,19.21,0,0,0-14.49,18.58c0,8.63,6.1,17.16,14.38,18.69,24.81,4.59,37.5-9.37,37.41-28.73-.33-74.18-.14-148.37-.12-222.55C245.27,34.23,244.06,23.41,251.21,13.5ZM186.88,258.08H142.14q-54.12,0-108.25,0c-12.67,0-21.13,8.3-20.83,20,.29,11.48,8.65,18.62,22.17,18.63q72.87.07,145.74,0c1.66,0,3.32-.3,5.52-.51C178.85,283.51,178.84,271.29,186.88,258.08Z"/><path class="cls-1" d="M116.16,64.42c-7.86,0-15.72-.1-23.57,0-4.57.08-8.43-1.08-8.54-6.23s3.58-6.55,8.23-6.52q23.88.12,47.75,0c4.67,0,8.33,1.42,8.24,6.52s-4,6.3-8.54,6.23C131.88,64.34,124,64.42,116.16,64.42Z"/><path class="cls-1" d="M116.16,123.84c-7.86,0-15.72-.1-23.57,0-4.57.08-8.43-1.08-8.54-6.23s3.58-6.55,8.23-6.52c15.92.08,103.44.09,119.36,0,4.67,0,8.33,1.42,8.24,6.52s-4,6.3-8.54,6.23C203.48,123.75,124,123.84,116.16,123.84Z"/><path class="cls-1" d="M116.16,187.2c-7.86,0-15.72-.1-23.57,0-4.57.08-8.43-1.08-8.54-6.23s3.58-6.55,8.23-6.52c15.92.08,70.45.09,86.37,0,4.67,0,8.33,1.42,8.24,6.52s-4,6.3-8.54,6.23C170.49,187.11,124,187.2,116.16,187.2Z"/><path class="cls-1" d="M92.58,155.55c-4.57.08-8.43-1.08-8.54-6.23s3.58-6.55,8.23-6.52c15.92.08,5.55.09,21.47,0,4.67,0,8.33,1.42,8.24,6.52s-4,6.3-8.54,6.23"/><path class="cls-1" d="M175.85,155.52c-7.86,0-15.72-.1-23.57,0-4.57.08-8.43-1.08-8.54-6.23s3.58-6.55,8.23-6.52c15.92.08,43.75.09,59.67,0,4.67,0,8.33,1.42,8.24,6.52s-4,6.3-8.54,6.23C203.48,155.43,183.7,155.52,175.85,155.52Z"/></g></g></svg>