<svg xmlns="http://www.w3.org/2000/svg" viewBox="0 0 210 164.08"><defs><style>.cls-1{fill:#c5d2ff;}</style></defs><title>11Asset 2history-right</title><g id="Layer_2" data-name="Layer 2"><g id="Layer_1-2" data-name="Layer 1"><circle class="cls-1" cx="199.36" cy="107.71" r="10.64"/><path class="cls-1" d="M49.81,19.65c-12.14,0-24.28-.15-36.41.06C6.34,19.83.38,18,.2,10.09S5.74,0,12.92,0C37.51.14,172.69.15,197.27,0c7.22,0,12.87,2.19,12.73,10.08s-6.16,9.74-13.19,9.63C184.68,19.52,61.94,19.65,49.81,19.65Z"/><path class="cls-1" d="M49.81,117.51c-12.14,0-24.28-.15-36.41.06-7.06.12-13-1.67-13.19-9.62S5.74,97.83,12.92,97.87c24.58.13,108.81.14,133.39,0,7.22,0,12.87,2.19,12.73,10.08s-6.16,9.74-13.19,9.63C133.72,117.38,61.94,117.51,49.81,117.51Z"/><path class="cls-1" d="M142,68.58c-12.14,0-24.28-.15-36.41.06-7.06.12-13-1.67-13.19-9.62s5.54-10.11,12.72-10.08c24.58.13,67.58.14,92.16,0,7.22,0,12.87,2.19,12.73,10.08s-6.16,9.74-13.19,9.63C184.68,68.45,154.13,68.58,142,68.58Z"/><path class="cls-1" d="M49.61,164c-12.14,0-24.28-.15-36.41.06-7.06.12-13-1.67-13.19-9.62s5.54-10.11,12.72-10.08c24.58.13,67.58.14,92.16,0,7.22,0,12.87,2.19,12.73,10.08s-6.16,9.74-13.19,9.63C92.29,163.88,61.74,164,49.61,164Z"/></g></g></svg>