<svg xmlns="http://www.w3.org/2000/svg" viewBox="0 0 210 164.86"><defs><style>.cls-1{fill:#c5d2ff;}</style></defs><title>11Asset 1history-left</title><g id="Layer_2" data-name="Layer 2"><g id="Layer_1-2" data-name="Layer 1"><circle class="cls-1" cx="199.36" cy="154.22" r="10.64"/><path class="cls-1" d="M49.81,144.43c-12.14,0-24.28.15-36.41-.06C6.34,144.25.38,146,.2,154s5.54,10.11,12.72,10.08c24.58-.13,113.76-.14,138.35,0,7.22,0,12.87-2.19,12.73-10.08s-6.16-9.74-13.19-9.63C138.68,144.56,61.94,144.42,49.81,144.43Z"/><path class="cls-1" d="M49.81,94.07c-12.14,0-24.28.15-36.41-.06C6.34,93.89.38,95.69.2,103.64s5.54,10.11,12.72,10.08c24.58-.13,159.76-.14,184.35,0,7.22,0,12.87-2.19,12.73-10.08s-6.16-9.74-13.19-9.63C184.68,94.21,61.94,94.07,49.81,94.07Z"/><path class="cls-1" d="M13.3,46.51C6.24,46.39.28,48.18.1,56.13S5.64,66.25,12.82,66.21c24.58-.13,8.57-.14,33.16,0,7.22,0,12.87-2.19,12.73-10.08s-6.16-9.74-13.19-9.63"/><path class="cls-1" d="M123.89,46.57c-12.14,0-24.28.15-36.41-.06-7.06-.12-13,1.67-13.19,9.62S79.83,66.25,87,66.21c24.58-.13,85.68-.14,110.26,0,7.22,0,12.87-2.19,12.73-10.08s-6.16-9.74-13.19-9.63C184.68,46.7,136,46.57,123.89,46.57Z"/><path class="cls-1" d="M49.61.06C37.47.06,25.33.22,13.2,0,6.14-.12.18,1.68,0,9.63S5.54,19.74,12.72,19.7c24.58-.13,67.58-.14,92.16,0,7.22,0,12.87-2.19,12.73-10.08S111.45-.1,104.42,0C92.29.2,61.74.06,49.61.06Z"/></g></g></svg>