<svg xmlns="http://www.w3.org/2000/svg" viewBox="0 0 326.14 273.38"><defs><style>.cls-1{fill:none;stroke:#6d1791;stroke-linecap:round;stroke-linejoin:round;stroke-width:5px;}.cls-2{fill:#992cc6;}</style></defs><title>11Asset 3icos-right</title><g id="Layer_2" data-name="Layer 2"><g id="Layer_1-2" data-name="Layer 1"><line class="cls-1" x1="273.94" y1="19.11" x2="307.03" y2="2.5"/><line class="cls-1" x1="323.64" y1="35.59" x2="307.03" y2="2.5"/><polyline class="cls-1" points="2.5 251.33 58.3 112.81 91 202.27 190.09 64.71 255.5 138.78 306.49 5.06"/><path class="cls-2" d="M84.29,48.74h-7.6V43.67c-6.63-1.36-11.11-6.09-11.11-12.23h7.36c0,3.75,3.36,6.43,8,6.43,4,0,6.48-2,6.48-4.48,0-7.36-21.54-1.17-21.54-15,0-5.85,4.24-10.14,10.77-11.21V2.87h7.6V7.36C90.48,8.72,94.63,13.2,94.63,19H87.51c0-3.41-3-5.85-7.21-5.85-3.85,0-6.43,1.8-6.43,4.24,0,7.07,21.59,1,21.59,14.87,0,5.95-4.34,10.43-11.16,11.55Z"/><path class="cls-2" d="M195.06,273.38H184.18v-7.25c-9.49-2-15.9-8.72-15.9-17.51h10.53c0,5.37,4.81,9.21,11.51,9.21,5.79,0,9.28-2.86,9.28-6.42,0-10.53-30.83-1.67-30.83-21.41,0-8.37,6.07-14.51,15.41-16v-6.21h10.88v6.42c8.86,2,14.79,8.37,14.79,16.6H199.67c.07-4.88-4.33-8.37-10.32-8.37-5.51,0-9.21,2.58-9.21,6.07,0,10.11,30.9,1.4,30.9,21.27,0,8.51-6.21,14.93-16,16.53Z"/></g></g></svg>