<svg xmlns="http://www.w3.org/2000/svg" viewBox="0 0 324.28 281.12"><defs><style>.cls-1{fill:#992cc6;}.cls-2{fill:none;stroke:#6d1791;stroke-linecap:round;stroke-linejoin:round;stroke-width:5px;}</style></defs><title>11Asset 1icos-left</title><g id="Layer_2" data-name="Layer 2"><g id="Layer_1-2" data-name="Layer 1"><path class="cls-1" d="M249.68,272.23h-7.6v-5.07c-6.63-1.36-11.11-6.09-11.11-12.23h7.36c0,3.75,3.36,6.43,8,6.43,4,0,6.48-2,6.48-4.48,0-7.36-21.54-1.17-21.54-15,0-5.85,4.24-10.14,10.77-11.21v-4.34h7.6v4.48c6.19,1.36,10.33,5.85,10.33,11.6H252.9c0-3.41-3-5.85-7.21-5.85-3.85,0-6.43,1.8-6.43,4.24,0,7.07,21.59,1,21.59,14.87,0,5.95-4.34,10.43-11.16,11.55Z"/><line class="cls-2" x1="149.51" y1="132.53" x2="121.06" y2="133.86"/><line class="cls-2" x1="119.74" y1="105.41" x2="121.06" y2="133.86"/><polyline class="cls-2" points="321.78 33.01 225.5 129.3 196.96 58.19 121.4 133.75"/><path class="cls-1" d="M79.19,65.63H68.31V58.38c-9.49-2-15.9-8.72-15.9-17.51H62.94c0,5.37,4.81,9.21,11.51,9.21,5.79,0,9.28-2.86,9.28-6.42C83.73,33.13,52.9,42,52.9,22.25c0-8.37,6.07-14.51,15.41-16V0H79.19V6.42C88,8.37,94,14.79,94,23H83.8c.07-4.88-4.33-8.37-10.32-8.37-5.51,0-9.21,2.58-9.21,6.07,0,10.11,30.9,1.4,30.9,21.27,0,8.51-6.21,14.93-16,16.53Z"/><line class="cls-2" x1="118.84" y1="210.77" x2="138.06" y2="209.75"/><line class="cls-2" x1="139.08" y1="228.97" x2="138.06" y2="209.75"/><polyline class="cls-2" points="2.5 278.62 67.56 213.56 86.84 261.61 137.89 210.56"/></g></g></svg>