<svg xmlns="http://www.w3.org/2000/svg" viewBox="0 0 190.34 302.83"><defs><style>.cls-1{fill:#8e4d0d;}.cls-2{fill:#ffd580;}.cls-3{fill:#f9cb64;}</style></defs><title>11Asset 2minning-right</title><g id="Layer_2" data-name="Layer 2"><g id="Layer_1-2" data-name="Layer 1"><path class="cls-1" d="M128.12,27.78l13.94,6.42-3.75,8.61q-16.4,37.51-32.81,75a9,9,0,0,1-15.7,2,8.93,8.93,0,0,1-.71-9.69q5.58-11.73,11.12-23.47l27-57C127.48,29,127.81,28.39,128.12,27.78Z"/><path class="cls-1" d="M79.09,6.54a87.12,87.12,0,0,1,55.44-1.2,3.06,3.06,0,0,0,.33-.43c1.38-2.66,1.6-2.74,4.29-1.51l14.18,6.46c2.5,1.14,2.64,1.51,1.59,4-.07.17-.12.34-.21.61a87.33,87.33,0,0,1,35.62,42.72,182.39,182.39,0,0,0-41.06-30.06l-2.12,4.5c-.72,1.54-1.48,1.85-3.06,1.14q-8.16-3.69-16.3-7.42c-1.6-.73-1.86-1.54-1.12-3.17.65-1.44,1.3-2.89,2-4.43A182.85,182.85,0,0,0,79.09,6.54Z"/><path class="cls-1" d="M153.58,7.7,140.5,1.77A2,2,0,0,1,142.8,0a14.72,14.72,0,0,1,10.55,4.73A2.13,2.13,0,0,1,153.58,7.7Z"/><circle class="cls-2" cx="124.03" cy="239.3" r="47.3" transform="translate(-36.37 22.69) rotate(-9.12)"/><circle class="cls-3" cx="124.03" cy="239.3" r="35.96" transform="translate(-36.37 22.69) rotate(-9.12)"/><circle class="cls-2" cx="28.22" cy="274.61" r="28.22" transform="translate(-43.18 7.95) rotate(-9.12)"/><circle class="cls-3" cx="28.22" cy="274.61" r="21.45" transform="translate(-43.18 7.95) rotate(-9.12)"/></g></g></svg>