<svg xmlns="http://www.w3.org/2000/svg" viewBox="0 0 391.49 267.29"><defs><style>.cls-1{fill:#ffd580;}.cls-2{fill:#8e4d0d;}.cls-3{fill:#f9cb64;}</style></defs><title>11Asset 3minning-main</title><g id="Layer_2" data-name="Layer 2"><g id="Layer_1-2" data-name="Layer 1"><path class="cls-1" d="M361.65,116l9,5.4L341.2,160.65l-.22-.14Z"/><path class="cls-1" d="M263.32,210.08l-46.59,5.82.15-13.37,46.47,7.26Z"/><path class="cls-1" d="M265.41,267.29l-5.47-4.73c8.22-7.7,9.45-7.51,17.54-15.1l.19.14C271.35,256.67,271.9,258,265.41,267.29Z"/><path class="cls-1" d="M307.47,157.91c-3.34-14.53-5.27-17.52-8.65-32.27l9.71-1.18c.25,15.12-.91,18.49-.67,33.4Z"/><path class="cls-2" d="M167.54,90.93l23.73,17.33C187.93,113,184.45,118,181,123Q136,187.17,91,251.34c-8,11.37-24.53,10.12-30.2-2.25-3-6.53-2-12.71,2.33-18.44q14.91-19.89,29.74-39.83L165,94.16C165.87,93.05,166.73,92,167.54,90.93Z"/><path class="cls-2" d="M83.59,32.54c36.84-5.21,71.62,1.17,104.47,18.73a5.85,5.85,0,0,0,.78-.68c3.6-4.46,4-4.53,8.63-1.21q12.09,8.74,24.17,17.48c4.27,3.09,4.39,3.83,1.46,8.2-.19.29-.35.59-.63,1.07,27,25.69,44,56.85,50.67,93.62a349.1,349.1,0,0,0-65.67-71.94c-2,2.66-3.83,5.15-5.68,7.65s-3.48,2.91-6.17,1q-13.9-10-27.77-20.09c-2.72-2-2.91-3.59-.91-6.37,1.77-2.46,3.53-4.93,5.42-7.57A350,350,0,0,0,83.59,32.54Z"/><path class="cls-2" d="M222.9,62.9,200.61,46.81c.86-2.28,2.8-3,5-2.44a28.17,28.17,0,0,1,18,12.87A4.09,4.09,0,0,1,222.9,62.9Z"/><circle class="cls-1" cx="20.81" cy="98.18" r="20.81" transform="translate(-15.3 4.54) rotate(-9.12)"/><circle class="cls-3" cx="20.81" cy="98.18" r="15.82" transform="translate(-15.3 4.54) rotate(-9.12)"/><circle class="cls-1" cx="370.68" cy="35" r="20.81" transform="translate(-0.86 59.21) rotate(-9.12)"/><circle class="cls-3" cx="370.68" cy="35" r="15.82" transform="translate(-0.86 59.21) rotate(-9.12)"/><circle class="cls-1" cx="329.55" cy="12.42" r="12.41" transform="translate(2.2 52.41) rotate(-9.12)"/><circle class="cls-3" cx="329.55" cy="12.42" r="9.44" transform="matrix(0.99, -0.16, 0.16, 0.99, 2.2, 52.41)"/><circle class="cls-1" cx="314" cy="211.74" r="34.77" transform="translate(-29.6 52.46) rotate(-9.12)"/><circle class="cls-3" cx="314" cy="211.74" r="26.43" transform="translate(-29.6 52.46) rotate(-9.12)"/></g></g></svg>