<svg xmlns="http://www.w3.org/2000/svg" viewBox="0 0 322.5 347.51"><defs><style>.cls-1{fill:#ffd580;}.cls-2{fill:#8e4d0d;}.cls-3{fill:#f9cb64;}</style></defs><title>11Asset 1minning-left</title><g id="Layer_2" data-name="Layer 2"><g id="Layer_1-2" data-name="Layer 1"><path class="cls-1" d="M9.35,190.87,0,196.46l30.51,40.67.23-.14Z"/><path class="cls-1" d="M111.13,288.29l48.23,6-.16-13.84L111.1,288Z"/><path class="cls-1" d="M109,347.51l5.66-4.9c-8.51-8-9.78-7.78-18.16-15.63l-.2.14C102.81,336.52,102.25,337.86,109,347.51Z"/><path class="cls-1" d="M65.43,234.29c3.45-15,5.45-18.14,9-33.41l-10-1.22c-.25,15.65.95,19.14.7,34.58Z"/><path class="cls-2" d="M210.28,165,185.71,182.9c3.46,4.95,7.05,10.1,10.66,15.25q46.54,66.43,93.1,132.84c8.26,11.77,25.39,10.48,31.26-2.33,3.1-6.76,2-13.16-2.41-19.09Q302.89,289,287.53,268.35l-74.68-100C212,167.15,211.11,166,210.28,165Z"/><path class="cls-2" d="M297.17,104.52C259,99.13,223,105.72,189,123.9a6.05,6.05,0,0,1-.81-.7c-3.73-4.62-4.18-4.69-8.93-1.25q-12.51,9-25,18.09c-4.42,3.2-4.54,4-1.51,8.48.2.3.37.61.66,1.1-28,26.59-45.57,58.84-52.45,96.91a361.36,361.36,0,0,1,68-74.46c2,2.75,4,5.33,5.88,7.91s3.61,3,6.38,1Q195.6,170.63,210,160.2c2.82-2,3-3.72.94-6.59-1.84-2.55-3.66-5.11-5.61-7.83A362.27,362.27,0,0,1,297.17,104.52Z"/><path class="cls-2" d="M153,135.94,176,119.29c-.89-2.36-2.9-3.06-5.16-2.52a29.16,29.16,0,0,0-18.63,13.32A4.23,4.23,0,0,0,153,135.94Z"/><circle class="cls-1" cx="58.67" cy="290.01" r="35.99" transform="translate(-236.97 301.96) rotate(-80.88)"/><circle class="cls-3" cx="58.67" cy="290.01" r="27.36" transform="translate(-236.97 301.96) rotate(-80.88)"/><circle class="cls-1" cx="68.51" cy="43.11" r="25.64" transform="translate(-5.97 11.41) rotate(-9.12)"/><circle class="cls-3" cx="68.51" cy="43.11" r="19.49" transform="translate(-5.97 11.41) rotate(-9.12)"/><circle class="cls-1" cx="17.84" cy="15.3" r="15.29" transform="translate(-2.2 3.02) rotate(-9.12)"/><circle class="cls-3" cx="17.84" cy="15.3" r="11.63" transform="translate(-2.2 3.02) rotate(-9.12)"/></g></g></svg>