<svg xmlns="http://www.w3.org/2000/svg" viewBox="0 0 209 348.55"><defs><style>.cls-1{fill:#b5d2ff;}</style></defs><title>11Asset 3privacy-right</title><g id="Layer_2" data-name="Layer 2"><g id="Layer_1-2" data-name="Layer 1"><path class="cls-1" d="M.65,237.31v-4.52c0-.07.12-.13.13-.21q1.92-11.9,13.24-16c.45-.16.52-.4.54-.82a25.05,25.05,0,0,1,.28-3.54,19.39,19.39,0,0,1,22.91-15.71,1,1,0,0,0,1.16-.42,22,22,0,0,1,12.91-7.87l2-.41h4.87c.52.11,1,.25,1.58.34a22.26,22.26,0,0,1,18.12,24.18.9.9,0,0,0,.55,1,22.2,22.2,0,0,1-11.16,41.2H20.08A19.4,19.4,0,0,1,1.34,240.24C1.07,239.27.88,238.29.65,237.31Zm20.64-16.06c-.43,0-.82-.06-1.22-.07A13.89,13.89,0,0,0,7,239.67c2.08,5.79,7.25,9.28,13.79,9.28H66.6a24.47,24.47,0,0,0,2.6-.14,16.59,16.59,0,0,0,4.46-31.88c-.64-.26-1.28-.48-1.93-.72a16.7,16.7,0,0,0-30.89-12.68A13.59,13.59,0,0,0,25.11,205C20.08,209.46,19,215,21.28,221.25Z"/><path class="cls-1" d="M147.17,313.72A3.06,3.06,0,0,1,145,308.5l31.34-31.34a3.06,3.06,0,0,1,4.32,4.33l-31.34,31.34A3,3,0,0,1,147.17,313.72Z"/><path class="cls-1" d="M147.17,313.72a3,3,0,0,1-2.16-.9l-15.67-15.67a3.06,3.06,0,1,1,4.32-4.33l15.67,15.67a3.06,3.06,0,0,1-2.16,5.22Z"/><path class="cls-1" d="M154.52,348.55A54.48,54.48,0,1,1,209,294.07,54.54,54.54,0,0,1,154.52,348.55Zm0-102.84a48.36,48.36,0,1,0,48.36,48.36A48.41,48.41,0,0,0,154.52,245.71Z"/><path class="cls-1" d="M3,36.34c-.55-7.19,5-10.69,9.29-10.62a9.32,9.32,0,0,1,9.06,10.59l.43.12a3,3,0,0,1,2.56,3.25c0,3.71,0,7.42,0,11.13,0,1.25,0,2.49,0,3.74a3,3,0,0,1-3.16,3.14h-18a2.92,2.92,0,0,1-3.1-3q0-7.6,0-15.19C0,37.75.94,36.81,3,36.34Zm3.14,0H18.21c.6-5.29-3-7.58-6-7.58S5.51,31.08,6.12,36.34ZM9.13,47a3,3,0,1,0,6.07.08A3,3,0,0,0,9.13,47Z"/><path class="cls-1" d="M43.23,25.75C41.89,8.31,55.25-.18,65.76,0c12,.21,23.35,10.1,22,25.68l1,.28C92.94,27,95,29.5,95,33.85c0,9,0,18,0,27,0,3,0,6,0,9.06-.08,4.66-3,7.61-7.67,7.61q-21.87,0-43.73,0c-4.43,0-7.5-2.92-7.52-7.34Q36,51.75,36,33.33C36.05,29.15,38.28,26.87,43.23,25.75Zm7.61,0H80.16C81.63,12.89,72.79,7.35,65.5,7.35S49.37,13,50.85,25.73Zm7.29,25.85a7.36,7.36,0,1,0,14.72.18,7.36,7.36,0,0,0-14.72-.18Z"/></g></g></svg>