<svg xmlns="http://www.w3.org/2000/svg" xmlns:xlink="http://www.w3.org/1999/xlink" viewBox="0 0 395.39 302.97"><defs><style>.cls-1{fill:url(#linear-gradient);}.cls-2{fill:url(#linear-gradient-2);}.cls-3{fill:#b5d2ff;}</style><linearGradient id="linear-gradient" x1="114.2" y1="159.26" x2="200.95" y2="159.26" gradientUnits="userSpaceOnUse"><stop offset="0" stop-color="#63a5fe"/><stop offset="1" stop-color="#9fd0f7"/></linearGradient><linearGradient id="linear-gradient-2" x1="200.95" y1="159.26" x2="287.69" y2="159.26" xlink:href="#linear-gradient"/></defs><title>11Asset 1privacy-main</title><g id="Layer_2" data-name="Layer 2"><g id="Layer_1-2" data-name="Layer 1"><path class="cls-1" d="M200.95,63.4S162.2,98,114.21,103c-.56,78.12,55.24,134.25,86.74,152.11Z"/><path class="cls-2" d="M200.95,63.4S239.7,98,287.68,103c.56,78.12-55.24,134.25-86.74,152.11Z"/><path class="cls-3" d="M21.28,241.66C19.69,221,35.51,211,47.95,211.18c14.19.25,27.65,12,26,30.4l1.24.34c4.94,1.24,7.33,4.19,7.35,9.34,0,10.65,0,21.3,0,32,0,3.58,0,7.15,0,10.73-.09,5.52-3.6,9-9.08,9q-25.89,0-51.78,0c-5.25,0-8.88-3.46-8.9-8.7q-.11-21.81,0-43.61C12.78,245.69,15.42,243,21.28,241.66Zm9,0H65c1.73-15.19-8.73-21.76-17.36-21.75S28.54,226.55,30.3,241.64Zm8.63,30.61a8.72,8.72,0,1,0,17.43.22,8.72,8.72,0,0,0-17.43-.22Z"/><path class="cls-3" d="M312.3,42.28c-.5-6.49,4.47-9.65,8.39-9.59a8.42,8.42,0,0,1,8.18,9.56l.39.11a2.73,2.73,0,0,1,2.31,2.94c0,3.35,0,6.7,0,10,0,1.12,0,2.25,0,3.37a2.68,2.68,0,0,1-2.86,2.84H312.42a2.63,2.63,0,0,1-2.8-2.73q0-6.86,0-13.72C309.62,43.55,310.45,42.7,312.3,42.28Zm2.84,0H326c.54-4.78-2.75-6.84-5.46-6.84S314.58,37.53,315.13,42.28Zm2.72,9.63a2.74,2.74,0,1,0,5.48.07,2.74,2.74,0,0,0-5.48-.07Z"/><path class="cls-3" d="M348.64,32.71C347.43,17,359.49,9.3,369,9.47c10.82.19,21.09,9.12,19.84,23.19l.94.26c3.77.95,5.59,3.2,5.6,7.12,0,8.12,0,16.25,0,24.37,0,2.73,0,5.46,0,8.18-.07,4.21-2.75,6.87-6.93,6.88q-19.75,0-39.49,0c-4,0-6.77-2.64-6.79-6.63q-.09-16.63,0-33.26C342.16,35.79,344.17,33.73,348.64,32.71Zm6.87,0H382c1.32-11.59-6.66-16.6-13.24-16.59S354.18,21.19,355.52,32.7ZM362.1,56a6.65,6.65,0,1,0,13.29.17A6.65,6.65,0,0,0,362.1,56Z"/><path class="cls-3" d="M0,37.75V34.31c0-.05.09-.1.1-.16a14.68,14.68,0,0,1,10.1-12.22c.34-.13.4-.3.41-.63a19.1,19.1,0,0,1,.21-2.7,14.78,14.78,0,0,1,17.46-12,.78.78,0,0,0,.88-.32A16.79,16.79,0,0,1,39,.31L40.54,0h3.71c.4.09.8.19,1.2.26A17,17,0,0,1,59.26,18.69a.69.69,0,0,0,.42.77,16.93,16.93,0,0,1-8.51,31.41H14.82A14.79,14.79,0,0,1,.52,40C.32,39.25.17,38.5,0,37.75ZM15.73,25.51c-.32,0-.63,0-.93-.05a10.59,10.59,0,0,0-9.94,14.1c1.59,4.42,5.53,7.07,10.51,7.07h34.9a18.65,18.65,0,0,0,2-.11,12.65,12.65,0,0,0,3.4-24.3c-.48-.2-1-.37-1.47-.55A12.73,12.73,0,0,0,30.64,12a10.36,10.36,0,0,0-12,1.11C14.81,16.52,14,20.71,15.73,25.51Z"/><path class="cls-3" d="M291.5,248.31v-2s.05-.06.06-.09a8.62,8.62,0,0,1,5.93-7.18c.2-.07.23-.18.24-.37a11.22,11.22,0,0,1,.12-1.58,8.69,8.69,0,0,1,10.26-7,.46.46,0,0,0,.52-.19,9.86,9.86,0,0,1,5.78-3.52l.9-.19h2.18l.71.15a10,10,0,0,1,8.11,10.83.4.4,0,0,0,.25.45,9.95,9.95,0,0,1-5,18.45H300.21a8.69,8.69,0,0,1-8.4-6.4C291.69,249.18,291.61,248.74,291.5,248.31Zm9.24-7.19-.55,0a6.22,6.22,0,1,0,.34,12.44H321a11,11,0,0,0,1.16-.06,7.43,7.43,0,0,0,2-14.28l-.86-.32a7.48,7.48,0,0,0-13.84-5.68,6.09,6.09,0,0,0-7,.65A6.16,6.16,0,0,0,300.75,241.11Z"/><path class="cls-3" d="M357.13,282.53a1.37,1.37,0,0,1-1-2.34l14-14a1.37,1.37,0,0,1,1.94,1.94l-14,14A1.37,1.37,0,0,1,357.13,282.53Z"/><path class="cls-3" d="M357.13,282.53a1.37,1.37,0,0,1-1-.4l-7-7a1.37,1.37,0,0,1,1.94-1.94l7,7a1.37,1.37,0,0,1-1,2.34Z"/><path class="cls-3" d="M360.43,298.13a24.4,24.4,0,1,1,24.4-24.4A24.43,24.43,0,0,1,360.43,298.13Zm0-46.06a21.66,21.66,0,1,0,21.66,21.66A21.69,21.69,0,0,0,360.43,252.07Z"/><path class="cls-3" d="M62.85,84.36a1,1,0,0,1-.68-1.64L72,72.85a1,1,0,0,1,1.36,1.36l-9.86,9.86A1,1,0,0,1,62.85,84.36Z"/><path class="cls-3" d="M62.85,84.36a1,1,0,0,1-.68-.28l-4.93-4.93a1,1,0,0,1,1.36-1.36l4.93,4.93a1,1,0,0,1-.68,1.64Z"/><path class="cls-3" d="M65.17,95.32A17.14,17.14,0,1,1,82.31,78.18,17.16,17.16,0,0,1,65.17,95.32Zm0-32.36A15.22,15.22,0,1,0,80.38,78.18,15.23,15.23,0,0,0,65.17,63Z"/></g></g></svg>