<svg xmlns="http://www.w3.org/2000/svg" viewBox="0 0 210 326.38"><defs><style>.cls-1{fill:#b5d2ff;}</style></defs><title>11Asset 2privacy-left</title><g id="Layer_2" data-name="Layer 2"><g id="Layer_1-2" data-name="Layer 1"><path class="cls-1" d="M127.28,243.63c-2.15-27.86,19.2-41.43,36-41.14,19.16.33,37.32,16.14,35.1,41,.53.14,1.1.31,1.67.45,6.67,1.68,9.89,5.66,9.92,12.6.05,14.38,0,28.75,0,43.13,0,4.83.06,9.66,0,14.48-.12,7.44-4.86,12.16-12.26,12.17q-34.94,0-69.89,0c-7.08,0-12-4.67-12-11.74q-.15-29.43,0-58.87C115.8,249.07,119.36,245.43,127.28,243.63Zm12.17,0h46.85c2.34-20.51-11.78-29.37-23.43-29.36S137.07,223.23,139.44,243.6Zm11.65,41.31a11.76,11.76,0,1,0,23.52.29,11.76,11.76,0,0,0-23.52-.29Z"/><path class="cls-1" d="M0,52.87V48c0-.07.13-.14.14-.22q2.05-12.7,14.14-17.11c.48-.18.56-.42.58-.88a26.74,26.74,0,0,1,.3-3.78A20.7,20.7,0,0,1,39.6,9.29a1.1,1.1,0,0,0,1.24-.45A23.5,23.5,0,0,1,54.63.44L56.76,0H62c.56.12,1.12.26,1.68.36A23.77,23.77,0,0,1,83,26.17a1,1,0,0,0,.59,1.08,23.7,23.7,0,0,1-11.92,44H20.75A20.71,20.71,0,0,1,.73,56C.45,55,.24,53.91,0,52.87ZM22,35.72c-.45,0-.88-.07-1.3-.07A14.83,14.83,0,0,0,6.81,55.39c2.23,6.18,7.74,9.9,14.72,9.9H70.4a26.12,26.12,0,0,0,2.77-.15,17.71,17.71,0,0,0,4.76-34c-.68-.28-1.37-.51-2.06-.77a17.83,17.83,0,0,0-33-13.54,14.51,14.51,0,0,0-16.79,1.56C20.74,23.13,19.58,29,22,35.72Z"/><path class="cls-1" d="M88,118.13a1.35,1.35,0,0,1-1-2.3L100.87,102a1.35,1.35,0,0,1,1.91,1.91L89,117.73A1.34,1.34,0,0,1,88,118.13Z"/><path class="cls-1" d="M88,118.13a1.34,1.34,0,0,1-1-.39l-6.9-6.9a1.35,1.35,0,0,1,1.91-1.91l6.9,6.9a1.35,1.35,0,0,1-1,2.3Z"/><path class="cls-1" d="M91.25,133.47a24,24,0,1,1,24-24A24,24,0,0,1,91.25,133.47Zm0-45.31a21.31,21.31,0,1,0,21.31,21.31A21.33,21.33,0,0,0,91.25,88.16Z"/></g></g></svg>