<svg xmlns="http://www.w3.org/2000/svg" xmlns:xlink="http://www.w3.org/1999/xlink" viewBox="0 0 323.95 369.47"><defs><style>.cls-1{fill:url(#linear-gradient);}.cls-2{fill:url(#linear-gradient-2);}.cls-3{fill:#9fd6fc;}.cls-4{fill:url(#linear-gradient-3);}</style><linearGradient id="linear-gradient" x1="104.76" y1="369.47" x2="104.76" y2="160.42" gradientTransform="matrix(1, 0, 0, -1, 0.48, 529.89)" gradientUnits="userSpaceOnUse"><stop offset="0" stop-color="#8acaff"/><stop offset="1" stop-color="#bdecff"/></linearGradient><linearGradient id="linear-gradient-2" x1="182.48" y1="369.47" x2="182.48" y2="67.01" gradientTransform="matrix(1, 0, 0, -1, -154.96, 436.48)" xlink:href="#linear-gradient"/><linearGradient id="linear-gradient-3" x1="530.23" y1="179.34" x2="657.14" y2="179.34" gradientTransform="matrix(-0.64, -0.77, 0.77, -0.64, 422.53, 635.72)" xlink:href="#linear-gradient"/></defs><title>11Asset 1proof-left</title><g id="Layer_2" data-name="Layer 2"><g id="Layer_1-2" data-name="Layer 1"><path class="cls-1" d="M77.72,160.42h55a0,0,0,0,1,0,0V357.88a11.59,11.59,0,0,1-11.59,11.59H89.31a11.59,11.59,0,0,1-11.59-11.59V160.42A0,0,0,0,1,77.72,160.42Z" transform="translate(210.48 529.89) rotate(-180)"/><path class="cls-2" d="M0,67H55a0,0,0,0,1,0,0V357.88a11.59,11.59,0,0,1-11.59,11.59H11.59A11.59,11.59,0,0,1,0,357.88V67a0,0,0,0,1,0,0Z" transform="translate(55.04 436.48) rotate(-180)"/><path class="cls-3" d="M236.17,159.25l-1-1.89c0-.27-.09-.55-.15-.82a9.43,9.43,0,0,1,2-8.78,13.73,13.73,0,0,0,2.71-5.08,7.21,7.21,0,0,0,0-4.87,14.11,14.11,0,0,0-4.4-6,9.24,9.24,0,0,1-3-4.07c-2.55-6.74,2.81-12.06,7.82-12.4a14.15,14.15,0,0,0,5.82-1.72,7.19,7.19,0,0,0,3.39-3.38,14.62,14.62,0,0,0,1.1-7.76,8.6,8.6,0,0,1,.54-4,11.86,11.86,0,0,1,3.29-4.51l1.89-1,1.12-.22a9.62,9.62,0,0,1,8.32,1.91,19.23,19.23,0,0,0,4,2.38,7.68,7.68,0,0,0,6.36.44,14.38,14.38,0,0,0,5.79-4.37,9.18,9.18,0,0,1,16.39,4.74,15.44,15.44,0,0,0,1.66,5.84,7.48,7.48,0,0,0,4.23,3.85,15.17,15.17,0,0,0,6.91.79,8,8,0,0,1,5.46,1.25,34.83,34.83,0,0,1,3.09,2.57l1,1.89c.06.32.11.65.19,1a9.31,9.31,0,0,1-2,8.5,14.21,14.21,0,0,0-2.8,5.21,7.27,7.27,0,0,0,.06,5.08,14.57,14.57,0,0,0,4.37,5.79,9.18,9.18,0,0,1-4.82,16.4,14.61,14.61,0,0,0-6.87,2.32,6.29,6.29,0,0,0-2.27,2.51,14.18,14.18,0,0,0-1.24,8,8.75,8.75,0,0,1-.54,4,11.8,11.8,0,0,1-3.29,4.51l-1.89,1-1,.2a9.29,9.29,0,0,1-8.37-1.91,14.72,14.72,0,0,0-4.61-2.64,7.66,7.66,0,0,0-5.73-.17,14.38,14.38,0,0,0-5.79,4.36,9.18,9.18,0,0,1-16.4-4.68,15.1,15.1,0,0,0-1.65-5.83,7.44,7.44,0,0,0-3.21-3.45,14.15,14.15,0,0,0-8-1.24,7.93,7.93,0,0,1-5.26-1.17A33.1,33.1,0,0,1,236.17,159.25ZM262.36,144a17.56,17.56,0,1,0,7.22-23.74A17.64,17.64,0,0,0,262.36,144Z"/><path class="cls-4" d="M116.31,79.09l-.58-2.88c0-.38.1-.76.13-1.14A13,13,0,0,1,122,64.32a18.86,18.86,0,0,0,5.59-5.61,9.91,9.91,0,0,0,2-6.39,19.39,19.39,0,0,0-3.42-9.58,12.7,12.7,0,0,1-2.3-6.54c-.68-9.88,8.5-14.74,15.21-13.19a19.45,19.45,0,0,0,8.33.06,9.88,9.88,0,0,0,5.81-3.1,20.09,20.09,0,0,0,4.53-9.77,11.81,11.81,0,0,1,2.28-5A16.3,16.3,0,0,1,166.12.58L169,0l1.56.15A13.21,13.21,0,0,1,180.74,6,26.43,26.43,0,0,0,185,10.68c2.3,2,4.95,3.44,8.19,3.11a19.75,19.75,0,0,0,9.36-3.44,12.67,12.67,0,0,1,11.61-1.58c5.71,1.83,9.33,8.34,8.07,14.34a21.22,21.22,0,0,0-.13,8.34,10.27,10.27,0,0,0,4,6.75A20.84,20.84,0,0,0,234.9,42a11,11,0,0,1,6.69,3.82,47.86,47.86,0,0,1,3,4.6l.58,2.88c0,.45-.11.9-.14,1.35A12.8,12.8,0,0,1,239.12,65a19.53,19.53,0,0,0-5.75,5.74,10,10,0,0,0-1.94,6.71,20,20,0,0,0,3.44,9.36,12.61,12.61,0,0,1,1.58,11.61c-1.88,5.77-8.4,9.35-14.44,8a20.07,20.07,0,0,0-10,.32,8.64,8.64,0,0,0-4,2.4,19.48,19.48,0,0,0-4.83,10.07,12,12,0,0,1-2.29,5,16.21,16.21,0,0,1-6.12,4.63l-2.88.58-1.45-.14c-4.31-.38-7.84-2.12-10.24-5.84a20.23,20.23,0,0,0-5-5.3c-2.21-1.63-4.6-2.8-7.47-2.5a19.75,19.75,0,0,0-9.35,3.43,12.61,12.61,0,0,1-19.71-12.67,20.74,20.74,0,0,0,.14-8.33A10.23,10.23,0,0,0,136,92.3a19.44,19.44,0,0,0-10.06-4.82,10.89,10.89,0,0,1-6.45-3.63A45.47,45.47,0,0,1,116.31,79.09Zm40.51-9.66a24.12,24.12,0,1,0,18.94-28.35A24.23,24.23,0,0,0,156.82,69.43Z"/></g></g></svg>