<svg xmlns="http://www.w3.org/2000/svg" xmlns:xlink="http://www.w3.org/1999/xlink" viewBox="0 0 210 355.96"><defs><style>.cls-1{fill:url(#linear-gradient);}.cls-2{fill:url(#linear-gradient-2);}.cls-3{fill:url(#linear-gradient-3);}</style><linearGradient id="linear-gradient" x1="27.52" y1="355.96" x2="27.52" gradientUnits="userSpaceOnUse"><stop offset="0" stop-color="#8acaff"/><stop offset="1" stop-color="#bdecff"/></linearGradient><linearGradient id="linear-gradient-2" x1="104.76" y1="355.96" x2="104.76" y2="177.98" xlink:href="#linear-gradient"/><linearGradient id="linear-gradient-3" x1="182.48" y1="355.96" x2="182.48" y2="83.08" xlink:href="#linear-gradient"/></defs><title>11Asset 3proof-right</title><g id="Layer_2" data-name="Layer 2"><g id="Layer_1-2" data-name="Layer 1"><path class="cls-1" d="M8,0H47a8,8,0,0,1,8,8V356a0,0,0,0,1,0,0H0a0,0,0,0,1,0,0V8A8,8,0,0,1,8,0Z"/><path class="cls-2" d="M85.24,178h39a8,8,0,0,1,8,8V356a0,0,0,0,1,0,0h-55a0,0,0,0,1,0,0V186A8,8,0,0,1,85.24,178Z"/><path class="cls-3" d="M163,83.08h39a8,8,0,0,1,8,8V356a0,0,0,0,1,0,0H155a0,0,0,0,1,0,0V91.08a8,8,0,0,1,8-8Z"/></g></g></svg>