<svg xmlns="http://www.w3.org/2000/svg" viewBox="0 0 407.31 451.26"><defs><style>.cls-1{fill:none;stroke:#fff;stroke-linecap:round;stroke-linejoin:round;stroke-width:4px;}.cls-2{fill:#fff;}</style></defs><title>11Asset 1proof-of-main</title><g id="Layer_2" data-name="Layer 2"><g id="Layer_1-2" data-name="Layer 1"><line class="cls-1" x1="108.58" y1="63.71" x2="136.84" y2="35.46"/><path class="cls-2" d="M72,179.28l-5.29,5.28a1.58,1.58,0,0,1-2.23-2.25L80.88,166a1.6,1.6,0,0,1,2.25,2.25L72,179.28"/><path class="cls-2" d="M65.63,185a1.59,1.59,0,0,1-1.13-.47l-8.17-8.2a1.6,1.6,0,1,1,2.25-2.25l8.17,8.17A1.6,1.6,0,0,1,65.62,185Z"/><path class="cls-2" d="M69.46,203.2a28.41,28.41,0,1,1,28.41-28.41A28.41,28.41,0,0,1,69.46,203.2Zm0-53.65a25.25,25.25,0,1,0,25.25,25.25h0A25.25,25.25,0,0,0,69.46,149.55Z"/><path class="cls-2" d="M95.4,406.09a.94.94,0,0,1-.67-1.63l9.75-9.74a1,1,0,0,1,1.35,1.35l-9.75,9.74A.94.94,0,0,1,95.4,406.09Z"/><path class="cls-2" d="M95.4,406.09a.94.94,0,0,1-.67-.28l-4.87-4.87a1,1,0,0,1,1.35-1.35l4.87,4.87a.94.94,0,0,1-.67,1.63Z"/><path class="cls-2" d="M97.7,416.92A16.93,16.93,0,1,1,114.63,400,16.93,16.93,0,0,1,97.7,416.92Zm0-32a15,15,0,1,0,15,15,15,15,0,0,0-15-15Z"/><path class="cls-2" d="M349.85,371.4a.94.94,0,0,1-.67-1.63l9.75-9.74a1,1,0,0,1,1.35,1.35l-9.75,9.74A.94.94,0,0,1,349.85,371.4Z"/><path class="cls-2" d="M349.85,371.4a.94.94,0,0,1-.67-.28l-4.87-4.9a1,1,0,0,1,1.35-1.35l4.87,4.87a.94.94,0,0,1-.67,1.63Z"/><path class="cls-2" d="M352.14,382.22a16.93,16.93,0,1,1,16.93-16.93A16.93,16.93,0,0,1,352.14,382.22Zm0-32a15,15,0,1,0,15,15,15,15,0,0,0-15-15Z"/><path class="cls-2" d="M60.36,363.29h.32a18.8,18.8,0,0,1,2.81.14,3.13,3.13,0,0,1,2.6,2.72,2.67,2.67,0,0,1-.32,1.36.36.36,0,0,0,0,.28,2.22,2.22,0,0,1-.14,2.46.57.57,0,0,0-.1.51,2.28,2.28,0,0,1-.53,2.06.36.36,0,0,0-.08.37,1.71,1.71,0,0,1-.32,1.55,3.24,3.24,0,0,1-1.8,1.22,16.29,16.29,0,0,1-4.26.64,12.74,12.74,0,0,1-3.23-.52c-.6-.15-1.21-.26-1.81-.39a.55.55,0,0,0-.49.1,1.64,1.64,0,0,1-1,.32H49.32a1.87,1.87,0,0,1-1.87-1.87v-6.78a1.87,1.87,0,0,1,1.87-1.87h2.59a2.24,2.24,0,0,1,.58.08c.13,0,.2,0,.25-.09.19-.37.38-.75.55-1.13s.23-.65.36-.94a5.56,5.56,0,0,1,1.6-2.09,3.48,3.48,0,0,0,1.16-2.09c.07-.4.12-.82.22-1.23a2.07,2.07,0,0,1,2-1.6,1.22,1.22,0,0,1,.36.06,2.5,2.5,0,0,1,1.33.94,4.87,4.87,0,0,1,.72,4.45,4.68,4.68,0,0,1-.44.86C60.63,362.92,60.51,363.08,60.36,363.29Zm-7.48,10.9h.07a13.09,13.09,0,0,1,3.08.56,9.17,9.17,0,0,0,2.61.39,15.68,15.68,0,0,0,3.74-.56,2,2,0,0,0,1.06-.66.45.45,0,0,0,.1-.47,1.43,1.43,0,0,1,.33-1.51,1,1,0,0,0,.22-1.18.94.94,0,0,1,.07-.94,3.12,3.12,0,0,1,.21-.27.94.94,0,0,0,.08-1.31,1.18,1.18,0,0,1-.06-1.21,4.15,4.15,0,0,0,.23-.51.94.94,0,0,0,0-.41,1.74,1.74,0,0,0-1.33-1.34,11,11,0,0,0-1.37-.1H60a3.13,3.13,0,0,1-.86-.1.79.79,0,0,1-.51-1.23c.26-.51.58-.94.86-1.47a3.46,3.46,0,0,0,.31-.64,3.19,3.19,0,0,0,0-1.7,2.74,2.74,0,0,0-.56-1.25,1.22,1.22,0,0,0-.55-.38c-.35-.09-.61.19-.67.63a4.28,4.28,0,0,1-.13.83,4.86,4.86,0,0,1-1.59,3.11,4.43,4.43,0,0,0-1.45,2.15,10.06,10.06,0,0,1-.54,1.3,3.3,3.3,0,0,1-.87,1.12.86.86,0,0,1-.34.21c-.19,0-.22.14-.22.31q0,3.23,0,6.44a1,1,0,0,1,0,.18Zm-1.44.45V367H49.49c-.37,0-.54.17-.54.54v6.61c0,.36.17.52.53.53h2Z"/><path class="cls-2" d="M49.57,373.31a.72.72,0,1,1,.61.66A.72.72,0,0,1,49.57,373.31Z"/><path class="cls-2" d="M396.27,395.28h.62c1.81.07,3.64.07,5.43.26a6,6,0,0,1,5,5.22,5.1,5.1,0,0,1-.6,2.6.69.69,0,0,0,0,.54,4.24,4.24,0,0,1-.26,4.68,1.09,1.09,0,0,0-.2,1,4.37,4.37,0,0,1-1,3.95.68.68,0,0,0-.17.71,3.27,3.27,0,0,1-.6,3,6.2,6.2,0,0,1-3.44,2.34,31.22,31.22,0,0,1-8.16,1.22,24.42,24.42,0,0,1-6.19-1c-1.14-.29-2.31-.51-3.46-.75a1.07,1.07,0,0,0-.94.21,3.13,3.13,0,0,1-2,.6h-5.13a3.52,3.52,0,0,1-3.52-3.52V403.22a3.56,3.56,0,0,1,3.51-3.62h5.12a4.28,4.28,0,0,1,1.11.17.37.37,0,0,0,.49-.18c.36-.72.73-1.44,1-2.17s.45-1.24.69-1.87a10.65,10.65,0,0,1,3.06-4,6.67,6.67,0,0,0,2.23-4c.15-.78.23-1.57.42-2.34a4,4,0,0,1,3.86-3.07,2.33,2.33,0,0,1,.67.1,4.79,4.79,0,0,1,2.54,1.77,9.35,9.35,0,0,1,1.38,8.54,9,9,0,0,1-.84,1.65A8,8,0,0,1,396.27,395.28ZM382,416.16c.07,0,.09.06.12.06a25,25,0,0,1,5.89,1.08,17.59,17.59,0,0,0,5,.76,30.07,30.07,0,0,0,7.16-1.07,3.83,3.83,0,0,0,2-1.26.87.87,0,0,0,.21-.94,2.74,2.74,0,0,1,.63-2.88,2,2,0,0,0,.41-2.26,1.8,1.8,0,0,1,.12-1.74,6,6,0,0,1,.39-.51,1.77,1.77,0,0,0,.19-2.49l0,0a2.26,2.26,0,0,1-.1-2.3,8,8,0,0,0,.44-1,1.75,1.75,0,0,0,.09-.79,3.33,3.33,0,0,0-2.54-2.57,21,21,0,0,0-2.61-.2h-3.74a6,6,0,0,1-1.66-.2,1.52,1.52,0,0,1-.94-2.36c.51-.94,1.11-1.87,1.66-2.81a6.62,6.62,0,0,0,.59-1.23,6.12,6.12,0,0,0,0-3.26,5.26,5.26,0,0,0-1.08-2.4,2.33,2.33,0,0,0-1.06-.74c-.67-.18-1.17.36-1.3,1.21-.07.53-.15,1.07-.24,1.59a9.35,9.35,0,0,1-3.14,5.79,8.5,8.5,0,0,0-2.81,4.12,19.28,19.28,0,0,1-1,2.49,6.32,6.32,0,0,1-1.66,2.16,1.66,1.66,0,0,1-.65.39c-.36.08-.42.26-.42.59q0,6.18,0,12.35A1.09,1.09,0,0,1,382,416.16Zm-2.74.94V402.38h-3.83c-.71,0-1,.32-1,1V416.1c0,.7.32,1,1,1h3.52a1.37,1.37,0,0,0,.33,0Z"/><path class="cls-2" d="M375.51,414.48a1.37,1.37,0,1,1,1.22,1.32A1.37,1.37,0,0,1,375.51,414.48Z"/><path class="cls-2" d="M24.63,140.14h.63c1.81.07,3.64.07,5.43.26a6,6,0,0,1,5,5.22,5.1,5.1,0,0,1-.6,2.6.69.69,0,0,0,0,.54,4.24,4.24,0,0,1-.26,4.68,1.09,1.09,0,0,0-.21,1,4.37,4.37,0,0,1-1,3.95.68.68,0,0,0-.17.71,3.27,3.27,0,0,1-.6,3,6.2,6.2,0,0,1-3.44,2.34,31.22,31.22,0,0,1-8.16,1.22,24.42,24.42,0,0,1-6.19-1c-1.14-.29-2.31-.51-3.46-.75a1.07,1.07,0,0,0-.94.21,3.13,3.13,0,0,1-2,.6H3.55A3.52,3.52,0,0,1,0,161.23s0-.06,0-.09v-13a3.56,3.56,0,0,1,3.55-3.57H8.63a4.28,4.28,0,0,1,1.11.17.37.37,0,0,0,.49-.18c.36-.72.73-1.44,1-2.17s.45-1.24.69-1.87a10.65,10.65,0,0,1,3.06-4,6.67,6.67,0,0,0,2.23-4c.15-.78.23-1.57.42-2.34a4,4,0,0,1,3.83-3.1,2.33,2.33,0,0,1,.67.1,4.79,4.79,0,0,1,2.54,1.77,9.35,9.35,0,0,1,1.46,8.54,9,9,0,0,1-.84,1.65C25.13,139.44,24.9,139.74,24.63,140.14ZM10.34,161c.07,0,.09.06.12.06a25,25,0,0,1,5.89,1.08,17.59,17.59,0,0,0,5,.76,30.07,30.07,0,0,0,7.16-1.07,3.83,3.83,0,0,0,2-1.26.87.87,0,0,0,.21-.94,2.74,2.74,0,0,1,.63-2.88,2,2,0,0,0,.41-2.26,1.8,1.8,0,0,1,.12-1.74,6,6,0,0,1,.39-.51,1.77,1.77,0,0,0,.19-2.49l0,0a2.26,2.26,0,0,1-.1-2.3,8,8,0,0,0,.44-1,1.75,1.75,0,0,0,.09-.79,3.33,3.33,0,0,0-2.54-2.57,21,21,0,0,0-2.61-.2H24a6,6,0,0,1-1.66-.2,1.52,1.52,0,0,1-.94-2.36c.51-.94,1.11-1.87,1.66-2.81a6.62,6.62,0,0,0,.59-1.23,6.12,6.12,0,0,0,0-3.26,5.26,5.26,0,0,0-1.08-2.4,2.33,2.33,0,0,0-1.06-.74c-.67-.18-1.17.36-1.3,1.21-.07.53-.15,1.07-.24,1.59a9.35,9.35,0,0,1-3.15,5.8A8.5,8.5,0,0,0,14,142.62a19.28,19.28,0,0,1-.94,2.49,6.32,6.32,0,0,1-1.66,2.16,1.66,1.66,0,0,1-.65.39c-.36.08-.42.26-.42.59v12.35A2.27,2.27,0,0,0,10.34,161ZM7.59,162V147.25H3.74c-.71,0-1,.32-1,1q0,6.34,0,12.68c0,.7.32,1,1,1H7.28l.33,0Z"/><path class="cls-2" d="M3.86,159.34a1.37,1.37,0,1,1,1.22,1.32A1.37,1.37,0,0,1,3.86,159.34Z"/><path class="cls-2" d="M231.95,264.59h2.55c7.54.33,15.11.29,22.6,1.08,10.39,1.12,19.81,11.3,20.68,21.69.33,3.85-.94,7.37-2.5,10.81a2.88,2.88,0,0,0,0,2.25c3.58,6.77,3.28,13.33-1.08,19.64a4.54,4.54,0,0,0-.82,4.09c1.45,6.14-.23,11.62-4.21,16.4a2.81,2.81,0,0,0-.69,3c1.34,4.53.21,8.63-2.5,12.35a25.76,25.76,0,0,1-14.29,9.72,129.74,129.74,0,0,1-33.88,5.05c-8.8.07-17.27-2-25.74-4.14-4.72-1.23-9.56-2.16-14.36-3.1a4.43,4.43,0,0,0-3.9.84,13,13,0,0,1-8.19,2.5c-7.1,0-14.21.07-21.31,0A14.63,14.63,0,0,1,129.7,352q0-.11,0-.22-.15-27,0-54c0-8.63,6.55-15,15.18-15,6.87,0,13.76,0,20.64,0a17.77,17.77,0,0,1,4.61.69c1,.29,1.6.11,2-.76,1.48-3,3-6,4.37-9,1.09-2.51,1.87-5.15,2.89-7.68a44.83,44.83,0,0,1,12.71-16.66c5.38-4.58,8-10.07,9.26-16.61.64-3.24.94-6.55,1.74-9.73a16.44,16.44,0,0,1,16.07-12.74,9.67,9.67,0,0,1,2.81.42A19.89,19.89,0,0,1,232.58,218c7.6,10.87,9.78,22.75,5.76,35.54a37,37,0,0,1-3.51,6.82C234,261.67,233.07,262.92,231.95,264.59Zm-59.36,86.76c.29.14.38.23.49.23,8.42.25,16.45,2.26,24.49,4.48,6.8,1.87,13.7,3.28,20.81,3.15a124.93,124.93,0,0,0,29.76-4.44,15.9,15.9,0,0,0,8.42-5.26,3.59,3.59,0,0,0,.85-3.74,11.37,11.37,0,0,1,2.6-11.92,8.15,8.15,0,0,0,1.7-9.42,7.48,7.48,0,0,1,.5-7.22,24.87,24.87,0,0,1,1.63-2.13c3.2-4,3.35-6.08.68-10.47a9.4,9.4,0,0,1-.41-9.58,33.05,33.05,0,0,0,1.87-4.12,7.26,7.26,0,0,0,.39-3.26c-.79-4.93-5.61-9.91-10.57-10.67a87.46,87.46,0,0,0-10.86-.82c-5.13-.14-10.29,0-15.42-.08a25,25,0,0,1-6.89-.82c-4.79-1.52-6.34-5.37-4-9.79,2.12-4,4.63-7.76,6.88-11.68a27.52,27.52,0,0,0,2.45-5.1c1.46-4.48,1.15-9,.15-13.58-.8-3.64-2-7.16-4.48-10a9.68,9.68,0,0,0-4.4-3.06c-2.81-.72-4.86,1.48-5.39,5-.33,2.21-.63,4.42-1,6.62-1.69,9.46-5.44,17.7-13,24.05a35.32,35.32,0,0,0-11.56,17.13,80.11,80.11,0,0,1-4.31,10.34,26.28,26.28,0,0,1-6.9,9,6.88,6.88,0,0,1-2.67,1.66c-1.5.34-1.73,1.1-1.73,2.45q.06,25.67,0,51.34c0,.61,0,1.21,0,1.72Zm-11.37,3.88V294.1h-15.9c-3,0-4.28,1.34-4.28,4.33v52.68c0,2.9,1.3,4.2,4.22,4.22h14.6a8.6,8.6,0,0,0,1.35-.09Z"/><path class="cls-2" d="M145.66,344.33a5.7,5.7,0,1,1,5.46,5.93,5.7,5.7,0,0,1-5.46-5.93h0Z"/><path class="cls-2" d="M70.78,438.47a2.89,2.89,0,0,1-2.56,1.87H33.1a2,2,0,0,0-1.28.41l-9.49,7.12c-1.35,1-2.68,2-4.07,3s-2.64.28-2.81-1.33a10.39,10.39,0,0,1-.07-1.12v-7.17c0-.86,0-.86-.83-.86-3.25,0-6.55-.06-9.75,0-1.87,0-3.34-.45-4-2.38v-46.3a8.42,8.42,0,0,1,.87-1.48,2.61,2.61,0,0,1,2-.87H67.23c1.87,0,3.14.58,3.74,2.38V438A3.48,3.48,0,0,1,70.78,438.47Zm-30.28-24a4.59,4.59,0,1,0-4.59,4.59A4.59,4.59,0,0,0,40.5,414.49Zm11.72,4.57a4.59,4.59,0,0,0,4.45-4.68A4.68,4.68,0,0,0,52,409.88a4.58,4.58,0,0,0-4.52,4.65v0A4.54,4.54,0,0,0,52,419.08h.19ZM19.74,409.9a4.68,4.68,0,0,0-4.62,4.58,4.6,4.6,0,0,0,4.59,4.58,4.53,4.53,0,0,0,4.56-4.49s0-.06,0-.09a4.6,4.6,0,0,0-4.54-4.57Z"/><path class="cls-2" d="M368.54,207.44a1.51,1.51,0,0,1-1.34.94H348.92a1,1,0,0,0-.67.22l-4.95,3.74c-.7.52-1.4,1.06-2.12,1.54a.88.88,0,0,1-1.47-.69,5.41,5.41,0,0,1,0-.58v-3.74c0-.45,0-.45-.43-.45H334.2a1.87,1.87,0,0,1-2.09-1.23V183a4.4,4.4,0,0,1,.45-.78,1.37,1.37,0,0,1,1-.46h33.13a1.79,1.79,0,0,1,2,1.24v24.17Zm-15.79-12.5a2.39,2.39,0,1,0-2.39,2.39A2.39,2.39,0,0,0,352.75,194.94Zm6.11,2.38a2.39,2.39,0,0,0,2.32-2.42,2.42,2.42,0,0,0-2.41-2.35,2.39,2.39,0,0,0-2.36,2.42,2.37,2.37,0,0,0,2.38,2.35h.07Zm-16.93-4.78a2.42,2.42,0,0,0-2.4,2.39,2.39,2.39,0,0,0,2.39,2.39A2.37,2.37,0,0,0,344.3,195s0,0,0,0a2.39,2.39,0,0,0-2.36-2.4Z"/><path class="cls-2" d="M342.31,173.47V133.88c.53-1.53,1.63-2,3.22-2h54.35a2.24,2.24,0,0,1,1.7.75,7.22,7.22,0,0,1,.74,1.26v39.59c-.57,1.65-1.81,2.07-3.43,2-2.81-.07-5.56,0-8.34,0-.71,0-.71,0-.71.73v6.14a8.89,8.89,0,0,1-.06.94,1.44,1.44,0,0,1-2.41,1.14c-1.19-.8-2.33-1.67-3.48-2.53l-8.12-6.09a1.71,1.71,0,0,0-1.09-.35h-30a2.48,2.48,0,0,1-2.19-1.61C342.42,173.72,342.35,173.55,342.31,173.47Zm30-16.2a3.93,3.93,0,1,0-3.94-3.93,3.93,3.93,0,0,0,3.94,3.93Zm-9.94-3.86a3.92,3.92,0,0,0-3.85-4h0a3.91,3.91,0,0,0-.15,7.83,3.87,3.87,0,0,0,4-3.75s0-.06,0-.09Zm19.87-.07a3.87,3.87,0,0,0,3.82,3.92h.08a3.94,3.94,0,0,0,3.93-3.92,4,4,0,0,0-3.95-3.92,3.94,3.94,0,0,0-3.9,3.93Z"/><path class="cls-2" d="M210.7,78,205,83.68a1.7,1.7,0,0,1-2.39-2.42l17.55-17.55a1.72,1.72,0,0,1,2.42,2.42L210.7,78"/><path class="cls-2" d="M203.81,84.18a1.71,1.71,0,0,1-1.21-.5l-8.77-8.8a1.72,1.72,0,1,1,2.42-2.42L205,81.23a1.72,1.72,0,0,1-1.21,2.92Z"/><path class="cls-2" d="M207.93,103.69a30.5,30.5,0,1,1,30.5-30.5A30.5,30.5,0,0,1,207.93,103.69Zm0-57.59A27.11,27.11,0,1,0,235,73.21h0A27.11,27.11,0,0,0,207.93,46.1Z"/><path class="cls-2" d="M119.64,56.48l-9.07,9.06a2.72,2.72,0,0,1-3.82-3.87L134.8,33.61a2.74,2.74,0,0,1,3.87,3.87l-19,19"/><path class="cls-2" d="M108.63,66.33a2.73,2.73,0,0,1-1.94-.8l-14-14.08a2.74,2.74,0,1,1,3.87-3.87l14,14a2.74,2.74,0,0,1-1.94,4.67Z"/><path class="cls-2" d="M115.21,97.52A48.76,48.76,0,1,1,164,48.76,48.76,48.76,0,0,1,115.21,97.52Zm0-94a45.23,45.23,0,1,0,45.23,45.23h0A45.23,45.23,0,0,0,115.21,3.56Z"/></g></g></svg>