<svg xmlns="http://www.w3.org/2000/svg" viewBox="0 0 433.67 343.79"><defs><style>.cls-1{fill:#fff;}</style></defs><title>11Asset 1smartcontarcts-main</title><g id="Layer_2" data-name="Layer 2"><g id="Layer_1-2" data-name="Layer 1"><path class="cls-1" d="M84.78,22.56c.87-.55,1.72-1.11,2.6-1.63a16.52,16.52,0,0,1,2.3-1.21c1.89-.74,3.25.19,2.93,2.2A72.58,72.58,0,0,1,90.92,29c-.35,1.31-.86,2.58-1.23,3.88-.27.93.25,1.57,1.13,1.46a9.07,9.07,0,0,0,3.25-1,45.22,45.22,0,0,0,9.94-8c2.84-2.9,2.67-2.29,5-.56a4.71,4.71,0,0,0,5,.63,1.86,1.86,0,0,1,.7-.23c.46,0,1.1-.08,1.33.18a1.68,1.68,0,0,1,.08,1.35,22,22,0,0,1-1,2.4q-1.26,2.88-2.52,5.75l.28.21c.29-.28.61-.54.87-.85,1.95-2.19,3.88-4.41,5.83-6.59a7,7,0,0,1,1.47-1.32c.45-.28,1.18-.6,1.53-.42a2,2,0,0,1,.82,1.48c.09,1.14-.05,2.3-.07,3.46a3.12,3.12,0,0,0,2.38,3.33,16.55,16.55,0,0,0,8.07.56c.63-.1,1.27-.1,2.22-.18-.34.38-.43.55-.55.58a17.12,17.12,0,0,1-10.12-.2c-2.29-.82-3-2.16-2.92-4.58.06-1.17.07-2.34.11-3.9A11.9,11.9,0,0,0,121,27.64c-3.6,3.83-7.21,7.64-9.94,12.18a6.62,6.62,0,0,1-.88,1l-.48-.28L115.4,26a4.07,4.07,0,0,0-.93.13,6,6,0,0,1-6.17-.93c-1.72-1.23-1.43-1.31-3.24.3-3,2.68-6.11,5.31-9.29,7.81a11.47,11.47,0,0,1-3.87,1.88c-2.44.7-3.92-1-3.19-3.45.85-2.84,1.69-5.68,2.46-8.55a12.07,12.07,0,0,0,.08-2.57,11.38,11.38,0,0,0-1.77.62c-3.84,2.18-7.42,4.66-9.87,8.48a18.19,18.19,0,0,1-2.13,2.73c-.27.28-.91.21-1.37.3,0-.43-.21-1,0-1.27a15.44,15.44,0,0,1,2.19-3,31.36,31.36,0,0,0,5.22-6.88c1.64-2.82,3.32-5.6,5-8.41A3.86,3.86,0,0,0,89,11.73c-.41.32-.81.66-1.24,1-3,2.05-6,4.21-9.18,6.09a14.29,14.29,0,0,1-4.46,1.37,1.42,1.42,0,0,0-1.27,1.18,28.16,28.16,0,0,1-2,5,5.62,5.62,0,0,1-4.35,2.76c-2.49.33-4-1.27-3.21-3.68A56.44,56.44,0,0,1,65.5,20.2c.13-.29.31-.57.61-1.11a8.5,8.5,0,0,0-1.58.24c-3.43,1.3-6.89,2.52-10.24,4a7.65,7.65,0,0,0-2.64,2.55c-5.9,8-11.71,16-17.62,24-2.58,3.48-5.24,6.91-8,10.24a9.33,9.33,0,0,1-5.52,3.34c-4.24.8-6.57-1.37-6.31-5.67a18.25,18.25,0,0,1,6.13-12.6A140.87,140.87,0,0,1,45,26.75c2-1.18,4-2.28,6-3.44a3.76,3.76,0,0,0,1-.73q3.77-4.36,7.5-8.75a4.92,4.92,0,0,0,.34-.57c-4.66-.33-9.19-.78-12.33-5.18a48.45,48.45,0,0,1-9,15.5l-.5-.28c.22-.44.41-.9.66-1.32a110.1,110.1,0,0,0,5.73-9.52c1.3-2.71,1.85-5.78,2.76-8.68.22-.7.09-1.89,1.11-1.78S49,3.23,49,4c-.31,3.2.78,5.17,3.86,6.23a27,27,0,0,0,5.56,1.16,6.52,6.52,0,0,0,5.34-1.82A2,2,0,0,1,65,9c.82.07.82,1,0,1.84q-3.8,4.09-7.58,8.2a2.79,2.79,0,0,0-.72,1.36c.48-.17,1-.3,1.44-.5a30.11,30.11,0,0,1,9-2.46c1-.1,2.09-.35,3.13-.35a3.16,3.16,0,0,1,2.55,1.74c.21.31.79.66,1.07.58a28.83,28.83,0,0,0,5.67-2c6.19-3.48,11.41-8,14.74-14.46A21.3,21.3,0,0,1,96,.38c.15-.21.52-.26.79-.38,0,.3.18.64.08.88a21.45,21.45,0,0,1-1.15,2.19Q90.38,12.23,85,21.37c-.18.31-.33.64-.49,1Zm-36.06,4-.19-.18c-.22.11-.44.21-.65.33A149.26,149.26,0,0,0,23.2,44.36a38.17,38.17,0,0,0-4.49,4.77,14.42,14.42,0,0,0-3.15,9.82c.1,2.48,1.26,3.48,3.74,3.35a7.45,7.45,0,0,0,5.38-2.75c2.3-2.7,4.56-5.45,6.62-8.33,5.33-7.46,10.54-15,15.8-22.52C47.61,28,48.17,27.28,48.72,26.57Zm19.36-7.33c-1,1.92-2,3.82-2.87,5.81a6.72,6.72,0,0,0-.05,2.43c.87,0,1.74,0,2.61-.12a1.7,1.7,0,0,0,.74-.42A9.24,9.24,0,0,0,71.75,21a1,1,0,0,0-.52-.75C70.32,19.89,69.36,19.64,68.08,19.24Zm3.65.34c-.65-1.53-1.47-1.89-2.9-1.3Z"/><path class="cls-1" d="M135.43,193.9l-3.22,7-.55-.22a48.74,48.74,0,0,0,2.31-6,8.17,8.17,0,0,0,0-4.68,51.05,51.05,0,0,1-3.23-19c0-11.69-.4-23.44.65-35,.85-9.41,3.5-18.68,5.56-28a15.87,15.87,0,0,1,2.8-5.66c2-2.78,4.91-2.47,5.88.78a34.84,34.84,0,0,1,1,9.13c.48,26.22-1.78,52.11-9.89,77.24a5.62,5.62,0,0,0-.05,3.89c3.79,7,7.48,14.17,11.83,20.87,3.14,4.84,8.11,7.3,14,5.87a13.54,13.54,0,0,0,6.4-3.56c4.21-4.45,6.88-9.93,9.32-15.94-4.56-1.11-6.86-4.07-7.06-8.47-.3-6.38.45-12.59,4.66-17.76,1.64-2,4.06-3.3,6.72-2.31s3.37,3.58,3,6c-1,5.78-2.29,11.51-3.52,17.24a12.45,12.45,0,0,0-.58,4.07,64.35,64.35,0,0,0,8-2.45c4.56-2,7.54-5.92,10.4-9.86a68.13,68.13,0,0,1,4.8-6.16c1.67-1.82,3.34-1.55,4.27.72a60.08,60.08,0,0,1,1.78,6.39,84.32,84.32,0,0,0,2.89,9.69c3.05,7.26,9.17,9.38,16.11,5.55a24.82,24.82,0,0,0,6.54-5.19c4.21-4.78,8.14-9.81,12.08-14.83a12.12,12.12,0,0,0,1.24-3.15,54.59,54.59,0,0,1,2.91-7.13c.49-.87,2.15-1.08,3.28-1.59a12.82,12.82,0,0,1,.2,3.67,16,16,0,0,1-1.8,3.62c-1.69,3.18-1.22,4.84,2.39,5.22,5.14.54,10.46,1,15.52.21,6.54-1,12.91-3.2,19.34-4.9A24.51,24.51,0,0,1,308.68,181c4.81,2.25,9.7,4.67,15.2,4.09,2.78-.3,6-.81,8.09-2.42,5.8-4.45,11.88-5.13,19-4.52,18.12,1.54,36.22,1.65,54-3.56,8.12-2.38,16.59-3.56,24.9-5.29,1.65-.34,3.24-.34,3.68,1.68s-1.32,2.36-2.69,2.66c-13,2.82-26,5.64-39,8.32a47.64,47.64,0,0,1-9.74,1.07c-10.82-.05-21.67.12-32.43-.75-5.8-.47-10.68,0-15.51,3.45-5.16,3.69-11.11,4.13-17.16,2.11a39.22,39.22,0,0,1-6.5-2.39c-8.31-4.54-16.78-4.28-25.5-1.48-7.54,2.42-15.19,4.68-23.25,3.67a41.39,41.39,0,0,1-9.38-2.41c-1.71-.65-2.37-.17-3.34,1-4,4.8-8.07,9.63-12.3,14.27a19.07,19.07,0,0,1-11,6c-4.58.8-8.38-.49-11.19-4.34-3.54-4.84-4.27-10.66-5.73-16.23a32.36,32.36,0,0,0-2-4.57,32,32,0,0,0-3.71,3.33c-2.58,3.12-4.78,6.58-7.52,9.55a18.39,18.39,0,0,1-13,6.29,4.3,4.3,0,0,0-4,2.73,101.53,101.53,0,0,1-7,12c-5.6,7.92-14.61,8.73-21.76,2.15-5.45-5-8.46-11.69-11.92-18C137.27,197.78,136.54,196.15,135.43,193.9Zm.32-4.56c.7-2.27,1.27-4,1.76-5.75,6.89-24.57,8.41-49.68,7.53-75-.07-2.12.45-5.13-2.15-5.59-1-.17-3.21,2.84-3.72,4.71-2.17,8-5.06,16.07-5.57,24.24-1,15.89-.68,31.87-.7,47.81,0,2.54,1.06,5.08,1.69,7.61A10.31,10.31,0,0,0,135.75,189.35Zm48.19-9.07-.62-.16a6.56,6.56,0,0,0,0-2c-.4-1.18-.77-2.94-1.6-3.24s-2.64.31-3.54,1.09c-3.78,3.25-6,15.6-3.79,19.92a4.42,4.42,0,0,0,1.08,1.33c2.29,1.9,3.8,1.56,4.6-1.31C181.45,190.72,182.64,185.48,183.94,180.27Z"/><path class="cls-1" d="M82.63,251.29a10.35,10.35,0,0,1-1.27-3c-.29-3.85-.5-7.73-.48-11.59.07-13,.25-25.91.39-38.87,0-1.14,0-2.28,0-3.95-6.56,1.3-12.77,2.45-18.93,3.83A5.08,5.08,0,0,0,59.88,200c-9.9,14.91-22.32,27.37-36.57,38.12-6.07,4.57-12.64,7.44-20.38,7C2,245,1,244.79,0,244.65l0-1a46.93,46.93,0,0,0,6.59-.85c3.59-1,7.52-1.6,10.53-3.57a138.29,138.29,0,0,0,38.82-38.59,9.54,9.54,0,0,0,.59-1.42c-11.61,2.22-22.28,7.17-34,7.38,2.39-.43,4.83-.69,7.17-1.31,8.86-2.36,17.72-4.76,26.52-7.35a6.89,6.89,0,0,0,3.27-3,176.54,176.54,0,0,0,24.09-62c1.08-5.69,2-11.41,3-17.11a6.78,6.78,0,0,1,.58-2.52,9.28,9.28,0,0,1,2.2-1.77c.44.75,1.27,1.52,1.24,2.25q-.27,7.38-.86,14.75c-.86,10.68-1.88,21.35-2.68,32-.7,9.34-1.19,18.7-1.75,28.06-.06,1.06,0,2.12,0,3.63h3.1c7.83,0,15.67,0,23.5.05a23.27,23.27,0,0,1,3.58.57l-.11,1.12c-1.07,0-2.13,0-3.2,0-7.73-.17-15.46-.39-23.19-.51-4-.06-4.1,0-4.18,4.2-.27,13-.48,25.9-.72,38.86-.07,3.87-.14,7.73-.25,11.6,0,.94-.17,1.87-.26,2.81Zm.74-99.43c-5.29,15.44-12.48,29.84-20.77,44.21,5.78-1.08,11-2.18,16.19-3,1.92-.29,2.55-.91,2.61-2.86.24-7.72.63-15.43,1-23.15C82.67,162,83,156.94,83.37,151.86Z"/><path class="cls-1" d="M48.49,340.1c.31-.13.62-.24.92-.38,1.67-.8,3.35-1.6,5-2.44a1,1,0,0,0,.41-.73c-.09-6-.19-12.09-.33-18.14a11.07,11.07,0,0,0-.52-1.86c-.11-.54-.36-1.22-.14-1.62.82-1.51.81-3.14,1-4.77.31-2.48.89-4.92,1.15-7.4.22-2.06.19-4.14.21-6.22,0-3.62.05-7.23.08-10.85,0-.36.05-.73.08-1.09h.36v13.77l.35.08a13.31,13.31,0,0,0,.61-1.2c1.51-3.87,3-7.76,5.78-11a23.12,23.12,0,0,1,4.32-3.81,4.1,4.1,0,0,1,5.73,1,9.43,9.43,0,0,1,2,5.12c.41,4,.73,7.94-.17,11.85a39.76,39.76,0,0,1-2.1,5.81,1.46,1.46,0,0,0,.13,1.5A9.81,9.81,0,0,1,74.5,311c.87,6-1.86,10.61-5.71,14.75a72.7,72.7,0,0,1-11.19,9.85,1.93,1.93,0,0,0-.93,1.85c.05,1.68,0,3.37,0,5a3,3,0,0,1-.31,1.26c-1.35-1.76-1-3.95-1.56-6-2.13.72-3.9,2.35-6.18,2.63ZM57,311.37l1-.54c1.69-.86,3.35-1.77,5.08-2.55a16.45,16.45,0,0,1,8.57-1.5,1.38,1.38,0,0,0,1-.64,16.27,16.27,0,0,0,2.36-7.3c.11-3.25,0-6.51-.16-9.75a11,11,0,0,0-1.13-4c-1.4-2.89-3.82-3.43-6.46-1.59a16.27,16.27,0,0,0-5.19,5.79c-1.38,2.63-2.57,5.35-3.79,8.05a15.47,15.47,0,0,0-1.44,7.5c.12,1.78,0,3.58,0,5.37C56.92,310.54,57,310.89,57,311.37Zm-.14,24.35c1.63-1.28,3-2.32,4.37-3.44a54.61,54.61,0,0,0,10.39-10.8,14.87,14.87,0,0,0,2.32-11.37,5.39,5.39,0,0,0-.45-1.43c-.5-1-.79-1-1.57-.14a63.41,63.41,0,0,1-5.14,5.3,14.45,14.45,0,0,1-9,3.63c-.79,0-.93.35-.93,1,0,5.23,0,10.46-.07,15.68C56.78,334.58,56.82,335,56.85,335.72Zm0-18.83c5.12.31,13.7-5.25,14.76-9.51a26.38,26.38,0,0,0-3.71,0c-3.87.56-7.24,2.4-10.52,4.42a1.1,1.1,0,0,0-.5.73C56.86,314,56.89,315.4,56.89,316.89Zm-1.45,19.41.43.11a5.6,5.6,0,0,0,.28-1.23c0-5.5,0-11,0-16.51a1.71,1.71,0,0,0,0-.64c-.08-.19-.28-.43-.45-.44s-.42.23-.46.4a4.3,4.3,0,0,0-.06,1.07q.08,7.56.17,15.12C55.34,334.89,55.4,335.6,55.43,336.31ZM56,317.1v-4.16c-.68.4-1.21,2.71-.85,3.62C55.27,316.77,55.66,316.86,56,317.1Zm.08-10.23-.3,0-.51,5.46.41,0C56.63,310.6,55.9,308.69,56.12,306.87Zm0,30.17-.33,0c-.43,1.3.1,2.57.33,3.86Z"/><path class="cls-1" d="M95.39,306.68c-.47.47-.88.9-1.3,1.31-1.89,1.85-3.71,3.78-5.71,5.51A5.91,5.91,0,0,1,83,314.85a3.93,3.93,0,0,1-3.3-4.14c0-.6,0-1.2,0-1.9l-5.09-.23,0-.27a9.6,9.6,0,0,1,1.84-.15c2.18.24,3.87-.09,4.34-2.72A7,7,0,0,1,82.22,303a4.55,4.55,0,0,1,1.18-1.08,2.54,2.54,0,0,1,3.09-.07c.58.56.49,1.76-.27,2.87A7.8,7.8,0,0,1,82,308a1.75,1.75,0,0,0-1.45,2.06c0,2.72,1.23,4.05,3.95,3.83a6.07,6.07,0,0,0,3.23-1.19c2-1.66,3.78-3.59,5.65-5.41.36-.35.66-.76,1-1.08.92-.77,1.54-.67,2.14.39.47.83.94.79,1.47.14,1.26-1.56,2.49-3.15,3.76-4.7,1.72-2.09,2.44-2,3.39.49.68,1.78,2.12,2.32,3.78,2.53a7.42,7.42,0,0,0,4.55-.93c1.23-.66,2.39-1.44,3.63-2.08.29-.15.74,0,1.11,0-.16.31-.24.74-.5.9-2.13,1.3-4.16,2.77-6.76,3.1-3.34.42-5.42-.63-6.89-3.7-.39-.82-.77-.57-1.17-.07-1,1.2-1.9,2.42-2.88,3.61a15,15,0,0,1-1.76,1.87c-1,.87-1.62.72-2.34-.4C95.81,307.2,95.65,307,95.39,306.68Zm-14.28.81A6.69,6.69,0,0,0,85.63,304a3.88,3.88,0,0,0,.11-1.5,4.22,4.22,0,0,0-1.5.12C82.24,303.59,81.76,305.59,81.11,307.49Z"/><path class="cls-1" d="M323.1,291a19.36,19.36,0,0,0,2.19-3.18c1.32-3,2.45-6.17,3.65-9.27a5.88,5.88,0,0,1,.55-1.47c.31-.4.88-.89,1.28-.85s.92.66,1,1.11a31.18,31.18,0,0,0,1.18,4.77c.36-1.23.66-2.48,1.1-3.68a14,14,0,0,1,1.59-3.44,3.3,3.3,0,0,1,2.3-1.43c1.11.1,1.52,1.29,1.55,2.45.05,2.28.1,4.57.24,6.85.12,1.93,1.15,2.53,3,1.73a5.72,5.72,0,0,0,1.83-1.24c3.42-3.58,6.73-7.23,8.44-12a15.85,15.85,0,0,1,1.51-3.14c.23-.36.94-.42,1.43-.62.14.46.5,1,.37,1.36a37.58,37.58,0,0,1-1.91,4.35,15.32,15.32,0,0,0-1.86,6.89,14.52,14.52,0,0,0,2.94-.68,17.19,17.19,0,0,0,6.92-6.41,13.63,13.63,0,0,0,1.74-3.38c1-3.41,3.44-5.87,5.59-8.51a7.42,7.42,0,0,1,1.41-1.28c2.87-2.08,5.14-1.27,6.05,2.61,2.44-2.87,4.84-5.39,6.87-8.17s3.73-5.85,5.58-8.79l.48,0a4.41,4.41,0,0,1,.24,1.64c-1.13,4.23-.69,8.55-.74,12.83,0,.56.37,1.62.56,1.61a3,3,0,0,0,2.12-.61,73.5,73.5,0,0,0,5.49-7.19,70.54,70.54,0,0,0,3.46-6.79,3.37,3.37,0,0,1,.49-1,14.77,14.77,0,0,1,1.57-1.14,5.65,5.65,0,0,1,.92,1.83c.13,1.58,0,3.18.24,4.86a26.51,26.51,0,0,1,1.07-2.45,71.63,71.63,0,0,1,3.92-6.67,3.6,3.6,0,0,1,2.74-1.09c1.27.06,1.45,1.4,1.58,2.44.19,1.47.2,3,.38,4.43a4.61,4.61,0,0,0,.66,1.76c1.3,2.11,3,2.19,4.34.14.91-1.36,1.57-2.89,2.48-4.25.3-.45,1-.63,1.55-.93,0,.59.29,1.29.06,1.76a38.1,38.1,0,0,1-2.75,4.82c-1.88,2.72-5,2.65-7,0-1.29-1.77-1.39-3.84-1.56-5.9-.06-.77-.1-1.53-.15-2.3l-.4-.16a15.67,15.67,0,0,0-1.42,1.54,29.08,29.08,0,0,0-4.73,12.83,7.3,7.3,0,0,1-.47,2c-.19.4-.77,1-1.06.9s-1-.66-1.05-1c-.14-2.86-.17-5.72-.21-8.58a4.22,4.22,0,0,0-.23-1.8c-.35.6-.68,1.21-1.06,1.79-2.07,3.19-4.1,6.42-6.27,9.54a9.77,9.77,0,0,1-2.79,2.57,2.53,2.53,0,0,1-4.09-2c-.28-2.79-.23-5.62-.31-8.43,0-.42,0-.83,0-1.73-.85,1.23-1.4,2.16-2.08,3-2.33,2.76-4.67,5.51-7.08,8.19a7.81,7.81,0,0,0-2,3.66,10.32,10.32,0,0,1-3.57,5.7c-2.44,2.08-5.41,1.74-6.89-.75-1.34,2-2.56,4.16-4.06,6.08a13.91,13.91,0,0,1-7.31,5.1c-2.31.63-3.57-.11-4.18-2.59-.87,1-1.6,1.95-2.43,2.8-1.18,1.21-2.4,2.4-3.67,3.51a4.81,4.81,0,0,1-4.22.87,2.63,2.63,0,0,1-2.24-2.85c0-2.48,0-5,0-7.43l-.83-.15c-.56,1.58-1.19,3.14-1.68,4.74s-.75,3.19-1.28,4.72a2.1,2.1,0,0,1-1.4,1.19c-.36,0-1-.67-1.22-1.18-.47-1.28-.75-2.63-1.2-4.28-.29.7-.47,1.19-.69,1.66-1.13,2.44-2.14,4.95-3.47,7.28a7.55,7.55,0,0,1-2.81,2.67c-1.44.8-2.59,0-2.64-1.7s0-3.6,0-5.7c-.52.36-.86.55-1.15.8a81.31,81.31,0,0,0-12.92,14.67,4,4,0,0,0-.58,2c-.34,8.17-1.28,16.25-3.85,24.06a46.15,46.15,0,0,1-1.94,4.5,6.3,6.3,0,0,1-.75,1.22c-1,1.26-2.13,2.41-3.82,2s-2.08-1.94-2.23-3.48c-.51-5.48-.07-10.84,2.58-15.76,2.52-4.65,5.24-9.2,8-13.72a6.21,6.21,0,0,0,1-3.4q0-20.82,0-41.63,0-2.51,0-5h.89c.15,15.47,0,30.94.12,46.9,1.55-1.93,2.71-3.56,4.06-5,3-3.18,6-6.3,9.11-9.34.59-.57,1.66-.65,2.5-1a10,10,0,0,1,.82,2.41c.13,1.68,0,3.37,0,5.06Zm-18.72,13c-.29.41-.62.8-.88,1.24-1.46,2.46-2.88,4.95-4.36,7.4a28.54,28.54,0,0,0-4.32,17.28c.09,1.25-.28,2.9,1.23,3.29s2.39-1.09,2.89-2.27a79.54,79.54,0,0,0,3.33-9.05A57.86,57.86,0,0,0,304.38,304ZM368,268.29c2.71.31,4.2-1.6,6-2.94a3.58,3.58,0,0,0,1.31-3.67c-.14-1.19-.77-1.52-1.85-1.3C370.66,261,367.65,265.25,368,268.29Zm6.27-1.64L367.85,270c.27.22.65.77,1.12.85C371.2,271.2,373.47,269.31,374.29,266.65Z"/><path class="cls-1" d="M326.65,260.23l-6.88,13.62-.38-.19c1.93-4.74,4.16-9.33,6.54-13.85Z"/><path class="cls-1" d="M293.19,68.18c-3.94,1.5-7.62,3-11.38,4.32-6,2.07-12.1,3.44-18.51,2.88a18.34,18.34,0,0,1-7.49-2A4.08,4.08,0,0,1,254,67.52,50.64,50.64,0,0,1,265.45,53c7.45-6.75,15.4-12.81,24.88-16.5a51.1,51.1,0,0,1,7.26-2.17,6.21,6.21,0,0,1,5.68,1.77,3.75,3.75,0,0,1,1,4.79c-3.67,7-7.79,13.64-14.33,18.39a14.22,14.22,0,0,1-2.5,1.39,3.2,3.2,0,0,1-1.21,0c0-.43-.09-1,.13-1.28a74.28,74.28,0,0,1,4.55-6.18,60.79,60.79,0,0,1,5.91-5.73c-3.69,4-7.94,7.48-10.09,12.89a10.34,10.34,0,0,0,1.45-.56,23,23,0,0,0,7.38-6.65c2.6-3.64,5.07-7.39,7.37-11.23,2.08-3.47.08-6.82-4-6.8a16.49,16.49,0,0,0-5,1,58.22,58.22,0,0,0-14.4,7.1c-6.84,4.67-13.4,9.69-18.69,16.14-2.28,2.78-4.58,5.55-6,8.94a2.83,2.83,0,0,0,1.27,3.91,15.55,15.55,0,0,0,7.22,2A34.77,34.77,0,0,0,274,73.48a78.54,78.54,0,0,0,24-9.68,3.83,3.83,0,0,0,1.32-1.31c-.5.09-1,.15-1.49.29A82.72,82.72,0,0,1,278.09,66a16.14,16.14,0,0,1-1.66-.12l0-.45,1.27,0a84.9,84.9,0,0,0,24.16-4.92c1.05-.36,1.87-1.41,3.15-1.07.44.11,1.08.24,1.2.53a1.39,1.39,0,0,1-.46,1.23c-1.83,1.39-3.72,2.7-5.6,4-7.76,5.45-14.66,11.9-21.55,18.36-4.48,4.21-8.81,8.58-13.21,12.88a4.5,4.5,0,0,1-1,.91,2.88,2.88,0,0,1-1.12,0,8.21,8.21,0,0,1,.09-1.13c0-.16.24-.29.37-.42,8.93-9.12,18.13-18,27.9-26.18C292.12,69.24,292.57,68.77,293.19,68.18Z"/><path class="cls-1" d="M374.08,76.4c-.41.18-.81.37-1.22.54a10.19,10.19,0,0,1-7.17.66,6,6,0,0,1-1.45-.68c-1.15-.75-1.49-1.95-.54-2.9a16.83,16.83,0,0,1,4.05-3.12,10.71,10.71,0,0,1,11.26.27,2.58,2.58,0,0,1,1.5,2.22l-1.73-1.28-2,3.52a4.88,4.88,0,0,0,.89-.2,64,64,0,0,1,15.9-4.89,15,15,0,0,0,2.27-1,9.64,9.64,0,0,1,2.66-.81c.95-.05,1.3.77.65,1.48a3.41,3.41,0,0,1-1.92,1.08c-1.86.21-2.63,1.46-3.08,3s.4,2.7,1.45,3.65a20.41,20.41,0,0,0,10,4.88l1.71.33v.36a5.52,5.52,0,0,1-1.1.1,19.53,19.53,0,0,1-11.34-5.06c-2-1.86-2.26-3.16-1.43-6.29a5.05,5.05,0,0,0-.78,0A56.26,56.26,0,0,0,376,78.2a4.32,4.32,0,0,0-1.56,1.57c-2.49,4.37-4.86,8.8-7.37,13.15a15.41,15.41,0,0,1-2.74,3.5,6.92,6.92,0,0,1-2.82,1.4A2,2,0,0,1,359,96.23a5.22,5.22,0,0,1,.34-3.58,28.07,28.07,0,0,1,13.18-14.49,16.22,16.22,0,0,0,1.85-1.38Zm-2.43,4.75-.19-.15-.48.28c-4.63,2.77-7.61,6.93-9.81,11.73a6.19,6.19,0,0,0-.51,1.87c-.12,1.1.59,1.61,1.47.95A10.83,10.83,0,0,0,364.91,93c2.18-3.57,4.19-7.24,6.25-10.88C371.35,81.83,371.49,81.49,371.65,81.15Zm5.53-10a27.53,27.53,0,0,0-3.11-.52,11,11,0,0,0-7.81,2.82,10.53,10.53,0,0,0-1.44,1.9,8.68,8.68,0,0,0,2.35,1C371.39,76.72,374.5,74.74,377.17,71.17Z"/><path class="cls-1" d="M316.56,65.36c3.72-.52,6-2.86,7.59-6,.66-1.28.28-2.13-1.12-2.46l-.22-.06c-4.15-.71-9.92,2.79-11.2,6.8a2.6,2.6,0,0,0,1.93,3.44,13.81,13.81,0,0,0,4.3.4,26.86,26.86,0,0,0,15.72-6.63,9.41,9.41,0,0,1,4.24-1.93,2.57,2.57,0,0,0,1.14-.6,3.46,3.46,0,0,1,4.11-.8,14,14,0,0,1,5.86,4.3,2.1,2.1,0,0,0,1.65.66c2.74-.35,5.46-.84,8.18-1.27a22.69,22.69,0,0,1,2.85-.36c.41,0,1.08.24,1.2.54a1.76,1.76,0,0,1-.23,1.44c-.86,1.17-1.91,2.2-2.77,3.37s-1.57,2.43-2.34,3.65l.24.23c.33-.27.67-.53,1-.81l3.15-2.84c2.6-2.32,5.65-2.52,8.85-1.78.33.08.57.56.85.85a3.39,3.39,0,0,1-1.12.48,9.39,9.39,0,0,1-1.81-.25,6.87,6.87,0,0,0-6.2,1.71c-2.65,2.54-5.17,5.2-7.79,7.78a9.27,9.27,0,0,1-1.58,1,7.08,7.08,0,0,1,.42-1.83q2.44-4.56,5-9a29.55,29.55,0,0,1,2.07-2.76l-1.39.18c-3,.45-5.91.9-8.86,1.39a1.11,1.11,0,0,0-.74.61,12.42,12.42,0,0,1-6.58,7.29,15.12,15.12,0,0,1-3.06,1c-3.44.9-6.15-.44-8.41-2.9a4.25,4.25,0,0,1-.65-5.3,2.33,2.33,0,0,0,.31-1.18l-1.05.53A30.06,30.06,0,0,1,316.7,68a7,7,0,0,1-4.56-1.25,2.48,2.48,0,0,1-1.07-3.2c1.13-3,2.87-5.45,6-6.51a37.37,37.37,0,0,1,4-1,5.4,5.4,0,0,1,1.83-.07c2.05.28,2.83,1.73,1.91,3.55A10.88,10.88,0,0,1,319,65.1a17,17,0,0,1-2.36.56Zm31.56-1.09c-.74,0-1.19,0-1.64-.09-3.19-.26-6-1.3-7.79-4.15a1.17,1.17,0,0,0-1-.25,9.11,9.11,0,0,0-6,6,3,3,0,0,0,.6,3.22c1.87,2.08,4.1,3.38,7,2.69a15.53,15.53,0,0,0,3.26-1.08C345.15,69.35,346.78,67.13,348.12,64.27ZM347,62.49l.24-.47-5.51-3.51,0,1-1.43.13C342.3,61.55,344.39,62.64,347,62.49Z"/></g></g></svg>