<svg xmlns="http://www.w3.org/2000/svg" viewBox="0 0 306.23 224.6"><defs><style>.cls-1{fill:#fff;}</style></defs><title>11Asset 3smartcontarcts-right</title><g id="Layer_2" data-name="Layer 2"><g id="Layer_1-2" data-name="Layer 1"><path class="cls-1" d="M216.79,42.64c1.14-1.32,2.25-2.66,3.43-3.95a28.09,28.09,0,0,1,3.14-3.11c2.71-2.14,5.37-1.3,5.85,2.14A123.43,123.43,0,0,1,230,50.08c.09,2.31-.12,4.62-.08,6.93,0,1.65,1.18,2.44,2.56,1.82a15.42,15.42,0,0,0,4.82-3.16A76.9,76.9,0,0,0,249.5,37.78c3.19-6.12,3.22-5,7.92-3.4a8,8,0,0,0,8.47-1.46,3.16,3.16,0,0,1,1-.73c.75-.23,1.75-.68,2.26-.38A2.85,2.85,0,0,1,270,34a37.41,37.41,0,0,1-.42,4.39c-.41,3.54-.84,7.07-1.26,10.61l.57.21c.34-.6.72-1.18,1-1.81C272,42.85,274,38.3,276.1,33.77a11.93,11.93,0,0,1,1.73-2.88c.6-.68,1.63-1.57,2.29-1.44a3.49,3.49,0,0,1,2.06,2c.71,1.82,1.06,3.78,1.6,5.66.82,2.85,2.56,4.13,5.52,4.25a28.14,28.14,0,0,0,13.4-3.09c1-.47,2-.8,3.52-1.38-.38.78-.42,1.11-.6,1.22-5.1,3-10.55,5-16.57,4.69-4.13-.21-6-2-7-6-.48-1.93-1.05-3.85-1.76-6.41a20.24,20.24,0,0,0-2,2.58c-4,8-7.95,16-10.16,24.73a11.26,11.26,0,0,1-1,2l-.92-.22,2.05-26.33a6.92,6.92,0,0,0-1.44.67c-3.2,2.66-6.73,2.81-10.5,1.53-3.4-1.15-3-1.43-5.13,2.08C247.68,43.31,244,49.11,240,54.75a19.5,19.5,0,0,1-5.36,5c-3.62,2.35-6.87.3-6.89-4,0-5-.05-10.08-.23-15.12a20.53,20.53,0,0,0-1.15-4.21,19.36,19.36,0,0,0-2.58,1.88C218.63,43.68,214,49.49,212,56.91a30.94,30.94,0,0,1-2.11,5.49c-.3.59-1.37.79-2.09,1.18-.24-.69-.82-1.48-.66-2.06a26.26,26.26,0,0,1,2.1-5.91,53.33,53.33,0,0,0,5.09-13.78c1.27-5.39,2.64-10.76,3.95-16.14a6.57,6.57,0,0,0,.14-2.77c-.51.72-1,1.48-1.55,2.17-3.94,4.85-7.73,9.83-11.93,14.44-1.73,1.91-4.26,3.17-6.59,4.43a2.42,2.42,0,0,0-1.49,2.56,47.9,47.9,0,0,1-.83,9.14,9.56,9.56,0,0,1-5.72,6.64c-3.89,1.77-7.1-.1-7-4.4a96,96,0,0,1,1-9.57c.06-.54.22-1.08.44-2.11a14.46,14.46,0,0,0-2.46,1.17c-4.94,3.81-10,7.51-14.68,11.58-1.49,1.28-2.34,3.51-3,5.46-5.66,15.89-11.15,31.83-16.82,47.71-2.48,6.94-5.11,13.83-8,20.62a15.87,15.87,0,0,1-7.33,8.17c-6.5,3.39-11.37,1-13.07-6.1-2-8.43-.47-16.23,3.75-23.53A239.58,239.58,0,0,1,154.22,69.1c2.66-2.9,5.43-5.71,8.13-8.58a6.4,6.4,0,0,0,1.25-1.67c2.66-6,5.27-12,7.88-18a8.37,8.37,0,0,0,.27-1.1c-7.75,1.76-15.34,3.27-22.62-2.33-.34,10.68-3,20.34-6.92,29.66l-.95-.21c.14-.82.22-1.67.42-2.47,1.57-6.1,3.67-12.12,4.61-18.32.77-5.06.16-10.32.19-15.49,0-1.25-.79-3.13.93-3.44s1.68,1.67,1.93,2.89c1.07,5.36,3.82,8,9.35,8.23a46,46,0,0,0,9.62-.86,11.1,11.1,0,0,0,7.8-5.61,3.32,3.32,0,0,1,1.81-1.55c1.37-.29,1.83,1.23,1,3q-4.15,8.54-8.27,17.09a4.75,4.75,0,0,0-.5,2.57c.7-.51,1.44-1,2.1-1.53a51.2,51.2,0,0,1,13.5-8.48c1.66-.68,3.23-1.61,4.93-2.12,1.92-.58,3.51.37,5,1.57a2.31,2.31,0,0,0,2,.41c2.83-1.91,5.91-3.65,8.24-6.08C214.27,28,220.52,18,222.74,5.87A36.23,36.23,0,0,1,224.08,1c.14-.41.73-.68,1.11-1,.2.47.62,1,.56,1.39A36.47,36.47,0,0,1,225,5.53q-4.16,17.53-8.34,35.06c-.14.59-.22,1.2-.32,1.8ZM160.11,67l-.39-.2c-.3.29-.62.56-.9.87a253.84,253.84,0,0,0-31.44,40.89,64.92,64.92,0,0,0-4.95,10,24.52,24.52,0,0,0-.28,17.54c1.39,4,3.77,5,7.74,3.6a12.67,12.67,0,0,0,7.4-7.13c2.41-5.53,4.72-11.12,6.65-16.83,5-14.78,9.72-29.64,14.58-44.46C159,69.84,159.57,68.43,160.11,67ZM188,45.51c-.62,3.6-1.41,7.22-1.8,10.88-.13,1.27.72,2.65,1.12,4,1.4-.49,2.81-.93,4.18-1.49a2.89,2.89,0,0,0,1-1.06c2.43-3.4,2.75-7.27,2.34-11.25,0-.38-.77-.94-1.22-1C191.95,45.46,190.27,45.52,188,45.51Zm6.11-1.25c-1.81-2.17-3.33-2.35-5.36-.68Z"/><path class="cls-1" d="M39.79,194.89c-3.94,1.5-7.62,3-11.38,4.32-6,2.07-12.1,3.44-18.51,2.88a18.34,18.34,0,0,1-7.49-2,4.08,4.08,0,0,1-1.83-5.85A50.64,50.64,0,0,1,12.06,179.7c7.45-6.75,15.4-12.81,24.88-16.5A51.1,51.1,0,0,1,44.2,161a6.21,6.21,0,0,1,5.68,1.77,3.75,3.75,0,0,1,1,4.79c-3.67,7-7.79,13.64-14.33,18.39a14.22,14.22,0,0,1-2.5,1.39,3.2,3.2,0,0,1-1.21,0c0-.43-.09-1,.13-1.28a74.28,74.28,0,0,1,4.55-6.18,60.79,60.79,0,0,1,5.91-5.73c-3.69,4-7.94,7.48-10.09,12.89a10.34,10.34,0,0,0,1.45-.56,23,23,0,0,0,7.38-6.65c2.6-3.64,5.07-7.39,7.37-11.23,2.08-3.47.08-6.82-4-6.8a16.49,16.49,0,0,0-5,1,58.22,58.22,0,0,0-14.4,7.1c-6.84,4.67-13.4,9.69-18.69,16.14-2.28,2.78-4.58,5.55-6,8.94a2.83,2.83,0,0,0,1.27,3.91,15.55,15.55,0,0,0,7.22,2,34.77,34.77,0,0,0,10.63-.76,78.54,78.54,0,0,0,24-9.68,3.83,3.83,0,0,0,1.32-1.31c-.5.09-1,.15-1.49.29a82.72,82.72,0,0,1-19.71,3.23,16.14,16.14,0,0,1-1.66-.12l0-.45,1.27,0a84.9,84.9,0,0,0,24.16-4.92c1.05-.36,1.87-1.41,3.15-1.07.44.11,1.08.24,1.2.53a1.39,1.39,0,0,1-.46,1.23c-1.83,1.39-3.72,2.7-5.6,4C39,197.35,32.1,203.8,25.22,210.27c-4.48,4.21-8.81,8.58-13.21,12.88a4.5,4.5,0,0,1-1,.91,2.88,2.88,0,0,1-1.12,0A8.21,8.21,0,0,1,10,223c0-.16.24-.29.37-.42,8.93-9.12,18.13-18,27.9-26.18C38.72,195.95,39.17,195.48,39.79,194.89Z"/><path class="cls-1" d="M120.68,203.11c-.41.18-.81.37-1.22.54a10.19,10.19,0,0,1-7.17.66,6,6,0,0,1-1.45-.68c-1.15-.75-1.49-1.95-.54-2.9a16.83,16.83,0,0,1,4.05-3.12,10.71,10.71,0,0,1,11.26.27,2.58,2.58,0,0,1,1.5,2.22l-1.73-1.28-2,3.52a4.88,4.88,0,0,0,.89-.2,64,64,0,0,1,15.9-4.89,15,15,0,0,0,2.27-1,9.64,9.64,0,0,1,2.66-.81c.95-.05,1.3.77.65,1.48a3.41,3.41,0,0,1-1.92,1.08c-1.86.21-2.63,1.46-3.08,3s.4,2.7,1.45,3.65a20.41,20.41,0,0,0,10,4.88l1.71.33v.36a5.52,5.52,0,0,1-1.1.1,19.53,19.53,0,0,1-11.34-5.06c-2-1.86-2.26-3.16-1.43-6.29a5.05,5.05,0,0,0-.78,0,56.26,56.26,0,0,0-16.63,5.91,4.32,4.32,0,0,0-1.56,1.57c-2.49,4.37-4.86,8.8-7.37,13.15a15.41,15.41,0,0,1-2.74,3.5,6.92,6.92,0,0,1-2.82,1.4,2,2,0,0,1-2.52-1.58,5.22,5.22,0,0,1,.34-3.58,28.07,28.07,0,0,1,13.18-14.49A16.22,16.22,0,0,0,121,203.5Zm-2.43,4.75-.19-.15-.48.28c-4.63,2.77-7.61,6.93-9.81,11.73a6.19,6.19,0,0,0-.51,1.87c-.12,1.1.59,1.61,1.47.95a10.83,10.83,0,0,0,2.79-2.81c2.18-3.57,4.19-7.24,6.25-10.88C117.95,208.54,118.09,208.19,118.25,207.86Zm5.53-10a27.53,27.53,0,0,0-3.11-.52,11,11,0,0,0-7.81,2.82,10.53,10.53,0,0,0-1.44,1.9,8.68,8.68,0,0,0,2.35,1C118,203.43,121.1,201.44,123.77,197.88Z"/><path class="cls-1" d="M63.17,192.07c3.72-.52,6-2.86,7.59-6,.66-1.28.28-2.13-1.12-2.46l-.22-.06c-4.15-.71-9.92,2.79-11.2,6.8a2.6,2.6,0,0,0,1.93,3.44,13.81,13.81,0,0,0,4.3.4,26.86,26.86,0,0,0,15.72-6.63,9.41,9.41,0,0,1,4.24-1.93,2.57,2.57,0,0,0,1.14-.6,3.46,3.46,0,0,1,4.11-.8,14,14,0,0,1,5.86,4.3,2.1,2.1,0,0,0,1.65.66c2.74-.35,5.46-.84,8.18-1.27a22.69,22.69,0,0,1,2.85-.36c.41,0,1.08.24,1.2.54a1.76,1.76,0,0,1-.23,1.44c-.86,1.17-1.91,2.2-2.77,3.37s-1.57,2.43-2.34,3.65l.24.23c.33-.27.67-.53,1-.81l3.15-2.84c2.6-2.32,5.65-2.52,8.85-1.78.33.08.57.56.85.85a3.39,3.39,0,0,1-1.12.48,9.39,9.39,0,0,1-1.81-.25,6.87,6.87,0,0,0-6.2,1.71c-2.65,2.54-5.17,5.2-7.79,7.78a9.27,9.27,0,0,1-1.58,1,7.08,7.08,0,0,1,.42-1.83q2.44-4.56,5-9a29.55,29.55,0,0,1,2.07-2.76l-1.39.18c-3,.45-5.91.9-8.86,1.39a1.11,1.11,0,0,0-.74.61,12.42,12.42,0,0,1-6.58,7.29,15.12,15.12,0,0,1-3.06,1c-3.44.9-6.15-.44-8.41-2.9a4.25,4.25,0,0,1-.65-5.3,2.33,2.33,0,0,0,.31-1.18l-1.05.53a30.06,30.06,0,0,1-13.37,3.85,7,7,0,0,1-4.56-1.25,2.48,2.48,0,0,1-1.07-3.2c1.13-3,2.87-5.45,6-6.51a37.37,37.37,0,0,1,4-1,5.4,5.4,0,0,1,1.83-.07c2.05.28,2.83,1.73,1.91,3.55a10.88,10.88,0,0,1-5.84,5.57,17,17,0,0,1-2.36.56ZM94.73,191c-.74,0-1.19,0-1.64-.09-3.19-.26-6-1.3-7.79-4.15a1.17,1.17,0,0,0-1-.25,9.11,9.11,0,0,0-6,6,3,3,0,0,0,.6,3.22c1.87,2.08,4.1,3.38,7,2.69a15.53,15.53,0,0,0,3.26-1.08C91.75,196.05,93.38,193.84,94.73,191Zm-1.15-1.78.24-.47-5.51-3.51,0,1-1.43.13C88.91,188.26,91,189.34,93.58,189.2Z"/></g></g></svg>