<svg xmlns="http://www.w3.org/2000/svg" viewBox="0 0 233.57 195.4"><defs><style>.cls-1{fill:#fff;}</style></defs><title>11Asset 2smartcontarcts-left</title><g id="Layer_2" data-name="Layer 2"><g id="Layer_1-2" data-name="Layer 1"><path class="cls-1" d="M50.59,34.9l-1.2,2.63-.2-.08A18.21,18.21,0,0,0,50,35.2a3.05,3.05,0,0,0,0-1.75,19.07,19.07,0,0,1-1.21-7.1c0-4.37-.15-8.76.24-13.09A83.58,83.58,0,0,1,51.17,2.82a5.93,5.93,0,0,1,1-2.11c.76-1,1.84-.92,2.19.29a13,13,0,0,1,.39,3.41c.18,9.8-.66,19.46-3.69,28.85a2.1,2.1,0,0,0,0,1.45c1.41,2.63,2.8,5.29,4.42,7.8a4.69,4.69,0,0,0,5.25,2.19,5.06,5.06,0,0,0,2.39-1.33,18.47,18.47,0,0,0,3.48-6A3.16,3.16,0,0,1,64,34.26a9.32,9.32,0,0,1,1.74-6.63,2.2,2.2,0,0,1,2.51-.86A1.9,1.9,0,0,1,69.34,29c-.36,2.16-.86,4.3-1.31,6.44A4.65,4.65,0,0,0,67.81,37a24,24,0,0,0,3-.92,10.2,10.2,0,0,0,3.88-3.68,25.45,25.45,0,0,1,1.79-2.3c.62-.68,1.25-.58,1.6.27a22.44,22.44,0,0,1,.67,2.39,31.5,31.5,0,0,0,1.08,3.62c1.14,2.71,3.43,3.5,6,2.07a9.27,9.27,0,0,0,2.44-1.94c1.57-1.78,3-3.67,4.51-5.54a4.53,4.53,0,0,0,.46-1.18,20.39,20.39,0,0,1,1.09-2.66c.18-.33.8-.4,1.23-.6a4.79,4.79,0,0,1,.08,1.37A6,6,0,0,1,95,29.24c-.63,1.19-.46,1.81.89,1.95a23.14,23.14,0,0,0,5.8.08,69.31,69.31,0,0,0,7.22-1.83,9.16,9.16,0,0,1,6.42.64c1.8.84,3.62,1.75,5.68,1.53a6.2,6.2,0,0,0,3-.9c2.17-1.66,4.44-1.92,7.11-1.69,6.77.58,13.53.62,20.18-1.33,3-.89,6.2-1.33,9.3-2,.62-.13,1.21-.13,1.38.63s-.49.88-1,1c-4.85,1.05-9.7,2.11-14.56,3.11a17.8,17.8,0,0,1-3.64.4c-4,0-8.09,0-12.11-.28a8.07,8.07,0,0,0-5.79,1.29,6.86,6.86,0,0,1-6.41.79,14.65,14.65,0,0,1-2.43-.89c-3.1-1.7-6.27-1.6-9.53-.55-2.82.91-5.67,1.75-8.68,1.37a15.46,15.46,0,0,1-3.5-.9.92.92,0,0,0-1.25.37c-1.51,1.79-3,3.6-4.59,5.33a7.12,7.12,0,0,1-4.1,2.26A4,4,0,0,1,80.18,38c-1.32-1.81-1.6-4-2.14-6.06a12.09,12.09,0,0,0-.73-1.71,12,12,0,0,0-1.39,1.24c-1,1.17-1.79,2.46-2.81,3.57a6.87,6.87,0,0,1-4.84,2.35,1.61,1.61,0,0,0-1.48,1,37.93,37.93,0,0,1-2.62,4.48c-2.09,3-5.46,3.26-8.13.8-2-1.87-3.16-4.37-4.45-6.74C51.28,36.35,51,35.74,50.59,34.9Zm.12-1.7c.26-.85.47-1.49.66-2.15,2.57-9.18,3.14-18.56,2.81-28,0-.79.17-1.91-.8-2.09C53,.87,52.18,2,52,2.69c-.81,3-1.89,6-2.08,9.06-.38,5.94-.25,11.9-.26,17.86a12.08,12.08,0,0,0,.63,2.84A3.85,3.85,0,0,0,50.71,33.2Zm18-3.39-.23-.06a2.45,2.45,0,0,0,0-.75c-.15-.44-.29-1.1-.6-1.21a1.65,1.65,0,0,0-1.32.41c-1.41,1.21-2.25,5.83-1.42,7.44a1.65,1.65,0,0,0,.4.5c.86.71,1.42.58,1.72-.49C67.78,33.71,68.23,31.75,68.71,29.81Z"/><path class="cls-1" d="M30.87,56.33a3.87,3.87,0,0,1-.47-1.13c-.11-1.44-.19-2.89-.18-4.33,0-4.84.1-9.68.15-14.52,0-.43,0-.85,0-1.47-2.45.49-4.77.92-7.07,1.43a1.9,1.9,0,0,0-.92.84A58.12,58.12,0,0,1,8.71,51.4,11.32,11.32,0,0,1,1.1,54c-.36,0-.72-.11-1.08-.16v-.36a17.53,17.53,0,0,0,2.46-.32A13.73,13.73,0,0,0,6.4,51.84,51.66,51.66,0,0,0,20.9,37.43a3.56,3.56,0,0,0,.22-.53c-4.34.83-8.32,2.68-12.69,2.76.89-.16,1.8-.26,2.68-.49,3.31-.88,6.62-1.78,9.91-2.75a2.57,2.57,0,0,0,1.22-1.1,66,66,0,0,0,9-23.17c.4-2.13.76-4.26,1.14-6.39a2.53,2.53,0,0,1,.22-.94,3.47,3.47,0,0,1,.82-.66c.16.28.47.57.46.84q-.1,2.76-.32,5.51c-.32,4-.7,8-1,12-.26,3.49-.44,7-.65,10.48,0,.39,0,.79,0,1.36H33c2.93,0,5.85,0,8.78,0a8.69,8.69,0,0,1,1.34.21l0,.42H41.92c-2.89-.06-5.77-.15-8.66-.19-1.51,0-1.53,0-1.56,1.57-.1,4.84-.18,9.68-.27,14.51,0,1.44-.05,2.89-.09,4.33,0,.35-.06.7-.1,1Zm.28-37.14a94,94,0,0,1-7.76,16.51c2.16-.41,4.09-.81,6-1.11.72-.11,1-.34,1-1.07.09-2.88.23-5.76.38-8.65C30.88,23,31,21.09,31.14,19.19Z"/><path class="cls-1" d="M73.77,154.62c1.82-.59,3.81-.89,5.44-1.82,4.29-2.43,8.42-5.13,12.62-7.74a8.73,8.73,0,0,1,2-1.25,2.86,2.86,0,0,1,2.27.13,2.45,2.45,0,0,1,.21,2.23,46.33,46.33,0,0,0-2.87,6.71c1.53-1.14,3-2.36,4.6-3.38a20.85,20.85,0,0,1,5-2.66c1.23-.38,3.2-.38,4,.36,1.22,1.12.66,2.89-.35,4.3-2,2.76-4,5.51-5.85,8.34-1.59,2.4-.9,4,2,4.72a8.49,8.49,0,0,0,3.27.17c7.25-1.19,14.45-2.56,20.76-6.71a23.55,23.55,0,0,1,4.6-2.37c.6-.23,1.49.33,2.25.54-.25.67-.3,1.64-.78,1.95a55.83,55.83,0,0,1-6.15,3.45,22.76,22.76,0,0,0-8.37,6.51,21.58,21.58,0,0,0,4.1,1.82,25.54,25.54,0,0,0,13.94-1.42,20.25,20.25,0,0,0,5.09-2.45c4.28-3.11,9.33-3.88,14.24-5.1a11,11,0,0,1,2.82-.25c5.26.1,7.24,3.08,4.85,8.51,5.46-1.22,10.56-2.07,15.46-3.55s9.66-3.6,14.48-5.44l.54.47c-.39.73-.59,1.7-1.19,2.16-5.13,4-8.47,9.52-12.35,14.57-.51.67-1,2.24-.78,2.41.86.64,2.15,1.38,3.06,1.17a109.19,109.19,0,0,0,12.94-3.62c3.52-1.3,6.8-3.27,10.18-5a5,5,0,0,1,1.46-.73,21.94,21.94,0,0,1,2.88.05c-.16,1,0,2.2-.55,3-1.26,2-2.79,3.82-4.07,6a39.39,39.39,0,0,1,3.45-2,106.42,106.42,0,0,1,10.61-4.41,5.34,5.34,0,0,1,4.22,1.16c1.46,1.21.47,3-.3,4.31-1.09,1.91-2.41,3.69-3.51,5.6a6.85,6.85,0,0,0-.79,2.68c-.35,3.66,1.55,5.24,5,4,2.3-.79,4.45-2,6.74-2.83.76-.27,1.78.17,2.67.28-.49.73-.82,1.79-1.5,2.14A56.61,56.61,0,0,1,224.5,195c-4.67,1.54-8.33-1.36-8.26-6.32,0-3.25,1.79-5.8,3.43-8.39.61-1,1.26-1.91,1.89-2.86l-.33-.55a23.28,23.28,0,0,0-3.07.56c-6.67,2.13-12.15,6.13-17.09,11a10.85,10.85,0,0,1-2.34,1.94c-.58.31-1.77.45-2.07.12a2.33,2.33,0,0,1-.32-2.18c2.39-3.52,4.92-6.94,7.43-10.37a6.27,6.27,0,0,0,1.34-2.35c-.95.39-1.89.83-2.85,1.18-5.31,1.93-10.6,4-16,5.7a14.52,14.52,0,0,1-5.6.55c-3.28-.28-4.83-3.16-3.09-6,2.17-3.56,4.75-6.86,7.16-10.27.36-.5.74-1,1.54-2.05-2.12.7-3.59,1.31-5.13,1.66-5.23,1.19-10.47,2.36-15.73,3.39a11.6,11.6,0,0,0-5.68,2.52,15.34,15.34,0,0,1-9.33,3.57c-4.75.28-8-2.77-7.51-7.05-3.41,1.21-6.76,2.65-10.25,3.58a20.66,20.66,0,0,1-13.24-.48c-3.31-1.32-4.14-3.32-2.64-6.81-1.93.42-3.64.88-5.38,1.14-2.49.38-5,.71-7.5.88a7.14,7.14,0,0,1-5.79-2.75A3.91,3.91,0,0,1,98,159q3.31-4.42,6.64-8.82l-.85-.92c-2.08,1.37-4.21,2.67-6.23,4.12s-3.73,3.12-5.75,4.46a3.11,3.11,0,0,1-2.73.16c-.47-.26-.63-1.72-.4-2.49.58-1.94,1.46-3.78,2.41-6.15-1,.57-1.62,1-2.3,1.36-3.52,1.88-7,4-10.62,5.54a11.22,11.22,0,0,1-5.72.65c-2.42-.33-3-2.37-1.6-4.38,1.56-2.17,3.21-4.28,5.08-6.77-.95,0-1.51-.11-2.07-.08-9.76.61-19.17,3-28.46,5.85a5.87,5.87,0,0,0-2.52,1.91c-7.72,9.39-16,18.14-26.08,25.1a68.56,68.56,0,0,1-6.33,3.6,9.36,9.36,0,0,1-2,.78c-2.27.63-4.69,1-6.35-1s-.74-4.16.47-6.12c4.29-7,9.61-12.93,17.15-16.39,7.15-3.27,14.45-6.22,21.75-9.14a9.22,9.22,0,0,0,4.23-3.13Q64.35,122.39,83,97.74l4.48-5.94,1.06.8c-13.65,18.49-27.67,36.71-41.8,55.75,3.57-.9,6.39-1.8,9.28-2.3,6.37-1.11,12.76-2.11,19.17-2.93,1.21-.16,2.55.71,3.83,1.1a14.9,14.9,0,0,1-1.19,3.59c-1.35,2.11-3,4-4.48,6ZM40,153.27c-.72.22-1.46.4-2.15.68-3.93,1.61-7.84,3.3-11.79,4.88A42.4,42.4,0,0,0,5.43,175.47c-1,1.56-2.92,3.19-1.48,5s3.81.85,5.46-.11a118.18,118.18,0,0,0,12-7.76A86,86,0,0,0,40,153.27Zm107.45,14.55c2.94,2.79,6.42,1.85,9.75,1.87,2.36,0,3.73-1.29,4.83-3.18.9-1.54.44-2.5-1-3.19C157.07,161.49,149.68,163.89,147.41,167.82Zm8.9,3.66-10.61-1.82c.13.5.09,1.5.57,2C148.57,174.11,153,173.9,156.31,171.48Z"/><path class="cls-1" d="M105.52,121.26l-20.35,10-.28-.57c6.52-3.9,13.28-7.35,20.14-10.58Z"/></g></g></svg>