<svg xmlns="http://www.w3.org/2000/svg" viewBox="0 0 440 38.4"><defs><style>.cls-1{fill:#ddbe22;}</style></defs><title>11Asset 4cryptography-img4</title><g id="Layer_2" data-name="Layer 2"><g id="Layer_1-2" data-name="Layer 1"><path class="cls-1" d="M14.12,9.16h5.29v26a3.23,3.23,0,0,1-.9,2.35,3.12,3.12,0,0,1-2.33.92H3.78v-5H13q1.13,0,1.13-1.26V27h-.76q-1.39,3.61-6,3.61a8.18,8.18,0,0,1-2.9-.5,6.27,6.27,0,0,1-2.35-1.55A7.3,7.3,0,0,1,.57,25.9,11,11,0,0,1,0,22.18v-13H5.29V21.09a5.2,5.2,0,0,0,1.05,3.47,3.9,3.9,0,0,0,3.15,1.24A4,4,0,0,0,13,24.26a7,7,0,0,0,1.11-4.18Z"/><path class="cls-1" d="M44.32,12.18H38.44L34.62,3.36h-.76L30,12.18H24.16L29.78.59h8.91Z"/><path class="cls-1" d="M69.44,24.7V30H48.77V24.2a10.11,10.11,0,0,1,.69-3.95,7.6,7.6,0,0,1,2-2.77,10.68,10.68,0,0,1,3.09-1.87,25.49,25.49,0,0,1,4.07-1.24,14.61,14.61,0,0,0,2.75-.86,5.93,5.93,0,0,0,1.7-1.09,3.2,3.2,0,0,0,.86-1.34,5.54,5.54,0,0,0,.23-1.66,3.83,3.83,0,0,0-1.28-2.94,5.06,5.06,0,0,0-3.55-1.18,5.12,5.12,0,0,0-3.82,1.45,5.47,5.47,0,0,0-1.43,4V12.6H48.52V10.25a10.63,10.63,0,0,1,.74-3.93A9.65,9.65,0,0,1,54.7.82,11.52,11.52,0,0,1,59.15,0a12.58,12.58,0,0,1,4.62.78,10,10,0,0,1,3.3,2,8.07,8.07,0,0,1,2,2.92,9.3,9.3,0,0,1,.65,3.42v.5a9.12,9.12,0,0,1-2.08,6.13q-2.08,2.44-6.78,3.53a26.88,26.88,0,0,0-3.26.95,7.08,7.08,0,0,0-2,1.07,3.2,3.2,0,0,0-1,1.28,4.27,4.27,0,0,0-.27,1.58v.5Z"/><path class="cls-1" d="M99.43,9.24H117V14H99.43Zm0,7.31H117v4.79H99.43Z"/><path class="cls-1" d="M161.78,9.16h5.84l-5,9.79v.76L167.91,30h-6.09l-3.91-8.15h-.76L153.25,30h-6.09l5.33-10.29v-.76l-5.08-9.79h5.88l3.87,7.65h.76Z"/><path class="cls-1" d="M192.27,12.18h-5.88l-3.82-8.82h-.76L178,12.18h-5.88L177.74.59h8.91Z"/><path class="cls-1" d="M204,17.39V8.65l7.31-2V5.88H196.69V.59h19.16V9.83L208,12.1v.76h1a10,10,0,0,1,3.07.48,7.47,7.47,0,0,1,2.67,1.49,7.67,7.67,0,0,1,1.87,2.5,8,8,0,0,1,.71,3.51v.5A10,10,0,0,1,216.7,25a8.07,8.07,0,0,1-1.93,2.92,9.14,9.14,0,0,1-3.17,2,13.25,13.25,0,0,1-8.82-.08,10.11,10.11,0,0,1-3.42-2.18,9.69,9.69,0,0,1-2.16-3.19,9.8,9.8,0,0,1-.76-3.82V18.82H202v1.51a5.09,5.09,0,0,0,1.3,3.49,5,5,0,0,0,3.91,1.47,4.78,4.78,0,0,0,3.42-1.13,3.92,3.92,0,0,0,1.2-3,3.28,3.28,0,0,0-1.28-2.88,5.52,5.52,0,0,0-3.26-.9Z"/><path class="cls-1" d="M247.39,12.9h6.39V6.51h4.79V12.9h6.39v4.79h-6.39v6.39h-4.79V17.69h-6.39Z"/><path class="cls-1" d="M309.39,27A5.44,5.44,0,0,1,307,29.76a7.29,7.29,0,0,1-3.53.82,8.89,8.89,0,0,1-3.55-.71,8.4,8.4,0,0,1-2.92-2.1,10.24,10.24,0,0,1-2-3.36,12.81,12.81,0,0,1-.74-4.5v-.67a13,13,0,0,1,.71-4.45A10.36,10.36,0,0,1,297,11.43a8.24,8.24,0,0,1,6.3-2.86,7.4,7.4,0,0,1,3.59.76A5.3,5.3,0,0,1,309,11.68h.76V9.16h5.29V23.69q0,1.26,1.13,1.26h.8v5h-3.61a3.28,3.28,0,0,1-2.33-.84,2.84,2.84,0,0,1-.9-2.18Zm-4.7-1.43a4.74,4.74,0,0,0,3.7-1.53,6,6,0,0,0,1.39-4.18v-.5a6,6,0,0,0-1.39-4.18,5.22,5.22,0,0,0-7.39,0,6,6,0,0,0-1.39,4.18v.5A6,6,0,0,0,301,24,4.74,4.74,0,0,0,304.69,25.54Z"/><path class="cls-1" d="M334.39,9.16h5.84l-5,9.79v.76L340.52,30h-6.09l-3.91-8.15h-.76L325.86,30h-6.09l5.33-10.29v-.76L320,9.16h5.88l3.87,7.65h.76Z"/><path class="cls-1" d="M370.69,12.9h6.39V6.51h4.79V12.9h6.39v4.79h-6.39v6.39h-4.79V17.69h-6.39Z"/><path class="cls-1" d="M423.62,30h-5.29V.59h5.29V12.18h.76a6.16,6.16,0,0,1,2.44-2.67,7.91,7.91,0,0,1,4.07-.95,8.78,8.78,0,0,1,3.51.71,8.33,8.33,0,0,1,2.9,2.08,10.21,10.21,0,0,1,2,3.34,12.83,12.83,0,0,1,.74,4.5V20a13.31,13.31,0,0,1-.71,4.54,10.12,10.12,0,0,1-1.93,3.34,7.9,7.9,0,0,1-2.88,2.06,10,10,0,0,1-6.07.4,6.63,6.63,0,0,1-1.83-.8,5.48,5.48,0,0,1-1.3-1.16,8.5,8.5,0,0,1-.9-1.37h-.76Zm5.55-4.45a5.43,5.43,0,0,0,4-1.53,5.65,5.65,0,0,0,1.53-4.18v-.5a5.65,5.65,0,0,0-1.53-4.18,5.43,5.43,0,0,0-4-1.53,5.35,5.35,0,0,0-4,1.58,5.68,5.68,0,0,0-1.53,4.14v.5A5.68,5.68,0,0,0,425.15,24,5.35,5.35,0,0,0,429.16,25.54Z"/></g></g></svg>