<svg xmlns="http://www.w3.org/2000/svg" viewBox="0 0 447.75 450.64"><defs><style>.cls-1{fill:#c7cfd3;}.cls-2{fill:#97d6ef;}</style></defs><title>11Asset 3cryptography-img3</title><g id="Layer_2" data-name="Layer 2"><g id="Layer_1-2" data-name="Layer 1"><path class="cls-1" d="M14.16,0C22,0,27.68,6.44,27.68,15.32S22,30.64,14.16,30.64.64,24.2.64,15.32,6.24,0,14.16,0Zm0,23.28c3.08,0,5.24-3.36,5.24-8s-2.16-8-5.24-8-5.24,3.32-5.24,8S11,23.28,14.16,23.28Z"/><path class="cls-2" d="M51.64,15V6.92L59.55,1h7.32V29.64h-8.4V10Z"/><path class="cls-1" d="M92.11,15V6.92L100,1h7.32V29.64h-8.4V10Z"/><path class="cls-1" d="M146.74,0c7.88,0,13.52,6.44,13.52,15.32s-5.64,15.32-13.52,15.32-13.52-6.44-13.52-15.32S138.82,0,146.74,0Zm0,23.28c3.08,0,5.24-3.36,5.24-8s-2.16-8-5.24-8-5.24,3.32-5.24,8S143.62,23.28,146.74,23.28Z"/><path class="cls-1" d="M184.22,15V6.92L192.14,1h7.32V29.64h-8.4V10Z"/><path class="cls-1" d="M238.85,0c7.88,0,13.52,6.44,13.52,15.32s-5.64,15.32-13.52,15.32-13.52-6.44-13.52-15.32S230.94,0,238.85,0Zm0,23.28c3.08,0,5.24-3.36,5.24-8s-2.16-8-5.24-8-5.24,3.32-5.24,8S235.74,23.28,238.85,23.28Z"/><path class="cls-2" d="M290.49,0C298.37,0,304,6.44,304,15.32s-5.64,15.32-13.52,15.32S277,24.2,277,15.32,282.57,0,290.49,0Zm0,23.28c3.08,0,5.24-3.36,5.24-8s-2.16-8-5.24-8-5.24,3.32-5.24,8S287.37,23.28,290.49,23.28Z"/><path class="cls-1" d="M342.13,0c7.88,0,13.52,6.44,13.52,15.32S350,30.64,342.13,30.64s-13.52-6.44-13.52-15.32S334.21,0,342.13,0Zm0,23.28c3.08,0,5.24-3.36,5.24-8s-2.16-8-5.24-8-5.24,3.32-5.24,8S339,23.28,342.13,23.28Z"/><path class="cls-1" d="M379.6,15V6.92L387.52,1h7.32V29.64h-8.4V10Z"/><path class="cls-1" d="M434.24,0c7.88,0,13.52,6.44,13.52,15.32s-5.64,15.32-13.52,15.32-13.52-6.44-13.52-15.32S426.32,0,434.24,0Zm0,23.28c3.08,0,5.24-3.36,5.24-8s-2.16-8-5.24-8-5.24,3.32-5.24,8S431.12,23.28,434.24,23.28Z"/><path class="cls-1" d="M0,85V76.92L7.92,71h7.32V99.64H6.84V80Z"/><path class="cls-1" d="M41.72,85V76.92L49.63,71H57V99.64h-8.4V80Z"/><path class="cls-2" d="M83.43,85V76.92L91.35,71h7.32V99.64h-8.4V80Z"/><path class="cls-1" d="M125.15,85V76.92L133.06,71h7.32V99.64H132V80Z"/><path class="cls-1" d="M181,70c7.88,0,13.52,6.44,13.52,15.32S188.9,100.64,181,100.64,167.5,94.2,167.5,85.32,173.1,70,181,70Zm0,23.28c3.08,0,5.24-3.36,5.24-8s-2.16-8-5.24-8-5.24,3.32-5.24,8S177.9,93.28,181,93.28Z"/><path class="cls-1" d="M219.74,85V76.92L227.65,71H235V99.64h-8.4V80Z"/><path class="cls-1" d="M275.61,70c7.88,0,13.52,6.44,13.52,15.32s-5.64,15.32-13.52,15.32-13.52-6.44-13.52-15.32S267.69,70,275.61,70Zm0,23.28c3.08,0,5.24-3.36,5.24-8s-2.16-8-5.24-8-5.24,3.32-5.24,8S272.49,93.28,275.61,93.28Z"/><path class="cls-2" d="M328.49,70C336.36,70,342,76.44,342,85.32s-5.64,15.32-13.52,15.32S315,94.2,315,85.32,320.57,70,328.49,70Zm0,23.28c3.08,0,5.24-3.36,5.24-8s-2.16-8-5.24-8-5.24,3.32-5.24,8S325.37,93.28,328.49,93.28Z"/><path class="cls-1" d="M381.36,70c7.88,0,13.52,6.44,13.52,15.32s-5.64,15.32-13.52,15.32-13.52-6.44-13.52-15.32S373.44,70,381.36,70Zm0,23.28c3.08,0,5.24-3.36,5.24-8s-2.16-8-5.24-8-5.24,3.32-5.24,8S378.24,93.28,381.36,93.28Z"/><path class="cls-1" d="M434.24,70c7.88,0,13.52,6.44,13.52,15.32s-5.64,15.32-13.52,15.32-13.52-6.44-13.52-15.32S426.32,70,434.24,70Zm0,23.28c3.08,0,5.24-3.36,5.24-8s-2.16-8-5.24-8-5.24,3.32-5.24,8S431.12,93.28,434.24,93.28Z"/><path class="cls-2" d="M0,155v-8.08L7.92,141h7.32v28.64H6.84V150Z"/><path class="cls-1" d="M51.7,140c7.88,0,13.52,6.44,13.52,15.32s-5.64,15.32-13.52,15.32-13.52-6.44-13.52-15.32S43.78,140,51.7,140Zm0,23.28c3.08,0,5.24-3.36,5.24-8s-2.16-8-5.24-8-5.24,3.32-5.24,8S48.58,163.28,51.7,163.28Z"/><path class="cls-1" d="M100.41,140c7.88,0,13.52,6.44,13.52,15.32s-5.64,15.32-13.52,15.32-13.52-6.44-13.52-15.32S92.49,140,100.41,140Zm0,23.28c3.08,0,5.24-3.36,5.24-8s-2.16-8-5.24-8-5.24,3.32-5.24,8S97.29,163.28,100.41,163.28Z"/><path class="cls-1" d="M135,155v-8.08l7.92-5.92h7.32v28.64h-8.4V150Z"/><path class="cls-1" d="M172.5,155v-8.08l7.92-5.92h7.32v28.64h-8.4V150Z"/><path class="cls-1" d="M224.2,140c7.88,0,13.52,6.44,13.52,15.32s-5.64,15.32-13.52,15.32-13.52-6.44-13.52-15.32S216.28,140,224.2,140Zm0,23.28c3.08,0,5.24-3.36,5.24-8s-2.16-8-5.24-8-5.24,3.32-5.24,8S221.08,163.28,224.2,163.28Z"/><path class="cls-1" d="M272.9,140c7.88,0,13.52,6.44,13.52,15.32s-5.64,15.32-13.52,15.32-13.52-6.44-13.52-15.32S265,140,272.9,140Zm0,23.28c3.08,0,5.24-3.36,5.24-8s-2.16-8-5.24-8-5.24,3.32-5.24,8S269.78,163.28,272.9,163.28Z"/><path class="cls-1" d="M307.45,155v-8.08l7.92-5.92h7.32v28.64h-8.4V150Z"/><path class="cls-1" d="M345,155v-8.08l7.92-5.92h7.32v28.64h-8.4V150Z"/><path class="cls-1" d="M382.54,155v-8.08l7.92-5.92h7.32v28.64h-8.4V150Z"/><path class="cls-2" d="M434.24,140c7.88,0,13.52,6.44,13.52,15.32s-5.64,15.32-13.52,15.32-13.52-6.44-13.52-15.32S426.32,140,434.24,140Zm0,23.28c3.08,0,5.24-3.36,5.24-8s-2.16-8-5.24-8-5.24,3.32-5.24,8S431.12,163.28,434.24,163.28Z"/><path class="cls-1" d="M0,225v-8.08L7.92,211h7.32v28.64H6.84V220Z"/><path class="cls-1" d="M55.87,210c7.88,0,13.52,6.44,13.52,15.32s-5.64,15.32-13.52,15.32-13.52-6.44-13.52-15.32S48,210,55.87,210Zm0,23.28c3.08,0,5.24-3.36,5.24-8s-2.16-8-5.24-8-5.24,3.32-5.24,8S52.75,233.28,55.87,233.28Z"/><path class="cls-1" d="M94.59,225v-8.08l7.92-5.92h7.32v28.64h-8.4V220Z"/><path class="cls-1" d="M150.46,210c7.88,0,13.52,6.44,13.52,15.32s-5.64,15.32-13.52,15.32-13.52-6.44-13.52-15.32S142.55,210,150.46,210Zm0,23.28c3.08,0,5.24-3.36,5.24-8s-2.16-8-5.24-8-5.24,3.32-5.24,8S147.34,233.28,150.46,233.28Z"/><path class="cls-2" d="M189.18,225v-8.08L197.1,211h7.32v28.64H196V220Z"/><path class="cls-1" d="M230.9,225v-8.08l7.92-5.92h7.32v28.64h-8.4V220Z"/><path class="cls-1" d="M286.77,210c7.88,0,13.52,6.44,13.52,15.32s-5.64,15.32-13.52,15.32-13.52-6.44-13.52-15.32S278.85,210,286.77,210Zm0,23.28c3.08,0,5.24-3.36,5.24-8s-2.16-8-5.24-8-5.24,3.32-5.24,8S283.65,233.28,286.77,233.28Z"/><path class="cls-1" d="M339.65,210c7.88,0,13.52,6.44,13.52,15.32s-5.64,15.32-13.52,15.32-13.52-6.44-13.52-15.32S331.73,210,339.65,210Zm0,23.28c3.08,0,5.24-3.36,5.24-8s-2.16-8-5.24-8-5.24,3.32-5.24,8S336.53,233.28,339.65,233.28Z"/><path class="cls-1" d="M392.52,210c7.88,0,13.52,6.44,13.52,15.32s-5.64,15.32-13.52,15.32S379,234.2,379,225.32,384.6,210,392.52,210Zm0,23.28c3.08,0,5.24-3.36,5.24-8s-2.16-8-5.24-8-5.24,3.32-5.24,8S389.4,233.28,392.52,233.28Z"/><path class="cls-1" d="M431.24,225v-8.08l7.92-5.92h7.32v28.64h-8.4V220Z"/><path class="cls-1" d="M14.16,280c7.88,0,13.52,6.44,13.52,15.32S22,310.64,14.16,310.64.64,304.2.64,295.32,6.24,280,14.16,280Zm0,23.28c3.08,0,5.24-3.36,5.24-8s-2.16-8-5.24-8-5.24,3.32-5.24,8S11,303.28,14.16,303.28Z"/><path class="cls-2" d="M48.7,295v-8.08L56.62,281h7.32v28.64h-8.4V290Z"/><path class="cls-1" d="M100.41,280c7.88,0,13.52,6.44,13.52,15.32s-5.64,15.32-13.52,15.32-13.52-6.44-13.52-15.32S92.49,280,100.41,280Zm0,23.28c3.08,0,5.24-3.36,5.24-8s-2.16-8-5.24-8-5.24,3.32-5.24,8S97.29,303.28,100.41,303.28Z"/><path class="cls-1" d="M135,295v-8.08l7.92-5.92h7.32v28.64h-8.4V290Z"/><path class="cls-1" d="M172.5,295v-8.08l7.92-5.92h7.32v28.64h-8.4V290Z"/><path class="cls-1" d="M210,295v-8.08L218,281h7.32v28.64h-8.4V290Z"/><path class="cls-1" d="M261.74,280c7.88,0,13.52,6.44,13.52,15.32s-5.64,15.32-13.52,15.32-13.52-6.44-13.52-15.32S253.82,280,261.74,280Zm0,23.28c3.08,0,5.24-3.36,5.24-8s-2.16-8-5.24-8-5.24,3.32-5.24,8S258.62,303.28,261.74,303.28Z"/><path class="cls-1" d="M310.45,280c7.88,0,13.52,6.44,13.52,15.32s-5.64,15.32-13.52,15.32-13.52-6.44-13.52-15.32S302.53,280,310.45,280Zm0,23.28c3.08,0,5.24-3.36,5.24-8s-2.16-8-5.24-8-5.24,3.32-5.24,8S307.33,303.28,310.45,303.28Z"/><path class="cls-2" d="M345,295v-8.08l7.92-5.92h7.32v28.64h-8.4V290Z"/><path class="cls-1" d="M382.54,295v-8.08l7.92-5.92h7.32v28.64h-8.4V290Z"/><path class="cls-1" d="M434.24,280c7.88,0,13.52,6.44,13.52,15.32s-5.64,15.32-13.52,15.32-13.52-6.44-13.52-15.32S426.32,280,434.24,280Zm0,23.28c3.08,0,5.24-3.36,5.24-8s-2.16-8-5.24-8-5.24,3.32-5.24,8S431.12,303.28,434.24,303.28Z"/><path class="cls-1" d="M0,365v-8.08L7.92,351h7.32v28.64H6.84V360Z"/><path class="cls-1" d="M37.54,365v-8.08L45.46,351h7.32v28.64h-8.4V360Z"/><path class="cls-1" d="M75.09,365v-8.08L83,351h7.32v28.64h-8.4V360Z"/><path class="cls-1" d="M126.79,350c7.88,0,13.52,6.44,13.52,15.32s-5.64,15.32-13.52,15.32-13.52-6.44-13.52-15.32S118.87,350,126.79,350Zm0,23.28c3.08,0,5.24-3.36,5.24-8s-2.16-8-5.24-8-5.24,3.32-5.24,8S123.67,373.28,126.79,373.28Z"/><path class="cls-1" d="M161.34,365v-8.08l7.92-5.92h7.32v28.64h-8.4V360Z"/><path class="cls-1" d="M213,350c7.88,0,13.52,6.44,13.52,15.32s-5.64,15.32-13.52,15.32-13.52-6.44-13.52-15.32S205.12,350,213,350Zm0,23.28c3.08,0,5.24-3.36,5.24-8s-2.16-8-5.24-8-5.24,3.32-5.24,8S209.92,373.28,213,373.28Z"/><path class="cls-2" d="M261.74,350c7.88,0,13.52,6.44,13.52,15.32s-5.64,15.32-13.52,15.32-13.52-6.44-13.52-15.32S253.82,350,261.74,350Zm0,23.28c3.08,0,5.24-3.36,5.24-8s-2.16-8-5.24-8-5.24,3.32-5.24,8S258.62,373.28,261.74,373.28Z"/><path class="cls-1" d="M310.45,350c7.88,0,13.52,6.44,13.52,15.32s-5.64,15.32-13.52,15.32-13.52-6.44-13.52-15.32S302.53,350,310.45,350Zm0,23.28c3.08,0,5.24-3.36,5.24-8s-2.16-8-5.24-8-5.24,3.32-5.24,8S307.33,373.28,310.45,373.28Z"/><path class="cls-1" d="M345,365v-8.08l7.92-5.92h7.32v28.64h-8.4V360Z"/><path class="cls-1" d="M382.54,365v-8.08l7.92-5.92h7.32v28.64h-8.4V360Z"/><path class="cls-1" d="M434.24,350c7.88,0,13.52,6.44,13.52,15.32s-5.64,15.32-13.52,15.32-13.52-6.44-13.52-15.32S426.32,350,434.24,350Zm0,23.28c3.08,0,5.24-3.36,5.24-8s-2.16-8-5.24-8-5.24,3.32-5.24,8S431.12,373.28,434.24,373.28Z"/><path class="cls-2" d="M0,435v-8.08L7.92,421h7.32v28.64H6.84V430Z"/><path class="cls-1" d="M51.7,420c7.88,0,13.52,6.44,13.52,15.32s-5.64,15.32-13.52,15.32-13.52-6.44-13.52-15.32S43.78,420,51.7,420Zm0,23.28c3.08,0,5.24-3.36,5.24-8s-2.16-8-5.24-8-5.24,3.32-5.24,8S48.58,443.28,51.7,443.28Z"/><path class="cls-1" d="M100.41,420c7.88,0,13.52,6.44,13.52,15.32s-5.64,15.32-13.52,15.32-13.52-6.44-13.52-15.32S92.49,420,100.41,420Zm0,23.28c3.08,0,5.24-3.36,5.24-8s-2.16-8-5.24-8-5.24,3.32-5.24,8S97.29,443.28,100.41,443.28Z"/><path class="cls-1" d="M135,435v-8.08l7.92-5.92h7.32v28.64h-8.4V430Z"/><path class="cls-1" d="M172.5,435v-8.08l7.92-5.92h7.32v28.64h-8.4V430Z"/><path class="cls-1" d="M224.2,420c7.88,0,13.52,6.44,13.52,15.32s-5.64,15.32-13.52,15.32-13.52-6.44-13.52-15.32S216.28,420,224.2,420Zm0,23.28c3.08,0,5.24-3.36,5.24-8s-2.16-8-5.24-8-5.24,3.32-5.24,8S221.08,443.28,224.2,443.28Z"/><path class="cls-1" d="M272.9,420c7.88,0,13.52,6.44,13.52,15.32s-5.64,15.32-13.52,15.32-13.52-6.44-13.52-15.32S265,420,272.9,420Zm0,23.28c3.08,0,5.24-3.36,5.24-8s-2.16-8-5.24-8-5.24,3.32-5.24,8S269.78,443.28,272.9,443.28Z"/><path class="cls-1" d="M307.45,435v-8.08l7.92-5.92h7.32v28.64h-8.4V430Z"/><path class="cls-1" d="M345,435v-8.08l7.92-5.92h7.32v28.64h-8.4V430Z"/><path class="cls-1" d="M382.54,435v-8.08l7.92-5.92h7.32v28.64h-8.4V430Z"/><path class="cls-2" d="M434.24,420c7.88,0,13.52,6.44,13.52,15.32s-5.64,15.32-13.52,15.32-13.52-6.44-13.52-15.32S426.32,420,434.24,420Zm0,23.28c3.08,0,5.24-3.36,5.24-8s-2.16-8-5.24-8-5.24,3.32-5.24,8S431.12,443.28,434.24,443.28Z"/></g></g></svg>