<svg xmlns="http://www.w3.org/2000/svg" xmlns:xlink="http://www.w3.org/1999/xlink" viewBox="0 0 439.67 334.99"><defs><style>.cls-1{fill:#0e4fad;}.cls-2{fill:url(#linear-gradient);}.cls-3{fill:url(#linear-gradient-2);}.cls-4{fill:url(#linear-gradient-3);}.cls-5{fill:url(#linear-gradient-4);}.cls-6{fill:url(#linear-gradient-5);}.cls-7{fill:url(#linear-gradient-6);}</style><linearGradient id="linear-gradient" x1="338.34" y1="25.43" x2="338.34" y2="103.32" gradientUnits="userSpaceOnUse"><stop offset="0" stop-color="#d6e4e4"/><stop offset="0.36" stop-color="#cddee4"/><stop offset="0.95" stop-color="#b5cfe4"/><stop offset="1" stop-color="#b3cee4"/></linearGradient><linearGradient id="linear-gradient-2" x1="117.17" y1="108.82" x2="175.19" y2="108.82" gradientTransform="translate(44.2 27.28) rotate(45)" xlink:href="#linear-gradient"/><linearGradient id="linear-gradient-3" x1="259.76" y1="-175.73" x2="347.93" y2="-175.73" gradientTransform="matrix(-0.71, 0.71, 0.71, 0.71, 471.76, 27.28)" xlink:href="#linear-gradient"/><linearGradient id="linear-gradient-4" x1="254.21" y1="-21.34" x2="355.83" y2="-21.34" gradientTransform="translate(214.21 -177.4) rotate(90)" xlink:href="#linear-gradient"/><linearGradient id="linear-gradient-5" x1="242.87" y1="60.73" x2="397.3" y2="60.73" gradientTransform="matrix(0, 1, 1, 0, 274.5, -110.82)" xlink:href="#linear-gradient"/><linearGradient id="linear-gradient-6" x1="158.76" y1="207.43" x2="158.76" y2="270.55" gradientTransform="translate(311.52 509.41) rotate(180)" xlink:href="#linear-gradient"/></defs><title>11Asset 2cryptography-img2</title><g id="Layer_2" data-name="Layer 2"><g id="Layer_1-2" data-name="Layer 1"><rect class="cls-1" width="439.67" height="334.99" rx="10.47" ry="10.47"/><path class="cls-2" d="M316,51.29c-1.35-17.52,12.07-26,22.63-25.86,12,.21,23.46,10.15,22.07,25.8l1,.28c4.19,1.05,6.22,3.56,6.23,7.92,0,9,0,18.08,0,27.12,0,3,0,6.07,0,9.1-.08,4.68-3.06,7.64-7.71,7.65q-22,0-43.94,0c-4.45,0-7.53-2.94-7.56-7.38q-.1-18.51,0-37C308.76,54.71,311,52.43,316,51.29Zm7.65,0h29.45c1.47-12.89-7.41-18.46-14.73-18.46S322.13,38.47,323.62,51.27Zm7.33,26a7.4,7.4,0,1,0,14.79.19,7.4,7.4,0,0,0-14.79-.19Z"/><path class="cls-3" d="M106.47,212.4l-2,1.05c-6.44,3.38-13.65,2.31-19.49-3l-5.82,5.73-5.78-5.87L44,239.29l5.69,5.77-5.89,5.8-5.67-5.75-5.89,5.8,5.68,5.76-5.82,5.74-11.53-11.7,46.92-46.23-5.77-5.85,5.85-5.77a16.54,16.54,0,0,1-4.7-13.12,16,16,0,0,1,4-9.42c5.21-6,14.63-8,22.64-2.15a43.08,43.08,0,0,1,2.6-5,16.44,16.44,0,0,1,22.69-4.35c.24.15,1.91,1.53,2.21,1.84l.72.73c.2.21,1.49,1.8,1.57,1.93,6.1,9.7,2,21.27-8.78,25a7.31,7.31,0,0,0-.76.37c3.89,6,4.46,11.75,1.76,17.34-.44.91-1,1.78-1.43,2.67A14.6,14.6,0,0,1,106.47,212.4Zm-6.4-34.31a8.21,8.21,0,1,0,.14-11.58A8.25,8.25,0,0,0,100.07,178.09Zm-14.7,8.72a8.21,8.21,0,1,0-11.58-.13A8.25,8.25,0,0,0,85.37,186.81Zm17.33,17.66a8.21,8.21,0,1,0-11.58-.2A8.25,8.25,0,0,0,102.7,204.47Z"/><path class="cls-4" d="M72.58,119.68c-.73-1.35-1.51-2.68-2.18-4.06-4.11-8.49-3.24-17.17,2.67-26.35a11.11,11.11,0,0,0-1.16-.56C55.47,83,49.3,65.42,58.57,50.68c.12-.2,2.08-2.62,2.39-2.93l1.1-1.12c.46-.47,3-2.56,3.37-2.79,11.69-7.52,26.6-4.73,34.49,6.61A65.47,65.47,0,0,1,103.87,58c12.17-8.83,26.49-5.82,34.41,3.26a24.39,24.39,0,0,1,6.12,14.32c.62,7.62-1.83,14.22-7.15,19.94l8.89,8.76-8.77,8.9,71.31,70.26-17.51,17.78-8.85-8.72,8.63-8.76-9-8.82-8.61,8.74-9-8.82,8.64-8.77-44.62-44L119.68,131l-8.85-8.71c-8.88,8-19.84,9.64-29.62,4.5l-3-1.6A22.19,22.19,0,0,1,72.58,119.68ZM87.68,55.44A12.47,12.47,0,1,0,87.89,73,12.53,12.53,0,0,0,87.68,55.44Zm40.16,30.65a12.47,12.47,0,1,0-17.6.19A12.55,12.55,0,0,0,127.83,86.09Zm-26.34,26.74a12.47,12.47,0,1,0-17.6.3A12.54,12.54,0,0,0,101.49,112.83Z"/><path class="cls-5" d="M232.41,162.69l-1.05-2c-3.38-6.44-2.31-13.65,3-19.49l-5.73-5.82,5.87-5.78-28.93-29.36-5.77,5.69L194,100l5.75-5.67-5.8-5.89-5.76,5.68-5.74-5.82L194.1,76.8l46.23,46.92,5.85-5.77,5.77,5.85a16.54,16.54,0,0,1,13.12-4.7,16,16,0,0,1,9.42,4c6,5.21,8,14.63,2.15,22.64a43.08,43.08,0,0,1,5,2.6,16.44,16.44,0,0,1,4.35,22.69c-.15.24-1.53,1.91-1.84,2.21l-.73.72c-.21.2-1.8,1.49-1.93,1.57-9.7,6.1-21.27,2-25-8.78A7.31,7.31,0,0,0,256,166c-6,3.89-11.75,4.46-17.34,1.76-.91-.44-1.78-1-2.67-1.43A14.6,14.6,0,0,1,232.41,162.69Zm34.31-6.4a8.21,8.21,0,1,0,11.58.14A8.25,8.25,0,0,0,266.73,156.28ZM258,141.58a8.21,8.21,0,1,0,.13-11.58A8.25,8.25,0,0,0,258,141.58Zm-17.66,17.33a8.21,8.21,0,1,0,.2-11.58A8.25,8.25,0,0,0,240.35,158.92Z"/><path class="cls-6" d="M334.51,268.15c-1.35.73-2.68,1.51-4.06,2.18-8.49,4.11-17.17,3.24-26.35-2.67a11.11,11.11,0,0,0-.56,1.16c-5.72,16.45-23.3,22.61-38,13.34-.2-.12-2.62-2.08-2.93-2.39l-1.12-1.1c-.47-.46-2.56-3-2.79-3.37-7.52-11.69-4.73-26.6,6.61-34.49a65.47,65.47,0,0,1,7.53-3.95c-8.83-12.17-5.82-26.49,3.26-34.41a24.39,24.39,0,0,1,14.32-6.12c7.62-.62,14.22,1.83,19.94,7.15l8.76-8.89,8.9,8.77L398.24,132,416,149.56l-8.72,8.85-8.76-8.63-8.82,9,8.74,8.61-8.82,9-8.77-8.64-44,44.62,8.92,8.78-8.71,8.85c8,8.88,9.64,19.84,4.5,29.62l-1.6,3A22.19,22.19,0,0,1,334.51,268.15Zm-64.25-15.09a12.47,12.47,0,1,0,17.6-.22A12.53,12.53,0,0,0,270.26,253.05Zm30.65-40.16a12.47,12.47,0,1,0,.19,17.6A12.55,12.55,0,0,0,300.91,212.89Zm26.74,26.34a12.47,12.47,0,1,0,.3,17.6A12.54,12.54,0,0,0,327.65,239.24Z"/><path class="cls-7" d="M170.89,281c1.09,14.2-9.78,21.11-18.34,21-9.76-.17-19-8.22-17.88-20.9l-.85-.23c-3.4-.85-5-2.88-5.05-6.42,0-7.32,0-14.65,0-22,0-2.46,0-4.92,0-7.38.06-3.79,2.48-6.19,6.25-6.2q17.8,0,35.61,0a5.76,5.76,0,0,1,6.12,6q.08,15,0,30C176.74,278.25,174.92,280.1,170.89,281Zm-6.2,0H140.83c-1.19,10.45,6,15,11.94,15S165.9,291.41,164.69,281Zm-5.94-21a6,6,0,1,0-12-.15,6,6,0,0,0,12,.15Z"/></g></g></svg>