<svg xmlns="http://www.w3.org/2000/svg" xmlns:xlink="http://www.w3.org/1999/xlink" viewBox="0 0 192.35 139.9"><defs><style>.cls-1{fill:#ef9d43;}.cls-2{fill:#ccc;}.cls-3{fill:#a5a5a5;}.cls-4{fill:#a1d353;}.cls-5{clip-path:url(#clip-path);}.cls-6{fill:url(#linear-gradient);}.cls-7{fill:#fff;}</style><clipPath id="clip-path"><circle class="cls-1" cx="99.43" cy="83.78" r="51"/></clipPath><linearGradient id="linear-gradient" x1="113.16" y1="53.51" x2="113.16" y2="134.78" gradientUnits="userSpaceOnUse"><stop offset="0" stop-color="#b4761a"/><stop offset="1" stop-color="#e06669" stop-opacity="0.5"/></linearGradient></defs><title>11Asset 2bitcoin</title><g id="Layer_2" data-name="Layer 2"><g id="Layer_1-2" data-name="Layer 1"><circle class="cls-2" cx="23.45" cy="30.46" r="23.45"/><circle class="cls-3" cx="23.45" cy="30.46" r="18.15"/><circle class="cls-4" cx="99.43" cy="83.78" r="51"/><circle class="cls-1" cx="99.43" cy="83.78" r="51"/><g class="cls-5"><polygon class="cls-6" points="75.88 106.41 113.41 132.84 150.43 134.78 150.43 91.09 104.89 53.51 99.43 64.94 89.22 64.94 88.44 100.84 75.88 106.41"/></g><path class="cls-7" d="M87.79,53.5H94v7.55H98.7V53.51h6.19V61c1.16.05,2.26.07,3.35.16a14,14,0,0,1,6.91,2.12c6.2,4.21,7.09,14.2-.56,18.61l-.6.35c.43.15.8.27,1.17.42.73.3,1.46.61,2.17.95a9.49,9.49,0,0,1,5.51,7.73,13.71,13.71,0,0,1-2.25,9.73,9.93,9.93,0,0,1-5.53,3.91,28.32,28.32,0,0,1-9.05,1.38h-1.08v7.65h-6.2v-7.61H94v7.62H87.81v-7.66H75.88V99.69c1.33,0,2.63,0,3.93,0a4.22,4.22,0,0,0,1.5-.28A3.42,3.42,0,0,0,83.53,96q0-8.65,0-17.3c0-2.39,0-4.78,0-7.17a3.58,3.58,0,0,0-3.75-3.74H75.88V61.09h11.9ZM94,99.42h.54c3,0,6,0,9.06,0a8.06,8.06,0,0,0,5.29-2,5.7,5.7,0,0,0,.2-8.8,7.93,7.93,0,0,0-5.42-2.14c-3.05-.05-6.1,0-9.16,0H94Zm0-19.21h.62c2.78,0,5.55,0,8.33,0a4.19,4.19,0,0,0,3.19-1.37,7.42,7.42,0,0,0,0-9.66A4.19,4.19,0,0,0,103,67.8c-2.81,0-5.62,0-8.43,0H94Z"/><circle class="cls-2" cx="62.18" cy="12.34" r="12.34"/><circle class="cls-3" cx="62.18" cy="12.34" r="9.55"/><circle class="cls-2" cx="174.71" cy="122.26" r="17.64"/><circle class="cls-3" cx="174.71" cy="122.26" r="13.65"/></g></g></svg>