<svg xmlns="http://www.w3.org/2000/svg" xmlns:xlink="http://www.w3.org/1999/xlink" viewBox="0 0 239.88 142.09"><defs><style>.cls-1{fill:#9a66dd;}.cls-10,.cls-11,.cls-12,.cls-13,.cls-14,.cls-15,.cls-16,.cls-17,.cls-18,.cls-19,.cls-2,.cls-20,.cls-3,.cls-4,.cls-5,.cls-6,.cls-7,.cls-8,.cls-9{fill:none;stroke:#ccc;}.cls-10,.cls-11,.cls-12,.cls-13,.cls-14,.cls-15,.cls-16,.cls-17,.cls-18,.cls-19,.cls-2,.cls-20,.cls-25,.cls-3,.cls-4,.cls-5,.cls-6,.cls-7,.cls-8,.cls-9{stroke-miterlimit:10;stroke-width:2px;}.cls-3{stroke-dasharray:6 6;}.cls-4{stroke-dasharray:6.1 6.1;}.cls-5{stroke-dasharray:5.59 5.59;}.cls-6{stroke-dasharray:5.29 5.29;}.cls-7{stroke-dasharray:6.19 6.19;}.cls-8{stroke-dasharray:5.85 5.85;}.cls-9{stroke-dasharray:6.22 6.22;}.cls-10{stroke-dasharray:6.99 6.99;}.cls-11{stroke-dasharray:7.22 7.22;}.cls-12{stroke-dasharray:6.45 6.45;}.cls-13{stroke-dasharray:6.54 6.54;}.cls-14{stroke-dasharray:6.64 6.64;}.cls-15{stroke-dasharray:6 6;}.cls-16{stroke-dasharray:6.54 6.54;}.cls-17{stroke-dasharray:5.46 5.46;}.cls-18{stroke-dasharray:3.98 3.98;}.cls-19{stroke-dasharray:6.77 6.77;}.cls-20{stroke-dasharray:5.39 5.39;}.cls-21{fill:#a1d353;}.cls-22{clip-path:url(#clip-path);}.cls-23{fill:url(#linear-gradient);}.cls-24,.cls-25{fill:#fff;}.cls-25{stroke:#a5a5a5;}</style><clipPath id="clip-path"><circle class="cls-1" cx="116.21" cy="67.23" r="51"/></clipPath><linearGradient id="linear-gradient" x1="128.12" y1="39.72" x2="128.12" y2="118.23" gradientUnits="userSpaceOnUse"><stop offset="0" stop-color="#7345dd"/><stop offset="1" stop-color="#9a6593" stop-opacity="0.5"/></linearGradient></defs><title>11Asset 4blockchain</title><g id="Layer_2" data-name="Layer 2"><g id="Layer_1-2" data-name="Layer 1"><line class="cls-2" x1="8.11" y1="13.08" x2="8.65" y2="16.03"/><line class="cls-3" x1="9.72" y1="21.93" x2="13.46" y2="42.6"/><polyline class="cls-2" points="13.99 45.55 14.53 48.5 17.48 47.97"/><line class="cls-3" x1="23.39" y1="46.9" x2="32.24" y2="45.29"/><polyline class="cls-2" points="35.19 44.76 38.15 44.23 38.68 47.18"/><line class="cls-4" x1="39.77" y1="53.18" x2="41.4" y2="62.17"/><polyline class="cls-2" points="41.94 65.17 42.47 68.13 45.43 67.59"/><line class="cls-5" x1="50.93" y1="66.6" x2="114.18" y2="55.14"/><polyline class="cls-2" points="116.93 54.64 119.88 54.11 120.42 57.06"/><line class="cls-6" x1="121.36" y1="62.27" x2="126.55" y2="90.91"/><polyline class="cls-2" points="127.02 93.51 127.55 96.46 130.5 95.93"/><line class="cls-7" x1="136.6" y1="94.82" x2="170.1" y2="88.76"/><polyline class="cls-2" points="173.14 88.2 176.1 87.67 175.56 84.72"/><line class="cls-8" x1="174.52" y1="78.96" x2="172.95" y2="70.32"/><polyline class="cls-2" points="172.43 67.44 171.9 64.49 174.85 63.96"/><line class="cls-9" x1="180.97" y1="62.85" x2="190.16" y2="61.18"/><polyline class="cls-2" points="193.22 60.63 196.17 60.09 196.7 63.05"/><line class="cls-10" x1="197.95" y1="69.92" x2="202.31" y2="94"/><polyline class="cls-2" points="202.93 97.44 203.47 100.39 206.42 99.85"/><line class="cls-11" x1="213.53" y1="98.57" x2="224.19" y2="96.64"/><line class="cls-2" x1="227.74" y1="95.99" x2="230.69" y2="95.46"/><line class="cls-2" x1="221.83" y1="15.84" x2="219.37" y2="14.13"/><line class="cls-12" x1="214.06" y1="10.45" x2="206.11" y2="4.94"/><polyline class="cls-2" points="203.46 3.1 200.99 1.39 199.28 3.86"/><line class="cls-13" x1="195.56" y1="9.23" x2="189.97" y2="17.29"/><polyline class="cls-2" points="188.11 19.97 186.4 22.44 183.93 20.73"/><line class="cls-14" x1="178.48" y1="16.95" x2="170.29" y2="11.27"/><polyline class="cls-2" points="167.56 9.38 165.1 7.67 163.39 10.13"/><line class="cls-15" x1="159.97" y1="15.06" x2="120.68" y2="71.73"/><polyline class="cls-2" points="118.97 74.19 117.27 76.66 114.81 74.94"/><line class="cls-16" x1="109.44" y1="71.19" x2="90.66" y2="58.08"/><polyline class="cls-2" points="87.98 56.21 85.52 54.49 83.81 56.95"/><line class="cls-17" x1="80.7" y1="61.44" x2="51.17" y2="104.03"/><polyline class="cls-2" points="49.61 106.28 47.9 108.74 50.35 110.47"/><line class="cls-18" x1="53.61" y1="112.76" x2="58.48" y2="116.19"/><polyline class="cls-2" points="60.11 117.34 62.56 119.06 60.85 121.53"/><line class="cls-19" x1="56.99" y1="127.1" x2="51.2" y2="135.45"/><polyline class="cls-2" points="49.27 138.23 47.56 140.7 45.1 138.99"/><line class="cls-20" x1="40.67" y1="135.92" x2="16.33" y2="119.04"/><line class="cls-2" x1="14.12" y1="117.51" x2="11.65" y2="115.8"/><circle class="cls-21" cx="116.21" cy="67.23" r="51"/><circle class="cls-1" cx="116.21" cy="67.23" r="51"/><g class="cls-22"><polygon class="cls-23" points="92.2 92.25 123.93 118.23 167.21 118.23 167.21 69.5 136.63 39.72 116.21 48.38 110.76 53.3 89.03 74.54 92.2 92.25"/></g><path class="cls-24" d="M108.5,54.57c.54-.65,1-1.35,1.63-2q5.13-5.17,10.3-10.3a13.49,13.49,0,0,1,7.65-3.83,15,15,0,0,1,16.71,11.43,13.83,13.83,0,0,1-3,12.37c-1.61,1.89-3.47,3.58-5.23,5.35s-3.53,3.52-5.29,5.3a14.34,14.34,0,0,1-20.43.14,3.38,3.38,0,0,1,4.66-4.9,8,8,0,0,0,3.64,2.09,7.28,7.28,0,0,0,7.07-1.91c3.2-3.13,6.34-6.34,9.52-9.49a8.34,8.34,0,0,0,2.21-3.27,7.33,7.33,0,0,0-1.44-7.5,7.89,7.89,0,0,0-4.11-2.73,7.28,7.28,0,0,0-7.24,1.89c-2.63,2.55-5.19,5.16-7.77,7.76a.73.73,0,0,1-.86.21,16.27,16.27,0,0,0-7.57-.54,2,2,0,0,1-.34,0Z"/><path class="cls-24" d="M123.93,79.89c-.64.75-1.23,1.53-1.92,2.23-3.23,3.26-6.48,6.49-9.72,9.74a14.37,14.37,0,0,1-20.09.38A14.61,14.61,0,0,1,88,85.76a14.31,14.31,0,0,1-.58-6,14.51,14.51,0,0,1,4.42-8.87c3.26-3.22,6.48-6.49,9.74-9.72a13.51,13.51,0,0,1,7.82-3.86,14,14,0,0,1,12.22,4,3.38,3.38,0,0,1-4.5,5,8.93,8.93,0,0,0-2.93-1.94A7.23,7.23,0,0,0,106.34,66c-3.45,3.33-6.82,6.74-10.18,10.16a7.5,7.5,0,0,0,0,10.35,8.16,8.16,0,0,0,4,2.54,7.3,7.3,0,0,0,7.23-1.91c2.63-2.55,5.19-5.16,7.77-7.76a.7.7,0,0,1,.82-.2,16.27,16.27,0,0,0,7.53.55c.13,0,.26,0,.39,0Z"/><rect class="cls-25" x="1.87" y="5.5" width="10.78" height="10.78" transform="translate(-1.52 1.18) rotate(-8.45)"/><rect class="cls-25" x="4.86" y="109.34" width="10.78" height="10.78" transform="translate(-87.43 53.69) rotate(-52.89)"/><rect class="cls-25" x="218.24" y="11.19" width="10.78" height="10.78" transform="translate(81.81 190.28) rotate(-55.01)"/><rect class="cls-25" x="227.02" y="89.58" width="10.78" height="10.78" transform="translate(182.65 341.06) rotate(-100.8)"/></g></g></svg>