<svg xmlns="http://www.w3.org/2000/svg" xmlns:xlink="http://www.w3.org/1999/xlink" viewBox="0 0 183.96 178.7"><defs><style>.cls-1{fill:#5c6bc0;}.cls-2,.cls-3{fill:none;stroke-miterlimit:10;}.cls-2{stroke:#a5a5a5;}.cls-3{stroke:#ccc;}.cls-4{clip-path:url(#clip-path);}.cls-5{fill:url(#linear-gradient);}.cls-6{fill:#fff;}.cls-7{fill:#ccc;}.cls-8{fill:#a5a5a5;}</style><clipPath id="clip-path"><circle class="cls-1" cx="98.11" cy="97.54" r="51"/></clipPath><linearGradient id="linear-gradient" x1="111.96" y1="60.44" x2="111.96" y2="148.54" gradientUnits="userSpaceOnUse"><stop offset="0" stop-color="#4648ab"/><stop offset="1" stop-color="#6160a4" stop-opacity="0.5"/></linearGradient></defs><title>11Asset 5money2</title><g id="Layer_2" data-name="Layer 2"><g id="Layer_1-2" data-name="Layer 1"><polyline class="cls-2" points="178.09 116.25 5.87 70.57 162.61 30.04 35.08 30.04 98.53 172.83"/><polyline class="cls-3" points="35.08 30.04 178.09 116.25 162.61 30.04 98.53 172.83 98.72 5.87"/><circle class="cls-1" cx="98.11" cy="97.54" r="51"/><g class="cls-4"><polygon class="cls-5" points="75.74 104.32 106.66 147.83 149.1 148.54 149.1 99.81 99.03 60.44 97.38 60.87 83.73 83.22 74.82 98.72 78.01 100.59 75.74 104.32"/></g><path class="cls-6" d="M99,60.44l21.48,35.81-.25.25-8.12-3.55c-4-1.77-8-3.56-12-5.32-.72-.32-1.26-.59-1.26-1.57,0-8.32,0-16.63,0-24.95A5.81,5.81,0,0,1,99,60.44Z"/><path class="cls-6" d="M75.91,96.43,97,60.79l.37.08q0,1,0,2c0,7.71,0,15.42,0,23.13a1.53,1.53,0,0,1-1.07,1.67c-6.58,2.87-13.14,5.79-19.71,8.7A3.32,3.32,0,0,1,75.91,96.43Z"/><path class="cls-6" d="M74.82,98.72l22.47-9.83v23Z"/><path class="cls-6" d="M98.94,111.93v-23l22.46,9.82Z"/><path class="cls-6" d="M120.58,104.22,99.11,134.64a8.16,8.16,0,0,1-.24-1.24c0-5.23,0-10.47.06-15.7a2.27,2.27,0,0,1,.9-1.65c6.64-4,13.33-7.88,20-11.8a6,6,0,0,1,.58-.27Z"/><path class="cls-6" d="M76,104l7.42,4.33c4.26,2.5,8.51,5,12.79,7.51a2.06,2.06,0,0,1,1.21,2.07c-.06,5.46,0,10.93-.35,16.6L75.74,104.32Z"/><circle class="cls-7" cx="162.61" cy="30.04" r="5.87"/><circle class="cls-8" cx="178.09" cy="116.25" r="5.87"/><circle class="cls-7" cx="5.87" cy="70.57" r="5.87"/><circle class="cls-8" cx="98.68" cy="5.87" r="5.87"/><circle class="cls-8" cx="35.08" cy="30.04" r="5.87"/><circle class="cls-7" cx="98.53" cy="172.83" r="5.87"/></g></g></svg>