<svg xmlns="http://www.w3.org/2000/svg" xmlns:xlink="http://www.w3.org/1999/xlink" viewBox="0 0 173.15 152.77"><defs><style>.cls-1{fill:#ef6156;}.cls-2{fill:#ccc;}.cls-3{fill:#a5a5a5;}.cls-4,.cls-8{fill:none;}.cls-5{clip-path:url(#clip-path);}.cls-6{fill:url(#linear-gradient);}.cls-7{fill:#fff;}.cls-8{stroke:#ccc;stroke-miterlimit:10;}</style><clipPath id="clip-path"><circle class="cls-1" cx="86.45" cy="101.77" r="51"/></clipPath><linearGradient id="linear-gradient" x1="103.49" y1="70.11" x2="103.49" y2="152.77" gradientUnits="userSpaceOnUse"><stop offset="0" stop-color="#ba4345"/><stop offset="1" stop-color="#cf7162" stop-opacity="0.5"/></linearGradient></defs><title>11Asset 6future</title><g id="Layer_2" data-name="Layer 2"><g id="Layer_1-2" data-name="Layer 1"><path class="cls-2" d="M22,39.14a42.31,42.31,0,0,0,4.36-.68,38.17,38.17,0,0,0,5.7-1.85,11.2,11.2,0,0,0,6.1-7,46.22,46.22,0,0,0,2-9.76c.38-3.06.72-6.13,1.18-9.2.13,1.09.26,2.18.4,3.27.58,4.61.94,9.26,2.12,13.77A13.43,13.43,0,0,0,48,35a12.38,12.38,0,0,0,4.81,2.55c2.38.63,4.81,1.08,7.21,1.61a.92.92,0,0,1,.42.16c-1.38.3-2.77.57-4.15.89a23.91,23.91,0,0,0-6.35,2.39,12.64,12.64,0,0,0-5.66,6.83,34.86,34.86,0,0,0-1.83,8.24C42,61,41.68,64.44,41.24,67.85c-.18-1.51-.36-3-.54-4.53a84.11,84.11,0,0,0-2-12.12,13.5,13.5,0,0,0-4.87-7.74,19,19,0,0,0-6.15-2.85c-1.67-.47-3.38-.81-5.08-1.19a3,3,0,0,0-.59,0Z"/><path class="cls-3" d="M72.6,0c.26,1.86.45,3.74.78,5.59a4,4,0,0,0,3.17,3.32c.68.18,1.38.3,2.25.49-.44.13-.71.22-1,.28-3.26.77-4.32,2-4.75,5.28-.16,1.24-.33,2.47-.52,3.91-.24-1.73-.45-3.26-.67-4.78a4.88,4.88,0,0,0-4.31-4.34,3.67,3.67,0,0,1-1.15-.39c.66-.14,1.32-.27,2-.43a4.09,4.09,0,0,0,3.28-3.5c.31-1.8.53-3.62.78-5.44Z"/><path class="cls-2" d="M17.09,133s-.38-30.84,35.35-31.11,48.34-2.92,57.22-7,16-7.78,25.95-4.63,19.6,12.18,19.55,43.29C65.85,133.56,17.09,133,17.09,133Z"/><path class="cls-3" d="M13,76.23c.26,1.86.45,3.74.78,5.59a4,4,0,0,0,3.17,3.32c.68.18,1.38.3,2.25.49-.44.13-.71.22-1,.28-3.26.77-4.32,2-4.75,5.28-.16,1.24-.33,2.47-.52,3.91-.24-1.73-.45-3.26-.67-4.78A4.88,4.88,0,0,0,7.94,86a3.67,3.67,0,0,1-1.15-.39c.66-.14,1.32-.27,2-.43A4.09,4.09,0,0,0,12,81.66c.31-1.8.53-3.62.78-5.44Z"/><path class="cls-2" d="M154.1,93.68c.41-.09.82-.16,1.23-.26,1.89-.46,2.6-1.36,2.87-3.62a22,22,0,0,1,.44-2.65c.15,1,.25,2.08.45,3.11.43,2.24,1.14,2.9,3.39,3.29l.68.16L162,94c-1.93.5-2.74,1.53-3,3.83a16.82,16.82,0,0,1-.42,2.4c-.13-1-.21-2-.4-3a3.74,3.74,0,0,0-4.06-3.35Z"/><path class="cls-2" d="M130.59,26.87c1.59-.35,3-.63,4.48-1a7.89,7.89,0,0,0,6.16-6.52c.6-3.16,1-6.36,1.43-9.54a5.59,5.59,0,0,1,.26-1.2c.33,2.54.6,5.09,1,7.62a31.27,31.27,0,0,0,1,4.43,7.45,7.45,0,0,0,5.35,5.07c1.55.46,3.14.76,4.86,1.16-.5.1-.91.14-1.3.26a41.21,41.21,0,0,0-5.05,1.65c-3,1.37-4.2,4.07-4.72,7.09s-.84,6.12-1.26,9.29c-.17-1.36-.3-2.62-.48-3.88-.29-2-.59-4-.94-6-.76-4.26-3.43-6.68-7.52-7.7C132.83,27.38,131.77,27.14,130.59,26.87Z"/><path class="cls-2" d="M113.66,53.49c1.15-.26,2.14-.46,3.12-.71a5.61,5.61,0,0,0,4.4-4.78c.4-2.24.66-4.5,1-6.75a.76.76,0,0,1,.2-.5c.13,1.07.25,2.15.4,3.22.2,1.35.4,2.69.65,4,.54,2.88,2.39,4.42,5.16,5a19.76,19.76,0,0,1,2.23.53l-1.17.24c-4.4.9-6.17,2.82-6.71,7.28-.21,1.71-.39,3.41-.7,5.13-.18-1.42-.34-2.85-.55-4.26-.15-1-.34-2-.57-3a6.25,6.25,0,0,0-5-4.81C115.39,53.89,114.6,53.72,113.66,53.49Z"/><path class="cls-3" d="M154.1,71.42l-1.43.4A3.76,3.76,0,0,0,149.78,75c-.24,1.44-.43,2.89-.68,4.52-.18-1.45-.34-2.72-.5-4a4.17,4.17,0,0,0-3.77-3.9c-.18,0-.35-.1-.7-.2l1.32-.32a3.52,3.52,0,0,0,3-3.06c.25-1.5.44-3,.74-4.52.16,1.26.31,2.52.48,3.78a11,11,0,0,0,.3,1.3,3.36,3.36,0,0,0,2.62,2.44C153,71.18,153.46,71.28,154.1,71.42Z"/><path class="cls-3" d="M17.09,15.86l1.27-.29a3,3,0,0,0,2.46-2.62c.19-1.17.37-2.34.67-3.52.08.6.15,1.21.24,1.81s.16,1,.24,1.55a3.21,3.21,0,0,0,2.88,2.88l.84.18s0,0,.07.1c-.54.16-1.07.3-1.6.47A3,3,0,0,0,22,18.82c-.22,1.16-.39,2.33-.7,3.51-.08-.74-.17-1.47-.24-2.21-.26-2.56-1.07-3.48-3.58-4.07L17.1,16Z"/><path class="cls-2" d="M105.4,25.12a1.62,1.62,0,0,1-.33.17c-2.29.35-3.3,1.79-3.48,4a16.58,16.58,0,0,1-.42,2.64c-.09-.82-.18-1.64-.28-2.46a14.53,14.53,0,0,0-.25-1.47,3.23,3.23,0,0,0-2.45-2.5L97,25.17c.68-.19,1.22-.32,1.73-.49a2.4,2.4,0,0,0,1.71-1.79c.26-1.2.41-2.42.61-3.63a2.08,2.08,0,0,1,.24-.8c.13,1.08.23,2.16.4,3.23.34,2.14,1,2.81,3.1,3.29Z"/><path class="cls-2" d="M10,46.41a1.62,1.62,0,0,1-.33.17c-2.29.35-3.3,1.79-3.48,4a16.58,16.58,0,0,1-.42,2.64c-.09-.82-.18-1.64-.28-2.46a14.53,14.53,0,0,0-.25-1.47,3.23,3.23,0,0,0-2.45-2.5l-1.21-.33c.68-.19,1.22-.32,1.73-.49A2.4,2.4,0,0,0,5,44.17c.26-1.2.41-2.42.61-3.63a2.08,2.08,0,0,1,.24-.8c.13,1.08.23,2.16.4,3.23.34,2.14,1,2.81,3.1,3.29Z"/><path class="cls-3" d="M86.39,41.2c-.35-1.63.06-3.61-2.41-3.95,2.51-.32,2-2.36,2.46-3.9.06.49.13,1,.19,1.48.16,1.46.33,1.67,2.17,2.44-.87.21-1.7.45-1.94,1.38S86.55,40.28,86.39,41.2Z"/><path class="cls-3" d="M167.1,77.6c-.35-1.63.06-3.61-2.41-3.95,2.51-.32,2-2.36,2.46-3.9.06.49.13,1,.19,1.48.16,1.46.33,1.67,2.17,2.44-.87.21-1.7.45-1.94,1.38S167.27,76.68,167.1,77.6Z"/><circle class="cls-4" cx="86.45" cy="101.77" r="51"/><circle class="cls-1" cx="86.45" cy="101.77" r="51"/><g class="cls-5"><polygon class="cls-6" points="69.53 133.42 94.17 152.77 137.45 152.77 137.45 104.04 86.46 70.11 79.85 80.21 81 87.84 75.61 105.73 73.39 108.21 69.53 133.42"/></g><path class="cls-7" d="M103.47,132.56c-.85-2.34-1.61-4.83-2.65-7.2a11.67,11.67,0,0,0-4.92-5.66l3.57-12C106.12,112.87,107.63,122.76,103.47,132.56Z"/><path class="cls-7" d="M73.39,108.21,77,120.27c-4.67,2.92-6.14,7.95-7.43,13.15C65.61,124.37,66.15,114.2,73.39,108.21Z"/><path class="cls-7" d="M92.29,77.88c-2.92,2.44-8.55,2.45-11.64,0a37.05,37.05,0,0,1,5.81-7.79A36.38,36.38,0,0,1,92.29,77.88Z"/><path class="cls-7" d="M91,125.81v7H81.28v-7Z"/><path class="cls-7" d="M95,124.32v1.59H77.65v-1.59Z"/><path class="cls-7" d="M95.42,86.2c-.71-2-1.6-4-2.43-6a12.18,12.18,0,0,1-13.14.06c-.43.9-.87,1.71-1.23,2.55a41.82,41.82,0,0,0-3,23,55.27,55.27,0,0,0,5.2,16.39,1.2,1.2,0,0,0,.84.6q4.71.07,9.43,0a1.11,1.11,0,0,0,.81-.52,53.55,53.55,0,0,0,5.54-18.85A40.37,40.37,0,0,0,95.42,86.2Zm-5.64,14a4.83,4.83,0,1,1,0-6.82A4.83,4.83,0,0,1,89.78,100.23Z"/><line class="cls-8" y1="133.42" x2="173.15" y2="133.42"/></g></g></svg>