<svg xmlns="http://www.w3.org/2000/svg" viewBox="0 0 175.94 162.25"><defs><style>.cls-1{fill:#afd35f;}.cls-2{fill:#fff;}.cls-3{fill:#a5a5a5;}.cls-4{fill:#ccc;}</style></defs><title>11Asset 1money</title><g id="Layer_2" data-name="Layer 2"><g id="Layer_1-2" data-name="Layer 1"><circle class="cls-1" cx="86.11" cy="82.81" r="51"/><path class="cls-2" d="M90,106.66V113H83.4v-6.26A25.09,25.09,0,0,1,67,99.5L72.34,92A20.53,20.53,0,0,0,83.4,97.9V87c-7.16-1.74-15-4.52-15-13.91,0-7.09,5.63-13.08,15-14V52.63H90v6.61a24.16,24.16,0,0,1,14.12,6.19l-5.49,7.24A19.16,19.16,0,0,0,90,68.13v9.73c7.23,1.88,15.23,4.66,15.23,14.12C105.23,99.64,100.22,105.62,90,106.66ZM84,76.41V67.58c-3.55.35-5.42,2.16-5.42,4.66C78.6,74.39,80.82,75.58,84,76.41ZM95.15,93.1c0-2.57-2.43-3.75-5.77-4.73v9.73C93.34,97.55,95.15,95.4,95.15,93.1Z"/><path class="cls-3" d="M97.83,10.34c-1.18.28-2.22.45-3.21.76A12.63,12.63,0,0,0,86.81,18a14.26,14.26,0,0,1-5.52,6.42,19.94,19.94,0,0,1-3.55,1.45,1,1,0,0,1-.92-.3c-2.44-3.2-4.85-6.43-7.26-9.65a3.13,3.13,0,0,1-.19-.36c.26-.07.47-.14.69-.17A13,13,0,0,0,80.38,7.78,14.33,14.33,0,0,1,86.86.91l.35-.17C89.8-.38,89.8-.38,91.47,1.85l5.68,7.58Zm-4-.27a1.93,1.93,0,0,1,.51-2,.56.56,0,0,0,0-.54c-1.21-1.65-2.45-3.29-3.66-4.91-1.86.56-2,.53-3.19-1-.88.6-1.83,1.15-2.66,1.84a14,14,0,0,0-3.54,4.78,14.12,14.12,0,0,1-5.26,6c-.91.56-1.89,1-2.5,1.31-.39.89-.69,1.49-.92,2.12a.85.85,0,0,0,.12.68c1.07,1.47,2.18,2.91,3.25,4.37.27.37.48.42.91.21a1.62,1.62,0,0,1,2.1.55l.56.75c.9-.62,1.82-1.17,2.65-1.85A14.92,14.92,0,0,0,86,17.33a13.26,13.26,0,0,1,4.74-5.48C91.69,11.22,92.75,10.7,93.88,10.07Z"/><polygon class="cls-3" points="77.73 25.06 72.83 19.58 71.44 16.67 74.56 14.34 78.52 11.37 82.43 5.61 86.48 1.79 90.06 0.95 96.41 9.42 90.87 12.38 86.89 16.55 82.54 22.96 77.73 25.06"/><path class="cls-4" d="M41.49,27.16c-1.18.28-2.22.45-3.21.76a12.63,12.63,0,0,0-7.81,6.88,14.26,14.26,0,0,1-5.52,6.42,19.94,19.94,0,0,1-3.55,1.45,1,1,0,0,1-.92-.3c-2.44-3.2-4.85-6.43-7.26-9.65a3.13,3.13,0,0,1-.19-.36c.26-.07.47-.14.69-.17A13,13,0,0,0,24,24.6a14.33,14.33,0,0,1,6.47-6.87l.35-.17c2.58-1.12,2.58-1.12,4.26,1.12l5.68,7.58Zm-4-.27a1.93,1.93,0,0,1,.51-2,.56.56,0,0,0,0-.54c-1.21-1.65-2.45-3.29-3.66-4.91-1.86.56-2,.53-3.19-1-.88.6-1.83,1.15-2.66,1.84A14,14,0,0,0,25,25.08a14.12,14.12,0,0,1-5.26,6c-.91.56-1.89,1-2.5,1.31-.39.89-.69,1.49-.92,2.12a.85.85,0,0,0,.12.68c1.07,1.47,2.18,2.91,3.25,4.37.27.37.48.42.91.21a1.62,1.62,0,0,1,2.1.55l.56.75c.9-.62,1.82-1.17,2.65-1.85a14.92,14.92,0,0,0,3.74-5.12,13.26,13.26,0,0,1,4.74-5.48C35.34,28,36.41,27.52,37.54,26.89Z"/><polygon class="cls-4" points="21.38 41.88 16.49 36.4 15.1 33.49 18.22 31.16 22.18 28.19 26.09 22.43 30.13 18.61 33.71 17.77 40.06 26.23 34.52 29.2 30.54 33.37 26.2 39.78 21.38 41.88"/><ellipse class="cls-3" cx="26.76" cy="30.23" rx="5.79" ry="3.7" transform="translate(-13.6 31.1) rotate(-49.71)"/><path class="cls-3" d="M169.92,92c-.74-1-1.33-1.83-2-2.61a12.63,12.63,0,0,0-9.5-4.27,14.26,14.26,0,0,1-8.13-2.37,19.94,19.94,0,0,1-2.79-2.63,1,1,0,0,1-.11-1c1.9-3.55,3.85-7.08,5.78-10.61a3.13,3.13,0,0,1,.25-.32c.17.21.32.37.44.55A13,13,0,0,0,165,75a14.33,14.33,0,0,1,8.94,3l.3.25c2.09,1.89,2.09,1.89.74,4.34L170.46,91Zm-1.39-3.71a1.93,1.93,0,0,1,2-.36.56.56,0,0,0,.49-.22c1-1.79,2-3.59,3-5.37-1.28-1.46-1.3-1.57-.41-3.32-.91-.55-1.8-1.19-2.78-1.66A14,14,0,0,0,165,76.09a14.12,14.12,0,0,1-7.68-2.29c-.89-.59-1.69-1.31-2.23-1.73-1,0-1.64,0-2.31,0a.85.85,0,0,0-.57.39c-.89,1.58-1.75,3.18-2.64,4.77-.22.4-.18.61.19.91a1.62,1.62,0,0,1,.36,2.14l-.45.82c.93.56,1.82,1.18,2.78,1.64a14.92,14.92,0,0,0,6.21,1.28,13.26,13.26,0,0,1,6.95,2C166.58,86.74,167.49,87.49,168.53,88.26Z"/><polygon class="cls-3" points="148.2 79.76 151.16 73.04 153.23 70.57 156.65 72.44 160.99 74.82 167.85 75.99 173.01 78.09 175.25 81.01 170.17 90.29 165.18 86.47 159.73 84.57 152.1 83.28 148.2 79.76"/><path class="cls-4" d="M152.76,44.77c-.59-1.06-1-2-1.62-2.87a12.63,12.63,0,0,0-8.77-5.61,14.26,14.26,0,0,1-7.69-3.54,19.94,19.94,0,0,1-2.37-3,1,1,0,0,1,0-1c2.4-3.23,4.84-6.44,7.27-9.64a3.13,3.13,0,0,1,.3-.28c.14.23.26.41.35.61a13,13,0,0,0,10.15,7.84,14.33,14.33,0,0,1,8.39,4.33l.26.29c1.79,2.18,1.79,2.18.1,4.4l-5.72,7.55Zm-.83-3.87a1.93,1.93,0,0,1,2-.06.56.56,0,0,0,.52-.15c1.25-1.62,2.49-3.26,3.71-4.88-1.05-1.63-1.05-1.75.08-3.34-.82-.68-1.61-1.44-2.5-2.05a14,14,0,0,0-5.57-2.08A14.12,14.12,0,0,1,142.95,25c-.79-.72-1.48-1.54-2-2-1-.13-1.62-.26-2.29-.3a.85.85,0,0,0-.62.3c-1.12,1.43-2.2,2.89-3.31,4.33a.59.59,0,0,0,.05.93,1.62,1.62,0,0,1,0,2.17l-.56.74c.84.69,1.63,1.43,2.5,2a14.92,14.92,0,0,0,5.95,2.18,13.26,13.26,0,0,1,6.57,3C150.22,39.11,151,40,151.93,40.9Z"/><polygon class="cls-4" points="133.07 29.51 136.98 23.3 139.39 21.16 142.5 23.51 146.44 26.5 153.06 28.67 157.85 31.5 159.65 34.71 153.26 43.15 148.88 38.64 143.77 35.97 136.41 33.56 133.07 29.51"/><ellipse class="cls-3" cx="145.74" cy="31.47" rx="3.7" ry="5.79" transform="translate(57.15 151.4) rotate(-65.73)"/><path class="cls-3" d="M12.22,63.47c0,1.21-.14,2.26-.09,3.3a12.63,12.63,0,0,0,4.64,9.32,14.26,14.26,0,0,1,4.78,7A19.94,19.94,0,0,1,22,86.88a1,1,0,0,1-.53.81c-3.72,1.54-7.46,3-11.2,4.53a3.13,3.13,0,0,1-.4.09c0-.27,0-.49,0-.71A13,13,0,0,0,5.25,79.67a14.33,14.33,0,0,1-5-8c0-.13-.06-.26-.07-.39-.42-2.79-.42-2.78,2.18-3.83l8.79-3.54Zm-1.28,3.75a1.93,1.93,0,0,1-1.79-1,.56.56,0,0,0-.52-.14c-1.91.75-3.81,1.52-5.69,2.27.06,1.94,0,2-1.79,2.83.35,1,.64,2.07,1.09,3A14,14,0,0,0,6,78.87a14.12,14.12,0,0,1,4.49,6.64c.31,1,.48,2.08.63,2.75.76.61,1.26,1.05,1.81,1.44a.85.85,0,0,0,.68.06c1.69-.65,3.37-1.35,5.06-2,.42-.16.53-.36.43-.82A1.62,1.62,0,0,1,20.14,85L21,84.7c-.37-1-.66-2.06-1.1-3a14.92,14.92,0,0,0-4-4.93,13.26,13.26,0,0,1-4.07-6C11.48,69.63,11.26,68.47,10.94,67.21Z"/><polygon class="cls-3" points="21.27 86.68 14.71 90 11.54 90.59 10.09 86.98 8.24 82.39 3.68 77.13 1.03 72.23 1.14 68.56 10.96 64.61 12.4 70.72 15.4 75.64 20.48 81.49 21.27 86.68"/><path class="cls-4" d="M26.73,112.56c-.06,1.21-.17,2.26-.14,3.3a12.63,12.63,0,0,0,4.5,9.39,14.26,14.26,0,0,1,4.67,7.06,19.94,19.94,0,0,1,.43,3.81,1,1,0,0,1-.54.81c-3.74,1.48-7.51,2.92-11.26,4.36a3.13,3.13,0,0,1-.4.08c0-.27,0-.49,0-.71a13,13,0,0,0-4.49-12,14.33,14.33,0,0,1-4.85-8.1c0-.13-.05-.26-.07-.39-.37-2.79-.37-2.79,2.24-3.79L25.67,113Zm-1.33,3.73a1.93,1.93,0,0,1-1.77-1,.56.56,0,0,0-.52-.15c-1.92.72-3.83,1.46-5.72,2.19,0,1.94,0,2-1.83,2.8.34,1,.61,2.07,1,3.06a14,14,0,0,0,3.64,4.7,14.12,14.12,0,0,1,4.39,6.7c.29,1,.45,2.09.59,2.76.75.62,1.24,1.07,1.79,1.46a.85.85,0,0,0,.68.07c1.7-.63,3.39-1.3,5.09-1.94.43-.16.53-.35.45-.82a1.62,1.62,0,0,1,1.1-1.87l.87-.34c-.35-1-.63-2.07-1.06-3a14.92,14.92,0,0,0-3.91-5,13.26,13.26,0,0,1-4-6C25.9,118.71,25.69,117.55,25.39,116.29Z"/><polygon class="cls-4" points="35.42 135.91 28.82 139.13 25.64 139.68 24.24 136.04 22.46 131.42 17.98 126.09 15.41 121.16 15.57 117.49 25.45 113.68 26.8 119.82 29.73 124.79 34.72 130.71 35.42 135.91"/><ellipse class="cls-3" cx="25.68" cy="127.56" rx="3.7" ry="5.79" transform="translate(-66.84 36.07) rotate(-33.94)"/><path class="cls-3" d="M95.11,162.25c-.94-.77-1.71-1.48-2.56-2.08a12.63,12.63,0,0,0-10.22-2,14.26,14.26,0,0,1-8.45-.46,19.94,19.94,0,0,1-3.32-1.93,1,1,0,0,1-.33-.91c1-3.89,2.14-7.76,3.22-11.64a3.13,3.13,0,0,1,.17-.37c.21.17.4.29.55.44a13,13,0,0,0,12.32,3.56,14.33,14.33,0,0,1,9.39.94l.35.18c2.46,1.37,2.46,1.37,1.71,4.06l-2.54,9.13Zm-2.2-3.3a1.93,1.93,0,0,1,1.88-.81.56.56,0,0,0,.43-.33c.57-2,1.11-3.94,1.66-5.9-1.58-1.13-1.62-1.24-1.15-3.14-1-.33-2-.75-3.08-1a14,14,0,0,0-5.95.11,14.12,14.12,0,0,1-8-.48c-1-.38-1.94-.89-2.57-1.18-.94.23-1.6.36-2.24.56a.85.85,0,0,0-.46.51c-.51,1.74-1,3.5-1.49,5.24-.13.44,0,.64.39.84a1.62,1.62,0,0,1,.84,2l-.25.9c1,.33,2,.73,3.08,1a14.92,14.92,0,0,0,6.33-.16,13.26,13.26,0,0,1,7.23.41C90.67,157.91,91.73,158.44,92.92,159Z"/><polygon class="cls-3" points="71.19 155.29 72.54 148.07 74 145.2 77.75 146.25 82.52 147.57 89.47 147.16 94.97 148.03 97.82 150.36 94.98 160.56 89.25 157.97 83.51 157.36 75.78 157.83 71.19 155.29"/><path class="cls-4" d="M155.69,140.75c-.6-1.05-1.06-2-1.65-2.86a12.63,12.63,0,0,0-8.82-5.53,14.26,14.26,0,0,1-7.73-3.46,19.94,19.94,0,0,1-2.4-3,1,1,0,0,1,0-1c2.37-3.25,4.78-6.48,7.18-9.71a3.13,3.13,0,0,1,.29-.28c.14.23.27.41.36.61a13,13,0,0,0,10.22,7.74,14.33,14.33,0,0,1,8.43,4.24l.27.29c1.81,2.16,1.81,2.16.14,4.4l-5.65,7.61Zm-.87-3.86a1.93,1.93,0,0,1,2-.08.56.56,0,0,0,.51-.15c1.24-1.63,2.45-3.28,3.66-4.91-1.07-1.62-1.07-1.74,0-3.34-.83-.67-1.62-1.43-2.52-2a14,14,0,0,0-5.59-2,14.12,14.12,0,0,1-7.29-3.32c-.8-.71-1.49-1.53-2-2-1-.12-1.63-.24-2.29-.28a.85.85,0,0,0-.61.31c-1.1,1.44-2.17,2.91-3.27,4.36a.59.59,0,0,0,.06.93,1.62,1.62,0,0,1,.07,2.17l-.56.75c.85.68,1.64,1.42,2.52,2a14.92,14.92,0,0,0,6,2.12,13.26,13.26,0,0,1,6.6,3C153.1,135.11,153.9,136,154.82,136.89Z"/><polygon class="cls-4" points="135.85 125.68 139.7 119.43 142.09 117.27 145.22 119.59 149.19 122.54 155.83 124.64 160.65 127.43 162.47 130.62 156.17 139.12 151.74 134.66 146.61 132.03 139.23 129.7 135.85 125.68"/><ellipse class="cls-3" cx="148.54" cy="127.52" rx="3.7" ry="5.79" transform="matrix(0.4, -0.92, 0.92, 0.4, -27.95, 212.24)"/></g></g></svg>