<svg xmlns="http://www.w3.org/2000/svg" xmlns:xlink="http://www.w3.org/1999/xlink" viewBox="0 0 440 221.08"><defs><style>.cls-1{fill:url(#linear-gradient);}.cls-2{fill:url(#linear-gradient-2);}.cls-3{fill:url(#linear-gradient-3);}.cls-4{fill:none;stroke:#fff;stroke-linecap:round;stroke-linejoin:round;stroke-width:5px;}.cls-5{fill:url(#linear-gradient-4);}.cls-6{fill:#3d454c;}</style><linearGradient id="linear-gradient" x1="131.59" y1="61.56" x2="440" y2="61.56" gradientUnits="userSpaceOnUse"><stop offset="0" stop-color="#9a66dd"/><stop offset="0.19" stop-color="#9463d7"/><stop offset="0.43" stop-color="#8559c7"/><stop offset="0.7" stop-color="#6a4aac"/><stop offset="1" stop-color="#463486"/><stop offset="1" stop-color="#463486"/></linearGradient><linearGradient id="linear-gradient-2" x1="0" y1="82.13" x2="117.23" y2="82.13" xlink:href="#linear-gradient"/><linearGradient id="linear-gradient-3" x1="127.67" y1="168.56" x2="164.63" y2="205.53" gradientUnits="userSpaceOnUse"><stop offset="0" stop-color="#243331"/><stop offset="1" stop-color="#8b999d"/></linearGradient><linearGradient id="linear-gradient-4" x1="112.11" y1="187.05" x2="180.19" y2="187.05" xlink:href="#linear-gradient-3"/></defs><title>11Asset 11blockchain-img9</title><g id="Layer_2" data-name="Layer 2"><g id="Layer_1-2" data-name="Layer 1"><path class="cls-1" d="M137.41,94.78c-1.28,2.79-4.27,10-5.27,12.13l-.55-.23c.8-2,3.82-9,4.34-11.09a8.29,8.29,0,0,0,0-4.74,51.8,51.8,0,0,1-3.28-19.28c0-11.86-.41-23.78.66-35.56.87-9.55,3.55-18.95,5.64-28.37a16.1,16.1,0,0,1,2.84-5.74c2.06-2.82,5-2.51,6,.8a35.35,35.35,0,0,1,1,9.27c.49,26.61-1.81,52.87-10,78.37a5.7,5.7,0,0,0-.05,4c3.84,7.15,7.59,14.38,12,21.17,3.19,4.91,8.23,7.4,14.25,6a13.74,13.74,0,0,0,6.5-3.62c4.27-4.52,7-10.07,9.45-16.17-4.63-1.12-7-4.13-7.16-8.6-.3-6.48.46-12.78,4.72-18,1.66-2,4.12-3.35,6.81-2.35s3.42,3.64,3,6.13c-1,5.87-2.33,11.67-3.57,17.5a12.63,12.63,0,0,0-.59,4.13A65.29,65.29,0,0,0,192.29,98c4.63-2.07,7.65-6,10.55-10a69.12,69.12,0,0,1,4.87-6.25c1.7-1.85,3.39-1.57,4.33.73a61,61,0,0,1,1.81,6.49,85.55,85.55,0,0,0,2.93,9.83c3.1,7.37,9.31,9.51,16.35,5.63a25.18,25.18,0,0,0,6.63-5.27c4.28-4.85,8.26-10,12.26-15a12.29,12.29,0,0,0,1.26-3.2,55.39,55.39,0,0,1,2.95-7.23A2.69,2.69,0,0,1,259.56,72c1.37,1,.47,2.56.21,3.72a16.2,16.2,0,0,1-1.82,3.67c-1.72,3.23-1.24,4.91,2.42,5.29,5.21.55,10.62,1,15.75.21,6.64-1,13.09-3.25,19.62-5a24.87,24.87,0,0,1,17.44,1.74c4.88,2.28,9.84,4.74,15.42,4.15,2.82-.3,6.08-.82,8.21-2.45,5.89-4.52,12-5.21,19.31-4.59,18.38,1.57,36.75,1.68,54.81-3.61,8.24-2.41,16.83-3.61,25.26-5.37,1.67-.35,3.29-.35,3.73,1.7s-1.34,2.4-2.73,2.7c-13.17,2.86-26.34,5.73-39.54,8.44a48.34,48.34,0,0,1-9.89,1.08c-11-.05-22,.12-32.9-.76-5.89-.47-10.83,0-15.74,3.5-5.24,3.74-11.27,4.19-17.41,2.14a39.79,39.79,0,0,1-6.6-2.42c-8.43-4.61-17-4.34-25.87-1.5-7.66,2.46-15.41,4.75-23.59,3.72A42,42,0,0,1,256.15,86c-1.73-.66-2.41-.17-3.39,1-4.1,4.87-8.18,9.77-12.48,14.48a19.35,19.35,0,0,1-11.14,6.13c-4.64.81-8.5-.5-11.35-4.4-3.59-4.91-4.33-10.81-5.82-16.47a32.83,32.83,0,0,0-2-4.64,32.47,32.47,0,0,0-3.77,3.38c-2.62,3.17-4.85,6.68-7.63,9.69a18.66,18.66,0,0,1-13.15,6.38,4.36,4.36,0,0,0-4,2.77,103,103,0,0,1-7.12,12.16c-5.68,8-14.82,8.86-22.08,2.18-5.53-5.09-8.59-11.86-12.09-18.31C139.28,98.72,138.53,97.06,137.41,94.78Zm.32-4.62c.71-2.31,1.29-4.06,1.79-5.84,7-24.93,8.53-50.41,7.64-76.12-.07-2.15.45-5.2-2.18-5.67-1-.18-3.26,2.88-3.78,4.78-2.21,8.13-5.13,16.3-5.66,24.6-1,16.12-.69,32.33-.71,48.51,0,2.57,1.07,5.16,1.72,7.72A10.46,10.46,0,0,0,137.73,90.16ZM186.62,81h0a11.16,11.16,0,0,0,.06-2.63,5.24,5.24,0,0,0-2.35-2.86c-1-.35-2.68.32-3.59,1.1-3.83,3.29-6.12,15.83-3.85,20.21a4.49,4.49,0,0,0,1.1,1.35c2.32,1.93,3.86,1.59,4.66-1.32C184.1,91.55,185.31,86.24,186.62,81Z"/><path class="cls-2" d="M83.83,153A10.5,10.5,0,0,1,82.55,150c-.29-3.91-.5-7.84-.48-11.76.07-13.15.26-26.29.4-39.44,0-1.16,0-2.32,0-4-6.66,1.32-13,2.49-19.21,3.89a5.15,5.15,0,0,0-2.5,2.28c-10,15.13-22.65,27.77-37.11,38.67-6.16,4.64-12.82,7.54-20.67,7.11-1-.05-2-.29-2.94-.44l0-1a47.62,47.62,0,0,0,6.68-.86c3.64-1,7.63-1.63,10.69-3.62a140.31,140.31,0,0,0,39.38-39.16,9.68,9.68,0,0,0,.6-1.44c-11.78,2.26-22.61,7.27-34.48,7.48,2.43-.43,4.9-.7,7.27-1.33,9-2.39,18-4.83,26.91-7.46a7,7,0,0,0,3.32-3A179.12,179.12,0,0,0,84.81,33c1.1-5.77,2.06-11.57,3.09-17.36A9.43,9.43,0,0,1,88.49,13c.29-.58.32-1.62,2.23-1.8A2,2,0,0,1,92,13.53q-.27,7.49-.87,15C90.25,39.33,89.21,50.16,88.4,61c-.71,9.48-1.2,19-1.77,28.46-.06,1.07,0,2.15,0,3.68h3.14c7.95,0,15.89,0,23.84.05a23.61,23.61,0,0,1,3.63.58l-.12,1.13c-1.08,0-2.16,0-3.25,0-7.84-.17-15.68-.4-23.53-.51-4.1-.06-4.16,0-4.25,4.26-.27,13.14-.49,26.28-.73,39.42-.07,3.92-.15,7.85-.25,11.77,0,1-.17,1.9-.27,2.85Zm.75-100.88C79.22,67.79,71.92,82.41,63.5,97c5.86-1.1,11.12-2.21,16.42-3,2-.3,2.58-.93,2.64-2.9.24-7.83.63-15.66,1-23.48C83.87,62.43,84.25,57.28,84.58,52.13Z"/><circle class="cls-3" cx="146.15" cy="187.05" r="26.14"/><polyline class="cls-4" points="134.37 187.64 141.83 195.1 157.93 179"/><path class="cls-5" d="M176.2,172.57c-.13.5-.34,1.33-.57,2.16a7.9,7.9,0,0,0,2.23,8.27c.34.33.69.65,1,1a4.22,4.22,0,0,1,0,6.09c-.4.4-.83.78-1.22,1.18a8,8,0,0,0-2.1,8,11,11,0,0,1,.54,3.11,4,4,0,0,1-3.19,3.7c-.5.13-1,.23-1.52.37a7.85,7.85,0,0,0-5.85,5.84c-.15.55-.26,1.1-.42,1.65a4.25,4.25,0,0,1-5.32,3,11.83,11.83,0,0,0-3.91-.76,8,8,0,0,0-5.58,2.46c-.4.43-.81.86-1.23,1.27a4.22,4.22,0,0,1-5.85,0c-.43-.4-.82-.85-1.24-1.27a7.89,7.89,0,0,0-8.11-2.16c-.48.13-1,.29-1.43.42a4.26,4.26,0,0,1-5.34-3.05c-.13-.46-.21-.93-.33-1.39a7.93,7.93,0,0,0-6-6c-.52-.14-1.06-.24-1.58-.39a4.24,4.24,0,0,1-3-5.27c.12-.46.27-.91.39-1.37a7.88,7.88,0,0,0-2.2-8.27c-.37-.37-.76-.71-1.13-1.09a4.22,4.22,0,0,1,0-5.95c.34-.36.72-.69,1.07-1a8,8,0,0,0,2.24-8.45,8.67,8.67,0,0,1-.46-3,4,4,0,0,1,3.22-3.6c.44-.12.88-.2,1.32-.31a7.9,7.9,0,0,0,6-6c.13-.48.22-1,.35-1.45a4.28,4.28,0,0,1,5.39-3.07,16.42,16.42,0,0,0,3.24.71,7.67,7.67,0,0,0,6.34-2.54c.35-.38.71-.77,1.09-1.13a4.22,4.22,0,0,1,5.95,0c.34.33.66.68,1,1a8,8,0,0,0,8.5,2.27,9,9,0,0,1,2.65-.5,4.13,4.13,0,0,1,3.94,3.35,10.4,10.4,0,0,0,1.64,4.2,8.08,8.08,0,0,0,4.79,3.12,14.36,14.36,0,0,1,1.64.42A4.38,4.38,0,0,1,176.2,172.57ZM120,187a26.14,26.14,0,1,0,26.44-26.11A26.14,26.14,0,0,0,120,187Z"/><path class="cls-6" d="M188.42,171.48h-.08a.75.75,0,0,1-.45-.11.42.42,0,0,1-.13-.35.47.47,0,0,1,.11-.34.44.44,0,0,1,.33-.12h1.93a.88.88,0,0,1,.51.1.43.43,0,0,1,.13.36.42.42,0,0,1-.14.35.72.72,0,0,1-.45.11h-.7l2.17,5.56,2.11-5.56h-.85a.72.72,0,0,1-.44-.11.41.41,0,0,1-.14-.35.42.42,0,0,1,.13-.36.88.88,0,0,1,.5-.1h2a.43.43,0,0,1,.33.12.48.48,0,0,1,.11.34.42.42,0,0,1-.13.35.77.77,0,0,1-.47.11h-.08l-2.29,6a2.26,2.26,0,0,1-.31.6.39.39,0,0,1-.29.12h-.36q-.42,0-.68-.68v0Z"/><path class="cls-6" d="M197.25,175.46a2,2,0,0,0,.62,1.42,2.28,2.28,0,0,0,1.56.5,4,4,0,0,0,1.63-.4,4.4,4.4,0,0,1,1.06-.4.44.44,0,0,1,.32.12.4.4,0,0,1,.13.3.5.5,0,0,1-.13.34,1.39,1.39,0,0,1-.43.3,6.49,6.49,0,0,1-1.32.47,5.69,5.69,0,0,1-1.35.16,3.22,3.22,0,0,1-2.33-.84,2.94,2.94,0,0,1-.87-2.22,3,3,0,0,1,.92-2.28,3.36,3.36,0,0,1,2.41-.87,3.17,3.17,0,0,1,2.23.82,2.59,2.59,0,0,1,.89,2,.6.6,0,0,1-.15.48,1.6,1.6,0,0,1-.81.12h-4.38Zm0-.83h4.15a1.85,1.85,0,0,0-.63-1.22,2,2,0,0,0-1.32-.46,2.27,2.27,0,0,0-1.43.45A2.11,2.11,0,0,0,197.28,174.62Z"/><path class="cls-6" d="M206.61,177.22h2.12a.54.54,0,0,1,.37.11.43.43,0,0,1,.12.33.47.47,0,0,1-.11.36.63.63,0,0,1-.41.1h-4.17a.55.55,0,0,1-.38-.11.44.44,0,0,1-.13-.34.41.41,0,0,1,.13-.33.63.63,0,0,1,.4-.11h1.11v-4.09h-.43a1.8,1.8,0,0,1-.77-.1.39.39,0,0,1-.15-.36.42.42,0,0,1,.12-.33.56.56,0,0,1,.38-.11h1.45a.43.43,0,0,1,.26.07.23.23,0,0,1,.09.19v1.08a4.45,4.45,0,0,1,1.26-1.13,2.84,2.84,0,0,1,1.41-.37,1.66,1.66,0,0,1,.92.23.68.68,0,0,1,.35.59.58.58,0,0,1-.18.42.53.53,0,0,1-.39.18,1.25,1.25,0,0,1-.49-.19,1.3,1.3,0,0,0-.62-.19,2,2,0,0,0-1,.35,6.1,6.1,0,0,0-1.22,1.12Z"/><path class="cls-6" d="M215.67,177.22h2a.54.54,0,0,1,.37.11.43.43,0,0,1,.12.33.47.47,0,0,1-.11.36.63.63,0,0,1-.41.1h-4.94a.56.56,0,0,1-.38-.11.44.44,0,0,1-.13-.34.4.4,0,0,1,.13-.33.63.63,0,0,1,.4-.11h1.94v-4.09h-1.25a.6.6,0,0,1-.4-.12.49.49,0,0,1,0-.67.57.57,0,0,1,.38-.11h1.87a.46.46,0,0,1,.27.07.22.22,0,0,1,.1.19Zm-1.18-6.83a1.84,1.84,0,0,1,.12-.87.62.62,0,0,1,.53-.18.68.68,0,0,1,.52.15,1.25,1.25,0,0,1,.13.71,1.19,1.19,0,0,1-.12.68.75.75,0,0,1-.53.13.8.8,0,0,1-.53-.12A.72.72,0,0,1,214.49,170.4Z"/><path class="cls-6" d="M224.87,177.21a.61.61,0,0,1,.4.11.42.42,0,0,1,.14.34.43.43,0,0,1-.13.34.56.56,0,0,1-.38.11h-4.17a.61.61,0,0,1-.4-.11.5.5,0,0,1,0-.68.56.56,0,0,1,.38-.11h1.08v-3.89h-1a.61.61,0,0,1-.4-.12.5.5,0,0,1,0-.69.58.58,0,0,1,.39-.11h1V172a2,2,0,0,1,.66-1.67,3.44,3.44,0,0,1,2.12-.52,2.63,2.63,0,0,1,1.05.16.52.52,0,0,1,.34.5.41.41,0,0,1-.15.33.55.55,0,0,1-.38.13,4.49,4.49,0,0,1-.55-.08,4.44,4.44,0,0,0-.75-.08,1.45,1.45,0,0,0-1,.3,1.36,1.36,0,0,0-.31,1v.36H225a.61.61,0,0,1,.4.11.42.42,0,0,1,.14.34.43.43,0,0,1-.14.34.56.56,0,0,1-.38.12h-2.21v3.89Z"/><path class="cls-6" d="M231.33,177.22h2a.54.54,0,0,1,.37.11.43.43,0,0,1,.12.33.47.47,0,0,1-.11.36.63.63,0,0,1-.41.1H228.4A.56.56,0,0,1,228,178a.44.44,0,0,1-.13-.34.4.4,0,0,1,.13-.33.63.63,0,0,1,.4-.11h1.94v-4.09h-1.25a.6.6,0,0,1-.4-.12.49.49,0,0,1,0-.67.57.57,0,0,1,.38-.11H231a.46.46,0,0,1,.27.07.22.22,0,0,1,.1.19Zm-1.18-6.83a1.84,1.84,0,0,1,.12-.87.62.62,0,0,1,.53-.18.68.68,0,0,1,.52.15,1.25,1.25,0,0,1,.13.71,1.19,1.19,0,0,1-.12.68.75.75,0,0,1-.53.13.8.8,0,0,1-.53-.12A.72.72,0,0,1,230.15,170.4Z"/><path class="cls-6" d="M236.42,175.46a2,2,0,0,0,.62,1.42,2.28,2.28,0,0,0,1.56.5,4,4,0,0,0,1.63-.4,4.4,4.4,0,0,1,1.06-.4.44.44,0,0,1,.32.12.4.4,0,0,1,.13.3.5.5,0,0,1-.13.34,1.39,1.39,0,0,1-.43.3,6.49,6.49,0,0,1-1.32.47,5.69,5.69,0,0,1-1.35.16,3.22,3.22,0,0,1-2.33-.84,2.94,2.94,0,0,1-.87-2.22,3,3,0,0,1,.92-2.28,3.36,3.36,0,0,1,2.41-.87,3.17,3.17,0,0,1,2.23.82,2.59,2.59,0,0,1,.89,2,.6.6,0,0,1-.15.48,1.6,1.6,0,0,1-.81.12h-4.38Zm0-.83h4.15a1.85,1.85,0,0,0-.63-1.22,2,2,0,0,0-1.32-.46,2.27,2.27,0,0,0-1.43.45A2.11,2.11,0,0,0,236.45,174.62Z"/><path class="cls-6" d="M248.32,178.12a.23.23,0,0,1-.19-.07.43.43,0,0,1-.05-.26v-.52a2.6,2.6,0,0,1-1,.74,2.93,2.93,0,0,1-1.24.26,2.67,2.67,0,0,1-2-.86,3.21,3.21,0,0,1,.05-4.33,2.92,2.92,0,0,1,2.16-.88,2.87,2.87,0,0,1,1.18.23,2.45,2.45,0,0,1,.9.69V170.7h-.34a1.64,1.64,0,0,1-.72-.1.39.39,0,0,1-.16-.36.43.43,0,0,1,.13-.34.56.56,0,0,1,.38-.11h1.31a.47.47,0,0,1,.28.06.23.23,0,0,1,.09.2v7.18h.29a.76.76,0,0,1,.45.11.39.39,0,0,1,.14.33.46.46,0,0,1-.12.34.44.44,0,0,1-.33.12Zm-4.17-2.86a1.94,1.94,0,0,0,.57,1.44,2,2,0,0,0,1.44.56,1.93,1.93,0,0,0,1.45-.58,2,2,0,0,0,.57-1.48,2,2,0,0,0-.56-1.46,2,2,0,0,0-1.45-.57,1.92,1.92,0,0,0-1.45.58A2.1,2.1,0,0,0,244.15,175.26Z"/></g></g></svg>