<svg xmlns="http://www.w3.org/2000/svg" xmlns:xlink="http://www.w3.org/1999/xlink" viewBox="0 0 438.78 313.71"><defs><style>.cls-1{fill:url(#linear-gradient);}.cls-2{fill:#1e2c33;}.cls-3{fill:url(#linear-gradient-2);}.cls-4{fill:#909cad;}.cls-5{fill:#d3deef;}.cls-6{fill:url(#linear-gradient-3);}.cls-7{fill:url(#linear-gradient-4);}.cls-8{fill:#2da069;}.cls-18,.cls-19,.cls-9{fill:none;}.cls-9{stroke:#2da069;stroke-linecap:round;stroke-linejoin:round;stroke-width:4px;}.cls-10{fill:url(#linear-gradient-5);}.cls-11{fill:url(#linear-gradient-6);}.cls-12{fill:url(#linear-gradient-7);}.cls-13{fill:url(#linear-gradient-8);}.cls-14{fill:url(#linear-gradient-9);}.cls-15{fill:url(#linear-gradient-10);}.cls-16{fill:url(#linear-gradient-11);}.cls-17{fill:url(#linear-gradient-12);}.cls-18,.cls-19{stroke-miterlimit:10;}.cls-18{stroke:url(#linear-gradient-13);}.cls-19{stroke:url(#linear-gradient-14);}</style><linearGradient id="linear-gradient" x1="146.04" y1="54.13" x2="292.31" y2="54.13" gradientUnits="userSpaceOnUse"><stop offset="0" stop-color="#dfe6fb"/><stop offset="1" stop-color="#b8b9d6"/></linearGradient><linearGradient id="linear-gradient-2" x1="219.17" y1="5.85" x2="219.17" y2="71.97" gradientUnits="userSpaceOnUse"><stop offset="0" stop-color="#7ef5ca"/><stop offset="1" stop-color="#3de35c"/></linearGradient><linearGradient id="linear-gradient-3" x1="218.85" y1="120.79" x2="218.85" y2="102.41" xlink:href="#linear-gradient"/><linearGradient id="linear-gradient-4" x1="218.85" y1="120.79" x2="218.85" y2="123.84" gradientUnits="userSpaceOnUse"><stop offset="0" stop-color="#b8b9d6"/><stop offset="0.28" stop-color="#dfe6fb"/><stop offset="1" stop-color="#b8b9d6"/></linearGradient><linearGradient id="linear-gradient-5" x1="0" y1="243.99" x2="146.27" y2="243.99" xlink:href="#linear-gradient"/><linearGradient id="linear-gradient-6" x1="73.14" y1="195.72" x2="73.14" y2="261.83" xlink:href="#linear-gradient-2"/><linearGradient id="linear-gradient-7" x1="72.81" y1="310.66" x2="72.81" y2="292.27" xlink:href="#linear-gradient"/><linearGradient id="linear-gradient-8" x1="72.81" y1="310.66" x2="72.81" y2="313.71" xlink:href="#linear-gradient-4"/><linearGradient id="linear-gradient-9" x1="292.41" y1="243.99" x2="438.68" y2="243.99" xlink:href="#linear-gradient"/><linearGradient id="linear-gradient-10" x1="365.55" y1="195.72" x2="365.55" y2="261.83" xlink:href="#linear-gradient-2"/><linearGradient id="linear-gradient-11" x1="365.22" y1="310.66" x2="365.22" y2="292.27" xlink:href="#linear-gradient"/><linearGradient id="linear-gradient-12" x1="365.22" y1="310.66" x2="365.22" y2="313.71" xlink:href="#linear-gradient-4"/><linearGradient id="linear-gradient-13" x1="73.6" y1="156.85" x2="219.35" y2="156.85" gradientUnits="userSpaceOnUse"><stop offset="0" stop-color="#3372f7"/><stop offset="0.94" stop-color="#c1d8fb"/></linearGradient><linearGradient id="linear-gradient-14" x1="-70.71" y1="156.85" x2="75.04" y2="156.85" gradientTransform="matrix(-1, 0, 0, 1, 292.95, 0)" xlink:href="#linear-gradient-13"/></defs><title>11Asset 6blockchain-img4</title><g id="Layer_2" data-name="Layer 2"><g id="Layer_1-2" data-name="Layer 1"><path class="cls-1" d="M146,5.85H292.31a0,0,0,0,1,0,0V99a3.44,3.44,0,0,1-3.44,3.44H149.48A3.44,3.44,0,0,1,146,99V5.85a0,0,0,0,1,0,0Z"/><path class="cls-2" d="M149.57,0H289a3.43,3.43,0,0,1,3.43,3.43V78.56a0,0,0,0,1,0,0H146.14a0,0,0,0,1,0,0V3.43A3.43,3.43,0,0,1,149.57,0Z"/><path class="cls-3" d="M156.16,5.85h126a3,3,0,0,1,3,3V72a0,0,0,0,1,0,0h-132a0,0,0,0,1,0,0V8.84A3,3,0,0,1,156.16,5.85Z"/><circle class="cls-4" cx="219.27" cy="90.2" r="8.21"/><path class="cls-5" d="M219.27,96.24A6,6,0,0,1,215,85.93a.86.86,0,1,1,1.22,1.22,4.31,4.31,0,0,0,1.37,7,4.35,4.35,0,0,0,3.36,0,4.31,4.31,0,0,0-1.68-8.29.86.86,0,1,1,0-1.73,6,6,0,1,1,0,12.08Z"/><path class="cls-5" d="M219.27,91.07a.86.86,0,0,1-.86-.86V85a.86.86,0,0,1,1.73,0V90.2A.86.86,0,0,1,219.27,91.07Z"/><rect class="cls-6" x="202.15" y="102.41" width="33.39" height="18.38"/><path class="cls-7" d="M186.66,123.84H251s-1.83-3.05-14-3.05H199.21S188.58,120.79,186.66,123.84Z"/><circle class="cls-8" cx="202.67" cy="26.52" r="6"/><circle class="cls-8" cx="235.67" cy="26.52" r="6"/><path class="cls-9" d="M244.31,41.72s-4.22,17.83-25.37,17.83S194,41.72,194,41.72"/><path class="cls-10" d="M0,195.72H146.27a0,0,0,0,1,0,0v93.12a3.44,3.44,0,0,1-3.44,3.44H3.44A3.44,3.44,0,0,1,0,288.84V195.72A0,0,0,0,1,0,195.72Z"/><path class="cls-2" d="M3.53,189.86H142.94a3.43,3.43,0,0,1,3.43,3.43v75.14a0,0,0,0,1,0,0H.1a0,0,0,0,1,0,0V193.29A3.43,3.43,0,0,1,3.53,189.86Z"/><path class="cls-11" d="M10.12,195.72h126a3,3,0,0,1,3,3v63.13a0,0,0,0,1,0,0H7.14a0,0,0,0,1,0,0V198.7A3,3,0,0,1,10.12,195.72Z"/><circle class="cls-4" cx="73.24" cy="280.07" r="8.21"/><path class="cls-5" d="M73.24,286.1A6,6,0,0,1,69,275.8.86.86,0,1,1,70.19,277a4.31,4.31,0,0,0,1.37,7,4.35,4.35,0,0,0,3.36,0,4.31,4.31,0,0,0-1.68-8.29.86.86,0,1,1,0-1.73,6,6,0,1,1,0,12.08Z"/><path class="cls-5" d="M73.24,280.93a.86.86,0,0,1-.86-.86v-5.18a.86.86,0,1,1,1.73,0v5.18A.86.86,0,0,1,73.24,280.93Z"/><rect class="cls-12" x="56.11" y="292.27" width="33.39" height="18.38"/><path class="cls-13" d="M40.62,313.71H105s-1.83-3.05-14-3.05H53.17S42.54,310.66,40.62,313.71Z"/><circle class="cls-8" cx="56.64" cy="216.38" r="6"/><circle class="cls-8" cx="89.64" cy="216.38" r="6"/><path class="cls-9" d="M98.27,231.59S94,249.42,72.9,249.42,48,231.59,48,231.59"/><path class="cls-14" d="M292.41,195.72H438.68a0,0,0,0,1,0,0v93.12a3.44,3.44,0,0,1-3.44,3.44H295.85a3.44,3.44,0,0,1-3.44-3.44V195.72A0,0,0,0,1,292.41,195.72Z"/><path class="cls-2" d="M295.94,189.86H435.35a3.43,3.43,0,0,1,3.43,3.43v75.14a0,0,0,0,1,0,0H292.51a0,0,0,0,1,0,0V193.29A3.43,3.43,0,0,1,295.94,189.86Z"/><path class="cls-15" d="M302.53,195.72h126a3,3,0,0,1,3,3v63.13a0,0,0,0,1,0,0h-132a0,0,0,0,1,0,0V198.7A3,3,0,0,1,302.53,195.72Z"/><circle class="cls-4" cx="365.65" cy="280.07" r="8.21"/><path class="cls-5" d="M365.65,286.1a6,6,0,0,1-4.27-10.31A.86.86,0,1,1,362.6,277a4.31,4.31,0,0,0,1.37,7,4.35,4.35,0,0,0,3.36,0,4.31,4.31,0,0,0-1.68-8.29.86.86,0,1,1,0-1.73,6,6,0,1,1,0,12.08Z"/><path class="cls-5" d="M365.65,280.93a.86.86,0,0,1-.86-.86v-5.18a.86.86,0,0,1,1.73,0v5.18A.86.86,0,0,1,365.65,280.93Z"/><rect class="cls-16" x="348.52" y="292.27" width="33.39" height="18.38"/><path class="cls-17" d="M333,313.71h64.38s-1.83-3.05-14-3.05H345.58S335,310.66,333,313.71Z"/><circle class="cls-8" cx="349.05" cy="216.38" r="6"/><circle class="cls-8" cx="382.05" cy="216.38" r="6"/><path class="cls-9" d="M390.68,231.59s-4.22,17.83-25.37,17.83-24.89-17.83-24.89-17.83"/><polyline class="cls-18" points="218.85 123.84 218.85 164.56 74.1 164.56 74.1 189.86"/><polyline class="cls-19" points="218.41 123.84 218.41 164.56 363.16 164.56 363.16 189.86"/></g></g></svg>