<svg xmlns="http://www.w3.org/2000/svg" xmlns:xlink="http://www.w3.org/1999/xlink" viewBox="0 0 323.92 371.75"><defs><style>.cls-1,.cls-11,.cls-2,.cls-24,.cls-25{fill:none;}.cls-1,.cls-2,.cls-24,.cls-25{stroke-miterlimit:10;}.cls-1{stroke:url(#linear-gradient);}.cls-2{stroke:url(#linear-gradient-2);}.cls-3{fill:url(#linear-gradient-3);}.cls-4{fill:#1e2c33;}.cls-5{fill:url(#linear-gradient-4);}.cls-6{fill:#909cad;}.cls-7{fill:#d3deef;}.cls-8{fill:url(#linear-gradient-5);}.cls-9{fill:url(#linear-gradient-6);}.cls-10{fill:#2da069;}.cls-11{stroke:#2da069;stroke-linecap:round;stroke-linejoin:round;stroke-width:4px;}.cls-12{fill:url(#linear-gradient-7);}.cls-13{fill:url(#linear-gradient-8);}.cls-14{fill:url(#linear-gradient-9);}.cls-15{fill:url(#linear-gradient-10);}.cls-16{fill:url(#linear-gradient-11);}.cls-17{fill:url(#linear-gradient-12);}.cls-18{fill:url(#linear-gradient-13);}.cls-19{fill:url(#linear-gradient-14);}.cls-20{fill:url(#linear-gradient-15);}.cls-21{fill:url(#linear-gradient-16);}.cls-22{fill:url(#linear-gradient-17);}.cls-23{fill:url(#linear-gradient-18);}.cls-24{stroke:url(#linear-gradient-19);}.cls-25{stroke:url(#linear-gradient-20);}</style><linearGradient id="linear-gradient" x1="141.36" y1="361.63" x2="249.22" y2="361.63" gradientTransform="translate(410.8 617.59) rotate(180)" gradientUnits="userSpaceOnUse"><stop offset="0" stop-color="#3372f7"/><stop offset="0.94" stop-color="#c1d8fb"/></linearGradient><linearGradient id="linear-gradient-2" x1="167.88" y1="361.63" x2="275.73" y2="361.63" gradientTransform="matrix(1, 0, 0, -1, -112.84, 617.59)" xlink:href="#linear-gradient"/><linearGradient id="linear-gradient-3" x1="107.81" y1="39.96" x2="215.79" y2="39.96" gradientUnits="userSpaceOnUse"><stop offset="0" stop-color="#dfe6fb"/><stop offset="1" stop-color="#b8b9d6"/></linearGradient><linearGradient id="linear-gradient-4" x1="161.8" y1="4.32" x2="161.8" y2="53.13" gradientUnits="userSpaceOnUse"><stop offset="0" stop-color="#7ef5ca"/><stop offset="1" stop-color="#3de35c"/></linearGradient><linearGradient id="linear-gradient-5" x1="161.56" y1="89.17" x2="161.56" y2="75.6" xlink:href="#linear-gradient-3"/><linearGradient id="linear-gradient-6" x1="161.56" y1="89.17" x2="161.56" y2="91.42" gradientUnits="userSpaceOnUse"><stop offset="0" stop-color="#b8b9d6"/><stop offset="0.28" stop-color="#dfe6fb"/><stop offset="1" stop-color="#b8b9d6"/></linearGradient><linearGradient id="linear-gradient-7" x1="108.48" y1="320.29" x2="216.47" y2="320.29" xlink:href="#linear-gradient-3"/><linearGradient id="linear-gradient-8" x1="162.47" y1="284.65" x2="162.47" y2="333.46" xlink:href="#linear-gradient-4"/><linearGradient id="linear-gradient-9" x1="162.23" y1="369.5" x2="162.23" y2="355.93" xlink:href="#linear-gradient-3"/><linearGradient id="linear-gradient-10" x1="162.23" y1="369.5" x2="162.23" y2="371.75" xlink:href="#linear-gradient-6"/><linearGradient id="linear-gradient-11" x1="0" y1="180.12" x2="107.98" y2="180.12" xlink:href="#linear-gradient-3"/><linearGradient id="linear-gradient-12" x1="53.99" y1="144.48" x2="53.99" y2="193.29" xlink:href="#linear-gradient-4"/><linearGradient id="linear-gradient-13" x1="53.75" y1="229.34" x2="53.75" y2="215.76" xlink:href="#linear-gradient-3"/><linearGradient id="linear-gradient-14" x1="53.75" y1="229.34" x2="53.75" y2="231.59" xlink:href="#linear-gradient-6"/><linearGradient id="linear-gradient-15" x1="215.87" y1="180.12" x2="323.85" y2="180.12" xlink:href="#linear-gradient-3"/><linearGradient id="linear-gradient-16" x1="269.86" y1="144.48" x2="269.86" y2="193.29" xlink:href="#linear-gradient-4"/><linearGradient id="linear-gradient-17" x1="269.62" y1="229.34" x2="269.62" y2="215.76" xlink:href="#linear-gradient-3"/><linearGradient id="linear-gradient-18" x1="269.62" y1="229.34" x2="269.62" y2="231.59" xlink:href="#linear-gradient-6"/><linearGradient id="linear-gradient-19" x1="54.2" y1="115.79" x2="162.06" y2="115.79" gradientTransform="matrix(1, 0, 0, 1, 0, 0)" xlink:href="#linear-gradient"/><linearGradient id="linear-gradient-20" x1="255.04" y1="115.79" x2="362.89" y2="115.79" gradientTransform="matrix(-1, 0, 0, 1, 523.63, 0)" xlink:href="#linear-gradient"/></defs><title>11Asset 2nodes-img2</title><g id="Layer_2" data-name="Layer 2"><g id="Layer_1-2" data-name="Layer 1"><polyline class="cls-1" points="162.08 280.32 162.08 250.27 268.93 250.27 268.93 231.59"/><polyline class="cls-2" points="162.4 280.32 162.4 250.27 55.54 250.27 55.54 231.59"/><path class="cls-3" d="M107.81,4.32h108a0,0,0,0,1,0,0V73.06a2.54,2.54,0,0,1-2.54,2.54H110.35a2.54,2.54,0,0,1-2.54-2.54V4.32A0,0,0,0,1,107.81,4.32Z"/><path class="cls-4" d="M110.41,0H213.33a2.53,2.53,0,0,1,2.53,2.53V58a0,0,0,0,1,0,0h-108a0,0,0,0,1,0,0V2.53A2.53,2.53,0,0,1,110.41,0Z"/><path class="cls-5" d="M115.28,4.32h93a2.21,2.21,0,0,1,2.21,2.21v46.6a0,0,0,0,1,0,0H113.08a0,0,0,0,1,0,0V6.53A2.21,2.21,0,0,1,115.28,4.32Z"/><circle class="cls-6" cx="161.87" cy="66.59" r="6.06"/><path class="cls-7" d="M161.87,71a4.46,4.46,0,0,1-3.15-7.61.64.64,0,1,1,.9.9,3.19,3.19,0,0,0,1,5.18,3.21,3.21,0,0,0,2.48,0,3.18,3.18,0,0,0-1.24-6.12.64.64,0,0,1,0-1.27,4.46,4.46,0,1,1,0,8.92Z"/><path class="cls-7" d="M161.87,67.23a.64.64,0,0,1-.64-.64V62.77a.64.64,0,0,1,1.27,0v3.82A.64.64,0,0,1,161.87,67.23Z"/><rect class="cls-8" x="149.23" y="75.6" width="24.65" height="13.57"/><path class="cls-9" d="M137.8,91.42h47.53S184,89.17,175,89.17h-28S139.22,89.17,137.8,91.42Z"/><circle class="cls-10" cx="149.62" cy="19.58" r="4.43"/><circle class="cls-10" cx="173.98" cy="19.58" r="4.43"/><path class="cls-11" d="M180.35,30.8S177.24,44,161.62,44,143.25,30.8,143.25,30.8"/><path class="cls-12" d="M108.48,284.65h108a0,0,0,0,1,0,0v68.74a2.54,2.54,0,0,1-2.54,2.54H111a2.54,2.54,0,0,1-2.54-2.54V284.65A0,0,0,0,1,108.48,284.65Z"/><path class="cls-4" d="M111.09,280.33H214a2.53,2.53,0,0,1,2.53,2.53v55.47a0,0,0,0,1,0,0h-108a0,0,0,0,1,0,0V282.86A2.53,2.53,0,0,1,111.09,280.33Z"/><path class="cls-13" d="M116,284.65h93a2.21,2.21,0,0,1,2.21,2.21v46.6a0,0,0,0,1,0,0H113.75a0,0,0,0,1,0,0v-46.6A2.21,2.21,0,0,1,116,284.65Z"/><circle class="cls-6" cx="162.55" cy="346.92" r="6.06"/><path class="cls-7" d="M162.55,351.37a4.46,4.46,0,0,1-3.15-7.61.64.64,0,1,1,.9.9,3.19,3.19,0,0,0,1,5.18,3.21,3.21,0,0,0,2.48,0,3.18,3.18,0,0,0-1.24-6.12.64.64,0,0,1,0-1.27,4.46,4.46,0,1,1,0,8.92Z"/><path class="cls-7" d="M162.55,347.55a.64.64,0,0,1-.64-.64V343.1a.64.64,0,0,1,1.27,0v3.82A.64.64,0,0,1,162.55,347.55Z"/><rect class="cls-14" x="149.91" y="355.93" width="24.65" height="13.57"/><path class="cls-15" d="M138.47,371.75H186s-1.35-2.25-10.3-2.25h-28S139.89,369.5,138.47,371.75Z"/><circle class="cls-10" cx="150.29" cy="299.9" r="4.43"/><circle class="cls-10" cx="174.66" cy="299.9" r="4.43"/><path class="cls-11" d="M181,311.13s-3.12,13.17-18.73,13.17-18.38-13.17-18.38-13.17"/><path class="cls-16" d="M0,144.48H108a0,0,0,0,1,0,0v68.74a2.54,2.54,0,0,1-2.54,2.54H2.54A2.54,2.54,0,0,1,0,213.23V144.48A0,0,0,0,1,0,144.48Z"/><path class="cls-4" d="M2.6,140.16H105.53a2.53,2.53,0,0,1,2.53,2.53v55.47a0,0,0,0,1,0,0H.07a0,0,0,0,1,0,0V142.69A2.53,2.53,0,0,1,2.6,140.16Z"/><path class="cls-17" d="M7.47,144.48h93a2.21,2.21,0,0,1,2.21,2.21v46.6a0,0,0,0,1,0,0H5.27a0,0,0,0,1,0,0v-46.6A2.21,2.21,0,0,1,7.47,144.48Z"/><circle class="cls-6" cx="54.07" cy="206.75" r="6.06"/><path class="cls-7" d="M54.07,211.21a4.46,4.46,0,0,1-3.15-7.61.64.64,0,1,1,.9.9,3.19,3.19,0,0,0,1,5.18,3.21,3.21,0,0,0,2.48,0,3.18,3.18,0,0,0-1.24-6.12.64.64,0,0,1,0-1.27,4.46,4.46,0,1,1,0,8.92Z"/><path class="cls-7" d="M54.07,207.39a.64.64,0,0,1-.64-.64v-3.82a.64.64,0,0,1,1.27,0v3.82A.64.64,0,0,1,54.07,207.39Z"/><rect class="cls-18" x="41.42" y="215.76" width="24.65" height="13.57"/><path class="cls-19" d="M30,231.59H77.51s-1.35-2.25-10.3-2.25h-28S31.41,229.34,30,231.59Z"/><circle class="cls-10" cx="41.81" cy="159.74" r="4.43"/><circle class="cls-10" cx="66.17" cy="159.74" r="4.43"/><path class="cls-11" d="M72.55,171s-3.12,13.17-18.73,13.17S35.44,171,35.44,171"/><path class="cls-20" d="M215.87,144.48h108a0,0,0,0,1,0,0v68.74a2.54,2.54,0,0,1-2.54,2.54H218.4a2.54,2.54,0,0,1-2.54-2.54V144.48A0,0,0,0,1,215.87,144.48Z"/><path class="cls-4" d="M218.47,140.16H321.39a2.53,2.53,0,0,1,2.53,2.53v55.47a0,0,0,0,1,0,0h-108a0,0,0,0,1,0,0V142.69A2.53,2.53,0,0,1,218.47,140.16Z"/><path class="cls-21" d="M223.34,144.48h93a2.21,2.21,0,0,1,2.21,2.21v46.6a0,0,0,0,1,0,0H221.13a0,0,0,0,1,0,0v-46.6A2.21,2.21,0,0,1,223.34,144.48Z"/><circle class="cls-6" cx="269.93" cy="206.75" r="6.06"/><path class="cls-7" d="M269.93,211.21a4.46,4.46,0,0,1-3.15-7.61.64.64,0,1,1,.9.9,3.19,3.19,0,0,0,1,5.18,3.21,3.21,0,0,0,2.48,0,3.18,3.18,0,0,0-1.24-6.12.64.64,0,0,1,0-1.27,4.46,4.46,0,1,1,0,8.92Z"/><path class="cls-7" d="M269.93,207.39a.64.64,0,0,1-.64-.64v-3.82a.64.64,0,1,1,1.27,0v3.82A.64.64,0,0,1,269.93,207.39Z"/><rect class="cls-22" x="257.29" y="215.76" width="24.65" height="13.57"/><path class="cls-23" d="M245.85,231.59h47.53s-1.35-2.25-10.3-2.25h-28S247.27,229.34,245.85,231.59Z"/><circle class="cls-10" cx="257.68" cy="159.74" r="4.43"/><circle class="cls-10" cx="282.04" cy="159.74" r="4.43"/><path class="cls-11" d="M288.41,171s-3.12,13.17-18.73,13.17S251.3,171,251.3,171"/><polyline class="cls-24" points="161.56 91.42 161.56 121.48 54.7 121.48 54.7 140.16"/><polyline class="cls-25" points="161.24 91.42 161.24 121.48 268.09 121.48 268.09 140.16"/></g></g></svg>