<svg xmlns="http://www.w3.org/2000/svg" xmlns:xlink="http://www.w3.org/1999/xlink" viewBox="0 0 325.22 520.77"><defs><style>.cls-1{fill:url(#linear-gradient);}.cls-2{fill:#f4ab2a;}</style><linearGradient id="linear-gradient" x1="166.11" y1="89.29" x2="166.11" y2="520.77" gradientUnits="userSpaceOnUse"><stop offset="0" stop-color="#6a7fa5"/><stop offset="1" stop-color="#87aec1"/></linearGradient></defs><title>11Asset 1nodes-img1</title><g id="Layer_2" data-name="Layer 2"><g id="Layer_1-2" data-name="Layer 1"><path class="cls-1" d="M297.51,475.84l-12.83,3.48c-1.8.49-2.22-.71-2.65-2q-4.93-15.38-9.91-30.75-3.06-9.49-6.12-19c-.29-.88-.62-1.75-1-2.82-6,1.8-11.84,3.55-17.7,5.33l-65.54,20c-3.16,1-3.27,1.08-3.18,4.42q.84,28.59,1.71,57.17c0,1.59,0,3.17,0,4.9-4.47,1.39-8.87,2.77-13.28,4.12a2.38,2.38,0,0,1-1.28.09c-4.23-1.24-8.48-2.43-12.63-3.89-.66-.23-1.24-1.75-1.23-2.67.16-9.21.46-18.41.72-27.61s.52-18.26.79-27.39c.06-1.88.12-3.77.3-5.64s-.57-2.92-2.42-3.48c-8.8-2.61-17.57-5.32-26.35-8L69.1,425.11c-.55-.17-1.11-.3-1.84-.49-.27.66-.58,1.3-.79,2q-7.92,24.67-15.82,49.34c-1.23,3.83-1.46,4-5.4,2.86l-10.54-3c.49-1.92.81-3.76,1.41-5.5q32.35-93.19,64.74-186.37,30.54-88.2,60.89-176.46c.85-2.46,1.1-4.24-1.18-6.26-2.82-2.49-2.33-7.26.49-9.93a7.43,7.43,0,0,1,10.22.13c2.74,2.73,3,7.49.24,10-2,1.78-2,3.43-1.24,5.72q41.85,120.87,83.64,241.77Q275,409.69,296.15,470.5C296.73,472.18,297,474,297.51,475.84ZM240,346.61a6.46,6.46,0,0,0-.82.11Q208.57,356,178,365.18a2.64,2.64,0,0,0-2.12,3c.22,7.1.47,14.2.51,21.3,0,2.3.74,3.15,3,3.62,21.1,4.33,42.17,8.8,63.24,13.24l17.78,3.75ZM71.9,409.71c.83-.09,1.47-.11,2.08-.24q39.86-8.58,79.72-17.13c1.54-.33,2-.87,2.06-2.36.16-7,.35-14.06.63-21.08.09-2.35-.86-3.56-3.09-4.23q-29.36-8.81-58.68-17.77c-1.77-.54-2.49-.26-3.07,1.58-3.82,12.12-7.76,24.2-11.66,36.3C77.24,393,74.61,401.27,71.9,409.71Zm145.85-132c-14.13,4.28-28,8.5-41.9,12.68-1.92.58-2.31,1.89-2.24,3.66.24,6.66.47,13.33.56,20a2.17,2.17,0,0,0,2,2.48q28.48,7.62,56.94,15.33c.65.18,1.32.29,2.3.5Zm-103.28-.12L96.91,332.13a4.31,4.31,0,0,0,.75,0c19.55-5.45,39.09-10.92,58.66-16.3,1.51-.41,1.73-1.12,1.76-2.41.13-6.08.33-12.17.47-18.25.1-4-.21-4.38-4-5.51q-14.41-4.35-28.81-8.7C122.08,279.84,118.35,278.76,114.48,277.62ZM76.36,413.73l0,.42,77.86,23.79,1.3-41.21Zm179.55.61L256,414l-79.26-16.7,1.3,40.88ZM196,210.28,173.6,217c-1.64.49-2.15,1.67-2.1,3.33q.5,16,.88,31.92c0,1.24.58,1.51,1.63,1.79,10.75,2.83,21.49,5.72,32.23,8.58,2.32.62,4.65,1.22,7.24,1.89ZM118.89,264c.34.09.48.18.59.15,13-3.42,26-6.83,39-10.33a2.32,2.32,0,0,0,1.32-1.7c.37-10.65.6-21.3,1-31.94.07-2-.57-3-2.52-3.54-6.6-1.89-13.15-3.93-19.72-5.9-.73-.22-1.49-.31-2.32-.48Zm-19.6,71.31,57.48,17.58L157.83,319Zm133.64.2L174.41,319.7l1,33.42ZM192,197.88l-13.73-42.6c-2.2.63-4.18,1.31-6.2,1.75s-2.66,1.58-2.56,3.57c.23,4.63.3,9.26.47,13.89.23,6.43.49,12.85.74,19.35Zm-38-42.63-13.68,42.46,21.32-4.34c.32-11.32.66-22.45.88-33.59a2.76,2.76,0,0,0-1.25-2.16C159,156.7,156.59,156.08,154,155.25Zm19.31,123.11,37.91-11.63v-.38L172.4,256Zm-14.07-22.21-38.74,10.19,38.74,11.89Zm2.43-61.88-20.67,4.21,20.16,6.19ZM171,204.92l19.55-6v-.36L171,194.79Zm5.07-56.42-6.87-21.21-.6.14.83,23.18Zm-13.27,2.15.79-23.31-.6-.07-6.84,21.31Z"/><polygon class="cls-2" points="247.99 85.28 285.92 50.41 290.87 68.58 325.22 55.21 287.57 90.11 281.9 72.15 247.99 85.28"/><polygon class="cls-2" points="0 48.34 37.41 104.6 49.4 83 88.97 110.77 51.92 54.55 39.09 75.66 0 48.34"/><polygon class="cls-2" points="30.25 0 43.17 33.66 51.93 23.8 69.3 42.87 56.56 9.28 47.42 18.78 30.25 0"/><polygon class="cls-2" points="144.87 85.99 135.47 68.32 131.31 74.34 120.44 65.01 129.74 82.66 134.14 76.8 144.87 85.99"/><polygon class="cls-2" points="187.3 92.02 206.07 85.07 200.66 80.14 211.36 70.63 192.63 77.47 197.84 82.61 187.3 92.02"/></g></g></svg>