<svg xmlns="http://www.w3.org/2000/svg" xmlns:xlink="http://www.w3.org/1999/xlink" viewBox="0 0 641.52 410.39"><defs><style>.cls-1{fill:none;}.cls-2{isolation:isolate;}.cls-3{fill:#e1ecfd;}.cls-4{fill:#e7f0fd;}.cls-5{fill:#967cdf;}.cls-6{fill:#ffcb58;}.cls-7{fill:#f2f2f2;}.cls-16,.cls-19,.cls-23,.cls-24,.cls-25,.cls-27,.cls-29,.cls-31,.cls-32,.cls-33,.cls-34,.cls-35,.cls-7{mix-blend-mode:multiply;}.cls-10,.cls-14,.cls-8{fill:#c1d8fb;}.cls-9{fill:#44485d;}.cls-10{mix-blend-mode:overlay;}.cls-11{fill:#a189e2;}.cls-12{fill:#ffba83;}.cls-13{fill:#e59e74;}.cls-14{opacity:0.49;}.cls-15{fill:#404299;}.cls-17{fill:#b8b9c1;}.cls-18{fill:#3372f7;}.cls-19{fill:#dcdde1;}.cls-20{fill:#fff;}.cls-21{fill:#dae8fd;}.cls-22{clip-path:url(#clip-path);}.cls-23{fill:url(#Безымянный_градиент_5);}.cls-24{fill:url(#radial-gradient);}.cls-25{fill:url(#radial-gradient-2);}.cls-26{fill:#e94746;}.cls-27{fill:url(#radial-gradient-3);}.cls-28{fill:#fefefe;}.cls-29{fill:url(#radial-gradient-4);}.cls-30{fill:#77cd69;}.cls-31{fill:url(#radial-gradient-5);}.cls-32{fill:url(#radial-gradient-6);}.cls-33{fill:url(#radial-gradient-7);}.cls-34{fill:url(#radial-gradient-8);}.cls-35{fill:url(#radial-gradient-9);}.cls-36{fill:#dce9fd;}.cls-37{fill:#f2f7fe;}</style><clipPath id="clip-path"><polygon class="cls-1" points="34.4 294.02 585.94 340.17 585.94 396.97 34.4 396.97 34.4 294.02"/></clipPath><radialGradient id="Безымянный_градиент_5" cx="-322.18" cy="-858.2" r="7.5" gradientTransform="matrix(0, 31.9, -11.02, 0, -9140.19, 10561.74)" gradientUnits="userSpaceOnUse"><stop offset="0.42" stop-color="#bcd1fc"/><stop offset="0.47" stop-color="#bfd3fc" stop-opacity="0.96"/><stop offset="0.55" stop-color="#c6d8fc" stop-opacity="0.85"/><stop offset="0.65" stop-color="#d2e0fd" stop-opacity="0.68"/><stop offset="0.77" stop-color="#e2ebfe" stop-opacity="0.43"/><stop offset="0.91" stop-color="#f6f9ff" stop-opacity="0.13"/><stop offset="0.97" stop-color="#fff" stop-opacity="0"/></radialGradient><radialGradient id="radial-gradient" cx="354.57" cy="-1003" r="6.72" gradientTransform="translate(-730.87 3080.15) scale(3.61 2.7)" gradientUnits="userSpaceOnUse"><stop offset="0.2" stop-color="#bcd1fc"/><stop offset="0.27" stop-color="#bfd3fc" stop-opacity="0.96"/><stop offset="0.38" stop-color="#c6d8fc" stop-opacity="0.85"/><stop offset="0.53" stop-color="#d2e0fd" stop-opacity="0.68"/><stop offset="0.71" stop-color="#e2ebfe" stop-opacity="0.43"/><stop offset="0.91" stop-color="#f6f9ff" stop-opacity="0.13"/><stop offset="0.99" stop-color="#fff" stop-opacity="0"/></radialGradient><radialGradient id="radial-gradient-2" cx="343.02" cy="-1007.44" r="7.5" gradientTransform="translate(-741.3 3091.03) scale(3.61 2.7)" gradientUnits="userSpaceOnUse"><stop offset="0.3" stop-color="#bcd1fc"/><stop offset="0.36" stop-color="#bfd3fc" stop-opacity="0.96"/><stop offset="0.46" stop-color="#c6d8fc" stop-opacity="0.85"/><stop offset="0.59" stop-color="#d2e0fd" stop-opacity="0.68"/><stop offset="0.74" stop-color="#e2ebfe" stop-opacity="0.43"/><stop offset="0.92" stop-color="#f6f9ff" stop-opacity="0.13"/><stop offset="0.99" stop-color="#fff" stop-opacity="0"/></radialGradient><radialGradient id="radial-gradient-3" cx="330.51" cy="-1013.15" r="7.5" gradientTransform="translate(-756.31 3100.1) scale(3.61 2.7)" xlink:href="#radial-gradient"/><radialGradient id="radial-gradient-4" cx="317.29" cy="-1019.53" r="7.5" gradientTransform="translate(-773.61 3108.61) scale(3.61 2.7)" xlink:href="#radial-gradient"/><radialGradient id="radial-gradient-5" cx="300.94" cy="-1024.6" r="7.5" gradientTransform="translate(-783.37 3127.7) scale(3.61 2.7)" xlink:href="#radial-gradient-2"/><radialGradient id="radial-gradient-6" cx="288.15" cy="-1030.78" r="6.88" gradientTransform="translate(-800.1 3135.95) scale(3.61 2.7)" xlink:href="#radial-gradient"/><radialGradient id="radial-gradient-7" cx="273.49" cy="-1035.88" r="7.5" gradientTransform="translate(-811.13 3151.38) scale(3.61 2.7)" xlink:href="#radial-gradient-2"/><radialGradient id="radial-gradient-8" cx="260.29" cy="-1042.45" r="7.5" gradientTransform="translate(-829.24 3159.28) scale(3.61 2.7)" xlink:href="#radial-gradient"/><radialGradient id="radial-gradient-9" cx="257.14" cy="-1063.53" r="7.5" gradientTransform="translate(-756.61 3071.62) scale(3.19 2.56)" gradientUnits="userSpaceOnUse"><stop offset="0.32" stop-color="#bcd1fc"/><stop offset="0.37" stop-color="#bfd3fc" stop-opacity="0.96"/><stop offset="0.47" stop-color="#c6d8fc" stop-opacity="0.85"/><stop offset="0.6" stop-color="#d2e0fd" stop-opacity="0.68"/><stop offset="0.75" stop-color="#e2ebfe" stop-opacity="0.43"/><stop offset="0.92" stop-color="#f6f9ff" stop-opacity="0.13"/><stop offset="0.99" stop-color="#fff" stop-opacity="0"/></radialGradient></defs><title>11Asset 2future-img2</title><g class="cls-2"><g id="Layer_2" data-name="Layer 2"><g id="Layer_1-2" data-name="Layer 1"><path class="cls-3" d="M458.17,264.82a1.26,1.26,0,0,1-.89-.37l-3.81-3.81a1.26,1.26,0,0,1,0-1.78l3.81-3.81a1.26,1.26,0,0,1,1.78,0l3.81,3.81a1.26,1.26,0,0,1,0,1.78l-3.81,3.81A1.26,1.26,0,0,1,458.17,264.82Zm0-9.41a.53.53,0,0,0-.38.16L454,259.37a.54.54,0,0,0,0,.76l3.81,3.81a.54.54,0,0,0,.76,0l3.81-3.81a.54.54,0,0,0,0-.76l-3.81-3.81A.53.53,0,0,0,458.17,255.41Z"/><path class="cls-3" d="M180.4,234.16a4,4,0,0,1-4-4v-14.4a4,4,0,1,1,7.93,0v14.4A4,4,0,0,1,180.4,234.16Zm0-21.29a2.92,2.92,0,0,0-2.92,2.92v14.4a2.92,2.92,0,0,0,5.84,0v-14.4A2.92,2.92,0,0,0,180.4,212.87Z"/><path class="cls-4" d="M145.94,93.63a1.44,1.44,0,1,1,1.44-1.44A1.44,1.44,0,0,1,145.94,93.63Zm0-2.41a1,1,0,1,0,1,1A1,1,0,0,0,145.94,91.22Z"/><circle class="cls-4" cx="381.8" cy="2.54" r="2.54"/><path class="cls-4" d="M165.78,154.8h-.13a.66.66,0,0,1-.52-.78,5.64,5.64,0,0,1,11,0,.66.66,0,0,1-1.3.26,4.31,4.31,0,0,0-8.45,0A.66.66,0,0,1,165.78,154.8Z"/><path class="cls-4" d="M156,154.8a.66.66,0,0,1-.65-.53,4.31,4.31,0,0,0-8.45,0,.66.66,0,0,1-1.3-.26,5.64,5.64,0,0,1,11,0,.66.66,0,0,1-.52.78Z"/><path class="cls-4" d="M160.91,158.78a5.65,5.65,0,0,1-5.52-4.51.66.66,0,0,1,1.3-.26,4.31,4.31,0,0,0,8.45,0,.66.66,0,0,1,1.3.26A5.65,5.65,0,0,1,160.91,158.78Z"/><path class="cls-4" d="M180.4,158.78a5.65,5.65,0,0,1-5.52-4.51.66.66,0,0,1,1.3-.26,4.31,4.31,0,0,0,8.45,0,.66.66,0,0,1,1.3.26A5.65,5.65,0,0,1,180.4,158.78Z"/><path class="cls-4" d="M136.54,154.8a.66.66,0,0,1-.65-.53,4.31,4.31,0,0,0-8.45,0,.66.66,0,0,1-1.3-.26,5.64,5.64,0,0,1,11,0,.66.66,0,0,1-.52.78Z"/><path class="cls-4" d="M141.41,158.78a5.65,5.65,0,0,1-5.52-4.51.66.66,0,0,1,1.3-.26,4.31,4.31,0,0,0,8.45,0,.66.66,0,0,1,1.3.26A5.65,5.65,0,0,1,141.41,158.78Z"/><path class="cls-5" d="M158.28,62.93A3.75,3.75,0,1,1,162,59.18,3.75,3.75,0,0,1,158.28,62.93Zm0-6a2.25,2.25,0,1,0,2.25,2.25A2.25,2.25,0,0,0,158.28,56.93Z"/><path class="cls-6" d="M166.62,37.35a.36.36,0,0,1-.15,0l-3.21-1.43a.36.36,0,0,1-.18-.48l4.82-10.78a.36.36,0,0,1,.48-.18l3.21,1.43a.36.36,0,0,1,.18.48L167,37.14A.36.36,0,0,1,166.62,37.35Zm-2.73-2,2.55,1.14L171,26.39l-2.55-1.14Z"/><path class="cls-6" d="M474,40.55a.36.36,0,0,1-.18,0l-10.23-5.9a.36.36,0,0,1-.13-.5l1.76-3a.36.36,0,0,1,.5-.13l10.23,5.9a.36.36,0,0,1,.13.5l-1.76,3a.36.36,0,0,1-.22.17Zm-9.73-6.4,9.6,5.54,1.39-2.42-9.6-5.54Z"/><rect class="cls-6" x="458.04" y="187.92" width="11.81" height="3.52" transform="translate(1.77 383.61) rotate(-45)"/><path class="cls-6" d="M461,195.46a.36.36,0,0,1-.26-.11l-2.49-2.49a.36.36,0,0,1,0-.51l8.35-8.35a.36.36,0,0,1,.51,0l2.49,2.49a.36.36,0,0,1,0,.51l-8.35,8.35A.36.36,0,0,1,461,195.46Zm-2-2.85,2,2,7.84-7.84-2-2Z"/><path class="cls-7" d="M358.37,167.26h-.12a1,1,0,0,1,0-2.09h.12a1,1,0,1,1,0,2.09Zm4.65-.18a1,1,0,0,1-.08-2.09h.11a1,1,0,0,1,.17,2.09H363Zm-9.42,0h-.2a1,1,0,0,1,.17-2.09h.11a1,1,0,0,1-.08,2.09Zm14.16-.54a1,1,0,0,1-.16-2.08l.12,0a1,1,0,0,1,.32,2.07l-.11,0Zm-18.9,0h-.16l-.12,0a1,1,0,1,1,.33-2.07l.11,0a1,1,0,0,1-.16,2.08Zm23.6-.92a1.05,1.05,0,0,1-1-.8,1,1,0,0,1,.77-1.26l.11,0a1,1,0,1,1,.49,2l-.1,0Zm-28.28,0-.24,0-.1,0a1.05,1.05,0,0,1-.78-1.26,1,1,0,0,1,1.25-.78l.11,0a1,1,0,0,1-.24,2.06ZM377,164.32a1,1,0,0,1-.32-2l.11,0a1,1,0,1,1,.65,2l-.11,0A1,1,0,0,1,377,164.32Zm-37.46,0a1,1,0,0,1-.32-.05l-.11,0a1,1,0,0,1,.65-2l.11,0a1,1,0,0,1-.32,2Zm41.94-1.63a1,1,0,0,1-.4-2l.11,0a1,1,0,0,1,.8,1.93l-.11,0A1,1,0,0,1,381.53,162.68Zm-46.42,0a1,1,0,0,1-.4-.08l-.11,0a1,1,0,1,1,.8-1.93l.11,0a1,1,0,0,1-.4,2Zm50.76-2a1,1,0,0,1-.47-2l.1-.05a1,1,0,1,1,1,1.86l-.11.05A1,1,0,0,1,385.86,160.69Zm-55.1,0a1,1,0,0,1-.48-.12l-.1-.05a1,1,0,0,1,1-1.86l.1.05a1,1,0,0,1-.48,2Zm59.26-2.3a1,1,0,0,1-.55-1.94l.1-.06a1,1,0,1,1,1.09,1.79l-.1.06A1,1,0,0,1,390,158.36Zm-63.43,0a1,1,0,0,1-.55-.15l-.1-.06a1,1,0,1,1,1.1-1.78l.1.06a1,1,0,0,1-.55,1.94Zm67.4-2.61a1,1,0,0,1-.61-1.89l.09-.07a1,1,0,0,1,1.23,1.69l-.1.07A1,1,0,0,1,394,155.71Zm-71.36,0a1,1,0,0,1-.61-.2l-.1-.07a1,1,0,1,1,1.24-1.69l.09.07a1,1,0,0,1-.62,1.89Zm75.12-2.91a1,1,0,0,1-.68-1.84l.09-.07a1,1,0,0,1,1.36,1.59l-.09.08A1,1,0,0,1,397.74,152.76Zm-78.86,0a1,1,0,0,1-.68-.25l-.09-.08a1,1,0,0,1,1.37-1.59l.09.07a1,1,0,0,1-.68,1.84Zm82.37-3.18a1,1,0,0,1-.74-1.79l.08-.08a1,1,0,0,1,1.48,1.48l-.08.08A1,1,0,0,1,401.25,149.53Zm-85.88-.05a1,1,0,0,1-.74-.31l-.09-.09a1,1,0,0,1,1.49-1.47l.08.08a1,1,0,0,1-.74,1.79ZM404.5,146a1,1,0,0,1-.79-1.73l.07-.08a1,1,0,1,1,1.59,1.36l-.08.09A1,1,0,0,1,404.5,146ZM312.13,146a1,1,0,0,1-.79-.37l-.08-.09a1,1,0,1,1,1.59-1.36l.07.09a1,1,0,0,1-.79,1.73Zm95.33-3.68a1,1,0,0,1-.84-1.67l.07-.09a1,1,0,0,1,1.69,1.23l-.07.1A1,1,0,0,1,407.47,142.29Zm-98.29-.06a1,1,0,0,1-.85-.43l-.07-.1a1,1,0,0,1,1.69-1.23l.07.09a1,1,0,0,1-.85,1.66Zm101-3.9a1,1,0,0,1-.89-1.6l.06-.1a1,1,0,0,1,1.78,1.09l-.06.1A1,1,0,0,1,410.13,138.32Zm-103.61-.06a1,1,0,0,1-.89-.5l-.06-.1a1,1,0,0,1,1.79-1.09l.06.1a1,1,0,0,1-.89,1.6Zm106-4.1a1,1,0,0,1-.93-1.53l.05-.1a1,1,0,0,1,1.86,1l-.05.11A1,1,0,0,1,412.48,134.16Zm-108.3-.06a1,1,0,0,1-.93-.57l-.06-.11a1,1,0,0,1,1.87-.94l.05.1a1,1,0,0,1-.93,1.52Zm110.31-4.28a1,1,0,0,1-1-1.45l0-.11a1,1,0,0,1,1.93.8l0,.11A1,1,0,0,1,414.49,129.83Zm-112.31-.05a1,1,0,0,1-1-.64l0-.11a1,1,0,1,1,1.93-.8l0,.1a1,1,0,0,1-1,1.45Zm114-4.43a1,1,0,0,1-1-1.37l0-.11a1,1,0,1,1,2,.65l0,.11A1,1,0,0,1,416.15,125.35Zm-115.63,0a1,1,0,0,1-1-.72l0-.11a1,1,0,1,1,2-.64l0,.11a1,1,0,0,1-1,1.37Zm116.93-4.54-.25,0a1,1,0,0,1-.77-1.26l0-.11a1,1,0,0,1,2,.49l0,.11A1,1,0,0,1,417.45,120.76Zm-118.23,0a1,1,0,0,1-1-.8l0-.12a1,1,0,0,1,2-.48l0,.11a1,1,0,0,1-.77,1.26Zm119.17-4.63h-.17a1,1,0,0,1-.87-1.2l0-.11a1,1,0,0,1,2.07.32l0,.12A1,1,0,0,1,418.39,116.08ZM298.29,116a1,1,0,0,1-1-.88l0-.11a1,1,0,0,1,2.07-.33l0,.12a1,1,0,0,1-.87,1.2ZM419,111.34h-.08a1,1,0,0,1-1-1.13v-.11a1,1,0,0,1,2.09.16v.12A1,1,0,0,1,419,111.34Zm-121.22-.05a1,1,0,0,1-1-1v-.11a1,1,0,0,1,2.09-.17v.11a1,1,0,0,1-1,1.13Zm121.41-4.72h0a1,1,0,0,1-1-1v-.11h0v-.11a1,1,0,0,1,1-1h0a1,1,0,0,1,1,1v.12h0v.12A1,1,0,0,1,419.14,106.57Zm-121.6-.05a1,1,0,0,1-1-1v-.12a1,1,0,1,1,2.09,0v.12A1,1,0,0,1,297.54,106.52Zm.18-4.77h-.08a1,1,0,0,1-1-1.12v-.12a1,1,0,1,1,2.09.17v.11A1,1,0,0,1,297.72,101.75ZM419,101.67a1,1,0,0,1-1-1v-.11a1,1,0,0,1,2.09-.17v.12a1,1,0,0,1-1,1.12ZM298.27,97h-.16a1,1,0,0,1-.87-1.2l0-.12a1,1,0,0,1,2.07.32l0,.12A1,1,0,0,1,298.27,97Zm120.12-.08a1,1,0,0,1-1-.88l0-.11a1,1,0,0,1,2.07-.33l0,.1a1.05,1.05,0,0,1-.87,1.2Zm-119.2-4.6-.24,0a1,1,0,0,1-.78-1.26l0-.12a1,1,0,0,1,2,.49l0,.11A1,1,0,0,1,299.19,92.33Zm118.28-.08a1,1,0,0,1-1-.8l0-.11a1,1,0,1,1,2-.49l0,.11a1,1,0,0,1-.77,1.26Zm-117-4.52a1,1,0,0,1-1-1.37l0-.11a1,1,0,0,1,2,.65l0,.11A1,1,0,0,1,300.48,87.73Zm115.7-.07a1,1,0,0,1-1-.72l0-.11a1,1,0,1,1,2-.65l0,.11a1,1,0,0,1-1,1.37ZM302.13,83.25a1,1,0,0,1-1-1.45l0-.11a1,1,0,1,1,1.93.8l0,.11A1,1,0,0,1,302.13,83.25Zm112.4-.07a1,1,0,0,1-1-.65l0-.1a1,1,0,0,1,1.93-.81l0,.11a1,1,0,0,1-1,1.45Zm-110.4-4.27a1,1,0,0,1-.93-1.52l.05-.1a1,1,0,1,1,1.86,1l-.05.1A1,1,0,0,1,304.12,78.91Zm108.41-.06a1,1,0,0,1-.93-.57l-.05-.1a1,1,0,0,1,1.86-1l.05.1a1,1,0,0,1-.93,1.52ZM306.46,74.74a1,1,0,0,1-.89-1.59l.06-.1a1,1,0,1,1,1.78,1.1l-.06.1A1,1,0,0,1,306.46,74.74Zm103.74,0a1,1,0,0,1-.89-.5l-.06-.1A1,1,0,1,1,411,73l.06.1a1,1,0,0,1-.89,1.59ZM309.11,70.77a1,1,0,0,1-.85-1.66l.07-.1A1,1,0,0,1,310,70.25l-.07.09A1,1,0,0,1,309.11,70.77Zm98.43,0a1,1,0,0,1-.85-.43l-.07-.09A1,1,0,1,1,408.32,69l.07.09a1,1,0,0,1-.84,1.66ZM312.06,67a1,1,0,0,1-.8-1.73l.08-.09a1,1,0,1,1,1.59,1.36l-.07.09A1,1,0,0,1,312.06,67Zm92.52,0a1,1,0,0,1-.8-.37l-.07-.09a1,1,0,1,1,1.59-1.36l.08.09a1,1,0,0,1-.79,1.73ZM315.3,63.51a1,1,0,0,1-.74-1.78l.08-.08a1,1,0,1,1,1.48,1.48l-.08.08A1,1,0,0,1,315.3,63.51Zm86,0a1,1,0,0,1-.74-.31l-.08-.08A1,1,0,0,1,402,61.6l.08.08a1,1,0,0,1-.74,1.79ZM318.8,60.27a1,1,0,0,1-.68-1.84l.09-.08a1,1,0,1,1,1.36,1.59l-.09.07A1,1,0,0,1,318.8,60.27Zm79,0a1,1,0,0,1-.68-.25l-.09-.08a1,1,0,1,1,1.36-1.59l.09.08a1,1,0,0,1-.68,1.84Zm-75.3-2.93a1,1,0,0,1-.62-1.89l.09-.07A1,1,0,0,1,323.25,57l-.09.07A1,1,0,0,1,322.54,57.3Zm71.55,0a1,1,0,0,1-.62-.2l-.09-.07a1,1,0,0,1,1.23-1.69l.1.07a1,1,0,0,1-.62,1.89Zm-67.59-2.63a1,1,0,0,1-.55-1.94l.1-.06a1,1,0,1,1,1.09,1.79l-.1.06A1,1,0,0,1,326.51,54.65Zm63.62,0a1,1,0,0,1-.55-.16l-.1-.06a1,1,0,0,1,1.09-1.78l.1.06a1,1,0,0,1-.55,1.94Zm-59.46-2.31a1,1,0,0,1-.48-2l.11-.06a1,1,0,0,1,.95,1.87l-.1.05A1,1,0,0,1,330.66,52.31Zm55.3,0a1,1,0,0,1-.48-.12l-.1-.05a1,1,0,0,1,.95-1.87l.11.05a1,1,0,0,1-.48,2Zm-51-2a1,1,0,0,1-.4-2l.11,0a1,1,0,1,1,.8,1.93l-.1,0A1,1,0,0,1,335,50.3Zm46.64,0a1,1,0,0,1-.4-.08l-.11,0a1,1,0,0,1,.8-1.93l.11,0a1,1,0,0,1-.4,2Zm-42.16-1.63a1,1,0,0,1-.32-2l.11,0a1,1,0,1,1,.64,2l-.11,0A1,1,0,0,1,339.46,48.64Zm37.68,0a1,1,0,0,1-.32-.05l-.11,0a1,1,0,0,1,.64-2l.11,0a1,1,0,0,1-.32,2Zm-33.09-1.28a1,1,0,0,1-.24-2.06l.11,0a1,1,0,1,1,.49,2l-.11,0A1,1,0,0,1,344.06,47.34Zm28.5,0-.24,0-.11,0a1,1,0,1,1,.48-2l.12,0a1,1,0,0,1-.24,2.06Zm-23.82-.91a1,1,0,0,1-.16-2.08l.12,0a1,1,0,0,1,.32,2.07l-.11,0Zm19.14,0h-.16l-.11,0a1,1,0,0,1,.32-2.07l.12,0a1,1,0,0,1-.16,2.08Zm-14.4-.55a1,1,0,0,1-.08-2.09h.1a1.05,1.05,0,0,1,1.13,1,1,1,0,0,1-1,1.12h-.2Zm9.66,0h-.2a1,1,0,0,1,.16-2.09h.12a1,1,0,0,1-.08,2.09Zm-4.89-.19a1,1,0,0,1,0-2.09h.1a1.05,1.05,0,0,1,1.06,1,1,1,0,0,1-1,1h-.12Z"/><path class="cls-8" d="M358.25,129.71a24.3,24.3,0,1,1,24.3-24.3A24.33,24.33,0,0,1,358.25,129.71Zm0-48.13a23.83,23.83,0,1,0,23.83,23.83A23.86,23.86,0,0,0,358.25,81.58Z"/><path class="cls-6" d="M336.52,95.29l-.1,0a.23.23,0,0,1-.11-.31,24.28,24.28,0,0,1,5-6.92.23.23,0,0,1,.33.33,23.81,23.81,0,0,0-4.86,6.79A.23.23,0,0,1,336.52,95.29Z"/><path class="cls-6" d="M379.22,117.46a.23.23,0,0,1-.2-.35,23.88,23.88,0,0,0,.75-22,.23.23,0,1,1,.42-.2,24.34,24.34,0,0,1-.77,22.39A.23.23,0,0,1,379.22,117.46Z"/><path class="cls-9" d="M364.19,82.31h-.06a24.15,24.15,0,0,0-10.68-.25.23.23,0,0,1-.09-.46,24.61,24.61,0,0,1,10.89.25.23.23,0,0,1-.06.46Z"/><path class="cls-9" d="M372.89,124.75a.23.23,0,0,1-.14-.42,23.88,23.88,0,0,0,8.6-13,.23.23,0,1,1,.45.12A24.35,24.35,0,0,1,373,124.7.23.23,0,0,1,372.89,124.75Z"/><path class="cls-8" d="M352.85,68.21a.58.58,0,0,1-.07-1.16h.06A.58.58,0,1,1,353,68.2h-.13Z"/><path class="cls-8" d="M396.38,113h-.09a.57.57,0,0,1-.49-.65l0-.11a.58.58,0,0,1,1.15.17l0,.1A.59.59,0,0,1,396.38,113Zm.41-4h0a.58.58,0,0,1-.55-.61v-.11a.58.58,0,0,1,1.16.06v.11A.58.58,0,0,1,396.79,109Zm0-4a.58.58,0,0,1-.58-.55v-.11a.58.58,0,1,1,1.16-.06v.12a.58.58,0,0,1-.55.61Zm-.41-4a.58.58,0,0,1-.57-.49l0-.11a.58.58,0,0,1,1.15-.18l0,.11a.58.58,0,0,1-.48.66Zm-.81-3.93a.58.58,0,0,1-.56-.43l0-.11a.58.58,0,0,1,1.12-.3l0,.11a.58.58,0,0,1-.41.71Zm-1.22-3.82a.58.58,0,0,1-.54-.38l0-.11a.58.58,0,0,1,1.09-.41l0,.11a.58.58,0,0,1-.54.79Zm-1.61-3.68a.58.58,0,0,1-.52-.32l-.05-.1a.58.58,0,1,1,1-.52l.05.1a.58.58,0,0,1-.52.84Zm-2-3.49a.58.58,0,0,1-.49-.27l-.06-.09a.58.58,0,1,1,1-.63l.06.1a.58.58,0,0,1-.49.89Zm-2.32-3.27a.58.58,0,0,1-.46-.22l-.07-.09a.58.58,0,1,1,.91-.72l.07.09a.58.58,0,0,1-.46.94Zm-2.65-3a.58.58,0,0,1-.42-.18l-.08-.08a.58.58,0,0,1,.83-.81l.08.08a.58.58,0,0,1-.42,1ZM382.86,77a.58.58,0,0,1-.37-.14l-.09-.07a.58.58,0,0,1,.74-.89l.09.07a.58.58,0,0,1-.37,1Zm-3.2-2.42a.58.58,0,0,1-.33-.1l-.09-.06a.58.58,0,1,1,.65-1l.1.07a.58.58,0,0,1-.33,1.06Zm-3.43-2.08a.58.58,0,0,1-.27-.07l-.1-.05a.58.58,0,1,1,.55-1l.1.06a.58.58,0,0,1-.28,1.09Zm-3.63-1.71a.58.58,0,0,1-.22,0l-.1,0a.58.58,0,1,1,.44-1.08l.11,0a.58.58,0,0,1-.22,1.12Zm-3.79-1.33-.17,0-.11,0a.58.58,0,0,1,.32-1.12l.11,0a.58.58,0,0,1-.16,1.14Zm-3.9-.93h-.11l-.11,0a.58.58,0,0,1,.21-1.14l.12,0a.58.58,0,0,1-.11,1.15Zm-4-.53h-.16a.58.58,0,1,1,.09-1.16H361a.58.58,0,0,1,0,1.16Zm-4.13-.11a.58.58,0,0,1,0-1.16h.11a.58.58,0,0,1,0,1.16h-.13Z"/><path class="cls-8" d="M395.57,116.88l-.15,0a.58.58,0,0,1-.42-.71v-.06a.58.58,0,0,1,1.13.29v.06A.58.58,0,0,1,395.57,116.88Z"/><path class="cls-10" d="M382.32,127.77a2.67,2.67,0,0,1-2.07-4.37,28.42,28.42,0,0,0-22-46.4,28.15,28.15,0,0,0-12.32,2.8A2.67,2.67,0,1,1,343.61,75a33.45,33.45,0,0,1,14.64-3.33,33.76,33.76,0,0,1,26.14,55.14A2.67,2.67,0,0,1,382.32,127.77Z"/><path class="cls-7" d="M396,141.33a2.67,2.67,0,0,1-2-4.44,47.56,47.56,0,0,0-35.65-79,2.67,2.67,0,0,1,0-5.35A52.91,52.91,0,0,1,398,140.43,2.67,2.67,0,0,1,396,141.33Z"/><path class="cls-11" d="M392.52,71.19a2.66,2.66,0,0,1-1.82-.72,47.76,47.76,0,0,0-46.63-10.6,2.67,2.67,0,0,1-1.59-5.11,53.11,53.11,0,0,1,51.86,11.79,2.67,2.67,0,0,1-1.82,4.63Z"/><path class="cls-7" d="M406.5,122.39a2.68,2.68,0,0,1-2.56-3.44,47.89,47.89,0,0,0,2-14.44,2.67,2.67,0,1,1,5.35-.08,53.23,53.23,0,0,1-2.21,16.06A2.68,2.68,0,0,1,406.5,122.39Z"/><path class="cls-9" d="M372.89,136.09a1,1,0,1,1,1-1A1,1,0,0,1,372.89,136.09Zm0-1.49a.51.51,0,1,0,.51.51A.52.52,0,0,0,372.89,134.6Z"/><path class="cls-9" d="M342.22,95.29a1,1,0,1,1,1-1A1,1,0,0,1,342.22,95.29Zm0-1.49a.51.51,0,1,0,.51.51A.52.52,0,0,0,342.22,93.79Z"/><circle class="cls-6" cx="393.45" cy="129.95" r="1.29"/><path class="cls-11" d="M358.63,158h-1.09a2.67,2.67,0,0,1,.05-5.35h.06a47.51,47.51,0,0,0,32.7-12.09,48.43,48.43,0,0,0,3.7-3.68,2.67,2.67,0,0,1,4,3.58,53.79,53.79,0,0,1-4.11,4.09A52.85,52.85,0,0,1,358.63,158Z"/><g id="arm_R"><path class="cls-12" d="M364.29,121l-.81,20.37,3.12,57.92a14.39,14.39,0,0,1-13.05,16.23h0c-8.36.71-16.14-5.87-15.6-14.24,1-15.87,9.2-62.16,9.2-62.16l-1.75-11.37,18.83-9.55Z"/><path class="cls-12" d="M361.84,123.55a2.5,2.5,0,0,1-2.55-2.45l-.37-17.91a2.5,2.5,0,1,1,5-.1l.37,17.91A2.5,2.5,0,0,1,361.84,123.55Z"/><path class="cls-12" d="M355.63,122.33a2.5,2.5,0,0,1-2.55-2.45L352.71,102a2.5,2.5,0,1,1,5-.1l.37,17.91A2.5,2.5,0,0,1,355.63,122.33Z"/><path class="cls-12" d="M352,126.66a2.5,2.5,0,0,1-2.94-2l-3.45-17.58a2.5,2.5,0,1,1,4.91-1L354,123.73A2.5,2.5,0,0,1,352,126.66Z"/><path class="cls-12" d="M348.5,131.11a2.5,2.5,0,0,1-2.94-2l-3.45-17.58a2.5,2.5,0,1,1,4.91-1l3.45,17.58A2.5,2.5,0,0,1,348.5,131.11Z"/><path class="cls-13" d="M348.23,138.94l6.44-.48S348.23,146.61,348.23,138.94Z"/><path class="cls-13" d="M362.68,130.14s-1.21-3.9-2.23-5.19l.93-2.06Z"/><path class="cls-13" d="M362.68,130.37a.23.23,0,0,1-.22-.16s-1.21-3.87-2.19-5.12a.23.23,0,0,1,0-.24l.93-2.06a.23.23,0,0,1,.44.06l1.3,7.25a.23.23,0,0,1-.17.27Zm-2-5.46A12.81,12.81,0,0,1,362,127.4l-.67-3.73Z"/><polygon class="cls-9" points="368.02 100.44 369.22 102.36 339.3 129.84 337.88 127.56 368.02 100.44"/><rect class="cls-9" x="335.11" y="106.85" width="38.14" height="18.29" rx="2.54" ry="2.54" transform="translate(101.72 390.16) rotate(-65.49)"/><rect class="cls-5" x="333.94" y="104.97" width="38.14" height="18.29" rx="2.54" ry="2.54" transform="translate(102.75 387.99) rotate(-65.49)"/><path class="cls-6" d="M339,122.89l-1.13,2.48a2.54,2.54,0,0,0,1.26,3.36l12,5.48a2.54,2.54,0,0,0,3.36-1.26l1.1-2.41Z"/><path class="cls-6" d="M366.94,99.5l-12-5.48a2.54,2.54,0,0,0-3.36,1.26l-1,2.25L367.2,105l1-2.19A2.54,2.54,0,0,0,366.94,99.5Z"/><path class="cls-14" d="M354.19,99.17s-2,5.15,2.83,10c3.94,4-.67,8.7,2.63,12.47L367.2,105Z"/><path class="cls-12" d="M360,134.31a2.85,2.85,0,0,1-2.66-1.83l-1.17-3.05a4.14,4.14,0,0,0-3.78-2.67l-2,0a2.85,2.85,0,1,1,.14-5.7l2,0a9.83,9.83,0,0,1,9,6.33l1.17,3.05a2.85,2.85,0,0,1-2.66,3.87Z"/></g><g id="legs"><polygon class="cls-15" points="312.37 235.1 289.18 321.29 254.11 321.29 256.71 234.7 312.37 235.1"/><g class="cls-16"><polygon class="cls-17" points="300.7 278.42 272.89 255 282.53 321.29 289.18 321.29 300.7 278.42"/></g><polygon class="cls-15" points="264.89 235.1 299.71 321.74 337.93 321.74 327.82 237.03 264.89 235.1"/><path class="cls-18" d="M322,322a.23.23,0,0,1-.23-.18L302.89,245a.23.23,0,1,1,.45-.11l18.91,76.78a.23.23,0,0,1-.17.28Z"/><path class="cls-18" d="M306.94,260.77a.23.23,0,0,1-.09-.45c.1,0,9.65-3.95,11.63-13.68a.23.23,0,0,1,.46.09c-2,10-11.81,14-11.91,14Z"/></g><g id="arm_L"><path class="cls-12" d="M324.82,120.75a2.7,2.7,0,0,1-2.53-4.39l4.87-5.86a2.7,2.7,0,0,1,4.29.18l2.44,3.5a2.7,2.7,0,1,1-4.43,3.09l-.42-.6-2.61,3.13A2.69,2.69,0,0,1,324.82,120.75Z"/><path class="cls-12" d="M326.05,122.93a2.7,2.7,0,0,1-3-4.17l6.29-8.52a2.7,2.7,0,0,1,4.77.86l1.61,5.63a2.7,2.7,0,1,1-5.2,1.49l-.1-.35-3,4.1A2.69,2.69,0,0,1,326.05,122.93Z"/><path class="cls-13" d="M330.49,118.21a2.7,2.7,0,1,0,5.2-1.49l-1.61-5.63-3.69,6.77Z"/><path class="cls-12" d="M328.56,123.25a2.7,2.7,0,0,1-2.64-.27c-1.22-.86-2.11-2.54-1.25-3.76l6.9-8.95a2.7,2.7,0,0,1,4.72.57l1.73,4.41a2.7,2.7,0,0,1-4.92,2.22l-3.42,4.85A2.69,2.69,0,0,1,328.56,123.25Z"/><path class="cls-12" d="M336.25,128.73,329.93,133l-24,58.35A14.39,14.39,0,0,1,285.91,197h0c-7.21-4.28-9.73-14.15-4.43-20.65,10.05-12.32,40.8-60,40.8-60l7.65-.33,6.42.87-3.3,4,4.15,2.62Z"/><path class="cls-13" d="M333.11,117.47a2.7,2.7,0,0,0,4.92-2.22l-1.72-4.38Z"/><path class="cls-12" d="M332.39,120.47a2.7,2.7,0,0,1-2.45-4.45l5.62-6.42a2.7,2.7,0,0,1,.73-.59l7-3.82a2.7,2.7,0,0,1,2.61,4.73l-6.62,3.59L334,119.58A2.69,2.69,0,0,1,332.39,120.47Z"/><path class="cls-13" d="M329.94,116.25a.23.23,0,0,1-.17-.39l5.62-6.42a2.93,2.93,0,0,1,.79-.64l2.75-1.49a.23.23,0,1,1,.22.41l-2.75,1.49a2.46,2.46,0,0,0-.67.54l-5.62,6.42A.23.23,0,0,1,329.94,116.25Z"/><path class="cls-12" d="M332.57,129.78a2.7,2.7,0,0,1-1-3.68,23.8,23.8,0,0,1,11.15-9.61,2.7,2.7,0,0,1,2,5,18.61,18.61,0,0,0-8.41,7.22S333,130,332.57,129.78Z"/><path class="cls-13" d="M334.43,122a1.39,1.39,0,0,1-.85-.3,1.33,1.33,0,0,1-.32-1.76l.1-.16,0,0,4.25-4.55a.23.23,0,0,1,.34.32L333.75,120l-.08.13a.86.86,0,0,0,.21,1.15.84.84,0,0,0,1.15-.06,24.58,24.58,0,0,1,7.57-5,2.93,2.93,0,0,1,3.81,1.66.23.23,0,0,1-.43.17,2.47,2.47,0,0,0-3.2-1.39,24.09,24.09,0,0,0-7.42,4.89A1.3,1.3,0,0,1,334.43,122Z"/><path class="cls-13" d="M327.23,116.23a.23.23,0,0,1-.18-.38l4.22-5.32a.23.23,0,1,1,.36.29l-4.22,5.32A.23.23,0,0,1,327.23,116.23Z"/><path class="cls-13" d="M325.06,116.23a.23.23,0,0,1-.19-.37l3.23-4.38a.23.23,0,1,1,.37.28l-3.23,4.38A.23.23,0,0,1,325.06,116.23Z"/></g><g id="forearm_L"><path class="cls-18" d="M256.87,149.64c5.29,12.55,14.87,29.47,20.6,40.31a14.31,14.31,0,0,0,20.22,5.46h0s5.25-18.63,2.68-25.07c-3-7.61-13.24-22.92-18.59-30.06-5.5-7.33-14.8-17.76-21.42-18C252,122.09,251.13,136,256.87,149.64Z"/><path class="cls-18" d="M304.19,185.69c3.75,10.09-4,21.14-15.44,18.6-9.7-2.15-13.36-13.45-11.29-22.5,3.73-16.29,7.27-20.67,13.33-25.52,3.94-3.15,10.27-4.43,10.27,8C301.07,169.94,301.45,178.34,304.19,185.69Z"/></g><g id="body"><path class="cls-18" d="M252.1,127.65c-.92,7.29.86,80.57,2.55,104.54.3,4.22,1.7,5.72,7,9,13.16,8.21,54.08,6.73,65.29,2.41A7.4,7.4,0,0,0,332,237l5-87.37c1-13.38-1.65-19.48-8-23.29a126.44,126.44,0,0,0-17.23-9.25c-8.69-3.66-27.77-6-37.79-6C265.64,111.06,252.91,121.23,252.1,127.65Z"/><path class="cls-19" d="M332,237l3.7-63.18-21.41-9.41c2.31,28.28,12.3,24.78,13.78,33.14C330.37,210.88,323,210.95,332,237Z"/></g><g id="neck"><path class="cls-12" d="M279.87,78.39l-7,30.18s8.28,7.43,36.14,7L305.7,87.06Z"/><path class="cls-20" d="M308.6,111.5a173.07,173.07,0,0,1-24.45-.82c-6.28-.78-10.23-2.61-10.54-5.21l-3.32,6.22s.87,4.8,12.71,6.07a128.21,128.21,0,0,0,29.32-.37Z"/></g><g id="head"><path class="cls-12" d="M329.95,74.94c-.55-3.09-2.34-12.36-2.63-13.9a.36.36,0,0,0-.44-.29.4.4,0,0,0-.33.47s-2.23,15.32-2.2,15.47a.39.39,0,0,0,.25.31l.23.09c1.28.45,3.47.89,4.55,0A2.1,2.1,0,0,0,329.95,74.94Z"/><path class="cls-12" d="M331.52,44.7s-.44,13.31-9.26,42.12c-3.88,12.68-17.92,20.55-26.69-2.14-1.63-4.22-7.1-2.24-8.63-9-1.45-6.43-11.39-50.34,30.39-43.73A17.18,17.18,0,0,1,331.52,44.7Z"/><path class="cls-9" d="M330.58,46.48c2.93,1.52,8.76.19.69-11.94C312.68,6.59,288.94,15,286.89,30.83a1,1,0,0,1-1.22.84c-2.68-.63-7.26-1.78-9.59,5.53-1.27,4,.6,23.09,2.76,35.73,1.36,8,1.95,11.53,7,12.55,9.11,1.83,13.68-8,18.35-20.48l5.63-4.14c6.2.91,10.84-11.43,10.84-11.43S323.21,42.65,330.58,46.48Z"/><ellipse class="cls-9" cx="325.92" cy="65.28" rx="1.89" ry="1.18" transform="translate(204.08 374.54) rotate(-79.82)"/><path class="cls-13" d="M310.54,94.68c-1.12-1.93-4.84-7.62-4.84-7.62l1.36,11.68.75.19a8.73,8.73,0,0,0,4.16-.17A9.39,9.39,0,0,0,310.54,94.68Z"/><path class="cls-18" d="M329.65,64.89h-.09L310,61a.47.47,0,1,1,.18-.91L329.74,64a.47.47,0,0,1-.09.92Z"/><path class="cls-18" d="M327.19,73.82h-.12c-.56-.1-.77-.8-.73-2.42a35.89,35.89,0,0,1,1.61-9c.52-1.53,1-2.12,1.53-2s.77.8.73,2.42a35.88,35.88,0,0,1-1.61,9C328.11,73.22,327.69,73.82,327.19,73.82Zm2.06-12.15A22.49,22.49,0,0,0,327.77,67a22.48,22.48,0,0,0-.47,5.52,22.49,22.49,0,0,0,1.48-5.34h0A22.48,22.48,0,0,0,329.24,61.68Z"/><path class="cls-18" d="M329.47,66.3h-.11a.81.81,0,0,1-.7-.91c.08-.63.14-1.18.18-1.66-.13.46-.27,1-.41,1.62a.81.81,0,1,1-1.59-.36,23.16,23.16,0,0,1,1-3.26c.24-.6.73-1.84,1.71-1.66s1,1.51,1,2.15a23.19,23.19,0,0,1-.24,3.39A.81.81,0,0,1,329.47,66.3Z"/><path class="cls-20" d="M323.12,84a16.57,16.57,0,0,1-1.59-5.86.49.49,0,0,1,.76-.45L324.55,79Z"/><path class="cls-9" d="M329.39,56.09a9,9,0,0,0-7,3.84c-.23.33.13.77.41.48a9.9,9.9,0,0,1,6.65-3.06C329.9,57.31,329.79,56.07,329.39,56.09Z"/><path class="cls-9" d="M322.64,60.66a.4.4,0,0,1-.25-.1.54.54,0,0,1-.08-.72,9.18,9.18,0,0,1,7.08-3.9c.31,0,.5.38.52.79s-.13.76-.4.77a9.77,9.77,0,0,0-6.54,3A.44.44,0,0,1,322.64,60.66Zm6.75-4.57v.16A8.87,8.87,0,0,0,322.56,60a.22.22,0,0,0,0,.3s.08,0,.14,0a10.08,10.08,0,0,1,6.75-3.11s.12-.16.1-.44-.12-.49-.19-.49Z"/><path class="cls-12" d="M303.21,63.44c-1.18-3,.28-4.94,2.28-5.66A3.68,3.68,0,0,1,310,59.61l.06.11a2.42,2.42,0,0,1,.3.76c.24,1.31.42,3-.53,8C306.72,69.54,305.32,68.77,303.21,63.44Z"/><path class="cls-13" d="M305.94,61.38c.62-.6,1.53-.32,2.24-.08.52.18.7-.66.19-.84a2.78,2.78,0,0,0-3.05.33,2.9,2.9,0,0,0-.51,2.81A3.34,3.34,0,0,0,306.69,66a1.74,1.74,0,0,0,2.07-.75c.3-.46-.47-.86-.76-.4a1,1,0,0,1-1.14.29,1.8,1.8,0,0,1-.74-.7,3.69,3.69,0,0,1-.59-1.6A1.85,1.85,0,0,1,305.94,61.38Z"/></g><g id="forearm_R"><path class="cls-18" d="M314.25,164.44c6.84,11.77,19.33,34.26,25.64,44.77a14.31,14.31,0,0,0,20.48,4.36h0a14.31,14.31,0,0,0,4.76-17.75c-3.45-7.43-25.55-56.86-30.47-64.31-3.63-5.5-15.91-8.85-23,3.69C307.56,142.51,307.46,152.76,314.25,164.44Z"/><path class="cls-18" d="M372.2,209.16c-.76,9.28-14.43,14.5-20.26,13.76-9.86-1.24-16.26-4.18-17.45-18.26-1.41-16.65,12.8-28.32,20.18-25.92,8.93,2.9,12.39,7.84,13.75,14.47C369.54,198.62,372.89,200.71,372.2,209.16Z"/><path class="cls-9" d="M339.89,209.45a.23.23,0,0,1-.2-.12c-.11-.2-11.52-20.47-25.64-44.77a37.93,37.93,0,0,1-5.15-15.64.23.23,0,1,1,.46,0,37.46,37.46,0,0,0,5.09,15.45c14.12,24.3,25.53,44.58,25.65,44.78a.23.23,0,0,1-.2.35Z"/><path class="cls-9" d="M363.64,192.83a.23.23,0,0,1-.21-.14l-7.1-16.07a.23.23,0,1,1,.43-.19l7.1,16.07a.23.23,0,0,1-.12.31Z"/><path class="cls-9" d="M357.77,214.7a.23.23,0,0,1-.07-.46,12,12,0,0,0,8.08-15,.23.23,0,0,1,.45-.13,12.49,12.49,0,0,1-8.39,15.55Z"/></g><polygon class="cls-21" points="34.4 294.02 585.94 340.17 585.94 396.97 34.4 396.97 34.4 294.02"/><g class="cls-22"><ellipse class="cls-23" cx="320.76" cy="284.26" rx="96.24" ry="321.15" transform="translate(20.21 589.8) rotate(-87.02)"/></g><ellipse class="cls-24" cx="548.58" cy="375.01" rx="32.57" ry="21.11" transform="translate(-115.74 390.67) rotate(-35.71)"/><path class="cls-6" d="M573.69,409.54a1.71,1.71,0,0,1-1.71-1.71V352.58a1.71,1.71,0,0,1,3.42,0v55.24A1.71,1.71,0,0,1,573.69,409.54Z"/><circle class="cls-6" cx="573.69" cy="352.58" r="3.56"/><path class="cls-20" d="M577.09,351.81a.29.29,0,0,1-.27-.2,3.27,3.27,0,0,0-1.85-2,.28.28,0,1,1,.22-.52,3.84,3.84,0,0,1,2.18,2.4.28.28,0,0,1-.19.36Z"/><path class="cls-20" d="M575.47,369.31a.28.28,0,0,1-.28-.28v-1.44a.28.28,0,1,1,.57,0V369A.28.28,0,0,1,575.47,369.31Z"/><path class="cls-20" d="M575.47,366.3a.28.28,0,0,1-.28-.28V355.9a.28.28,0,0,1,.57,0V366A.28.28,0,0,1,575.47,366.3Z"/><path class="cls-20" d="M537.51,375.65s.42-7.67,10.77-9.23c12.6-1.9,18.2-1.14,23.57-9.35v23.78s-4.42,7.89-18.57,5.7c-10.94-1.69-15.76,7.88-15.76,7.88Z"/><path class="cls-9" d="M573.69,356.38a3.8,3.8,0,0,1-3.5-5.27.28.28,0,0,1,.52.22,3.22,3.22,0,0,0,5.4,3.37.28.28,0,1,1,.43.37A3.79,3.79,0,0,1,573.69,356.38Z"/><path class="cls-18" d="M548.28,366.42c-10.35,1.56-10.77,9.23-10.77,9.23v5.11c2.66-3.32,5.89-7.88,15.39-7.31s17.09-3,18.95-8.83v-7.55C566.48,365.28,560.87,364.52,548.28,366.42Z"/><path class="cls-18" d="M553.27,386.55c14.15,2.18,18.57-5.7,18.57-5.7v-8.69c-1.85,4.79-9.73,8.89-18.28,7.18-7.57-1.51-13,2.5-16,6.08v9S542.33,384.86,553.27,386.55Z"/><ellipse class="cls-6" cx="554.89" cy="376.59" rx="2.41" ry="2.98" transform="matrix(0.5, -0.87, 0.87, 0.5, -48.69, 668.84)"/><path class="cls-9" d="M571.84,386.32a.28.28,0,0,1-.28-.28V355.81a.28.28,0,1,1,.57,0V386A.28.28,0,0,1,571.84,386.32Z"/><ellipse class="cls-25" cx="496.51" cy="373.91" rx="36.33" ry="23.54" transform="translate(-124.89 360.07) rotate(-35.71)"/><path class="cls-6" d="M515.23,409.82a1.71,1.71,0,0,1-1.71-1.71V346.6a1.71,1.71,0,1,1,3.42,0v61.51A1.71,1.71,0,0,1,515.23,409.82Z"/><circle class="cls-6" cx="515.23" cy="346.6" r="3.56"/><path class="cls-20" d="M518.33,345.14a.28.28,0,0,1-.25-.15,3.29,3.29,0,0,0-1.71-1.47.28.28,0,1,1,.2-.53,3.86,3.86,0,0,1,2,1.72.28.28,0,0,1-.25.42Z"/><path class="cls-9" d="M515.23,350.39a3.8,3.8,0,0,1-3.5-5.27.28.28,0,1,1,.52.22,3.22,3.22,0,0,0,5.4,3.37.28.28,0,0,1,.43.37A3.8,3.8,0,0,1,515.23,350.39Z"/><path class="cls-20" d="M516.86,364.84a.28.28,0,0,1-.28-.28V352.95a.28.28,0,0,1,.57,0v11.61A.28.28,0,0,1,516.86,364.84Z"/><path class="cls-9" d="M470.68,364.1a58.72,58.72,0,0,0,2.16,7c4.62,1.89,11.37,2.05,18-2,8.16-5.08,12.83-9.9,22.59-10.2v-8.36c-10.25,1.77-11.25,2.17-23,11.75C481.75,369.22,470.68,364.1,470.68,364.1Z"/><path class="cls-26" d="M513.37,358.87c-9.76.3-14.43,5.12-22.59,10.2-6.58,4.09-13.33,3.94-18,2a45.93,45.93,0,0,0,4.58,9.25c10.16.54,17.82-4.48,25-9.68a18,18,0,0,1,11-3.81Z"/><path class="cls-6" d="M501.56,381.22c8.52-6,11.82-5.47,11.82-5.47V367a18,18,0,0,0-11,3.81c-7.13,5.2-14.8,10.21-25,9.68a22.88,22.88,0,0,0,4,4.65A26.11,26.11,0,0,0,501.56,381.22Z"/><path class="cls-9" d="M513.37,380.33a.28.28,0,0,1-.28-.28V349.82a.28.28,0,0,1,.57,0V380A.28.28,0,0,1,513.37,380.33Z"/><ellipse class="cls-27" cx="436.32" cy="367.58" rx="36.33" ry="23.54" transform="translate(-132.51 323.75) rotate(-35.71)"/><path class="cls-20" d="M448.25,349c-1.88,3.69-9.41,11.8-20.31,11.51s-16.87,5.28-19.2,14.09l22.73,19.72s.44-10.14,1.13-12.9c.86-3.44,3.82-4.58,6.55-4.15,8,1.26,10.94-3.22,10.94-4.84V344.7Z"/><path class="cls-18" d="M432.9,380.36a36.94,36.94,0,0,1-6-10,40.82,40.82,0,0,1-2.49-9.71c-8.73.87-13.67,6.14-15.75,14l22.73,19.72s.44-10.14,1.13-12.9A6.5,6.5,0,0,1,432.9,380.36Z"/><path class="cls-26" d="M444.43,377.36c4.05-.86,5.67-3.61,5.67-4.81V344.7L448.24,349a23.49,23.49,0,0,1-8.7,8.49c-.68,4.08-1,9.32.49,13.05A22.07,22.07,0,0,0,444.43,377.36Z"/><path class="cls-6" d="M451.95,409.54a1.71,1.71,0,0,1-1.71-1.71V341.47a1.71,1.71,0,1,1,3.42,0v66.35A1.71,1.71,0,0,1,451.95,409.54Z"/><circle class="cls-6" cx="451.95" cy="341.47" r="3.56"/><path class="cls-28" d="M455.23,340.37a.29.29,0,0,1-.26-.17,3.29,3.29,0,0,0-1.87-1.79.28.28,0,1,1,.2-.53,3.87,3.87,0,0,1,2.19,2.1.28.28,0,0,1-.15.37Z"/><path class="cls-9" d="M451.95,345.27a3.8,3.8,0,0,1-3.5-5.27.28.28,0,1,1,.52.22,3.22,3.22,0,0,0,5.4,3.37.28.28,0,0,1,.43.37A3.79,3.79,0,0,1,451.95,345.27Z"/><path class="cls-20" d="M453.58,376.87a.28.28,0,0,1-.28-.28V357.83a.28.28,0,0,1,.57,0v18.76A.28.28,0,0,1,453.58,376.87Z"/><path class="cls-9" d="M450.09,375.2a.28.28,0,0,1-.28-.28V344.7a.28.28,0,0,1,.57,0v30.22A.28.28,0,0,1,450.09,375.2Z"/><ellipse class="cls-29" cx="371.33" cy="358.87" rx="36.33" ry="23.54" transform="translate(-139.64 284.18) rotate(-35.71)"/><path class="cls-20" d="M342.91,353a17,17,0,0,0,16.59,1.73c9.55-3.92,18.44-14.3,31-13.18v29.36s-4.13-3.19-14.46,2.05-15.49,6.75-18.94,6.07C357.15,379.05,346.51,370.7,342.91,353Z"/><path class="cls-26" d="M374.35,346a62.08,62.08,0,0,0,3.93,14.43,106,106,0,0,0,4.46,10c5.49-1.3,7.81.49,7.81.49V341.57C384.44,341,379.2,343.18,374.35,346Z"/><path class="cls-30" d="M342.94,353c3.6,17.68,14.24,26,14.24,26,2.67.53,6.38-.27,12.74-3.1-6.78-8.06-11.35-16.61-12.35-20.52A17,17,0,0,1,342.94,353Z"/><path class="cls-6" d="M392.4,408.68a1.71,1.71,0,0,1-1.71-1.71V336.91a1.71,1.71,0,1,1,3.42,0V407A1.71,1.71,0,0,1,392.4,408.68Z"/><circle class="cls-6" cx="392.4" cy="336.91" r="3.56"/><path class="cls-28" d="M395.68,335.81a.29.29,0,0,1-.26-.17,3.29,3.29,0,0,0-1.87-1.79.28.28,0,0,1,.2-.53,3.87,3.87,0,0,1,2.19,2.1.28.28,0,0,1-.15.37Z"/><path class="cls-20" d="M394,354a.28.28,0,0,1-.28-.28v-13.3a.28.28,0,0,1,.57,0v13.3A.28.28,0,0,1,394,354Z"/><path class="cls-9" d="M390.54,380.19a.28.28,0,0,1-.28-.28V340.14a.28.28,0,0,1,.57,0v39.77A.28.28,0,0,1,390.54,380.19Z"/><path class="cls-9" d="M392.4,340.71a3.8,3.8,0,0,1-3.5-5.27.28.28,0,1,1,.52.22,3.22,3.22,0,0,0,5.4,3.37.28.28,0,0,1,.43.37A3.8,3.8,0,0,1,392.4,340.71Z"/><ellipse class="cls-31" cx="302.58" cy="364.29" rx="36.33" ry="23.54" transform="matrix(0.81, -0.58, 0.58, 0.81, -155.73, 245.08)"/><path class="cls-18" d="M288.79,358.67s3.82-15.25,17.62-14.1c13.22,1.1,18-4.37,20-7v27.72s-6.18,6.23-19.55,6.23c-12.33,0-17.85,1.44-25.18,11Z"/><path class="cls-6" d="M326.44,348.5c-2.86,4.58-9.31,6.28-14.2,5.95,0-4.28,0-7.83,0-9.82a34.88,34.88,0,0,1-4,.06c0,1.94,0,5.22,0,9.17a21.09,21.09,0,0,0-13.6,2.89l-.07,0a19.08,19.08,0,0,0-8.51,11l-2.08,7c6.71-12.59,15.09-18.45,24.33-17,.08,4.32.24,9.1.55,13.66a38.23,38.23,0,0,0,3.94-.39c-.28-4.22-.43-8.64-.52-12.71a23.57,23.57,0,0,0,8.75-1.22,18.37,18.37,0,0,0,5.39-2.88Z"/><path class="cls-6" d="M328.29,410.39a1.71,1.71,0,0,1-1.71-1.71V332.92a1.71,1.71,0,1,1,3.42,0v75.76A1.71,1.71,0,0,1,328.29,410.39Z"/><circle class="cls-6" cx="328.29" cy="332.92" r="3.56"/><path class="cls-28" d="M331.57,331.82a.29.29,0,0,1-.26-.17,3.29,3.29,0,0,0-1.87-1.79.28.28,0,0,1,.2-.53,3.87,3.87,0,0,1,2.19,2.1.28.28,0,0,1-.15.37Z"/><path class="cls-20" d="M329.93,350a.28.28,0,0,1-.28-.28v-13.3a.28.28,0,0,1,.57,0v13.3A.28.28,0,0,1,329.93,350Z"/><path class="cls-9" d="M326.44,376.2a.28.28,0,0,1-.28-.28V336.15a.28.28,0,0,1,.57,0v39.77A.28.28,0,0,1,326.44,376.2Z"/><path class="cls-9" d="M328.29,336.72a3.8,3.8,0,0,1-3.5-5.27.28.28,0,1,1,.52.22,3.22,3.22,0,0,0,5.4,3.37.28.28,0,1,1,.43.37A3.8,3.8,0,0,1,328.29,336.72Z"/><ellipse class="cls-32" cx="239.67" cy="355.88" rx="33.34" ry="21.61" transform="translate(-162.65 206.78) rotate(-35.71)"/><path class="cls-20" d="M260.53,331.64c-1,5.16-10.27,11-24.11,15.7-12,4.1-14.63,11-14,20.61l16.26,12.12c-3.82-5.54-1.26-11.63,4.4-9.91,12,3.66,17.45-1.75,17.45-7.41Z"/><path class="cls-26" d="M260.53,362.76V351.85c-4,7.38-11.28,10-21.38,8.37-6-1-11.79,5.14-7.76,14.42l7.28,5.43c-3.82-5.54-1.26-11.63,4.4-9.91C255.11,373.82,260.53,368.42,260.53,362.76Z"/><path class="cls-6" d="M262.38,407.54a1.71,1.71,0,0,1-1.71-1.71V327.23a1.71,1.71,0,1,1,3.42,0v78.61A1.71,1.71,0,0,1,262.38,407.54Z"/><circle class="cls-6" cx="262.38" cy="327.23" r="3.56"/><path class="cls-28" d="M265.66,326.12a.29.29,0,0,1-.26-.17,3.29,3.29,0,0,0-1.87-1.79.28.28,0,0,1,.2-.53,3.87,3.87,0,0,1,2.19,2.1.28.28,0,0,1-.15.37Z"/><path class="cls-20" d="M264,382.61a.28.28,0,0,1-.28-.28V344.15a.28.28,0,0,1,.57,0v38.17A.28.28,0,0,1,264,382.61Z"/><path class="cls-9" d="M260.53,370.5a.28.28,0,0,1-.28-.28V330.45a.28.28,0,1,1,.57,0v39.77A.28.28,0,0,1,260.53,370.5Z"/><path class="cls-9" d="M262.38,331a3.8,3.8,0,0,1-3.5-5.27.28.28,0,1,1,.52.22,3.22,3.22,0,0,0,5.4,3.37.28.28,0,0,1,.43.37A3.8,3.8,0,0,1,262.38,331Z"/><ellipse class="cls-33" cx="175.76" cy="357.57" rx="36.33" ry="23.54" transform="translate(-175.65 169.8) rotate(-35.71)"/><path class="cls-30" d="M199.74,325.94c-3.25.72-9.91,3.71-21.57,13.64-10.37,8.83-19.43,10.85-19.43,10.85s1.94,5.53,0,14.65c-2.06,9.69,0,13.18,0,13.18s7.14-.48,19.56-10.12c7.2-5.59,15.26-11.26,21.45-10.07Z"/><path class="cls-9" d="M177,354a30.72,30.72,0,0,1-18.31-3.6s1.94,5.53,0,14.65c-2.06,9.69,0,13.18,0,13.18A179.38,179.38,0,0,0,177,354Z"/><path class="cls-9" d="M178.1,352.3q-.52.88-1.06,1.74c10.77-1.16,20,.25,22.7,4V325.94S186.36,338.5,178.1,352.3Z"/><polygon class="cls-9" points="177.04 354.04 177.04 354.04 177.04 354.04 177.04 354.04"/><path class="cls-6" d="M198,357.91a9.15,9.15,0,0,1,1.72.16v-1.72c-1.7-1.54-4.47-2.67-8.13-3.29a52,52,0,0,0-12.38-.39c6.94-11.49,17.54-22.22,20.51-25.12v-1.61a16.62,16.62,0,0,0-2.45.77c-3.87,3.86-13.65,14.09-20.18,25l-.75,1.23a30.57,30.57,0,0,1-16-3c-1,.33-1.59.46-1.59.46a12.53,12.53,0,0,1,.39,1.54,32.29,32.29,0,0,0,15.72,3.38A183,183,0,0,1,158.28,377a5.43,5.43,0,0,0,.45,1.23,11.69,11.69,0,0,0,1.89-.37,184.33,184.33,0,0,0,17.11-22.76C187.12,354.2,194.94,355.3,198,357.91Z"/><path class="cls-6" d="M201.59,407.54a1.71,1.71,0,0,1-1.71-1.71v-84.3a1.71,1.71,0,1,1,3.42,0v84.3A1.71,1.71,0,0,1,201.59,407.54Z"/><circle class="cls-6" cx="201.59" cy="321.53" r="3.56"/><path class="cls-28" d="M204.87,320.43a.29.29,0,0,1-.26-.17,3.29,3.29,0,0,0-1.87-1.79.28.28,0,0,1,.2-.53,3.87,3.87,0,0,1,2.19,2.1.28.28,0,0,1-.15.37Z"/><path class="cls-20" d="M203.22,338.58a.28.28,0,0,1-.28-.28V325a.28.28,0,0,1,.57,0v13.3A.28.28,0,0,1,203.22,338.58Z"/><path class="cls-9" d="M199.74,344.44a.28.28,0,0,1-.28-.28v-19.4a.28.28,0,0,1,.57,0v19.4A.28.28,0,0,1,199.74,344.44Z"/><path class="cls-9" d="M201.59,325.32a3.8,3.8,0,0,1-3.5-5.27.28.28,0,1,1,.52.22,3.22,3.22,0,0,0,5.4,3.37.28.28,0,0,1,.43.37A3.79,3.79,0,0,1,201.59,325.32Z"/><path class="cls-18" d="M199.74,372.56a.28.28,0,0,1-.28-.28V343a.28.28,0,1,1,.57,0v29.27A.28.28,0,0,1,199.74,372.56Z"/><ellipse class="cls-34" cx="110.02" cy="347.73" rx="36.33" ry="23.54" transform="translate(-182.27 129.58) rotate(-35.71)"/><path class="cls-20" d="M140.84,351.6c-3.37-.19-11.14,1.51-21.13,8.32-12.82,8.74-20.8,1.9-20.8,1.9l-7.5-28.35s10.78,4.84,20.61-.86c8.81-5.11,20.59-16.27,28.82-11.85Z"/><path class="cls-26" d="M140.84,345.61c-4.71-.21-14.14,1.88-23.3,9.1a17.59,17.59,0,0,1-11.61,4.08,13.73,13.73,0,0,1-6.63-2l-2-1.22,1.65,6.22a11.82,11.82,0,0,0,4.47,2.09,16.6,16.6,0,0,0,3.6.39,20.64,20.64,0,0,0,7.65-1.57,29.34,29.34,0,0,0,5.07-2.81,60.82,60.82,0,0,1,9.79-5.5c5.77-2.65,9.83-3.2,11.21-3.1l.13-.12Z"/><path class="cls-26" d="M119.42,327.8c-1.95,1.34-3.95,2.71-5.88,3.87-.52.32-1,.63-1.52.92a20.8,20.8,0,0,1-9.15,2.73,22.53,22.53,0,0,1-7.72-.68,24.91,24.91,0,0,1-3.39-1h-.31L93.14,340a28.45,28.45,0,0,0,21.67-2.47,92.78,92.78,0,0,0,7.84-5c6.49-4.46,12.62-8.67,17.13-6.25a2.84,2.84,0,0,0,1.06.33v-5.83a8.34,8.34,0,0,0-2-.75C132.36,318.91,125.54,323.59,119.42,327.8Z"/><path class="cls-26" d="M132.57,332a96.16,96.16,0,0,0-8.09,5.3c-6.3,4.42-13.45,9.43-19.59,9.43-3.55,0-7.74-.55-10.63-2.12l1.62,5.77a25,25,0,0,0,9,2c7.95,0,15.87-5.56,22.86-10.46,2.72-1.91,5.3-3.71,7.58-5a2.85,2.85,0,0,0-2.76-5Z"/><path class="cls-18" d="M129.71,327.83l-6.9,13.89a35.5,35.5,0,0,1,18,9.86V320.75a8.39,8.39,0,0,0-2.62-.89C136.15,319.86,133.06,321.29,129.71,327.83Z"/><path class="cls-20" d="M132.31,332.75l1.21,2.29a.07.07,0,0,0,.08,0l2.55-.45a.07.07,0,0,1,.06.12l-1.8,1.86a.07.07,0,0,0,0,.08l1.21,2.29a.07.07,0,0,1-.09.1l-2.33-1.14a.07.07,0,0,0-.08,0l-1.8,1.86a.07.07,0,0,1-.12-.06l.36-2.56a.07.07,0,0,0,0-.07L129.19,336a.07.07,0,0,1,0-.13l2.55-.45a.07.07,0,0,0,.06-.06l.36-2.56A.07.07,0,0,1,132.31,332.75Z"/><path class="cls-20" d="M131.26,340.12a.36.36,0,0,1-.35-.41l.34-2.41-2.19-1.07a.36.36,0,0,1,.1-.67l2.4-.42.34-2.41a.36.36,0,0,1,.67-.12h0l1.14,2.15,2.4-.42a.36.36,0,0,1,.32.6l-1.69,1.75,1.14,2.15a.36.36,0,0,1-.47.49l-2.19-1.07L131.52,340A.36.36,0,0,1,131.26,340.12ZM129.9,336l1.74.85a.36.36,0,0,1,.2.37l-.27,1.91,1.34-1.39a.36.36,0,0,1,.41-.07l1.74.85-.9-1.71a.36.36,0,0,1,.06-.41l1.34-1.39-1.9.33a.36.36,0,0,1-.38-.18l-.91-1.71-.27,1.91a.36.36,0,0,1-.29.3Zm3.87-1.11h0Z"/><path class="cls-6" d="M142.69,407.54a1.71,1.71,0,0,1-1.71-1.71v-90a1.71,1.71,0,1,1,3.42,0v90A1.71,1.71,0,0,1,142.69,407.54Z"/><circle class="cls-6" cx="142.69" cy="315.83" r="3.56"/><path class="cls-28" d="M146,314.73a.29.29,0,0,1-.26-.17,3.29,3.29,0,0,0-1.87-1.79.28.28,0,0,1,.2-.53,3.87,3.87,0,0,1,2.19,2.1.28.28,0,0,1-.15.37Z"/><path class="cls-20" d="M144.33,332.88a.28.28,0,0,1-.28-.28v-13.3a.28.28,0,1,1,.57,0v13.3A.28.28,0,0,1,144.33,332.88Z"/><path class="cls-9" d="M140.84,359.11a.28.28,0,0,1-.28-.28V319.05a.28.28,0,0,1,.57,0v39.77A.28.28,0,0,1,140.84,359.11Z"/><path class="cls-9" d="M142.69,319.62a3.8,3.8,0,0,1-3.5-5.27.28.28,0,1,1,.52.22,3.22,3.22,0,0,0,5.4,3.37.28.28,0,1,1,.43.37A3.79,3.79,0,0,1,142.69,319.62Z"/><ellipse class="cls-35" cx="63.99" cy="346.77" rx="32.13" ry="22.37" transform="translate(-190.36 102.53) rotate(-35.71)"/><path class="cls-18" d="M75.72,345.36c0,7.19-8.12,9.66-15.46,11.31S47.66,363.85,47.62,375L31.23,344.17s2.07-10.54,17.43-13.31c17.12-3.08,27.06-10.85,27.06-16.94Z"/><path class="cls-20" d="M75.72,330.18c-.79.66-2.17,1-4.66.89a80.54,80.54,0,0,0,4.66-11.35v-5.8h0c0,2-1,4.09-3,6.19a80.2,80.2,0,0,1-4.6,10.69,55.44,55.44,0,0,1-9.94-2.35q-1.06.35-2.17.68l.6,1.68a58.66,58.66,0,0,0,10.07,2.55,53.68,53.68,0,0,1-6.29,8.08l.47,1.33s1.12-.26,2.78-.82a51.51,51.51,0,0,0,6-8.23c.75.06,1.49.11,2.21.11a11.17,11.17,0,0,0,3.86-.58Z"/><path class="cls-26" d="M73.12,319.67a47.89,47.89,0,0,1-4.65,11A.3.3,0,1,0,69,331c2.64-4.11,4.52-10.33,5.15-12.59A14.17,14.17,0,0,1,73.12,319.67Z"/><path class="cls-26" d="M75.72,331.36v-.67c-2.16,1.07-5.55.61-5.59.6a.3.3,0,0,0-.09.6,14.29,14.29,0,0,0,1.88.12A10,10,0,0,0,75.72,331.36Z"/><path class="cls-26" d="M67.89,332.26a67.57,67.57,0,0,1-11.74-2.75l.26.72a67.9,67.9,0,0,0,11.41,2.63h0a.3.3,0,0,0,0-.61Z"/><path class="cls-26" d="M69.16,332.84a.3.3,0,0,0-.4.17c-1,2.41-5.48,7.73-7.07,9.55l1.08-.32c1.94-2.26,5.66-6.76,6.55-9A.3.3,0,0,0,69.16,332.84Z"/><path class="cls-20" d="M70.68,332.79a23.38,23.38,0,0,0,5-3.73v-5.34c-.92,2.37-3.17,4.39-5.89,6l-1.66-5.88q-1.26.81-2.72,1.58l1.63,5.77a51.12,51.12,0,0,1-9.18,3.28l1,2.87a55.28,55.28,0,0,0,9-3.17l1.49,5.28a23.52,23.52,0,0,0,2.67-1.74Z"/><path class="cls-26" d="M70.17,332.54a22.71,22.71,0,0,0,5.61-4.2v-3.62a16,16,0,0,1-6.21,5.68L67.77,324c-.61.38-1.25.75-1.92,1.11l1.78,6.29-1.18.55A55.23,55.23,0,0,1,58,334.9l.72,2a54.64,54.64,0,0,0,9.51-3.4l1.62,5.72c.64-.37,1.27-.78,1.88-1.22Z"/><polygon class="cls-20" points="69.87 342.97 71.63 343.22 71.93 341.46 72.93 342.9 74.34 341.88 73.8 343.62 75.63 344.32 73.81 344.77 74.64 346.76 72.92 345.68 71.95 347.41 71.66 345.41 69.92 345.68 71.04 344.13 69.87 342.97"/><polygon class="cls-20" points="38.97 341.66 40.17 341.42 39.96 340.2 40.95 340.9 41.63 339.91 41.69 341.17 43.04 341.2 41.96 341.92 42.97 343.02 41.59 342.72 41.36 344.08 40.7 342.83 39.63 343.42 40 342.14 38.97 341.66"/><polygon class="cls-20" points="48 354.01 49.2 353.77 48.99 352.55 49.98 353.26 50.66 352.26 50.71 353.52 52.07 353.56 50.99 354.27 51.99 355.38 50.61 355.07 50.39 356.43 49.73 355.19 48.65 355.77 49.03 354.5 48 354.01"/><polygon class="cls-20" points="48.53 340.66 49.76 340.62 49.75 339.38 50.61 340.24 51.45 339.38 51.29 340.62 52.62 340.89 51.44 341.41 52.24 342.67 50.94 342.14 50.49 343.44 50.04 342.1 48.88 342.5 49.47 341.31 48.53 340.66"/><polygon class="cls-20" points="38.33 352.08 39.44 351.56 38.95 350.42 40.08 350.87 40.51 349.75 40.85 350.96 42.18 350.67 41.3 351.62 42.54 352.46 41.13 352.49 41.23 353.86 40.3 352.81 39.39 353.63 39.45 352.31 38.33 352.08"/><polygon class="cls-20" points="49.35 345.48 50.11 346.14 50.98 345.63 50.58 346.56 51.33 347.22 50.33 347.13 49.93 348.05 49.71 347.07 48.71 346.98 49.58 346.46 49.35 345.48"/><path class="cls-6" d="M77.57,408.11a1.71,1.71,0,0,1-1.71-1.71V310.7a1.71,1.71,0,1,1,3.42,0v95.7A1.71,1.71,0,0,1,77.57,408.11Z"/><circle class="cls-6" cx="77.57" cy="310.7" r="3.56"/><path class="cls-28" d="M80.86,309.6a.29.29,0,0,1-.26-.17,3.29,3.29,0,0,0-1.87-1.79.28.28,0,0,1,.2-.53,3.87,3.87,0,0,1,2.19,2.1.28.28,0,0,1-.15.37Z"/><path class="cls-20" d="M79.21,327.75a.28.28,0,0,1-.28-.28v-13.3a.28.28,0,0,1,.57,0v13.3A.28.28,0,0,1,79.21,327.75Z"/><path class="cls-9" d="M75.72,354a.28.28,0,0,1-.28-.28V313.93a.28.28,0,0,1,.57,0v39.77A.28.28,0,0,1,75.72,354Z"/><path class="cls-9" d="M77.57,314.5a3.8,3.8,0,0,1-3.5-5.27.28.28,0,1,1,.52.22,3.22,3.22,0,0,0,5.4,3.37.28.28,0,0,1,.43.37A3.79,3.79,0,0,1,77.57,314.5Z"/><path class="cls-18" d="M79.21,332.06a.28.28,0,0,1-.28-.28v-5.17a.28.28,0,0,1,.57,0v5.17A.28.28,0,0,1,79.21,332.06Z"/><circle class="cls-20" cx="115.53" cy="372.63" r="1.28"/><circle class="cls-20" cx="436.34" cy="351.58" r="1.14"/><path class="cls-36" d="M236,329.16a1.93,1.93,0,1,1,1.93-1.93A1.94,1.94,0,0,1,236,329.16Zm0-3.3a1.36,1.36,0,1,0,1.36,1.36A1.37,1.37,0,0,0,236,325.86Z"/><path class="cls-18" d="M427.78,348.47a1.71,1.71,0,1,1,1.71-1.71A1.71,1.71,0,0,1,427.78,348.47Zm0-2.85a1.14,1.14,0,1,0,1.14,1.14A1.14,1.14,0,0,0,427.78,345.63Z"/><path class="cls-20" d="M124.24,380.91a1.71,1.71,0,1,1,1.71-1.71A1.71,1.71,0,0,1,124.24,380.91Zm0-2.85a1.14,1.14,0,1,0,1.14,1.14A1.14,1.14,0,0,0,124.24,378.06Z"/><path class="cls-37" d="M272.16,383.58h-.06a2.17,2.17,0,0,1,0-4.26.28.28,0,0,1,.11.56,1.6,1.6,0,0,0,0,3.14.28.28,0,0,1-.06.56Z"/><path class="cls-37" d="M272.16,391h-.06a2.17,2.17,0,0,1,0-4.26.28.28,0,0,1,.11.56,1.6,1.6,0,0,0,0,3.14.28.28,0,0,1-.06.56Z"/><path class="cls-37" d="M272.16,387.28a.28.28,0,0,1-.06-.56,1.6,1.6,0,0,0,0-3.14.28.28,0,1,1,.11-.56,2.17,2.17,0,0,1,0,4.26Z"/><path class="cls-37" d="M272.16,379.88a.28.28,0,0,1-.06-.56,1.6,1.6,0,0,0,0-3.14.28.28,0,1,1,.11-.56,2.17,2.17,0,0,1,0,4.26Z"/><path class="cls-37" d="M272.16,398.38h-.06a2.17,2.17,0,0,1,0-4.26.28.28,0,1,1,.11.56,1.6,1.6,0,0,0,0,3.14.28.28,0,0,1-.06.56Z"/><path class="cls-37" d="M272.16,394.68a.28.28,0,0,1-.06-.56,1.6,1.6,0,0,0,0-3.14.28.28,0,0,1,.11-.56,2.17,2.17,0,0,1,0,4.26Z"/><path class="cls-37" d="M461,387.28H461a2.17,2.17,0,0,1,0-4.26.28.28,0,0,1,.11.56,1.6,1.6,0,0,0,0,3.14.28.28,0,0,1-.06.56Z"/><path class="cls-37" d="M461,394.68H461a2.17,2.17,0,0,1,0-4.26.28.28,0,0,1,.11.56,1.6,1.6,0,0,0,0,3.14.28.28,0,0,1-.06.56Z"/><path class="cls-37" d="M461,391a.28.28,0,0,1-.06-.56,1.6,1.6,0,0,0,0-3.14.28.28,0,1,1,.11-.56,2.17,2.17,0,0,1,0,4.26Z"/><path class="cls-37" d="M461,383.58A.28.28,0,0,1,461,383a1.6,1.6,0,0,0,0-3.14.28.28,0,1,1,.11-.56,2.17,2.17,0,0,1,0,4.26Z"/><path class="cls-37" d="M461,402.08H461a2.17,2.17,0,0,1,0-4.26.28.28,0,0,1,.11.56,1.6,1.6,0,0,0,0,3.14.28.28,0,0,1-.06.56Z"/><path class="cls-37" d="M461,398.38a.28.28,0,0,1-.06-.56,1.6,1.6,0,0,0,0-3.14.28.28,0,0,1,.11-.56,2.17,2.17,0,0,1,0,4.26Z"/><path class="cls-37" d="M87.26,391H87.2a2.17,2.17,0,0,1,0-4.26.28.28,0,0,1,.11.56,1.6,1.6,0,0,0,0,3.14.28.28,0,0,1-.06.56Z"/><path class="cls-37" d="M87.26,398.42H87.2a2.17,2.17,0,0,1,0-4.26.28.28,0,0,1,.11.56,1.6,1.6,0,0,0,0,3.14.28.28,0,0,1-.06.56Z"/><path class="cls-37" d="M87.26,394.72a.28.28,0,0,1-.06-.56,1.6,1.6,0,0,0,0-3.14.28.28,0,0,1,.11-.56,2.17,2.17,0,0,1,0,4.26Z"/><path class="cls-37" d="M87.26,387.32a.28.28,0,0,1-.06-.56,1.6,1.6,0,0,0,0-3.14.28.28,0,0,1,.11-.56,2.17,2.17,0,0,1,0,4.26Z"/><path class="cls-37" d="M87.26,405.82H87.2a2.17,2.17,0,0,1,0-4.26.28.28,0,0,1,.11.56,1.6,1.6,0,0,0,0,3.14.28.28,0,0,1-.06.56Z"/><path class="cls-37" d="M87.26,402.12a.28.28,0,0,1-.06-.56,1.6,1.6,0,0,0,0-3.14.28.28,0,0,1,.11-.56,2.17,2.17,0,0,1,0,4.26Z"/></g></g></g></svg>