<?xml version="1.0" encoding="UTF-8"?>
<svg width="82px" height="88px" viewBox="0 0 82 88" version="1.1" xmlns="http://www.w3.org/2000/svg" xmlns:xlink="http://www.w3.org/1999/xlink">
    <!-- Generator: Sketch 50.2 (55047) - http://www.bohemiancoding.com/sketch -->
    <title>devices-selected</title>
    <desc>Created with Sketch.</desc>
    <defs></defs>
    <g id="Page-1" stroke="none" stroke-width="1" fill="none" fill-rule="evenodd">
        <g id="devices-selected" transform="translate(-1.000000, -1.000000)" fill="#5086FF" fill-rule="nonzero">
            <path d="M40.06,88.3 C43.12,85.15 43.31,81.43 43.06,77.48 L74.85,77.48 C77.36,77.48 78.05,76.77 78.05,74.25 C78.05,53.93 78.05,33.5966667 78.05,13.25 C78.05,11.25 77.16,10.35 75.18,10.35 L27.91,10.35 C25.8,10.35 25,11.16 24.96,13.28 C24.96,14.74 24.96,16.2 24.96,17.65 C24.96,18.46 24.66,18.73 23.88,18.7 C22.82,18.7 21.76,18.7 20.57,18.7 C20.57,16.83 20.57,15.11 20.57,13.4 C20.57,11.69 20.57,10.03 20.57,8.34 C20.4719415,6.36840073 21.2109139,4.44704836 22.6048628,3.04929093 C23.9988116,1.6515335 25.9181405,0.907321352 27.89,1 C38.7033333,1 49.5166667,1 60.33,1 L74.83,1 C79.48,1 82.39,3.89 82.39,8.51 C82.39,32.59 82.39,56.67 82.39,80.75 C82.39,85.4 79.51,88.27 74.85,88.28 L40.06,88.28 L40.06,88.3 Z M48.29,82.62 C48.2712525,83.4712099 48.5935611,84.294593 49.1851849,84.9068766 C49.7768086,85.5191602 50.588648,85.8695304 51.44,85.88 C52.3115154,85.8906942 53.1510224,85.5519578 53.7710696,84.9394263 C54.3911169,84.3268948 54.7400656,83.491581 54.74,82.62 C54.6925608,80.8522772 53.267861,79.4319746 51.5,79.39 C49.7329513,79.4222997 48.3113237,80.8527847 48.29,82.62 Z" id="Shape"></path>
            <path d="M1,55.35 C1,46.91 1,38.46 1,30 C0.872714637,27.9948901 1.61313506,26.0317531 3.03285877,24.610116 C4.45258249,23.1884789 6.41472045,22.4454152 8.42,22.57 L31.66,22.57 C36.13,22.57 39.13,25.51 39.13,29.96 C39.13,47.02 39.13,64.08 39.13,81.14 C39.1657551,83.0275587 38.4309846,84.8482242 37.0950965,86.1822254 C35.7592085,87.5162266 33.9375062,88.248423 32.05,88.21 C24.05,88.27 16.0766667,88.27 8.13,88.21 C3.85,88.21 1,85.17 1,80.88 C1,72.3666667 1,63.8566667 1,55.35 Z M4.61,55.35 C4.61,62.3233333 4.61,69.3 4.61,76.28 C4.61,78.13 5.23,78.75 7.09,78.76 L33.19,78.76 C34.83,78.76 35.52,78.1 35.52,76.48 C35.52,62.48 35.52,48.48 35.52,34.48 C35.52,32.75 34.9,32.14 33.16,32.14 L7.06,32.14 C5.2,32.14 4.61,32.75 4.61,34.63 C4.61,41.5433333 4.61,48.4466667 4.61,55.34 L4.61,55.35 Z M23.39,83.6 C23.39,81.7664146 21.9035854,80.28 20.07,80.28 C18.2364146,80.28 16.75,81.7664146 16.75,83.6 C16.75,85.4335854 18.2364146,86.92 20.07,86.92 C21.9035854,86.92 23.39,85.4335854 23.39,83.6 Z" id="Shape"></path>
        </g>
    </g>
</svg>