<svg xmlns="http://www.w3.org/2000/svg" viewBox="0 0 94.08 220.63"><defs><style>.cls-1{fill:#d3dae5;}.cls-2{fill:#e4ebf7;opacity:0.5;}.cls-3{fill:none;stroke:#d6dfed;stroke-linecap:round;stroke-linejoin:round;}</style></defs><title>11Asset 1right</title><g id="Layer_2" data-name="Layer 2"><g id="Layer_1-2" data-name="Layer 1"><path class="cls-1" d="M92.81,10.6a1,1,0,1,1-1.25.7A1,1,0,0,1,92.81,10.6Z" transform="translate(0 -0.25)"/><path class="cls-1" d="M89.18,9.57a1,1,0,1,1-1.25.7A1,1,0,0,1,89.18,9.57Z" transform="translate(0 -0.25)"/><path class="cls-1" d="M85.55,8.54a1,1,0,1,1-1.26.7A1,1,0,0,1,85.55,8.54Z" transform="translate(0 -0.25)"/><path class="cls-1" d="M81.91,7.51a1,1,0,1,1-1.25.69A1,1,0,0,1,81.91,7.51Z" transform="translate(0 -0.25)"/><path class="cls-1" d="M78.27,6.48A1,1,0,1,1,77,7.17,1,1,0,0,1,78.27,6.48Z" transform="translate(0 -0.25)"/><path class="cls-1" d="M74.64,5.44a1,1,0,1,1-1.25.7A1,1,0,0,1,74.64,5.44Z" transform="translate(0 -0.25)"/><path class="cls-1" d="M71,4.41a1,1,0,1,1-1.25.7A1,1,0,0,1,71,4.41Z" transform="translate(0 -0.25)"/><path class="cls-1" d="M67.38,3.38a1,1,0,1,1-1.25.7A1,1,0,0,1,67.38,3.38Z" transform="translate(0 -0.25)"/><path class="cls-1" d="M63.75,2.35a1,1,0,0,1-.56,2,1,1,0,0,1,.56-2Z" transform="translate(0 -0.25)"/><path class="cls-1" d="M60.12,1.32a1,1,0,0,1-.56,2,1,1,0,0,1,.56-2Z" transform="translate(0 -0.25)"/><path class="cls-1" d="M56.49.29A1,1,0,1,1,55.24,1,1,1,0,0,1,56.49.29Z" transform="translate(0 -0.25)"/><rect class="cls-2" x="23" y="214.38" width="69.75" height="6.5" rx="3.25" ry="3.25" transform="translate(115.75 435) rotate(180)"/><rect class="cls-2" y="200.63" width="69.75" height="6.5" rx="3.25" ry="3.25" transform="translate(69.75 407.5) rotate(-180)"/><circle class="cls-2" cx="13.75" cy="217.38" r="3.25"/><rect class="cls-3" x="83.7" y="35.79" width="8.39" height="8.39" rx="0.6" ry="0.6" transform="translate(178.33 5.87) rotate(135)"/></g></g></svg>