<?xml version="1.0" encoding="UTF-8"?>
<svg width="86px" height="53px" viewBox="0 0 86 53" version="1.1" xmlns="http://www.w3.org/2000/svg" xmlns:xlink="http://www.w3.org/1999/xlink">
    <!-- Generator: Sketch 50.2 (55047) - http://www.bohemiancoding.com/sketch -->
    <title>internet copy</title>
    <desc>Created with Sketch.</desc>
    <defs></defs>
    <g id="Page-1" stroke="none" stroke-width="1" fill="none" fill-rule="evenodd">
        <g id="internet-copy" fill="#5086FF" fill-rule="nonzero">
            <g id="Group">
                <path d="M50.72,0 L51.32,0 L51.72,0 C52.59,0.08 53.47,0.12 54.33,0.25 C56.9610344,0.64445405 59.4908746,1.54433009 61.78,2.9 C67.0274189,5.86203503 70.7496286,10.9354578 72,16.83 C72.02213,16.9894408 72.142317,17.1176402 72.3,17.15 C73.24,17.47 74.19,17.75 75.09,18.15 C78.2701091,19.5787162 80.9413195,21.939564 82.75,24.92 C87.7522281,32.8501943 85.8291687,43.2921462 78.33,48.92 C75.1910718,51.3722873 71.3131136,52.6872677 67.33,52.65 L14.62,52.65 C13.5730841,52.6475023 12.5298015,52.5267364 11.51,52.29 C8.30675096,51.5912545 5.43426339,49.8289922 3.36,47.29 C1.70305601,45.3005646 0.617736081,42.8983437 0.22,40.34 C0.13,39.8 0.07,39.27 0,38.73 L0,36.94 C0.0216847518,36.8442659 0.038373976,36.7474684 0.05,36.65 C0.181593814,34.8457577 0.649648863,33.082072 1.43,31.45 C2.57710112,29.0180132 4.36425901,26.9439421 6.6,25.45 C8.65063702,24.0442404 11.0476138,23.2279539 13.53,23.09 C13.72,23.09 13.79,23 13.84,22.84 C15.2362441,18.3884508 18.2611387,14.6278675 22.31,12.31 C24.3466609,11.0651611 26.6291637,10.2770323 29,10 C30.2,9.88 31.42,9.88 32.62,9.84 C32.7732716,9.84587929 32.91807,9.7696696 33,9.64 C33.49,8.98 34,8.31 34.5,7.64 C37.0265655,4.70378783 40.2725814,2.47430557 43.92,1.17 C45.6431477,0.572480349 47.4396674,0.212503554 49.26,0.1 L50.72,0 Z M19.42,30.23 C18.84,30.12 18.3,30.04 17.76,29.92 C16.3691967,29.5818967 14.9264082,29.5140008 13.51,29.72 C9.26485208,30.3880731 6.25074549,34.2133132 6.59417157,38.4969636 C6.93759764,42.780614 10.5226379,46.0767915 14.82,46.06 C32.3333333,46.06 49.8433333,46.06 67.35,46.06 C68.1364427,46.0559314 68.9204485,45.9721701 69.69,45.81 C72.2183777,45.2993694 74.4950814,43.936877 76.14,41.95 C77.4674622,40.4290102 78.3071182,38.5441393 78.55,36.54 C78.7129519,35.144684 78.6419776,33.7319583 78.34,32.36 C77.7964264,29.676239 76.2968342,27.2811557 74.12,25.62 C72.2862151,24.234137 70.0842843,23.4201531 67.79,23.28 C67.12,23.22 66.45,23.13 65.79,23.05 C65.79,22.25 65.79,21.48 65.79,20.7 C65.8045123,19.8404074 65.7036119,18.9827544 65.49,18.15 C64.4224178,13.4568141 61.1292832,9.58122031 56.67,7.77 C54.141168,6.64756341 51.3364564,6.29958431 48.61,6.77 C45.938209,7.20472913 43.4391052,8.37120832 41.39,10.14 C39.6253357,11.6199795 38.2228535,13.4842546 37.29,15.59 C37.02,16.21 36.75,16.83 36.48,17.46 L36.13,17.37 C35.25,17.12 34.39,16.84 33.5,16.64 C32.182944,16.3628436 30.8247762,16.3424711 29.5,16.58 C26.8100325,16.9691516 24.3518975,18.3189945 22.58,20.38 C20.7475931,22.4608165 19.6881305,25.109473 19.58,27.88 C19.59,28.67 19.49,29.43 19.42,30.23 Z" id="Shape"></path>
                <path d="M51.48,41.39 C50.4560765,41.3908261 49.5326083,40.7744018 49.140658,39.8284658 C48.7487077,38.8825298 48.9655635,37.7936101 49.69,37.07 L57.76,29 C58.3995054,28.3604946 59.3316048,28.1107393 60.2051855,28.3448145 C61.0787661,28.5788898 61.7611102,29.2612339 61.9951855,30.1348145 C62.2292607,31.0083952 61.9795054,31.9404946 61.34,32.58 L53.27,40.65 C52.7957414,41.1252794 52.1514231,41.3916456 51.48,41.39 Z" id="Shape"></path>
                <path d="M51.48,41.39 C50.8085769,41.3916456 50.1642586,41.1252794 49.69,40.65 L41.62,32.58 C40.6314103,31.5914103 40.6314103,29.9885897 41.62,29 C42.6085897,28.0114103 44.2114103,28.0114103 45.2,29 L53.27,37.07 C53.9944365,37.7936101 54.2112923,38.8825298 53.819342,39.8284658 C53.4273917,40.7744018 52.5039235,41.3908261 51.48,41.39 Z" id="Shape"></path>
                <path d="M51.48,40.6 C50.0827196,40.6 48.95,39.4672804 48.95,38.07 L48.95,15.77 C48.95,14.3727196 50.0827196,13.24 51.48,13.24 C52.8772804,13.24 54.01,14.3727196 54.01,15.77 L54.01,38.07 C54.01,38.7409977 53.7434472,39.3845131 53.2689802,39.8589802 C52.7945131,40.3334472 52.1509977,40.6 51.48,40.6 Z" id="Shape"></path>
            </g>
        </g>
    </g>
</svg>