<?xml version="1.0" encoding="UTF-8"?>
<svg width="57px" height="61px" viewBox="0 0 57 61" version="1.1" xmlns="http://www.w3.org/2000/svg" xmlns:xlink="http://www.w3.org/1999/xlink">
    <!-- Generator: Sketch 50.2 (55047) - http://www.bohemiancoding.com/sketch -->
    <title>not-sure copy</title>
    <desc>Created with Sketch.</desc>
    <defs></defs>
    <g id="Page-1" stroke="none" stroke-width="1" fill="none" fill-rule="evenodd">
        <g id="not-sure-copy" transform="translate(0.000000, -1.000000)" fill="#5086FF" fill-rule="nonzero">
            <g id="Group">
                <path d="M10.61,36.44 C10.46,30.92 12.94,27.19 18.13,25.26 C21.72,23.92 23.52,21.32 23.24,17.5 C23.1607883,14.2531033 20.8586008,11.4871657 17.68,10.82 C13.94,9.82 11.1,11.24 9.12,14.44 C7.43,17.19 5.19,18.27 2.23,16.65 C-0.36,15.23 -0.69,12.28 1.23,9.14 C5.00385006,3.02629926 12.188493,-0.0870460209 19.23,1.34 C26.3631164,2.93819989 31.7484619,8.80623196 32.73,16.05 C33.73,23.15 29.73,30.14 23.16,33.57 C21.7362601,34.2691483 20.6546759,35.51297 20.16,37.02 C19.39,41.63 18.09,43.65 15.16,43.59 C12,43.52 10.47,41.16 10.61,36.44 Z" id="Shape"></path>
                <path d="M19.61,54.16 C19.3,57.16 17.83,58.96 14.88,58.92 C11.93,58.88 10.2,57.28 10.21,54.3 C10.22,51.32 11.87,49.68 14.82,49.64 C17.77,49.6 19.19,51.48 19.61,54.16 Z" id="Shape"></path>
                <path d="M34.5,47.51 C36.417115,44.7533037 40.0216452,43.7462173 43.09,45.11 C45.2115699,46.0831302 47.7258436,45.35565 49,43.4 C50.3470891,41.7302602 50.3801144,39.3565705 49.08,37.65 C47.8488703,35.6619255 45.3476642,34.8749814 43.2,35.8 C41.2,36.46 39.58,36.04 38.78,33.95 C38.09,32.12 39.19,30.5 41.48,29.72 C46.0114365,28.2630492 50.970573,29.7883231 53.9,33.54 C56.8851259,37.3898774 57.0805276,42.7153284 54.3855685,46.7736197 C51.6906094,50.831911 46.7064298,52.7177963 42,51.46 C40.9789098,51.2019713 39.8968681,51.3678844 39,51.92 C36.63,53.92 35.11,54.37 33.64,53.06 C32.17,51.75 32.4,49.83 34.5,47.51 Z" id="Shape"></path>
                <path d="M31.41,60.3 C29.99,61.65 28.41,61.95 26.98,60.67 C26.2921843,60.1891251 25.8532782,59.4277732 25.7818249,58.5915762 C25.7103716,57.7553791 26.0137422,56.9305994 26.61,56.34 C27.09347,55.6533138 27.8578393,55.2178394 28.6950724,55.1520982 C29.5323055,55.086357 30.3552763,55.3971904 30.94,56 C32.48,57.24 32.35,58.77 31.41,60.3 Z" id="Shape"></path>
            </g>
        </g>
    </g>
</svg>