<svg xmlns="http://www.w3.org/2000/svg" xmlns:xlink="http://www.w3.org/1999/xlink" viewBox="0 0 438.82 460.55"><defs><style>.cls-1{isolation:isolate;}.cls-2{fill:#dcf1f9;opacity:0.43;}.cls-3{fill:url(#linear-gradient);}.cls-13,.cls-4{fill:#c1d8fb;}.cls-5{fill:#404299;}.cls-6{fill:#967cdf;}.cls-7{fill:#44485d;}.cls-8{fill:#3372f7;}.cls-9{fill:#ffcb58;}.cls-10{opacity:0.5;mix-blend-mode:overlay;}.cls-11,.cls-13,.cls-14,.cls-15,.cls-16,.cls-17,.cls-18,.cls-19{mix-blend-mode:multiply;}.cls-11{fill:url(#Безымянный_градиент_5);}.cls-12{fill:#fff;}.cls-14{fill:url(#Безымянный_градиент_5-2);}.cls-15{fill:url(#Безымянный_градиент_5-3);}.cls-16{fill:url(#Безымянный_градиент_5-4);}.cls-17{fill:url(#Безымянный_градиент_5-5);}.cls-18{fill:url(#Безымянный_градиент_5-6);}.cls-19{fill:url(#Безымянный_градиент_5-7);}</style><linearGradient id="linear-gradient" x1="131.31" y1="95.23" x2="287.1" y2="365.07" gradientUnits="userSpaceOnUse"><stop offset="0" stop-color="#3372f7"/><stop offset="0.17" stop-color="#3973f6"/><stop offset="0.4" stop-color="#4974f2"/><stop offset="0.65" stop-color="#6577eb"/><stop offset="0.92" stop-color="#8a7be2"/><stop offset="1" stop-color="#967cdf"/></linearGradient><radialGradient id="Безымянный_градиент_5" cx="-995.63" cy="-1469.1" r="10.42" gradientTransform="translate(2077.86 3079.92) scale(1.77 2.04)" gradientUnits="userSpaceOnUse"><stop offset="0.42" stop-color="#bcd1fc"/><stop offset="0.47" stop-color="#bfd3fc" stop-opacity="0.96"/><stop offset="0.55" stop-color="#c6d8fc" stop-opacity="0.85"/><stop offset="0.65" stop-color="#d2e0fd" stop-opacity="0.68"/><stop offset="0.77" stop-color="#e2ebfe" stop-opacity="0.43"/><stop offset="0.91" stop-color="#f6f9ff" stop-opacity="0.13"/><stop offset="0.97" stop-color="#fff" stop-opacity="0"/></radialGradient><radialGradient id="Безымянный_градиент_5-2" cx="-995.63" cy="-1433.24" r="10.42" gradientTransform="translate(2077.86 3198) scale(1.77 2.04)" xlink:href="#Безымянный_градиент_5"/><radialGradient id="Безымянный_градиент_5-3" cx="-1147.63" cy="-1451.05" r="10.42" gradientTransform="translate(2128.05 3148.83) scale(1.76 2.02)" xlink:href="#Безымянный_градиент_5"/><radialGradient id="Безымянный_градиент_5-4" cx="-1160.2" cy="-1442.72" r="10.42" gradientTransform="translate(2077.86 3166.79) scale(1.77 2.04)" xlink:href="#Безымянный_градиент_5"/><radialGradient id="Безымянный_градиент_5-5" cx="-1132.95" cy="-1467.59" r="10.34" gradientTransform="translate(2077.86 3084.87) scale(1.77 2.04)" xlink:href="#Безымянный_градиент_5"/><radialGradient id="Безымянный_градиент_5-6" cx="-996.32" cy="-1417.01" r="10.2" gradientTransform="translate(2077.86 3251.47) scale(1.77 2.04)" xlink:href="#Безымянный_градиент_5"/><radialGradient id="Безымянный_градиент_5-7" cx="-1132.95" cy="-1411.58" r="10.55" gradientTransform="translate(2077.86 3269.33) scale(1.77 2.04)" xlink:href="#Безымянный_градиент_5"/></defs><title>11Asset 3bitcoin-img3</title><g class="cls-1"><g id="Layer_2" data-name="Layer 2"><g id="Layer_1-2" data-name="Layer 1"><path class="cls-2" d="M431.57,172.73A229.08,229.08,0,0,0,411,120.51a6,6,0,0,0-10.48,5.69q4.36,8,8,16.39l1.39,3.33a4.27,4.27,0,0,1-2.12,5.51h0a4.27,4.27,0,0,1-5.53-1.74q-.76-1.83-1.56-3.64v0h0a209.17,209.17,0,0,0-33.5-53,6,6,0,1,0-9,7.8,197.1,197.1,0,0,1,48.2,129.43c0,6.14-.28,12.33-.84,18.4a6,6,0,0,0,5.39,6.48l.55,0a6,6,0,0,0,5.93-5.41c.59-6.44.89-13,.89-19.5q0-2.09,0-4.18l0,.21-.07-1.35q-.08-3.09-.24-6.17a4.29,4.29,0,0,1,8.53.31l.18,3.37q.14,3.91.14,7.82a220.48,220.48,0,0,1-3.32,38.13,6,6,0,1,0,11.74,2.07,232.3,232.3,0,0,0-3.75-97.74Z"/><path class="cls-2" d="M317,403a6,6,0,0,0-8.16-2.11A197.7,197.7,0,0,1,68.62,370.2a6,6,0,1,0-8.43,8.43,209.91,209.91,0,0,0,39,30.73h0l.06,0q2.51,1.53,5.06,3a4.27,4.27,0,0,1-4.77,7.05l-2.76-1.58c-1.63-1-3.25-2-4.86-3A6,6,0,0,0,85.5,425a229.58,229.58,0,0,0,123,35.6,6,6,0,0,0,0-11.92,219.89,219.89,0,0,1-25.33-1.47l-7.46-1.07a4.28,4.28,0,0,1-3.62-4.9h0a4.28,4.28,0,0,1,3.91-3.61q6,.93,12,1.51h.05q10.14,1,20.44,1a209.63,209.63,0,0,0,106.3-28.88A6,6,0,0,0,317,403Z"/><path class="cls-2" d="M208.54,0A230.19,230.19,0,0,0,8.43,116.26a6,6,0,1,0,10.35,5.91,219.46,219.46,0,0,1,46-56.2l6.15-5.08A4.25,4.25,0,0,1,76.75,67Q74,69.21,71.39,71.5l-.34.28h0q-5.93,5.15-11.5,10.75A6,6,0,0,0,68,90.93,197.27,197.27,0,0,1,188.19,33.42,6,6,0,0,0,187,21.56a209.73,209.73,0,0,0-22.63,3.56h0q-2.69.58-5.37,1.23A4.24,4.24,0,0,1,157.66,18l8.2-1.87a219.09,219.09,0,0,1,42.68-4.2,6,6,0,0,0,0-11.92Z"/><circle class="cls-3" cx="209.21" cy="230.15" r="155.76"/><path class="cls-4" d="M281.61,277.37c2-2.69,2.47-2.47,3.81-1.34s3.14,0,3.59-2.24,0-4.93,2-6.5,3.14-3.36,4.26-3.14,3.36-1.61,3.36,0-1.12,6.74,2.69,7.19,8.29,3.81,7.85-.9a63.84,63.84,0,0,1,0-11.43c.19-1.34,2.88.45,2.88,2.24s2.91-.67,3.81,2.24.9,7.17,1.34,8.07,2.69,0,4.26,2,.45,3.14,2,3.81,3.14,2.91,4.26,4.71-1.57,16.14-2.69,20.17-2.91,1.79-3.36,4.26-.9,6.28-2.24,6.05-3.14-2-4,0-1.79,2-2.47,2.68-2,1.34-2.91,0-1.12-4.71-2.91-4.71-.85,1.12-2.33,1.57-3.27-.67-4.62-1.79-4.48-.45-7.85,2-3.81,4.24-4.71,3.69,0,.12-2.47,2.81-6.28,1.79-7.62,4-2.24,4.71-3.36,5.6-3.36-.67-3.81-1.57a6.16,6.16,0,0,1,0-4.48c.67-1.34-.45-7.17-2.24-8.29s-2.69-2.24-2.47-4.26-2.47-3.14-1.57-5.6,5.16-5.6,5.83-6.05.45-2.91,4.48-5.6,2-6.5,3.14-7.4,4-2.24,4-3.36Z"/><path class="cls-4" d="M209.43,247.33c0-1.12,3.14-.9,5.83.9s4.71,4.71,6.95,5.16,4.48-.22,5.38,1.12,1.12,3.32,2.47,4,3.36,4.28,3.81,2.71a1.36,1.36,0,0,1,2.69.39c0,1.85,1.57,6.56,0,7.9s-3.59-.9-5.6-1.34-5.6-3.14-6.05-5.38-3.36-5.16-4.26-5.6-3.81-5.38-5.38-5.83S209.43,247.33,209.43,247.33Z"/><path class="cls-4" d="M239,269.94c.67-.65,2.24,0,4,0s3.14.51,3.81-.29.67-3.27,2.47-2.15a7.16,7.16,0,0,0,4.48,1.16c1.34,0,3.59.58,2.47,1.28s-3.92,1.59-9,2.38-8.07-.11-8.29-.56A4.79,4.79,0,0,1,239,269.94Z"/><path class="cls-4" d="M252.61,228.37a1.12,1.12,0,0,0-2.16-.44,24,24,0,0,1-2,4.83c-2.47,4.26-7.28,10.42-5.83,11.88s-.34,1.21-1.68,2-2.13,1-1.34,3.82,2.69,3,3.36,4.37,2.11,3.77,4.81,3.46,4.83-.21,6.51-.88,4-1.57,3.25-2.91-3.81-.9-3.14-3.36,2.18-2.27,2.21-4.5,2.32-5,0-6.15-5-2.35-4.34-4.15,1.34-1.68,1.79-3.14-2-2.94-1.57-4.1A2.05,2.05,0,0,0,252.61,228.37Z"/><path class="cls-4" d="M282.88,238.05a1.28,1.28,0,0,1,.15-1.68c.94-.89,2.48-1.53,3.51-.63,1.34,1.2,3.44,2.09,2.09,2.69a9.85,9.85,0,0,1-3.74,1.2C284.17,239.63,283.39,238.75,282.88,238.05Z"/><path class="cls-4" d="M289.07,241.58c-.21,1.22,2.7,2.24,4.5,1.94s2.24-.49,3.59.05,3,1.12,3.29,3.07.75,3.45,2.39,3.82a5.51,5.51,0,0,1,3,1.57c.6.6,1.34-.3,1.64-2.54s1-4.18,2.84-3.89,4.63-.45,4.78-1.64,1.94-3,0-3.29-3.59-.6-3.89-2.54-.45-2.67-2.54-2.83-7.62,1.05-9,0-1.86-1.2-3.69-.61-4.08,1.05-3.48,2.77,0,3.21-1,2.76S289.35,239.93,289.07,241.58Z"/><path class="cls-4" d="M264.72,247.55c-1-.6-4.18-2-4.48-.91s-.75,3.75,0,3.82.6,1.57,1,2.47,2.92,2.24,2.66,3-1.23,3.29,0,3.59,1.68-.6,1.83-2.09a5.81,5.81,0,0,0-1.83-4.51c-1.31-1.32-.41-3.86.48-2.44s.75,4.26,2.09,3.66,2.09-.54,1.94-1.91-1.2-.48-1.79-1.75A18.06,18.06,0,0,0,264.72,247.55Z"/><path class="cls-4" d="M243.5,197.64c.16-1.61,2.69-1.79,3.74,0s1.26,1.94,1.23,3.29-.27,4.48,0,5.23-.63,1.94-1.83.75-1.94-1.49-1.64-4a6.33,6.33,0,0,0-.3-3.59A1.39,1.39,0,0,1,243.5,197.64Z"/><path class="cls-4" d="M262.63,216c-1.2.6-.6,2.09-2.09,2.84s-3.2,2.39-2.87,2.84.71.6,2.46.6,1.46,1.64,2.5,2.54,2.24-.15,2.69,0-.6-.6,0-1.94,1.94-.23,1.34-2.28-2.63-1.75-2.51-3.1S262.63,216,262.63,216Z"/><path class="cls-4" d="M244.4,135.78c-1.07.11-.6,2.39.9,3.74s2.24,2.54,1.2,4.18-1.36,2.09-1.05,3.44-.4,2.39-1.54,3.44-2.93,2.54-2.19,3,1.94-1.79,3.44-1.64,2.69,1.34,3.74.45.6-2.69,2.09-4,1.64-1.49,1.49-2.84-.6-1.49-2.09-2.39-.9-2.09-1.34-3.59-1-.45-2.84-2.09S245.9,135.63,244.4,135.78Z"/><path class="cls-4" d="M243.81,155.34c-1.37.57-1.77.53-2.28,1.19s2,2,2.28,2.39.93,2.12,1.59,1.59.66-2.79,0-3.18S245,154.82,243.81,155.34Z"/><path class="cls-4" d="M238.87,128c.6-.75,2.54.45,4,0s2.09,0,1.64,1.2,1.19,3.14.15,3.29-2.29-1.2-3.16-1S238.87,128,238.87,128Z"/><path class="cls-4" d="M105.44,114a16.09,16.09,0,0,0,7.16-3.6c3.44-3,7-4,9-3.89s3.74,1.2,4.63-1.2.6-2.24,4.18-4,6-1.34,10.46-3.89a102.27,102.27,0,0,1,9.41-4.63,20.78,20.78,0,0,0,4.63-2.69c.9-.75,1.34-3,0-3s-6.43,2.3-7.17,2.75.2,2.84-3,2.69-4.43.75-7.12,1.94-2.39,2.24-4,2.24-8.52,2.44-7.3,1.68C126.22,98.31,112,107.56,105.44,114Z"/><path class="cls-4" d="M101.24,128.9c1,0,.6,2.09-1.2,3.14s-3.44,3.14-3.44,4.63.3,1.79-1.49,3.14-.75,3.89-3.59,4.63-1.64-.3-1.34-1.34a9.73,9.73,0,0,1,2.39-3.29c.9-.9,2.09-1.34,2.39-3.74s3.29-4.93,4-5.38S99.9,128.9,101.24,128.9Z"/><path class="cls-4" d="M92.58,136.8c-1.31.34-1.76.92-2.9,1.82s-1.44,1.79-.69,2.24,1.31.67,2.65-1.12S93.85,136.47,92.58,136.8Z"/><path class="cls-4" d="M232.45,147.58c-3-.15-5.38.6-3.74-2.09s2.24-3.44.75-5.53-1.94-3.44.45-5.83,1.76-10.49,1.34-12c-1-3.74,1.49-2.84-1-3.74s-4.18-4.93-6.28-4-5.38,3.59-7.32,1.64-2.09-.3-2.24-2.69.75-3.74-.15-4.63-1.49-2.69-.3-3.74,2.24-2.09,4-1.49,2.69.55,3.14-.17-.9-2.37-1.94-2.22A1.36,1.36,0,0,1,218,99c.6-.9,2.39-2.39,3.59-1.79s4.63,3,5.68,1.94-1.35-1.79-.15-3,1-1.34,0-2.84-1.2-2.54-2.24-3.59-1.35.3-3.89,0-5.08-.6-3.74-1.64,4-.6,3.14-1.64-2.24,0-4.18,0-6.72-1.38-8.22-.46-2.39,1.21-3.44,2.86a3.86,3.86,0,0,1-3.74,2.09c-1.64,0-6.72,1.34-10,2.69s-1,1.49-3.44,2.54-3.44.75-4.93,0-.3-.15-3.14.6-3.59,1.49-4.78,1.49-.75-.75-1-1.94-.15-.6-1.94-.75a3.84,3.84,0,0,0-3.59,1.34c-.75.9-4,1-4.33,2.24s.75,3-1,3.14-2.69.45-2.84,1.49-.3,2.84-1.49,2.09-1-2.24-2.24-.45-2.39,4.63-1.64,4.48,2.69-.15,2.24.9,1.2,4.33-1.34,3.89-.9-1.49-2.69-2.69.6-1.94-3.29-.75-3.74,1.49-6.28,2.09-4,0-4,1.34.45,1.64-2.39,2.84-1.34-1.64-2.84,1.2-1.94,4.78-3.14,3.44-.6-3,0-4.18,1.94-2.24,3-2.09a2.23,2.23,0,0,0,2.54-1.34c.6-1.2.3-1.34.15-3.29s-.3-2.69-1.79-1.94a120.68,120.68,0,0,0-11.66,7.17c-4.18,3-6.13,3.44-8.82,5.23s-4.33,3.14-4.33,4.33-.9,1.64-2.09,2.84.75.45.75,1.64-1,2.54-2.84,3.89-.6,2.39.75,2.09,1-1.64,3.74-2.69,4.33-1,4.18-3.14a4.32,4.32,0,0,1,1.79-4.18c1.35-1.2,7.32-6.72,8.22-6.28s1.34.6,0,2.09-1,2.69-3.44,3-2.39.3-3,1.79.9,1.2,2.24,1.2,1.2,1-.75,2.54a14.43,14.43,0,0,1-3.74,2.09c-.6.3-3.59,3.29-4.78,4.18s.3,1.49-2.54,1.49-2.11.15-3.6,1.34-2.83.6-5.82,1.2-1,1.34-4.63,3.29-7.17,4-8.07,4.93,0,.9-1.94,3.74-1,6-2.54,6.13-.45,2.84-1.79,1.49-.9-2.39-2.54-1.2-.75,3-2.54,4.63-2.69,3.14-2.24,3.74.3,0-.9,2.84-1.64,4.18-.9,5.83.75.3,2.69-1.34,3.14-1.34,3.74-3.44,2.09-2.69,2.69-4.48,1.35-3.29,2.84-3.44a5.23,5.23,0,0,0,3.29-1.2c.45-.6,1.34.75,1.2,3.14s.9,3.59.3,6-1.94,4.33-1.49,4.63,1.34-2.24,2.09-2.69,1.2-.15,1.2-2.09a41.87,41.87,0,0,0,0-6.13c-.3-1.79-.9-2.84.45-3.59s2.54.45,1.94,2.84a14.52,14.52,0,0,0,0,6.28c.3,1.2-.75,6.13-.15,6.58s1.2-.75,1.79-1.64.45-1.34,1-2.69,1.79-1.2,3-1.34,1.94.77,2.54-2.53,1.34-5.69,3.14-5.69a4,4,0,0,0,3.59-3.29c.15-1.49-.9-1.64,2.39-1.49s5.08-1.49,4.63.15a6.18,6.18,0,0,0,0,4.33c.6,1.79,2.24,2.84,1.2,4.93s-1,2.84-2.39,3.89-2.54,1.2-3.44,0,.6-.45-2.09-.15-1.94,1.64-3.74,1.49-3.44-3-3.59-.75.45,3.29-1.49,3.89-2.69.75-2.09,3.29-.75,5.08,1.49,3.44,2.24-1.64,3.14-2.24,1.2-1.2,2.24.45,3.59.9,3,3-2.09.9-2.24,3.59-.9,4.93-3,6.13-1.94,3.74-4,1.94-2.39-1.94-4-1.64-3.44-1-4.33-1.2.45-1.79-.9-1.64-1.2.6-2.09,1.49.45,1.34-.75,3-1.34,2.54-2.54,1.2-1.2-3.44-2.54-4.33-3.14-3.44-2.69-4.78a11.81,11.81,0,0,0,.75-4.18c-.15-.9,1.64-2.39,2.24-3.14s.75-1,0-1.64-3,.3-4.33.45-1.2,1.94-3.44,1.49-2.39-2.09-3.59-1.49-1.49,3.29-2.69,5.23-2.84,4-3,6.28-1.2,3-2.69,5.38A76.37,76.37,0,0,0,55,208q-.59,4.12-1,8.32a2.06,2.06,0,0,1-.16,2q-.44,5.88-.45,11.88a157.58,157.58,0,0,0,.81,16,2.83,2.83,0,0,0,.22.4c1.34,1.94,2.69.45,1.94,2.69s.45,3,.45,4.93-.9,2.54.9,3.44,2.84,2.69,3.74,2.24.9-2.1,2.39.07a17.91,17.91,0,0,0,6.28,5.61c2.24,1,3,.6,2.69,3.74s1.94,9.71,3,12,1.49,4.63,2.39,7,1.49,3,1.49,5.08-.15,3.59,1.79,5.38,3.14,1.64,3.44,4.93,6.28,15.39,9.26,20.32a67.16,67.16,0,0,0,9.86,12.85c3.14,3,7.32,3.74,9.86,8.37s7.17,6.13,8.67,7.62,2.09,1.79,4,1.34,3.89.83,4.48.19-.3-1.39-.15-4.23,1.79-2.54-.45-4.48-3.59-2.09-3.44-5.53.9-4.78-.15-6.28-5.23-6.13-4.63-8.52,2.09-5.08,1.94-8.82.3-3.89-1.94-7a75.61,75.61,0,0,1-6.58-12c-.9-2.39-.9-5.53-.15-9.71s5.23-14,6.13-18.68,2.54-5.68,1.79-9a14.84,14.84,0,0,1,.45-7.92c.6-1.94,1.34-3.14-.45-4.48s-1.94-.9-4.18.45-2.39,4.18-4.63,2.31a12.1,12.1,0,0,1-3.59-5c-.9-1.79-4.78-11.36-5.83-14.2s-3-3.74-4.18-7.32-2.84-7.17-3.14-11.51-.6-6.28-1.2-7.47.3-1,1.49-1.64,2.69-.9,2.39,2.69a28,28,0,0,0,2.69,12.4c1.49,2.69,5.08,10.76,5.83,12s1.64.9,1.79,2.54,0,4.33.6,6.13,1.2,3.59,2.24,4.33a3.11,3.11,0,0,0,3.89-.75,46.57,46.57,0,0,0,6.13-6.87c2.69-3.74,2.39-4,4.33-6.65s2.39-2,3.44-3.07.75-.9,1.34-4,2.39-3.29,1.64-5.08-3-6.43-4.93-6-1,.75-3.14,2.09-2.24,3.29-3.74.75.3-2.54-1.35-5.23-2.54-4.18-3.74-6.13,0-5.23,1-6.13.57,2.46,3.29,4.63c1.49,1.2,3.44,5.23,5.38,5.38s2.54-.6,4.33.75,2.84,3.29,5.23,2.54,7.92-4.33,8.82-2.39,3.74,5.68,4.93,5.23.45.75,1.2,2.54,1,2.24,1.79,2.54,1.94.15,2.54-2.39,3.14,2.29,2.69,5a7.73,7.73,0,0,0,1,6.25c1.34,2.39,5.38,10.61,6.13,12.25s1.2,4.18,2.69,5.08a5.24,5.24,0,0,1,2.84,3.59c.3,1.64,1.34,1.34,2.24.15s1.2-3.29,1.79-5.23.3-2.54-.45-5.68-4-4.18-2.84-7.92,4.18-4.33,5.08-7.47.15-4.63,2.39-5.68,3.89-1,2.84-3-2.54-3.74-.3-4.48,5.38-1.34,4.93-2.54.6-1.34,1.79.45,6.43,7.32,7.92,7.62,1.64,3.44,2.39,5.08c.5,1.1,1.79,0,1.64-1.49s.75-2.09,1.49-1.2,3.58,6.58,4.25,7,1,.75,1.13,2.54,2.84,4.93,3.44,8.67,2.24,4.78,3.14,4.93,2.84,2.54,4.18,5.53,2.12,5.23,4.64,6.58,4.77,2.49,5.37,1.77a2.61,2.61,0,0,0,0-3.12,12.76,12.76,0,0,0-3.74-3.54c-1.49-1.09-4.33-5.13-5.38-6.17s-4.57-1.94-5.28-3.44-2-6.87-1.3-8.07-2.09-3-1.2-4.18,5.68,1.34,8.37,2.54,3.44,4,3.89,4.63.75-1,1.34-3.44,5.23-6.58,4.78-9.86-.9-3-4.33-5.08-7.62-5.08-8.52-7.62-.9-5.83-.15-7,2.69-.9,4.48-1.49,6-1.34,5.83-2.54-1.79-2.39-1-2.84,3.89-.45,5.08-1.2,1-.75.75-4-1.22-6.72.21-9.86,1.11-6,0-7.62-9.92-8.52-9.18-10.31.9-4.48.15-4.63a6.44,6.44,0,0,0-3.89,0c-2.09.6-4.48-.45-4.33-2.24s4.18-6.28,5.23-5.23-.15,2.54,1.49,2.24.9-1.49,2.69-1.34,7.41,7.32,8.79,8.07,2.27-.3,2.87-1.2-.75-3.14-1.34-4.78S235.44,147.73,232.45,147.58ZM130.59,158.79c-.84,3-.21,2.54-1.19,3.44s-2.31-.6-3.2.9-.3,2.69,1,4.63,1.79,1.2,2.09,2.09a1.72,1.72,0,0,1-2.09,2.09c-1.64-.3-.9,2.84,0,5.08s-.3,3.59-.9,4.63-1.2,2.69-2.69,1.2a19.7,19.7,0,0,1-3.44-4.63c-.9-1.64,0-3.29.75-3.29s1.34-2.39,1.79-4.48-.3-2.09-1.64-2.54-1-3.29,0-5.83.6-3.14,2.24-3,2.39-1.34,3-2.39a4.81,4.81,0,0,1,3-2.69C130.69,153.49,131.43,155.8,130.59,158.79Z"/><path class="cls-4" d="M213.62,74.45c-2.43.28-5.29.83-6.3,1.85-1.89,1.92-5.21.75-7,.6s-5.25.51-5.08,2.24c.15,1.49,2.39.15,2.54.6s3-1,4.78-1.64,4.78.15,6,.15,2.39.3,1.94,1.2-2.24.45-3.16,1.36.47.73,1.89,1.78a4.6,4.6,0,0,0,4.56.45c1.34-.6,1.64.3,4.78,1.64s3.59.15,4.48-.3,2.84.15,4.78,1.31,2.39,1.82,4.18.83,1.34-.2,4.48-.05,1.34,0,2.39-.78,0-1.46-1.34-1.76-3.89-.45-2.69-1.93a5.6,5.6,0,0,1,3.29-1.81c.45-.15,1.34.45,3.41.75s3.46-.3,5.49-.15,1.11,0,2.16.84,7,0,7.09,0A155.45,155.45,0,0,0,213.62,74.45Z"/><path class="cls-5" d="M350.61,295.55a21.55,21.55,0,0,0-15.75-30.37c-12.46-2.12-28.51,1-43.17,10.84-33.63,22.66-88.66,42.36-147,12.78C72.94,252.43,66.43,139,126.2,98.32A155.78,155.78,0,1,0,350.61,295.55Z"/><path class="cls-6" d="M321.73,306.5c.45-2.47,2.24-.22,3.36-4.26s3.81-18.38,2.69-20.17-2.69-4-4.26-4.71-.45-1.79-2-3.81-3.81-1.12-4.26-2c-.35-.69-.43-3.39-.86-5.92a63,63,0,0,0-7.4,1.92c0,1,.1,1.93.19,2.88.45,4.71-4,1.35-7.85.9a3.35,3.35,0,0,1-1-.27,71.28,71.28,0,0,0-8.63,5c-3.25,2.19-6.71,4.35-10.34,6.45-.73,1-2.86,2-3.78,2.74-1.12.9.9,4.71-3.14,7.4s-3.81,5.16-4.48,5.6-4.93,3.59-5.83,6.05,1.79,3.59,1.57,5.6.67,3.14,2.47,4.26,2.91,6.95,2.24,8.29a6.16,6.16,0,0,0,0,4.48c.45.9,2.69,2.47,3.81,1.57s2-3.36,3.36-5.6,5.16-1.34,7.62-4,1.57-3.36,2.47-2.81,1.34-1.22,4.71-3.69,6.5-3.14,7.85-2,3.14,2.24,4.62,1.79.54-1.57,2.33-1.57,2,3.36,2.91,4.71,2.24.67,2.91,0,1.57-.67,2.47-2.68,2.69-.23,4,0S321.28,309,321.73,306.5Z"/><path class="cls-6" d="M85.85,176.42l.07,0c0-.34,0-.68.06-1C85.77,175.95,85.68,176.31,85.85,176.42Z"/><path class="cls-6" d="M104.08,336.77c3.14,3,7.32,3.74,9.86,8.37s7.17,6.13,8.67,7.62,2.09,1.79,4,1.34,3.89.83,4.48.19-.3-1.39-.15-4.23,1.79-2.54-.45-4.48-3.59-2.09-3.44-5.53.9-4.78-.15-6.28-5.23-6.13-4.63-8.52,2.09-5.08,1.94-8.82.3-3.89-1.94-7a75.61,75.61,0,0,1-6.58-12c-.9-2.39-.9-5.53-.15-9.71.62-3.45,3.77-10.75,5.36-15.81-21.54-20.65-33.23-50.1-35-79.6-.22.24-.41.55-.82,1-.9.9.45,1.34-.75,3s-1.34,2.54-2.54,1.2-1.2-3.44-2.54-4.33-3.14-3.44-2.69-4.78a11.81,11.81,0,0,0,.75-4.18c-.15-.9,1.64-2.39,2.24-3.14s.75-1,0-1.64-3,.3-4.33.45-1.2,1.94-3.44,1.49-2.39-2.09-3.59-1.49-1.49,3.29-2.69,5.23-2.84,4-3,6.28-1.2,3-2.69,5.38A76.32,76.32,0,0,0,55,208l-.07.5q-.09.64-.17,1.27c0,.35-.09.71-.13,1.07s-.1.8-.15,1.2-.12,1-.17,1.56-.09.86-.13,1.3-.09,1-.14,1.46a2.06,2.06,0,0,1-.16,1.94l0,.42q-.07,1-.13,1.92c0,.29,0,.59-.05.88q-.06,1.1-.1,2.2c0,.2,0,.4,0,.6q-.05,1.41-.08,2.82c0,.17,0,.34,0,.51q0,1.17,0,2.34c0,.3,0,.6,0,.9s0,.71,0,1.06,0,.6,0,.9,0,.76,0,1.14,0,.51,0,.76c0,.43,0,.86,0,1.29,0,.19,0,.38,0,.57,0,.5,0,1,.07,1.49l0,.34q0,.87.1,1.74v.06q.19,3,.49,5.9a2.83,2.83,0,0,0,.22.4c1.34,1.94,2.69.45,1.94,2.69s.45,3,.45,4.93-.9,2.54.9,3.44,2.84,2.69,3.74,2.24.9-2.1,2.39.07a17.91,17.91,0,0,0,6.28,5.61c2.24,1,3,.6,2.69,3.74s1.94,9.71,3,12,1.49,4.63,2.39,7,1.49,3,1.49,5.08-.15,3.59,1.79,5.38,3.14,1.64,3.44,4.93,6.28,15.39,9.26,20.32A67.16,67.16,0,0,0,104.08,336.77Z"/><path class="cls-6" d="M84.06,153.11c-1.94,2.84-1,6-2.54,6.13s-.45,2.84-1.79,1.49-.9-2.39-2.54-1.2-.75,3-2.54,4.63-2.69,3.14-2.24,3.74.3,0-.9,2.84-1.64,4.18-.9,5.83.75.3,2.69-1.34,3.14-1.35,3.74-3.44,2.09-2.69,2.69-4.48,1.35-3.29,2.84-3.44a5.23,5.23,0,0,0,3.29-1.2c.43-.57,1.27.65,1.21,2.87a117.71,117.71,0,0,1,4.7-19.82A38.32,38.32,0,0,0,86,149.38C85.1,150.27,86,150.27,84.06,153.11Z"/><path class="cls-6" d="M137.56,310c-2.09,1.49-.75,3.74-1.2,5.53a10.68,10.68,0,0,1-2.84,4.63c-.9.75-1.34,1.34,0,3.14s1.2,3.59,2.84,3.74,2.84,1.49,2.24,2.69-1.79,1.79-.6,3.14,2.09,4.33,3.74,3.74,1.1.45,2.94,1.49,3,2.39,2.74,0-1.14-5.23-2.74-10.16-2.64-7.32-2.79-10.16-2.09-7-2.54-7.77S137.56,310,137.56,310Z"/><path class="cls-6" d="M92.58,139.82a9.73,9.73,0,0,0-2.39,3.29c-.3,1-1.49,2.09,1.35,1.34a3.64,3.64,0,0,0,.76-.29,105.14,105.14,0,0,1,5.06-12.06,7.79,7.79,0,0,0-2.38,4C94.67,138.48,93.47,138.93,92.58,139.82Z"/><path class="cls-7" d="M370.74,243.14a.41.41,0,0,1-.17,0l-1.33-.61a.42.42,0,0,1,.35-.76l1.33.61a.42.42,0,0,1-.18.8Z"/><path class="cls-7" d="M348.12,285.14a.42.42,0,0,1,0-.84l2.93,0a.43.43,0,0,1,.42.41.42.42,0,0,1-.41.42l-2.94,0Zm-5.87,0h0l-2.94,0a.42.42,0,0,1-.41-.42.43.43,0,0,1,.42-.41l2.93,0a.42.42,0,0,1,0,.84Zm14.68-.15a.42.42,0,0,1,0-.84l2.93-.11a.42.42,0,1,1,0,.83l-2.94.11Zm-23.49,0h0l-2.94-.1a.42.42,0,1,1,0-.83l2.93.1a.42.42,0,0,1,0,.84Zm-8.8-.34h0l-2.93-.14a.42.42,0,1,1,0-.83l2.93.14a.42.42,0,0,1,0,.83Zm41.09-.08a.42.42,0,0,1,0-.83l2.92-.22a.42.42,0,1,1,.07.83l-2.93.22Zm-49.88-.4h0l-2.93-.19a.42.42,0,0,1,.06-.83l2.93.19a.42.42,0,0,1,0,.83Zm58.66-.39a.42.42,0,0,1,0-.83l2.91-.36a.42.42,0,0,1,.11.83l-2.92.36ZM307,283.54h0l-2.93-.23a.42.42,0,0,1,.07-.83l2.93.23a.42.42,0,0,1,0,.83Zm-8.78-.72h0l-2.93-.26a.42.42,0,1,1,.08-.83l2.92.26a.42.42,0,0,1,0,.83Zm84.94-.35a.42.42,0,0,1-.08-.83c1-.18,2-.38,2.87-.58a.42.42,0,0,1,.18.82c-.92.2-1.89.4-2.89.58ZM289.5,282h0l-2.92-.3a.42.42,0,1,1,.09-.83l2.92.3a.42.42,0,0,1,0,.83Zm-8.76-.92h0l-2.92-.33a.42.42,0,1,1,.09-.83l2.92.33a.42.42,0,0,1,0,.83Zm111-.68a.42.42,0,0,1-.13-.82c1-.3,1.89-.63,2.74-1a.42.42,0,0,1,.3.78c-.87.34-1.81.67-2.8,1ZM272,280.06h-.05L269,279.7a.42.42,0,1,1,.1-.83l2.91.36a.42.42,0,0,1,0,.83Zm-8.74-1.1h-.05l-2.91-.39a.42.42,0,0,1,.11-.83l2.91.38a.42.42,0,0,1-.05.83Zm-8.73-1.18h-.06l-2.91-.41a.42.42,0,0,1,.12-.83l2.91.41a.42.42,0,0,1-.06.83Zm145.24-1a.42.42,0,0,1-.24-.76,13.11,13.11,0,0,0,2.17-1.83.42.42,0,0,1,.61.57,13.93,13.93,0,0,1-2.3,1.95A.42.42,0,0,1,399.75,276.77Zm-154-.25h-.06l-2.9-.44a.42.42,0,1,1,.13-.83l2.9.44a.42.42,0,0,1-.06.83Zm-8.71-1.34H237l-2.9-.46a.42.42,0,0,1,.13-.82l2.9.46a.42.42,0,0,1-.06.83Zm-8.7-1.41h-.07l-2.9-.49a.42.42,0,1,1,.14-.82l2.89.49a.42.42,0,0,1-.07.83Zm-8.68-1.48h-.07l-2.89-.51a.42.42,0,1,1,.15-.82l2.89.51a.42.42,0,0,1-.07.83ZM211,270.73H211l-2.89-.53a.42.42,0,0,1,.15-.82l2.89.53a.42.42,0,0,1-.07.83Zm193.11-1.12a.42.42,0,0,1-.42-.41,8,8,0,0,0-.58-2.71.42.42,0,0,1,.78-.31,8.84,8.84,0,0,1,.64,3,.42.42,0,0,1-.41.43Zm-201.77-.5h-.08l-2.88-.56a.42.42,0,0,1,.16-.82l2.88.56a.42.42,0,0,1-.08.83Zm-8.65-1.69h-.08l-2.88-.58a.42.42,0,0,1,.17-.82l2.88.58a.42.42,0,0,1-.08.83Zm-8.63-1.76H185l-2.88-.6a.42.42,0,1,1,.17-.82l2.87.6a.42.42,0,0,1-.08.83Zm-8.62-1.83h-.09l-2.87-.63a.42.42,0,0,1,.18-.82l2.87.62a.42.42,0,0,1-.09.83Zm-8.6-1.9h-.09l-2.87-.65a.42.42,0,0,1,.19-.81l2.86.65a.42.42,0,0,1-.09.83Zm232.47-.06a.42.42,0,0,1-.31-.14c-.6-.67-1.29-1.37-2-2.06a.42.42,0,1,1,.57-.61c.77.71,1.47,1.42,2.09,2.12a.42.42,0,0,1-.31.7ZM159.29,260h-.1l-2.86-.67a.42.42,0,1,1,.19-.81l2.86.67a.42.42,0,0,1-.09.82Zm-8.57-2h-.1l-2.85-.7a.42.42,0,0,1,.2-.81l2.85.7a.42.42,0,0,1-.1.82Zm243-1.85a.42.42,0,0,1-.25-.08c-.75-.55-1.56-1.12-2.39-1.68a.42.42,0,0,1,.47-.69c.84.57,1.65,1.14,2.41,1.7a.42.42,0,0,1-.25.75Zm-251.57-.28h-.1l-2.85-.73a.42.42,0,0,1,.21-.81l2.84.73a.42.42,0,0,1-.1.82Zm-8.53-2.21h-.11l-2.84-.75a.42.42,0,1,1,.22-.81l2.84.75a.42.42,0,0,1-.11.82Zm-8.51-2.29-.11,0-2.83-.78a.42.42,0,1,1,.22-.8l2.83.78a.42.42,0,0,1-.11.82Zm261.24-.05a.42.42,0,0,1-.21-.06c-.81-.48-1.66-1-2.54-1.46A.42.42,0,1,1,384,249c.88.49,1.74,1,2.55,1.47a.42.42,0,0,1-.21.78Zm-269.73-2.33-.12,0-2.82-.81a.42.42,0,0,1,.23-.8l2.82.81a.42.42,0,0,1-.11.82Zm262-1.92a.42.42,0,0,1-.19,0l-2.62-1.32a.42.42,0,1,1,.37-.75l2.63,1.32a.42.42,0,0,1-.19.79Zm-270.46-.56-.12,0-2.81-.85a.42.42,0,0,1,.24-.8l2.81.85a.42.42,0,0,1-.12.82Zm-8.43-2.57-.12,0-2.8-.88a.42.42,0,0,1,.25-.8l2.8.88a.42.42,0,0,1-.12.82Zm-8.39-2.68-.13,0-2.79-.92a.42.42,0,0,1,.26-.79l2.79.92a.42.42,0,0,1-.13.81ZM83,238.38l-.14,0-2.78-1a.42.42,0,1,1,.28-.79l2.77,1a.42.42,0,0,1-.14.81Zm-8.31-2.94-.14,0-2.76-1a.42.42,0,0,1,.29-.78l2.75,1a.42.42,0,0,1-.14.81Zm-8.25-3.09-.15,0-2.74-1.07a.42.42,0,1,1,.31-.78l2.73,1.07a.42.42,0,0,1-.15.81Zm-8.18-3.27a.42.42,0,0,1-.16,0l-2.71-1.14a.42.42,0,0,1,.33-.77l2.7,1.13a.42.42,0,0,1-.16.8Zm-8.09-3.49a.41.41,0,0,1-.17,0l-2.68-1.22a.42.42,0,1,1,.35-.76l2.67,1.22a.42.42,0,0,1-.17.8Zm-8-3.76a.42.42,0,0,1-.19,0l-2.63-1.33a.42.42,0,1,1,.38-.74L42.41,221a.42.42,0,0,1-.19.79Zm-7.79-4.11a.42.42,0,0,1-.2-.05c-.87-.49-1.73-1-2.55-1.48a.42.42,0,0,1,.43-.72c.81.48,1.66,1,2.53,1.47a.42.42,0,0,1-.21.78Zm-7.5-4.61a.42.42,0,0,1-.23-.07c-.84-.57-1.65-1.14-2.41-1.7a.42.42,0,1,1,.5-.67c.75.56,1.55,1.12,2.38,1.68a.42.42,0,0,1-.23.76ZM20,207.68a.42.42,0,0,1-.29-.11c-.76-.72-1.46-1.43-2.07-2.13a.42.42,0,0,1,.63-.55c.6.68,1.27,1.37,2,2.07a.42.42,0,0,1-.29.72Zm-5.18-7a.42.42,0,0,1-.39-.27,8.71,8.71,0,0,1-.59-3,.42.42,0,0,1,.41-.42h0a.42.42,0,0,1,.42.41,7.88,7.88,0,0,0,.54,2.69.42.42,0,0,1-.24.54Zm1.69-8.08a.42.42,0,0,1-.3-.71A14.22,14.22,0,0,1,18.53,190a.42.42,0,1,1,.47.69,13.37,13.37,0,0,0-2.19,1.81A.42.42,0,0,1,16.51,192.61Zm7.49-4.5a.42.42,0,0,1-.15-.81c.87-.34,1.81-.66,2.8-1a.42.42,0,0,1,.25.8c-1,.3-1.89.62-2.75,1Zm8.45-2.45a.42.42,0,0,1-.09-.83c.93-.2,1.9-.4,2.89-.58a.42.42,0,1,1,.15.82c-1,.18-1.95.37-2.87.57Zm8.68-1.49a.42.42,0,0,1-.05-.83L44,183a.42.42,0,1,1,.09.83l-2.91.36Z"/><path class="cls-7" d="M50,183.24a.42.42,0,0,1,0-.83l1.46-.11a.42.42,0,1,1,.06.83l-1.45.11Z"/><path class="cls-7" d="M340,363.21c-13.41,0-37.56-15.14-52.49-25.49-31.32-21.7-69.21-54.3-106.69-91.78S110.7,170.57,89,139.25C76.37,121,56.57,89,66,79.65c3.29-3.29,9.68-3.25,19,.13C93.84,83,105.15,89.11,118.58,98a.42.42,0,1,1-.46.7c-27.19-18-45.51-24.5-51.57-18.43-6.54,6.54,1.9,27.88,23.14,58.54,21.67,31.28,54.23,69.13,91.68,106.57s75.3,70,106.57,91.68c30.66,21.25,52,29.68,58.54,23.14,4.95-4.95,1.56-18-9.8-37.67a.42.42,0,1,1,.72-.42c11.57,20.06,14.91,33.44,9.67,38.68C345.37,362.47,342.93,363.21,340,363.21Z"/><path class="cls-7" d="M121.83,311.23A307.36,307.36,0,0,1,74,307.75c-40.71-6.46-65.47-21.23-69.71-41.59C.3,247.23,14.84,225.29,45.18,204.39a.42.42,0,1,1,.47.69c-30,20.7-44.46,42.33-40.59,60.91,8.64,41.42,104.67,56.55,214.08,33.74s191.4-75.07,182.76-116.48c-3.43-16.43-20.5-29.16-49.38-36.83a.42.42,0,1,1,.21-.81c29.2,7.76,46.49,20.71,50,37.47,4.24,20.35-12.55,43.79-47.29,66s-83,40.41-136.12,51.49C185.37,307.63,152,311.23,121.83,311.23Z"/><path class="cls-7" d="M86.71,391.33c-.93,0-1.87,0-2.78-.1a.42.42,0,0,1-.39-.45.41.41,0,0,1,.45-.39c.89.07,1.8.1,2.71.1h.18a.42.42,0,0,1,0,.84Zm6-.45a.42.42,0,0,1-.06-.83c.94-.14,1.9-.3,2.85-.5a.42.42,0,1,1,.17.82c-1,.2-1.95.37-2.9.51Zm-14.5-.6h-.1c-1-.25-1.91-.54-2.83-.88a.42.42,0,0,1,.29-.79c.89.33,1.82.61,2.75.85a.42.42,0,0,1-.1.82Zm23-1.39a.42.42,0,0,1-.13-.82c.9-.29,1.83-.6,2.75-.94a.42.42,0,0,1,.29.78c-.93.34-1.87.66-2.78,1Zm-31.08-2a.42.42,0,0,1-.22-.06c-.84-.51-1.66-1.07-2.45-1.66a.42.42,0,0,1,.5-.67c.77.58,1.57,1.12,2.38,1.61a.42.42,0,0,1-.22.77Zm39.24-1.19a.42.42,0,0,1-.17-.8c.87-.4,1.75-.82,2.62-1.26a.42.42,0,1,1,.38.75c-.88.44-1.77.87-2.65,1.27A.41.41,0,0,1,109.39,385.7Zm7.77-4.06a.42.42,0,0,1-.21-.78c.82-.48,1.66-1,2.5-1.5a.42.42,0,0,1,.44.71c-.84.52-1.68,1-2.52,1.51A.41.41,0,0,1,117.16,381.64Zm-53.75-.31a.42.42,0,0,1-.31-.14c-.66-.71-1.3-1.47-1.91-2.26a.42.42,0,1,1,.66-.51c.59.77,1.22,1.51,1.86,2.21a.42.42,0,0,1-.31.7Zm61.14-4.4a.42.42,0,0,1-.24-.76c.79-.54,1.59-1.11,2.38-1.68a.42.42,0,1,1,.49.68c-.8.58-1.6,1.15-2.39,1.69A.42.42,0,0,1,124.55,376.93Zm-66.24-2.71a.42.42,0,0,1-.36-.21c-.47-.84-.93-1.72-1.36-2.62a.42.42,0,1,1,.75-.36c.42.88.87,1.74,1.34,2.57a.42.42,0,0,1-.36.62Zm73.29-2.51a.42.42,0,0,1-.26-.75c.75-.59,1.52-1.21,2.27-1.83a.42.42,0,1,1,.53.65c-.76.62-1.53,1.24-2.28,1.84A.42.42,0,0,1,131.6,371.71Zm-76.86-5.48a.42.42,0,0,1-.39-.28c-.32-.91-.62-1.85-.91-2.8a.42.42,0,0,1,.8-.24c.28.94.58,1.87.89,2.76a.42.42,0,0,1-.26.53Zm83.59-.15a.42.42,0,0,1-.28-.73q1.08-1,2.17-1.95a.42.42,0,0,1,.56.62q-1.09,1-2.18,2A.42.42,0,0,1,138.33,366.09Zm6.43-6a.42.42,0,0,1-.29-.72q1-1,2.08-2a.42.42,0,0,1,.59.59q-1,1-2.09,2.06A.42.42,0,0,1,144.76,360.12Zm-92.35-2.34a.42.42,0,0,1-.41-.33c-.2-.94-.38-1.91-.55-2.89a.42.42,0,0,1,.82-.14c.17,1,.35,1.93.54,2.86a.42.42,0,0,1-.32.49Zm98.51-3.91a.42.42,0,0,1-.3-.7l2-2.14a.42.42,0,1,1,.62.57l-2,2.14A.42.42,0,0,1,150.91,353.87Zm-99.85-4.75a.42.42,0,0,1-.41-.37c-.1-1-.19-1.94-.27-2.92a.42.42,0,1,1,.83-.06c.08,1,.16,2,.27,2.9a.42.42,0,0,1-.37.46Zm105.75-1.75a.42.42,0,0,1-.31-.69l1.91-2.21a.42.42,0,0,1,.64.54l-1.91,2.22A.42.42,0,0,1,156.8,347.38Zm5.65-6.71a.42.42,0,0,1-.32-.68l1.83-2.28a.42.42,0,0,1,.65.52l-1.83,2.28A.42.42,0,0,1,162.45,340.66Zm-112-.29a.42.42,0,0,1-.42-.41c0-1,0-1.95,0-2.93a.42.42,0,0,1,.42-.42h0a.42.42,0,0,1,.42.42c0,1,0,2,0,2.91a.42.42,0,0,1-.41.43Zm117.36-6.61a.42.42,0,0,1-.33-.67l1.75-2.34a.42.42,0,0,1,.67.5l-1.75,2.34A.42.42,0,0,1,167.86,333.76ZM50.57,331.6h0a.42.42,0,0,1-.4-.43c0-1,.09-2,.15-2.93a.42.42,0,1,1,.83.05c-.06,1-.11,1.95-.15,2.91A.42.42,0,0,1,50.57,331.6ZM173,326.68a.42.42,0,0,1-.34-.66l1.67-2.39a.42.42,0,1,1,.69.48l-1.68,2.4A.42.42,0,0,1,173,326.68ZM51.19,322.86h0a.42.42,0,0,1-.37-.46q.14-1.45.31-2.91a.42.42,0,1,1,.83.1q-.17,1.46-.31,2.9A.42.42,0,0,1,51.19,322.86ZM178,319.45a.42.42,0,0,1-.35-.65l1.6-2.44a.42.42,0,1,1,.7.45l-1.61,2.45A.42.42,0,0,1,178,319.45ZM52.26,314.15H52.2a.42.42,0,0,1-.35-.47q.21-1.44.45-2.89a.42.42,0,0,1,.82.13q-.24,1.45-.45,2.88A.42.42,0,0,1,52.26,314.15Zm130.48-2.09a.42.42,0,0,1-.35-.64l1.53-2.49a.42.42,0,0,1,.71.43l-1.53,2.49A.42.42,0,0,1,182.74,312.07Zm-129-6.56h-.08a.42.42,0,0,1-.33-.49q.28-1.43.57-2.87a.42.42,0,1,1,.82.17q-.3,1.44-.57,2.86A.42.42,0,0,1,53.73,305.51Zm133.54-1a.42.42,0,0,1-.36-.63l1.46-2.53a.42.42,0,0,1,.73.41l-1.46,2.54A.42.42,0,0,1,187.27,304.56Zm-131.7-7.62h-.1a.42.42,0,0,1-.31-.5q.33-1.42.69-2.85a.42.42,0,1,1,.81.2q-.35,1.42-.68,2.84A.42.42,0,0,1,55.57,296.93Zm136,0a.42.42,0,0,1-.37-.62l1.39-2.57a.42.42,0,0,1,.74.39L192,296.7A.42.42,0,0,1,191.59,296.92Zm4.11-7.75a.42.42,0,0,1-.37-.61l1.32-2.6a.42.42,0,1,1,.75.37l-1.32,2.61A.42.42,0,0,1,195.69,289.17Zm-138-.74h-.11a.42.42,0,0,1-.29-.51q.38-1.41.79-2.82a.42.42,0,1,1,.8.23q-.4,1.41-.79,2.81A.42.42,0,0,1,57.73,288.43Zm141.86-7.12a.42.42,0,0,1-.38-.6q.63-1.32,1.25-2.64a.42.42,0,0,1,.76.35q-.62,1.32-1.25,2.65A.42.42,0,0,1,199.58,281.31Zm3.67-8a.42.42,0,0,1-.38-.59q.59-1.34,1.17-2.67a.42.42,0,0,1,.77.33q-.58,1.34-1.18,2.68A.42.42,0,0,1,203.26,273.35Zm3.45-8.06a.42.42,0,0,1-.39-.58q.56-1.35,1.1-2.71a.42.42,0,0,1,.78.31q-.54,1.36-1.1,2.71A.42.42,0,0,1,206.7,265.29Zm3.21-8.16-.15,0a.42.42,0,0,1-.24-.54q.52-1.37,1-2.74a.42.42,0,1,1,.78.29q-.5,1.37-1,2.75A.42.42,0,0,1,209.92,257.12Zm3-8.25-.13,0a.42.42,0,0,1-.26-.53q.47-1.39.93-2.77a.42.42,0,0,1,.79.26q-.46,1.38-.93,2.78A.42.42,0,0,1,212.88,248.87Zm2.7-8.34-.12,0a.42.42,0,0,1-.28-.52q.43-1.4.84-2.8a.42.42,0,1,1,.8.24q-.41,1.4-.84,2.8A.42.42,0,0,1,215.59,240.53ZM218,232.1h-.11a.42.42,0,0,1-.29-.51q.38-1.42.74-2.82a.42.42,0,0,1,.81.21q-.36,1.41-.74,2.83A.42.42,0,0,1,218,232.1Zm2.12-8.51H220a.42.42,0,0,1-.31-.5q.33-1.43.64-2.85a.42.42,0,1,1,.82.18q-.31,1.42-.64,2.86A.42.42,0,0,1,220.13,223.59Zm1.8-8.58h-.08a.42.42,0,0,1-.33-.49q.27-1.44.52-2.87a.42.42,0,1,1,.82.14q-.25,1.43-.52,2.88A.42.42,0,0,1,221.93,215Zm1.43-8.65h-.06a.42.42,0,0,1-.35-.47q.21-1.45.39-2.89a.42.42,0,0,1,.83.1q-.18,1.44-.39,2.9A.42.42,0,0,1,223.36,206.35Zm1-8.71h0a.42.42,0,0,1-.38-.45q.13-1.46.24-2.91a.42.42,0,0,1,.83.06q-.11,1.45-.24,2.92A.42.42,0,0,1,224.38,197.64Zm.56-8.75h0a.42.42,0,0,1-.4-.43c0-1,.06-2,.07-2.91a.42.42,0,0,1,.84,0c0,1,0,2-.07,2.93A.42.42,0,0,1,224.94,188.89Zm0-8.77a.42.42,0,0,1-.42-.4c0-1-.08-2-.13-2.91a.42.42,0,1,1,.83,0c.06,1,.1,2,.14,2.93a.42.42,0,0,1-.4.43Zm-.64-8.74a.42.42,0,0,1-.41-.37c-.11-1-.24-1.94-.38-2.88a.42.42,0,1,1,.83-.12c.14,1,.27,1.93.39,2.91a.42.42,0,0,1-.37.46Zm-1.45-8.65a.42.42,0,0,1-.41-.33c-.21-1-.45-1.91-.69-2.82a.42.42,0,0,1,.81-.22c.25.93.48,1.89.7,2.86a.42.42,0,0,1-.32.5Zm-2.46-8.41A.42.42,0,0,1,220,154c-.34-.92-.7-1.82-1.08-2.69a.42.42,0,0,1,.77-.33c.38.88.75,1.8,1.1,2.73a.42.42,0,0,1-.25.54Zm-3.73-7.92a.42.42,0,0,1-.36-.2c-.5-.84-1-1.66-1.56-2.43a.42.42,0,0,1,.69-.48c.55.79,1.09,1.63,1.59,2.48a.42.42,0,0,1-.36.63Zm-5.29-7a.42.42,0,0,1-.3-.13c-.67-.69-1.38-1.35-2.1-2a.42.42,0,1,1,.54-.64c.74.63,1.47,1.31,2.16,2a.42.42,0,0,1-.3.71Zm-6.91-5.34a.42.42,0,0,1-.2-.05l-.89-.48c-.55-.28-1.12-.56-1.68-.81A.42.42,0,1,1,202,132c.58.26,1.17.54,1.73.83l.92.5a.42.42,0,0,1-.21.78Zm-28.39-2a.42.42,0,0,1-.11-.82c1-.27,1.92-.52,2.85-.73a.42.42,0,1,1,.18.81c-.92.21-1.87.45-2.81.72ZM196.31,131h-.09c-.92-.21-1.88-.38-2.84-.5a.42.42,0,0,1,.11-.83c1,.13,2,.3,2.91.52a.42.42,0,0,1-.09.83Zm-11.63-.6a.42.42,0,0,1,0-.83c1-.1,2-.17,2.95-.19a.42.42,0,0,1,0,.83c-.94,0-1.91.09-2.89.19Z"/><path class="cls-7" d="M155.71,233.77c-21.93,0-37.74-6.72-45-19.29a.42.42,0,1,1,.72-.42c8,13.89,26.81,20.47,52.92,18.54s56.63-12.23,85.64-29,53.13-37.94,67.92-59.68,18.42-41.22,10.4-55.1c-10.16-17.6-37.88-23.34-74.14-15.35a.42.42,0,1,1-.18-.82c36.64-8.07,64.69-2.19,75,15.75,8.19,14.18,4.48,34.06-10.44,56s-39.07,43.12-68.19,59.93-59.66,27.14-86,29.09Q159.93,233.77,155.71,233.77Z"/><path class="cls-6" d="M310,351.94a.42.42,0,0,1-.21-.05c-18.65-10.57-42.33-27.87-68.49-50a.42.42,0,1,1,.54-.64c26.12,22.13,49.76,39.4,68.37,49.94a.42.42,0,0,1-.21.78Z"/><path class="cls-6" d="M121.85,311.23a317.23,317.23,0,0,1-42.52-2.69.42.42,0,0,1,.11-.83c33.43,4.54,73.58,3.3,116.11-3.6a.42.42,0,0,1,.13.82A464.72,464.72,0,0,1,121.85,311.23Z"/><path class="cls-6" d="M143.28,361.55a.42.42,0,0,1-.29-.72q1-1,2.1-2a.42.42,0,0,1,.58.6q-1.05,1-2.11,2A.42.42,0,0,1,143.28,361.55Zm6.22-6.19a.42.42,0,0,1-.3-.71l2-2.12a.42.42,0,1,1,.61.57l-2,2.12A.42.42,0,0,1,149.49,355.36Zm6-6.44a.42.42,0,0,1-.31-.69l1.92-2.19a.42.42,0,0,1,.63.55l-1.93,2.2A.42.42,0,0,1,155.45,348.92Zm5.7-6.66a.42.42,0,0,1-.32-.68l1.84-2.26a.42.42,0,0,1,.65.52l-1.85,2.27A.42.42,0,0,1,161.15,342.26Zm5.46-6.86a.42.42,0,0,1-.33-.67L168,332.4a.42.42,0,0,1,.67.5l-1.77,2.33A.42.42,0,0,1,166.61,335.4Zm5.23-7a.42.42,0,0,1-.34-.66l1.69-2.38a.42.42,0,0,1,.68.48l-1.7,2.39A.42.42,0,0,1,171.85,328.36Zm5-7.2a.42.42,0,0,1-.35-.65l1.62-2.43a.42.42,0,0,1,.7.46L177.2,321A.42.42,0,0,1,176.86,321.16Zm4.79-7.35a.42.42,0,0,1-.35-.64l1.55-2.48a.42.42,0,0,1,.71.44L182,313.62A.42.42,0,0,1,181.65,313.82Zm4.58-7.48a.42.42,0,0,1-.36-.63l1.48-2.52a.42.42,0,1,1,.72.42l-1.48,2.53A.42.42,0,0,1,186.22,306.33Z"/><circle class="cls-7" cx="176.09" cy="131.63" r="2.2"/><circle class="cls-6" cx="402.69" cy="193.42" r="5.66"/><circle class="cls-6" cx="80.69" cy="275.73" r="3.94"/><circle class="cls-8" cx="385.62" cy="225.21" r="3.13"/><circle class="cls-7" cx="281.49" cy="182.71" r="3.58"/><circle class="cls-9" cx="86.74" cy="135.21" r="3.2"/><circle class="cls-7" cx="57.98" cy="175.3" r="1.68"/><circle class="cls-7" cx="382.47" cy="307.64" r="2.22"/><circle class="cls-6" cx="385.62" cy="407.63" r="3.14"/><circle class="cls-6" cx="56.31" cy="131.84" r="2.25"/><g class="cls-10"><circle class="cls-4" cx="315.65" cy="75.54" r="19.84" transform="translate(57.08 271.71) rotate(-50.65)"/></g><circle class="cls-11" cx="315.98" cy="81.69" r="24.75"/><circle class="cls-12" cx="315.77" cy="75.1" r="15.62"/><path class="cls-13" d="M315.8,88.81a13.84,13.84,0,0,1-2.75-.28,13.7,13.7,0,1,1,14.14-21,.42.42,0,0,1-.7.46,12.86,12.86,0,1,0,2.12,6.25.42.42,0,0,1,.83-.06A13.71,13.71,0,0,1,315.8,88.81Z"/><path class="cls-7" d="M312.78,88.47h-.09a13.65,13.65,0,0,1-10.42-11,.42.42,0,0,1,.82-.14,12.82,12.82,0,0,0,9.78,10.33.42.42,0,0,1-.09.82Z"/><path class="cls-9" d="M321.81,76.5a2.67,2.67,0,0,0-2.12-2,1.94,1.94,0,0,0,1.41-1.89c.08-2-2.12-2.57-3-2.57h-.43V67.44h-1.15V70h-1.26V67.43h-1.15V70H310.9V71.3h1.79l0,7.36h-1.39l-.55,1.65s1.4.12,3.32.17v2.29h1.15V80.5h1.26v2.28h1.15V80.46a6.17,6.17,0,0,0,2.56-.6A3,3,0,0,0,321.81,76.5Zm-6.7-5.18h1.41c.73,0,1.92.3,2,1.23.11,1.15-1.1,1.61-2,1.6H315.1Zm1.7,7.39h-1.72V75.62h1.71c1.17,0,2.33.32,2.43,1.34C319.37,78.21,318.07,78.71,316.8,78.7Z"/><path class="cls-9" d="M317.59,83h-1.15a.21.21,0,0,1-.21-.21V80.71h-.84v2.06a.21.21,0,0,1-.21.21H314a.21.21,0,0,1-.21-.21V80.68c-1.8-.06-3.11-.17-3.13-.17a.21.21,0,0,1-.18-.27l.55-1.65a.21.21,0,0,1,.2-.14h1.18l0-6.94H310.9a.21.21,0,0,1-.21-.21V70a.21.21,0,0,1,.21-.21h3V67.43a.21.21,0,0,1,.21-.21h1.15a.21.21,0,0,1,.21.21v2.35h.84V67.44a.21.21,0,0,1,.06-.15.26.26,0,0,1,.15-.06h1.15a.21.21,0,0,1,.21.21V69.8h.22a3.94,3.94,0,0,1,2.61,1.05,2.29,2.29,0,0,1,.64,1.74,2.16,2.16,0,0,1-1,1.85,2.69,2.69,0,0,1,1.74,2h0A3.28,3.28,0,0,1,320.24,80a6.17,6.17,0,0,1-2.44.61v2.12a.21.21,0,0,1-.21.21Zm-.94-.42h.73V80.46a.21.21,0,0,1,.2-.21,6,6,0,0,0,2.48-.59,2.82,2.82,0,0,0,1.54-3.14h0a2.44,2.44,0,0,0-1.95-1.86.21.21,0,0,1,0-.41,1.72,1.72,0,0,0,1.25-1.7,1.88,1.88,0,0,0-.53-1.43,3.53,3.53,0,0,0-2.31-.92h-.43a.21.21,0,0,1-.21-.21V67.65h-.73V70a.21.21,0,0,1-.21.21h-1.26A.21.21,0,0,1,315,70V67.64h-.73V70a.21.21,0,0,1-.21.21h-3v.9h1.59a.21.21,0,0,1,.21.21l0,7.36a.21.21,0,0,1-.21.21h-1.24L311,80.12c.49,0,1.63.11,3,.15a.21.21,0,0,1,.2.21v2.08H315V80.5a.21.21,0,0,1,.06-.15.21.21,0,0,1,.15-.06h1.26a.21.21,0,0,1,.21.21Zm.17-3.66h-1.73a.21.21,0,0,1-.21-.21V75.62a.21.21,0,0,1,.21-.21h1.71c1.58,0,2.54.56,2.64,1.52a1.48,1.48,0,0,1-.37,1.2A3,3,0,0,1,316.82,78.91Zm-1.52-.42h1.51a2.75,2.75,0,0,0,2-.64A1.08,1.08,0,0,0,319,77c-.11-1-1.44-1.15-2.23-1.15h-1.5Zm1.23-4.12H315.1a.21.21,0,0,1-.21-.21V71.31a.21.21,0,0,1,.21-.21h1.41c1,0,2.12.45,2.22,1.42a1.44,1.44,0,0,1-.37,1.14A2.57,2.57,0,0,1,316.52,74.36Zm-1.22-.42h1.21a2.22,2.22,0,0,0,1.54-.56,1,1,0,0,0,.26-.81c-.07-.76-1.12-1-1.8-1h-1.2Z"/><g class="cls-10"><circle class="cls-4" cx="315.65" cy="266.79" r="19.84" transform="translate(-90.8 341.69) rotate(-50.65)"/></g><circle class="cls-14" cx="315.98" cy="272.94" r="24.75"/><circle class="cls-12" cx="315.77" cy="266.36" r="15.62"/><path class="cls-13" d="M315.79,280.05a13.7,13.7,0,1,1,11.4-21.27.42.42,0,0,1-.7.46,12.86,12.86,0,1,0,2.12,6.25.42.42,0,0,1,.83-.06,13.7,13.7,0,0,1-13.65,14.61Z"/><path class="cls-7" d="M312.78,279.72h-.09a13.65,13.65,0,0,1-10.42-11,.42.42,0,1,1,.82-.14,12.82,12.82,0,0,0,9.78,10.33.42.42,0,0,1-.09.82Z"/><path class="cls-9" d="M321.81,267.83a2.67,2.67,0,0,0-2.12-2,1.94,1.94,0,0,0,1.41-1.89c.08-2-2.12-2.57-3-2.57h-.43v-2.56h-1.15v2.56h-1.26v-2.56h-1.15v2.56H310.9v1.32h1.79l0,7.36h-1.39l-.55,1.65s1.4.12,3.32.17v2.29h1.15v-2.27h1.26v2.28h1.15V271.8a6.17,6.17,0,0,0,2.56-.6A3,3,0,0,0,321.81,267.83Zm-6.7-5.18h1.41c.73,0,1.92.3,2,1.23.11,1.15-1.1,1.61-2,1.6H315.1Zm1.7,7.39h-1.72V267h1.71c1.17,0,2.33.32,2.43,1.34C319.37,269.54,318.07,270,316.8,270Z"/><path class="cls-9" d="M317.59,274.32h-1.15a.21.21,0,0,1-.21-.21V272h-.84v2.06a.21.21,0,0,1-.21.21H314a.21.21,0,0,1-.21-.21V272c-1.8-.06-3.11-.17-3.13-.17a.21.21,0,0,1-.18-.27l.55-1.65a.21.21,0,0,1,.2-.14h1.18l0-6.94H310.9a.21.21,0,0,1-.21-.21v-1.32a.21.21,0,0,1,.21-.21h3v-2.35a.21.21,0,0,1,.21-.21h1.15a.21.21,0,0,1,.21.21v2.35h.84v-2.35a.21.21,0,0,1,.06-.15.17.17,0,0,1,.15-.06h1.15a.21.21,0,0,1,.21.21v2.35h.22a3.94,3.94,0,0,1,2.61,1.05,2.29,2.29,0,0,1,.64,1.74,2.16,2.16,0,0,1-1,1.85,2.69,2.69,0,0,1,1.74,2,3.28,3.28,0,0,1-1.78,3.59,6.17,6.17,0,0,1-2.44.61v2.12A.21.21,0,0,1,317.59,274.32Zm-.94-.42h.73V271.8a.21.21,0,0,1,.2-.21,6,6,0,0,0,2.48-.59,2.82,2.82,0,0,0,1.54-3.14h0a2.47,2.47,0,0,0-1.95-1.86.21.21,0,0,1,0-.41,1.72,1.72,0,0,0,1.25-1.7,1.89,1.89,0,0,0-.53-1.43,3.53,3.53,0,0,0-2.31-.92h-.43a.21.21,0,0,1-.21-.21V259h-.73v2.35a.21.21,0,0,1-.21.21h-1.26a.21.21,0,0,1-.21-.21V259h-.73v2.35a.21.21,0,0,1-.06.15.24.24,0,0,1-.15.06h-3v.9h1.59a.21.21,0,0,1,.21.21l0,7.36a.21.21,0,0,1-.06.15.18.18,0,0,1-.15.06h-1.24l-.42,1.25c.49,0,1.63.11,3,.15a.21.21,0,0,1,.2.21v2.08H315v-2.06a.21.21,0,0,1,.21-.21h1.26a.22.22,0,0,1,.15.06.21.21,0,0,1,.06.15Zm.17-3.66h-1.73a.21.21,0,0,1-.21-.21V267a.21.21,0,0,1,.21-.21h1.71c1.58,0,2.54.56,2.64,1.52a1.48,1.48,0,0,1-.37,1.2A3,3,0,0,1,316.82,270.24Zm0-.42h0a2.68,2.68,0,0,0,1.95-.64,1.08,1.08,0,0,0,.26-.87c-.11-1-1.44-1.15-2.23-1.15h-1.5v2.66Zm-.28-4.13H315.1a.21.21,0,0,1-.21-.21v-2.84a.21.21,0,0,1,.21-.21h1.41c1,0,2.12.45,2.22,1.42a1.44,1.44,0,0,1-.37,1.14A2.58,2.58,0,0,1,316.52,265.7Zm-1.22-.42h1.21a2.17,2.17,0,0,0,1.54-.56,1,1,0,0,0,.26-.81c-.07-.76-1.12-1-1.8-1h-1.2Z"/><g class="cls-10"><circle class="cls-4" cx="112.85" cy="204.82" r="19.84" transform="translate(-117.08 162.2) rotate(-50.65)"/></g><circle class="cls-15" cx="113.56" cy="211.3" r="24.56"/><circle class="cls-12" cx="113.35" cy="204.77" r="15.5"/><path class="cls-13" d="M113.37,218.36a13.6,13.6,0,1,1,11.31-21.11.42.42,0,0,1-.7.46,12.76,12.76,0,1,0,2.1,6.2.42.42,0,0,1,.83-.06,13.59,13.59,0,0,1-13.55,14.5Z"/><path class="cls-7" d="M110,217.65h-.09a13.55,13.55,0,0,1-10.34-10.92.42.42,0,0,1,.82-.14,12.72,12.72,0,0,0,9.71,10.25.42.42,0,0,1-.09.82Z"/><path class="cls-9" d="M118.88,206a2.67,2.67,0,0,0-2.12-2,1.94,1.94,0,0,0,1.41-1.89c.08-2-2.12-2.57-3-2.57h-.43V196.9h-1.15v2.56h-1.26v-2.56h-1.15v2.56H108v1.32h1.79l0,7.36h-1.39l-.55,1.65s1.4.12,3.32.17v2.29h1.15V210h1.26v2.28h1.15v-2.32a6.17,6.17,0,0,0,2.56-.6A3,3,0,0,0,118.88,206Zm-6.7-5.18h1.41c.73,0,1.92.3,2,1.23.11,1.15-1.1,1.61-2,1.6h-1.42Zm1.7,7.39h-1.72v-3.07h1.71c1.17,0,2.33.32,2.43,1.34C116.44,207.66,115.14,208.16,113.87,208.16Z"/><path class="cls-9" d="M114.66,212.44h-1.15a.21.21,0,0,1-.21-.21v-2.06h-.84v2.06a.21.21,0,0,1-.21.21H111.1a.21.21,0,0,1-.21-.21v-2.09c-1.8-.06-3.11-.17-3.13-.17a.21.21,0,0,1-.18-.27l.55-1.65a.21.21,0,0,1,.2-.14h1.18l0-6.94H108a.21.21,0,0,1-.21-.21v-1.32a.21.21,0,0,1,.21-.21h3v-2.35a.21.21,0,0,1,.21-.21h1.15a.21.21,0,0,1,.21.21v2.35h.84v-2.35a.21.21,0,0,1,.21-.21h1.15a.21.21,0,0,1,.21.21v2.35h.22a3.94,3.94,0,0,1,2.61,1.05,2.29,2.29,0,0,1,.64,1.74,2.16,2.16,0,0,1-1,1.85,2.69,2.69,0,0,1,1.74,2,3.28,3.28,0,0,1-1.78,3.59,6.18,6.18,0,0,1-2.44.61v2.12a.21.21,0,0,1-.21.21Zm-.94-.42h.73v-2.11a.21.21,0,0,1,.2-.21,6,6,0,0,0,2.48-.59,2.82,2.82,0,0,0,1.54-3.14h0a2.44,2.44,0,0,0-1.95-1.86.21.21,0,0,1,0-.41A1.72,1.72,0,0,0,118,202a1.88,1.88,0,0,0-.53-1.43,3.53,3.53,0,0,0-2.31-.92h-.43a.21.21,0,0,1-.21-.21v-2.35h-.73v2.35a.21.21,0,0,1-.21.21h-1.26a.21.21,0,0,1-.21-.21V197.1h-.73v2.35a.21.21,0,0,1-.21.21h-3v.9h1.58a.21.21,0,0,1,.21.21l0,7.36a.21.21,0,0,1-.21.21h-1.24l-.42,1.25c.49,0,1.63.11,3,.15a.21.21,0,0,1,.2.21V212H112V210a.21.21,0,0,1,.06-.15.22.22,0,0,1,.15-.06h1.26a.21.21,0,0,1,.21.21Zm.17-3.66h-1.73a.21.21,0,0,1-.21-.21v-3.07a.21.21,0,0,1,.21-.21h1.71c1.58,0,2.54.56,2.64,1.52a1.48,1.48,0,0,1-.37,1.2A3,3,0,0,1,113.89,208.37Zm-1.52-.42h1.51a2.67,2.67,0,0,0,2-.64,1.08,1.08,0,0,0,.26-.87c-.11-1-1.44-1.15-2.23-1.15h-1.5Zm1.23-4.12h-1.43a.21.21,0,0,1-.21-.21v-2.84a.21.21,0,0,1,.21-.21h1.41c1,0,2.12.45,2.22,1.42a1.44,1.44,0,0,1-.37,1.14A2.57,2.57,0,0,1,113.59,203.82Zm-1.22-.42h1.22a2.19,2.19,0,0,0,1.53-.56,1,1,0,0,0,.26-.81c-.07-.76-1.12-1-1.8-1h-1.2Z"/><g class="cls-10"><circle class="cls-4" cx="80.45" cy="219.8" r="14.8" transform="translate(-140.52 142.62) rotate(-50.65)"/></g><circle class="cls-16" cx="24.75" cy="222.38" r="24.75"/><circle class="cls-12" cx="24.54" cy="215.8" r="15.62"/><path class="cls-13" d="M24.56,229.5A13.7,13.7,0,1,1,36,208.23a.42.42,0,1,1-.7.46,12.86,12.86,0,1,0,2.12,6.25.42.42,0,0,1,.83-.06A13.7,13.7,0,0,1,24.56,229.5Z"/><path class="cls-7" d="M21.55,229.16h-.09a13.65,13.65,0,0,1-10.42-11,.42.42,0,1,1,.82-.14,12.82,12.82,0,0,0,9.78,10.33.42.42,0,0,1-.09.82Z"/><path class="cls-9" d="M84.56,220.84A2,2,0,0,0,83,219.33,1.44,1.44,0,0,0,84,217.92c.06-1.47-1.58-1.92-2.27-1.92h-.32v-1.91h-.85V216h-.94v-1.91H78.8V216H76.42v1h1.34l0,5.49h-1l-.41,1.23s1,.09,2.48.13v1.71h.85v-1.69h.94v1.7h.85V223.8a4.61,4.61,0,0,0,1.91-.45A2.27,2.27,0,0,0,84.56,220.84Zm-5-3.87h1.05c.55,0,1.43.22,1.5.92.08.86-.82,1.2-1.5,1.2H79.55Zm1.26,5.51H79.54v-2.29h1.27c.87,0,1.74.24,1.82,1C82.74,222.12,81.77,222.49,80.83,222.48Z"/><path class="cls-9" d="M81.41,225.68h-.86a.16.16,0,0,1-.16-.16V224h-.63v1.54a.16.16,0,0,1-.16.16h-.86a.16.16,0,0,1-.16-.16V224c-1.35,0-2.32-.12-2.33-.12a.16.16,0,0,1-.13-.2l.41-1.23a.16.16,0,0,1,.15-.11h.88l0-5.18H76.42a.16.16,0,0,1-.16-.16v-1a.16.16,0,0,1,.16-.16h2.21v-1.76a.16.16,0,0,1,.16-.16h.86a.16.16,0,0,1,.16.16v1.76h.63v-1.76a.16.16,0,0,1,0-.11.19.19,0,0,1,.11,0h.85a.16.16,0,0,1,.16.16v1.76h.17a2.94,2.94,0,0,1,1.95.78,1.71,1.71,0,0,1,.48,1.3,1.61,1.61,0,0,1-.77,1.38,2,2,0,0,1,1.3,1.51,2.44,2.44,0,0,1-1.33,2.68,4.61,4.61,0,0,1-1.82.46v1.58a.16.16,0,0,1-.16.16Zm-.7-.31h.54V223.8a.16.16,0,0,1,.15-.16,4.46,4.46,0,0,0,1.85-.44,2.11,2.11,0,0,0,1.15-2.34h0A1.84,1.84,0,0,0,83,219.48a.16.16,0,0,1,0-.31,1.28,1.28,0,0,0,.93-1.27,1.41,1.41,0,0,0-.39-1.07,2.63,2.63,0,0,0-1.72-.69h-.32a.16.16,0,0,1-.16-.16v-1.76h-.54V216a.16.16,0,0,1,0,.11.2.2,0,0,1-.11,0h-.94a.16.16,0,0,1-.16-.16v-1.76H79V216a.16.16,0,0,1-.16.16H76.58v.67h1.18a.16.16,0,0,1,.16.16l0,5.49a.16.16,0,0,1-.16.16h-.93l-.31.93c.37,0,1.22.08,2.27.11a.16.16,0,0,1,.15.16v1.55h.54v-1.54a.16.16,0,0,1,0-.11.17.17,0,0,1,.11,0h.94a.16.16,0,0,1,.11,0,.16.16,0,0,1,0,.11Zm.12-2.73H79.54a.16.16,0,0,1-.16-.16v-2.29a.16.16,0,0,1,.16-.16h1.27c1.18,0,1.89.42,2,1.14a1.1,1.1,0,0,1-.27.89A2.27,2.27,0,0,1,80.84,222.64Zm-1.14-.31h1.13a2,2,0,0,0,1.46-.47.8.8,0,0,0,.2-.65c-.08-.74-1.08-.86-1.66-.86H79.71Zm.92-3.08H79.55a.16.16,0,0,1-.16-.16V217a.17.17,0,0,1,.16-.16h1.05c.75,0,1.58.34,1.65,1.06a1.07,1.07,0,0,1-.27.85A1.92,1.92,0,0,1,80.62,219.25Zm-.91-.31h.91a1.63,1.63,0,0,0,1.14-.42.76.76,0,0,0,.19-.61c-.05-.57-.83-.78-1.34-.78h-.9Z"/><g class="cls-10"><circle class="cls-4" cx="72.98" cy="83.21" r="19.84" transform="translate(-37.64 86.88) rotate(-50.65)"/></g><circle class="cls-17" cx="72.98" cy="89.7" r="24.56"/><circle class="cls-12" cx="72.77" cy="83.16" r="15.5"/><path class="cls-13" d="M72.79,96.76A13.6,13.6,0,1,1,84.11,75.65a.42.42,0,0,1-.7.46,12.76,12.76,0,1,0,2.1,6.2.42.42,0,0,1,.83-.06,13.59,13.59,0,0,1-13.55,14.5Z"/><path class="cls-7" d="M69.42,96h-.09A13.55,13.55,0,0,1,59,85.12a.42.42,0,0,1,.82-.14,12.72,12.72,0,0,0,9.71,10.25.42.42,0,0,1-.09.82Z"/><path class="cls-9" d="M78.54,84.61a2.67,2.67,0,0,0-2.12-2,1.94,1.94,0,0,0,1.41-1.89c.08-2-2.12-2.57-3-2.57h-.43V75.55H73.22v2.56H71.95V75.54H70.81V78.1H67.63v1.32h1.79l0,7.36H68l-.55,1.65s1.4.12,3.32.17v2.29h1.15V88.61h1.26v2.28h1.15V88.57a6.17,6.17,0,0,0,2.56-.6A3,3,0,0,0,78.54,84.61Zm-6.7-5.18h1.41c.73,0,1.92.3,2,1.23.11,1.15-1.1,1.61-2,1.6H71.82Zm1.7,7.39H71.81V83.73h1.71c1.17,0,2.33.32,2.43,1.34C76.09,86.32,74.79,86.81,73.53,86.81Z"/><path class="cls-9" d="M74.31,91.1H73.17a.21.21,0,0,1-.21-.21V88.82h-.84v2.06a.21.21,0,0,1-.21.21H70.76a.21.21,0,0,1-.21-.21V88.79c-1.8-.06-3.11-.17-3.13-.17a.21.21,0,0,1-.18-.27l.55-1.65a.21.21,0,0,1,.2-.14h1.18l0-6.94H67.62a.21.21,0,0,1-.21-.21V78.09a.21.21,0,0,1,.21-.21h3V75.54a.21.21,0,0,1,.21-.21H72a.21.21,0,0,1,.21.21V77.9H73V75.55a.21.21,0,0,1,.06-.15.23.23,0,0,1,.15-.06h1.15a.21.21,0,0,1,.21.21v2.35h.22A3.94,3.94,0,0,1,77.4,79,2.29,2.29,0,0,1,78,80.7a2.16,2.16,0,0,1-1,1.85,2.69,2.69,0,0,1,1.74,2h0A3.28,3.28,0,0,1,77,88.16a6.17,6.17,0,0,1-2.44.61v2.12A.21.21,0,0,1,74.31,91.1Zm-.94-.42h.73V88.57a.21.21,0,0,1,.2-.21,6,6,0,0,0,2.48-.59,2.82,2.82,0,0,0,1.54-3.14h0a2.47,2.47,0,0,0-1.95-1.86.21.21,0,0,1,0-.41,1.72,1.72,0,0,0,1.25-1.7,1.88,1.88,0,0,0-.53-1.43,3.53,3.53,0,0,0-2.31-.92h-.43a.21.21,0,0,1-.21-.21V75.76h-.73v2.35a.21.21,0,0,1-.21.21H71.95a.21.21,0,0,1-.21-.21V75.75H71V78.1a.21.21,0,0,1-.21.21h-3v.9h1.59a.21.21,0,0,1,.21.21l0,7.36a.21.21,0,0,1-.21.21H68.15l-.42,1.25c.49,0,1.63.11,3,.15a.21.21,0,0,1,.2.21v2.08h.73V88.61a.21.21,0,0,1,.06-.15.22.22,0,0,1,.15-.06h1.26a.2.2,0,0,1,.15.06.21.21,0,0,1,.06.15ZM73.54,87H71.81a.21.21,0,0,1-.21-.21V83.73a.21.21,0,0,1,.21-.21h1.71c1.58,0,2.54.56,2.64,1.52a1.48,1.48,0,0,1-.37,1.2A3,3,0,0,1,73.54,87ZM72,86.6h1.51a2.69,2.69,0,0,0,2-.64,1.08,1.08,0,0,0,.26-.87c-.11-1-1.44-1.15-2.23-1.15H72Zm1.23-4.12H71.82a.21.21,0,0,1-.21-.21V79.42a.21.21,0,0,1,.21-.21h1.41c1,0,2.12.45,2.22,1.42a1.44,1.44,0,0,1-.37,1.14A2.57,2.57,0,0,1,73.25,82.47ZM72,82.05h1.22a2.18,2.18,0,0,0,1.53-.56,1,1,0,0,0,.26-.81c-.07-.76-1.12-1-1.8-1H72Z"/><g class="cls-10"><circle class="cls-4" cx="314.76" cy="353.14" r="19.84" transform="translate(-157.9 372.59) rotate(-50.65)"/></g><circle class="cls-18" cx="314.76" cy="359.54" r="24.22"/><circle class="cls-12" cx="314.55" cy="353.09" r="15.29"/><path class="cls-13" d="M314.57,366.51a13.42,13.42,0,1,1,11.16-20.83.42.42,0,1,1-.7.46,12.58,12.58,0,1,0,2.07,6.11.42.42,0,1,1,.83-.06,13.41,13.41,0,0,1-13.37,14.31Z"/><path class="cls-7" d="M311.25,365.81h-.09A13.37,13.37,0,0,1,301,355a.42.42,0,0,1,.82-.14,12.54,12.54,0,0,0,9.57,10.1.42.42,0,0,1-.09.82Z"/><path class="cls-9" d="M320.07,354.53a2.67,2.67,0,0,0-2.12-2,1.94,1.94,0,0,0,1.41-1.89c.08-2-2.12-2.57-3-2.57h-.43v-2.56h-1.15V348h-1.26v-2.56h-1.15V348h-3.17v1.32h1.79l0,7.36h-1.39l-.55,1.65s1.4.12,3.32.17v2.29h1.15v-2.27h1.26v2.28h1.15V358.5a6.17,6.17,0,0,0,2.56-.6A3,3,0,0,0,320.07,354.53Zm-6.7-5.18h1.41c.73,0,1.92.3,2,1.23.11,1.15-1.1,1.61-2,1.6h-1.42Zm1.7,7.39h-1.72v-3.07h1.71c1.17,0,2.33.32,2.43,1.34C317.63,356.24,316.33,356.74,315.06,356.74Z"/><path class="cls-9" d="M315.85,361H314.7a.21.21,0,0,1-.21-.21v-2.06h-.84v2.06a.21.21,0,0,1-.21.21h-1.15a.21.21,0,0,1-.21-.21v-2.09c-1.8-.06-3.11-.17-3.13-.17a.21.21,0,0,1-.18-.27l.55-1.65a.2.2,0,0,1,.2-.14h1.18l0-6.94h-1.59a.21.21,0,0,1-.21-.21V348a.21.21,0,0,1,.21-.21h3v-2.35a.21.21,0,0,1,.06-.15.2.2,0,0,1,.15-.06h1.15a.21.21,0,0,1,.21.21v2.35h.84v-2.35a.21.21,0,0,1,.21-.21h1.15a.21.21,0,0,1,.21.21v2.35h.22a4,4,0,0,1,2.61,1.05,2.29,2.29,0,0,1,.64,1.74,2.16,2.16,0,0,1-1,1.85,2.69,2.69,0,0,1,1.74,2,3.28,3.28,0,0,1-1.78,3.59,6.18,6.18,0,0,1-2.44.61v2.12a.21.21,0,0,1-.21.21Zm-.94-.42h.73V358.5a.21.21,0,0,1,.2-.21,6,6,0,0,0,2.48-.59,2.82,2.82,0,0,0,1.54-3.14h0a2.47,2.47,0,0,0-1.95-1.86.21.21,0,0,1,0-.41,1.72,1.72,0,0,0,1.25-1.7,1.88,1.88,0,0,0-.53-1.43,3.53,3.53,0,0,0-2.31-.92h-.43a.21.21,0,0,1-.21-.21v-2.35H315V348a.21.21,0,0,1-.21.21h-1.26a.21.21,0,0,1-.21-.21v-2.35h-.73V348a.21.21,0,0,1-.06.15.19.19,0,0,1-.15.06h-3v.9H311a.21.21,0,0,1,.21.21l0,7.36a.21.21,0,0,1-.21.21h-1.24l-.42,1.25c.49,0,1.63.11,3,.15a.21.21,0,0,1,.2.21v2.08h.73v-2.06a.21.21,0,0,1,.21-.21h1.26a.22.22,0,0,1,.15.06.21.21,0,0,1,.06.15Zm.17-3.66h-1.73a.21.21,0,0,1-.21-.21v-3.08a.21.21,0,0,1,.06-.15.15.15,0,0,1,.15-.06h1.71c1.58,0,2.54.56,2.64,1.52a1.48,1.48,0,0,1-.37,1.2A3,3,0,0,1,315.08,356.95Zm-1.52-.42h1.52a2.68,2.68,0,0,0,1.95-.64,1.08,1.08,0,0,0,.26-.87c-.11-1-1.44-1.15-2.23-1.15h-1.5Zm1.23-4.12h-1.43a.21.21,0,0,1-.21-.21v-2.84a.21.21,0,0,1,.21-.21h1.41c1,0,2.12.45,2.22,1.42a1.44,1.44,0,0,1-.37,1.14A2.57,2.57,0,0,1,314.78,352.4Zm-1.22-.42h1.22a2.19,2.19,0,0,0,1.53-.56,1,1,0,0,0,.26-.81c-.07-.76-1.12-1-1.8-1h-1.2Z"/><g class="cls-10"><circle class="cls-4" cx="72.98" cy="381.86" r="19.84" transform="translate(-268.56 196.14) rotate(-50.65)"/></g><circle class="cls-19" cx="72.98" cy="388.47" r="25.06"/><circle class="cls-12" cx="72.77" cy="381.8" r="15.81"/><path class="cls-13" d="M72.8,395.68a14,14,0,0,1-2.78-.28,13.87,13.87,0,1,1,14.31-21.25.42.42,0,1,1-.7.46,13,13,0,1,0,2.14,6.33.42.42,0,1,1,.83-.06,13.91,13.91,0,0,1-6.18,12.48A13.77,13.77,0,0,1,72.8,395.68Z"/><path class="cls-7" d="M69.74,395.33h-.09A13.82,13.82,0,0,1,59.1,384.19a.42.42,0,1,1,.82-.14,13,13,0,0,0,9.91,10.46.42.42,0,0,1-.09.82Z"/><path class="cls-9" d="M78.35,383.25a2.67,2.67,0,0,0-2.12-2,1.94,1.94,0,0,0,1.41-1.89c.08-2-2.12-2.57-3-2.57h-.43v-2.56H73v2.56H71.76v-2.56H70.62v2.56H67.44v1.32h1.79l0,7.36H67.82l-.55,1.65s1.4.12,3.32.17v2.29h1.15v-2.27H73v2.28h1.15v-2.32a6.17,6.17,0,0,0,2.56-.6A3,3,0,0,0,78.35,383.25Zm-6.7-5.18h1.41c.73,0,1.92.3,2,1.23.11,1.15-1.1,1.61-2,1.6H71.64Zm1.7,7.39H71.62v-3.07h1.71c1.17,0,2.33.32,2.43,1.34C75.91,385,74.61,385.46,73.34,385.45Z"/><path class="cls-9" d="M74.13,389.74H73a.21.21,0,0,1-.21-.21v-2.06h-.84v2.06a.21.21,0,0,1-.21.21H70.58a.21.21,0,0,1-.21-.21v-2.09c-1.8-.06-3.11-.17-3.13-.17a.21.21,0,0,1-.18-.27l.55-1.65a.23.23,0,0,1,.2-.14H69l0-6.94H67.44a.21.21,0,0,1-.21-.21v-1.32a.21.21,0,0,1,.06-.15.22.22,0,0,1,.15-.06h3v-2.35a.21.21,0,0,1,.21-.21h1.15a.21.21,0,0,1,.21.21v2.35h.84v-2.35A.21.21,0,0,1,73,374h1.15a.21.21,0,0,1,.21.21v2.35h.22a4,4,0,0,1,2.61,1.05,2.29,2.29,0,0,1,.64,1.74,2.16,2.16,0,0,1-1,1.85,2.69,2.69,0,0,1,1.74,2h0a3.28,3.28,0,0,1-1.78,3.59,6.18,6.18,0,0,1-2.44.61v2.12a.21.21,0,0,1-.21.21Zm-.94-.42h.73v-2.11a.21.21,0,0,1,.2-.21,6,6,0,0,0,2.48-.59,2.82,2.82,0,0,0,1.54-3.14h0a2.44,2.44,0,0,0-1.95-1.86.21.21,0,0,1,0-.41,1.72,1.72,0,0,0,1.25-1.7,1.88,1.88,0,0,0-.53-1.43A3.53,3.53,0,0,0,74.6,377h-.43a.21.21,0,0,1-.21-.21V374.4h-.73v2.35a.21.21,0,0,1-.06.15A.26.26,0,0,1,73,377H71.76a.21.21,0,0,1-.21-.21v-2.35h-.73v2.35a.21.21,0,0,1-.21.21h-3v.9h1.58a.21.21,0,0,1,.21.21l0,7.36a.2.2,0,0,1-.21.21H68l-.42,1.25c.49,0,1.63.11,3,.15a.21.21,0,0,1,.2.21v2.08h.73v-2.06a.21.21,0,0,1,.21-.21H73a.24.24,0,0,1,.15.06.21.21,0,0,1,.06.15Zm.17-3.66H71.62a.21.21,0,0,1-.21-.21v-3.07a.23.23,0,0,1,.21-.21h1.71c1.58,0,2.54.56,2.64,1.52a1.48,1.48,0,0,1-.37,1.2A3,3,0,0,1,73.36,385.66Zm-1.52-.42h1.51a2.65,2.65,0,0,0,2-.64,1.08,1.08,0,0,0,.26-.87c-.11-1-1.44-1.15-2.23-1.15h-1.5Zm1.23-4.12H71.64a.21.21,0,0,1-.21-.21v-2.84a.21.21,0,0,1,.21-.21h1.41c1,0,2.12.45,2.22,1.42a1.44,1.44,0,0,1-.37,1.14A2.57,2.57,0,0,1,73.06,381.11Zm-1.22-.42h1.21a2.21,2.21,0,0,0,1.54-.56,1,1,0,0,0,.26-.81c-.07-.76-1.12-1-1.8-1h-1.2Z"/></g></g></g></svg>