<svg xmlns="http://www.w3.org/2000/svg" xmlns:xlink="http://www.w3.org/1999/xlink" viewBox="0 0 202.55 618.22"><defs><style>.cls-1{isolation:isolate;}.cls-2,.cls-5{opacity:0.6;mix-blend-mode:multiply;}.cls-2{fill:url(#radial-gradient);}.cls-3{fill:#ffcb58;}.cls-4{fill:#fff;}.cls-5{fill:#ffba83;}.cls-6{fill:#967cdf;}.cls-7{fill:#3372f7;}</style><radialGradient id="radial-gradient" cx="101.28" cy="586.2" r="72.81" gradientTransform="translate(0 478.38) scale(1 0.21)" gradientUnits="userSpaceOnUse"><stop offset="0" stop-color="#404299"/><stop offset="0.01" stop-color="#404299" stop-opacity="0.99"/><stop offset="0.36" stop-color="#404299" stop-opacity="0.57"/><stop offset="0.65" stop-color="#404299" stop-opacity="0.26"/><stop offset="0.87" stop-color="#404299" stop-opacity="0.07"/><stop offset="1" stop-color="#404299" stop-opacity="0"/></radialGradient></defs><title>11Asset 9bitcoin-img9</title><g class="cls-1"><g id="Layer_2" data-name="Layer 2"><g id="Layer_1-2" data-name="Layer 1"><ellipse class="cls-2" cx="101.28" cy="599.06" rx="101.28" ry="19.15"/><path class="cls-3" d="M101.28,555.71a.92.92,0,0,1-.92-.92V470.64a21.8,21.8,0,0,1,6.43-15.51l27.52-27.52a12.75,12.75,0,0,0,3.76-9.08V373.16a.92.92,0,1,1,1.84,0v45.37a14.58,14.58,0,0,1-4.3,10.38l-27.52,27.52a20,20,0,0,0-5.89,14.21v84.15A.92.92,0,0,1,101.28,555.71Z"/><path class="cls-3" d="M101.28,473.37a.92.92,0,0,1-.92-.92V264a.92.92,0,0,1,1.84,0V472.45A.92.92,0,0,1,101.28,473.37Z"/><path class="cls-3" d="M95,502.67a.92.92,0,0,1-.92-.92V392.48a17.77,17.77,0,0,0-5.24-12.65L71.29,362.3a.92.92,0,1,1,1.3-1.3l17.52,17.52a19.6,19.6,0,0,1,5.78,13.95V501.74A.92.92,0,0,1,95,502.67Z"/><path class="cls-3" d="M101.28,351.87a.92.92,0,0,1-.92-.92V325A21.62,21.62,0,0,0,94,309.59L82.82,298.43a23.44,23.44,0,0,1-6.91-16.69V172a.92.92,0,1,1,1.84,0V281.74a21.61,21.61,0,0,0,6.37,15.38l11.17,11.17A23.45,23.45,0,0,1,102.2,325v26A.92.92,0,0,1,101.28,351.87Z"/><circle class="cls-3" cx="76.83" cy="172.01" r="6.63"/><circle class="cls-3" cx="70.2" cy="361.91" r="6.63"/><circle class="cls-3" cx="135.42" cy="125.19" r="6.63"/><circle class="cls-3" cx="138.99" cy="372.9" r="6.63"/><circle class="cls-3" cx="101.28" cy="262.59" r="6.63" transform="translate(-179.05 287.73) rotate(-74.03)"/><path class="cls-3" d="M101.28,250.27a.92.92,0,0,1-.92-.92V72a.92.92,0,0,1,1.84,0V249.35A.92.92,0,0,1,101.28,250.27Z"/><circle class="cls-3" cx="101.28" cy="70.58" r="6.63" transform="translate(5.56 148.54) rotate(-74.03)"/><path class="cls-3" d="M113.22,166.29a.92.92,0,0,1-.92-.92V8a.92.92,0,0,1,1.84,0V165.37A.92.92,0,0,1,113.22,166.29Z"/><circle class="cls-3" cx="113.22" cy="6.63" r="6.63" transform="translate(75.69 113.66) rotate(-74.03)"/><path class="cls-3" d="M113.22,204.54a.92.92,0,0,1-.92-.92v-47a24.32,24.32,0,0,1,7.17-17.31l13.82-13.82a.92.92,0,0,1,1.3,1.3l-13.82,13.82a22.49,22.49,0,0,0-6.63,16v47A.92.92,0,0,1,113.22,204.54Z"/><circle class="cls-3" cx="98.56" cy="545" r="51.84"/><path class="cls-3" d="M98.56,597.76A52.76,52.76,0,1,1,151.31,545,52.82,52.82,0,0,1,98.56,597.76Zm0-103.68A50.92,50.92,0,1,0,149.47,545,51,51,0,0,0,98.56,494.08Z"/><path class="cls-4" d="M141.66,526.89a.61.61,0,0,1-.56-.37A46.42,46.42,0,0,0,81.21,502a.61.61,0,1,1-.46-1.14A47.65,47.65,0,0,1,142.23,526a.61.61,0,0,1-.56.86Z"/><path class="cls-4" d="M124.57,551.86c-1.29-7.5-9.31-8.91-9.31-8.91a8.52,8.52,0,0,0,6.2-8.33c.35-8.7-9.31-11.3-13.39-11.31h-1.91l0-11.27-5,0,0,11.27-5.55,0,0-11.27-5,0,0,11.27-14,0,0,5.8,7.89,0-.1,32.37-6.12,0-2.44,7.24s6.14.52,14.61.76l0,10.08,5,0,0-10H101l0,10,5,0,0-10.19a27.16,27.16,0,0,0,11.26-2.66C122.6,564.26,125.68,558.31,124.57,551.86Zm-29.5-22.8,6.2,0c3.22,0,8.45,1.31,8.84,5.42.48,5.05-4.85,7.07-8.84,7.06l-6.24,0Zm7.46,32.5-7.56,0L95,548l7.51,0c5.13,0,10.24,1.43,10.71,5.88C113.82,559.39,108.1,561.58,102.53,561.56Z"/><path class="cls-4" d="M106,580.12h0l-5,0a.61.61,0,0,1-.61-.62l0-9.39H96l0,9.38a.61.61,0,0,1-.62.61l-5,0a.61.61,0,0,1-.61-.62l0-9.48c-8.08-.24-14-.74-14-.74a.61.61,0,0,1-.53-.81l2.44-7.24a.61.61,0,0,1,.58-.42h0l5.51,0,.1-31.14-7.28,0a.61.61,0,0,1-.61-.62l0-5.8a.61.61,0,0,1,.61-.61h0l13.35,0L90,512a.6.6,0,0,1,.62-.61h5a.61.61,0,0,1,.61.62l0,10.66h4.32l0-10.66a.61.61,0,0,1,.61-.61h5a.61.61,0,0,1,.61.62l0,10.66h1.29c2.4,0,7.84,1,11.25,4.53a9.77,9.77,0,0,1,2.74,7.42,9.15,9.15,0,0,1-4.92,8.21c2.56.93,7.07,3.33,8,8.9h0c1.13,6.56-2,12.92-7.65,15.46a27.12,27.12,0,0,1-10.9,2.68l0,9.61a.61.61,0,0,1-.61.61Zm-4.43-1.24h3.81l0-9.57a.61.61,0,0,1,.58-.61,26.56,26.56,0,0,0,11-2.61c5.2-2.34,8-8,6.94-14.13h0c-1.2-7-8.74-8.4-8.82-8.41a.61.61,0,0,1,0-1.2c.22-.05,5.46-1.33,5.72-7.75a8.59,8.59,0,0,0-2.4-6.52c-2.9-3-7.79-4.15-10.37-4.15h-1.91a.61.61,0,0,1-.61-.62l0-10.66h-3.81l0,10.66a.61.61,0,0,1-.61.61h0l-5.55,0a.61.61,0,0,1-.61-.62l0-10.66H91.18l0,10.66a.61.61,0,0,1-.61.61h0l-13.35,0v4.57l7.28,0a.61.61,0,0,1,.61.62L85,561.4a.61.61,0,0,1-.61.61h0l-5.68,0-2,6.07c1.91.15,7.16.51,13.79.69a.61.61,0,0,1,.6.62l0,9.46h3.81l0-9.38A.61.61,0,0,1,95,569a.55.55,0,0,1,.44-.18H101a.6.6,0,0,1,.44.18.61.61,0,0,1,.18.44Zm1-16.7h-.07l-7.56,0a.61.61,0,0,1-.61-.62l0-13.53a.61.61,0,0,1,.61-.61h0l7.51,0c6.86,0,10.88,2.3,11.32,6.43a6.21,6.21,0,0,1-1.54,5C110.41,561,106.88,562.18,102.6,562.18Zm-7-1.25,6.95,0h.07c3.87,0,7.15-1.08,8.79-2.9a5,5,0,0,0,1.24-4.07c-.49-4.61-6.54-5.32-10.1-5.33l-6.9,0Zm5.72-18.75h0l-6.24,0a.61.61,0,0,1-.61-.62l0-12.48a.61.61,0,0,1,.61-.61h0l6.2,0c3.07,0,9,1.27,9.45,6a6,6,0,0,1-1.54,4.76C107.19,541.4,103.82,542.18,101.31,542.18Zm-5.66-1.25,5.63,0h0c2.14,0,5.24-.67,7-2.57a4.77,4.77,0,0,0,1.22-3.82c-.36-3.83-5.54-4.86-8.23-4.87l-5.59,0Z"/><path class="cls-5" d="M98.63,592.61q-1.82,0-3.65-.14A47.62,47.62,0,0,1,80.46,501a.61.61,0,0,1,.47,1.14,46.38,46.38,0,1,0,60.18,24.43.61.61,0,0,1,1.13-.49,47.62,47.62,0,0,1-43.6,66.58Z"/><path class="cls-5" d="M98.45,592.61a47.76,47.76,0,0,1-10-1.07l-3.79-1a47.65,47.65,0,0,1-19.44-11.47.61.61,0,0,1,.86-.88A46.39,46.39,0,0,0,85,589.38l3.74,1a46.19,46.19,0,0,0,18.73.16.61.61,0,0,1,.24,1.21A47.54,47.54,0,0,1,98.45,592.61Z"/><circle class="cls-3" cx="113.28" cy="230.35" r="1.86"/><path class="cls-3" d="M123.57,52a4.61,4.61,0,1,1,4.61-4.61A4.61,4.61,0,0,1,123.57,52Zm0-7.38a2.77,2.77,0,1,0,2.77,2.77A2.77,2.77,0,0,0,123.57,44.61Z"/><path class="cls-3" d="M115.14,396.29a.92.92,0,0,1-.92-.92v-29.8a.92.92,0,0,1,1.84,0v29.8A.92.92,0,0,1,115.14,396.29Z"/><path class="cls-6" d="M68.36,261.07a.92.92,0,0,1-.92-.92v-29.8a.92.92,0,1,1,1.84,0v29.8A.92.92,0,0,1,68.36,261.07Z"/><path class="cls-7" d="M110.15,427.76a.92.92,0,0,1-.92-.92V388a.92.92,0,0,1,1.84,0v38.81A.92.92,0,0,1,110.15,427.76Z"/></g></g></g></svg>