<svg xmlns="http://www.w3.org/2000/svg" viewBox="0 0 334.8 377.43"><defs><style>.cls-1{isolation:isolate;}.cls-2{fill:#f2f3f7;}.cls-14,.cls-3{fill:#44485d;}.cls-3{mix-blend-mode:overlay;}.cls-4{fill:#ffcb58;}.cls-5{fill:#fff;}.cls-6,.cls-7{fill:#ffba83;}.cls-6{opacity:0.6;mix-blend-mode:multiply;}.cls-8{fill:#404299;}.cls-9{fill:#e59e74;}.cls-10{fill:#3372f7;}.cls-11{fill:#967cdf;}.cls-12{fill:#ffc881;}.cls-13{fill:#ffb76b;}.cls-15{fill:#c1d8fb;}.cls-16{fill:#ffb07b;}.cls-17{fill:#ff9c6b;}.cls-18{fill:#5e6274;}</style></defs><title>11Asset 8bitcoin-img8</title><g class="cls-1"><g id="Layer_2" data-name="Layer 2"><g id="Layer_1-2" data-name="Layer 1"><circle class="cls-2" cx="167.4" cy="167.4" r="167.4"/><path class="cls-3" d="M197.1,172.1H197a.54.54,0,0,1,0-1.07h.11a.54.54,0,0,1,0,1.07Zm-3.75,0h-.11a.54.54,0,0,1,0-1.07h.11a.54.54,0,1,1,0,1.07Zm-3.75,0h-.11a.54.54,0,0,1,0-1.07h.11a.54.54,0,0,1,0,1.07Zm-3.75,0h-.11a.54.54,0,0,1,0-1.07h.11a.54.54,0,0,1,0,1.07Zm-3.75,0H182a.54.54,0,0,1,0-1.07h.11a.54.54,0,0,1,0,1.07Zm-3.75,0h-.11a.54.54,0,0,1,0-1.07h.11a.54.54,0,0,1,0,1.07Zm-3.75,0h-.11a.54.54,0,0,1,0-1.07h.11a.54.54,0,1,1,0,1.07Z"/><path class="cls-3" d="M170.61,172.1h-.11a.54.54,0,0,1,0-1.07h.11a.54.54,0,0,1,0,1.07Zm-3.75,0h-.11a.54.54,0,0,1,0-1.07h.11a.54.54,0,0,1,0,1.07Zm-3.75,0H163a.54.54,0,0,1,0-1.07h.11a.54.54,0,0,1,0,1.07Zm-3.75,0h-.11a.54.54,0,0,1,0-1.07h.11a.54.54,0,0,1,0,1.07Zm-3.75,0h-.11a.54.54,0,0,1,0-1.07h.11a.54.54,0,1,1,0,1.07Zm-3.75,0h-.11a.54.54,0,0,1,0-1.07h.11a.54.54,0,0,1,0,1.07Zm-3.75,0H148a.54.54,0,0,1,0-1.07h.11a.54.54,0,0,1,0,1.07Z"/><path class="cls-3" d="M144.25,172.1h-.11a.54.54,0,0,1,0-1.07h.11a.54.54,0,0,1,0,1.07Zm-3.75,0h-.11a.54.54,0,0,1,0-1.07h.11a.54.54,0,0,1,0,1.07Zm-3.75,0h-.11a.54.54,0,0,1,0-1.07h.11a.54.54,0,0,1,0,1.07Zm-3.75,0h-.11a.54.54,0,0,1,0-1.07H133a.54.54,0,0,1,0,1.07Zm-3.75,0h-.11a.54.54,0,0,1,0-1.07h.11a.54.54,0,0,1,0,1.07Zm-3.75,0h-.11a.54.54,0,0,1,0-1.07h.11a.54.54,0,0,1,0,1.07Zm-3.75,0h-.11a.54.54,0,0,1,0-1.07h.11a.54.54,0,0,1,0,1.07Z"/><circle class="cls-4" cx="147.88" cy="149.63" r="4.37"/><path class="cls-4" d="M147.88,154.33a4.69,4.69,0,1,1,4.69-4.69A4.7,4.7,0,0,1,147.88,154.33Zm0-8.75a4.05,4.05,0,1,0,4.05,4.05A4.06,4.06,0,0,0,147.88,145.58Z"/><path class="cls-5" d="M151.52,148.16a.11.11,0,0,1-.1-.06,3.86,3.86,0,0,0-5-2,.11.11,0,0,1-.08-.2,4.07,4.07,0,0,1,5.26,2.15.11.11,0,0,1-.06.14Z"/><path class="cls-5" d="M150.08,150.21a1,1,0,0,0-.79-.75.72.72,0,0,0,.52-.7c0-.73-.79-1-1.13-1h-.16v-1h-.43v1h-.47v-1h-.43v1H146v.49h.67V151h-.52l-.21.61s.52,0,1.23.06v.85h.43v-.84h.47v.84h.43v-.86a2.29,2.29,0,0,0,.95-.22A1.13,1.13,0,0,0,150.08,150.21Zm-2.49-1.92h.52c.27,0,.71.11.75.46s-.41.6-.75.6h-.53Zm.63,2.74h-.64v-1.14h.63c.43,0,.86.12.9.5S148.69,151,148.22,151Z"/><path class="cls-5" d="M148.51,152.65h-.43a.11.11,0,0,1-.11-.11v-.74h-.25v.74a.11.11,0,0,1-.11.11h-.43a.11.11,0,0,1-.11-.11v-.75c-.66,0-1.13-.06-1.13-.06a.11.11,0,0,1-.09-.14l.21-.61a.11.11,0,0,1,.1-.07h.41v-2.52H146a.11.11,0,0,1-.11-.11v-.49a.11.11,0,0,1,.11-.11h1.07v-.84a.11.11,0,0,1,.11-.11h.43a.11.11,0,0,1,.11.11v.84H148v-.84a.11.11,0,0,1,.11-.11h.43a.11.11,0,0,1,.11.11v.84h.05a1.5,1.5,0,0,1,1,.4.88.88,0,0,1,.25.67.85.85,0,0,1-.35.68,1,1,0,0,1,.61.75h0a1.25,1.25,0,0,1-.68,1.36,2.33,2.33,0,0,1-.89.23v.76A.11.11,0,0,1,148.51,152.65Zm-.32-.22h.21v-.75a.11.11,0,0,1,.1-.11,2.19,2.19,0,0,0,.91-.22,1,1,0,0,0,.55-1.13.88.88,0,0,0-.7-.66.11.11,0,0,1,0-.21.61.61,0,0,0,.44-.6.67.67,0,0,0-.19-.51,1.28,1.28,0,0,0-.84-.33h-.16a.11.11,0,0,1-.11-.11V147h-.21v.84a.11.11,0,0,1-.11.11h-.47a.11.11,0,0,1-.11-.11V147h-.21v.84a.11.11,0,0,1-.11.11h-1.07v.27h.56a.11.11,0,0,1,.11.11V151a.11.11,0,0,1-.11.11h-.44l-.14.41c.2,0,.6,0,1.09.05a.11.11,0,0,1,.1.11v.74h.21v-.74a.11.11,0,0,1,0-.08.12.12,0,0,1,.08,0h.47a.11.11,0,0,1,.08,0,.11.11,0,0,1,0,.08Zm0-1.3h-.64a.11.11,0,0,1-.11-.11v-1.14a.11.11,0,0,1,0-.08.13.13,0,0,1,.08,0h.63c.6,0,1,.22,1,.59a.58.58,0,0,1-.14.47A1.16,1.16,0,0,1,148.23,151.14Zm0-.21h0a1,1,0,0,0,.7-.23.37.37,0,0,0,.09-.3c0-.35-.52-.4-.8-.4h-.53v.93Zm-.1-1.47h-.53a.11.11,0,0,1-.11-.11v-1.05a.11.11,0,0,1,.11-.11h.52c.39,0,.82.18.85.55a.56.56,0,0,1-.14.44A1,1,0,0,1,148.12,149.45Zm-.42-.22h.42a.78.78,0,0,0,.55-.2.34.34,0,0,0,.09-.28c0-.26-.4-.36-.64-.36h-.42Z"/><path class="cls-6" d="M147.89,153.7a4.07,4.07,0,0,1-1.55-7.84.11.11,0,0,1,.08.2,3.86,3.86,0,1,0,5,2,.11.11,0,0,1,.2-.09,4.07,4.07,0,0,1-3.73,5.69Z"/><path class="cls-6" d="M147.88,153.71a4.08,4.08,0,0,1-.86-.09l-.32-.08a4.08,4.08,0,0,1-1.66-1,.11.11,0,1,1,.15-.15,3.86,3.86,0,0,0,1.57.93l.31.08a3.84,3.84,0,0,0,1.56,0,.11.11,0,1,1,0,.21A4.07,4.07,0,0,1,147.88,153.71Z"/><circle class="cls-4" cx="162.19" cy="134.99" r="4.37"/><path class="cls-4" d="M162.19,139.69a4.69,4.69,0,1,1,4.69-4.69A4.7,4.7,0,0,1,162.19,139.69Zm0-8.75a4.05,4.05,0,1,0,4.05,4.05A4.06,4.06,0,0,0,162.19,130.94Z"/><path class="cls-5" d="M165.83,133.52a.11.11,0,0,1-.1-.06,3.86,3.86,0,0,0-5-2,.11.11,0,0,1-.08-.2,4.07,4.07,0,0,1,5.26,2.15.11.11,0,0,1-.06.14Z"/><path class="cls-5" d="M164.39,135.57a1,1,0,0,0-.79-.75.72.72,0,0,0,.52-.7c0-.73-.79-1-1.13-1h-.16v-1h-.43v1h-.47v-1h-.43v1h-1.18v.49H161v2.73h-.52l-.21.61s.52,0,1.23.06v.85h.43v-.84h.47v.84h.43V137a2.29,2.29,0,0,0,.95-.22A1.13,1.13,0,0,0,164.39,135.57Zm-2.49-1.92h.52c.27,0,.71.11.75.46s-.41.6-.75.6h-.53Zm.63,2.74h-.64v-1.14h.63c.43,0,.86.12.9.5S163,136.39,162.53,136.39Z"/><path class="cls-5" d="M162.82,138h-.43a.11.11,0,0,1-.11-.11v-.74H162v.74a.11.11,0,0,1-.11.11h-.43a.11.11,0,0,1-.11-.11v-.75c-.66,0-1.13-.06-1.13-.06a.11.11,0,0,1-.09-.14l.21-.61a.11.11,0,0,1,.1-.07h.41v-2.52h-.56a.11.11,0,0,1-.11-.11v-.49a.11.11,0,0,1,.11-.11h1.07v-.84a.11.11,0,0,1,.11-.11h.43a.11.11,0,0,1,.11.11v.84h.25v-.84a.11.11,0,0,1,.11-.11h.43a.11.11,0,0,1,.11.11v.84H163a1.5,1.5,0,0,1,1,.4.88.88,0,0,1,.25.67.85.85,0,0,1-.35.68,1,1,0,0,1,.61.75h0a1.25,1.25,0,0,1-.68,1.36,2.33,2.33,0,0,1-.89.23v.76A.11.11,0,0,1,162.82,138Zm-.32-.22h.21V137a.11.11,0,0,1,.1-.11,2.19,2.19,0,0,0,.91-.22,1,1,0,0,0,.55-1.13.88.88,0,0,0-.7-.66.11.11,0,0,1,0-.21.61.61,0,0,0,.44-.6.67.67,0,0,0-.19-.51,1.28,1.28,0,0,0-.84-.33h-.16a.11.11,0,0,1-.11-.11v-.84h-.21v.84a.11.11,0,0,1-.11.11h-.47a.11.11,0,0,1-.11-.11v-.84h-.21v.84a.11.11,0,0,1-.11.11h-1.07v.27H161a.11.11,0,0,1,.11.11v2.73a.11.11,0,0,1-.11.11h-.44l-.14.41c.2,0,.6,0,1.09.05a.11.11,0,0,1,.1.11v.74h.21v-.74a.11.11,0,0,1,0-.08.12.12,0,0,1,.08,0h.47a.11.11,0,0,1,.08,0,.11.11,0,0,1,0,.08Zm0-1.3h-.64a.11.11,0,0,1-.11-.11v-1.14a.11.11,0,0,1,0-.08.13.13,0,0,1,.08,0h.63c.6,0,1,.22,1,.59a.58.58,0,0,1-.14.47A1.16,1.16,0,0,1,162.54,136.5Zm0-.21h0a1,1,0,0,0,.7-.23.37.37,0,0,0,.09-.3c0-.35-.52-.4-.8-.4H162v.93Zm-.1-1.47h-.53a.11.11,0,0,1-.11-.11v-1.05a.11.11,0,0,1,.11-.11h.52c.39,0,.82.18.85.55a.56.56,0,0,1-.14.44A1,1,0,0,1,162.43,134.81Zm-.42-.22h.42a.78.78,0,0,0,.55-.2.34.34,0,0,0,.09-.28c0-.26-.4-.36-.64-.36H162Z"/><path class="cls-6" d="M162.2,139.06a4.07,4.07,0,0,1-1.55-7.84.11.11,0,1,1,.08.2,3.86,3.86,0,1,0,5,2,.11.11,0,1,1,.2-.09,4.07,4.07,0,0,1-3.73,5.69Z"/><path class="cls-6" d="M162.19,139.07a4.08,4.08,0,0,1-.86-.09l-.32-.08a4.08,4.08,0,0,1-1.66-1,.11.11,0,1,1,.15-.15,3.86,3.86,0,0,0,1.57.93l.31.08a3.84,3.84,0,0,0,1.56,0,.11.11,0,1,1,0,.21A4.07,4.07,0,0,1,162.19,139.07Z"/><circle class="cls-4" cx="134.14" cy="131.41" r="4.37"/><path class="cls-4" d="M134.14,136.1a4.69,4.69,0,1,1,4.69-4.69A4.7,4.7,0,0,1,134.14,136.1Zm0-8.75a4.05,4.05,0,1,0,4.05,4.05A4.06,4.06,0,0,0,134.14,127.36Z"/><path class="cls-5" d="M136.33,132a1,1,0,0,0-.79-.75.72.72,0,0,0,.52-.7c0-.73-.79-1-1.13-1h-.16v-1h-.43v1h-.47v-1h-.43v1h-1.18v.49h.67v2.73h-.52l-.21.61s.52,0,1.23.06v.85h.43v-.84h.47v.84h.43v-.86a2.29,2.29,0,0,0,.95-.22A1.13,1.13,0,0,0,136.33,132Zm-2.49-1.92h.52c.27,0,.71.11.75.46s-.41.6-.75.6h-.53Zm.63,2.74h-.64v-1.14h.63c.43,0,.86.12.9.5S134.94,132.81,134.47,132.81Z"/><path class="cls-5" d="M134.76,134.43h-.43a.11.11,0,0,1-.11-.11v-.74H134v.74a.11.11,0,0,1-.11.11h-.43a.11.11,0,0,1-.11-.11v-.75c-.66,0-1.13-.06-1.13-.06a.11.11,0,0,1-.09-.14l.21-.61a.11.11,0,0,1,.1-.07h.41v-2.52h-.56a.11.11,0,0,1-.11-.11v-.49a.11.11,0,0,1,.11-.11h1.07v-.84a.11.11,0,0,1,.11-.11h.43a.11.11,0,0,1,.11.11v.84h.25v-.84a.11.11,0,0,1,.11-.11h.43a.11.11,0,0,1,.11.11v.84h.05a1.5,1.5,0,0,1,1,.4.88.88,0,0,1,.25.67.85.85,0,0,1-.35.68,1,1,0,0,1,.61.75h0a1.25,1.25,0,0,1-.68,1.36,2.33,2.33,0,0,1-.89.23v.76A.11.11,0,0,1,134.76,134.43Zm-.32-.22h.21v-.75a.11.11,0,0,1,.1-.11,2.19,2.19,0,0,0,.91-.22,1,1,0,0,0,.55-1.13.88.88,0,0,0-.7-.66.11.11,0,0,1,0-.21.61.61,0,0,0,.44-.6.67.67,0,0,0-.19-.51,1.28,1.28,0,0,0-.84-.33h-.16a.11.11,0,0,1-.11-.11v-.84h-.21v.84a.11.11,0,0,1-.11.11h-.47a.11.11,0,0,1-.11-.11v-.84h-.21v.84a.11.11,0,0,1-.11.11h-1.07V130h.56a.11.11,0,0,1,.11.11v2.73a.11.11,0,0,1-.11.11h-.44l-.14.41c.2,0,.6,0,1.09.05a.11.11,0,0,1,.1.11v.74h.21v-.74a.11.11,0,0,1,0-.08.12.12,0,0,1,.08,0h.47a.11.11,0,0,1,.08,0,.11.11,0,0,1,0,.08Zm0-1.3h-.64a.11.11,0,0,1-.11-.11v-1.14a.11.11,0,0,1,0-.08.13.13,0,0,1,.08,0h.63c.6,0,1,.22,1,.59a.58.58,0,0,1-.14.47A1.16,1.16,0,0,1,134.48,132.91Zm0-.21h0a1,1,0,0,0,.7-.23.37.37,0,0,0,.09-.3c0-.35-.52-.4-.8-.4h-.53v.93Zm-.1-1.47h-.53a.11.11,0,0,1-.11-.11v-1.05a.11.11,0,0,1,.11-.11h.52c.39,0,.82.18.85.55a.56.56,0,0,1-.14.44A1,1,0,0,1,134.37,131.23Zm-.42-.22h.42a.78.78,0,0,0,.55-.2.34.34,0,0,0,.09-.28c0-.26-.4-.36-.64-.36h-.42Z"/><path class="cls-6" d="M134.14,135.48a4.07,4.07,0,0,1-1.55-7.84.11.11,0,1,1,.08.2,3.86,3.86,0,1,0,5,2,.11.11,0,0,1,.2-.09,4.07,4.07,0,0,1-3.73,5.69Z"/><path class="cls-6" d="M134.13,135.48a4.08,4.08,0,0,1-.86-.09l-.32-.08a4.08,4.08,0,0,1-1.66-1,.11.11,0,1,1,.15-.15,3.86,3.86,0,0,0,1.57.93l.31.08a3.84,3.84,0,0,0,1.56,0,.11.11,0,1,1,0,.21A4.07,4.07,0,0,1,134.13,135.48Z"/><circle class="cls-4" cx="174.55" cy="152.88" r="4.37"/><path class="cls-4" d="M174.55,157.58a4.69,4.69,0,1,1,4.69-4.69A4.7,4.7,0,0,1,174.55,157.58Zm0-8.75a4.05,4.05,0,1,0,4.05,4.05A4.06,4.06,0,0,0,174.55,148.83Z"/><path class="cls-5" d="M176.74,153.46a1,1,0,0,0-.79-.75.72.72,0,0,0,.52-.7c0-.73-.79-1-1.13-1h-.16v-1h-.43v1h-.47v-1h-.43v1h-1.18v.49h.67v2.73h-.52l-.21.61s.52,0,1.23.06v.85h.43v-.84h.47v.84h.43v-.86a2.29,2.29,0,0,0,.95-.22A1.13,1.13,0,0,0,176.74,153.46Zm-2.49-1.92h.52c.27,0,.71.11.75.46s-.41.6-.75.6h-.53Zm.63,2.74h-.64v-1.14h.63c.43,0,.86.12.9.5S175.35,154.28,174.88,154.28Z"/><path class="cls-5" d="M175.17,155.9h-.43a.11.11,0,0,1-.11-.11v-.74h-.25v.74a.11.11,0,0,1-.11.11h-.43a.11.11,0,0,1-.11-.11V155c-.66,0-1.13-.06-1.13-.06a.11.11,0,0,1-.09-.14l.21-.61a.11.11,0,0,1,.1-.07h.41v-2.52h-.56a.11.11,0,0,1-.11-.11V151a.11.11,0,0,1,.11-.11h1.07v-.84a.11.11,0,0,1,.11-.11h.43a.11.11,0,0,1,.11.11v.84h.25v-.84a.11.11,0,0,1,.11-.11h.43a.11.11,0,0,1,.11.11v.84h.05a1.5,1.5,0,0,1,1,.4.88.88,0,0,1,.25.67.85.85,0,0,1-.35.68,1,1,0,0,1,.61.75h0a1.25,1.25,0,0,1-.68,1.36,2.33,2.33,0,0,1-.89.23v.76A.11.11,0,0,1,175.17,155.9Zm-.32-.22h.21v-.75a.11.11,0,0,1,.1-.11,2.19,2.19,0,0,0,.91-.22,1,1,0,0,0,.55-1.13.88.88,0,0,0-.7-.66.11.11,0,0,1,0-.21.61.61,0,0,0,.44-.6.67.67,0,0,0-.19-.51,1.28,1.28,0,0,0-.84-.33h-.16a.11.11,0,0,1-.11-.11v-.84h-.21V151a.11.11,0,0,1-.11.11h-.47a.11.11,0,0,1-.11-.11v-.84H174V151a.11.11,0,0,1-.11.11H172.8v.27h.56a.11.11,0,0,1,.11.11v2.73a.11.11,0,0,1-.11.11h-.44l-.14.41c.2,0,.6,0,1.09.05a.11.11,0,0,1,.1.11v.74h.21v-.74a.11.11,0,0,1,0-.08.12.12,0,0,1,.08,0h.47a.11.11,0,0,1,.08,0,.11.11,0,0,1,0,.08Zm0-1.3h-.64a.11.11,0,0,1-.11-.11v-1.14a.11.11,0,0,1,0-.08.13.13,0,0,1,.08,0h.63c.6,0,1,.22,1,.59a.58.58,0,0,1-.14.47A1.16,1.16,0,0,1,174.89,154.39Zm0-.21h0a1,1,0,0,0,.7-.23.37.37,0,0,0,.09-.3c0-.35-.52-.4-.8-.4h-.53v.93Zm-.1-1.47h-.53a.11.11,0,0,1-.11-.11v-1.05a.11.11,0,0,1,.11-.11h.52c.39,0,.82.18.85.55a.56.56,0,0,1-.14.44A1,1,0,0,1,174.78,152.7Zm-.42-.22h.42a.78.78,0,0,0,.55-.2.34.34,0,0,0,.09-.28c0-.26-.4-.36-.64-.36h-.42Z"/><path class="cls-6" d="M174.55,157a4.07,4.07,0,0,1-1.55-7.84.11.11,0,0,1,.08.2,3.86,3.86,0,1,0,5,2,.11.11,0,0,1,.2-.09,4.07,4.07,0,0,1-3.73,5.69Z"/><path class="cls-6" d="M174.54,157a4.08,4.08,0,0,1-.86-.09l-.32-.08a4.08,4.08,0,0,1-1.66-1,.11.11,0,0,1,.15-.15,3.86,3.86,0,0,0,1.57.93l.31.08a3.84,3.84,0,0,0,1.56,0,.11.11,0,0,1,0,.21A4.07,4.07,0,0,1,174.54,157Z"/><circle class="cls-4" cx="198.64" cy="160.07" r="4.37"/><path class="cls-4" d="M198.64,164.76a4.69,4.69,0,1,1,4.69-4.69A4.7,4.7,0,0,1,198.64,164.76Zm0-8.75a4.05,4.05,0,1,0,4.05,4.05A4.06,4.06,0,0,0,198.64,156Z"/><path class="cls-5" d="M202.28,158.6a.11.11,0,0,1-.1-.06,3.86,3.86,0,0,0-5-2,.11.11,0,0,1-.08-.2,4.07,4.07,0,0,1,5.26,2.15.11.11,0,0,1-.06.14Z"/><path class="cls-5" d="M200.83,160.65a1,1,0,0,0-.79-.75.72.72,0,0,0,.52-.7c0-.73-.79-1-1.13-1h-.16v-1h-.43v1h-.47v-1H198v1h-1.18v.49h.67v2.73h-.52l-.21.61s.52,0,1.23.06V163h.43v-.84h.47V163h.43v-.86a2.29,2.29,0,0,0,.95-.22A1.13,1.13,0,0,0,200.83,160.65Zm-2.49-1.92h.52c.27,0,.71.11.75.46s-.41.6-.75.6h-.53Zm.63,2.74h-.64v-1.14H199c.43,0,.86.12.9.5S199.45,161.47,199,161.47Z"/><path class="cls-5" d="M199.27,163.09h-.43a.11.11,0,0,1-.11-.11v-.74h-.25V163a.11.11,0,0,1-.11.11h-.43a.11.11,0,0,1-.11-.11v-.75c-.66,0-1.13-.06-1.13-.06a.11.11,0,0,1-.09-.14l.21-.61a.11.11,0,0,1,.1-.07h.41v-2.52h-.56a.11.11,0,0,1-.11-.11v-.49a.11.11,0,0,1,0-.08.13.13,0,0,1,.08,0h1.07v-.84a.11.11,0,0,1,.11-.11h.43a.11.11,0,0,1,.11.11v.84h.25v-.84a.11.11,0,0,1,.11-.11h.43a.11.11,0,0,1,.11.11v.84h.05a1.5,1.5,0,0,1,1,.4.88.88,0,0,1,.25.67.85.85,0,0,1-.35.68,1,1,0,0,1,.61.75h0a1.25,1.25,0,0,1-.68,1.36,2.33,2.33,0,0,1-.89.23V163a.11.11,0,0,1-.11.11Zm-.32-.22h.21v-.75a.11.11,0,0,1,.1-.11,2.19,2.19,0,0,0,.91-.22,1,1,0,0,0,.55-1.13.88.88,0,0,0-.7-.66.11.11,0,0,1,0-.21.61.61,0,0,0,.44-.6.67.67,0,0,0-.19-.51,1.28,1.28,0,0,0-.84-.33h-.16a.11.11,0,0,1-.11-.11v-.84H199v.84a.11.11,0,0,1-.11.11h-.47a.11.11,0,0,1-.11-.11v-.84h-.21v.84a.11.11,0,0,1-.11.11h-1.07v.27h.56a.11.11,0,0,1,.11.11v2.73a.11.11,0,0,1-.11.11H197l-.14.41c.2,0,.6,0,1.09.05a.11.11,0,0,1,.1.11v.74h.21v-.74a.11.11,0,0,1,0-.08.13.13,0,0,1,.08,0h.47a.1.1,0,0,1,.08,0,.11.11,0,0,1,0,.08Zm0-1.3h-.64a.11.11,0,0,1-.11-.11v-1.14a.11.11,0,0,1,.11-.11H199c.6,0,1,.22,1,.59a.58.58,0,0,1-.14.47A1.16,1.16,0,0,1,199,161.57Zm-.54-.22H199a.93.93,0,0,0,.71-.23.37.37,0,0,0,.09-.3c0-.35-.52-.4-.8-.4h-.53Zm.43-1.47h-.53a.11.11,0,0,1-.11-.11v-1.05a.11.11,0,0,1,.11-.11h.52c.39,0,.82.18.85.55a.56.56,0,0,1-.14.44A1,1,0,0,1,198.87,159.89Zm-.42-.22h.42a.78.78,0,0,0,.55-.2.34.34,0,0,0,.09-.28c0-.26-.4-.36-.64-.36h-.42Z"/><path class="cls-6" d="M198.64,164.14a4.07,4.07,0,0,1-1.55-7.84.11.11,0,1,1,.08.2,3.86,3.86,0,1,0,5,2,.11.11,0,1,1,.2-.09,4.07,4.07,0,0,1-3.73,5.69Z"/><path class="cls-6" d="M198.63,164.14a4.08,4.08,0,0,1-.86-.09l-.32-.08a4.08,4.08,0,0,1-1.66-1,.11.11,0,1,1,.15-.15,3.86,3.86,0,0,0,1.57.93l.31.08a3.83,3.83,0,0,0,1.56,0,.11.11,0,0,1,0,.21A4.07,4.07,0,0,1,198.63,164.14Z"/><path class="cls-7" d="M230.3,348.81l1,12.3c0,2.82,0,5.35-2.56,6.46l-12.88,4.14a2.58,2.58,0,0,0-1.56,2.37h0a2.58,2.58,0,0,0,2.58,2.58h20c3.94,0,7.33-1.87,7-5.8-.33-4.28-.33-20.41-.33-20.41Z"/><path class="cls-8" d="M229.54,365.24s1.09-.92,3,1c2.45,2.45,6.8,2.82,8.88,1s2.25-2.39,3.14-.62,2.7,10.2-2.22,10.08H215.78a2.44,2.44,0,0,1-2.23-3.43,8.25,8.25,0,0,1,3.88-3.19C223.1,367.42,229.54,365.24,229.54,365.24Z"/><path class="cls-5" d="M244.93,375.18H213.62a.21.21,0,1,1,0-.43h31.31a.21.21,0,0,1,0,.43Z"/><path class="cls-5" d="M222.59,376.88a.21.21,0,0,1-.21-.21V375a.21.21,0,1,1,.43,0v1.7A.21.21,0,0,1,222.59,376.88Z"/><path class="cls-5" d="M242.26,376.88a.21.21,0,0,1-.21-.21V375a.21.21,0,0,1,.43,0v1.7A.21.21,0,0,1,242.26,376.88Z"/><path class="cls-5" d="M237.35,376.88a.21.21,0,0,1-.21-.21V375a.21.21,0,0,1,.43,0v1.7A.21.21,0,0,1,237.35,376.88Z"/><path class="cls-5" d="M232.43,376.88a.21.21,0,0,1-.21-.21V375a.21.21,0,0,1,.43,0v1.7A.21.21,0,0,1,232.43,376.88Z"/><path class="cls-5" d="M227.51,376.88a.21.21,0,0,1-.21-.21V375a.21.21,0,0,1,.43,0v1.7A.21.21,0,0,1,227.51,376.88Z"/><path class="cls-5" d="M217.67,376.88a.21.21,0,0,1-.21-.21V375a.21.21,0,0,1,.43,0v1.7A.21.21,0,0,1,217.67,376.88Z"/><path class="cls-4" d="M229,189.79s-4.74,14.85-6.29,20.55c-3.26,12,5.81,151.82,5.81,151.82h17.3s10-102.7,11.84-121.26,0-48.55,0-48.55Z"/><polygon class="cls-9" points="240.22 217.73 240.73 362.16 245.79 362.16 257.47 235.42 240.22 217.73"/><polyline class="cls-9" points="245.79 362.16 228.49 362.16 226.31 356.97 243.87 356.97"/><path class="cls-7" d="M255.65,348.81l1,12.3c0,2.82,0,5.35-2.56,6.46l-12.88,4.14a2.58,2.58,0,0,0-1.56,2.37h0a2.58,2.58,0,0,0,2.58,2.58h20c3.94,0,7.33-1.87,7-5.8-.33-4.28-.33-20.41-.33-20.41Z"/><path class="cls-10" d="M254.9,365.24s1.09-.92,3,1c2.45,2.45,6.8,2.82,8.88,1s2.25-2.39,3.14-.62,2.7,10.2-2.22,10.08H241.14a2.44,2.44,0,0,1-2.23-3.43,8.25,8.25,0,0,1,3.88-3.19C248.45,367.42,254.9,365.24,254.9,365.24Z"/><path class="cls-5" d="M270.28,375.18H239a.21.21,0,0,1,0-.43h31.31a.21.21,0,1,1,0,.43Z"/><path class="cls-5" d="M247.94,376.88a.21.21,0,0,1-.21-.21V375a.21.21,0,0,1,.43,0v1.7A.21.21,0,0,1,247.94,376.88Z"/><path class="cls-5" d="M267.62,376.88a.21.21,0,0,1-.21-.21V375a.21.21,0,0,1,.43,0v1.7A.21.21,0,0,1,267.62,376.88Z"/><path class="cls-5" d="M262.7,376.88a.21.21,0,0,1-.21-.21V375a.21.21,0,0,1,.43,0v1.7A.21.21,0,0,1,262.7,376.88Z"/><path class="cls-5" d="M257.78,376.88a.21.21,0,0,1-.21-.21V375a.21.21,0,0,1,.43,0v1.7A.21.21,0,0,1,257.78,376.88Z"/><path class="cls-5" d="M252.86,376.88a.21.21,0,0,1-.21-.21V375a.21.21,0,0,1,.43,0v1.7A.21.21,0,0,1,252.86,376.88Z"/><path class="cls-5" d="M243,376.88a.21.21,0,0,1-.21-.21V375a.21.21,0,0,1,.43,0v1.7A.21.21,0,0,1,243,376.88Z"/><polyline class="cls-4" points="256.15 362.16 273.44 362.16 275.63 356.97 258.07 356.97"/><path class="cls-4" d="M273.13,192.91s5.33,16.37,7,22.69c2.53,9.46-8.84,146.79-8.84,146.79H252.75s-10.86-126.71-12.1-136.9,2.17-31.81,2.17-31.81Z"/><path class="cls-9" d="M273.44,362.6H252.75a.21.21,0,0,1-.21-.19C252,356.72,239.47,222.92,240,217.25s2-17.32,2-17.44a.21.21,0,1,1,.43.05c0,.12-1.47,11.78-2,17.43s12,138.94,12.52,144.88H273.3l2-5H264a.21.21,0,1,1,0-.43h11.63a.21.21,0,0,1,.2.29l-2.18,5.42A.21.21,0,0,1,273.44,362.6Z"/><path class="cls-9" d="M280.71,219.54h0c-4.21-.85-8-4.19-10.89-9.65a38.72,38.72,0,0,1-3.17-8.05.21.21,0,0,1,.42-.1c0,.15,3.85,15.38,13.72,17.39a.21.21,0,0,1,0,.42Z"/><path id="bag" class="cls-11" d="M257.47,104.57c13.87,2,21.82,3.58,25.39,24.5s13,61.34-10.09,65.31-41.27-11.13-39.15-50.47S246.22,103,257.47,104.57Z"/><path id="forearm_R" class="cls-8" d="M223.64,117.74c-4,5.51-18.65,33-18.55,46.26.09,12,15.06,13.6,18.13,4.91,3.73-10.52,8.84-56.38,6.37-55.32C227.51,114.49,225.81,114.8,223.64,117.74Z"/><path class="cls-10" d="M224.05,120c.59-4.91,8.43-11.4,32.57-9.18,19,1.75,29.3,13.63,29.26,16.42-.07,4.47-7.11,64.62-9.92,67.81-3.83,4.35-19.88,6.54-32.37,3.86-8.79-1.89-15.59-6-16.93-8.91C224.79,186,223.13,127.73,224.05,120Z"/><path class="cls-12" d="M239.63,113.37c-.88,2.11-.11,6.65,1.87,7.8l.23.13c4.67,2.37,15.43,2.9,19.43-4.36.62-1.13.56-4.39.21-5.63,0,0-4.07-18.1-5.49-27l-13.63,19.89Z"/><path class="cls-13" d="M242.26,102.89s-.82,9.12,3.21,9.49c4.22.38,7.24-7.86,7.66-18.75Z"/><path class="cls-8" d="M239.63,113.37a34.41,34.41,0,0,0-3.29,10.5l8.63-1.29,12.12,4.62s4.81-11.09,5.9-15c.42-1.51-2-3.63-2-3.63s-8.47,13.92-15.94,12.57C239.22,120.05,239.63,113.37,239.63,113.37Z"/><path class="cls-14" d="M226.77,68.86s-7.31,3.48-.12,12.81,11-14.76,11-14.76Z"/><path class="cls-12" d="M228.77,69c-5,4.3-4.1,17.51-2.24,21.2,2.86,5.68,7,16.33,10.37,16.78C245,108,253,98.13,255.6,86.16l.31.63h0a1.69,1.69,0,0,0,2.1-1,15.79,15.79,0,0,0,.92-5c0-2.34-1.37-3.08-2.21-2.61s-1.1,2.17-1.1,2.17,1.52-8.32,1.24-10.23a6.83,6.83,0,0,0-2.51-4.8C246.81,59.91,233.15,65.17,228.77,69Z"/><path class="cls-14" d="M256.28,67.33l-8.49,5.49s-.37-4.68-5.11-4.62c-3.35,0-10.13,4-15,3.72-2.07-.11-7.43-4.09-1.71-5.25a5.33,5.33,0,0,0,2.1-.91c.62-.45,1.49-1.08,2.54-1.78,9.74-6.51,16.14-6.72,21.09-3.89C258,63.72,256.28,67.33,256.28,67.33Z"/><path class="cls-14" d="M255.2,68.65,248.32,74s2.13,11.32,7.29,6.36c0,0,2.29-6.06,2.32-9.83C258,67.73,256.27,67.82,255.2,68.65Z"/><path class="cls-14" d="M229.1,87.85c0,.31-.16.65-.81.71s-1.33-.75-1.23-.84a2.05,2.05,0,0,1,1.05-.3C228.61,87.36,229,87.54,229.1,87.85Z"/><path class="cls-14" d="M233,94.32a6.48,6.48,0,0,1-1.34-.12.21.21,0,0,1-.17-.22l.66-11a.21.21,0,0,1,.43,0l-.65,10.76a8.59,8.59,0,0,0,4.16-.49.21.21,0,1,1,.15.4A9.29,9.29,0,0,1,233,94.32Z"/><path class="cls-5" d="M236.86,96.43c1,.7,3.63,2,4.32-1.46a.79.79,0,0,0-1.15-.84l-3.14,1.72A.34.34,0,0,0,236.86,96.43Z"/><path class="cls-14" d="M225.77,82.89h0a.32.32,0,0,1-.29-.35,3.87,3.87,0,0,1,3.72-3.34.32.32,0,0,1,0,.64,3.19,3.19,0,0,0-3.12,2.77A.32.32,0,0,1,225.77,82.89Z"/><path class="cls-14" d="M234.92,79.16a.32.32,0,0,1-.18-.59,7.92,7.92,0,0,1,7.76-.42.32.32,0,0,1-.29.58,7.39,7.39,0,0,0-7.11.37A.32.32,0,0,1,234.92,79.16Z"/><path class="cls-13" d="M257.14,84.06a.21.21,0,0,1-.17-.34,2.29,2.29,0,0,0,.32-2.23.34.34,0,0,0-.33-.21.21.21,0,1,1,0-.43.76.76,0,0,1,.75.42,2.71,2.71,0,0,1-.35,2.7A.21.21,0,0,1,257.14,84.06Z"/><path class="cls-14" d="M239.14,86.68c0,.32.33.59,1,.48s1.08-1.07,1-1.13A2.05,2.05,0,0,0,240,86C239.48,86.08,239.1,86.37,239.14,86.68Z"/><path class="cls-14" d="M226.68,92.26a3.5,3.5,0,0,1-2.14-.81c-1.71-1.31-2.1-3.71-2.35-5.3l0-.14a3,3,0,0,1,0-1.1h0a1.89,1.89,0,0,1,1.64-1.65L228.5,83a2.31,2.31,0,0,1,2.15,1.55,3.69,3.69,0,0,1,.27,1.77c-.2,2.74-1.4,5-3,5.72A2.91,2.91,0,0,1,226.68,92.26ZM222.6,85a2.65,2.65,0,0,0,0,.94l0,.14c.24,1.52.61,3.82,2.19,5a2.75,2.75,0,0,0,2.9.5c1.5-.67,2.6-2.78,2.79-5.36a3.27,3.27,0,0,0-.23-1.57,1.89,1.89,0,0,0-1.73-1.29l-4.68.31A1.48,1.48,0,0,0,222.6,85Z"/><path class="cls-14" d="M241,90.37a4.85,4.85,0,0,1-1-.11,8,8,0,0,1-5.16-4.78,2.9,2.9,0,0,1-.25-1.8,2.67,2.67,0,0,1,2.15-2.1l6-1.09a2.5,2.5,0,0,1,2.93,2.15c0,.19.06.4.09.62.25,1.62.62,4.08-1,5.51A5.7,5.7,0,0,1,241,90.37Zm2.21-9.49a2.08,2.08,0,0,0-.37,0l-6,1.09A2.25,2.25,0,0,0,235,83.76a2.48,2.48,0,0,0,.22,1.54,7.53,7.53,0,0,0,4.86,4.54,5,5,0,0,0,4.43-1.39c1.43-1.28,1.08-3.59.84-5.12,0-.23-.07-.44-.09-.64a2.06,2.06,0,0,0-.32-.88h0A2.07,2.07,0,0,0,243.2,80.88Z"/><path class="cls-14" d="M230.62,87.24a.21.21,0,0,1-.21-.2,2.6,2.6,0,0,1,2.07-2.93c1.78-.23,3.12,1.95,3.18,2a.21.21,0,0,1-.37.22s-1.25-2-2.76-1.84c-1.82.24-1.7,2.38-1.7,2.47a.21.21,0,0,1-.2.23Z"/><path class="cls-14" d="M245.47,82.88a.21.21,0,0,1-.06-.42l10.13-2.73a.21.21,0,1,1,.11.41l-10.13,2.73Z"/><path class="cls-12" d="M218.31,138.7a1.52,1.52,0,0,1-1.89-2.28,28.67,28.67,0,0,1,3.24-3.66,24.78,24.78,0,0,1,5.09-3.12,1.52,1.52,0,0,1,1.35,2.73,22.13,22.13,0,0,0-4.47,2.71,26,26,0,0,0-2.78,3.17A1.52,1.52,0,0,1,218.31,138.7Z"/><path class="cls-12" d="M215.17,149.37c0-2.09.55-7.6.76-10.84.11-1.61,0-2.05,1.48-3.24l1.7-1.19,1.61,2.25a26.53,26.53,0,0,1,3.6,7,11.7,11.7,0,0,1,.56,5.21,5.22,5.22,0,0,1-2.12,3.5,3.08,3.08,0,0,0-1,2.1c-.71,4.28.18,12.78-2.11,16.7-2.7,4.6-9,3-11.17.24-3.71-4.6-4.39-9.27-3-13.45C207.75,150.79,215.23,152.75,215.17,149.37Z"/><path class="cls-9" d="M224.17,142.92l0-.06-2.12,1a7.87,7.87,0,0,0,1.47,3.8,2.5,2.5,0,0,0,1.39.84,11.68,11.68,0,0,0-.56-5.21Z"/><path class="cls-14" d="M226.35,172.68a55.18,55.18,0,0,0,.09,11.06l-2.29,0a46.9,46.9,0,0,1-.6-9.63"/><path class="cls-11" d="M224,174.6l1.45.07a2.06,2.06,0,0,0,2.09-2.15c.26-5.94,1.33-26.79,3-44.68,1.27-13.4,2.36-15.53,4.27-16.16l2.83-.55a5.31,5.31,0,0,0-4.11-1.47,55.47,55.47,0,0,0-8.48,2.55c-1.68.68-3.36,11.43-3.26,28.1.05,9.41.16,27.68.45,32.65C222.36,174.1,222.84,174.56,224,174.6Z"/><path class="cls-11" d="M225.53,174.77h-.08L224,174.7a1.6,1.6,0,0,1-1.81-1.75c-.29-4.92-.4-22.78-.45-32.38v-.28c-.1-17.4,1.64-27.51,3.33-28.2a55.07,55.07,0,0,1,8.5-2.55,5.42,5.42,0,0,1,4.2,1.5l.14.14-3,.59c-1.65.55-2.85,2-4.19,16.07-1.56,16.44-2.67,36.41-3,44.67A2.16,2.16,0,0,1,225.53,174.77Zm8.52-65a3.36,3.36,0,0,0-.46,0,54.78,54.78,0,0,0-8.45,2.54c-1.61.65-3.29,11.54-3.19,28v.28c.06,9.59.16,27.45.45,32.36.07,1.09.5,1.51,1.6,1.55h0l1.45.07a2,2,0,0,0,2-2.05c.37-8.26,1.47-28.24,3-44.68,1.25-13.17,2.31-15.58,4.35-16.25l2.64-.51A5.33,5.33,0,0,0,234,109.73Z"/><path class="cls-14" d="M227.1,162.34h0a.21.21,0,0,1-.2-.23c0-.31,1.78-31.51,2.42-38.1.93-9.53,1.83-12.53,4.19-14a.21.21,0,0,1,.22.37c-2.22,1.36-3.07,4.3-4,13.66-.64,6.58-2.4,37.77-2.42,38.08A.21.21,0,0,1,227.1,162.34Z"/><path class="cls-12" d="M229.54,136.59a1.61,1.61,0,0,1-1.36,0,24.76,24.76,0,0,0-4.54-1.63,34.1,34.1,0,0,0-4.37,2.94,1.61,1.61,0,0,1-1.86-2.64c3.6-2.54,4.89-3.44,5.92-3.53,1.27-.12,3.73.85,6.14,1.9a1.61,1.61,0,0,1,.07,2.93Z"/><path class="cls-12" d="M228.49,141a1.62,1.62,0,0,1-2.29-1.11c-.14-.68-.33-1.42-.46-1.81a19.79,19.79,0,0,0-2.42-1.12,49.45,49.45,0,0,0-4.8,2.83,1.61,1.61,0,0,1-1.76-2.7c5.36-3.49,6.16-3.43,6.64-3.4a14.65,14.65,0,0,1,4.63,2c.31.26.73.62,1.33,3.5A1.61,1.61,0,0,1,228.49,141Z"/><path class="cls-13" d="M219,135.94a.21.21,0,0,1-.11-.4c3.71-2.21,4-2.17,4.43-2.12h.09a14.65,14.65,0,0,1,4.76,2.09.21.21,0,0,1-.28.33,14.64,14.64,0,0,0-4.51-2h-.12c-.3,0-.58-.07-4.16,2.06A.21.21,0,0,1,219,135.94Z"/><path class="cls-12" d="M226.42,144a1.61,1.61,0,0,1-1.51-2.85l.66-.39c-.43-.44-.93-.92-1.32-1.29-.79.59-2.08,1.68-3.13,2.63a1.61,1.61,0,0,1-2.16-2.39c4.5-4.07,5.19-4.05,6.12-3.65.23.1.61.26,2.39,2s1.93,2.11,2,2.47c.37,1.4-.89,2.2-3,3.39Z"/><path class="cls-13" d="M225.22,139.92l-.38.28.6.6-.66.39A1.61,1.61,0,0,0,226.3,144l.09,0c.55-.31,1-.6,1.46-.88Z"/><path class="cls-13" d="M219.6,139.34a.21.21,0,0,1-.14-.37c3.87-3.44,4.69-3.6,5.74-3.15.26.11.65.28,2.46,2.07a.21.21,0,1,1-.3.3c-1.75-1.74-2.12-1.9-2.32-2-.72-.31-1.24-.53-5.29,3.07A.21.21,0,0,1,219.6,139.34Z"/><path class="cls-12" d="M226.64,146.6a1.61,1.61,0,0,1-2-2.39,3.42,3.42,0,0,0,.48-1.83l-3.81,1.88a1.61,1.61,0,1,1-1.43-2.89l4-2a3.07,3.07,0,0,1,4.43,2.73,6.79,6.79,0,0,1-1.09,4A1.61,1.61,0,0,1,226.64,146.6Zm-1.32-4.34h0Z"/><path class="cls-13" d="M221.32,144.45a.21.21,0,0,1-.09-.41l3.81-1.88a.21.21,0,0,1,.13,0,.21.21,0,0,1,.1-.09h0a.21.21,0,0,1,.29.1.21.21,0,0,1,0,.09,2.71,2.71,0,0,0-.35.31l-3.81,1.88Zm-1.43-2.89a.21.21,0,0,1-.09-.41l4-2a3.28,3.28,0,0,1,3.38.29.21.21,0,1,1-.25.35,2.85,2.85,0,0,0-2.94-.25l-4,2Z"/><path class="cls-13" d="M210.21,171.55a.21.21,0,0,1-.21-.18,4.08,4.08,0,0,0-1.31-2.38.21.21,0,1,1,.24-.36,4.44,4.44,0,0,1,1.5,2.67.21.21,0,0,1-.18.25Z"/><path class="cls-13" d="M219.89,153.2c-1.52,0-2.39-2.19-2.43-2.3a.21.21,0,0,1,.4-.15s1,2.45,2.45,1.95a.21.21,0,1,1,.14.41A1.72,1.72,0,0,1,219.89,153.2Z"/><path class="cls-13" d="M218.85,142.41a.21.21,0,0,1-.19-.12c-.86-1.79-2-4.4-2.06-4.42a.21.21,0,1,1,.39-.18s1.19,2.63,2.05,4.42a.21.21,0,0,1-.1.29Z"/><path class="cls-8" d="M285.89,127.26c2.68,12.58-4.61,49.34-5.38,54.38-1,6.58-5.57,8.93-9.05,8.89-7.64-.09-12.14-3.49-10.39-17.11l7.87-36.8c2.81-8.61,6.49-14.13,10.93-13.94C285.25,122.92,285.89,127.26,285.89,127.26Z"/><path class="cls-10" d="M262.13,174.79h-.06a.21.21,0,0,1-.16-.22,6.18,6.18,0,0,1,4.78-5.39.21.21,0,1,1,.11.41,5.73,5.73,0,0,0-4.31,4.12,10.55,10.55,0,0,1,6.36-3.17,8.3,8.3,0,0,1,7.37,3.32.21.21,0,0,1-.33.27,7.8,7.8,0,0,0-7-3.17c-3.11.3-5.87,2.39-6.59,3.71A.21.21,0,0,1,262.13,174.79Z"/><path class="cls-12" d="M264.59,187.55c-7.94-2.61-24.16-6.78-30.82-5.22l.58-7.36,30.26-3.5c5.58-1.24,12.71,2.88,11.57,9.47C275.55,184.56,273.35,190.42,264.59,187.55Z"/><path class="cls-12" d="M233.77,182.32c-5.06,0-15.62-5.57-15.62-5.57-3.25-2-2.05-2.45-2.05-2.45l8.62.8c2.91.52,3.33-1.94,3.33-1.94a4.09,4.09,0,0,1,4.1-1.5,16,16,0,0,1,5.14,2.46,2,2,0,0,0,1.43.38l2.53-.3S243,182.25,233.77,182.32Z"/><path class="cls-13" d="M230.61,174.81l-.09,0c-1.09-.5-2.56-1.21-2.57-1.22a.21.21,0,0,1,.19-.39s1.48.72,2.57,1.21a.21.21,0,0,1-.09.41Z"/><path class="cls-13" d="M230.61,174.59l-2.54-1.44c-.15-.09-.43,0-.39.15.36,1.56-1.7,2-3,1.81C224.72,175.11,229.8,177,230.61,174.59Z"/><path class="cls-14" d="M189.89,162.4h0a11.25,11.25,0,0,0,2.67,2.42L207,173.1a4.68,4.68,0,0,0,1.9.6l15.79,1.43a18.91,18.91,0,0,0,4,0l.09,0a1,1,0,0,0,.58-.44l.23-.51Z"/><path class="cls-15" d="M228.69,174.44l-20.21-2.38a3.48,3.48,0,0,1-1.12-.37l-17.47-9.29c-.31-.24-.28-.79.38-.67l21.48,3.56a3.48,3.48,0,0,1,.89.29l16.5,8C229.95,174,229.57,174.58,228.69,174.44Z"/><path class="cls-5" d="M207.09,170.13c1.47.46,2.23,0,1.92-.51s-1.43-1.7.93-2.2c1.59-.34.85-1.3.37-1.8L194.18,163a.11.11,0,0,0-.07.21l13,7Z"/><path class="cls-5" d="M200,167.3a.21.21,0,0,1-.11,0l-.31-.19a.21.21,0,0,1,.23-.36l.31.19a.21.21,0,0,1-.11.4Z"/><path class="cls-12" d="M231.29,173.19a3.78,3.78,0,0,1-2.08.27,34.43,34.43,0,0,1-5.54-1.13,1,1,0,0,1-.52-1.15h0a1,1,0,0,1,1.18-.77c3.09.56,5.32.5,7.8,1.09C233.79,171.91,232.41,172.7,231.29,173.19Z"/><path class="cls-13" d="M237.25,178.48h-.1a.21.21,0,0,1,0-.43h0a1.83,1.83,0,0,0,1.29-.43,1.35,1.35,0,0,0,.28-1.14.21.21,0,0,1,.43-.05,1.75,1.75,0,0,1-.39,1.49A2.16,2.16,0,0,1,237.25,178.48Z"/><path id="forearm_L" class="cls-11" d="M64.93,122.17c-1-1.33-4.52-.84-6.38,4.38-3.11,8.78-9.49,46-8.49,53.51.83,6.25,12.06,10,14.12,2.06,1.74-6.71,3.56-35.88,3.82-48.54C68.09,129.85,64.93,122.17,64.93,122.17Z"/><path id="forearm_R-2" data-name="forearm_R" class="cls-11" d="M111,122.28c.5-1.71,2.15-1.82,3.33.13,3.31,5.46,5.31,45.41,4.67,56.32-.5,8.59-11.83,9.26-14.32.7-3.13-10.75,2.08-33.53,3-39.07C110,126,111,122.28,111,122.28Z"/><path class="cls-11" d="M87.56,116.86c-11.9-.06-25.52,3-27.31,7.45-1,2.57,3.85,32.2,5.06,49.35.1,1.38.14,1.84.15,3.64,0,3.78,2.45,5.36,5.7,5.31l32.72-.3c4.23,0,5.39-1.86,5.9-5.18.36-2.33.39-3.07.63-4.79,1.86-13.18,3.1-42.28,3.62-48.92a2.12,2.12,0,0,0-1.17-2.08C107.62,118.79,98.8,116.92,87.56,116.86Z"/><path class="cls-11" d="M66.72,181.35a5.48,5.48,0,0,1-1.48-4c0-1.64,0-2.16-.13-3.29l0-.33c-.55-7.83-1.87-18.3-3-27.54-1.44-11.43-2.58-20.46-2-21.91,1.83-4.57,15.44-7.58,27.15-7.58h.36c10.38.06,19.64,1.7,25.39,4.51a2.32,2.32,0,0,1,1.29,2.28c-.14,1.74-.32,5-.56,9.18-.68,12-1.7,30-3.07,39.76-.1.69-.16,1.22-.22,1.77-.09.8-.19,1.63-.41,3-.51,3.31-1.7,5.36-6,5.36h-.07l-32.72.3H71A6,6,0,0,1,66.72,181.35Zm42.84-4.25c.21-1.39.31-2.21.41-3,.07-.56.13-1.08.23-1.78,1.37-9.71,2.39-27.77,3.06-39.72.23-4.16.42-7.44.56-9.19a1.9,1.9,0,0,0-1.05-1.87c-5.7-2.78-14.88-4.41-25.2-4.46v0a71.75,71.75,0,0,0-17.39,2c-5.46,1.4-8.91,3.28-9.72,5.3-.54,1.35.71,11.23,2,21.69,1.17,9.24,2.49,19.72,3,27.57l0,.33c.08,1.14.12,1.67.13,3.32A5.07,5.07,0,0,0,67,181a5.64,5.64,0,0,0,4.13,1.36l32.72-.3C108,182.12,109.06,180.36,109.56,177.1Z"/><path class="cls-15" d="M63.15,151.61h42.47a.21.21,0,1,0,0-.43H63.15a.21.21,0,1,0,0,.43Z"/><path class="cls-15" d="M63.54,156.61h41.22a.21.21,0,0,0,0-.43H63.54a.21.21,0,0,0,0,.43Z"/><path class="cls-8" d="M108.67,172.56a.21.21,0,0,0,.21-.19c.18-1.75,3.76-31.68,3.8-32a.21.21,0,1,0-.43-.05c0,.3-3.62,30.23-3.8,32a.21.21,0,0,0,.19.24Z"/><path class="cls-8" d="M65.12,172.43h0a.21.21,0,0,0,.19-.23L62.1,140.34a.21.21,0,1,0-.43,0l3.24,31.85A.21.21,0,0,0,65.12,172.43Z"/><path class="cls-7" d="M104.64,349.14,103,360.58a6.41,6.41,0,0,0,4,6.21l13.08,5.61a2.62,2.62,0,0,1,1.59,2.41h0a2.62,2.62,0,0,1-2.62,2.62H98.75c-4,0-7.77-3.34-7.13-7.29A138.81,138.81,0,0,0,93,349.41Z"/><path class="cls-11" d="M106.14,364.43s-1.11-.94-3,1c-2.49,2.49-5.85,2.87-8,1S92.86,364,92,365.79s-3.8,11.76,1.2,11.64h27a2.47,2.47,0,0,0,2.26-3.48,7.51,7.51,0,0,0-3.23-3.24A121.92,121.92,0,0,0,106.14,364.43Z"/><path class="cls-8" d="M93.15,377.3h27a.21.21,0,0,0,0-.43h-27a.21.21,0,0,0,0,.43Z"/><path class="cls-5" d="M114.07,369.67a3.13,3.13,0,0,0,2-.58.21.21,0,0,0-.28-.33h0c-.05,0-1.28,1-3.68,0a31.43,31.43,0,0,1-3-1.58c-2.64-1.49-5.14-2.89-6.09-1.94-2,2-4.59,2.76-6.1,1.89a.21.21,0,1,0-.21.37c1.7,1,4.48.16,6.61-2,.73-.72,3.42.79,5.58,2a31.74,31.74,0,0,0,3.08,1.6A5.66,5.66,0,0,0,114.07,369.67Z"/><path class="cls-8" d="M106.63,366.05h0l-.09,0-.06,0,0-.07v-.05c0-.18-.47-3.7.76-4.9a1.45,1.45,0,0,1,1.3-.39,1.11,1.11,0,0,1,1,.7c.33,1-.94,2.72-1.85,3.8,1.5-.76,4.08-1.91,5.21-1.48a.88.88,0,0,1,.54.55.77.77,0,0,1-.11.73c-.8,1.1-4.89,1.19-6.25,1.19Zm.85-.43c1.84,0,4.87-.24,5.43-1a.34.34,0,0,0,0-.34.45.45,0,0,0-.29-.29,1.28,1.28,0,0,0-.45-.07C111,363.92,108.84,364.91,107.48,365.62Zm0-4.35c-.84.83-.76,3.1-.68,4.08.95-1,2.56-3.06,2.27-3.94,0-.08-.11-.33-.65-.41l-.22,0A1,1,0,0,0,107.48,361.27Z"/><path class="cls-8" d="M123.37,373.95a7.21,7.21,0,0,0-3.23-3.24c-1.44,1-4.1,4.57-4.43,6.73h5.4A2.47,2.47,0,0,0,123.37,373.95Z"/><path class="cls-8" d="M117.06,375.38a.21.21,0,0,0,.12-.39,25.52,25.52,0,0,0-4.63-2.29c-3.49-1.3-6.52-1.42-8.77-.36a10.34,10.34,0,0,1-9.5.17,10.61,10.61,0,0,1-3.41-2.74.21.21,0,0,0-.34.26A10.79,10.79,0,0,0,104,372.72c5.19-2.46,12.89,2.57,13,2.62A.21.21,0,0,0,117.06,375.38Z"/><path class="cls-7" d="M69.31,347.75l2,12.49a7.19,7.19,0,0,1-4.36,6.56l-13.08,5.61a2.62,2.62,0,0,0-1.59,2.41h0a2.62,2.62,0,0,0,2.62,2.62H75.21c4,0,7.71-3.33,7.13-7.29-1-6.83-.27-21.31-.27-21.31Z"/><path class="cls-11" d="M68.34,364.43s1.11-.94,3,1c2.49,2.49,5.85,2.87,8,1s2.28-2.43,3.19-.63,3.8,11.76-1.2,11.64h-27a2.47,2.47,0,0,1-2.26-3.48,7.51,7.51,0,0,1,3.23-3.24A121.92,121.92,0,0,1,68.34,364.43Z"/><path class="cls-8" d="M54.37,377.3h27a.21.21,0,0,0,0-.43h-27a.21.21,0,0,0,0,.43Z"/><path class="cls-5" d="M60.41,369.67a5.65,5.65,0,0,0,2.16-.47,31.74,31.74,0,0,0,3.08-1.6c2.16-1.22,4.85-2.73,5.58-2,2.13,2.12,4.91,2.94,6.61,2a.21.21,0,1,0-.21-.37c-1.51.87-4.13.06-6.1-1.89-1-.95-3.45.45-6.09,1.94a31.43,31.43,0,0,1-3,1.58c-2.41,1-3.66,0-3.68,0a.21.21,0,1,0-.28.33A3.13,3.13,0,0,0,60.41,369.67Z"/><path class="cls-8" d="M61.22,364.86a.77.77,0,0,1-.11-.73.88.88,0,0,1,.54-.55c1.13-.43,3.71.72,5.21,1.48-.91-1.08-2.18-2.81-1.85-3.8a1.11,1.11,0,0,1,1-.7,1.45,1.45,0,0,1,1.3.39c1.23,1.21.78,4.74.76,4.9v0h0a.21.21,0,0,1,0,.08L68,366l-.08,0h-.4C66.12,366.06,62,366,61.22,364.86Zm.59-.88a.45.45,0,0,0-.29.29.34.34,0,0,0,0,.34c.56.77,3.6,1,5.43,1-1.36-.71-3.55-1.71-4.74-1.71A1.28,1.28,0,0,0,61.81,364Zm4.26-3c-.54.08-.62.33-.65.41-.3.88,1.32,2.9,2.27,3.94.08-1,.16-3.26-.68-4.08a1,1,0,0,0-.72-.29Z"/><path class="cls-8" d="M57.15,375.38a.21.21,0,0,0,.12,0c.08-.05,7.79-5.08,13-2.62A12.18,12.18,0,0,0,75.48,374a10.92,10.92,0,0,0,8.2-4,.21.21,0,0,0-.34-.26,10.61,10.61,0,0,1-3.41,2.74,10.34,10.34,0,0,1-9.5-.17c-2.24-1.06-5.27-.94-8.77.36A25.52,25.52,0,0,0,57,375a.21.21,0,0,0,.12.39Z"/><rect class="cls-8" x="69.92" y="182.32" width="35.27" height="8.87" transform="translate(175.11 373.5) rotate(-180)"/><path class="cls-8" d="M69.7,191.19v-8.87a.21.21,0,0,1,.21-.21h35.27a.21.21,0,0,1,.21.21v8.87a.21.21,0,0,1-.21.21H69.92A.21.21,0,0,1,69.7,191.19ZM105,182.53H70.13V191H105Z"/><path class="cls-8" d="M70.2,185.43,69,187.09a63.41,63.41,0,0,0-12.43,38.23c.19,24.21,5.9,71.89,12.11,127.41H83.08l5.16-137.46,1.34-29.84Z"/><path class="cls-8" d="M68.45,352.75q-1.1-9.85-2.17-19.34c-5.24-46.54-9.77-86.73-9.94-108.09A64,64,0,0,1,68.8,187L70,185.3a.21.21,0,0,1,.17-.09H89.59a.21.21,0,0,1,.21.22l-1.34,29.84L83.3,352.74a.21.21,0,0,1-.21.21H68.66A.21.21,0,0,1,68.45,352.75ZM88,215.26l1.33-29.62H70.31l-1.16,1.57a63.59,63.59,0,0,0-12.39,38.1c.17,21.34,4.7,61.52,9.94,108q1.06,9.39,2.15,19.15h14Z"/><path class="cls-8" d="M104.91,185.43l1.25,1.74A63.32,63.32,0,0,1,118.09,225c-.3,23.7-6.87,70-12,127.77H91.67L86.51,215.27l-1.34-29.84Z"/><path class="cls-8" d="M91.45,352.74,86.3,215.28,85,185.44a.21.21,0,0,1,.21-.22h19.74a.21.21,0,0,1,.17.09l1.25,1.74a63.54,63.54,0,0,1,12,37.92c-.18,14-2.51,35.62-5.47,63.06-2.07,19.19-4.42,40.95-6.53,64.73a.21.21,0,0,1-.21.2H91.67A.21.21,0,0,1,91.45,352.74Zm21-64.77c3-27.42,5.3-49.08,5.47-63A63.11,63.11,0,0,0,106,187.29l-1.19-1.65H85.39l1.33,29.62,5.15,137.25h14C108,328.8,110.34,307.11,112.41,288Z"/><path class="cls-10" d="M89.63,298.62h0a.21.21,0,0,0,.21-.22l-2.94-75.91a.21.21,0,0,0-.22-.21.21.21,0,0,0-.21.22l2.94,75.91A.21.21,0,0,0,89.63,298.62Z"/><path class="cls-10" d="M88.18,187.09A84.55,84.55,0,0,0,105,185.64a.21.21,0,0,0-.1-.42c-.14,0-14.56,3.22-34.62,0a.21.21,0,1,0-.07.42A113.78,113.78,0,0,0,88.18,187.09Z"/><path class="cls-10" d="M85.54,209.13a4.32,4.32,0,0,0,4.31-4.31V183.31a.21.21,0,0,0-.43,0v21.51a3.89,3.89,0,0,1-3.88,3.88.21.21,0,0,0,0,.43Z"/><path class="cls-10" d="M64.09,195h0a12.68,12.68,0,0,0,8.15-5,11.57,11.57,0,0,0,1.88-3.84.21.21,0,0,0-.42-.1,12.15,12.15,0,0,1-9.69,8.52.21.21,0,0,0,0,.42Z"/><path class="cls-10" d="M111,195.95a.21.21,0,0,0,.09-.41c-.08,0-8.14-4-9.32-9.44a.21.21,0,1,0-.42.09c.64,3,3.21,5.46,5.26,7a27.83,27.83,0,0,0,4.3,2.71Z"/><path class="cls-10" d="M86.68,184.85a.8.8,0,1,1,.8.8A.8.8,0,0,1,86.68,184.85Zm.43,0a.37.37,0,1,0,.37-.37A.37.37,0,0,0,87.11,184.85Z"/><path class="cls-10" d="M101.54,186.36a.21.21,0,0,0,.21-.21V183a.21.21,0,0,0-.43,0v3.18A.21.21,0,0,0,101.54,186.36Z"/><path class="cls-10" d="M74,186.32a.21.21,0,0,0,.21-.21V183a.21.21,0,0,0-.43,0v3.14A.21.21,0,0,0,74,186.32Z"/><path class="cls-8" d="M52.11,373.95a7.21,7.21,0,0,1,3.23-3.24c1.44,1,4.1,4.57,4.43,6.73h-5.4A2.47,2.47,0,0,1,52.11,373.95Z"/><path class="cls-14" d="M67.59,94.21c.6-1.62,2.06-3.45.53-5.88-2.19-3.58-2.38-7.6,2.19-11.18,3.13-2.45,3.47-7.17,5.32-10.28,3.26-5.47,9-3.93,12.78-2.09a6.87,6.87,0,0,0,4.94.23s.56,10,2.18,20.38-5,27.44-16,31c-4.6,1.49-6.41.59-8.45-1.19-2.95-2.56-3.05-7.34-1.47-10.55.63-1.19,1.26-2.34-.26-3.75A6.09,6.09,0,0,1,67.59,94.21Z"/><path class="cls-14" d="M90.25,114.17c8.22,8.28,19.3,2,17.85-5.88-.62-3.38.43-5.88,4.08-7.26,2.42-.92,4.65-4.11,2.4-8.5s-1.8-6.68-1-9.58,1.53-6.94-3.12-9.55c-3.62-2-5.18-4.82-6.5-6.77-2.79-4.12-8.69-6.78-13.88-1.33C90.09,65.29,88.47,112.37,90.25,114.17Z"/><path class="cls-14" d="M71,113.78a.43.43,0,0,0,.25-.77c-5.12-3.74-3.38-8.7-2.34-11.67.11-.31.21-.6.3-.87.74-2.3-.23-4.79-1.08-7a12.34,12.34,0,0,1-1.06-3.74c0-1.76,1-4.05,2.11-6.48a25.1,25.1,0,0,0,2.38-6.79c1-7.88,5.08-10.12,6.43-10.85a.43.43,0,0,0-.41-.75c-3.95,2.14-6.2,5.91-6.88,11.5a24.55,24.55,0,0,1-2.3,6.54c-1.14,2.51-2.23,4.89-2.19,6.85a12.84,12.84,0,0,0,1.11,4C68.16,96,69,98.2,68.38,100.2c-.08.26-.18.54-.29.85-1,3-3,8.53,2.65,12.65A.43.43,0,0,0,71,113.78Z"/><path class="cls-16" d="M78.66,99.88s-.87,9.56-2.31,19.37c-.57,3.87,0,12.16,10.61,12.16A9.34,9.34,0,0,0,96,119.25a41.93,41.93,0,0,1-.52-19.37Z"/><path class="cls-17" d="M80.21,100.51s-3,13,2.48,14.56c4.08,1.19,12.07-6,12.07-6Z"/><path class="cls-16" d="M96.78,187.55c-2-1-17.9-1.73-17.9-1.73l1.26-10.58s16.64,3.21,18.76,3.24c0,0,1.32,1,1,4.48A5.54,5.54,0,0,1,96.78,187.55Z"/><path class="cls-16" d="M111,179a1.39,1.39,0,0,0-.42-2.69,27.38,27.38,0,0,0-4.44,0,21.06,21.06,0,0,0-4.05,1.6,1.39,1.39,0,0,0-.64,1.86c.34.69,1.52,2,2,1.33a5.41,5.41,0,0,1,3.15-2,25,25,0,0,1,3.84,0A1.39,1.39,0,0,0,111,179Z"/><path class="cls-16" d="M98.6,178.52a31.16,31.16,0,0,1,10.18-.65l-1,10.44a6.51,6.51,0,0,0-2.48.25,8.88,8.88,0,0,1-6.42,0c-.8-.33-1.43-.63-2.1-1C94,186.1,92.74,179.48,98.6,178.52Z"/><path class="cls-16" d="M115.75,189.1a1.28,1.28,0,0,1-1.55.87c-.71-.19-1.66-.52-2.59-.83-.76-.26-1.7-.59-2-.64a13.48,13.48,0,0,0-3.56-.14,1.28,1.28,0,1,1-.32-2.54,16.08,16.08,0,0,1,4.32.16,20,20,0,0,1,2.37.74c.84.29,1.79.62,2.41.78a1.28,1.28,0,0,1,.91,1.56Z"/><path class="cls-16" d="M116.93,186.66a1.28,1.28,0,0,1-1.86.75c-3.73-2.13-9.09-1.74-9.14-1.74a1.28,1.28,0,1,1-.2-2.55c.25,0,6.2-.44,10.6,2.06A1.28,1.28,0,0,1,116.93,186.66Z"/><path class="cls-16" d="M116.91,183.79l0,.1a1.28,1.28,0,0,1-1.65.73,33,33,0,0,0-8.85-1.61,1.28,1.28,0,0,1,.09-2.55,35.12,35.12,0,0,1,9.67,1.78A1.28,1.28,0,0,1,116.91,183.79Z"/><path class="cls-16" d="M115.85,181.21a1.28,1.28,0,0,1-2.12.55,5.7,5.7,0,0,0-2.36-1.12c-1-.14-3.22-.25-4-.28a1.28,1.28,0,1,1,.09-2.55c.12,0,3,.11,4.31.3a8.09,8.09,0,0,1,3.78,1.83A1.28,1.28,0,0,1,115.85,181.21Z"/><path class="cls-17" d="M113.32,184.16a.21.21,0,0,0,.06-.42,22.8,22.8,0,0,0-6.33-.88.21.21,0,0,0-.21.22.22.22,0,0,0,.22.21,22.35,22.35,0,0,1,6.2.86Z"/><path class="cls-17" d="M106.82,186.32a.21.21,0,0,0,.21-.2l.62-8.29a.21.21,0,0,0-.43,0l-.62,8.29a.21.21,0,0,0,.2.23Z"/><path class="cls-11" d="M95.58,177.73s-27-5.11-36.89-6.61c-12.23-1.86-10.55,14.17-.88,15.52,7.47,1,36.93,2.64,36.93,2.64Z"/><path class="cls-17" d="M109,178.08a.21.21,0,0,0,0-.43c-.11,0-2.77-.19-4.11-.14a.21.21,0,1,0,0,.43c1.32-.05,4,.13,4.07.14Z"/><path class="cls-8" d="M95.58,177.95a.21.21,0,0,0,0-.43l-33.68-6.11c-.24-.06-6.15-1.51-9.7.61a.21.21,0,0,0,.22.37c3.39-2,9.33-.58,9.39-.56l33.7,6.11Z"/><polygon class="cls-5" points="96.81 136.94 98.12 137.9 116.91 118.05 115.8 117.02 96.81 136.94"/><path class="cls-5" d="M97.29,137.22l9.93,2.85a1.22,1.22,0,0,0,1.48-.76l7.54-20.88a1.22,1.22,0,0,0-.75-1.57l-10.11-3.44a1.22,1.22,0,0,0-1.54.76l-7.36,21.48A1.22,1.22,0,0,0,97.29,137.22Z"/><path class="cls-4" d="M98.49,138.09l9.68,2.8a1.2,1.2,0,0,0,1.45-.76l7.47-20.9a1.21,1.21,0,0,0-.73-1.56l-9.86-3.39A1.19,1.19,0,0,0,105,115l-7.29,21.49A1.21,1.21,0,0,0,98.49,138.09Z"/><path class="cls-10" d="M112.81,124.09a3.88,3.88,0,0,1-5.11,2.12,4,4,0,0,1-1.68-5.35,3.88,3.88,0,0,1,5.11-2.12A4,4,0,0,1,112.81,124.09Z"/><path class="cls-11" d="M103.67,117.08a.43.43,0,0,0,.4-.29l.4-1.16a.43.43,0,1,0-.81-.28l-.4,1.16a.43.43,0,0,0,.26.55Z"/><path class="cls-11" d="M102.86,119.41a.43.43,0,0,0,.4-.29l.4-1.17a.43.43,0,1,0-.81-.28l-.4,1.17a.43.43,0,0,0,.26.55Z"/><path class="cls-16" d="M112.24,142.34c1.54,1,.25,4.31-1.66,11.43-1,3.59-5.2,17.09-5.47,18.91-.62,4.25-1.29,12.21,5.48,12.75,6.25.49,9.53-5.35,10-18.17.58-14.53.45-22.68.5-26.89,0-3.08-5.38-13-5.38-13Z"/><path class="cls-7" d="M112.2,140.91a1.55,1.55,0,0,1-.8.12c-.25,0-6.16-.77-9.65-4.44a1.55,1.55,0,0,1,2.25-2.14c2.26,2.38,6.38,3.33,7.77,3.49a1.55,1.55,0,0,1,.44,3Z"/><path class="cls-16" d="M112.57,138.11a1.55,1.55,0,0,1-1.35-.05l-10.82-5.73a1.55,1.55,0,1,1,1.45-2.74l10.82,5.73a1.55,1.55,0,0,1-.11,2.8Z"/><path class="cls-16" d="M112.69,134.31a1.55,1.55,0,0,1-1.36-.05l-10.79-5.79a1.55,1.55,0,0,1,1.47-2.74l10.79,5.79a1.55,1.55,0,0,1-.11,2.79Z"/><path class="cls-16" d="M113.25,131.94a1.55,1.55,0,0,1-1.85-.47L109,128.31a1.78,1.78,0,0,0-.59-.41L105,127a1.55,1.55,0,1,1,.8-3l3.42.92.16.05a4.9,4.9,0,0,1,1.89,1.3l.07.08,2.48,3.21a1.55,1.55,0,0,1-.61,2.37Z"/><path class="cls-16" d="M113.63,128.92a7.57,7.57,0,0,0-1-.95c-.91.46-5.46,12-5.46,12s7.53,4,8.75,3.14a7.68,7.68,0,0,0,2.56-8,68.16,68.16,0,0,0-3-8.15,2.77,2.77,0,0,0-.94-.65Z"/><path class="cls-17" d="M108.77,139a.21.21,0,0,0,.17-.08,22.94,22.94,0,0,0,4.2-8.72.21.21,0,1,0-.42-.09,22.48,22.48,0,0,1-4.11,8.54.21.21,0,0,0,.17.35Z"/><path class="cls-17" d="M116.65,143.76a1.74,1.74,0,0,0,.76-.16,1.63,1.63,0,0,0,.8-.85.21.21,0,0,0-.4-.14c0,.05-.43,1.12-2,.57a.21.21,0,0,0-.14.4A2.82,2.82,0,0,0,116.65,143.76Z"/><path class="cls-11" d="M104.77,172.67c.26-1.81,6.72-29.3,6.72-29.3a12.48,12.48,0,0,0,10.58.32s-.43,11.48-.91,23.56c-.51,12.82-3.06,18.89-10.48,18.17C103.92,184.76,104.15,176.92,104.77,172.67Z"/><path class="cls-8" d="M105.88,168a.21.21,0,0,0,.21-.17l5.54-24.17c4.63,2.63,10.46.21,10.52.19a.21.21,0,0,0-.17-.39c-.06,0-5.9,2.45-10.38-.31a.21.21,0,0,0-.32.13l-5.61,24.46a.21.21,0,0,0,.16.26Z"/><path class="cls-16" d="M77.26,88c1.43-14.52,5.58-18.9,15.31-18.94a9.79,9.79,0,0,1,1,0c9.69.95,13.64,5.7,13.72,20.29,0,7.44-5.29,17.09-10.78,21.33A8.41,8.41,0,0,1,86,110.26C80.85,105.62,76.52,95.42,77.26,88Z"/><path class="cls-14" d="M94.28,73.29a10.67,10.67,0,0,0,4,4.41c3.69,2.18,5.85,2.23,7.27,5.43,1.09,2.44.77,4.32,1.28,7.34.66,3.91-.8,3.6-.28,9.45.16,1.79,1.19,2.69,1.82.25.7-2.71.52-4.6.24-5.1-.91-1.59,3.94-7.27,3.19-12.25s-4.9-4.88-5.42-7-3.43-8.54-12.8-6.72Z"/><path class="cls-14" d="M100.39,69.38s1.62,5.22-1.26,8.79c-2.42,3-8.23,2.63-11.85,1.6S83.05,81,84.17,83c1.35,2.43-.65,3.18-1.25,2-1.06-2-2.6-1.33-1.71.54.63,1.32,2.61,3.87.19,5.21s-1.76,4-.51,6.31c1,2,2.42,6.36-1.84,8.71-5.91,3.26-5.62-15.29-5.13-18,.94-5.25,1-11.86,4-14.33s8-4.81,10.94-4.94C96.79,68.21,100.39,69.38,100.39,69.38Z"/><path class="cls-18" d="M79.34,81.72a9.31,9.31,0,0,0,1.23-.08,11.12,11.12,0,0,0,3.06-.87.43.43,0,0,0-.37-.77s-4.82,2.26-7.86-.57a6.53,6.53,0,0,1-1.74-4.48.43.43,0,0,0-.86,0,7.29,7.29,0,0,0,2,5.14A6.46,6.46,0,0,0,79.34,81.72Z"/><path class="cls-14" d="M90,82.54a12.7,12.7,0,0,0,5-1,13.6,13.6,0,0,0,4.51-3.07.43.43,0,0,0-.64-.57,13,13,0,0,1-4.24,2.86A12.23,12.23,0,0,1,83.65,80a.43.43,0,0,0-.4.76A14.18,14.18,0,0,0,90,82.54Z"/><path class="cls-14" d="M105.71,91.59h.08a.32.32,0,0,0,.23-.39,4.56,4.56,0,0,0-4.8-3.3.32.32,0,0,0,0,.64,3.79,3.79,0,0,1,3.33,1.33,4.18,4.18,0,0,1,.8,1.48A.32.32,0,0,0,105.71,91.59Z"/><circle class="cls-14" cx="101.77" cy="94.27" r="1.06" transform="translate(2.87 191.55) rotate(-87.34)"/><path class="cls-14" d="M88.36,88.79a.32.32,0,0,0,.27-.14,4.54,4.54,0,0,1,5.47-1.33.32.32,0,0,0,.22-.61,5.48,5.48,0,0,0-4.65.22,4.83,4.83,0,0,0-1.57,1.35.32.32,0,0,0,.27.5Z"/><circle class="cls-14" cx="91.28" cy="92.57" r="1.06" transform="translate(-5.43 179.45) rotate(-87.34)"/><path class="cls-14" d="M95.41,99.24a2.84,2.84,0,0,0,2.67-1.47.21.21,0,0,0,0-.2S96.27,94.68,96.69,92a.21.21,0,1,0-.42-.07,9.62,9.62,0,0,0,1.38,5.8,2.56,2.56,0,0,1-2.56,1.11.21.21,0,0,0-.23.2.21.21,0,0,0,.2.23Z"/><path class="cls-5" d="M90.71,98.72a.49.49,0,0,0-.65.47,3.11,3.11,0,0,0,2.67,2.76,6,6,0,0,0,2.33-.36C95.3,101.33,90.71,98.72,90.71,98.72Z"/><path class="cls-17" d="M92.7,102.16a3.28,3.28,0,0,1-2.85-3,.69.69,0,0,1,.29-.57.71.71,0,0,1,.64-.09l0,0c2.91,1.65,4.41,2.65,4.46,3a.25.25,0,0,1-.06.21l-.08.06a7,7,0,0,1-2,.4A2.72,2.72,0,0,1,92.7,102.16Zm-2.07-3.24a.28.28,0,0,0-.24,0,.27.27,0,0,0-.11.22,2.91,2.91,0,0,0,2.48,2.55,5.14,5.14,0,0,0,2-.26A41.74,41.74,0,0,0,90.63,98.92Z"/><path class="cls-5" d="M84.21,82.82l.14,0a.43.43,0,0,0,.27-.54l-1.52-4.47a.43.43,0,1,0-.81.28l1.52,4.47A.43.43,0,0,0,84.21,82.82Z"/><path class="cls-5" d="M84.12,83a.43.43,0,0,0,.27-.76l-3.56-2.84a.43.43,0,1,0-.53.67l3.56,2.84A.43.43,0,0,0,84.12,83Z"/></g></g></g></svg>