<svg xmlns="http://www.w3.org/2000/svg" viewBox="0 0 95 121.64"><defs><style>.cls-1{fill:#efc66a;}.cls-2{fill:#fff;}.cls-3{fill:#c69738;}</style></defs><title>11Asset 3ask-us</title><g id="Layer_2" data-name="Layer 2"><g id="Layer_1-2" data-name="Layer 1"><rect class="cls-1" width="95" height="121.64" rx="12" ry="12"/><path class="cls-2" d="M31.86,84H28.78L28,81.71H23L22.34,84h-3.1l4.18-12.46h4.27Zm-8.19-4.38h3.78L25.56,74Z"/><path class="cls-2" d="M32.35,81h2.22c0,.89.84,1.52,2,1.52,1,0,1.66-.46,1.66-1.07,0-1.8-5.78,0-5.78-3.8,0-1.75,1.66-3,3.85-3,2.4,0,4.13,1.3,4.15,3.1H38.12c0-.74-.79-1.24-1.84-1.24-.82,0-1.47.42-1.47,1,0,1.71,5.9.3,5.92,3.67,0,1.86-1.73,3.2-4.22,3.2S32.35,82.94,32.35,81Z"/><path class="cls-2" d="M44.75,71v7.33l3-3.31H51l-3.89,4.2,4,4.76H47.89l-3.13-3.85V84H42.13V71Z"/><path class="cls-2" d="M56.72,80.61V75h2.63v5.15A1.66,1.66,0,0,0,61,82a1.88,1.88,0,0,0,1.87-2V75h2.63v9H63V82.76a3.39,3.39,0,0,1-6.23-2.15Z"/><path class="cls-2" d="M67,81h2.22c0,.89.84,1.52,2,1.52,1,0,1.66-.46,1.66-1.07,0-1.8-5.78,0-5.78-3.8,0-1.75,1.66-3,3.85-3,2.4,0,4.13,1.3,4.15,3.1H72.77c0-.74-.79-1.24-1.84-1.24-.82,0-1.47.42-1.47,1,0,1.71,5.9.3,5.92,3.67,0,1.86-1.73,3.2-4.22,3.2S67,82.94,67,81Z"/><path class="cls-2" d="M17.37,92.51H20v9H17.37v-1.24a3.63,3.63,0,0,1-3,1.59c-2.52,0-4.29-2-4.29-4.83s1.77-4.83,4.29-4.83a3.64,3.64,0,0,1,3,1.59Zm0,4.48A2.35,2.35,0,1,0,15,99.51,2.36,2.36,0,0,0,17.36,97Z"/><path class="cls-2" d="M30.62,95.87v5.6H28V96.32a1.66,1.66,0,0,0-1.66-1.86,1.88,1.88,0,0,0-1.87,2v5H21.84v-9h2.56v1.21a3.39,3.39,0,0,1,6.23,2.15Z"/><path class="cls-2" d="M32.67,103.25a3.73,3.73,0,0,0,1.07.19c1.12,0,1.56-.8,2-1.89l-4.24-9h2.87l2.43,5.78,2-5.78h2.73L38,101.78c-.84,2.29-1.8,3.73-3.62,3.73a5.16,5.16,0,0,1-1.73-.32Z"/><path class="cls-2" d="M43.17,94.5H41.91v-2h1.38l.3-2.26h2.21v2.26h2v2h-2v3.8A1.15,1.15,0,0,0,47,99.56a4.71,4.71,0,0,0,.93-.12l0,2.1a6.11,6.11,0,0,1-1.79.28,3,3,0,0,1-2.94-3.25Z"/><path class="cls-2" d="M58.13,95.8v5.67H55.51V96.32a1.67,1.67,0,0,0-1.68-1.86,1.88,1.88,0,0,0-1.86,2v5H49.35v-13H52v5a3.32,3.32,0,0,1,2.75-1.37A3.36,3.36,0,0,1,58.13,95.8Z"/><path class="cls-2" d="M61.32,88.36a1.48,1.48,0,1,1-1.52,1.47A1.44,1.44,0,0,1,61.32,88.36Zm1.31,13.11H60v-9h2.63Z"/><path class="cls-2" d="M73.46,95.87v5.6H70.84V96.32a1.66,1.66,0,0,0-1.66-1.86,1.88,1.88,0,0,0-1.87,2v5H64.68v-9h2.56v1.21a3.39,3.39,0,0,1,6.23,2.15Z"/><path class="cls-2" d="M77.49,102.2a2.27,2.27,0,0,0,2.17,1.56,2.22,2.22,0,0,0,2.28-2.47v-1.07a3.7,3.7,0,0,1-3,1.37A4.26,4.26,0,0,1,74.72,97c0-2.82,1.79-4.81,4.25-4.81a3.69,3.69,0,0,1,3,1.4V92.51h2.61v8.86c0,2.78-2,4.48-4.8,4.48a4.48,4.48,0,0,1-4.62-3.27ZM82,97a2.35,2.35,0,1,0-4.69,0A2.35,2.35,0,1,0,82,97Z"/><path class="cls-3" d="M45,45c0-5,1.66-7.22,4.53-9.23,2.06-1.43,3.94-2.82,3.94-5.24a5.4,5.4,0,0,0-5.69-5.29c-3.63,0-6.23,2.82-6.68,6.72L36.18,31A11.39,11.39,0,0,1,47.93,20.76c6.14,0,10.89,4,10.89,9.55,0,4.12-2.38,6.1-5.51,8.11C50.84,40,49.72,41.51,49.72,45Zm2.33,3.36a2.86,2.86,0,0,1,3,2.91,3,3,0,0,1-6.05,0A2.85,2.85,0,0,1,47.34,48.37Z"/></g></g></svg>