<svg xmlns="http://www.w3.org/2000/svg" xmlns:xlink="http://www.w3.org/1999/xlink" viewBox="0 0 95 121.64"><defs><style>.cls-1{fill:#a38bd8;}.cls-2{fill:#fff;}.cls-3{fill:#e59033;}.cls-4{fill:url(#linear-gradient);}.cls-5{fill:#f8c760;}.cls-6{fill:url(#linear-gradient-2);}.cls-7{fill:url(#linear-gradient-3);}.cls-8{fill:url(#linear-gradient-4);}</style><linearGradient id="linear-gradient" x1="22.07" y1="60.36" x2="36.99" y2="86.2" gradientUnits="userSpaceOnUse"><stop offset="0" stop-color="#f7cd6c"/><stop offset="0.39" stop-color="#f6c466"/><stop offset="1" stop-color="#f2ad55"/></linearGradient><linearGradient id="linear-gradient-2" x1="25.28" y1="65.99" x2="33.78" y2="80.72" xlink:href="#linear-gradient"/><linearGradient id="linear-gradient-3" x1="17.74" y1="89.88" x2="27.33" y2="106.49" gradientUnits="userSpaceOnUse"><stop offset="0" stop-color="#f78161"/><stop offset="0.31" stop-color="#f68a5f"/><stop offset="0.81" stop-color="#f3a258"/><stop offset="1" stop-color="#f2ad55"/></linearGradient><linearGradient id="linear-gradient-4" x1="30.92" y1="88.8" x2="41.55" y2="107.22" xlink:href="#linear-gradient-3"/></defs><title>11Asset 4coin-reviews</title><g id="Layer_2" data-name="Layer 2"><g id="Layer_1-2" data-name="Layer 1"><rect class="cls-1" width="95" height="121.64" rx="12" ry="12"/><path class="cls-2" d="M23,21.91c-.42,2.75-3,4.73-6.2,4.73A6.44,6.44,0,0,1,10.15,20,6.44,6.44,0,0,1,16.8,13.3,6,6,0,0,1,23,18.15l-2.75.31a3.44,3.44,0,0,0-3.36-2.64c-2.22,0-3.78,1.71-3.78,4.15a3.82,3.82,0,0,0,3.78,4.15,3.52,3.52,0,0,0,3.38-2.56Z"/><path class="cls-2" d="M29.08,26.55a4.68,4.68,0,0,1-5-4.83,4.68,4.68,0,0,1,5-4.83,4.68,4.68,0,0,1,5,4.83A4.68,4.68,0,0,1,29.08,26.55Zm0-7.35a2.35,2.35,0,0,0-2.35,2.52,2.36,2.36,0,1,0,4.71,0A2.35,2.35,0,0,0,29.08,19.2Z"/><path class="cls-2" d="M37,13.09a1.48,1.48,0,1,1-1.52,1.47A1.44,1.44,0,0,1,37,13.09ZM38.32,26.2H35.7v-9h2.63Z"/><path class="cls-2" d="M49.16,20.6v5.6H46.53V21.05a1.66,1.66,0,0,0-1.66-1.85,1.88,1.88,0,0,0-1.87,2v5H40.37v-9h2.56v1.21a3.39,3.39,0,0,1,6.23,2.15Z"/><path class="cls-2" d="M16.43,34.63V37A4.26,4.26,0,0,0,15,36.63c-1.14,0-1.89,1-1.89,2.31V43.7H10.45v-9H13v1.14a2.81,2.81,0,0,1,2.4-1.47A2.92,2.92,0,0,1,16.43,34.63Z"/><path class="cls-2" d="M24.18,40.85l2.29.51C26,42.91,24.17,44,22,44a4.71,4.71,0,0,1-4.94-4.9A4.65,4.65,0,0,1,22,34.39a4.58,4.58,0,0,1,4.83,4.8,5.73,5.73,0,0,1,0,.79l-7,0A2.32,2.32,0,0,0,22.12,42,2.25,2.25,0,0,0,24.18,40.85Zm0-2.47a2.22,2.22,0,0,0-4.41,0Z"/><path class="cls-2" d="M27.05,34.74h2.8l2.21,7,2.19-7h2.82l-3.13,9H30.19Z"/><path class="cls-2" d="M39.58,30.59a1.48,1.48,0,1,1-1.52,1.47A1.44,1.44,0,0,1,39.58,30.59ZM40.9,43.7H38.27v-9H40.9Z"/><path class="cls-2" d="M49.61,40.85l2.29.51c-.47,1.56-2.31,2.7-4.43,2.7a4.71,4.71,0,0,1-4.94-4.9,4.65,4.65,0,0,1,4.94-4.76,4.58,4.58,0,0,1,4.83,4.8,5.73,5.73,0,0,1,0,.79l-7,0A2.32,2.32,0,0,0,47.55,42,2.25,2.25,0,0,0,49.61,40.85Zm0-2.47a2.22,2.22,0,0,0-4.41,0Z"/><path class="cls-2" d="M52.74,34.74h2.73l1.84,6.34,1.75-6.34h2.45l1.87,6.39,1.82-6.39h2.64l-2.73,9H61.79l-1.51-5.9-1.5,5.9H55.46Z"/><path class="cls-2" d="M68.51,40.71h2.22c0,.89.84,1.52,2,1.52,1,0,1.66-.46,1.66-1.07,0-1.8-5.78,0-5.78-3.8,0-1.75,1.66-3,3.85-3,2.4,0,4.13,1.3,4.15,3.1H74.29c0-.74-.79-1.24-1.84-1.24-.82,0-1.47.42-1.47,1,0,1.72,5.9.3,5.92,3.68,0,1.86-1.73,3.2-4.22,3.2S68.51,42.67,68.51,40.71Z"/><path class="cls-3" d="M29.51,84.68A11.31,11.31,0,1,1,40.72,73.42,11.2,11.2,0,0,1,29.51,84.68Z"/><path class="cls-4" d="M29.67,58.21a2.22,2.22,0,0,1,1.13,1,1.85,1.85,0,0,0,1.9,1,4.74,4.74,0,0,0,1.08-.44c.27-.12.53-.3.81-.4a.86.86,0,0,1,1.13.42,5,5,0,0,1,.38,1.07,1.93,1.93,0,0,0,2.53,1.57,3.7,3.7,0,0,1,.9-.06.9.9,0,0,1,.88.83,3.1,3.1,0,0,1,0,.87,2,2,0,0,0,1.8,2.69,2.78,2.78,0,0,1,.57.18,1,1,0,0,1,.58,1.5c-.13.29-.31.56-.47.84a1.82,1.82,0,0,0,.45,2.53c.28.23.59.42.85.68a1,1,0,0,1,0,1.58,5.2,5.2,0,0,1-.61.49,1.88,1.88,0,0,0-1,1.9,4.35,4.35,0,0,0,.38,1c.15.33.35.64.47,1A.83.83,0,0,1,43,79.47a3.86,3.86,0,0,1-1,.35,1.93,1.93,0,0,0-1.66,2.52,3.94,3.94,0,0,1,.07.75,1,1,0,0,1-1.1,1.1,5.93,5.93,0,0,1-1-.11,1.84,1.84,0,0,0-2.25,1.49,6.34,6.34,0,0,1-.31,1,1,1,0,0,1-1.33.53,6.22,6.22,0,0,1-.85-.46,1.88,1.88,0,0,0-2.8.58,4.93,4.93,0,0,1-.57.7,1,1,0,0,1-1.49,0,7.1,7.1,0,0,1-.51-.63c-.1-.13-.19-.26-.3-.37a1.7,1.7,0,0,0-2.26-.41c-.35.18-.68.4-1,.56a1,1,0,0,1-1.46-.6c-.16-.39-.23-.81-.36-1.21A1.72,1.72,0,0,0,21,84.06c-.32,0-.64.09-1,.13-.92.12-1.41-.33-1.38-1.25,0-.2.06-.4.07-.6a4.82,4.82,0,0,0,0-1.17,1.86,1.86,0,0,0-1.58-1.34,4.79,4.79,0,0,1-1.09-.4.81.81,0,0,1-.37-1.07,5.76,5.76,0,0,1,.47-.94,1.92,1.92,0,0,0-.6-2.87,4.4,4.4,0,0,1-.63-.51,1,1,0,0,1,0-1.54c.27-.27.59-.48.89-.72a1.68,1.68,0,0,0,.7-1.72A5.56,5.56,0,0,0,16,69c-.11-.25-.27-.47-.36-.73A1,1,0,0,1,16.24,67a7.13,7.13,0,0,1,.95-.29,1.91,1.91,0,0,0,1.54-2.5,4.12,4.12,0,0,1-.06-.93.89.89,0,0,1,.89-.89c.29,0,.58,0,.87.05a5.55,5.55,0,0,0,1.23,0A1.74,1.74,0,0,0,22.94,61a7.8,7.8,0,0,1,.27-.92,1,1,0,0,1,1.54-.57c.28.14.54.31.81.46a1.82,1.82,0,0,0,2.56-.52c.08-.1.15-.21.23-.32a2,2,0,0,1,1.07-.88Zm-.16,25.67c.61-.06,1.23-.07,1.83-.19a9.94,9.94,0,0,0,6.39-3.95A10.18,10.18,0,0,0,39,69.19,9.94,9.94,0,0,0,30.87,63a9.64,9.64,0,0,0-6.31,1.2,10.53,10.53,0,0,0,5,19.71Z"/><path class="cls-5" d="M29.5,96.28,29,98.09l-1.8,6.29q-.64,2.23-1.26,4.47a1.25,1.25,0,0,1-.57.82.8.8,0,0,1-1.17-.18c-1.12-1.22-2.24-2.43-3.34-3.65a.49.49,0,0,0-.6-.16l-4.84,1.58a.63.63,0,0,1-.67-.23,1.14,1.14,0,0,1-.31-1.19l2.52-8.71,2.76-9.52.52-1.8c.09-.32.16-.35.47-.23A2.35,2.35,0,0,1,22,87.4a5.17,5.17,0,0,0,.29.95,1.1,1.1,0,0,0,1.6.6,6.7,6.7,0,0,0,.89-.5A2.15,2.15,0,0,1,28,89a7.09,7.09,0,0,0,.86,1,1,1,0,0,0,1.47,0,5.31,5.31,0,0,0,.56-.62c.09-.11.16-.23.25-.34a2.14,2.14,0,0,1,3.14-.61,7.06,7.06,0,0,0,1.18.58.93.93,0,0,0,1.21-.46A5.59,5.59,0,0,0,37,87.4a2.35,2.35,0,0,1,1.36-1.83c.31-.12.37-.09.46.24l2.85,9.84,2.5,8.66.45,1.53a1.12,1.12,0,0,1-.25,1.12.74.74,0,0,1-.88.24c-1.58-.54-3.17-1-4.76-1.55-.3-.1-.42.06-.58.23l-3.3,3.6a.91.91,0,0,1-1.48-.1,1.75,1.75,0,0,1-.25-.54q-1.06-3.66-2.1-7.33l-1.39-4.87c0-.12-.08-.24-.12-.36Z"/><path class="cls-6" d="M29.51,81.89A8.53,8.53,0,1,1,38,73.4,8.44,8.44,0,0,1,29.51,81.89Z"/><path class="cls-7" d="M16.75,106.81,22,87.4s.3,1.49.85,1.58.39.37,1.93-.54,2.38-.16,2.38-.16a3.61,3.61,0,0,1,1,1c.33.55-4.68,19.46-4.68,19.46s-2.69-3-2.91-3.07S16.75,106.81,16.75,106.81Z"/><path class="cls-8" d="M42.26,106.81,37,87.4s-.3,1.49-.85,1.58-.39.37-1.93-.54-2.38-.16-2.38-.16a3.61,3.61,0,0,0-1,1c-.33.55,4.68,19.46,4.68,19.46s2.69-3,2.91-3.07S42.26,106.81,42.26,106.81Z"/></g></g></svg>