<svg xmlns="http://www.w3.org/2000/svg" viewBox="0 0 119.68 153.23"><defs><style>.cls-1{fill:#efc66a;}.cls-2{fill:#fff;}.cls-3{fill:#c69738;}</style></defs><title>11Asset 8mobile-ask-us</title><g id="Layer_2" data-name="Layer 2"><g id="Layer_1-2" data-name="Layer 1"><rect class="cls-1" width="119.68" height="153.23" rx="15.12" ry="15.12"/><path class="cls-2" d="M40.13,105.78H36.25l-.93-2.84H29l-.88,2.84h-3.9l5.27-15.7h5.38Zm-10.32-5.51h4.76l-2.38-7Z"/><path class="cls-2" d="M40.75,102h2.8c0,1.13,1.06,1.92,2.49,1.92,1.21,0,2.09-.57,2.09-1.34,0-2.27-7.28,0-7.28-4.78C40.88,95.59,43,94,45.71,94c3,0,5.2,1.63,5.23,3.9H48c0-.93-1-1.57-2.32-1.57-1,0-1.85.53-1.85,1.26,0,2.16,7.43.37,7.45,4.63,0,2.34-2.18,4-5.31,4S40.75,104.48,40.75,102Z"/><path class="cls-2" d="M56.38,89.42v9.24l3.81-4.17h4l-4.9,5.29,5,6h-4l-3.95-4.85v4.85H53.07V89.42Z"/><path class="cls-2" d="M71.46,101.55V94.49h3.31V101a2.1,2.1,0,0,0,2.09,2.34,2.37,2.37,0,0,0,2.36-2.47V94.49h3.31v11.29H79.31v-1.52a4.28,4.28,0,0,1-3.59,2C73.18,106.22,71.46,104.26,71.46,101.55Z"/><path class="cls-2" d="M84.4,102h2.8c0,1.13,1.06,1.92,2.49,1.92,1.21,0,2.09-.57,2.09-1.34,0-2.27-7.28,0-7.28-4.78,0-2.21,2.09-3.79,4.85-3.79,3,0,5.2,1.63,5.23,3.9H91.67c0-.93-1-1.57-2.32-1.57-1,0-1.85.53-1.85,1.26,0,2.16,7.43.37,7.45,4.63,0,2.34-2.18,4-5.31,4S84.4,104.48,84.4,102Z"/><path class="cls-2" d="M21.89,116.54H25.2v11.29H21.89v-1.57a4.58,4.58,0,0,1-3.84,2c-3.17,0-5.4-2.51-5.4-6.09s2.23-6.09,5.4-6.09a4.58,4.58,0,0,1,3.84,2Zm0,5.64a3,3,0,1,0-3,3.17A3,3,0,0,0,21.87,122.18Z"/><path class="cls-2" d="M38.58,120.77v7.06H35.27v-6.48A2.1,2.1,0,0,0,33.18,119a2.37,2.37,0,0,0-2.36,2.47v6.35H27.51V116.54h3.22v1.52a4.27,4.27,0,0,1,3.57-2C36.86,116.09,38.58,118.06,38.58,120.77Z"/><path class="cls-2" d="M41.15,130.07a4.69,4.69,0,0,0,1.35.24c1.41,0,2-1,2.47-2.38l-5.34-11.4h3.62l3.07,7.28,2.51-7.28h3.44L47.9,128.22c-1.06,2.89-2.27,4.7-4.56,4.7a6.51,6.51,0,0,1-2.18-.4Z"/><path class="cls-2" d="M54.38,119H52.79v-2.51h1.74l.38-2.84h2.78v2.84h2.56V119H57.69v4.78a1.45,1.45,0,0,0,1.5,1.59,5.91,5.91,0,0,0,1.17-.15l0,2.65a7.72,7.72,0,0,1-2.25.35c-2.25,0-3.7-1.7-3.7-4.1Z"/><path class="cls-2" d="M73.23,120.68v7.14H69.92v-6.48A2.1,2.1,0,0,0,67.81,119a2.37,2.37,0,0,0-2.34,2.47v6.35H62.16V111.47h3.31v6.35a4.18,4.18,0,0,1,3.46-1.72C71.51,116.09,73.23,118,73.23,120.68Z"/><path class="cls-2" d="M77.24,111.31a1.86,1.86,0,1,1-1.92,1.85A1.81,1.81,0,0,1,77.24,111.31Zm1.65,16.51H75.59V116.54h3.31Z"/><path class="cls-2" d="M92.54,120.77v7.06H89.23v-6.48A2.1,2.1,0,0,0,87.14,119a2.37,2.37,0,0,0-2.36,2.47v6.35H81.47V116.54h3.22v1.52a4.27,4.27,0,0,1,3.57-2C90.82,116.09,92.54,118.06,92.54,120.77Z"/><path class="cls-2" d="M97.61,128.75a2.86,2.86,0,0,0,2.73,2,2.8,2.8,0,0,0,2.87-3.11v-1.34A4.66,4.66,0,0,1,99.48,128c-3.11,0-5.36-2.38-5.36-5.8s2.25-6.06,5.36-6.06a4.65,4.65,0,0,1,3.75,1.76v-1.34h3.29v11.16c0,3.5-2.47,5.64-6,5.64-2.93,0-5.34-1.72-5.82-4.12Zm5.73-6.57a3,3,0,1,0-5.91,0,3,3,0,1,0,5.91,0Z"/><path class="cls-3" d="M56.7,56.7c0-6.27,2.09-9.09,5.7-11.63,2.6-1.81,5-3.56,5-6.61,0-3.78-3.11-6.66-7.17-6.66-4.57,0-7.85,3.56-8.41,8.47l-6.21-1.19c.85-7.51,6.78-12.93,14.8-12.93,7.74,0,13.72,5,13.72,12,0,5.2-3,7.68-6.95,10.22-3.11,2-4.52,3.9-4.52,8.3Zm2.94,4.24a3.6,3.6,0,0,1,3.84,3.67,3.81,3.81,0,0,1-7.62,0A3.59,3.59,0,0,1,59.64,60.93Z"/></g></g></svg>