<svg xmlns="http://www.w3.org/2000/svg" viewBox="0 0 119.39 152.86"><defs><style>.cls-1{fill:#efc66a;}.cls-2{fill:#fff;}.cls-3{fill:#f7931a;}</style></defs><title>11Asset 5mobile-money</title><g id="Layer_2" data-name="Layer 2"><g id="Layer_1-2" data-name="Layer 1"><rect class="cls-1" width="119.39" height="152.86" rx="15.08" ry="15.08"/><path class="cls-2" d="M14.91,122.72v-5.21l6.15-4.61h4.39v22.34H20.3V118.71Z"/><path class="cls-2" d="M39.5,112.12c6,0,10.2,5,10.2,12s-4.17,12-10.2,12-10.17-5-10.17-12S33.51,112.12,39.5,112.12Zm0,19.39c2.95,0,5.05-3.14,5.05-7.44s-2.1-7.43-5.05-7.43-5,3.14-5,7.43S36.55,131.51,39.5,131.51Z"/><path class="cls-2" d="M51.82,122.72v-5.21L58,112.9h4.39v22.34H57.22V118.71Z"/><path class="cls-2" d="M15.56,104.26V88.6h4.88l4.42,11.46L29.23,88.6h4.95v15.66H30.58V93.07l-4.33,11.19H23.47L19.16,93.07v11.19Z"/><path class="cls-2" d="M42.56,104.7a6.07,6.07,0,1,1,0-12.14,6.07,6.07,0,1,1,0,12.14Zm0-9.23a3.17,3.17,0,1,0,3,3.17A3,3,0,0,0,42.56,95.46Z"/><path class="cls-2" d="M61.65,97.22v7h-3.3V97.79a2.09,2.09,0,0,0-2.09-2.33,2.37,2.37,0,0,0-2.35,2.46v6.33h-3.3V93h3.21v1.52a4.25,4.25,0,0,1,3.56-2C59.94,92.56,61.65,94.52,61.65,97.22Z"/><path class="cls-2" d="M72.12,100.67l2.88.64c-.59,2-2.9,3.39-5.56,3.39a5.92,5.92,0,0,1-6.2-6.16,5.84,5.84,0,0,1,6.2-6,5.76,5.76,0,0,1,6.07,6,7.13,7.13,0,0,1,0,1l-8.82,0a2.91,2.91,0,0,0,2.88,2.62A2.83,2.83,0,0,0,72.12,100.67Zm0-3.1a2.79,2.79,0,0,0-5.54,0Z"/><path class="cls-2" d="M77.25,106.5a4.66,4.66,0,0,0,1.34.24c1.41,0,2-1,2.46-2.37L75.73,93h3.61l3.06,7.26L84.9,93h3.43L84,104.65c-1.06,2.88-2.26,4.68-4.55,4.68a6.47,6.47,0,0,1-2.18-.4Z"/><circle class="cls-2" cx="45.34" cy="44.5" r="30.67"/><path class="cls-3" d="M46.71,75.17H44a3.2,3.2,0,0,0-.34-.05,28.9,28.9,0,0,1-6.34-1,30.7,30.7,0,0,1-22.5-32.2,29.19,29.19,0,0,1,2.05-8.73,30.45,30.45,0,0,1,13.8-15.58A29.68,29.68,0,0,1,42,14L44,13.83h2.75l.43.06c1.51.2,3,.29,4.52.61A30.18,30.18,0,0,1,70.27,26.66a29.82,29.82,0,0,1,5.56,14.58c.07.63.12,1.26.18,1.89v2.75c0,.13,0,.26-.06.4A28.69,28.69,0,0,1,75,52.2,30.37,30.37,0,0,1,62,70.26,29.69,29.69,0,0,1,48.61,75ZM58.36,42.6l.19-.13a8.11,8.11,0,0,0,3.65-8.68A6.92,6.92,0,0,0,59,29.31a16.35,16.35,0,0,0-6.62-2.4c-.62-.1-1.26-.17-1.92-.26V18.86H45.64v7.71H42.43V18.86H37.57v7.73H27.92v5h.35c1.18,0,2.36,0,3.54,0a4.07,4.07,0,0,1,1.07.17,1.4,1.4,0,0,1,1.06,1.39c0,.15,0,.29,0,.44q0,10.5,0,21c0,.22,0,.44,0,.66a1.83,1.83,0,0,1-2.06,1.92H28.38l-.16,5.09h9.36v7.88h4.84V62.28h3.24v7.87H50.5V62.26h1a20.81,20.81,0,0,0,6.08-.8A9.57,9.57,0,0,0,62.74,58a11.73,11.73,0,0,0,1.95-8.48,7.63,7.63,0,0,0-4.24-6C59.78,43.19,59.06,42.92,58.36,42.6Z"/><path class="cls-3" d="M42.45,46.38l.17,0c2.2,0,4.4,0,6.6,0a8.94,8.94,0,0,1,4.14,1.07,3.49,3.49,0,0,1,2,2.79,5.25,5.25,0,0,1-3.55,5.83,11.33,11.33,0,0,1-3.78.61c-1.77,0-3.55,0-5.32,0l-.29,0Z"/><path class="cls-3" d="M42.44,41.39V32l.07,0a41.24,41.24,0,0,1,6,.18,7.84,7.84,0,0,1,2.55.81,3.61,3.61,0,0,1,2,3.46,4.81,4.81,0,0,1-2.43,4.4,4.48,4.48,0,0,1-2.32.63c-1.83,0-3.67,0-5.5,0Z"/></g></g></svg>