<svg xmlns="http://www.w3.org/2000/svg" viewBox="0 0 119.68 153.23"><defs><style>.cls-1{fill:#efc66a;}.cls-2{fill:#ab8ce5;}.cls-3{fill:#fff;}</style></defs><title>11Asset 7mobile-invest</title><g id="Layer_2" data-name="Layer 2"><g id="Layer_1-2" data-name="Layer 1"><rect class="cls-1" width="119.68" height="153.23" rx="15.12" ry="15.12"/><path class="cls-2" d="M106.22,134.11H13.46a1.26,1.26,0,0,1-1.26-1.26V76.62a1.26,1.26,0,0,1,2.52,0v55h91.5a1.26,1.26,0,1,1,0,2.52Z"/><path class="cls-2" d="M22.22,133.52a1.26,1.26,0,0,1-.95-2.09l26.79-30.58a1.26,1.26,0,0,1,.88-.43,1.28,1.28,0,0,1,.92.33l15.59,14.46L96.72,83.46a1.26,1.26,0,1,1,1.8,1.77L66.39,117.85a1.26,1.26,0,0,1-1.75,0L49.1,103.48l-25.94,29.6A1.26,1.26,0,0,1,22.22,133.52Z"/><path class="cls-3" d="M13.49,33V17.3h3.7v6.06h6.48V17.3h3.7V33h-3.7V26.37H17.19V33Z"/><path class="cls-3" d="M35.76,33.45a5.89,5.89,0,0,1-6.26-6.09,5.89,5.89,0,0,1,6.26-6.09A5.9,5.9,0,0,1,42,27.36,5.9,5.9,0,0,1,35.76,33.45Zm0-9.26a3,3,0,0,0-3,3.17,3,3,0,1,0,5.93,0A3,3,0,0,0,35.76,24.18Z"/><path class="cls-3" d="M42.57,21.71H46l2.32,8,2.21-8h3.09l2.36,8,2.29-8H61.6L58.16,33H54l-1.9-7.43L50.18,33H46Z"/><path class="cls-3" d="M70.15,24.23H68.56V21.71H70.3l.38-2.84h2.78v2.84H76v2.51H73.46V29A1.45,1.45,0,0,0,75,30.6a5.91,5.91,0,0,0,1.17-.15l0,2.65a7.72,7.72,0,0,1-2.25.35c-2.25,0-3.7-1.7-3.7-4.1Z"/><path class="cls-3" d="M83.66,33.45a5.89,5.89,0,0,1-6.26-6.09,6.28,6.28,0,0,1,12.55,0A5.9,5.9,0,0,1,83.66,33.45Zm0-9.26a3,3,0,0,0-3,3.17,3,3,0,1,0,5.93,0A3,3,0,0,0,83.66,24.18Z"/><path class="cls-3" d="M93.14,21.63a1.86,1.86,0,1,1-1.92,1.87A1.82,1.82,0,0,1,93.14,21.63Zm0,8a1.86,1.86,0,1,1-1.92,1.85A1.81,1.81,0,0,1,93.14,29.63Z"/><path class="cls-3" d="M17.22,55h-3.7V39.35h3.7Z"/><path class="cls-3" d="M30.93,48V55H27.62V48.57a2.1,2.1,0,0,0-2.09-2.34,2.37,2.37,0,0,0-2.36,2.47V55H19.86V43.76h3.22v1.52a4.27,4.27,0,0,1,3.57-2C29.21,43.32,30.93,45.28,30.93,48Z"/><path class="cls-3" d="M32,43.76h3.53l2.78,8.78L41,43.76H44.6L40.65,55H35.93Z"/><path class="cls-3" d="M53.7,51.46l2.89.64c-.6,2-2.91,3.4-5.58,3.4a5.94,5.94,0,0,1-6.22-6.17,5.86,5.86,0,0,1,6.22-6,5.78,5.78,0,0,1,6.09,6,7.18,7.18,0,0,1,0,1l-8.84,0A2.92,2.92,0,0,0,51.1,53,2.84,2.84,0,0,0,53.7,51.46Zm0-3.11a2.79,2.79,0,0,0-5.56,0Z"/><path class="cls-3" d="M58.46,51.28h2.8c0,1.13,1.06,1.92,2.49,1.92,1.21,0,2.09-.57,2.09-1.34,0-2.27-7.28,0-7.28-4.78,0-2.21,2.09-3.79,4.85-3.79,3,0,5.2,1.63,5.23,3.9H65.74c0-.93-1-1.57-2.32-1.57-1,0-1.85.53-1.85,1.26,0,2.16,7.43.37,7.45,4.63,0,2.34-2.18,4-5.31,4S58.46,53.75,58.46,51.28Z"/><path class="cls-3" d="M71.21,46.27H69.62V43.76h1.74l.38-2.84h2.78v2.84h2.56v2.51H74.51v4.78A1.45,1.45,0,0,0,76,52.65a5.91,5.91,0,0,0,1.17-.15l0,2.65a7.72,7.72,0,0,1-2.25.35c-2.25,0-3.7-1.7-3.7-4.1Z"/></g></g></svg>