<?xml version="1.0" encoding="UTF-8"?>
<svg width="120px" height="154px" viewBox="0 0 120 154" version="1.1" xmlns="http://www.w3.org/2000/svg" xmlns:xlink="http://www.w3.org/1999/xlink">
    <!-- Generator: Sketch 50.2 (55047) - http://www.bohemiancoding.com/sketch -->
    <title>mobile-wallet</title>
    <desc>Created with Sketch.</desc>
    <defs>
        <linearGradient x1="50%" y1="0%" x2="50%" y2="100%" id="linearGradient-1">
            <stop stop-color="#F4E8F0" offset="0%"></stop>
            <stop stop-color="#DFEFF8" offset="100%"></stop>
        </linearGradient>
        <linearGradient x1="0%" y1="49.7472194%" x2="99.9714367%" y2="49.7472194%" id="linearGradient-2">
            <stop stop-color="#AA5FBC" offset="0%"></stop>
            <stop stop-color="#4D6EF3" offset="100%"></stop>
        </linearGradient>
    </defs>
    <g id="Page-1" stroke="none" stroke-width="1" fill="none" fill-rule="evenodd">
        <g id="mobile-wallet" fill-rule="nonzero">
            <rect id="Rectangle-path" fill="#EFC66A" x="0.22" y="0.36" width="119.68" height="153.23" rx="15.12"></rect>
            <rect id="Rectangle-path" fill="url(#linearGradient-1)" x="20.04" y="72.07" width="76.6" height="59.55" rx="8.55"></rect>
            <path d="M83.86,127.56 L83.86,127.13 L86.4,127.13 L86.4,127.43 L86.4,127.56 L83.86,127.56 Z M81.32,127.56 L78.77,127.56 L78.77,127.13 L81.31,127.13 L81.32,127.56 Z M76.23,127.56 L73.68,127.56 L73.68,127.13 L76.22,127.13 L76.23,127.56 Z M71.14,127.56 L68.6,127.56 L68.6,127.13 L71.14,127.13 L71.14,127.56 Z M66.05,127.56 L63.51,127.56 L63.51,127.13 L66.05,127.13 L66.05,127.56 Z M60.96,127.56 L58.43,127.56 L58.43,127.13 L61,127.13 L60.96,127.56 Z M55.87,127.56 L53.34,127.56 L53.34,127.13 L55.88,127.13 L55.87,127.56 Z M50.78,127.56 L48.25,127.56 L48.25,127.13 L50.8,127.13 L50.78,127.56 Z M45.69,127.56 L43.17,127.56 L43.17,127.13 L45.71,127.13 L45.69,127.56 Z M40.6,127.56 L38.08,127.56 L38.08,127.13 L40.62,127.13 L40.6,127.56 Z M35.51,127.56 L33,127.56 L33,127.13 L35.54,127.13 L35.51,127.56 Z M30.42,127.56 L30.25,127.56 C29.4322271,127.560512 28.62159,127.407882 27.86,127.11 L28.02,126.71 C28.7338487,126.988789 29.493644,127.13125 30.26,127.13 L30.43,127.13 L30.42,127.56 Z M89,127 L88.83,126.61 C89.5811645,126.286421 90.260883,125.817416 90.83,125.23 L91.14,125.53 C90.5305148,126.156244 89.8032398,126.655821 89,127 Z M25.69,125.7 C25.0567704,125.092161 24.5503398,124.364804 24.2,123.56 L24.59,123.39 C24.9167746,124.141883 25.3891924,124.82162 25.98,125.39 L25.69,125.7 Z M92.56,123.37 L92.16,123.21 C92.4505873,122.484974 92.5999329,121.711092 92.6,120.93 L92.6,120.8 L93,120.8 L93,120.93 C93.0100091,121.763928 92.8606674,122.592095 92.56,123.37 Z M23.65,121 L23.65,118.46 L24.08,118.46 L24.08,121 L23.65,121 Z M93,118.27 L92.57,118.27 L92.57,115.73 L93,115.73 L93,118.27 Z M24.06,115.93 L23.63,115.93 L23.63,113.39 L24.06,113.39 L24.06,115.93 Z M93,113.18 L92.57,113.18 L92.57,110.64 L93,110.64 L93,113.18 Z M24.06,110.84 L23.63,110.84 L23.63,108.3 L24.06,108.3 L24.06,110.84 Z M93,108.09 L92.57,108.09 L92.57,105.55 L93,105.55 L93,108.09 Z M24.06,105.75 L23.63,105.75 L23.63,103.21 L24.06,103.21 L24.06,105.75 Z M93,103 L92.57,103 L92.57,100.46 L93,100.46 L93,103 Z M24.06,100.66 L23.63,100.66 L23.63,98.12 L24.06,98.12 L24.06,100.66 Z M93,97.92 L92.57,97.92 L92.57,95.38 L93,95.38 L93,97.92 Z M24.06,95.57 L23.63,95.57 L23.63,93 L24.06,93 L24.06,95.57 Z M93,92.84 L92.57,92.84 L92.57,90.29 L93,90.29 L93,92.84 Z M24.08,90.49 L23.65,90.49 L23.65,87.95 L24.08,87.95 L24.08,90.49 Z M93,87.75 L92.57,87.75 L92.57,85.21 L93,85.21 L93,87.75 Z M24.08,85.4 L23.65,85.4 L23.65,82.86 L24.08,82.86 L24.08,85.4 Z M92.59,82.66 C92.5826811,81.8371179 92.4092119,81.0241936 92.08,80.27 L92.47,80.1 C92.8227149,80.9044409 93.0097686,81.7716901 93.02,82.65 L92.59,82.66 Z M24.52,80.46 L24.12,80.3 C24.4476841,79.4858502 24.933747,78.7448592 25.55,78.12 L25.86,78.42 C25.2825765,79.0044953 24.8270854,79.6979296 24.52,80.46 Z M90.68,78.28 C90.0874062,77.7227832 89.3907977,77.2878277 88.63,77 L88.78,76.6 C89.6060187,76.9138289 90.3608509,77.3898492 91,78 L90.68,78.28 Z M27.88,77 L27.71,76.61 C28.5197621,76.2665351 29.3904076,76.0896852 30.27,76.0899996 L30.27,76.52 C29.4492058,76.5181113 28.636418,76.681349 27.88,77 Z M86.22,76.51 L83.67,76.51 L83.67,76.08 L86.21,76.08 L86.22,76.51 Z M81.13,76.51 L78.58,76.51 L78.58,76.08 L81.12,76.08 L81.13,76.51 Z M76.04,76.51 L73.5,76.51 L73.5,76.08 L76,76.08 L76.04,76.51 Z M70.95,76.51 L68.41,76.51 L68.41,76.08 L71,76.08 L70.95,76.51 Z M65.86,76.51 L63.33,76.51 L63.33,76.08 L65.87,76.08 L65.86,76.51 Z M60.77,76.51 L58.24,76.51 L58.24,76.08 L60.78,76.08 L60.77,76.51 Z M55.68,76.51 L53.15,76.51 L53.15,76.08 L55.7,76.08 L55.68,76.51 Z M50.59,76.51 L48.07,76.51 L48.07,76.08 L50.61,76.08 L50.59,76.51 Z M45.5,76.51 L43,76.51 L43,76.08 L45.54,76.08 L45.5,76.51 Z M40.41,76.51 L37.9,76.51 L37.9,76.08 L40.44,76.08 L40.41,76.51 Z M35.32,76.51 L32.81,76.51 L32.81,76.08 L35.35,76.08 L35.32,76.51 Z" id="Shape" fill="#ADCAD8"></path>
            <path d="M75.59,92 L97.29,92 C99.1788138,92 100.71,93.5311862 100.71,95.42 L100.71,108.36 C100.71,110.248814 99.1788138,111.78 97.29,111.78 L75.59,111.78 C70.1279038,111.78 65.7,107.352096 65.7,101.89 C65.7,96.4279038 70.1279038,92 75.59,92 Z" id="Shape" fill="url(#linearGradient-2)"></path>
            <circle id="Oval" fill="#F6F8F9" cx="74.92" cy="101.84" r="3.72"></circle>
            <polygon id="Shape" fill="#FFFFFF" points="39.66 21.81 42.87 21.81 39.23 35.26 34.65 35.26 32.36 25.76 30.07 35.26 25.49 35.26 21.83 21.81 25.06 21.81 27.91 32.65 30.63 21.81 34.14 21.81 36.8 32.65"></polygon>
            <path d="M53.76,29.14 L53.76,35.26 L50.92,35.26 L50.92,29.71 C50.9773604,29.1972761 50.8119552,28.6845866 50.4657658,28.3020569 C50.1195765,27.9195272 49.6258869,27.7039352 49.11,27.71 C48.5581058,27.7090056 48.030331,27.9361109 47.6516093,28.3375559 C47.2728875,28.7390009 47.0768854,29.2790992 47.11,29.83 L47.11,35.27 L44.28,35.27 L44.28,21.27 L47.11,21.27 L47.11,26.71 C47.8060496,25.7548438 48.9286589,25.2047653 50.11,25.24 C51.1248647,25.2315944 52.0969036,25.6484315 52.7904029,26.3894306 C53.4839021,27.1304298 53.8355232,28.1279144 53.76,29.14 Z" id="Shape" fill="#FFFFFF"></path>
            <path d="M63,25.59 L65.83,25.59 L65.83,35.26 L63,35.26 L63,33.92 C62.2615517,35.0092136 61.0258495,35.6552342 59.71,35.64 C56.99,35.64 55.08,33.49 55.08,30.43 C55.08,27.37 56.99,25.22 59.71,25.22 C61.0239618,25.2025263 62.2592712,25.8445868 63,26.93 L63,25.59 Z M63,30.43 C62.902212,29.0535923 61.7234289,28.0070227 60.3451253,28.0728988 C58.9668217,28.1387748 57.8932254,29.2929969 57.9271541,30.6724567 C57.9610828,32.0519165 59.0901244,33.1519632 60.47,33.15 C61.1742904,33.148998 61.846548,32.8556159 62.3262198,32.3399213 C62.8058916,31.8242268 63.0499111,31.1325203 63,30.43 Z" id="Shape" fill="#FFFFFF"></path>
            <path d="M68.59,27.75 L67.23,27.75 L67.23,25.59 L68.72,25.59 L69,23.16 L71.38,23.16 L71.38,25.6 L73.57,25.6 L73.57,27.75 L71.43,27.75 L71.43,31.85 C71.394822,32.2079971 71.5168407,32.5636269 71.7643968,32.8246163 C72.0119529,33.0856056 72.3606449,33.2262291 72.72,33.21 C73.05682,33.1999403 73.3918033,33.1563924 73.72,33.08 L73.72,35.35 C73.0950722,35.5450214 72.4446397,35.6461249 71.79,35.65 C69.86,35.65 68.62,34.19 68.62,32.14 L68.59,27.75 Z" id="Shape" fill="#FFFFFF"></path>
            <path d="M82.22,21.12 C83.0994082,21.1420076 83.7961065,21.8698217 83.7796933,22.7493522 C83.7632801,23.6288826 83.0399124,24.3301964 82.1602953,24.3193782 C81.2806783,24.3085601 80.5747773,23.5896681 80.58,22.71 C80.5680518,22.2759339 80.73873,21.8567603 81.0504931,21.5545023 C81.3622561,21.2522442 81.7865117,21.0946222 82.22,21.12 Z M83.64,35.27 L80.8,35.27 L80.8,25.59 L83.63,25.59 L83.64,35.27 Z" id="Shape" fill="#FFFFFF"></path>
            <path d="M85.47,32 L87.87,32 C87.87,33 88.78,33.64 90,33.64 C91,33.64 91.79,33.15 91.79,32.49 C91.79,30.54 85.56,32.49 85.56,28.39 C85.56,26.5 87.35,25.14 89.72,25.14 C92.31,25.14 94.18,26.54 94.2,28.48 L91.7,28.48 C91.7,27.69 90.85,27.14 89.7,27.14 C88.81,27.14 88.11,27.59 88.11,28.22 C88.11,30.07 94.48,28.54 94.49,32.22 C94.49,34.22 92.62,35.68 89.94,35.68 C87.26,35.68 85.47,34.15 85.47,32 Z" id="Shape" fill="#FFFFFF"></path>
            <path d="M23.59,44.49 L26.42,44.49 L26.42,54.16 L23.59,54.16 L23.59,52.82 C22.8515517,53.9092136 21.6158495,54.5552342 20.3,54.54 C17.58,54.54 15.67,52.39 15.67,49.33 C15.67,46.27 17.58,44.12 20.3,44.12 C21.6158495,44.1047658 22.8515517,44.7507864 23.59,45.84 L23.59,44.49 Z M23.59,49.33 C23.5191214,47.9529097 22.362475,46.8838933 20.9840748,46.9215056 C19.6056747,46.9591178 18.5090463,48.089619 18.5133702,49.4685254 C18.5176942,50.8474318 19.6213911,51.9710332 21,52 C21.701984,52.0092151 22.3764759,51.7274755 22.863334,51.2216735 C23.350192,50.7158716 23.6059919,50.0311212 23.57,49.33 L23.59,49.33 Z" id="Shape" fill="#FFFFFF"></path>
            <polygon id="Shape" fill="#FFFFFF" points="33 44.49 36 44.49 38 51.33 39.89 44.49 42.53 44.49 44.53 51.38 46.53 44.49 49.38 44.49 46.43 54.16 42.79 54.16 41.17 47.79 39.55 54.16 36 54.16"></polygon>
            <path d="M57.72,44.49 L60.55,44.49 L60.55,54.16 L57.72,54.16 L57.72,52.82 C56.9815517,53.9092136 55.7458495,54.5552342 54.43,54.54 C51.71,54.54 49.8,52.39 49.8,49.33 C49.8,46.27 51.71,44.12 54.43,44.12 C55.7458495,44.1047658 56.9815517,44.7507864 57.72,45.84 L57.72,44.49 Z M57.72,49.33 C57.6491376,47.9476457 56.484504,46.8765348 55.1010608,46.9213677 C53.7176177,46.9662006 52.6247773,48.1104687 52.6435647,49.4945107 C52.6623522,50.8785526 53.7858496,51.9927354 55.17,52 C55.8650531,51.9981746 56.5289946,51.7115995 57.0070678,51.2070717 C57.4851409,50.7025439 57.7355761,50.0241445 57.7,49.33 L57.72,49.33 Z" id="Shape" fill="#FFFFFF"></path>
            <polygon id="Shape" fill="#FFFFFF" points="65.35 54.16 62.52 54.16 62.52 40.16 65.35 40.16"></polygon>
            <polygon id="Shape" fill="#FFFFFF" points="70.13 54.16 67.3 54.16 67.3 40.16 70.13 40.16"></polygon>
            <path d="M79.3,51.08 L81.77,51.63 C81.26,53.31 79.28,54.54 76.99,54.54 C75.5635194,54.6085064 74.1738765,54.0745897 73.1602435,53.0685637 C72.1466106,52.0625377 71.602241,50.6769562 71.66,49.25 C71.6171529,47.8387052 72.1730026,46.4750834 73.1902667,45.4959191 C74.2075308,44.5167548 75.5913676,44.0133375 77,44.11 C78.3939202,44.0504512 79.7493241,44.5760193 80.738718,45.5597161 C81.7281119,46.5434129 82.2614983,47.8957591 82.21,49.29 C82.22932,49.573004 82.22932,49.856996 82.21,50.14 L74.63,50.14 C74.7576928,51.410841 75.8227911,52.3810722 77.1,52.39 C78.0225726,52.4064411 78.8748603,51.8989425 79.3,51.08 Z M79.3,48.42 C79.1871123,47.189832 78.1553367,46.2484033 76.92,46.2484033 C75.6846633,46.2484033 74.6528877,47.189832 74.54,48.42 L79.3,48.42 Z" id="Shape" fill="#FFFFFF"></path>
            <path d="M84.12,46.64 L82.76,46.64 L82.76,44.49 L84.25,44.49 L84.57,42.05 L86.95,42.05 L86.95,44.49 L89.14,44.49 L89.14,46.64 L86.95,46.64 L86.95,50.74 C86.914822,51.0979971 87.0368407,51.4536269 87.2843968,51.7146163 C87.5319529,51.9756056 87.8806449,52.1162291 88.24,52.1 C88.57682,52.0899403 88.9118033,52.0463924 89.24,51.97 L89.24,54.24 C88.6150722,54.4350214 87.9646397,54.5361249 87.31,54.54 C85.38,54.54 84.14,53.08 84.14,51.03 L84.12,46.64 Z" id="Shape" fill="#FFFFFF"></path>
            <path d="M94.21,50.23 C94.0526961,48.6991112 94.7876073,47.2137352 96.1,46.41 C96.86,45.9 97.59,45.41 97.59,44.48 C97.580022,43.9846096 97.368496,43.5147016 97.0042629,43.1787767 C96.6400298,42.8428519 96.154579,42.6699523 95.66,42.7 C94.357414,42.7834091 93.3382163,43.8548734 93.32,45.16 L90.47,44.63 C90.7836264,41.9820869 93.1199224,40.0461731 95.78,40.23 C98.58,40.23 100.69,41.91 100.69,44.23 C100.646673,45.7131803 99.7505505,47.0378824 98.39,47.63 C97.3669729,48.0581868 96.7340058,49.0943177 96.82,50.2 L94.21,50.23 Z M95.51,51.23 C96.3950854,51.2464952 97.1008228,51.9744565 97.0898769,52.859628 C97.078931,53.7447994 96.3554085,54.4550868 95.4701858,54.4496906 C94.5849631,54.4442944 93.8701537,53.7252391 93.87,52.84 C93.8695736,52.4111932 94.0445579,52.0008714 94.3543087,51.7043416 C94.6640596,51.4078118 95.0816194,51.250881 95.51,51.27 L95.51,51.23 Z" id="Shape" fill="#FFFFFF"></path>
        </g>
    </g>
</svg>