<svg xmlns="http://www.w3.org/2000/svg" xmlns:xlink="http://www.w3.org/1999/xlink" viewBox="0 0 95 121.64"><defs><style>.cls-1{fill:none;}.cls-2{fill:#dde26a;}.cls-3{fill:#fff;}.cls-4{fill:#afd35f;}.cls-5{clip-path:url(#clip-path);}.cls-6{fill:url(#linear-gradient);}</style><clipPath id="clip-path"><circle class="cls-1" cx="36.08" cy="35.41" r="24.4"/></clipPath><linearGradient id="linear-gradient" x1="43.7" y1="20.97" x2="43.7" y2="59.81" gradientUnits="userSpaceOnUse"><stop offset="0" stop-color="#79a93f"/><stop offset="1" stop-color="#a4b270" stop-opacity="0.5"/></linearGradient></defs><title>11Asset 1money</title><g id="Layer_2" data-name="Layer 2"><g id="Layer_1-2" data-name="Layer 1"><rect class="cls-2" width="95" height="121.64" rx="12" ry="12"/><path class="cls-3" d="M11.86,97.65V93.51l4.89-3.67h3.49v17.77H16.15V94.46Z"/><path class="cls-3" d="M31.43,89.22c4.79,0,8.11,4,8.11,9.51s-3.32,9.51-8.11,9.51-8.09-4-8.09-9.51S26.66,89.22,31.43,89.22Zm0,15.43c2.35,0,4-2.5,4-5.92s-1.67-5.92-4-5.92-4,2.5-4,5.92S29.08,104.64,31.43,104.64Z"/><path class="cls-3" d="M41.24,97.65V93.51l4.89-3.67h3.49v17.77H45.53V94.46Z"/><path class="cls-3" d="M12.38,83V70.5h3.89l3.52,9.12,3.48-9.12H27.2V83H24.33V74.05L20.89,83H18.68l-3.43-8.91V83Z"/><path class="cls-3" d="M33.87,83.31a4.83,4.83,0,1,1,0-9.66,4.83,4.83,0,1,1,0,9.66Zm0-7.35a2.53,2.53,0,1,0,2.36,2.52A2.35,2.35,0,0,0,33.87,76Z"/><path class="cls-3" d="M49.06,77.36V83H46.43V77.82A1.66,1.66,0,0,0,44.77,76a1.88,1.88,0,0,0-1.87,2v5H40.27V74h2.56v1.21a3.39,3.39,0,0,1,6.23,2.15Z"/><path class="cls-3" d="M57.39,80.11l2.29.51c-.47,1.56-2.31,2.7-4.43,2.7a4.71,4.71,0,0,1-4.94-4.9,4.65,4.65,0,0,1,4.94-4.76,4.58,4.58,0,0,1,4.83,4.79,5.73,5.73,0,0,1,0,.79l-7,0a2.32,2.32,0,0,0,2.29,2.08A2.25,2.25,0,0,0,57.39,80.11Zm0-2.47a2.22,2.22,0,0,0-4.41,0Z"/><path class="cls-3" d="M61.47,84.75a3.69,3.69,0,0,0,1.07.19c1.12,0,1.56-.8,2-1.89l-4.24-9h2.87l2.43,5.78,2-5.78h2.73l-3.47,9.28C66,85.57,65,87,63.2,87a5.16,5.16,0,0,1-1.73-.31Z"/><circle class="cls-3" cx="36.08" cy="35.41" r="24.4"/><circle class="cls-4" cx="36.08" cy="35.41" r="24.4"/><g class="cls-5"><polygon class="cls-6" points="26.93 43.39 42.77 58.88 60.48 59.81 60.48 38.91 37.94 20.97 31.38 30.23 36.08 35.41 36.08 43.8 26.93 43.39"/></g><path class="cls-3" d="M37.94,46.82v3H34.78v-3a12,12,0,0,1-7.85-3.46l2.56-3.59a9.82,9.82,0,0,0,5.29,2.83V37.41c-3.43-.83-7.15-2.16-7.15-6.66,0-3.39,2.69-6.26,7.15-6.69V21h3.16v3.16a11.56,11.56,0,0,1,6.75,3l-2.63,3.46a9.17,9.17,0,0,0-4.13-2.16V33c3.46.9,7.29,2.23,7.29,6.75C45.23,43.46,42.83,46.32,37.94,46.82ZM35.08,32.35V28.12c-1.7.17-2.6,1-2.6,2.23C32.48,31.38,33.55,31.95,35.08,32.35Zm5.32,8c0-1.23-1.16-1.8-2.76-2.26v4.66C39.54,42.46,40.4,41.43,40.4,40.33Z"/></g></g></svg>