<svg xmlns="http://www.w3.org/2000/svg" viewBox="0 0 444 348.34"><defs><style>.cls-1{fill:none;stroke:#19475e;stroke-linecap:round;stroke-linejoin:round;stroke-width:4px;}.cls-2{fill:#4cb0ed;}</style></defs><title>11Asset 1scalability-img1</title><g id="Layer_2" data-name="Layer 2"><g id="Layer_1-2" data-name="Layer 1"><rect class="cls-1" x="2" y="2" width="440" height="344.34"/><path class="cls-1" d="M2,272.08S442,331.79,442,8.55"/><path class="cls-2" d="M40,66.64V54.52l11.88-8.88h11v43H50.24V59.14Z"/><path class="cls-2" d="M89.36,44.14c11.82,0,20.28,9.66,20.28,23s-8.46,23-20.28,23-20.28-9.66-20.28-23S77.48,44.14,89.36,44.14Zm0,34.92c4.62,0,7.86-5,7.86-11.94S94,55.18,89.36,55.18s-7.86,5-7.86,11.94S84.68,79.05,89.36,79.05Z"/><path class="cls-2" d="M112.16,88.59l10.32-16.08-9.84-14.88h13.68l4.92,8.64,4.92-8.64H149.9L140,72.52l10.32,16.08h-14l-5-9.6-5,9.6Z"/></g></g></svg>