<svg xmlns="http://www.w3.org/2000/svg" viewBox="0 0 222.43 33.51"><defs><style>.cls-1{fill:#5086ff;}</style></defs><title>11Asset 1buy-by-coin-logo</title><g id="Layer_2" data-name="Layer 2"><g id="Layer_1-2" data-name="Layer 1"><path class="cls-1" d="M46.33,26.58V5.22H56.68c4.44,0,7.56,2.49,7.56,5.88a4.52,4.52,0,0,1-3.09,4.56,5,5,0,0,1,3.69,5.07c0,3.51-3.21,5.85-7.8,5.85ZM51.37,9V14h4.41c1.92,0,3.3-1,3.3-2.46S57.7,9,55.78,9Zm0,8.37v5.37H56c2.13,0,3.66-1.11,3.66-2.64S58.15,17.4,56,17.4Z"/><path class="cls-1" d="M67.45,20.82v-9.6H72V20c0,1.86,1.08,3.18,2.85,3.18A3.23,3.23,0,0,0,78,19.86V11.22h4.5V26.58H78.13V24.51a5.82,5.82,0,0,1-4.89,2.67C69.79,27.18,67.45,24.51,67.45,20.82Z"/><path class="cls-1" d="M86.32,29.64a6.36,6.36,0,0,0,1.83.33c1.92,0,2.67-1.38,3.36-3.24L84.25,11.22h4.92l4.17,9.9,3.42-9.9h4.68L95.5,27.12c-1.44,3.93-3.09,6.39-6.21,6.39a8.83,8.83,0,0,1-3-.54Z"/><path class="cls-1" d="M116.08,4.32v8.76a6.23,6.23,0,0,1,5.07-2.46c4.29,0,7.29,3.42,7.29,8.28s-3,8.28-7.29,8.28A6.39,6.39,0,0,1,116,24.72v1.86h-4.44V4.32Zm3.84,10.35a4,4,0,0,0-4,4.23,4,4,0,1,0,8,0A4,4,0,0,0,119.92,14.67Z"/><path class="cls-1" d="M130.81,29.64a6.36,6.36,0,0,0,1.83.33c1.92,0,2.67-1.38,3.36-3.24l-7.26-15.51h4.92l4.17,9.9,3.42-9.9h4.68L140,27.12c-1.44,3.93-3.09,6.39-6.21,6.39a8.83,8.83,0,0,1-3-.54Z"/><path class="cls-1" d="M177.58,19.23c-.72,4.71-5.16,8.1-10.62,8.1a11,11,0,0,1-11.4-11.43A11,11,0,0,1,167,4.47c5.4,0,9.84,3.48,10.59,8.31l-4.71.54a5.89,5.89,0,0,0-5.76-4.53c-3.81,0-6.48,2.94-6.48,7.11S163.3,23,167.08,23a6,6,0,0,0,5.79-4.38Z"/><path class="cls-1" d="M188,27.18c-5,0-8.52-3.39-8.52-8.28S183,10.62,188,10.62s8.55,3.39,8.55,8.28S193.09,27.18,188,27.18Zm0-12.6a4,4,0,0,0-4,4.32,4,4,0,1,0,8.07,0A4,4,0,0,0,188,14.58Z"/><path class="cls-1" d="M201.61,4.11a2.47,2.47,0,0,1,2.61,2.52,2.61,2.61,0,0,1-5.22,0A2.47,2.47,0,0,1,201.61,4.11Zm2.25,22.47h-4.5V11.22h4.5Z"/><path class="cls-1" d="M222.43,17v9.6h-4.5V17.76c0-1.86-1.08-3.18-2.85-3.18a3.23,3.23,0,0,0-3.21,3.36v8.64h-4.5V11.22h4.38v2.07a5.8,5.8,0,0,1,4.86-2.67C220.09,10.62,222.43,13.29,222.43,17Z"/><path class="cls-1" d="M15.91,0A15.91,15.91,0,1,0,31.82,15.91,15.91,15.91,0,0,0,15.91,0ZM26.7,20.47A11.71,11.71,0,1,1,7.63,7.63,1.67,1.67,0,1,1,10,10a8.37,8.37,0,0,0,2.66,13.62,8.35,8.35,0,0,0,9.17-1.79A8.36,8.36,0,0,0,17.59,7.72v8.19a1.67,1.67,0,1,1-3.35,0v-10A1.67,1.67,0,0,1,15.91,4.2,11.71,11.71,0,0,1,26.7,20.47Z"/></g></g></svg>