<?xml version="1.0" encoding="UTF-8"?>
<svg width="60px" height="60px" viewBox="0 0 60 60" version="1.1" xmlns="http://www.w3.org/2000/svg" xmlns:xlink="http://www.w3.org/1999/xlink">
    <!-- Generator: Sketch 50.2 (55047) - http://www.bohemiancoding.com/sketch -->
    <title>fb-icon</title>
    <desc>Created with Sketch.</desc>
    <defs></defs>
    <g id="Page-1" stroke="none" stroke-width="1" fill="none" fill-rule="evenodd">
        <g id="fb-icon" fill-rule="nonzero">
            <circle id="Oval" fill="#E4E6EA" cx="30" cy="30" r="30"></circle>
            <g id="Group" transform="translate(25.000000, 19.000000)" fill="#8C8D8F">
                <path d="M10.05,0.17 C10.05,0.24 10.05,0.31 10.05,0.38 C10.05,1.49 10.05,2.6 10.05,3.72 C10.05,3.87 10.05,3.91 9.85,3.91 L8,3.91 C7.79174105,3.91597687 7.584349,3.9393921 7.38,3.98 C6.98623848,4.04822808 6.69900621,4.39037241 6.7,4.79 C6.7,5.57 6.7,6.36 6.7,7.14 C6.7,7.28 6.79,7.26 6.88,7.26 L10.06,7.26 L9.66,11 L6.66,11 C6.66,11.09 6.66,11.16 6.66,11.23 C6.66,14.6966667 6.66,18.1666667 6.66,21.64 C6.66,21.7 6.66,21.77 6.66,21.83 L2.66,21.83 C2.66,21.77 2.66,21.7 2.66,21.64 C2.66,18.18 2.66,14.72 2.66,11.26 L2.66,11 L0,11 C0,10.92 0,10.87 0,10.81 C0,9.69 0,8.57 0,7.46 C0,7.31 0,7.27 0.2,7.27 L2.52,7.27 C2.68,7.27 2.72,7.22 2.72,7.06 C2.72,6.06 2.72,5.06 2.72,4.06 C2.7353782,3.33008898 2.91300528,2.61274883 3.24,1.96 C3.58487102,1.25880832 4.20341682,0.730693194 4.95,0.5 C5.37,0.36 5.82,0.31 6.26,0.21 L6.44,0.21 L10.05,0.17 Z" id="Shape"></path>
            </g>
        </g>
    </g>
</svg>