<svg xmlns="http://www.w3.org/2000/svg" viewBox="0 0 60 60"><defs><style>.cls-1{fill:#5086ff;}.cls-3{fill:#fff;}</style></defs><title>11Asset 5fb-icon</title><g id="Layer_2" data-name="Layer 2"><g id="Layer_1-2" data-name="Layer 1"><circle class="cls-1" cx="30" cy="30" r="30"/><g class="cls-2"><path class="cls-3" d="M35.05,19.17c0,.07,0,.14,0,.21,0,1.11,0,2.22,0,3.34,0,.15,0,.19-.2.19H33a3.73,3.73,0,0,0-.62.07.82.82,0,0,0-.68.81c0,.78,0,1.57,0,2.35,0,.14.09.12.18.12h3.18L34.66,30h-3c0,.09,0,.16,0,.23q0,5.2,0,10.41c0,.06,0,.13,0,.19h-4c0-.06,0-.13,0-.19q0-5.19,0-10.38V30H25c0-.08,0-.13,0-.19,0-1.12,0-2.24,0-3.35,0-.15,0-.19.2-.19h2.32c.16,0,.2-.05.2-.21,0-1,0-2,0-3a4.92,4.92,0,0,1,.52-2.1,2.84,2.84,0,0,1,1.71-1.46c.42-.14.87-.19,1.31-.29l.18,0Z"/></g></g></g></svg>