<svg xmlns="http://www.w3.org/2000/svg" viewBox="0 0 60 60"><defs><style>.cls-1{fill:#d74439;}.cls-2{fill:#ffffff;}</style></defs><title>11Asset 8gplus-icon</title><g id="Layer_2" data-name="Layer 2"><g id="Layer_1-2" data-name="Layer 1"><circle class="cls-1" cx="30" cy="30" r="30"/><path class="cls-2" d="M16.5,29.1a10.35,10.35,0,0,1,1.24-3.34A7.87,7.87,0,0,1,29,23.65c.21.15.4.33.51.42l-1.95,2.2a4.78,4.78,0,0,0-6.57.15,5,5,0,0,0-1,5.85,4.91,4.91,0,0,0,5.25,2.63,4.06,4.06,0,0,0,3.5-3.31H24.41V28.9h7.35a7.34,7.34,0,0,1-5.36,8.74,7.9,7.9,0,0,1-9.81-6.54.76.76,0,0,0-.09-.2Z"/><path class="cls-2" d="M43.5,31.12H40.13v3.34H37.9V31.13H34.53V28.9h3.33V25.53h2.23v3.34h3.4Z"/></g></g></svg>