<?xml version="1.0" encoding="UTF-8"?>
<svg width="60px" height="60px" viewBox="0 0 60 60" version="1.1" xmlns="http://www.w3.org/2000/svg" xmlns:xlink="http://www.w3.org/1999/xlink">
    <!-- Generator: Sketch 50.2 (55047) - http://www.bohemiancoding.com/sketch -->
    <title>gplus-icon</title>
    <desc>Created with Sketch.</desc>
    <defs></defs>
    <g id="Page-1" stroke="none" stroke-width="1" fill="none" fill-rule="evenodd">
        <g id="gplus-icon" fill-rule="nonzero">
            <circle id="Oval" fill="#E4E6EA" cx="30" cy="30" r="30"></circle>
            <path d="M16.5,29.1 C16.7171658,27.9233611 17.1367136,26.7932887 17.74,25.76 C18.9109403,23.9348117 20.7830983,22.6736525 22.9145043,22.2742505 C25.0459103,21.8748485 27.2476689,22.3726006 29,23.65 C29.21,23.8 29.4,23.98 29.51,24.07 L27.56,26.27 C25.6774524,24.5679049 22.7929052,24.6337621 20.99,26.42 C19.410276,27.9399299 19.004857,30.3116313 19.99,32.27 C20.9652491,34.211789 23.1008356,35.2816162 25.24,34.9 C27.0059094,34.6827617 28.424638,33.3410498 28.74,31.59 L24.41,31.59 L24.41,28.9 L31.76,28.9 C32.6412632,32.7851746 30.2624709,36.6640262 26.4,37.64 C24.2208593,38.2065376 21.9035182,37.8163189 20.0300892,36.5673662 C18.1566602,35.3184135 16.9051733,33.3294135 16.59,31.1 C16.5698276,31.0293326 16.539512,30.9619646 16.5,30.9 L16.5,29.1 Z" id="Shape" fill="#8C8D8F"></path>
            <polygon id="Shape" fill="#8C8D8F" points="43.5 31.12 40.13 31.12 40.13 34.46 37.9 34.46 37.9 31.13 34.53 31.13 34.53 28.9 37.86 28.9 37.86 25.53 40.09 25.53 40.09 28.87 43.49 28.87"></polygon>
        </g>
    </g>
</svg>