<?xml version="1.0" encoding="UTF-8"?>
<svg width="20px" height="29px" viewBox="0 0 20 29" version="1.1" xmlns="http://www.w3.org/2000/svg" xmlns:xlink="http://www.w3.org/1999/xlink">
    <!-- Generator: Sketch 50.2 (55047) - http://www.bohemiancoding.com/sketch -->
    <title>help-icon</title>
    <desc>Created with Sketch.</desc>
    <defs></defs>
    <g id="Page-1" stroke="none" stroke-width="1" fill="none" fill-rule="evenodd">
        <g id="help-icon" fill="#FFFFFF" stroke="#8B8C8E" stroke-width="0.5">
            <path d="M7.55,20.22 C7.55,16.12 8.92,14.28 11.28,12.61 C12.98,11.43 14.53,10.28 14.53,8.29 C14.5046725,7.08445415 13.9912018,5.94079511 13.1071208,5.12080534 C12.2230399,4.30081558 11.0440425,3.87470142 9.84,3.94 C6.84,3.94 4.71,6.27 4.34,9.48 L0.27,8.7 C0.757964611,3.76852756 4.99780899,0.0674237381 9.95,0.25 C15.01,0.25 18.95,3.54 18.95,8.11 C18.95,11.51 16.95,13.11 14.41,14.79 C12.381074,15.8031153 11.1877037,17.9631155 11.41,20.22 L7.55,20.22 Z M9.47,23 C10.1300574,22.9522516 10.7798359,23.1838351 11.2609075,23.6382862 C11.7419792,24.0927372 12.0101373,24.7282954 12,25.39 C12.0232712,26.0589892 11.764921,26.7070761 11.2878016,27.176592 C10.8106823,27.6461078 10.1585291,27.8940144 9.49,27.86 C8.8248576,27.8882487 8.17807561,27.6377871 7.70543058,27.1689384 C7.23278556,26.7000897 6.97711615,26.0553486 7,25.39 C6.98805245,24.7384665 7.24717589,24.1112236 7.71547853,23.6580887 C8.18378117,23.2049537 8.81921272,22.9666151 9.47,23 Z" id="Shape"></path>
        </g>
    </g>
</svg>