<svg xmlns="http://www.w3.org/2000/svg" viewBox="0 0 60 60"><defs><style>.cls-1{fill:#006fb0;}.cls-2{fill:#ffffff;}</style></defs><title>11Asset 7linkedin-icon</title><g id="Layer_2" data-name="Layer 2"><g id="Layer_1-2" data-name="Layer 1"><circle class="cls-1" cx="30" cy="30" r="30"/><path class="cls-2" d="M31.15,28.51c.24-.28.45-.56.69-.81a3.69,3.69,0,0,1,2.26-1.11,5.16,5.16,0,0,1,2.5.26,4,4,0,0,1,2.16,1.88A6.73,6.73,0,0,1,39.51,32c0,2.31,0,4.61,0,6.92,0,0,0,.08,0,.13H35.43v-.19q0-3.12,0-6.25a4.71,4.71,0,0,0-.22-1.6,1.84,1.84,0,0,0-2-1.28,2.22,2.22,0,0,0-2,1.61,3.57,3.57,0,0,0-.1,1c0,2.17,0,4.33,0,6.5v.21H27.08V26.83H31c.14,0,.18,0,.18.18,0,.45,0,.89,0,1.34Z"/><path class="cls-2" d="M24.8,26.83V39.09H20.92c-.15,0-.18,0-.18-.18q0-6,0-11.9c0-.14,0-.18.18-.18H24.8Z"/><path class="cls-2" d="M22.77,25.16a2.18,2.18,0,0,1-1.93-1A2.08,2.08,0,0,1,22,21a2.48,2.48,0,0,1,2.24.29,2,2,0,0,1,.84,2A1.91,1.91,0,0,1,23.73,25a7.28,7.28,0,0,1-1,.21Z"/></g></g></svg>