<?xml version="1.0" encoding="UTF-8"?>
<svg width="60px" height="60px" viewBox="0 0 60 60" version="1.1" xmlns="http://www.w3.org/2000/svg" xmlns:xlink="http://www.w3.org/1999/xlink">
    <!-- Generator: Sketch 50.2 (55047) - http://www.bohemiancoding.com/sketch -->
    <title>linkedin-icon</title>
    <desc>Created with Sketch.</desc>
    <defs></defs>
    <g id="Page-1" stroke="none" stroke-width="1" fill="none" fill-rule="evenodd">
        <g id="linkedin-icon" fill-rule="nonzero">
            <circle id="Oval" fill="#E4E6EA" cx="30" cy="30" r="30"></circle>
            <path d="M31.15,28.51 C31.39,28.23 31.6,27.95 31.84,27.7 C32.439895,27.0764753 33.2398266,26.6835885 34.1,26.59 C34.9420253,26.4692771 35.8008362,26.5585934 36.6,26.85 C37.5273284,27.1886433 38.2966683,27.8582541 38.76,28.73 C39.2820303,29.7392119 39.540047,30.8641648 39.51,32 C39.51,34.31 39.51,36.61 39.51,38.92 C39.51,38.92 39.51,39 39.51,39.05 L35.43,39.05 L35.43,38.86 C35.43,36.78 35.43,34.6966667 35.43,32.61 C35.4493354,32.0679779 35.3749081,31.5266886 35.21,31.01 C34.944684,30.152696 34.0996082,29.6118474 33.21,29.73 C32.2691333,29.7876328 31.4672475,30.4331508 31.21,31.34 C31.1296805,31.6669505 31.0960137,32.0036189 31.11,32.34 C31.11,34.51 31.11,36.67 31.11,38.84 L31.11,39.05 L27.08,39.05 L27.08,26.83 L31,26.83 C31.14,26.83 31.18,26.83 31.18,27.01 C31.18,27.46 31.18,27.9 31.18,28.35 L31.15,28.51 Z" id="Shape" fill="#8C8D8F"></path>
            <path d="M24.8,26.83 L24.8,39.09 L20.92,39.09 C20.77,39.09 20.74,39.09 20.74,38.91 C20.74,34.91 20.74,30.9433333 20.74,27.01 C20.74,26.87 20.74,26.83 20.92,26.83 L24.8,26.83 Z" id="Shape" fill="#8C8D8F"></path>
            <path d="M22.77,25.16 C21.994512,25.1940478 21.2594169,24.8131695 20.84,24.16 C20.4689338,23.6069238 20.3851622,22.9096002 20.6146754,22.2843745 C20.8441886,21.6591488 21.3592272,21.1816417 22,21 C22.7499087,20.731305 23.5832413,20.8391919 24.24,21.29 C24.8886217,21.7337311 25.2172583,22.5161992 25.08,23.29 C25.0310853,24.0859262 24.4928422,24.7677008 23.73,25 C23.4019967,25.0933356 23.0678405,25.1635084 22.73,25.21 L22.77,25.16 Z" id="Shape" fill="#8C8D8F"></path>
        </g>
    </g>
</svg>