<svg xmlns="http://www.w3.org/2000/svg" viewBox="0 0 60 60"><defs><style>.cls-1{fill:#4ba3eb;}.cls-3{fill:#ffffff;}</style></defs><title>11Asset 6twitter-icon</title><g id="Layer_2" data-name="Layer 2"><g id="Layer_1-2" data-name="Layer 1"><circle class="cls-1" cx="30" cy="30" r="30"/><g class="cls-2"><path class="cls-3" d="M39.21,22.4a4.73,4.73,0,0,1-1.56,2.11,10,10,0,0,0,2-.47l-.1.16A8.45,8.45,0,0,1,38,25.88a.39.39,0,0,0-.17.33,13.22,13.22,0,0,1-.28,2.69,11.51,11.51,0,0,1-4.83,7.21,10.1,10.1,0,0,1-4.61,1.72A12.07,12.07,0,0,1,23,37.45a13.1,13.1,0,0,1-2.46-1.1.75.75,0,0,1-.21-.17,8.39,8.39,0,0,0,5.77-1.67,4.14,4.14,0,0,1-3.7-2.79,6.14,6.14,0,0,0,1.67-.08,4.08,4.08,0,0,1-3.06-4,5,5,0,0,0,1.72.46,4.17,4.17,0,0,1-1.21-5.33l1,.95A11.16,11.16,0,0,0,29.65,27h.1c0-.34,0-.67,0-1A4,4,0,0,1,33,22.15a3.83,3.83,0,0,1,3.43.94.58.58,0,0,0,.65.15l1.7-.65Z"/></g></g></g></svg>