<?xml version="1.0" encoding="UTF-8"?>
<svg width="60px" height="60px" viewBox="0 0 60 60" version="1.1" xmlns="http://www.w3.org/2000/svg" xmlns:xlink="http://www.w3.org/1999/xlink">
    <!-- Generator: Sketch 50.2 (55047) - http://www.bohemiancoding.com/sketch -->
    <title>twitter-icon</title>
    <desc>Created with Sketch.</desc>
    <defs></defs>
    <g id="Page-1" stroke="none" stroke-width="1" fill="none" fill-rule="evenodd">
        <g id="twitter-icon" fill-rule="nonzero">
            <circle id="Oval" fill="#E4E6EA" cx="30" cy="30" r="30"></circle>
            <g id="Group" transform="translate(20.000000, 22.000000)" fill="#8C8D8F">
                <path d="M19.21,0.4 C18.8994054,1.23638425 18.3585917,1.96786954 17.65,2.51 C18.3310347,2.42241321 19.0012375,2.26491556 19.65,2.04 L19.55,2.2 C19.1118104,2.82761931 18.5903741,3.39278897 18,3.88 C17.8912593,3.9542493 17.827326,4.07835525 17.83,4.21 C17.8288728,5.11388095 17.7350486,6.01526329 17.55,6.9 C16.9424074,9.84147773 15.2090672,12.4289276 12.72,14.11 C11.3486205,15.0545991 9.76496106,15.6454655 8.11,15.83 C6.3991013,16.0705207 4.65650479,15.9409343 3,15.45 C2.14436731,15.1688715 1.32000698,14.8002551 0.54,14.35 C0.460286025,14.3065132 0.389131666,14.248912 0.33,14.18 C2.39352255,14.3545095 4.44868051,13.7596891 6.1,12.51 C4.41294547,12.4220067 2.94858105,11.3177968 2.4,9.72 C2.95771042,9.76960244 3.51958484,9.7426863 4.07,9.64 C2.25060085,9.17038055 0.987212366,7.51889233 1.01,5.64 C1.55119611,5.89499967 2.13376373,6.05080264 2.73,6.1 C1.05625148,4.87215158 0.540476901,2.60018588 1.52,0.77 L2.52,1.72 C4.42115481,3.64053088 6.95459889,4.80598622 9.65,5 L9.75,5 C9.75,4.66 9.75,4.33 9.75,4 C9.78743496,2.10990829 11.142995,0.504091017 13,0.15 C14.2283174,-0.118683763 15.5102775,0.232640591 16.43,1.09 C16.5933594,1.27206232 16.85338,1.33206709 17.08,1.24 L18.78,0.59 L19.21,0.4 Z" id="Shape"></path>
            </g>
        </g>
    </g>
</svg>